#N canvas 0 36 1440 756 10;
#X obj 136 220 hsl 40 15 0 127 0 1 \$0-maestro4-pan1-s \$0-maestro4-pan1-r HP1 -25 8 0 10 #fcfcfc #000000 #000000 0 1;
#X obj 133 125 vsl 17 79 0 127 0 1 \$0-maestro4-ch1-s \$0-maestro4-ch1-r CH1 -1 -9 0 10 #fcfcfc #000000 #000000 5200 1;
#X obj 152 125 vu 25 80 \$0-maestro4-ch1-meter-r empty -1 -8 0 10 #404040 #000000 0 0;
#X obj 211 220 hsl 40 15 0 127 0 1 \$0-maestro4-pan2-s \$0-maestro4-pan2-r HP2 -25 7 0 10 #fcfcfc #000000 #000000 0 1;
#X obj 208 125 vsl 17 79 0 127 0 1 \$0-maestro4-ch2-s \$0-maestro4-ch2-r CH2 -1 -9 0 10 #fcfcfc #000000 #000000 4400 1;
#X obj 227 125 vu 25 80 \$0-maestro4-ch2-meter-r empty -1 -8 0 10 #404040 #000000 0 0;
#X obj 286 220 hsl 40 15 0 127 0 1 \$0-maestro4-pan3-s \$0-maestro4-pan3-r HP3 -25 8 0 10 #fcfcfc #000000 #000000 500 1;
#X obj 283 125 vsl 17 79 1 127 0 1 \$0-maestro4-ch3-s \$0-maestro4-ch3-r CH3 -1 -9 0 10 #fcfcfc #000000 #000000 7600 1;
#X obj 302 125 vu 25 80 \$0-maestro4-ch3-meter-r empty -1 -8 0 10 #404040 #000000 0 0;
#X obj 360 220 hsl 40 15 0 127 0 1 \$0-maestro4-pan4-s \$0-maestro4-pan4-r HP4 -25 8 0 10 #fcfcfc #000000 #000000 0 1;
#X obj 357 125 vsl 17 79 0 127 0 1 \$0-maestro4-ch4-s \$0-maestro4-ch4-r CH4 -1 -9 0 10 #fcfcfc #000000 #000000 5500 1;
#X obj 376 125 vu 25 80 \$0-maestro4-ch4-meter-r empty -1 -8 0 10 #404040 #000000 0 0;
#X obj 758 125 vu 15 280 \$0-maestro4-meter-left-r empty -1 -8 0 10 #404040 #000000 0 0;
#X obj 776 125 vu 15 280 \$0-maestro4-meter-right-r empty -1 -8 0 10 #404040 #000000 0 0;
#X obj 726 125 vsl 30 279 1.27 127 1 1 \$0-maestro4-master-s \$0-maestro4-master-r MASTER 0 -8 0 10 #fcfcfc #000000 #000000 27800 1;
#X obj 166 80 cnv 5 5 5 empty \$0-instance-num 0 0 0 0 12 #fcfcfc #404040 0;
#N canvas 315 35 895 724 state-saving-multiple-instances 0;
#X obj 206 14 loadbang;
#X obj 627 194 textfile;
#X msg 897 177 rewind;
#X msg 854 177 bang;
#X obj 111 683 textfile;
#X obj 854 138 t b b;
#X obj 111 329 f;
#X obj 52 552 f;
#X obj 52 373 t b b b;
#X msg 97 553 clear;
#X obj 272 189 outlet;
#X text 314 193 INSTANCE NUMBER;
#X obj 233 125 f \$1;
#X obj 233 161 t f f f;
#X obj 206 34 t b b;
#X obj 52 350 bng 15 250 50 0 empty empty empty 17 7 0 10 #fcfcfc #000000 #000000;
#X obj 52 206 r SAVE-S;
#X obj 92 143 r \$0-maestro4-ch1-s;
#X obj 627 596 s \$0-maestro4-ch1-r;
#X obj 102 162 r \$0-maestro4-pan1-s;
#X obj 632 577 s \$0-maestro4-pan1-r;
#X obj 116 183 r \$0-maestro4-ch2-s;
#X obj 641 559 s \$0-maestro4-ch2-r;
#X obj 122 201 r \$0-maestro4-pan2-s;
#X obj 648 541 s \$0-maestro4-pan2-r;
#X obj 128 220 r \$0-maestro4-ch3-s;
#X obj 658 523 s \$0-maestro4-ch3-r;
#X obj 134 238 r \$0-maestro4-pan3-s;
#X obj 668 505 s \$0-maestro4-pan3-r;
#X obj 156 276 r \$0-maestro4-pan4-s;
#X obj 688 469 s \$0-maestro4-pan4-r;
#X obj 256 449 r \$0-maestro4-master-s;
#X obj 846 283 s \$0-maestro4-master-r, f 35;
#X obj 146 258 r \$0-maestro4-ch4-s;
#X obj 677 487 s \$0-maestro4-ch4-r;
#X obj 266 469 r \$0-maestro4-lpass-s;
#X obj 887 257 s \$0-maestro4-lpass-r;
#X msg 118 653 write statesave/\$1-big-mixer-ss.txt;
#X msg 627 169 read statesave/\$1-big-mixer-ss.txt;
#X obj 111 492 pack f f f f f f f f f f f f f f f f f f;
#X msg 111 530 set \$1 \$2 \$3 \$4 \$5 \$6 \$7 \$8 \$9 \$10 \$11 \$12 \$13 \$14 \$15 \$16 \$17 \$18, f 67;
#X obj 173 296 r \$0-maestro4-ch5-s;
#X obj 183 315 r \$0-maestro4-pan5-s;
#X obj 197 336 r \$0-maestro4-ch6-s;
#X obj 209 355 r \$0-maestro4-pan6-s;
#X obj 215 374 r \$0-maestro4-ch7-s;
#X obj 221 392 r \$0-maestro4-pan7-s;
#X obj 233 412 r \$0-maestro4-ch8-s;
#X obj 243 430 r \$0-maestro4-pan8-s;
#X obj 628 217 unpack f f f f f f f f f f f f f f f f f f;
#X obj 693 450 s \$0-maestro4-ch5-r;
#X obj 698 431 s \$0-maestro4-pan5-r;
#X obj 707 413 s \$0-maestro4-ch6-r;
#X obj 714 395 s \$0-maestro4-pan6-r;
#X obj 721 376 s \$0-maestro4-ch7-r;
#X obj 731 358 s \$0-maestro4-pan7-r;
#X obj 740 340 s \$0-maestro4-ch8-r;
#X obj 751 322 s \$0-maestro4-pan8-r;
#X connect 0 0 14 0;
#X connect 1 0 49 0;
#X connect 2 0 1 0;
#X connect 3 0 1 0;
#X connect 5 0 3 0;
#X connect 5 1 2 0;
#X connect 6 0 39 0;
#X connect 7 0 37 0;
#X connect 8 0 7 0;
#X connect 8 1 6 0;
#X connect 8 2 9 0;
#X connect 9 0 4 0;
#X connect 12 0 13 0;
#X connect 13 0 7 1;
#X connect 13 1 38 0;
#X connect 13 2 10 0;
#X connect 14 0 5 0;
#X connect 14 1 12 0;
#X connect 15 0 8 0;
#X connect 16 0 15 0;
#X connect 17 0 6 1;
#X connect 19 0 39 1;
#X connect 21 0 39 2;
#X connect 23 0 39 3;
#X connect 25 0 39 4;
#X connect 27 0 39 5;
#X connect 29 0 39 7;
#X connect 31 0 39 16;
#X connect 33 0 39 6;
#X connect 35 0 39 17;
#X connect 37 0 4 0;
#X connect 38 0 1 0;
#X connect 39 0 40 0;
#X connect 40 0 4 0;
#X connect 41 0 39 8;
#X connect 42 0 39 9;
#X connect 43 0 39 10;
#X connect 44 0 39 11;
#X connect 45 0 39 12;
#X connect 46 0 39 13;
#X connect 47 0 39 14;
#X connect 48 0 39 15;
#X connect 49 0 18 0;
#X connect 49 1 20 0;
#X connect 49 2 22 0;
#X connect 49 3 24 0;
#X connect 49 4 26 0;
#X connect 49 5 28 0;
#X connect 49 6 34 0;
#X connect 49 7 30 0;
#X connect 49 8 50 0;
#X connect 49 9 51 0;
#X connect 49 10 52 0;
#X connect 49 11 53 0;
#X connect 49 12 54 0;
#X connect 49 13 55 0;
#X connect 49 14 56 0;
#X connect 49 15 57 0;
#X connect 49 16 32 0;
#X connect 49 17 36 0;
#X restore 955 119 pd state-saving-multiple-instances;
#X obj 955 176 s \$0-instance-num;
#X obj 955 138 makefilename %d;
#X msg 955 157 label \$1;
#X obj 180 74 hsl 128 15 1.27 127 1 1 \$0-maestro4-lpass-s \$0-maestro4-lpass-r LPASS 135 7 0 10 #fcfcfc #000000 #000000 0 1;
#N canvas 391 51 987 763 external-messages 0;
#X floatatom 25 702 5 0 0 0 - - - 0;
#X obj 24 324 spigot;
#X obj 57 284 tgl 15 0 empty empty empty 17 7 0 10 #fcfcfc #000000 #000000 0 1;
#X obj 93 268 ==;
#X obj 108 244 f \$1;
#X obj 108 220 loadbang;
#X msg 24 198 \$1 \$2;
#X msg 24 152 symbol \$1;
#X obj 24 176 pack s f;
#X obj 25 681 f;
#X obj 25 629 t b f;
#X obj 25 652 spigot;
#X obj 24 58 unpack s f f;
#X symbolatom 24 90 10 0 0 0 - - - 0;
#X obj 57 304 t f f;
#X obj 84 328 s \$0-msg-spigot;
#X obj 73 636 r \$0-msg-spigot;
#X floatatom 62 590 5 0 0 0 - - - 0;
#X obj 62 569 f;
#X obj 62 517 t b f;
#X obj 62 540 spigot;
#X obj 110 524 r \$0-msg-spigot;
#X floatatom 192 707 5 0 0 0 - - - 0;
#X obj 192 686 f;
#X obj 192 634 t b f;
#X obj 192 657 spigot;
#X obj 240 641 r \$0-msg-spigot;
#X floatatom 224 584 5 0 0 0 - - - 0;
#X obj 224 563 f;
#X obj 224 511 t b f;
#X obj 224 534 spigot;
#X obj 272 518 r \$0-msg-spigot;
#X floatatom 368 699 5 0 0 0 - - - 0;
#X obj 368 678 f;
#X obj 368 626 t b f;
#X obj 368 649 spigot;
#X obj 416 633 r \$0-msg-spigot;
#X obj 24 10 r maestro4;
#X obj 24 376 route CH1 CH2 CH3 CH4 PAN1 PAN2 PAN3 PAN4 LPASS MASTER;
#X floatatom 383 566 5 0 0 0 - - - 0;
#X obj 383 545 f;
#X obj 383 493 t b f;
#X obj 383 516 spigot;
#X obj 431 500 r \$0-msg-spigot;
#X floatatom 538 695 5 0 0 0 - - - 0;
#X obj 538 674 f;
#X obj 538 622 t b f;
#X obj 538 645 spigot;
#X obj 586 629 r \$0-msg-spigot;
#X floatatom 578 544 5 0 0 0 - - - 0;
#X obj 578 523 f;
#X obj 578 471 t b f;
#X obj 578 494 spigot;
#X obj 626 478 r \$0-msg-spigot;
#X floatatom 596 415 5 0 0 0 - - - 0;
#X obj 596 394 f;
#X obj 596 342 t b f;
#X obj 596 365 spigot;
#X obj 644 349 r \$0-msg-spigot;
#X floatatom 647 278 5 0 0 0 - - - 0;
#X obj 647 257 f;
#X obj 647 205 t b f;
#X obj 647 228 spigot;
#X obj 695 212 r \$0-msg-spigot;
#X obj 25 722 s \$0-maestro4-ch1-r;
#X obj 62 610 s \$0-maestro4-ch2-r;
#X obj 192 727 s \$0-maestro4-ch3-r;
#X obj 224 604 s \$0-maestro4-ch4-r;
#X obj 368 719 s \$0-maestro4-pan1-r;
#X obj 383 586 s \$0-maestro4-pan2-r;
#X obj 538 715 s \$0-maestro4-pan3-r;
#X obj 578 564 s \$0-maestro4-pan4-r;
#X obj 596 435 s \$0-maestro4-lpass-r;
#X obj 647 298 s \$0-maestro4-master-r;
#X connect 0 0 64 0;
#X connect 1 0 38 0;
#X connect 2 0 14 0;
#X connect 3 0 2 0;
#X connect 4 0 3 1;
#X connect 5 0 4 0;
#X connect 6 0 1 0;
#X connect 7 0 8 0;
#X connect 8 0 6 0;
#X connect 9 0 0 0;
#X connect 10 0 11 0;
#X connect 10 1 9 1;
#X connect 11 0 9 0;
#X connect 12 0 13 0;
#X connect 12 1 8 1;
#X connect 12 2 3 0;
#X connect 13 0 7 0;
#X connect 14 0 1 1;
#X connect 14 1 15 0;
#X connect 16 0 11 1;
#X connect 17 0 65 0;
#X connect 18 0 17 0;
#X connect 19 0 20 0;
#X connect 19 1 18 1;
#X connect 20 0 18 0;
#X connect 21 0 20 1;
#X connect 22 0 66 0;
#X connect 23 0 22 0;
#X connect 24 0 25 0;
#X connect 24 1 23 1;
#X connect 25 0 23 0;
#X connect 26 0 25 1;
#X connect 27 0 67 0;
#X connect 28 0 27 0;
#X connect 29 0 30 0;
#X connect 29 1 28 1;
#X connect 30 0 28 0;
#X connect 31 0 30 1;
#X connect 32 0 68 0;
#X connect 33 0 32 0;
#X connect 34 0 35 0;
#X connect 34 1 33 1;
#X connect 35 0 33 0;
#X connect 36 0 35 1;
#X connect 37 0 12 0;
#X connect 38 0 10 0;
#X connect 38 1 19 0;
#X connect 38 2 24 0;
#X connect 38 3 29 0;
#X connect 38 4 34 0;
#X connect 38 5 41 0;
#X connect 38 6 46 0;
#X connect 38 7 51 0;
#X connect 38 8 56 0;
#X connect 38 9 61 0;
#X connect 39 0 69 0;
#X connect 40 0 39 0;
#X connect 41 0 42 0;
#X connect 41 1 40 1;
#X connect 42 0 40 0;
#X connect 43 0 42 1;
#X connect 44 0 70 0;
#X connect 45 0 44 0;
#X connect 46 0 47 0;
#X connect 46 1 45 1;
#X connect 47 0 45 0;
#X connect 48 0 47 1;
#X connect 49 0 71 0;
#X connect 50 0 49 0;
#X connect 51 0 52 0;
#X connect 51 1 50 1;
#X connect 52 0 50 0;
#X connect 53 0 52 1;
#X connect 54 0 72 0;
#X connect 55 0 54 0;
#X connect 56 0 57 0;
#X connect 56 1 55 1;
#X connect 57 0 55 0;
#X connect 58 0 57 1;
#X connect 59 0 73 0;
#X connect 60 0 59 0;
#X connect 61 0 62 0;
#X connect 61 1 60 1;
#X connect 62 0 60 0;
#X connect 63 0 62 1;
#X restore 955 101 pd external-messages;
#N canvas 251 25 691 707 channel1 0;
#X obj 109 334 r \$0-maestro4-pan1-s;
#X obj 179 55 r \$0-maestro4-ch1-s;
#X obj 376 109 * 0.00787402;
#X obj 376 146 pack 0 50;
#X obj 376 164 line~;
#X obj 376 91 - 1.27;
#X obj 162 241 env~;
#X obj 162 260 - 96;
#X obj 162 279 s \$0-maestro4-ch1-meter-r;
#X obj 376 127 clip 0 1;
#X obj 77 39 catch~ channel1;
#X text 76 19 CHANNEL 1;
#N canvas 754 54 788 718 HPF 0;
#X obj 348 73 inlet~;
#X obj 346 473 min~ 1;
#X obj 346 495 max~ -1;
#X obj 346 517 outlet~;
#X obj 346 447 *~ 1;
#X obj 412 342 mtof;
#X floatatom 412 321 5 0 0 2 freq - - 0;
#X obj 346 425 e_beequad;
#X obj 413 386 u_highpass;
#X obj 412 281 + 8;
#X obj 413 365 max 10;
#X obj 497 519 outlet;
#X text 354 550 AUDIO-OUT;
#X text 496 547 HZ-OUT;
#X obj 412 73 inlet;
#X text 416 39 HZ-IN;
#X text 333 34 AUDIO-IN;
#X msg 470 366 100;
#X obj 470 346 loadbang;
#X msg 481 281 127;
#X connect 0 0 7 0;
#X connect 1 0 2 0;
#X connect 2 0 3 0;
#X connect 4 0 1 0;
#X connect 5 0 11 0;
#X connect 5 0 10 0;
#X connect 6 0 5 0;
#X connect 7 0 4 0;
#X connect 8 0 7 1;
#X connect 9 0 6 0;
#X connect 10 0 8 0;
#X connect 14 0 9 0;
#X connect 17 0 8 1;
#X connect 18 0 17 0;
#X connect 19 0 6 0;
#X restore 76 354 pd HPF;
#X obj 75 638 throw~ hw1;
#X obj 86 561 r \$0-49-s;
#X msg 86 600 set hw\$1;
#X obj 86 582 + 1;
#X text 151 560 Set the hardware channel - which has the dac in the mother patch;
#X obj 101 442 throw~ \$0-left;
#X obj 91 462 throw~ \$0-right;
#X obj 76 148 softclip_console7_v2;
#X obj 76 221 *~ 1;
#X connect 0 0 12 1;
#X connect 1 0 5 0;
#X connect 1 0 20 1;
#X connect 2 0 9 0;
#X connect 3 0 4 0;
#X connect 5 0 2 0;
#X connect 6 0 7 0;
#X connect 7 0 8 0;
#X connect 9 0 3 0;
#X connect 10 0 20 0;
#X connect 12 0 13 0;
#X connect 12 0 19 0;
#X connect 12 0 18 0;
#X connect 14 0 16 0;
#X connect 15 0 13 0;
#X connect 16 0 15 0;
#X connect 20 0 21 0;
#X connect 21 0 6 0;
#X connect 21 0 12 0;
#X restore 1173 101 pd channel1;
#N canvas 255 36 655 704 channel2 0;
#X obj 225 456 throw~ \$0-left;
#X obj 215 476 throw~ \$0-right;
#X obj 414 135 pack 0 50;
#X obj 414 157 line~;
#X obj 414 67 - 1.27;
#X obj 414 44 r \$0-maestro4-ch2-s;
#X obj 221 341 r \$0-maestro4-pan2-s;
#X obj 234 257 env~;
#X obj 234 280 - 96;
#X obj 234 302 s \$0-maestro4-ch2-meter-r;
#X obj 414 112 clip 0 1;
#X obj 414 90 * 0.00787402;
#X obj 210 36 catch~ channel2;
#N canvas 63 88 788 718 HPF 0;
#X obj 342 73 inlet~;
#X obj 343 563 min~ 1;
#X obj 343 585 max~ -1;
#X obj 343 607 outlet~;
#X obj 343 537 *~ 1;
#X obj 388 281 mtof;
#X floatatom 559 345 5 0 0 2 BW - - 0;
#X floatatom 388 260 5 0 0 2 freq - - 0;
#X obj 346 425 e_beequad;
#X obj 398 386 u_highpass;
#X obj 388 210 + 8;
#X obj 397 354 max 10;
#X obj 487 599 outlet;
#X text 351 640 AUDIO-OUT;
#X text 486 627 HZ-OUT;
#X obj 412 70 inlet;
#X text 416 39 HZ-IN;
#X text 327 34 AUDIO-IN;
#X msg 501 302 100;
#X obj 503 259 loadbang;
#X obj 508 148 + 8;
#X obj 508 169 mtof;
#X connect 0 0 8 0;
#X connect 1 0 2 0;
#X connect 2 0 3 0;
#X connect 4 0 1 0;
#X connect 5 0 12 0;
#X connect 5 0 11 0;
#X connect 6 0 9 1;
#X connect 7 0 5 0;
#X connect 8 0 4 0;
#X connect 9 0 8 1;
#X connect 10 0 7 0;
#X connect 11 0 9 0;
#X connect 15 0 10 0;
#X connect 18 0 9 1;
#X connect 19 0 18 0;
#X connect 20 0 21 0;
#X restore 202 405 pd HPF;
#X obj 202 638 throw~ hw1;
#X msg 213 600 set hw\$1;
#X obj 213 582 + 1;
#X text 281 558 Set the hardware channel - which has the dac in the mother patch;
#X obj 213 561 r \$0-50-s;
#X obj 209 146 softclip_console7_v2;
#X obj 210 202 *~ 1;
#X connect 2 0 3 0;
#X connect 4 0 11 0;
#X connect 5 0 4 0;
#X connect 5 0 19 1;
#X connect 6 0 13 1;
#X connect 7 0 8 0;
#X connect 8 0 9 0;
#X connect 10 0 2 0;
#X connect 11 0 10 0;
#X connect 12 0 19 0;
#X connect 13 0 1 0;
#X connect 13 0 0 0;
#X connect 13 0 14 0;
#X connect 15 0 14 0;
#X connect 16 0 15 0;
#X connect 18 0 16 0;
#X connect 19 0 20 0;
#X connect 20 0 7 0;
#X connect 20 0 13 0;
#X restore 1173 120 pd channel2;
#N canvas 596 114 598 553 channel3 0;
#X obj 345 110 * 0.00787402;
#X obj 345 177 pack 0 50;
#X obj 345 199 line~;
#X obj 345 86 - 1.27;
#X obj 345 63 r \$0-maestro4-ch3-s;
#X obj 218 314 r \$0-maestro4-pan3-s;
#X obj 223 251 env~;
#X obj 223 273 - 96;
#X obj 223 295 s \$0-maestro4-ch3-meter-r;
#X obj 345 132 clip 0 1;
#X obj 205 39 catch~ channel3;
#X text 201 16 CHANNEL 3;
#N canvas 63 88 788 718 HPF 0;
#X obj 342 73 inlet~;
#X obj 343 563 min~ 1;
#X obj 343 585 max~ -1;
#X obj 343 607 outlet~;
#X obj 343 537 *~ 1;
#X obj 388 281 mtof;
#X floatatom 559 345 5 0 0 2 BW - - 0;
#X floatatom 388 260 5 0 0 2 freq - - 0;
#X obj 346 425 e_beequad;
#X obj 398 386 u_highpass;
#X obj 388 210 + 8;
#X obj 397 354 max 10;
#X obj 487 599 outlet;
#X text 351 640 AUDIO-OUT;
#X text 486 627 HZ-OUT;
#X obj 412 70 inlet;
#X text 416 39 HZ-IN;
#X text 327 34 AUDIO-IN;
#X msg 501 302 100;
#X obj 503 259 loadbang;
#X obj 508 148 + 8;
#X obj 508 169 mtof;
#X connect 0 0 8 0;
#X connect 1 0 2 0;
#X connect 2 0 3 0;
#X connect 4 0 1 0;
#X connect 5 0 12 0;
#X connect 5 0 11 0;
#X connect 6 0 9 1;
#X connect 7 0 5 0;
#X connect 8 0 4 0;
#X connect 9 0 8 1;
#X connect 10 0 7 0;
#X connect 11 0 9 0;
#X connect 15 0 10 0;
#X connect 18 0 9 1;
#X connect 19 0 18 0;
#X connect 20 0 21 0;
#X restore 202 405 pd HPF;
#X obj 204 658 throw~ hw1;
#X msg 215 620 set hw\$1;
#X obj 215 602 + 1;
#X text 280 580 Set the hardware channel - which has the dac in the mother patch;
#X obj 215 581 r \$0-51-s;
#X obj 232 506 throw~ \$0-left;
#X obj 277 484 throw~ \$0-right;
#X obj 199 145 softclip_console7_v2;
#X obj 204 225 *~ 1;
#X connect 0 0 9 0;
#X connect 1 0 2 0;
#X connect 3 0 0 0;
#X connect 4 0 3 0;
#X connect 4 0 20 1;
#X connect 5 0 12 1;
#X connect 6 0 7 0;
#X connect 7 0 8 0;
#X connect 9 0 1 0;
#X connect 10 0 20 0;
#X connect 12 0 13 0;
#X connect 12 0 18 0;
#X connect 12 0 19 0;
#X connect 14 0 13 0;
#X connect 15 0 14 0;
#X connect 17 0 15 0;
#X connect 20 0 21 0;
#X connect 21 0 6 0;
#X connect 21 0 12 0;
#X restore 1173 139 pd channel3;
#N canvas 596 114 598 553 channel4 0;
#X obj 289 620 throw~ \$0-left;
#X obj 334 598 throw~ \$0-right;
#X obj 384 143 * 0.00787402;
#X obj 384 211 pack 0 50;
#X obj 384 233 line~;
#X obj 384 119 - 1.27;
#X obj 384 96 r \$0-maestro4-ch4-s;
#X obj 262 395 r \$0-maestro4-pan4-s;
#X obj 262 312 env~;
#X obj 262 334 - 96;
#X obj 262 356 s \$0-maestro4-ch4-meter-r;
#X obj 384 165 clip 0 1;
#X obj 240 72 catch~ channel4;
#X text 236 51 CHANNEL 4;
#N canvas 63 88 788 718 HPF 0;
#X obj 342 73 inlet~;
#X obj 343 563 min~ 1;
#X obj 343 585 max~ -1;
#X obj 343 607 outlet~;
#X obj 343 537 *~ 1;
#X obj 388 281 mtof;
#X floatatom 559 345 5 0 0 2 BW - - 0;
#X floatatom 388 260 5 0 0 2 freq - - 0;
#X obj 346 425 e_beequad;
#X obj 398 386 u_highpass;
#X obj 388 210 + 8;
#X obj 397 354 max 10;
#X obj 487 599 outlet;
#X text 351 640 AUDIO-OUT;
#X text 486 627 HZ-OUT;
#X obj 412 70 inlet;
#X text 416 39 HZ-IN;
#X text 327 34 AUDIO-IN;
#X msg 501 302 100;
#X obj 503 259 loadbang;
#X obj 508 148 + 8;
#X obj 508 169 mtof;
#X connect 0 0 8 0;
#X connect 1 0 2 0;
#X connect 2 0 3 0;
#X connect 4 0 1 0;
#X connect 5 0 12 0;
#X connect 5 0 11 0;
#X connect 6 0 9 1;
#X connect 7 0 5 0;
#X connect 8 0 4 0;
#X connect 9 0 8 1;
#X connect 10 0 7 0;
#X connect 11 0 9 0;
#X connect 15 0 10 0;
#X connect 18 0 9 1;
#X connect 19 0 18 0;
#X connect 20 0 21 0;
#X restore 249 512 pd HPF;
#X obj 244 738 throw~ hw1;
#X msg 255 700 set hw\$1;
#X obj 255 682 + 1;
#X text 320 660 Set the hardware channel - which has the dac in the mother patch;
#X obj 255 661 r \$0-52-s;
#X obj 240 163 softclip_console7_v2;
#X obj 239 260 *~ 1;
#X connect 2 0 11 0;
#X connect 3 0 4 0;
#X connect 5 0 2 0;
#X connect 6 0 5 0;
#X connect 6 0 20 1;
#X connect 7 0 14 1;
#X connect 8 0 9 0;
#X connect 9 0 10 0;
#X connect 11 0 3 0;
#X connect 12 0 20 0;
#X connect 14 0 0 0;
#X connect 14 0 1 0;
#X connect 14 0 15 0;
#X connect 16 0 15 0;
#X connect 17 0 16 0;
#X connect 19 0 17 0;
#X connect 20 0 21 0;
#X connect 21 0 8 0;
#X connect 21 0 14 0;
#X restore 1173 159 pd channel4;
#N canvas 557 159 708 611 master-out 0;
#X obj 251 70 catch~ \$0-left;
#X obj 296 90 catch~ \$0-right;
#X obj 364 410 env~;
#X obj 364 456 s \$0-maestro4-meter-left-r;
#X obj 364 432 - 96;
#X obj 347 322 env~;
#X obj 347 344 - 96;
#X obj 347 368 s \$0-maestro4-meter-right-r;
#X obj 356 245 *~;
#X obj 311 245 *~;
#X obj 329 116 r \$0-maestro4-master-s;
#X obj 332 157 * 0.00787402;
#X obj 329 182 pack 0 50;
#X obj 329 205 line~;
#X obj 329 138 - 1.27;
#X obj 296 346 hip~ 5;
#X obj 295 461 clip~ -1 1;
#X obj 251 348 hip~ 5;
#X obj 250 439 clip~ -1 1;
#X obj 251 325 *~ 1;
#X obj 296 324 *~ 1;
#X obj 250 515 dac~ 1 2;
#X obj 421 158 r \$0-maestro4-lpass-s;
#X obj 421 180 / 127;
#X obj 421 202 * 19950;
#X floatatom 421 246 5 0 0 0 - - - 0;
#X obj 421 224 - 150;
#X obj 421 265 pack 0 50;
#X obj 421 287 line;
#X obj 421 309 t f f f f;
#X text 73 166 Added for increased loudness;
#X text 250 44 MASTER-OUT:;
#X obj 193 543 outlet~;
#X obj 244 546 outlet~;
#X obj 110 117 softclip_console7_bus;
#X obj 43 18 vsl 16 136 0 127 0 0 empty empty empty 0 -9 0 10 #fcfcfc #000000 #000000 0 1;
#X obj 89 23 loadbang;
#X msg 89 44 127;
#X obj 251 166 *~ 1;
#X obj 293 166 *~ 1;
#X connect 0 0 34 0;
#X connect 2 0 4 0;
#X connect 4 0 3 0;
#X connect 5 0 6 0;
#X connect 6 0 7 0;
#X connect 10 0 14 0;
#X connect 10 0 34 1;
#X connect 11 0 12 0;
#X connect 12 0 13 0;
#X connect 13 0 8 1;
#X connect 13 0 9 1;
#X connect 14 0 11 0;
#X connect 15 0 16 0;
#X connect 16 0 33 0;
#X connect 17 0 18 0;
#X connect 18 0 32 0;
#X connect 19 0 17 0;
#X connect 19 0 2 0;
#X connect 20 0 5 0;
#X connect 20 0 15 0;
#X connect 22 0 23 0;
#X connect 23 0 24 0;
#X connect 24 0 26 0;
#X connect 25 0 27 0;
#X connect 26 0 25 0;
#X connect 27 0 28 0;
#X connect 28 0 29 0;
#X connect 34 0 38 0;
#X connect 34 0 39 0;
#X connect 36 0 37 0;
#X connect 37 0 35 0;
#X connect 38 0 9 0;
#X connect 38 0 19 0;
#X connect 39 0 8 0;
#X connect 39 0 20 0;
#X restore 1173 339 pd master-out;
#X obj 434 220 hsl 40 15 0 127 0 1 \$0-maestro4-pan5-s \$0-maestro4-pan5-r HP5 -25 8 0 10 #fcfcfc #000000 #000000 900 1;
#X obj 431 125 vsl 17 79 0 127 0 1 \$0-maestro4-ch5-s \$0-maestro4-ch5-r CH5 -1 -9 0 10 #fcfcfc #000000 #000000 2100 1;
#X obj 450 125 vu 25 80 \$0-maestro4-ch5-meter-r empty -1 -8 0 10 #404040 #000000 0 0;
#X obj 510 220 hsl 40 15 0 127 0 1 \$0-maestro4-pan6-s \$0-maestro4-pan6-r HP6 -25 8 0 10 #fcfcfc #000000 #000000 1000 1;
#X obj 507 125 vsl 17 79 0 127 0 1 \$0-maestro4-ch6-s \$0-maestro4-ch6-r CH6 -1 -9 0 10 #fcfcfc #000000 #000000 3400 1;
#X obj 526 125 vu 25 80 \$0-maestro4-ch6-meter-r empty -1 -8 0 10 #404040 #000000 0 0;
#X obj 584 220 hsl 40 15 0 127 0 1 \$0-maestro4-pan7-s \$0-maestro4-pan7-r HP7 -25 8 0 10 #fcfcfc #000000 #000000 0 1;
#X obj 581 125 vsl 17 79 0 127 0 1 \$0-maestro4-ch7-s \$0-maestro4-ch7-r CH7 -1 -9 0 10 #fcfcfc #000000 #000000 7800 1;
#X obj 600 125 vu 25 80 \$0-maestro4-ch7-meter-r empty -1 -8 0 10 #404040 #000000 0 0;
#X obj 659 220 hsl 40 15 0 127 0 1 \$0-maestro4-pan8-s \$0-maestro4-pan8-r HP8 -25 8 0 10 #fcfcfc #000000 #000000 2500 1;
#X obj 656 125 vsl 17 79 0 127 0 1 \$0-maestro4-ch8-s \$0-maestro4-ch8-r CH8 -1 -9 0 10 #fcfcfc #000000 #000000 3000 1;
#X obj 675 125 vu 25 80 \$0-maestro4-ch8-meter-r empty -1 -8 0 10 #404040 #000000 0 0;
#N canvas 643 68 383 629 channel5 0;
#X obj 110 563 throw~ \$0-left;
#X obj 155 541 throw~ \$0-right;
#X obj 217 112 * 0.00787402;
#X obj 217 172 pack 0 50;
#X obj 217 194 line~;
#X obj 217 88 - 1.27;
#X obj 108 255 env~;
#X obj 108 277 - 96;
#X obj 217 139 clip 0 1;
#X text 92 19 CHANNEL 1;
#X obj 93 39 catch~ channel5;
#X obj 217 65 r \$0-maestro4-ch5-s;
#X obj 108 299 s \$0-maestro4-ch5-meter-r;
#X obj 98 327 r \$0-maestro4-pan5-s;
#N canvas 63 88 788 718 HPF 0;
#X obj 342 73 inlet~;
#X obj 343 563 min~ 1;
#X obj 343 585 max~ -1;
#X obj 343 607 outlet~;
#X obj 343 537 *~ 1;
#X obj 388 281 mtof;
#X floatatom 559 345 5 0 0 2 BW - - 0;
#X floatatom 388 260 5 0 0 2 freq - - 0;
#X obj 346 425 e_beequad;
#X obj 398 386 u_highpass;
#X obj 388 210 + 8;
#X obj 397 354 max 10;
#X obj 487 599 outlet;
#X text 351 640 AUDIO-OUT;
#X text 486 627 HZ-OUT;
#X obj 412 70 inlet;
#X text 416 39 HZ-IN;
#X text 327 34 AUDIO-IN;
#X msg 501 302 100;
#X obj 503 259 loadbang;
#X obj 508 148 + 8;
#X obj 508 169 mtof;
#X connect 0 0 8 0;
#X connect 1 0 2 0;
#X connect 2 0 3 0;
#X connect 4 0 1 0;
#X connect 5 0 12 0;
#X connect 5 0 11 0;
#X connect 6 0 9 1;
#X connect 7 0 5 0;
#X connect 8 0 4 0;
#X connect 9 0 8 1;
#X connect 10 0 7 0;
#X connect 11 0 9 0;
#X connect 15 0 10 0;
#X connect 18 0 9 1;
#X connect 19 0 18 0;
#X connect 20 0 21 0;
#X restore 91 394 pd HPF;
#X obj 84 668 throw~ hw1;
#X msg 95 630 set hw\$1;
#X obj 95 612 + 1;
#X text 160 590 Set the hardware channel - which has the dac in the mother patch;
#X obj 95 591 r \$0-53-s;
#X obj 92 221 *~ 1;
#X obj 92 145 softclip_console7_v2;
#X connect 2 0 8 0;
#X connect 3 0 4 0;
#X connect 5 0 2 0;
#X connect 6 0 7 0;
#X connect 7 0 12 0;
#X connect 8 0 3 0;
#X connect 10 0 21 0;
#X connect 11 0 5 0;
#X connect 11 0 21 1;
#X connect 13 0 14 1;
#X connect 14 0 0 0;
#X connect 14 0 1 0;
#X connect 14 0 15 0;
#X connect 16 0 15 0;
#X connect 17 0 16 0;
#X connect 19 0 17 0;
#X connect 20 0 6 0;
#X connect 20 0 14 0;
#X connect 21 0 20 0;
#X restore 1173 191 pd channel5;
#N canvas 672 97 655 704 channel6 0;
#X obj 239 592 throw~ \$0-left;
#X obj 284 570 throw~ \$0-right;
#X obj 365 153 pack 0 50;
#X obj 365 175 line~;
#X obj 365 85 - 1.27;
#X obj 234 257 env~;
#X obj 234 280 - 96;
#X obj 365 130 clip 0 1;
#X obj 365 108 * 0.00787402;
#X obj 210 36 catch~ channel6;
#X obj 365 62 r \$0-maestro4-ch6-s;
#X obj 234 302 s \$0-maestro4-ch6-meter-r;
#X obj 221 341 r \$0-maestro4-pan6-s;
#N canvas 63 88 788 718 HPF 0;
#X obj 342 73 inlet~;
#X obj 343 563 min~ 1;
#X obj 343 585 max~ -1;
#X obj 343 607 outlet~;
#X obj 343 537 *~ 1;
#X obj 388 281 mtof;
#X floatatom 559 345 5 0 0 2 BW - - 0;
#X floatatom 388 260 5 0 0 2 freq - - 0;
#X obj 346 425 e_beequad;
#X obj 398 386 u_highpass;
#X obj 388 210 + 8;
#X obj 397 354 max 10;
#X obj 487 599 outlet;
#X text 351 640 AUDIO-OUT;
#X text 486 627 HZ-OUT;
#X obj 412 70 inlet;
#X text 416 39 HZ-IN;
#X text 327 34 AUDIO-IN;
#X msg 501 302 100;
#X obj 503 259 loadbang;
#X obj 508 148 + 8;
#X obj 508 169 mtof;
#X connect 0 0 8 0;
#X connect 1 0 2 0;
#X connect 2 0 3 0;
#X connect 4 0 1 0;
#X connect 5 0 12 0;
#X connect 5 0 11 0;
#X connect 6 0 9 1;
#X connect 7 0 5 0;
#X connect 8 0 4 0;
#X connect 9 0 8 1;
#X connect 10 0 7 0;
#X connect 11 0 9 0;
#X connect 15 0 10 0;
#X connect 18 0 9 1;
#X connect 19 0 18 0;
#X connect 20 0 21 0;
#X restore 210 428 pd HPF;
#X obj 213 698 throw~ hw1;
#X msg 224 660 set hw\$1;
#X obj 224 642 + 1;
#X text 289 620 Set the hardware channel - which has the dac in the mother patch;
#X obj 224 621 r \$0-54-s;
#X obj 210 202 *~ 1;
#X obj 211 124 softclip_console7_v2;
#X connect 2 0 3 0;
#X connect 4 0 8 0;
#X connect 5 0 6 0;
#X connect 6 0 11 0;
#X connect 7 0 2 0;
#X connect 8 0 7 0;
#X connect 9 0 20 0;
#X connect 10 0 4 0;
#X connect 10 0 20 1;
#X connect 12 0 13 1;
#X connect 13 0 0 0;
#X connect 13 0 1 0;
#X connect 13 0 14 0;
#X connect 15 0 14 0;
#X connect 16 0 15 0;
#X connect 18 0 16 0;
#X connect 19 0 5 0;
#X connect 19 0 13 0;
#X connect 20 0 19 0;
#X restore 1173 210 pd channel6;
#N canvas 596 114 598 553 channel7 0;
#X obj 244 555 throw~ \$0-left;
#X obj 289 533 throw~ \$0-right;
#X obj 384 106 * 0.00787402;
#X obj 384 173 pack 0 50;
#X obj 384 195 line~;
#X obj 384 82 - 1.27;
#X obj 223 251 env~;
#X obj 223 273 - 96;
#X obj 384 128 clip 0 1;
#X text 201 16 CHANNEL 3;
#X obj 205 39 catch~ channel7;
#X obj 384 59 r \$0-maestro4-ch7-s;
#X obj 223 295 s \$0-maestro4-ch7-meter-r;
#X obj 218 314 r \$0-maestro4-pan7-s;
#N canvas 63 88 788 718 HPF 0;
#X obj 342 73 inlet~;
#X obj 343 563 min~ 1;
#X obj 343 585 max~ -1;
#X obj 343 607 outlet~;
#X obj 343 537 *~ 1;
#X obj 388 281 mtof;
#X floatatom 559 345 5 0 0 2 BW - - 0;
#X floatatom 388 260 5 0 0 2 freq - - 0;
#X obj 346 425 e_beequad;
#X obj 398 386 u_highpass;
#X obj 388 210 + 8;
#X obj 397 354 max 10;
#X obj 487 599 outlet;
#X text 351 640 AUDIO-OUT;
#X text 486 627 HZ-OUT;
#X obj 412 70 inlet;
#X text 416 39 HZ-IN;
#X text 327 34 AUDIO-IN;
#X msg 501 302 100;
#X obj 503 259 loadbang;
#X obj 508 148 + 8;
#X obj 508 169 mtof;
#X connect 0 0 8 0;
#X connect 1 0 2 0;
#X connect 2 0 3 0;
#X connect 4 0 1 0;
#X connect 5 0 12 0;
#X connect 5 0 11 0;
#X connect 6 0 9 1;
#X connect 7 0 5 0;
#X connect 8 0 4 0;
#X connect 9 0 8 1;
#X connect 10 0 7 0;
#X connect 11 0 9 0;
#X connect 15 0 10 0;
#X connect 18 0 9 1;
#X connect 19 0 18 0;
#X connect 20 0 21 0;
#X restore 206 410 pd HPF;
#X obj 214 668 throw~ hw1;
#X msg 225 630 set hw\$1;
#X obj 225 612 + 1;
#X text 290 590 Set the hardware channel - which has the dac in the mother patch;
#X obj 225 591 r \$0-55-s;
#X obj 194 138 softclip_console7_v2;
#X obj 204 225 *~ 1;
#X connect 2 0 8 0;
#X connect 3 0 4 0;
#X connect 5 0 2 0;
#X connect 6 0 7 0;
#X connect 7 0 12 0;
#X connect 8 0 3 0;
#X connect 10 0 20 0;
#X connect 11 0 5 0;
#X connect 11 0 20 1;
#X connect 13 0 14 1;
#X connect 14 0 1 0;
#X connect 14 0 0 0;
#X connect 14 0 15 0;
#X connect 16 0 15 0;
#X connect 17 0 16 0;
#X connect 19 0 17 0;
#X connect 20 0 21 0;
#X connect 21 0 6 0;
#X connect 21 0 14 0;
#X restore 1173 229 pd channel7;
#N canvas 214 112 704 673 channel8 0;
#X obj 384 143 * 0.00787402;
#X obj 384 211 pack 0 50;
#X obj 384 233 line~;
#X obj 384 119 - 1.27;
#X obj 262 312 env~;
#X obj 262 334 - 96;
#X obj 384 165 clip 0 1;
#X text 236 51 CHANNEL 4;
#X obj 240 72 catch~ channel8;
#X obj 384 96 r \$0-maestro4-ch8-s;
#X obj 262 356 s \$0-maestro4-ch8-meter-r;
#X obj 274 386 r \$0-maestro4-pan8-s;
#N canvas 63 88 788 718 HPF 0;
#X obj 342 73 inlet~;
#X obj 343 563 min~ 1;
#X obj 343 585 max~ -1;
#X obj 343 607 outlet~;
#X obj 343 537 *~ 1;
#X obj 388 281 mtof;
#X floatatom 559 345 5 0 0 2 BW - - 0;
#X floatatom 388 260 5 0 0 2 freq - - 0;
#X obj 346 425 e_beequad;
#X obj 398 386 u_highpass;
#X obj 388 210 + 8;
#X obj 397 354 max 10;
#X obj 487 599 outlet;
#X text 351 640 AUDIO-OUT;
#X text 486 627 HZ-OUT;
#X obj 412 70 inlet;
#X text 416 39 HZ-IN;
#X text 327 34 AUDIO-IN;
#X msg 501 302 100;
#X obj 503 259 loadbang;
#X obj 508 148 + 8;
#X obj 508 169 mtof;
#X connect 0 0 8 0;
#X connect 1 0 2 0;
#X connect 2 0 3 0;
#X connect 4 0 1 0;
#X connect 5 0 12 0;
#X connect 5 0 11 0;
#X connect 6 0 9 1;
#X connect 7 0 5 0;
#X connect 8 0 4 0;
#X connect 9 0 8 1;
#X connect 10 0 7 0;
#X connect 11 0 9 0;
#X connect 15 0 10 0;
#X connect 18 0 9 1;
#X connect 19 0 18 0;
#X connect 20 0 21 0;
#X restore 248 442 pd HPF;
#X obj 248 664 throw~ hw1;
#X msg 259 626 set hw\$1;
#X obj 259 608 + 1;
#X text 324 586 Set the hardware channel - which has the dac in the mother patch;
#X obj 259 587 r \$0-56-s;
#X obj 240 159 softclip_console7_v2;
#X obj 239 260 *~ 1;
#X obj 273 528 throw~ \$0-left;
#X obj 318 506 throw~ \$0-right;
#X connect 0 0 6 0;
#X connect 1 0 2 0;
#X connect 3 0 0 0;
#X connect 4 0 5 0;
#X connect 5 0 10 0;
#X connect 6 0 1 0;
#X connect 8 0 18 0;
#X connect 9 0 3 0;
#X connect 9 0 18 1;
#X connect 11 0 12 1;
#X connect 12 0 13 0;
#X connect 12 0 20 0;
#X connect 12 0 21 0;
#X connect 14 0 13 0;
#X connect 15 0 14 0;
#X connect 17 0 15 0;
#X connect 18 0 19 0;
#X connect 19 0 4 0;
#X connect 19 0 12 0;
#X restore 1173 249 pd channel8;
#X obj 1173 442 outlet~;
#X obj 1248 441 outlet~;
#N canvas 279 140 1161 616 push-controll 0;
#N canvas 208 233 1232 580 push-encoder 0;
#X obj 53 80 push-encoder-reader;
#X obj 53 -17 ctlin 71;
#X obj 164 58 r \$0-maestro4-ch1-s;
#X obj 54 106 s \$0-maestro4-ch1-r;
#X obj 298 75 push-encoder-reader;
#X obj 298 -22 ctlin 72;
#X obj 409 53 r \$0-maestro4-ch2-s;
#X obj 299 101 s \$0-maestro4-ch2-r;
#X obj 536 77 push-encoder-reader;
#X obj 781 72 push-encoder-reader;
#X obj 536 -20 ctlin 73;
#X obj 781 -25 ctlin 74;
#X obj 647 55 r \$0-maestro4-ch3-s;
#X obj 892 50 r \$0-maestro4-ch4-s;
#X obj 56 241 push-encoder-reader;
#X obj 301 236 push-encoder-reader;
#X obj 539 238 push-encoder-reader;
#X obj 784 233 push-encoder-reader;
#X obj 56 154 ctlin 75;
#X obj 301 149 ctlin 76;
#X obj 539 151 ctlin 77;
#X obj 784 146 ctlin 78;
#X obj 167 219 r \$0-maestro4-ch5-s;
#X obj 412 214 r \$0-maestro4-ch6-s;
#X obj 650 216 r \$0-maestro4-ch7-s;
#X obj 895 211 r \$0-maestro4-ch8-s;
#X obj 537 103 s \$0-maestro4-ch3-r;
#X obj 782 98 s \$0-maestro4-ch4-r;
#X obj 57 267 s \$0-maestro4-ch5-r;
#X obj 302 262 s \$0-maestro4-ch6-r;
#X obj 540 264 s \$0-maestro4-ch7-r;
#X obj 785 259 s \$0-maestro4-ch8-r;
#X obj 54 38 main-menu;
#X obj 105 20 r \$0-mm;
#N canvas 150 175 450 300 sm1 0;
#X obj 109 64 r \$0-sm;
#X obj 109 102 sel;
#X obj 75 170 outlet;
#X msg 108 123 1;
#X msg 135 123 0;
#X obj 75 149 spigot;
#X obj 75 37 inlet;
#X obj 124 83 r \$0-sm1;
#X connect 0 0 1 0;
#X connect 1 0 3 0;
#X connect 1 1 4 0;
#X connect 3 0 5 1;
#X connect 4 0 5 1;
#X connect 5 0 2 0;
#X connect 6 0 5 0;
#X connect 7 0 1 1;
#X restore 54 57 pd sm1;
#X obj 299 29 main-menu;
#X obj 350 11 r \$0-mm;
#N canvas 150 175 450 300 sm1 0;
#X obj 109 64 r \$0-sm;
#X obj 109 102 sel;
#X obj 75 170 outlet;
#X msg 108 123 1;
#X msg 135 123 0;
#X obj 75 149 spigot;
#X obj 75 37 inlet;
#X obj 124 83 r \$0-sm1;
#X connect 0 0 1 0;
#X connect 1 0 3 0;
#X connect 1 1 4 0;
#X connect 3 0 5 1;
#X connect 4 0 5 1;
#X connect 5 0 2 0;
#X connect 6 0 5 0;
#X connect 7 0 1 1;
#X restore 299 48 pd sm1;
#X obj 537 20 main-menu;
#X obj 588 2 r \$0-mm;
#N canvas 150 175 450 300 sm1 0;
#X obj 109 64 r \$0-sm;
#X obj 109 102 sel;
#X obj 75 170 outlet;
#X msg 108 123 1;
#X msg 135 123 0;
#X obj 75 149 spigot;
#X obj 75 37 inlet;
#X obj 124 83 r \$0-sm1;
#X connect 0 0 1 0;
#X connect 1 0 3 0;
#X connect 1 1 4 0;
#X connect 3 0 5 1;
#X connect 4 0 5 1;
#X connect 5 0 2 0;
#X connect 6 0 5 0;
#X connect 7 0 1 1;
#X restore 537 39 pd sm1;
#X obj 781 15 main-menu;
#X obj 832 -3 r \$0-mm;
#N canvas 150 175 450 300 sm1 0;
#X obj 109 64 r \$0-sm;
#X obj 109 102 sel;
#X obj 75 170 outlet;
#X msg 108 123 1;
#X msg 135 123 0;
#X obj 75 149 spigot;
#X obj 75 37 inlet;
#X obj 124 83 r \$0-sm1;
#X connect 0 0 1 0;
#X connect 1 0 3 0;
#X connect 1 1 4 0;
#X connect 3 0 5 1;
#X connect 4 0 5 1;
#X connect 5 0 2 0;
#X connect 6 0 5 0;
#X connect 7 0 1 1;
#X restore 781 34 pd sm1;
#X obj 57 194 main-menu;
#X obj 108 176 r \$0-mm;
#N canvas 150 175 450 300 sm1 0;
#X obj 109 64 r \$0-sm;
#X obj 109 102 sel;
#X obj 75 170 outlet;
#X msg 108 123 1;
#X msg 135 123 0;
#X obj 75 149 spigot;
#X obj 75 37 inlet;
#X obj 124 83 r \$0-sm1;
#X connect 0 0 1 0;
#X connect 1 0 3 0;
#X connect 1 1 4 0;
#X connect 3 0 5 1;
#X connect 4 0 5 1;
#X connect 5 0 2 0;
#X connect 6 0 5 0;
#X connect 7 0 1 1;
#X restore 57 213 pd sm1;
#X obj 309 185 main-menu;
#X obj 360 167 r \$0-mm;
#N canvas 150 175 450 300 sm1 0;
#X obj 109 64 r \$0-sm;
#X obj 109 102 sel;
#X obj 75 170 outlet;
#X msg 108 123 1;
#X msg 135 123 0;
#X obj 75 149 spigot;
#X obj 75 37 inlet;
#X obj 124 83 r \$0-sm1;
#X connect 0 0 1 0;
#X connect 1 0 3 0;
#X connect 1 1 4 0;
#X connect 3 0 5 1;
#X connect 4 0 5 1;
#X connect 5 0 2 0;
#X connect 6 0 5 0;
#X connect 7 0 1 1;
#X restore 309 204 pd sm1;
#X obj 543 187 main-menu;
#X obj 594 169 r \$0-mm;
#N canvas 150 175 450 300 sm1 0;
#X obj 109 64 r \$0-sm;
#X obj 109 102 sel;
#X obj 75 170 outlet;
#X msg 108 123 1;
#X msg 135 123 0;
#X obj 75 149 spigot;
#X obj 75 37 inlet;
#X obj 124 83 r \$0-sm1;
#X connect 0 0 1 0;
#X connect 1 0 3 0;
#X connect 1 1 4 0;
#X connect 3 0 5 1;
#X connect 4 0 5 1;
#X connect 5 0 2 0;
#X connect 6 0 5 0;
#X connect 7 0 1 1;
#X restore 543 206 pd sm1;
#X obj 793 182 main-menu;
#X obj 844 164 r \$0-mm;
#N canvas 150 175 450 300 sm1 0;
#X obj 109 64 r \$0-sm;
#X obj 109 102 sel;
#X obj 75 170 outlet;
#X msg 108 123 1;
#X msg 135 123 0;
#X obj 75 149 spigot;
#X obj 75 37 inlet;
#X obj 124 83 r \$0-sm1;
#X connect 0 0 1 0;
#X connect 1 0 3 0;
#X connect 1 1 4 0;
#X connect 3 0 5 1;
#X connect 4 0 5 1;
#X connect 5 0 2 0;
#X connect 6 0 5 0;
#X connect 7 0 1 1;
#X restore 793 201 pd sm1;
#X obj 53 460 push-encoder-reader;
#X obj 53 363 ctlin 71;
#X obj 298 455 push-encoder-reader;
#X obj 298 358 ctlin 72;
#X obj 536 457 push-encoder-reader;
#X obj 781 452 push-encoder-reader;
#X obj 536 360 ctlin 73;
#X obj 781 355 ctlin 74;
#X obj 56 621 push-encoder-reader;
#X obj 301 616 push-encoder-reader;
#X obj 539 618 push-encoder-reader;
#X obj 784 613 push-encoder-reader;
#X obj 56 534 ctlin 75;
#X obj 301 529 ctlin 76;
#X obj 539 531 ctlin 77;
#X obj 784 526 ctlin 78;
#X obj 54 418 main-menu;
#X obj 105 400 r \$0-mm;
#X obj 299 409 main-menu;
#X obj 350 391 r \$0-mm;
#X obj 537 400 main-menu;
#X obj 588 382 r \$0-mm;
#X obj 781 395 main-menu;
#X obj 832 377 r \$0-mm;
#X obj 57 574 main-menu;
#X obj 108 556 r \$0-mm;
#X obj 309 565 main-menu;
#X obj 360 547 r \$0-mm;
#X obj 543 567 main-menu;
#X obj 594 549 r \$0-mm;
#X obj 793 562 main-menu;
#X obj 844 544 r \$0-mm;
#X text 37 -47 Encoder to volume (submenu1);
#X text 26 325 Encoder to hipass (submenu2);
#X obj 164 438 r \$0-maestro4-pan1-s;
#X obj 54 486 s \$0-maestro4-pan1-r;
#N canvas 150 175 450 300 sm2 0;
#X obj 109 64 r \$0-sm;
#X obj 109 102 sel;
#X obj 75 170 outlet;
#X msg 108 123 1;
#X msg 135 123 0;
#X obj 75 149 spigot;
#X obj 75 37 inlet;
#X obj 124 83 r \$0-sm2;
#X connect 0 0 1 0;
#X connect 1 0 3 0;
#X connect 1 1 4 0;
#X connect 3 0 5 1;
#X connect 4 0 5 1;
#X connect 5 0 2 0;
#X connect 6 0 5 0;
#X connect 7 0 1 1;
#X restore 54 437 pd sm2;
#N canvas 150 175 450 300 sm2 0;
#X obj 109 64 r \$0-sm;
#X obj 109 102 sel;
#X obj 75 170 outlet;
#X msg 108 123 1;
#X msg 135 123 0;
#X obj 75 149 spigot;
#X obj 75 37 inlet;
#X obj 124 83 r \$0-sm2;
#X connect 0 0 1 0;
#X connect 1 0 3 0;
#X connect 1 1 4 0;
#X connect 3 0 5 1;
#X connect 4 0 5 1;
#X connect 5 0 2 0;
#X connect 6 0 5 0;
#X connect 7 0 1 1;
#X restore 301 432 pd sm2;
#N canvas 150 175 450 300 sm2 0;
#X obj 109 64 r \$0-sm;
#X obj 109 102 sel;
#X obj 75 170 outlet;
#X msg 108 123 1;
#X msg 135 123 0;
#X obj 75 149 spigot;
#X obj 75 37 inlet;
#X obj 124 83 r \$0-sm2;
#X connect 0 0 1 0;
#X connect 1 0 3 0;
#X connect 1 1 4 0;
#X connect 3 0 5 1;
#X connect 4 0 5 1;
#X connect 5 0 2 0;
#X connect 6 0 5 0;
#X connect 7 0 1 1;
#X restore 537 427 pd sm2;
#N canvas 150 175 450 300 sm2 0;
#X obj 109 64 r \$0-sm;
#X obj 109 102 sel;
#X obj 75 170 outlet;
#X msg 108 123 1;
#X msg 135 123 0;
#X obj 75 149 spigot;
#X obj 75 37 inlet;
#X obj 124 83 r \$0-sm2;
#X connect 0 0 1 0;
#X connect 1 0 3 0;
#X connect 1 1 4 0;
#X connect 3 0 5 1;
#X connect 4 0 5 1;
#X connect 5 0 2 0;
#X connect 6 0 5 0;
#X connect 7 0 1 1;
#X restore 782 422 pd sm2;
#N canvas 150 175 450 300 sm2 0;
#X obj 109 64 r \$0-sm;
#X obj 109 102 sel;
#X obj 75 170 outlet;
#X msg 108 123 1;
#X msg 135 123 0;
#X obj 75 149 spigot;
#X obj 75 37 inlet;
#X obj 124 83 r \$0-sm2;
#X connect 0 0 1 0;
#X connect 1 0 3 0;
#X connect 1 1 4 0;
#X connect 3 0 5 1;
#X connect 4 0 5 1;
#X connect 5 0 2 0;
#X connect 6 0 5 0;
#X connect 7 0 1 1;
#X restore 58 598 pd sm2;
#N canvas 150 175 450 300 sm2 0;
#X obj 109 64 r \$0-sm;
#X obj 109 102 sel;
#X obj 75 170 outlet;
#X msg 108 123 1;
#X msg 135 123 0;
#X obj 75 149 spigot;
#X obj 75 37 inlet;
#X obj 124 83 r \$0-sm2;
#X connect 0 0 1 0;
#X connect 1 0 3 0;
#X connect 1 1 4 0;
#X connect 3 0 5 1;
#X connect 4 0 5 1;
#X connect 5 0 2 0;
#X connect 6 0 5 0;
#X connect 7 0 1 1;
#X restore 305 587 pd sm2;
#N canvas 150 175 450 300 sm2 0;
#X obj 109 64 r \$0-sm;
#X obj 109 102 sel;
#X obj 75 170 outlet;
#X msg 108 123 1;
#X msg 135 123 0;
#X obj 75 149 spigot;
#X obj 75 37 inlet;
#X obj 124 83 r \$0-sm2;
#X connect 0 0 1 0;
#X connect 1 0 3 0;
#X connect 1 1 4 0;
#X connect 3 0 5 1;
#X connect 4 0 5 1;
#X connect 5 0 2 0;
#X connect 6 0 5 0;
#X connect 7 0 1 1;
#X restore 557 593 pd sm2;
#N canvas 150 175 450 300 sm2 0;
#X obj 109 64 r \$0-sm;
#X obj 109 102 sel;
#X obj 75 170 outlet;
#X msg 108 123 1;
#X msg 135 123 0;
#X obj 75 149 spigot;
#X obj 75 37 inlet;
#X obj 124 83 r \$0-sm2;
#X connect 0 0 1 0;
#X connect 1 0 3 0;
#X connect 1 1 4 0;
#X connect 3 0 5 1;
#X connect 4 0 5 1;
#X connect 5 0 2 0;
#X connect 6 0 5 0;
#X connect 7 0 1 1;
#X restore 791 587 pd sm2;
#X obj 409 433 r \$0-maestro4-pan2-s;
#X obj 299 481 s \$0-maestro4-pan2-r;
#X obj 647 435 r \$0-maestro4-pan3-s;
#X obj 537 483 s \$0-maestro4-pan3-r;
#X obj 892 430 r \$0-maestro4-pan4-s;
#X obj 782 478 s \$0-maestro4-pan4-r;
#X obj 167 599 r \$0-maestro4-pan5-s;
#X obj 57 647 s \$0-maestro4-pan5-r;
#X obj 412 594 r \$0-maestro4-pan6-s;
#X obj 302 642 s \$0-maestro4-pan6-r;
#X obj 650 596 r \$0-maestro4-pan7-s;
#X obj 540 644 s \$0-maestro4-pan7-r;
#X obj 895 591 r \$0-maestro4-pan8-s;
#X obj 785 639 s \$0-maestro4-pan8-r;
#X connect 0 0 3 0;
#X connect 1 0 32 0;
#X connect 2 0 0 1;
#X connect 4 0 7 0;
#X connect 5 0 35 0;
#X connect 6 0 4 1;
#X connect 8 0 26 0;
#X connect 9 0 27 0;
#X connect 10 0 38 0;
#X connect 11 0 41 0;
#X connect 12 0 8 1;
#X connect 13 0 9 1;
#X connect 14 0 28 0;
#X connect 15 0 29 0;
#X connect 16 0 30 0;
#X connect 17 0 31 0;
#X connect 18 0 44 0;
#X connect 19 0 47 0;
#X connect 20 0 50 0;
#X connect 21 0 53 0;
#X connect 22 0 14 1;
#X connect 23 0 15 1;
#X connect 24 0 16 1;
#X connect 25 0 17 1;
#X connect 32 0 34 0;
#X connect 33 0 32 1;
#X connect 34 0 0 0;
#X connect 35 0 37 0;
#X connect 36 0 35 1;
#X connect 37 0 4 0;
#X connect 38 0 40 0;
#X connect 39 0 38 1;
#X connect 40 0 8 0;
#X connect 41 0 43 0;
#X connect 42 0 41 1;
#X connect 43 0 9 0;
#X connect 44 0 46 0;
#X connect 45 0 44 1;
#X connect 46 0 14 0;
#X connect 47 0 49 0;
#X connect 48 0 47 1;
#X connect 49 0 15 0;
#X connect 50 0 52 0;
#X connect 51 0 50 1;
#X connect 52 0 16 0;
#X connect 53 0 55 0;
#X connect 54 0 53 1;
#X connect 55 0 17 0;
#X connect 56 0 91 0;
#X connect 57 0 72 0;
#X connect 58 0 101 0;
#X connect 59 0 74 0;
#X connect 60 0 103 0;
#X connect 61 0 105 0;
#X connect 62 0 76 0;
#X connect 63 0 78 0;
#X connect 64 0 107 0;
#X connect 65 0 109 0;
#X connect 66 0 111 0;
#X connect 67 0 113 0;
#X connect 68 0 80 0;
#X connect 69 0 82 0;
#X connect 70 0 84 0;
#X connect 71 0 86 0;
#X connect 72 0 92 0;
#X connect 73 0 72 1;
#X connect 74 0 93 0;
#X connect 75 0 74 1;
#X connect 76 0 94 0;
#X connect 77 0 76 1;
#X connect 78 0 95 0;
#X connect 79 0 78 1;
#X connect 80 0 96 0;
#X connect 81 0 80 1;
#X connect 82 0 97 0;
#X connect 83 0 82 1;
#X connect 84 0 98 0;
#X connect 85 0 84 1;
#X connect 86 0 99 0;
#X connect 87 0 86 1;
#X connect 90 0 56 1;
#X connect 92 0 56 0;
#X connect 93 0 58 0;
#X connect 94 0 60 0;
#X connect 95 0 61 0;
#X connect 96 0 64 0;
#X connect 97 0 65 0;
#X connect 98 0 66 0;
#X connect 99 0 67 0;
#X connect 100 0 58 1;
#X connect 102 0 60 1;
#X connect 104 0 61 1;
#X connect 106 0 64 1;
#X connect 108 0 65 1;
#X connect 110 0 66 1;
#X connect 112 0 67 1;
#X restore 22 38 pd push-encoder;
#N canvas 0 25 1440 789 push-display 0;
#X obj 151 50 r \$0-maestro4-ch1-meter-r;
#X obj 151 332 + 96;
#X obj 151 436 max 0;
#X obj 151 457 i;
#X obj 151 415 * 8;
#N canvas 121 146 914 473 meter 0;
#X obj 183 121 sel 0 1 2 3 4 5 6 7 8;
#X msg 175 159 symbol;
#X msg 185 184 symbol =;
#X msg 202 205 symbol ==;
#X msg 234 159 symbol ===;
#X msg 246 182 symbol ====;
#X msg 313 158 symbol =====;
#X msg 323 182 symbol ======;
#X obj 186 67 inlet;
#X obj 200 284 outlet;
#X msg 313 218 symbol =======;
#X msg 427 207 symbol ========;
#X connect 0 0 1 0;
#X connect 0 1 2 0;
#X connect 0 2 3 0;
#X connect 0 3 4 0;
#X connect 0 4 5 0;
#X connect 0 5 6 0;
#X connect 0 6 7 0;
#X connect 0 7 10 0;
#X connect 0 8 11 0;
#X connect 1 0 9 0;
#X connect 2 0 9 0;
#X connect 3 0 9 0;
#X connect 4 0 9 0;
#X connect 5 0 9 0;
#X connect 6 0 9 0;
#X connect 7 0 9 0;
#X connect 8 0 0 0;
#X connect 10 0 9 0;
#X connect 11 0 9 0;
#X restore 151 504 pd meter;
#X obj 151 373 - 70;
#X obj 151 394 / 20;
#X obj 213 325 + 96;
#X floatatom 213 346 5 0 0 0 - - - 0;
#X floatatom 213 469 5 0 0 0 - - - 0;
#X obj 213 429 max 0;
#X obj 205 450 i;
#X obj 205 408 * 8;
#N canvas 121 146 914 473 meter 0;
#X obj 183 121 sel 0 1 2 3 4 5 6 7 8;
#X msg 175 159 symbol;
#X msg 185 184 symbol =;
#X msg 202 205 symbol ==;
#X msg 234 159 symbol ===;
#X msg 246 182 symbol ====;
#X msg 313 158 symbol =====;
#X msg 323 182 symbol ======;
#X obj 186 67 inlet;
#X obj 200 284 outlet;
#X msg 313 218 symbol =======;
#X msg 427 207 symbol ========;
#X connect 0 0 1 0;
#X connect 0 1 2 0;
#X connect 0 2 3 0;
#X connect 0 3 4 0;
#X connect 0 4 5 0;
#X connect 0 5 6 0;
#X connect 0 6 7 0;
#X connect 0 7 10 0;
#X connect 0 8 11 0;
#X connect 1 0 9 0;
#X connect 2 0 9 0;
#X connect 3 0 9 0;
#X connect 4 0 9 0;
#X connect 5 0 9 0;
#X connect 6 0 9 0;
#X connect 7 0 9 0;
#X connect 8 0 0 0;
#X connect 10 0 9 0;
#X connect 11 0 9 0;
#X restore 213 497 pd meter;
#X obj 213 366 - 70;
#X obj 213 387 / 20;
#X obj 213 73 r \$0-maestro4-ch2-meter-r;
#X obj 271 339 + 96;
#X floatatom 271 360 5 0 0 0 - - - 0;
#X floatatom 271 483 5 0 0 0 - - - 0;
#X obj 271 443 max 0;
#X obj 271 464 i;
#X obj 271 422 * 8;
#N canvas 121 146 914 473 meter 0;
#X obj 183 121 sel 0 1 2 3 4 5 6 7 8;
#X msg 175 159 symbol;
#X msg 185 184 symbol =;
#X msg 202 205 symbol ==;
#X msg 234 159 symbol ===;
#X msg 246 182 symbol ====;
#X msg 313 158 symbol =====;
#X msg 323 182 symbol ======;
#X obj 186 67 inlet;
#X obj 200 284 outlet;
#X msg 313 218 symbol =======;
#X msg 427 207 symbol ========;
#X connect 0 0 1 0;
#X connect 0 1 2 0;
#X connect 0 2 3 0;
#X connect 0 3 4 0;
#X connect 0 4 5 0;
#X connect 0 5 6 0;
#X connect 0 6 7 0;
#X connect 0 7 10 0;
#X connect 0 8 11 0;
#X connect 1 0 9 0;
#X connect 2 0 9 0;
#X connect 3 0 9 0;
#X connect 4 0 9 0;
#X connect 5 0 9 0;
#X connect 6 0 9 0;
#X connect 7 0 9 0;
#X connect 8 0 0 0;
#X connect 10 0 9 0;
#X connect 11 0 9 0;
#X restore 271 511 pd meter;
#X obj 271 380 - 70;
#X obj 271 401 / 20;
#X obj 331 338 + 96;
#X floatatom 331 359 5 0 0 0 - - - 0;
#X floatatom 331 482 5 0 0 0 - - - 0;
#X obj 331 442 max 0;
#X obj 331 463 i;
#X obj 331 421 * 8;
#N canvas 121 146 914 473 meter 0;
#X obj 183 121 sel 0 1 2 3 4 5 6 7 8;
#X msg 175 159 symbol;
#X msg 185 184 symbol =;
#X msg 202 205 symbol ==;
#X msg 234 159 symbol ===;
#X msg 246 182 symbol ====;
#X msg 313 158 symbol =====;
#X msg 323 182 symbol ======;
#X obj 186 67 inlet;
#X obj 200 284 outlet;
#X msg 313 218 symbol =======;
#X msg 427 207 symbol ========;
#X connect 0 0 1 0;
#X connect 0 1 2 0;
#X connect 0 2 3 0;
#X connect 0 3 4 0;
#X connect 0 4 5 0;
#X connect 0 5 6 0;
#X connect 0 6 7 0;
#X connect 0 7 10 0;
#X connect 0 8 11 0;
#X connect 1 0 9 0;
#X connect 2 0 9 0;
#X connect 3 0 9 0;
#X connect 4 0 9 0;
#X connect 5 0 9 0;
#X connect 6 0 9 0;
#X connect 7 0 9 0;
#X connect 8 0 0 0;
#X connect 10 0 9 0;
#X connect 11 0 9 0;
#X restore 331 510 pd meter;
#X obj 331 379 - 70;
#X obj 331 400 / 20;
#X obj 271 97 r \$0-maestro4-ch3-meter-r;
#X obj 331 120 r \$0-maestro4-ch4-meter-r;
#X obj 390 338 + 96;
#X floatatom 390 359 5 0 0 0 - - - 0;
#X floatatom 390 482 5 0 0 0 - - - 0;
#X obj 390 442 max 0;
#X obj 390 463 i;
#X obj 390 421 * 8;
#N canvas 121 146 914 473 meter 0;
#X obj 183 121 sel 0 1 2 3 4 5 6 7 8;
#X msg 175 159 symbol;
#X msg 185 184 symbol =;
#X msg 202 205 symbol ==;
#X msg 234 159 symbol ===;
#X msg 246 182 symbol ====;
#X msg 313 158 symbol =====;
#X msg 323 182 symbol ======;
#X obj 186 67 inlet;
#X obj 200 284 outlet;
#X msg 313 218 symbol =======;
#X msg 427 207 symbol ========;
#X connect 0 0 1 0;
#X connect 0 1 2 0;
#X connect 0 2 3 0;
#X connect 0 3 4 0;
#X connect 0 4 5 0;
#X connect 0 5 6 0;
#X connect 0 6 7 0;
#X connect 0 7 10 0;
#X connect 0 8 11 0;
#X connect 1 0 9 0;
#X connect 2 0 9 0;
#X connect 3 0 9 0;
#X connect 4 0 9 0;
#X connect 5 0 9 0;
#X connect 6 0 9 0;
#X connect 7 0 9 0;
#X connect 8 0 0 0;
#X connect 10 0 9 0;
#X connect 11 0 9 0;
#X restore 390 510 pd meter;
#X obj 390 379 - 70;
#X obj 390 400 / 20;
#X obj 444 341 + 96;
#X floatatom 444 362 5 0 0 0 - - - 0;
#X floatatom 444 485 5 0 0 0 - - - 0;
#X obj 444 445 max 0;
#X obj 444 466 i;
#X obj 444 424 * 8;
#N canvas 121 146 914 473 meter 0;
#X obj 183 121 sel 0 1 2 3 4 5 6 7 8;
#X msg 175 159 symbol;
#X msg 185 184 symbol =;
#X msg 202 205 symbol ==;
#X msg 234 159 symbol ===;
#X msg 246 182 symbol ====;
#X msg 313 158 symbol =====;
#X msg 323 182 symbol ======;
#X obj 186 67 inlet;
#X obj 200 284 outlet;
#X msg 313 218 symbol =======;
#X msg 427 207 symbol ========;
#X connect 0 0 1 0;
#X connect 0 1 2 0;
#X connect 0 2 3 0;
#X connect 0 3 4 0;
#X connect 0 4 5 0;
#X connect 0 5 6 0;
#X connect 0 6 7 0;
#X connect 0 7 10 0;
#X connect 0 8 11 0;
#X connect 1 0 9 0;
#X connect 2 0 9 0;
#X connect 3 0 9 0;
#X connect 4 0 9 0;
#X connect 5 0 9 0;
#X connect 6 0 9 0;
#X connect 7 0 9 0;
#X connect 8 0 0 0;
#X connect 10 0 9 0;
#X connect 11 0 9 0;
#X restore 444 513 pd meter;
#X obj 444 382 - 70;
#X obj 444 403 / 20;
#X obj 502 345 + 96;
#X floatatom 502 366 5 0 0 0 - - - 0;
#X floatatom 502 489 5 0 0 0 - - - 0;
#X obj 502 449 max 0;
#X obj 502 470 i;
#X obj 502 428 * 8;
#N canvas 121 146 914 473 meter 0;
#X obj 183 121 sel 0 1 2 3 4 5 6 7 8;
#X msg 175 159 symbol;
#X msg 185 184 symbol =;
#X msg 202 205 symbol ==;
#X msg 234 159 symbol ===;
#X msg 246 182 symbol ====;
#X msg 313 158 symbol =====;
#X msg 323 182 symbol ======;
#X obj 186 67 inlet;
#X obj 200 284 outlet;
#X msg 313 218 symbol =======;
#X msg 427 207 symbol ========;
#X connect 0 0 1 0;
#X connect 0 1 2 0;
#X connect 0 2 3 0;
#X connect 0 3 4 0;
#X connect 0 4 5 0;
#X connect 0 5 6 0;
#X connect 0 6 7 0;
#X connect 0 7 10 0;
#X connect 0 8 11 0;
#X connect 1 0 9 0;
#X connect 2 0 9 0;
#X connect 3 0 9 0;
#X connect 4 0 9 0;
#X connect 5 0 9 0;
#X connect 6 0 9 0;
#X connect 7 0 9 0;
#X connect 8 0 0 0;
#X connect 10 0 9 0;
#X connect 11 0 9 0;
#X restore 502 517 pd meter;
#X obj 502 386 - 70;
#X obj 502 407 / 20;
#X obj 562 348 + 96;
#X floatatom 562 369 5 0 0 0 - - - 0;
#X floatatom 562 492 5 0 0 0 - - - 0;
#X obj 562 452 max 0;
#X obj 562 473 i;
#X obj 562 431 * 8;
#N canvas 121 146 914 473 meter 0;
#X obj 183 121 sel 0 1 2 3 4 5 6 7 8;
#X msg 175 159 symbol;
#X msg 185 184 symbol =;
#X msg 202 205 symbol ==;
#X msg 234 159 symbol ===;
#X msg 246 182 symbol ====;
#X msg 313 158 symbol =====;
#X msg 323 182 symbol ======;
#X obj 186 67 inlet;
#X obj 200 284 outlet;
#X msg 313 218 symbol =======;
#X msg 427 207 symbol ========;
#X connect 0 0 1 0;
#X connect 0 1 2 0;
#X connect 0 2 3 0;
#X connect 0 3 4 0;
#X connect 0 4 5 0;
#X connect 0 5 6 0;
#X connect 0 6 7 0;
#X connect 0 7 10 0;
#X connect 0 8 11 0;
#X connect 1 0 9 0;
#X connect 2 0 9 0;
#X connect 3 0 9 0;
#X connect 4 0 9 0;
#X connect 5 0 9 0;
#X connect 6 0 9 0;
#X connect 7 0 9 0;
#X connect 8 0 0 0;
#X connect 10 0 9 0;
#X connect 11 0 9 0;
#X restore 562 520 pd meter;
#X obj 562 389 - 70;
#X obj 562 410 / 20;
#X obj 390 146 r \$0-maestro4-ch5-meter-r;
#X obj 444 169 r \$0-maestro4-ch6-meter-r;
#X obj 502 193 r \$0-maestro4-ch7-meter-r;
#X obj 562 216 r \$0-maestro4-ch8-meter-r;
#X text 139 18 METER to DISPLAY;
#X msg 145 -243 symbol CH1;
#X msg 165 -221 symbol CH2;
#X msg 175 -193 symbol CH3;
#X msg 195 -171 symbol CH4;
#X obj 144 -263 t b;
#X msg 215 -143 symbol CH5;
#X msg 235 -121 symbol CH6;
#X msg 245 -93 symbol CH7;
#X msg 265 -71 symbol CH8;
#X obj 864 152 r \$0-maestro4-ch2-s;
#X msg 757 280 symbol VOL:\$1;
#X msg 855 293 symbol VOL:\$1;
#X msg 951 292 symbol VOL:\$1;
#X obj 954 153 r \$0-maestro4-ch3-s;
#X obj 1062 155 r \$0-maestro4-ch4-s;
#X obj 1152 160 r \$0-maestro4-ch5-s;
#X obj 1252 163 r \$0-maestro4-ch6-s;
#X obj 1345 162 r \$0-maestro4-ch7-s;
#X obj 1446 173 r \$0-maestro4-ch8-s;
#X msg 1045 290 symbol VOL:\$1;
#X msg 1143 290 symbol VOL:\$1;
#X msg 1240 288 symbol VOL:\$1;
#X msg 1340 285 symbol VOL:\$1;
#X msg 1440 283 symbol VOL:\$1;
#X obj 907 -280 t b;
#X msg 928 -238 symbol Hi-Pass;
#X msg 958 -188 symbol;
#X msg 978 -160 symbol;
#X msg 998 -138 symbol;
#X msg 1008 -110 symbol;
#X msg 908 -260 symbol VOLUME;
#X msg 938 -210 symbol;
#X msg 1028 -88 symbol OUT;
#X obj 151 569 push-mk1-display 26;
#X obj 145 -50 push-mk1-display 24;
#X obj 1109 427 push-mk1-display 25;
#X obj 908 -67 push-mk1-display 27;
#X obj 150 129 main-menu;
#X obj 157 83 r \$0-mm;
#X obj 213 175 main-menu;
#X obj 219 152 r \$0-mm;
#X obj 271 215 main-menu;
#X obj 277 192 r \$0-mm;
#X obj 331 243 main-menu;
#X obj 337 220 r \$0-mm;
#X obj 391 266 main-menu;
#X obj 397 243 r \$0-mm;
#X obj 453 262 main-menu;
#X obj 459 239 r \$0-mm;
#X obj 502 282 main-menu;
#X obj 508 259 r \$0-mm;
#X obj 569 275 main-menu;
#X obj 575 252 r \$0-mm;
#X obj 144 -289 main-menu;
#X obj 195 -310 r \$0-mm;
#X obj 907 -302 main-menu;
#X obj 958 -322 r \$0-mm;
#N canvas 150 175 450 300 sm 0;
#X obj 109 64 r \$0-sm;
#X obj 109 102 sel;
#X obj 124 83 r \$0-sm1;
#X obj 75 170 outlet;
#X msg 108 123 1;
#X msg 135 123 0;
#X obj 75 149 spigot;
#X obj 75 37 inlet;
#X connect 0 0 1 0;
#X connect 1 0 4 0;
#X connect 1 1 5 0;
#X connect 2 0 1 1;
#X connect 4 0 6 1;
#X connect 5 0 6 1;
#X connect 6 0 3 0;
#X connect 7 0 6 0;
#X restore 758 228 pd sm;
#X obj 154 920 i;
#X obj 445 1103 push-mk1-display 25;
#N canvas 150 175 450 300 sm 0;
#X obj 109 64 r \$0-sm;
#X obj 109 102 sel;
#X obj 75 170 outlet;
#X msg 108 123 1;
#X msg 135 123 0;
#X obj 75 149 spigot;
#X obj 75 37 inlet;
#X obj 124 83 r \$0-sm2;
#X connect 0 0 1 0;
#X connect 1 0 3 0;
#X connect 1 1 4 0;
#X connect 3 0 5 1;
#X connect 4 0 5 1;
#X connect 5 0 2 0;
#X connect 6 0 5 0;
#X connect 7 0 1 1;
#X restore 154 957 pd sm;
#X obj 154 780 t b;
#X obj 154 761 main-menu;
#X obj 178 744 r \$0-mm;
#X obj 154 938 main-menu;
#X obj 205 920 r \$0-mm;
#X obj 154 720 r \$0-sm;
#X obj 154 902 f;
#X obj 154 801 del 2;
#X obj 766 151 r \$0-maestro4-ch1-s;
#X obj 758 190 i;
#X obj 758 112 t b;
#X obj 773 51 r main-menu;
#X obj 758 91 main-menu;
#X obj 809 70 r \$0-mm;
#X obj 758 208 main-menu;
#X obj 783 190 r \$0-mm;
#X obj 758 31 r \$0-sm;
#X obj 758 172 f;
#X obj 758 132 del 2;
#X obj 162 823 r \$0-maestro4-pan1-s;
#X obj 293 918 i;
#N canvas 150 175 450 300 sm 0;
#X obj 109 64 r \$0-sm;
#X obj 109 102 sel;
#X obj 75 170 outlet;
#X msg 108 123 1;
#X msg 135 123 0;
#X obj 75 149 spigot;
#X obj 75 37 inlet;
#X obj 124 83 r \$0-sm2;
#X connect 0 0 1 0;
#X connect 1 0 3 0;
#X connect 1 1 4 0;
#X connect 3 0 5 1;
#X connect 4 0 5 1;
#X connect 5 0 2 0;
#X connect 6 0 5 0;
#X connect 7 0 1 1;
#X restore 293 955 pd sm;
#X obj 293 778 t b;
#X obj 293 759 main-menu;
#X obj 317 742 r \$0-mm;
#X obj 293 936 main-menu;
#X obj 344 918 r \$0-mm;
#X obj 293 718 r \$0-sm;
#X obj 293 900 f;
#X obj 293 799 del 2;
#X obj 301 821 r \$0-maestro4-pan2-s;
#X obj 434 920 i;
#N canvas 150 175 450 300 sm 0;
#X obj 109 64 r \$0-sm;
#X obj 109 102 sel;
#X obj 75 170 outlet;
#X msg 108 123 1;
#X msg 135 123 0;
#X obj 75 149 spigot;
#X obj 75 37 inlet;
#X obj 124 83 r \$0-sm2;
#X connect 0 0 1 0;
#X connect 1 0 3 0;
#X connect 1 1 4 0;
#X connect 3 0 5 1;
#X connect 4 0 5 1;
#X connect 5 0 2 0;
#X connect 6 0 5 0;
#X connect 7 0 1 1;
#X restore 434 957 pd sm;
#X obj 434 780 t b;
#X obj 434 761 main-menu;
#X obj 458 744 r \$0-mm;
#X obj 434 938 main-menu;
#X obj 485 920 r \$0-mm;
#X obj 434 720 r \$0-sm;
#X obj 434 902 f;
#X obj 434 801 del 2;
#X obj 573 918 i;
#N canvas 150 175 450 300 sm 0;
#X obj 109 64 r \$0-sm;
#X obj 109 102 sel;
#X obj 75 170 outlet;
#X msg 108 123 1;
#X msg 135 123 0;
#X obj 75 149 spigot;
#X obj 75 37 inlet;
#X obj 124 83 r \$0-sm2;
#X connect 0 0 1 0;
#X connect 1 0 3 0;
#X connect 1 1 4 0;
#X connect 3 0 5 1;
#X connect 4 0 5 1;
#X connect 5 0 2 0;
#X connect 6 0 5 0;
#X connect 7 0 1 1;
#X restore 573 955 pd sm;
#X obj 573 778 t b;
#X obj 573 759 main-menu;
#X obj 597 742 r \$0-mm;
#X obj 573 936 main-menu;
#X obj 624 918 r \$0-mm;
#X obj 573 718 r \$0-sm;
#X obj 573 900 f;
#X obj 573 799 del 2;
#X obj 442 823 r \$0-maestro4-pan3-s;
#X obj 581 821 r \$0-maestro4-pan4-s;
#X obj 708 918 i;
#N canvas 150 175 450 300 sm 0;
#X obj 109 64 r \$0-sm;
#X obj 109 102 sel;
#X obj 75 170 outlet;
#X msg 108 123 1;
#X msg 135 123 0;
#X obj 75 149 spigot;
#X obj 75 37 inlet;
#X obj 124 83 r \$0-sm2;
#X connect 0 0 1 0;
#X connect 1 0 3 0;
#X connect 1 1 4 0;
#X connect 3 0 5 1;
#X connect 4 0 5 1;
#X connect 5 0 2 0;
#X connect 6 0 5 0;
#X connect 7 0 1 1;
#X restore 708 955 pd sm;
#X obj 708 778 t b;
#X obj 708 759 main-menu;
#X obj 732 742 r \$0-mm;
#X obj 708 936 main-menu;
#X obj 759 918 r \$0-mm;
#X obj 708 718 r \$0-sm;
#X obj 708 900 f;
#X obj 708 799 del 2;
#X obj 847 916 i;
#N canvas 150 175 450 300 sm 0;
#X obj 109 64 r \$0-sm;
#X obj 109 102 sel;
#X obj 75 170 outlet;
#X msg 108 123 1;
#X msg 135 123 0;
#X obj 75 149 spigot;
#X obj 75 37 inlet;
#X obj 124 83 r \$0-sm2;
#X connect 0 0 1 0;
#X connect 1 0 3 0;
#X connect 1 1 4 0;
#X connect 3 0 5 1;
#X connect 4 0 5 1;
#X connect 5 0 2 0;
#X connect 6 0 5 0;
#X connect 7 0 1 1;
#X restore 847 953 pd sm;
#X obj 847 776 t b;
#X obj 847 757 main-menu;
#X obj 871 740 r \$0-mm;
#X obj 847 934 main-menu;
#X obj 898 916 r \$0-mm;
#X obj 847 716 r \$0-sm;
#X obj 847 898 f;
#X obj 847 797 del 2;
#X obj 988 918 i;
#N canvas 150 175 450 300 sm 0;
#X obj 109 64 r \$0-sm;
#X obj 109 102 sel;
#X obj 75 170 outlet;
#X msg 108 123 1;
#X msg 135 123 0;
#X obj 75 149 spigot;
#X obj 75 37 inlet;
#X obj 124 83 r \$0-sm2;
#X connect 0 0 1 0;
#X connect 1 0 3 0;
#X connect 1 1 4 0;
#X connect 3 0 5 1;
#X connect 4 0 5 1;
#X connect 5 0 2 0;
#X connect 6 0 5 0;
#X connect 7 0 1 1;
#X restore 988 955 pd sm;
#X obj 988 778 t b;
#X obj 988 759 main-menu;
#X obj 1012 742 r \$0-mm;
#X obj 988 936 main-menu;
#X obj 1039 918 r \$0-mm;
#X obj 988 718 r \$0-sm;
#X obj 988 900 f;
#X obj 988 799 del 2;
#X obj 1127 916 i;
#N canvas 150 175 450 300 sm 0;
#X obj 109 64 r \$0-sm;
#X obj 109 102 sel;
#X obj 75 170 outlet;
#X msg 108 123 1;
#X msg 135 123 0;
#X obj 75 149 spigot;
#X obj 75 37 inlet;
#X obj 124 83 r \$0-sm2;
#X connect 0 0 1 0;
#X connect 1 0 3 0;
#X connect 1 1 4 0;
#X connect 3 0 5 1;
#X connect 4 0 5 1;
#X connect 5 0 2 0;
#X connect 6 0 5 0;
#X connect 7 0 1 1;
#X restore 1127 953 pd sm;
#X obj 1127 776 t b;
#X obj 1127 757 main-menu;
#X obj 1151 740 r \$0-mm;
#X obj 1127 934 main-menu;
#X obj 1178 916 r \$0-mm;
#X obj 1127 716 r \$0-sm;
#X obj 1127 898 f;
#X obj 1127 797 del 2;
#X obj 716 821 r \$0-maestro4-pan5-s;
#X obj 855 819 r \$0-maestro4-pan6-s;
#X obj 996 821 r \$0-maestro4-pan7-s;
#X obj 1135 819 r \$0-maestro4-pan8-s;
#X obj 162 848 + 8;
#X obj 162 869 mtof;
#X msg 154 975 symbol HP\$1hz;
#X obj 306 850 + 8;
#X obj 306 871 mtof;
#X obj 444 847 + 8;
#X obj 444 868 mtof;
#X obj 584 848 + 8;
#X obj 584 869 mtof;
#X obj 722 848 + 8;
#X obj 722 869 mtof;
#X obj 866 850 + 8;
#X obj 866 871 mtof;
#X obj 1004 847 + 8;
#X obj 1004 868 mtof;
#X obj 1144 848 + 8;
#X obj 1144 869 mtof;
#X msg 293 973 symbol HP\$1hz;
#X msg 434 975 symbol HP\$1hz;
#X msg 573 973 symbol HP\$1hz;
#X msg 708 973 symbol HP\$1hz;
#X msg 847 971 symbol HP\$1hz;
#X msg 988 973 symbol HP\$1hz;
#X msg 1127 971 symbol HP\$1hz;
#X obj 144 -329 r \$0-sm;
#X obj 907 -341 r \$0-sm;
#N canvas 150 175 450 300 sm 0;
#X obj 109 64 r \$0-sm;
#X obj 109 102 sel;
#X obj 124 83 r \$0-sm1;
#X obj 75 170 outlet;
#X msg 108 123 1;
#X msg 135 123 0;
#X obj 75 149 spigot;
#X obj 75 37 inlet;
#X connect 0 0 1 0;
#X connect 1 0 4 0;
#X connect 1 1 5 0;
#X connect 2 0 1 1;
#X connect 4 0 6 1;
#X connect 5 0 6 1;
#X connect 6 0 3 0;
#X connect 7 0 6 0;
#X restore 853 229 pd sm;
#X obj 853 191 i;
#X obj 853 113 t b;
#X obj 868 52 r main-menu;
#X obj 853 92 main-menu;
#X obj 904 71 r \$0-mm;
#X obj 853 209 main-menu;
#X obj 877 191 r \$0-mm;
#X obj 853 32 r \$0-sm;
#X obj 853 173 f;
#X obj 853 133 del 2;
#N canvas 150 175 450 300 sm 0;
#X obj 109 64 r \$0-sm;
#X obj 109 102 sel;
#X obj 124 83 r \$0-sm1;
#X obj 75 170 outlet;
#X msg 108 123 1;
#X msg 135 123 0;
#X obj 75 149 spigot;
#X obj 75 37 inlet;
#X connect 0 0 1 0;
#X connect 1 0 4 0;
#X connect 1 1 5 0;
#X connect 2 0 1 1;
#X connect 4 0 6 1;
#X connect 5 0 6 1;
#X connect 6 0 3 0;
#X connect 7 0 6 0;
#X restore 947 230 pd sm;
#X obj 947 192 i;
#X obj 947 114 t b;
#X obj 962 53 r main-menu;
#X obj 947 93 main-menu;
#X obj 998 72 r \$0-mm;
#X obj 947 210 main-menu;
#X obj 968 192 r \$0-mm;
#X obj 947 33 r \$0-sm;
#X obj 947 174 f;
#X obj 947 134 del 2;
#N canvas 150 175 450 300 sm 0;
#X obj 109 64 r \$0-sm;
#X obj 109 102 sel;
#X obj 124 83 r \$0-sm1;
#X obj 75 170 outlet;
#X msg 108 123 1;
#X msg 135 123 0;
#X obj 75 149 spigot;
#X obj 75 37 inlet;
#X connect 0 0 1 0;
#X connect 1 0 4 0;
#X connect 1 1 5 0;
#X connect 2 0 1 1;
#X connect 4 0 6 1;
#X connect 5 0 6 1;
#X connect 6 0 3 0;
#X connect 7 0 6 0;
#X restore 1045 233 pd sm;
#X obj 1045 195 i;
#X obj 1045 117 t b;
#X obj 1060 56 r main-menu;
#X obj 1045 96 main-menu;
#X obj 1096 75 r \$0-mm;
#X obj 1045 213 main-menu;
#X obj 1066 195 r \$0-mm;
#X obj 1045 36 r \$0-sm;
#X obj 1045 177 f;
#X obj 1045 137 del 2;
#N canvas 150 175 450 300 sm 0;
#X obj 109 64 r \$0-sm;
#X obj 109 102 sel;
#X obj 124 83 r \$0-sm1;
#X obj 75 170 outlet;
#X msg 108 123 1;
#X msg 135 123 0;
#X obj 75 149 spigot;
#X obj 75 37 inlet;
#X connect 0 0 1 0;
#X connect 1 0 4 0;
#X connect 1 1 5 0;
#X connect 2 0 1 1;
#X connect 4 0 6 1;
#X connect 5 0 6 1;
#X connect 6 0 3 0;
#X connect 7 0 6 0;
#X restore 1144 237 pd sm;
#X obj 1144 199 i;
#X obj 1144 121 t b;
#X obj 1159 60 r main-menu;
#X obj 1144 100 main-menu;
#X obj 1195 79 r \$0-mm;
#X obj 1144 217 main-menu;
#X obj 1165 199 r \$0-mm;
#X obj 1144 40 r \$0-sm;
#X obj 1144 181 f;
#X obj 1144 141 del 2;
#N canvas 150 175 450 300 sm 0;
#X obj 109 64 r \$0-sm;
#X obj 109 102 sel;
#X obj 124 83 r \$0-sm1;
#X obj 75 170 outlet;
#X msg 108 123 1;
#X msg 135 123 0;
#X obj 75 149 spigot;
#X obj 75 37 inlet;
#X connect 0 0 1 0;
#X connect 1 0 4 0;
#X connect 1 1 5 0;
#X connect 2 0 1 1;
#X connect 4 0 6 1;
#X connect 5 0 6 1;
#X connect 6 0 3 0;
#X connect 7 0 6 0;
#X restore 1243 239 pd sm;
#X obj 1243 201 i;
#X obj 1243 123 t b;
#X obj 1258 62 r main-menu;
#X obj 1243 102 main-menu;
#X obj 1294 81 r \$0-mm;
#X obj 1243 219 main-menu;
#X obj 1264 201 r \$0-mm;
#X obj 1243 42 r \$0-sm;
#X obj 1243 183 f;
#X obj 1243 143 del 2;
#N canvas 150 175 450 300 sm 0;
#X obj 109 64 r \$0-sm;
#X obj 109 102 sel;
#X obj 124 83 r \$0-sm1;
#X obj 75 170 outlet;
#X msg 108 123 1;
#X msg 135 123 0;
#X obj 75 149 spigot;
#X obj 75 37 inlet;
#X connect 0 0 1 0;
#X connect 1 0 4 0;
#X connect 1 1 5 0;
#X connect 2 0 1 1;
#X connect 4 0 6 1;
#X connect 5 0 6 1;
#X connect 6 0 3 0;
#X connect 7 0 6 0;
#X restore 1339 239 pd sm;
#X obj 1339 201 i;
#X obj 1339 123 t b;
#X obj 1354 62 r main-menu;
#X obj 1339 102 main-menu;
#X obj 1390 81 r \$0-mm;
#X obj 1339 219 main-menu;
#X obj 1360 201 r \$0-mm;
#X obj 1339 42 r \$0-sm;
#X obj 1339 183 f;
#X obj 1339 143 del 2;
#N canvas 150 175 450 300 sm 0;
#X obj 109 64 r \$0-sm;
#X obj 109 102 sel;
#X obj 124 83 r \$0-sm1;
#X obj 75 170 outlet;
#X msg 108 123 1;
#X msg 135 123 0;
#X obj 75 149 spigot;
#X obj 75 37 inlet;
#X connect 0 0 1 0;
#X connect 1 0 4 0;
#X connect 1 1 5 0;
#X connect 2 0 1 1;
#X connect 4 0 6 1;
#X connect 5 0 6 1;
#X connect 6 0 3 0;
#X connect 7 0 6 0;
#X restore 1439 250 pd sm;
#X obj 1439 212 i;
#X obj 1439 134 t b;
#X obj 1454 73 r main-menu;
#X obj 1439 113 main-menu;
#X obj 1490 92 r \$0-mm;
#X obj 1439 230 main-menu;
#X obj 1460 212 r \$0-mm;
#X obj 1439 53 r \$0-sm;
#X obj 1439 194 f;
#X obj 1439 154 del 2;
#X connect 0 0 116 0;
#X connect 1 0 6 0;
#X connect 2 0 3 0;
#X connect 3 0 5 0;
#X connect 4 0 2 0;
#X connect 5 0 112 0;
#X connect 6 0 7 0;
#X connect 7 0 4 0;
#X connect 8 0 9 0;
#X connect 9 0 15 0;
#X connect 10 0 14 0;
#X connect 11 0 12 0;
#X connect 12 0 10 0;
#X connect 13 0 11 0;
#X connect 14 0 112 1;
#X connect 15 0 16 0;
#X connect 16 0 13 0;
#X connect 17 0 118 0;
#X connect 18 0 19 0;
#X connect 19 0 25 0;
#X connect 20 0 24 0;
#X connect 21 0 22 0;
#X connect 22 0 20 0;
#X connect 23 0 21 0;
#X connect 24 0 112 2;
#X connect 25 0 26 0;
#X connect 26 0 23 0;
#X connect 27 0 28 0;
#X connect 28 0 34 0;
#X connect 29 0 33 0;
#X connect 30 0 31 0;
#X connect 31 0 29 0;
#X connect 32 0 30 0;
#X connect 33 0 112 3;
#X connect 34 0 35 0;
#X connect 35 0 32 0;
#X connect 36 0 120 0;
#X connect 37 0 122 0;
#X connect 38 0 39 0;
#X connect 39 0 45 0;
#X connect 40 0 44 0;
#X connect 41 0 42 0;
#X connect 42 0 40 0;
#X connect 43 0 41 0;
#X connect 44 0 112 4;
#X connect 45 0 46 0;
#X connect 46 0 43 0;
#X connect 47 0 48 0;
#X connect 48 0 54 0;
#X connect 49 0 53 0;
#X connect 50 0 51 0;
#X connect 51 0 49 0;
#X connect 52 0 50 0;
#X connect 53 0 112 5;
#X connect 54 0 55 0;
#X connect 55 0 52 0;
#X connect 56 0 57 0;
#X connect 57 0 63 0;
#X connect 58 0 62 0;
#X connect 59 0 60 0;
#X connect 60 0 58 0;
#X connect 61 0 59 0;
#X connect 62 0 112 6;
#X connect 63 0 64 0;
#X connect 64 0 61 0;
#X connect 65 0 66 0;
#X connect 66 0 72 0;
#X connect 67 0 71 0;
#X connect 68 0 69 0;
#X connect 69 0 67 0;
#X connect 70 0 68 0;
#X connect 71 0 112 7;
#X connect 72 0 73 0;
#X connect 73 0 70 0;
#X connect 74 0 124 0;
#X connect 75 0 126 0;
#X connect 76 0 128 0;
#X connect 77 0 130 0;
#X connect 79 0 113 0;
#X connect 80 0 113 1;
#X connect 81 0 113 2;
#X connect 82 0 113 3;
#X connect 83 0 79 0;
#X connect 83 0 80 0;
#X connect 83 0 81 0;
#X connect 83 0 82 0;
#X connect 83 0 84 0;
#X connect 83 0 85 0;
#X connect 83 0 86 0;
#X connect 83 0 87 0;
#X connect 84 0 113 4;
#X connect 85 0 113 5;
#X connect 86 0 113 6;
#X connect 87 0 113 7;
#X connect 88 0 272 0;
#X connect 89 0 114 0;
#X connect 90 0 114 1;
#X connect 91 0 114 2;
#X connect 92 0 283 0;
#X connect 93 0 294 0;
#X connect 94 0 305 0;
#X connect 95 0 316 0;
#X connect 96 0 327 0;
#X connect 97 0 338 0;
#X connect 98 0 114 3;
#X connect 99 0 114 4;
#X connect 100 0 114 5;
#X connect 101 0 114 6;
#X connect 102 0 114 7;
#X connect 103 0 109 0;
#X connect 103 0 104 0;
#X connect 103 0 110 0;
#X connect 103 0 105 0;
#X connect 103 0 106 0;
#X connect 103 0 107 0;
#X connect 103 0 108 0;
#X connect 103 0 111 0;
#X connect 104 0 115 1;
#X connect 105 0 115 3;
#X connect 106 0 115 4;
#X connect 107 0 115 5;
#X connect 108 0 115 6;
#X connect 109 0 115 0;
#X connect 110 0 115 2;
#X connect 111 0 115 7;
#X connect 116 0 1 0;
#X connect 117 0 116 1;
#X connect 118 0 8 0;
#X connect 119 0 118 1;
#X connect 120 0 18 0;
#X connect 121 0 120 1;
#X connect 122 0 27 0;
#X connect 123 0 122 1;
#X connect 124 0 38 0;
#X connect 125 0 124 1;
#X connect 126 0 47 0;
#X connect 127 0 126 1;
#X connect 128 0 56 0;
#X connect 129 0 128 1;
#X connect 130 0 65 0;
#X connect 131 0 130 1;
#X connect 132 0 83 0;
#X connect 133 0 132 1;
#X connect 134 0 103 0;
#X connect 135 0 134 1;
#X connect 136 0 89 0;
#X connect 137 0 143 0;
#X connect 139 0 239 0;
#X connect 140 0 147 0;
#X connect 141 0 140 0;
#X connect 142 0 141 1;
#X connect 143 0 139 0;
#X connect 144 0 143 1;
#X connect 145 0 141 0;
#X connect 146 0 137 0;
#X connect 147 0 146 0;
#X connect 148 0 157 0;
#X connect 149 0 154 0;
#X connect 150 0 158 0;
#X connect 151 0 152 0;
#X connect 152 0 150 0;
#X connect 153 0 152 1;
#X connect 154 0 136 0;
#X connect 155 0 154 1;
#X connect 156 0 152 0;
#X connect 157 0 149 0;
#X connect 158 0 157 0;
#X connect 159 0 237 0;
#X connect 160 0 165 0;
#X connect 161 0 254 0;
#X connect 162 0 169 0;
#X connect 163 0 162 0;
#X connect 164 0 163 1;
#X connect 165 0 161 0;
#X connect 166 0 165 1;
#X connect 167 0 163 0;
#X connect 168 0 160 0;
#X connect 169 0 168 0;
#X connect 170 0 240 0;
#X connect 171 0 176 0;
#X connect 172 0 255 0;
#X connect 173 0 180 0;
#X connect 174 0 173 0;
#X connect 175 0 174 1;
#X connect 176 0 172 0;
#X connect 177 0 176 1;
#X connect 178 0 174 0;
#X connect 179 0 171 0;
#X connect 180 0 179 0;
#X connect 181 0 186 0;
#X connect 182 0 256 0;
#X connect 183 0 190 0;
#X connect 184 0 183 0;
#X connect 185 0 184 1;
#X connect 186 0 182 0;
#X connect 187 0 186 1;
#X connect 188 0 184 0;
#X connect 189 0 181 0;
#X connect 190 0 189 0;
#X connect 191 0 242 0;
#X connect 192 0 244 0;
#X connect 193 0 198 0;
#X connect 194 0 257 0;
#X connect 195 0 202 0;
#X connect 196 0 195 0;
#X connect 197 0 196 1;
#X connect 198 0 194 0;
#X connect 199 0 198 1;
#X connect 200 0 196 0;
#X connect 201 0 193 0;
#X connect 202 0 201 0;
#X connect 203 0 208 0;
#X connect 204 0 258 0;
#X connect 205 0 212 0;
#X connect 206 0 205 0;
#X connect 207 0 206 1;
#X connect 208 0 204 0;
#X connect 209 0 208 1;
#X connect 210 0 206 0;
#X connect 211 0 203 0;
#X connect 212 0 211 0;
#X connect 213 0 218 0;
#X connect 214 0 259 0;
#X connect 215 0 222 0;
#X connect 216 0 215 0;
#X connect 217 0 216 1;
#X connect 218 0 214 0;
#X connect 219 0 218 1;
#X connect 220 0 216 0;
#X connect 221 0 213 0;
#X connect 222 0 221 0;
#X connect 223 0 228 0;
#X connect 224 0 260 0;
#X connect 225 0 232 0;
#X connect 226 0 225 0;
#X connect 227 0 226 1;
#X connect 228 0 224 0;
#X connect 229 0 228 1;
#X connect 230 0 226 0;
#X connect 231 0 223 0;
#X connect 232 0 231 0;
#X connect 233 0 246 0;
#X connect 234 0 248 0;
#X connect 235 0 250 0;
#X connect 236 0 252 0;
#X connect 237 0 238 0;
#X connect 238 0 146 0;
#X connect 239 0 138 0;
#X connect 240 0 241 0;
#X connect 241 0 168 0;
#X connect 242 0 243 0;
#X connect 243 0 179 0;
#X connect 244 0 245 0;
#X connect 245 0 189 0;
#X connect 246 0 247 0;
#X connect 247 0 201 0;
#X connect 248 0 249 0;
#X connect 249 0 211 0;
#X connect 250 0 251 0;
#X connect 251 0 221 0;
#X connect 252 0 253 0;
#X connect 253 0 231 0;
#X connect 254 0 138 1;
#X connect 255 0 138 2;
#X connect 256 0 138 3;
#X connect 257 0 138 4;
#X connect 258 0 138 5;
#X connect 259 0 138 6;
#X connect 260 0 138 7;
#X connect 261 0 132 0;
#X connect 262 0 134 0;
#X connect 263 0 90 0;
#X connect 264 0 269 0;
#X connect 265 0 273 0;
#X connect 266 0 267 0;
#X connect 267 0 265 0;
#X connect 268 0 267 1;
#X connect 269 0 263 0;
#X connect 270 0 269 1;
#X connect 271 0 267 0;
#X connect 272 0 264 0;
#X connect 273 0 272 0;
#X connect 274 0 91 0;
#X connect 275 0 280 0;
#X connect 276 0 284 0;
#X connect 277 0 278 0;
#X connect 278 0 276 0;
#X connect 279 0 278 1;
#X connect 280 0 274 0;
#X connect 281 0 280 1;
#X connect 282 0 278 0;
#X connect 283 0 275 0;
#X connect 284 0 283 0;
#X connect 285 0 98 0;
#X connect 286 0 291 0;
#X connect 287 0 295 0;
#X connect 288 0 289 0;
#X connect 289 0 287 0;
#X connect 290 0 289 1;
#X connect 291 0 285 0;
#X connect 292 0 291 1;
#X connect 293 0 289 0;
#X connect 294 0 286 0;
#X connect 295 0 294 0;
#X connect 296 0 99 0;
#X connect 297 0 302 0;
#X connect 298 0 306 0;
#X connect 299 0 300 0;
#X connect 300 0 298 0;
#X connect 301 0 300 1;
#X connect 302 0 296 0;
#X connect 303 0 302 1;
#X connect 304 0 300 0;
#X connect 305 0 297 0;
#X connect 306 0 305 0;
#X connect 307 0 100 0;
#X connect 308 0 313 0;
#X connect 309 0 317 0;
#X connect 310 0 311 0;
#X connect 311 0 309 0;
#X connect 312 0 311 1;
#X connect 313 0 307 0;
#X connect 314 0 313 1;
#X connect 315 0 311 0;
#X connect 316 0 308 0;
#X connect 317 0 316 0;
#X connect 318 0 101 0;
#X connect 319 0 324 0;
#X connect 320 0 328 0;
#X connect 321 0 322 0;
#X connect 322 0 320 0;
#X connect 323 0 322 1;
#X connect 324 0 318 0;
#X connect 325 0 324 1;
#X connect 326 0 322 0;
#X connect 327 0 319 0;
#X connect 328 0 327 0;
#X connect 329 0 102 0;
#X connect 330 0 335 0;
#X connect 331 0 339 0;
#X connect 332 0 333 0;
#X connect 333 0 331 0;
#X connect 334 0 333 1;
#X connect 335 0 329 0;
#X connect 336 0 335 1;
#X connect 337 0 333 0;
#X connect 338 0 330 0;
#X connect 339 0 338 0;
#X restore 22 18 pd push-display;
#X obj 210 90 hradio 16 1 0 8 empty empty empty 0 -8 0 10 #fcfcfc #000000 #000000 0;
#X msg 1003 32 1;
#X obj 1003 50 s \$0-mm;
#X obj 210 109 s \$0-sm;
#X obj 1003 12 loadbang;
#X obj 1003 111 s \$0-sm1;
#X obj 1003 72 loadbang;
#X msg 1003 92 0;
#X obj 1004 133 loadbang;
#X msg 1004 153 1;
#X obj 1004 172 s \$0-sm2;
#X text 766 32 This module is part of this main menu:;
#X text 772 93 The submenu number of this submodul:;
#X text 915 153 What is this?;
#X obj 210 34 r all-menu;
#X obj 210 71 route;
#X obj 237 53 r \$0-mm;
#X connect 2 0 5 0;
#X connect 3 0 4 0;
#X connect 6 0 3 0;
#X connect 8 0 9 0;
#X connect 9 0 7 0;
#X connect 10 0 11 0;
#X connect 11 0 12 0;
#X connect 16 0 17 0;
#X connect 17 0 2 0;
#X connect 18 0 17 1;
#X restore 957 204 pd push-controll;
#X obj 136 250 hsl 40 15 0 127 0 1 \$0-maestro4-pan1-s \$0-maestro4-pan1-r LP1 -25 8 0 10 #fcfcfc #000000 #000000 0 1;
#X obj 211 250 hsl 40 15 0 127 0 1 \$0-maestro4-pan2-s \$0-maestro4-pan2-r HP2 -25 7 0 10 #fcfcfc #000000 #000000 0 1;
#X obj 286 250 hsl 40 15 0 127 0 1 \$0-maestro4-pan3-s \$0-maestro4-pan3-r HP3 -25 8 0 10 #fcfcfc #000000 #000000 500 1;
#X obj 360 250 hsl 40 15 0 127 0 1 \$0-maestro4-pan4-s \$0-maestro4-pan4-r HP4 -25 8 0 10 #fcfcfc #000000 #000000 0 1;
#X obj 434 250 hsl 40 15 0 127 0 1 \$0-maestro4-pan5-s \$0-maestro4-pan5-r HP5 -25 8 0 10 #fcfcfc #000000 #000000 900 1;
#X obj 510 250 hsl 40 15 0 127 0 1 \$0-maestro4-pan6-s \$0-maestro4-pan6-r HP6 -25 8 0 10 #fcfcfc #000000 #000000 1000 1;
#X obj 584 250 hsl 40 15 0 127 0 1 \$0-maestro4-pan7-s \$0-maestro4-pan7-r HP7 -25 8 0 10 #fcfcfc #000000 #000000 0 1;
#X obj 659 250 hsl 40 15 0 127 0 1 \$0-maestro4-pan8-s \$0-maestro4-pan8-r HP8 -25 8 0 10 #fcfcfc #000000 #000000 2500 1;
#X obj 136 280 hsl 40 15 0 127 0 1 \$0-maestro4-pan1-s \$0-maestro4-pan1-r SAT1 -30 8 0 10 #fcfcfc #000000 #000000 0 1;
#X obj 211 280 hsl 40 15 0 127 0 1 \$0-maestro4-pan2-s \$0-maestro4-pan2-r HP2 -25 7 0 10 #fcfcfc #000000 #000000 0 1;
#X obj 286 280 hsl 40 15 0 127 0 1 \$0-maestro4-pan3-s \$0-maestro4-pan3-r HP3 -25 8 0 10 #fcfcfc #000000 #000000 500 1;
#X obj 360 280 hsl 40 15 0 127 0 1 \$0-maestro4-pan4-s \$0-maestro4-pan4-r HP4 -25 8 0 10 #fcfcfc #000000 #000000 0 1;
#X obj 434 280 hsl 40 15 0 127 0 1 \$0-maestro4-pan5-s \$0-maestro4-pan5-r HP5 -25 8 0 10 #fcfcfc #000000 #000000 900 1;
#X obj 510 280 hsl 40 15 0 127 0 1 \$0-maestro4-pan6-s \$0-maestro4-pan6-r HP6 -25 8 0 10 #fcfcfc #000000 #000000 1000 1;
#X obj 584 280 hsl 40 15 0 127 0 1 \$0-maestro4-pan7-s \$0-maestro4-pan7-r HP7 -25 8 0 10 #fcfcfc #000000 #000000 0 1;
#X obj 659 280 hsl 40 15 0 127 0 1 \$0-maestro4-pan8-s \$0-maestro4-pan8-r HP8 -25 8 0 10 #fcfcfc #000000 #000000 2500 1;
#X obj 136 310 hsl 40 15 0 127 0 1 \$0-maestro4-pan1-s \$0-maestro4-pan1-r REV1 -30 8 0 10 #fcfcfc #000000 #000000 0 1;
#X obj 211 310 hsl 40 15 0 127 0 1 \$0-maestro4-pan2-s \$0-maestro4-pan2-r HP2 -25 7 0 10 #fcfcfc #000000 #000000 0 1;
#X obj 286 310 hsl 40 15 0 127 0 1 \$0-maestro4-pan3-s \$0-maestro4-pan3-r HP3 -25 8 0 10 #fcfcfc #000000 #000000 500 1;
#X obj 360 310 hsl 40 15 0 127 0 1 \$0-maestro4-pan4-s \$0-maestro4-pan4-r HP4 -25 8 0 10 #fcfcfc #000000 #000000 0 1;
#X obj 434 310 hsl 40 15 0 127 0 1 \$0-maestro4-pan5-s \$0-maestro4-pan5-r HP5 -25 8 0 10 #fcfcfc #000000 #000000 900 1;
#X obj 510 310 hsl 40 15 0 127 0 1 \$0-maestro4-pan6-s \$0-maestro4-pan6-r HP6 -25 8 0 10 #fcfcfc #000000 #000000 1000 1;
#X obj 584 310 hsl 40 15 0 127 0 1 \$0-maestro4-pan7-s \$0-maestro4-pan7-r HP7 -25 8 0 10 #fcfcfc #000000 #000000 0 1;
#X obj 659 310 hsl 40 15 0 127 0 1 \$0-maestro4-pan8-s \$0-maestro4-pan8-r HP8 -25 8 0 10 #fcfcfc #000000 #000000 2500 1;
#X obj 136 340 hsl 40 15 0 127 0 1 \$0-maestro4-pan1-s \$0-maestro4-pan1-r DEL1 -30 8 0 10 #fcfcfc #000000 #000000 0 1;
#X obj 133 362 vradio 15 1 0 8 \$0-49-s \$0-49-r OUTS -30 8 0 10 #fcfcfc #000000 #000000 0;
#X obj 151 370 cnv 5 5 5 empty empty CH1 0 0 0 8 #fcfcfc #000000 0;
#X obj 151 385 cnv 5 5 5 empty empty CH2 0 0 0 8 #fcfcfc #000000 0;
#X obj 151 399 cnv 5 5 5 empty empty CH3 0 0 0 8 #fcfcfc #000000 0;
#X obj 151 415 cnv 5 5 5 empty empty CH4 0 0 0 8 #fcfcfc #000000 0;
#X obj 151 430 cnv 5 5 5 empty empty CH5 0 0 0 8 #fcfcfc #000000 0;
#X obj 151 445 cnv 5 5 5 empty empty CH6 0 0 0 8 #fcfcfc #000000 0;
#X obj 151 459 cnv 5 5 5 empty empty CH7 0 0 0 8 #fcfcfc #000000 0;
#X obj 151 475 cnv 5 5 5 empty empty CH8 0 0 0 8 #fcfcfc #000000 0;
#X obj 208 362 vradio 15 1 0 8 \$0-50-s \$0-50-r OUTS -30 8 0 10 #fcfcfc #000000 #000000 0;
#X obj 226 370 cnv 5 5 5 empty empty CH1 0 0 0 8 #fcfcfc #000000 0;
#X obj 226 385 cnv 5 5 5 empty empty CH2 0 0 0 8 #fcfcfc #000000 0;
#X obj 226 399 cnv 5 5 5 empty empty CH3 0 0 0 8 #fcfcfc #000000 0;
#X obj 226 415 cnv 5 5 5 empty empty CH4 0 0 0 8 #fcfcfc #000000 0;
#X obj 226 430 cnv 5 5 5 empty empty CH5 0 0 0 8 #fcfcfc #000000 0;
#X obj 226 445 cnv 5 5 5 empty empty CH6 0 0 0 8 #fcfcfc #000000 0;
#X obj 226 459 cnv 5 5 5 empty empty CH7 0 0 0 8 #fcfcfc #000000 0;
#X obj 226 475 cnv 5 5 5 empty empty CH8 0 0 0 8 #fcfcfc #000000 0;
#X obj 283 362 vradio 15 1 0 8 \$0-51-s \$0-51-r OUTS -30 8 0 10 #fcfcfc #000000 #000000 0;
#X obj 301 370 cnv 5 5 5 empty empty CH1 0 0 0 8 #fcfcfc #000000 0;
#X obj 301 385 cnv 5 5 5 empty empty CH2 0 0 0 8 #fcfcfc #000000 0;
#X obj 301 399 cnv 5 5 5 empty empty CH3 0 0 0 8 #fcfcfc #000000 0;
#X obj 301 415 cnv 5 5 5 empty empty CH4 0 0 0 8 #fcfcfc #000000 0;
#X obj 301 430 cnv 5 5 5 empty empty CH5 0 0 0 8 #fcfcfc #000000 0;
#X obj 301 445 cnv 5 5 5 empty empty CH6 0 0 0 8 #fcfcfc #000000 0;
#X obj 301 459 cnv 5 5 5 empty empty CH7 0 0 0 8 #fcfcfc #000000 0;
#X obj 301 475 cnv 5 5 5 empty empty CH8 0 0 0 8 #fcfcfc #000000 0;
#X obj 357 362 vradio 15 1 0 8 \$0-52-s \$0-52-r OUTS -30 8 0 10 #fcfcfc #000000 #000000 0;
#X obj 375 370 cnv 5 5 5 empty empty CH1 0 0 0 8 #fcfcfc #000000 0;
#X obj 375 385 cnv 5 5 5 empty empty CH2 0 0 0 8 #fcfcfc #000000 0;
#X obj 375 399 cnv 5 5 5 empty empty CH3 0 0 0 8 #fcfcfc #000000 0;
#X obj 375 415 cnv 5 5 5 empty empty CH4 0 0 0 8 #fcfcfc #000000 0;
#X obj 375 430 cnv 5 5 5 empty empty CH5 0 0 0 8 #fcfcfc #000000 0;
#X obj 375 445 cnv 5 5 5 empty empty CH6 0 0 0 8 #fcfcfc #000000 0;
#X obj 375 459 cnv 5 5 5 empty empty CH7 0 0 0 8 #fcfcfc #000000 0;
#X obj 375 475 cnv 5 5 5 empty empty CH8 0 0 0 8 #fcfcfc #000000 0;
#X obj 431 362 vradio 15 1 0 8 \$0-53-s \$0-53-r OUTS -30 8 0 10 #fcfcfc #000000 #000000 0;
#X obj 449 370 cnv 5 5 5 empty empty CH1 0 0 0 8 #fcfcfc #000000 0;
#X obj 449 385 cnv 5 5 5 empty empty CH2 0 0 0 8 #fcfcfc #000000 0;
#X obj 449 399 cnv 5 5 5 empty empty CH3 0 0 0 8 #fcfcfc #000000 0;
#X obj 449 415 cnv 5 5 5 empty empty CH4 0 0 0 8 #fcfcfc #000000 0;
#X obj 449 430 cnv 5 5 5 empty empty CH5 0 0 0 8 #fcfcfc #000000 0;
#X obj 449 445 cnv 5 5 5 empty empty CH6 0 0 0 8 #fcfcfc #000000 0;
#X obj 449 459 cnv 5 5 5 empty empty CH7 0 0 0 8 #fcfcfc #000000 0;
#X obj 449 475 cnv 5 5 5 empty empty CH8 0 0 0 8 #fcfcfc #000000 0;
#X obj 507 362 vradio 15 1 0 8 \$0-54-s \$0-54-r OUTS -30 8 0 10 #fcfcfc #000000 #000000 0;
#X obj 525 370 cnv 5 5 5 empty empty CH1 0 0 0 8 #fcfcfc #000000 0;
#X obj 525 385 cnv 5 5 5 empty empty CH2 0 0 0 8 #fcfcfc #000000 0;
#X obj 525 399 cnv 5 5 5 empty empty CH3 0 0 0 8 #fcfcfc #000000 0;
#X obj 525 415 cnv 5 5 5 empty empty CH4 0 0 0 8 #fcfcfc #000000 0;
#X obj 525 430 cnv 5 5 5 empty empty CH5 0 0 0 8 #fcfcfc #000000 0;
#X obj 525 445 cnv 5 5 5 empty empty CH6 0 0 0 8 #fcfcfc #000000 0;
#X obj 525 459 cnv 5 5 5 empty empty CH7 0 0 0 8 #fcfcfc #000000 0;
#X obj 525 475 cnv 5 5 5 empty empty CH8 0 0 0 8 #fcfcfc #000000 0;
#X obj 581 362 vradio 15 1 0 8 \$0-55-s \$0-55-r OUTS -30 8 0 10 #fcfcfc #000000 #000000 0;
#X obj 599 370 cnv 5 5 5 empty empty CH1 0 0 0 8 #fcfcfc #000000 0;
#X obj 599 385 cnv 5 5 5 empty empty CH2 0 0 0 8 #fcfcfc #000000 0;
#X obj 599 399 cnv 5 5 5 empty empty CH3 0 0 0 8 #fcfcfc #000000 0;
#X obj 599 415 cnv 5 5 5 empty empty CH4 0 0 0 8 #fcfcfc #000000 0;
#X obj 599 430 cnv 5 5 5 empty empty CH5 0 0 0 8 #fcfcfc #000000 0;
#X obj 599 445 cnv 5 5 5 empty empty CH6 0 0 0 8 #fcfcfc #000000 0;
#X obj 599 459 cnv 5 5 5 empty empty CH7 0 0 0 8 #fcfcfc #000000 0;
#X obj 599 475 cnv 5 5 5 empty empty CH8 0 0 0 8 #fcfcfc #000000 0;
#X obj 657 362 vradio 15 1 0 8 \$0-56-s \$0-56-r OUTS -30 8 0 10 #fcfcfc #000000 #000000 0;
#X obj 675 370 cnv 5 5 5 empty empty CH1 0 0 0 8 #fcfcfc #000000 0;
#X obj 675 385 cnv 5 5 5 empty empty CH2 0 0 0 8 #fcfcfc #000000 0;
#X obj 675 399 cnv 5 5 5 empty empty CH3 0 0 0 8 #fcfcfc #000000 0;
#X obj 675 415 cnv 5 5 5 empty empty CH4 0 0 0 8 #fcfcfc #000000 0;
#X obj 675 430 cnv 5 5 5 empty empty CH5 0 0 0 8 #fcfcfc #000000 0;
#X obj 675 445 cnv 5 5 5 empty empty CH6 0 0 0 8 #fcfcfc #000000 0;
#X obj 675 459 cnv 5 5 5 empty empty CH7 0 0 0 8 #fcfcfc #000000 0;
#X obj 675 475 cnv 5 5 5 empty empty CH8 0 0 0 8 #fcfcfc #000000 0;
#X obj 1080 492 throw~ stereo1;
#X obj 1206 492 throw~ stereo2;
#X obj 711 466 tgl 16 0 empty empty CH-FLTR\ ON/OFF 0 -8 0 10 #fcfcfc #000000 #000000 0 1;
#X obj 723 549 s changesound;
#X obj 862 446 loadbang;
#X msg 862 467 1;
#X connect 16 0 18 0;
#X connect 18 0 19 0;
#X connect 19 0 17 0;
#X connect 26 0 43 0;
#X connect 26 0 143 0;
#X connect 26 1 44 0;
#X connect 26 1 144 0;
#X connect 145 0 146 0;
#X connect 147 0 148 0;
#X connect 148 0 145 0;
#X coords 0 -1 1 1 700 390 2 100 100;
