#N canvas 73 25 1367 801 10;
#X obj 1037 89 inlet~;
#X obj 1042 410 outlet~;
#X obj 103 119 cnv 5 5 5 empty empty IN 0 0 0 8 #ffffff #ff8300 0;
#X obj 134 127 cnv 5 5 5 empty \$0-modul-name CHANNEL 0 0 0 12 #fcfcfc #404040 0;
#X obj 186 127 cnv 5 5 5 empty \$0-instance-num 1 0 0 0 12 #fcfcfc #404040 0;
#X obj 103 382 cnv 5 5 5 empty empty OUT 0 0 0 8 #fcfcfc #000000 0;
#X obj 209 119 cnv 5 5 5 empty empty MOD1 0 0 0 8 #fcfcfc #404040 0;
#X text 487 248 <--rename labels here;
#X text 527 268 <--modules values are saved here;
#X obj 337 118 text define -k \$0-modul-settings;
#A set CHANNEL \; HPASS \; LPASS \; VLUME \; SEND1 \; SEND2 \; DISTRN \; ALIAS \; DUCKNG \; SRC \; 7 \; #8f5adf \; #a86ada \; #c07cd2 \; #d48dc1 \; #e69fad \; #f3b08f \; #fbc070 \; #ffcf4f \;;
#N canvas 324 349 425 350 info 0;
#X text 23 12 This textfile contains all necessery names of the module and the names of the gui (faders etc.). This way its much easier to change the names of all elements simply by editing the text object.;
#X text 25 93 The Order of the file \; 0=Modul-Name \; 1=Name Param1 - write non if unused \; 2=Name Param2 \; 3=Name Param3 \; 4=Name Param4 \; 5=Name Param5 \; 6=Name Param6 \; 7=Name Param7 \; 8=Name Param8 \; 9=Type of Module (SRC \, MOD \, LFO \, EFX etc) \; 10=Number of used Parameters (1-8) \; 11=Color of Param1-Circle 12=Color of Param2-Circle \; 13=Color of Param3-Circle \; 14=Color of Param4-Circle \; 15=Color of Param5-Circle \; 16=Color of Param6-Circle \; 17=Color of Param7-Circle \; 18=Color of Param8-Circle \; ....;
#X restore 559 119 pd info;
#X text 537 118 ->;
#X text 335 98 Parameter-Values + Names + Colors:;
#X text 498 286 <--Opens the Options-Subpatch;
#X text 99 82 DESKTOP-GUI-INTERFACE:;
#X obj 339 522 s \$0-param-1-t;
#X msg 339 503 symbol \$1%;
#X obj 339 445 / 1.27;
#X floatatom 339 464 5 0 0 0 - - - 0;
#X obj 339 484 i;
#X obj 337 354 s \$0-a;
#X obj 391 354 s \$0-b;
#X obj 445 354 s \$0-c;
#X obj 500 354 s \$0-d;
#X obj 554 353 s \$0-e;
#X obj 609 353 s \$0-f;
#X obj 663 352 s \$0-g;
#X obj 718 352 s \$0-h;
#X text 763 352 <--these go to the dsp-object;
#X text 437 206 <--receives encoder messages from mother.pd;
#X text 437 186 <--sends display info to mother.pd;
#X text 447 226 <--checks menu and if module is "active";
#X text 734 325 <--receives audio + message for mod;
#X obj 339 424 r \$0-param-1-s;
#X msg 435 503 symbol \$1%;
#X obj 435 445 / 1.27;
#X floatatom 435 464 5 0 0 0 - - - 0;
#X obj 435 484 i;
#X obj 435 424 r \$0-param-2-s;
#X obj 435 522 s \$0-param-2-t;
#X msg 533 502 symbol \$1%;
#X obj 533 444 / 1.27;
#X floatatom 533 463 5 0 0 0 - - - 0;
#X obj 533 483 i;
#X obj 533 423 r \$0-param-3-s;
#X obj 533 521 s \$0-param-3-t;
#X msg 633 502 symbol \$1%;
#X obj 633 444 / 1.27;
#X floatatom 633 463 5 0 0 0 - - - 0;
#X obj 633 483 i;
#X obj 633 423 r \$0-param-4-s;
#X obj 633 521 s \$0-param-4-t;
#X msg 339 643 symbol \$1%;
#X obj 339 585 / 1.27;
#X floatatom 339 604 5 0 0 0 - - - 0;
#X obj 339 624 i;
#X msg 435 643 symbol \$1%;
#X obj 435 585 / 1.27;
#X floatatom 435 604 5 0 0 0 - - - 0;
#X obj 435 624 i;
#X msg 533 642 symbol \$1%;
#X obj 533 584 / 1.27;
#X floatatom 533 603 5 0 0 0 - - - 0;
#X obj 533 623 i;
#X msg 633 642 symbol \$1%;
#X obj 633 584 / 1.27;
#X floatatom 633 603 5 0 0 0 - - - 0;
#X obj 633 623 i;
#X obj 339 564 r \$0-param-5-s;
#X obj 339 662 s \$0-param-5-t;
#X obj 435 564 r \$0-param-6-s;
#X obj 435 662 s \$0-param-6-t;
#X obj 533 563 r \$0-param-7-s;
#X obj 533 661 s \$0-param-7-t;
#X obj 633 563 r \$0-param-8-s;
#X obj 633 661 s \$0-param-8-t;
#X obj 298 118 cnv 5 5 5 empty empty MOD2 0 0 0 8 #fcfcfc #404040 0;
#X obj 337 186 core_display \$0;
#X obj 337 206 core_encoder \$0;
#X obj 337 227 core_main_menu \$0;
#X obj 337 248 core_module_settings \$0;
#X obj 337 326 core_modulation_receiver \$0, f 64;
#X text 336 165 Modul Core:;
#X text 337 400 Value Display Representation:;
#X obj 137 232 hsl 128 15 0 127 0 1 \$0-param-4-s \$0-param-4-r SEND1 133 7 0 10 #d48dc1 #000000 #000000 12700 1;
#X obj 137 170 hsl 128 15 0 127 0 1 \$0-param-2-s \$0-param-2-r LPASS 133 7 0 10 #a86ada #000000 #000000 12700 1;
#X obj 137 263 hsl 128 15 0 127 0 1 \$0-param-5-s \$0-param-5-r SEND2 133 7 0 10 #e69fad #000000 #000000 6800 1;
#X obj 137 139 hsl 128 15 0 127 0 1 \$0-param-1-s \$0-param-1-r HPASS 133 7 0 10 #8f5adf #000000 #000000 2700 1;
#X obj 137 294 hsl 128 15 0 127 0 1 \$0-param-6-s \$0-param-6-r DISTRN 133 7 0 10 #f3b08f #000000 #000000 12700 1;
#X obj 137 325 hsl 128 15 0 127 0 1 \$0-param-7-s \$0-param-7-r ALIAS 133 7 0 10 #fbc070 #000000 #000000 0 1;
#X obj 137 201 hsl 128 15 0 127 0 1 \$0-param-3-s \$0-param-3-r VLUME 133 7 0 10 #c07cd2 #000000 #000000 12700 1;
#X obj 137 154 hsl 61 8 0 127 0 1 \$0-param-9-s \$0-param-9-r empty 133 7 0 10 #606060 #000000 #000000 0 1;
#X obj 204 154 hsl 61 8 0 127 0 1 \$0-param-17-s \$0-param-17-r empty 133 7 0 10 #7c7c7c #000000 #000000 0 1;
#X obj 137 185 hsl 61 8 0 127 0 1 \$0-param-10-s \$0-param-10-r empty 133 7 0 10 #606060 #000000 #000000 0 1;
#X obj 204 185 hsl 61 8 0 127 0 1 \$0-param-18-s \$0-param-18-r empty 133 7 0 10 #7c7c7c #000000 #000000 0 1;
#X obj 137 216 hsl 61 8 0 127 0 1 \$0-param-11-s \$0-param-11-r empty 133 7 0 10 #606060 #000000 #000000 0 1;
#X obj 204 216 hsl 61 8 0 127 0 1 \$0-param-19-s \$0-param-19-r empty 133 7 0 10 #7c7c7c #000000 #000000 0 1;
#X obj 137 247 hsl 61 8 0 127 0 1 \$0-param-12-s \$0-param-12-r empty 133 7 0 10 #606060 #000000 #000000 0 1;
#X obj 204 247 hsl 61 8 0 127 0 1 \$0-param-20-s \$0-param-20-r empty 133 7 0 10 #7c7c7c #000000 #000000 0 1;
#X obj 137 278 hsl 61 8 0 127 0 1 \$0-param-13-s \$0-param-13-r empty 133 7 0 10 #606060 #000000 #000000 0 1;
#X obj 204 278 hsl 61 8 0 127 0 1 \$0-param-21-s \$0-param-21-r empty 133 7 0 10 #7c7c7c #000000 #000000 0 1;
#X obj 137 309 hsl 61 8 0 127 0 1 \$0-param-14-s \$0-param-14-r empty 133 7 0 10 #606060 #000000 #000000 0 1;
#X obj 204 309 hsl 61 8 0 127 0 1 \$0-param-22-s \$0-param-22-r empty 133 7 0 10 #7c7c7c #000000 #000000 0 1;
#X obj 137 340 hsl 61 8 0 127 0 1 \$0-param-15-s \$0-param-15-r empty 133 7 0 10 #606060 #000000 #000000 0 1;
#X obj 204 340 hsl 61 8 0 127 0 1 \$0-param-23-s \$0-param-23-r empty 133 7 0 10 #7c7c7c #000000 #000000 0 1;
#X obj 137 355 hsl 128 15 0 127 0 1 \$0-param-8-s \$0-param-8-r DUCKNG 133 7 0 10 #ffcf4f #000000 #000000 12700 1;
#X obj 337 307 core_mod_display \$0;
#N canvas 109 68 1275 804 dsp 0;
#X obj 111 244 env~;
#X obj 111 263 - 96;
#X obj 111 282 s \$0-maestro4-ch1-meter-r;
#X text 72 77 CHANNEL 1;
#N canvas 652 54 788 718 HPF 0;
#X obj 348 73 inlet~;
#X obj 346 473 min~ 1;
#X obj 346 495 max~ -1;
#X obj 346 517 outlet~;
#X obj 346 447 *~ 1;
#X obj 346 425 e_beequad;
#X text 354 550 AUDIO-OUT;
#X obj 412 73 inlet;
#X text 416 39 HZ-IN;
#X text 333 34 AUDIO-IN;
#X obj 411 205 mtof;
#X floatatom 476 133 5 0 0 2 Q - - 0;
#X floatatom 411 173 5 0 0 2 freq - - 0;
#X obj 411 243 u_highpassq;
#X obj 512 72 loadbang;
#X msg 512 132 1.2;
#X connect 0 0 5 0;
#X connect 1 0 2 0;
#X connect 2 0 3 0;
#X connect 4 0 1 0;
#X connect 5 0 4 0;
#X connect 7 0 12 0;
#X connect 10 0 13 0;
#X connect 11 0 13 1;
#X connect 12 0 10 0;
#X connect 13 0 5 1;
#X connect 14 0 15 0;
#X connect 15 0 13 1;
#X restore 73 147 pd HPF;
#N canvas 136 263 843 352 LPF 0;
#X obj 221 229 u_lowpassq;
#X obj 158 73 inlet~;
#X obj 156 473 min~ 1;
#X obj 156 495 max~ -1;
#X obj 156 517 outlet~;
#X obj 156 447 *~ 1;
#X obj 156 425 e_beequad;
#X text 164 550 AUDIO-OUT;
#X obj 222 73 inlet;
#X text 226 39 HZ-IN;
#X text 143 34 AUDIO-IN;
#X obj 221 205 mtof;
#X floatatom 286 133 5 0 0 2 Q - - 0;
#X floatatom 221 173 5 0 0 2 freq - - 0;
#X obj 322 72 loadbang;
#X floatatom 189 255 9 0 0 0 - - - 0;
#X obj 222 94 / 127;
#X obj 222 115 * 136;
#X msg 322 132 0.4;
#X connect 0 0 6 1;
#X connect 1 0 6 0;
#X connect 2 0 3 0;
#X connect 3 0 4 0;
#X connect 5 0 2 0;
#X connect 6 0 5 0;
#X connect 8 0 16 0;
#X connect 11 0 0 0;
#X connect 11 0 15 0;
#X connect 13 0 11 0;
#X connect 14 0 18 0;
#X connect 16 0 17 0;
#X connect 17 0 13 0;
#X connect 18 0 0 1;
#X restore 73 189 pd LPF;
#X obj 73 216 softclip_console7_v2;
#X obj 111 343 *~;
#X obj 308 230 t f f;
#X obj 308 327 line~;
#X obj 308 210 line;
#X obj 308 190 pack f 50;
#X obj 308 251 t f f f;
#X obj 308 270 *;
#X obj 308 289 *;
#X obj 308 308 pack f 30;
#X obj 111 370 throw~ send1;
#X obj 308 170 + 0.01;
#X obj 111 413 *~;
#X obj 111 440 throw~ send2;
#X obj 308 150 / 130;
#X obj 418 300 t f f;
#X obj 418 395 line~;
#X obj 418 278 line;
#X obj 418 258 pack f 50;
#X obj 418 319 t f f f;
#X obj 418 338 *;
#X obj 418 357 *;
#X obj 418 376 pack f 30;
#X obj 418 238 + 0.01;
#X obj 418 218 / 130;
#X obj 71 545 *~;
#X obj 203 544 *~;
#X obj 592 346 t f f;
#X msg 592 368 1 \$1;
#X obj 592 390 -;
#X obj 592 412 pack 0 50;
#X obj 592 434 line~;
#X obj 592 457 +~;
#X obj 516 411 pack 0 50;
#X obj 516 433 line~;
#X obj 516 456 +~;
#X obj 73 97 inlet~;
#X obj 71 818 outlet~;
#N canvas 1 50 644 393 tanh 0;
#X obj 117 43 inlet~;
#X obj 97 249 outlet~;
#X text 104 76 eulerische zahl;
#X obj 203 114 *~ -1;
#X obj 181 135 pow~;
#X obj 96 125 pow~;
#X obj 96 93 sig~ 2.71828;
#X obj 165 175 +~;
#X obj 96 175 -~;
#X obj 96 220 /~;
#X text 295 284 from Audiolab phillip schmalfuß;
#X connect 0 0 5 1;
#X connect 0 0 3 0;
#X connect 3 0 4 1;
#X connect 4 0 7 1;
#X connect 4 0 8 1;
#X connect 5 0 8 0;
#X connect 5 0 7 0;
#X connect 6 0 5 0;
#X connect 6 0 4 0;
#X connect 7 0 9 1;
#X connect 8 0 9 0;
#X connect 9 0 1 0;
#X restore 71 567 pd tanh;
#X obj 592 304 + 1;
#X floatatom 708 540 5 0 0 0 - - - 0;
#X obj 592 283 / 64;
#N canvas 33 58 804 572 alias 0;
#X obj 262 61 inlet~;
#X obj 264 476 outlet~;
#X obj 322 345 phasor~;
#X obj 263 374 samphold~;
#X obj 322 92 samplerate~;
#X obj 322 59 loadbang;
#X floatatom 374 437 10 0 0 0 - - - 0;
#X msg 394 58 bang;
#X obj 336 276 t b a;
#X obj 322 312 / 1;
#X obj 409 155 loadbang;
#X msg 336 244 1;
#X obj 336 221 moses 1;
#X obj 336 194 f \$2;
#X obj 363 311 r \$0-freq;
#X msg 310 424 \$1 10;
#X obj 310 403 r \$0-dry;
#N canvas 498 514 450 300 c_xfade 0;
#X obj 76 87 inlet~;
#X obj 142 87 inlet~;
#X obj 77 198 outlet~;
#X obj 201 87 inlet;
#X obj 201 127 vline~;
#X obj 141 136 -~;
#X obj 141 156 *~;
#X text 371 150 (1-x)*a + x*b;
#X text 371 167 = a - x*a + x*b;
#X text 371 184 = a + x*(b - a);
#X text 366 119 x: fade factor (0-1);
#X text 366 90 a: sig from inlet~ 0;
#X text 339 50 Linear crossfade according to the following calculation:;
#X text 367 104 b: sig from inlet~ 1;
#N canvas 172 83 586 377 LICENSE-GPL 0;
#X text 57 88 This program is free software: you can redistribute it and/or modify it under the terms of the GNU General Public License as published by the Free Software Foundation \, either version 3 of the License \, or (at your option) any later version.;
#X text 58 168 This program is distributed in the hope that it will be useful \, but WITHOUT ANY WARRANTY \; without even the implied warranty of MERCHANTABILITY or FITNESS FOR A PARTICULAR PURPOSE. See the GNU General Public License for more details.;
#X text 57 261 You should have received a copy of the GNU General Public License along with this program. If not \, see <http://www.gnu.org/licenses/>.;
#X text 61 54 Copyright (C) 2009 \, Reality Jockey Ltd.;
#X text 60 325 See the file LICENSE.txt for the full license text.;
#X restore 614 19 pd LICENSE-GPL;
#X connect 0 0 5 1;
#X connect 0 0 2 0;
#X connect 1 0 5 0;
#X connect 3 0 4 0;
#X connect 4 0 6 1;
#X connect 5 0 6 0;
#X connect 6 0 2 0;
#X restore 264 446 pd c_xfade;
#X obj 491 44 inlet;
#X obj 600 52 inlet;
#X text 489 20 alias;
#X text 598 28 mix;
#X floatatom 446 359 17 0 0 0 - - - 0;
#X connect 0 0 3 0;
#X connect 0 0 17 1;
#X connect 2 0 3 1;
#X connect 3 0 17 0;
#X connect 4 0 9 0;
#X connect 5 0 4 0;
#X connect 7 0 4 0;
#X connect 8 0 9 0;
#X connect 8 1 9 1;
#X connect 9 0 6 0;
#X connect 9 0 2 0;
#X connect 9 0 22 0;
#X connect 10 0 13 0;
#X connect 11 0 8 0;
#X connect 12 0 11 0;
#X connect 12 1 8 0;
#X connect 13 0 12 0;
#X connect 14 0 2 0;
#X connect 15 0 17 2;
#X connect 16 0 15 0;
#X connect 17 0 1 0;
#X connect 18 0 13 0;
#X connect 19 0 15 0;
#X restore 101 727 pd alias;
#X obj 170 675 hsl 128 15 0 127 0 1 empty empty empty 133 7 0 10 #fcfcfc #000000 #000000 6400 1;
#X obj 167 695 / 127;
#X msg 167 644 64;
#X obj 166 623 loadbang;
#X obj 166 30 r \$0-a;
#X obj 231 30 r \$0-b;
#X obj 296 27 r \$0-c;
#X obj 323 78 r \$0-d;
#X obj 425 69 r \$0-e;
#X obj 158 68 * 127;
#X obj 231 62 * 127;
#X obj 296 48 * 127;
#X obj 323 99 * 127;
#X obj 425 90 * 127;
#X obj 595 80 r \$0-f;
#X obj 595 101 * 127;
#X obj 125 598 r \$0-g;
#X obj 132 164 clip 0 127;
#X obj 148 104 clip 0 127;
#X obj 282 599 pack 0 50;
#X obj 282 621 line~;
#X obj 282 644 +~;
#X obj 123 703 * 6;
#X obj 71 765 *~;
#X obj 466 709 vline~;
#X obj 464 542 r global-sidechain;
#X obj 470 568 bng 16 250 50 0 empty empty empty 0 -8 0 10 #fcfcfc #000000 #000000;
#X msg 184 748 1;
#X obj 704 79 r \$0-h;
#X obj 470 593 f;
#X floatatom 750 577 21 0 0 0 - - - 0;
#X floatatom 827 145 5 0 0 0 - - - 0;
#X obj 852 540 pack f f f;
#X listbox 846 663 20 0 0 0 - - - 0;
#X msg 466 627 \$1 \$2 0 \, 1 \$3 60;
#X obj 884 249 r global-ducking-attack;
#X obj 968 297 r global-ducking-decay;
#X connect 0 0 1 0;
#X connect 1 0 2 0;
#X connect 4 0 5 0;
#X connect 5 0 6 0;
#X connect 6 0 0 0;
#X connect 6 0 7 0;
#X connect 6 0 18 0;
#X connect 6 0 31 0;
#X connect 6 0 32 0;
#X connect 7 0 16 0;
#X connect 8 0 12 0;
#X connect 9 0 7 1;
#X connect 10 0 8 0;
#X connect 11 0 10 0;
#X connect 12 0 13 0;
#X connect 12 1 13 1;
#X connect 12 2 14 1;
#X connect 13 0 14 0;
#X connect 14 0 15 0;
#X connect 15 0 9 0;
#X connect 17 0 11 0;
#X connect 18 0 19 0;
#X connect 20 0 17 0;
#X connect 21 0 25 0;
#X connect 22 0 18 1;
#X connect 23 0 21 0;
#X connect 24 0 23 0;
#X connect 25 0 26 0;
#X connect 25 1 26 1;
#X connect 25 2 27 1;
#X connect 26 0 27 0;
#X connect 27 0 28 0;
#X connect 28 0 22 0;
#X connect 29 0 24 0;
#X connect 30 0 29 0;
#X connect 31 0 44 0;
#X connect 33 0 34 0;
#X connect 33 1 39 0;
#X connect 34 0 35 0;
#X connect 35 0 36 0;
#X connect 36 0 37 0;
#X connect 37 0 38 0;
#X connect 38 0 32 1;
#X connect 39 0 40 0;
#X connect 40 0 41 0;
#X connect 41 0 31 1;
#X connect 42 0 4 0;
#X connect 44 0 48 0;
#X connect 44 0 72 0;
#X connect 45 0 33 0;
#X connect 45 0 46 0;
#X connect 47 0 45 0;
#X connect 49 0 50 0;
#X connect 50 0 48 2;
#X connect 51 0 49 0;
#X connect 52 0 51 0;
#X connect 53 0 58 0;
#X connect 54 0 59 0;
#X connect 55 0 60 0;
#X connect 56 0 61 0;
#X connect 57 0 62 0;
#X connect 58 0 67 0;
#X connect 59 0 66 0;
#X connect 60 0 6 1;
#X connect 61 0 20 0;
#X connect 62 0 30 0;
#X connect 63 0 64 0;
#X connect 64 0 47 0;
#X connect 65 0 68 0;
#X connect 65 0 71 0;
#X connect 66 0 5 1;
#X connect 67 0 4 1;
#X connect 68 0 69 0;
#X connect 69 0 70 0;
#X connect 71 0 48 1;
#X connect 72 0 43 0;
#X connect 73 0 72 1;
#X connect 74 0 75 0;
#X connect 75 0 78 0;
#X connect 76 0 72 1;
#X connect 77 0 80 0;
#X connect 77 0 78 1;
#X connect 78 0 81 0;
#X connect 81 0 83 0;
#X connect 83 0 73 0;
#X connect 83 0 82 0;
#X connect 84 0 81 1;
#X connect 85 0 81 2;
#X restore 1040 261 pd dsp;
#X obj 1129 89 inlet~;
#X obj 1229 89 inlet~;
#X obj 1129 179 throw~ \$0-mod1;
#X obj 1229 178 throw~ \$0-mod2;
#X text 1127 72 MOD1;
#X text 1227 72 MOD2;
#X obj 693 30 r \$1-fader;
#X floatatom 693 51 5 0 0 0 - - - 0;
#X obj 862 72 s 1-fader;
#X floatatom 856 11 5 0 0 0 - - - 0;
#X floatatom 688 384 5 0 0 0 - - - 0;
#X obj 337 287 core_options \$0 \$1 \$2 \$3;
#X obj 337 268 core_state_saving \$0 \$1 \$2 \$3;
#X floatatom 306 426 5 0 0 0 - - - 0;
#X connect 0 0 107 0;
#X connect 16 0 15 0;
#X connect 17 0 18 0;
#X connect 18 0 19 0;
#X connect 19 0 16 0;
#X connect 33 0 17 0;
#X connect 34 0 39 0;
#X connect 35 0 36 0;
#X connect 36 0 37 0;
#X connect 37 0 34 0;
#X connect 38 0 35 0;
#X connect 40 0 45 0;
#X connect 41 0 42 0;
#X connect 42 0 43 0;
#X connect 43 0 40 0;
#X connect 44 0 41 0;
#X connect 46 0 51 0;
#X connect 47 0 48 0;
#X connect 48 0 49 0;
#X connect 49 0 46 0;
#X connect 50 0 47 0;
#X connect 52 0 69 0;
#X connect 53 0 54 0;
#X connect 54 0 55 0;
#X connect 55 0 52 0;
#X connect 56 0 71 0;
#X connect 57 0 58 0;
#X connect 58 0 59 0;
#X connect 59 0 56 0;
#X connect 60 0 73 0;
#X connect 61 0 62 0;
#X connect 62 0 63 0;
#X connect 63 0 60 0;
#X connect 64 0 75 0;
#X connect 65 0 66 0;
#X connect 66 0 67 0;
#X connect 67 0 64 0;
#X connect 68 0 53 0;
#X connect 70 0 57 0;
#X connect 72 0 61 0;
#X connect 74 0 65 0;
#X connect 81 0 20 0;
#X connect 81 0 121 0;
#X connect 81 1 21 0;
#X connect 81 2 22 0;
#X connect 81 3 23 0;
#X connect 81 4 24 0;
#X connect 81 5 25 0;
#X connect 81 6 26 0;
#X connect 81 7 27 0;
#X connect 81 7 118 0;
#X connect 107 0 1 0;
#X connect 108 0 110 0;
#X connect 109 0 111 0;
#X connect 114 0 115 0;
#X connect 115 0 90 0;
#X connect 117 0 116 0;
#X coords 0 -1 1 1 220 290 1 100 100;
