#N canvas 0 25 1367 801 10;
#X obj 1048 84 inlet~;
#X obj 1048 195 *~;
#X obj 671 125 hsl 128 15 0 127 0 1 \$0-mixer2-channel1-s \$0-mixer2-channel1-r CH1 133 7 0 10 #fcfcfc #000000 #000000 12700 1;
#X obj 1063 129 / 127;
#X obj 1063 151 pack 0 50;
#X obj 1063 173 line~;
#X obj 730 113 cnv 5 5 5 empty empty MIXER 0 0 0 12 #fcfcfc #404040 0;
#X obj 809 166 cnv 5 5 5 empty empty UNITY 0 0 0 8 #fcfcfc #404040 0;
#X obj 816 111 cnv 5 5 5 empty empty CH2 0 0 0 8 #fcfcfc #404040 0;
#X obj 663 111 cnv 5 5 5 empty empty CH1 0 0 0 8 #fcfcfc #404040 0;
#X obj 776 113 cnv 5 5 5 empty \$0-instance-num 1 0 0 0 12 #fcfcfc #404040 0;
#X obj 1044 410 outlet~;
#X obj 663 166 cnv 5 5 5 empty empty OUT 0 0 0 8 #fcfcfc #404040 0;
#X obj 103 109 cnv 5 5 5 empty empty IN 0 0 0 8 #ffffff #ff8300 0;
#X obj 134 127 cnv 5 5 5 empty \$0-modul-name CHANNEL 0 0 0 12 #fcfcfc #404040 0;
#X obj 186 127 cnv 5 5 5 empty \$0-instance-num 1 0 0 0 12 #fcfcfc #404040 0;
#X obj 103 382 cnv 5 5 5 empty empty OUT 0 0 0 8 #fcfcfc #000000 0;
#X obj 199 109 cnv 5 5 5 empty empty MOD1 0 0 0 8 #fcfcfc #404040 0;
#X obj 308 378 bng 10 250 50 0 \$0-options-button \$0-options-button-r OPTIONS -45 5 0 10 #fcfcfc #000000 #000000;
#X text 487 248 <--rename labels here;
#X text 487 268 <--modules values are saved here;
#X obj 337 118 text define -k \$0-modul-settings;
#A set CHANNEL \; HPASS \; LPASS \; VLUME \; SEND1 \; SEND2 \; DISTRN \; BIT-RD \; PAN \; SRC \; 7 \; #8f5adf \; #a86ada \; #c07cd2 \; #d48dc1 \; #e69fad \; #f3b08f \; #fbc070 \; #ffcf4f \;;
#N canvas 324 349 425 350 info 0;
#X text 23 12 This textfile contains all necessery names of the module and the names of the gui (faders etc.). This way its much easier to change the names of all elements simply by editing the text object.;
#X text 25 93 The Order of the file \; 0=Modul-Name \; 1=Name Param1 - write non if unused \; 2=Name Param2 \; 3=Name Param3 \; 4=Name Param4 \; 5=Name Param5 \; 6=Name Param6 \; 7=Name Param7 \; 8=Name Param8 \; 9=Type of Module (SRC \, MOD \, LFO \, EFX etc) \; 10=Number of used Parameters (1-8) \; 11=Color of Param1-Circle 12=Color of Param2-Circle \; 13=Color of Param3-Circle \; 14=Color of Param4-Circle \; 15=Color of Param5-Circle \; 16=Color of Param6-Circle \; 17=Color of Param7-Circle \; 18=Color of Param8-Circle \; ....;
#X restore 559 119 pd info;
#X text 537 118 ->;
#X text 335 98 Parameter-Values + Names + Colors:;
#X text 438 286 <--Opens the Options-Subpatch;
#X text 99 82 DESKTOP-GUI-INTERFACE:;
#X obj 339 502 s \$0-param-1-t;
#X msg 339 483 symbol \$1%;
#X obj 339 425 / 1.27;
#X floatatom 339 444 5 0 0 0 - - - 0;
#X obj 339 464 i;
#X obj 337 334 s \$0-a;
#X obj 391 334 s \$0-b;
#X obj 445 334 s \$0-c;
#X obj 500 334 s \$0-d;
#X obj 554 333 s \$0-e;
#X obj 609 333 s \$0-f;
#X obj 663 332 s \$0-g;
#X obj 718 332 s \$0-h;
#X text 763 332 <--these go to the dsp-object;
#X text 437 206 <--receives encoder messages from mother.pd;
#X text 437 186 <--sends display info to mother.pd;
#X text 447 226 <--checks menu and if module is "active";
#X text 734 305 <--receives audio + message for mod;
#X obj 339 404 r \$0-param-1-s;
#X msg 435 483 symbol \$1%;
#X obj 435 425 / 1.27;
#X floatatom 435 444 5 0 0 0 - - - 0;
#X obj 435 464 i;
#X obj 435 404 r \$0-param-2-s;
#X obj 435 502 s \$0-param-2-t;
#X msg 533 482 symbol \$1%;
#X obj 533 424 / 1.27;
#X floatatom 533 443 5 0 0 0 - - - 0;
#X obj 533 463 i;
#X obj 533 403 r \$0-param-3-s;
#X obj 533 501 s \$0-param-3-t;
#X msg 633 482 symbol \$1%;
#X obj 633 424 / 1.27;
#X floatatom 633 443 5 0 0 0 - - - 0;
#X obj 633 463 i;
#X obj 633 403 r \$0-param-4-s;
#X obj 633 501 s \$0-param-4-t;
#X msg 339 623 symbol \$1%;
#X obj 339 565 / 1.27;
#X floatatom 339 584 5 0 0 0 - - - 0;
#X obj 339 604 i;
#X msg 435 623 symbol \$1%;
#X obj 435 565 / 1.27;
#X floatatom 435 584 5 0 0 0 - - - 0;
#X obj 435 604 i;
#X msg 533 622 symbol \$1%;
#X obj 533 564 / 1.27;
#X floatatom 533 583 5 0 0 0 - - - 0;
#X obj 533 603 i;
#X msg 633 622 symbol \$1%;
#X obj 633 564 / 1.27;
#X floatatom 633 583 5 0 0 0 - - - 0;
#X obj 633 603 i;
#X obj 339 544 r \$0-param-5-s;
#X obj 339 642 s \$0-param-5-t;
#X obj 435 544 r \$0-param-6-s;
#X obj 435 642 s \$0-param-6-t;
#X obj 533 543 r \$0-param-7-s;
#X obj 533 641 s \$0-param-7-t;
#X obj 633 543 r \$0-param-8-s;
#X obj 633 641 s \$0-param-8-t;
#X obj 298 108 cnv 5 5 5 empty empty MOD2 0 0 0 8 #fcfcfc #404040 0;
#X obj 337 186 core_display \$0;
#X obj 337 206 core_encoder \$0;
#X obj 337 227 core_main_menu \$0;
#X obj 337 248 core_module_settings \$0;
#X obj 337 306 core_modulation_receiver \$0, f 64;
#X obj 337 268 core_state_saving \$0 \$1;
#X obj 337 287 core_options \$0;
#X text 336 165 Modul Core:;
#X text 337 380 Value Display Representation:;
#X msg 339 783 symbol \$1%;
#X obj 339 725 / 1.27;
#X floatatom 339 744 5 0 0 0 - - - 0;
#X obj 339 764 i;
#X msg 435 783 symbol \$1%;
#X obj 435 725 / 1.27;
#X floatatom 435 744 5 0 0 0 - - - 0;
#X obj 435 764 i;
#X msg 533 782 symbol \$1%;
#X obj 533 724 / 1.27;
#X floatatom 533 743 5 0 0 0 - - - 0;
#X obj 533 763 i;
#X msg 633 782 symbol \$1%;
#X obj 633 724 / 1.27;
#X floatatom 633 743 5 0 0 0 - - - 0;
#X obj 633 763 i;
#X msg 339 1053 symbol \$1%;
#X obj 339 995 / 1.27;
#X floatatom 339 1014 5 0 0 0 - - - 0;
#X obj 339 1034 i;
#X msg 435 1053 symbol \$1%;
#X obj 435 995 / 1.27;
#X floatatom 435 1014 5 0 0 0 - - - 0;
#X obj 435 1034 i;
#X msg 533 1052 symbol \$1%;
#X obj 533 994 / 1.27;
#X floatatom 533 1013 5 0 0 0 - - - 0;
#X obj 533 1033 i;
#X msg 633 1052 symbol \$1%;
#X obj 633 994 / 1.27;
#X floatatom 633 1013 5 0 0 0 - - - 0;
#X obj 633 1033 i;
#X obj 339 704 r \$0-param-9-s;
#X obj 339 802 s \$0-param-9-t;
#X obj 339 974 r \$0-param-17-s;
#X obj 339 1072 s \$0-param-17-t;
#X obj 435 704 r \$0-param-10-s;
#X obj 435 802 s \$0-param-10-t;
#X obj 533 703 r \$0-param-11-s;
#X obj 533 801 s \$0-param-11-t;
#X obj 633 703 r \$0-param-12-s;
#X obj 633 801 s \$0-param-12-t;
#X msg 339 903 symbol \$1%;
#X obj 339 845 / 1.27;
#X floatatom 339 864 5 0 0 0 - - - 0;
#X obj 339 884 i;
#X msg 435 903 symbol \$1%;
#X obj 435 845 / 1.27;
#X floatatom 435 864 5 0 0 0 - - - 0;
#X obj 435 884 i;
#X msg 533 902 symbol \$1%;
#X obj 533 844 / 1.27;
#X floatatom 533 863 5 0 0 0 - - - 0;
#X obj 533 883 i;
#X msg 633 902 symbol \$1%;
#X obj 633 844 / 1.27;
#X floatatom 633 863 5 0 0 0 - - - 0;
#X obj 633 883 i;
#X obj 339 824 r \$0-param-13-s;
#X obj 339 922 s \$0-param-13-t;
#X obj 435 824 r \$0-param-14-s;
#X obj 435 922 s \$0-param-14-t;
#X obj 533 823 r \$0-param-15-s;
#X obj 533 921 s \$0-param-15-t;
#X obj 633 823 r \$0-param-16-s;
#X obj 633 921 s \$0-param-16-t;
#X text 342 683 mod 1;
#X text 339 955 mod 1;
#X msg 339 1183 symbol \$1%;
#X obj 339 1125 / 1.27;
#X floatatom 339 1144 5 0 0 0 - - - 0;
#X obj 339 1164 i;
#X msg 435 1183 symbol \$1%;
#X obj 435 1125 / 1.27;
#X floatatom 435 1144 5 0 0 0 - - - 0;
#X obj 435 1164 i;
#X msg 533 1182 symbol \$1%;
#X obj 533 1124 / 1.27;
#X floatatom 533 1143 5 0 0 0 - - - 0;
#X obj 533 1163 i;
#X msg 633 1182 symbol \$1%;
#X obj 633 1124 / 1.27;
#X floatatom 633 1143 5 0 0 0 - - - 0;
#X obj 633 1163 i;
#X obj 435 974 r \$0-param-18-s;
#X obj 435 1072 s \$0-param-18-t;
#X obj 533 973 r \$0-param-19-s;
#X obj 533 1071 s \$0-param-19-t;
#X obj 633 973 r \$0-param-20-s;
#X obj 633 1071 s \$0-param-20-t;
#X obj 339 1104 r \$0-param-21-s;
#X obj 339 1202 s \$0-param-21-t;
#X obj 435 1104 r \$0-param-22-s;
#X obj 435 1202 s \$0-param-22-t;
#X obj 533 1103 r \$0-param-23-s;
#X obj 533 1201 s \$0-param-23-t;
#X obj 633 1103 r \$0-param-24-s;
#X obj 633 1201 s \$0-param-24-t;
#N canvas 34 25 913 804 channel1 0;
#X obj 111 244 env~;
#X obj 111 263 - 96;
#X obj 111 282 s \$0-maestro4-ch1-meter-r;
#X text 72 77 CHANNEL 1;
#N canvas 652 54 788 718 HPF 0;
#X obj 348 73 inlet~;
#X obj 346 473 min~ 1;
#X obj 346 495 max~ -1;
#X obj 346 517 outlet~;
#X obj 346 447 *~ 1;
#X obj 346 425 e_beequad;
#X text 354 550 AUDIO-OUT;
#X obj 412 73 inlet;
#X text 416 39 HZ-IN;
#X text 333 34 AUDIO-IN;
#X obj 411 205 mtof;
#X floatatom 476 133 5 0 0 2 Q - - 0;
#X floatatom 411 173 5 0 0 2 freq - - 0;
#X obj 411 243 u_highpassq;
#X obj 512 72 loadbang;
#X msg 512 132 1.2;
#X connect 0 0 5 0;
#X connect 1 0 2 0;
#X connect 2 0 3 0;
#X connect 4 0 1 0;
#X connect 5 0 4 0;
#X connect 7 0 12 0;
#X connect 10 0 13 0;
#X connect 11 0 13 1;
#X connect 12 0 10 0;
#X connect 13 0 5 1;
#X connect 14 0 15 0;
#X connect 15 0 13 1;
#X restore 73 147 pd HPF;
#X obj 82 611 r \$0-49-s;
#X msg 82 650 set hw\$1;
#X obj 82 632 + 1;
#X text 147 610 Set the hardware channel - which has the dac in the mother patch;
#X obj 203 563 throw~ \$0-left;
#X obj 99 564 throw~ \$0-right;
#N canvas 136 263 843 352 LPF 0;
#X obj 221 229 u_lowpassq;
#X obj 158 73 inlet~;
#X obj 156 473 min~ 1;
#X obj 156 495 max~ -1;
#X obj 156 517 outlet~;
#X obj 156 447 *~ 1;
#X obj 156 425 e_beequad;
#X text 164 550 AUDIO-OUT;
#X obj 222 73 inlet;
#X text 226 39 HZ-IN;
#X text 143 34 AUDIO-IN;
#X obj 221 205 mtof;
#X floatatom 286 133 5 0 0 2 Q - - 0;
#X floatatom 221 173 5 0 0 2 freq - - 0;
#X obj 322 72 loadbang;
#X floatatom 189 255 9 0 0 0 - - - 0;
#X obj 222 94 / 127;
#X obj 222 115 * 136;
#X msg 322 132 0.4;
#X connect 0 0 6 1;
#X connect 1 0 6 0;
#X connect 2 0 3 0;
#X connect 3 0 4 0;
#X connect 5 0 2 0;
#X connect 6 0 5 0;
#X connect 8 0 16 0;
#X connect 11 0 0 0;
#X connect 11 0 15 0;
#X connect 13 0 11 0;
#X connect 14 0 18 0;
#X connect 16 0 17 0;
#X connect 17 0 13 0;
#X connect 18 0 0 1;
#X restore 73 189 pd LPF;
#X obj 73 216 softclip_console7_v2;
#X obj 111 343 *~;
#X obj 308 230 t f f;
#X obj 308 327 line~;
#X obj 308 210 line;
#X obj 308 190 pack f 50;
#X obj 308 251 t f f f;
#X obj 308 270 *;
#X obj 308 289 *;
#X obj 308 308 pack f 30;
#X obj 111 370 throw~ send1;
#X obj 308 170 + 0.01;
#X obj 111 413 *~;
#X obj 111 440 throw~ send2;
#X obj 308 150 / 130;
#X obj 418 300 t f f;
#X obj 418 395 line~;
#X obj 418 278 line;
#X obj 418 258 pack f 50;
#X obj 418 319 t f f f;
#X obj 418 338 *;
#X obj 418 357 *;
#X obj 418 376 pack f 30;
#X obj 418 238 + 0.01;
#X obj 418 218 / 130;
#X obj 99 545 *~;
#X obj 203 544 *~;
#X obj 592 346 t f f;
#X msg 592 368 1 \$1;
#X obj 592 390 -;
#X obj 592 412 pack 0 50;
#X obj 592 434 line~;
#X obj 592 457 +~;
#X obj 516 411 pack 0 50;
#X obj 516 433 line~;
#X obj 516 456 +~;
#X obj 592 323 / 127;
#X obj 73 97 inlet~;
#X obj 106 127 r \$0-param-1-s;
#X obj 106 168 r \$0-param-2-s;
#X obj 190 191 r \$0-param-3-s;
#X obj 308 129 r \$0-param-4-s;
#X obj 418 197 r \$0-param-5-s;
#X obj 71 688 outlet~;
#X obj 592 296 r \$0-param-6-s;
#X connect 0 0 1 0;
#X connect 1 0 2 0;
#X connect 4 0 11 0;
#X connect 5 0 7 0;
#X connect 6 0 55 0;
#X connect 7 0 6 0;
#X connect 11 0 12 0;
#X connect 12 0 0 0;
#X connect 12 0 13 0;
#X connect 12 0 24 0;
#X connect 12 0 37 0;
#X connect 12 0 38 0;
#X connect 12 0 55 0;
#X connect 13 0 22 0;
#X connect 14 0 18 0;
#X connect 15 0 13 1;
#X connect 16 0 14 0;
#X connect 17 0 16 0;
#X connect 18 0 19 0;
#X connect 18 1 19 1;
#X connect 18 2 20 1;
#X connect 19 0 20 0;
#X connect 20 0 21 0;
#X connect 21 0 15 0;
#X connect 23 0 17 0;
#X connect 24 0 25 0;
#X connect 26 0 23 0;
#X connect 27 0 31 0;
#X connect 28 0 24 1;
#X connect 29 0 27 0;
#X connect 30 0 29 0;
#X connect 31 0 32 0;
#X connect 31 1 32 1;
#X connect 31 2 33 1;
#X connect 32 0 33 0;
#X connect 33 0 34 0;
#X connect 34 0 28 0;
#X connect 35 0 30 0;
#X connect 36 0 35 0;
#X connect 37 0 10 0;
#X connect 38 0 9 0;
#X connect 39 0 40 0;
#X connect 39 1 45 0;
#X connect 40 0 41 0;
#X connect 41 0 42 0;
#X connect 42 0 43 0;
#X connect 43 0 44 0;
#X connect 44 0 38 1;
#X connect 45 0 46 0;
#X connect 46 0 47 0;
#X connect 47 0 37 1;
#X connect 48 0 39 0;
#X connect 49 0 4 0;
#X connect 50 0 4 1;
#X connect 51 0 11 1;
#X connect 52 0 12 1;
#X connect 53 0 26 0;
#X connect 54 0 36 0;
#X connect 56 0 48 0;
#X restore 1071 274 pd channel1;
#X obj 137 232 hsl 128 15 0 127 0 1 \$0-param-4-s \$0-param-4-r SEND1 133 7 0 10 #d48dc1 #000000 #000000 2400 1;
#X obj 137 170 hsl 128 15 0 127 0 1 \$0-param-2-s \$0-param-2-r LPASS 133 7 0 10 #a86ada #000000 #000000 12700 1;
#X obj 137 263 hsl 128 15 0 127 0 1 \$0-param-5-s \$0-param-5-r SEND2 133 7 0 10 #e69fad #000000 #000000 12700 1;
#X obj 137 139 hsl 128 15 0 127 0 1 \$0-param-1-s \$0-param-1-r HPASS 133 7 0 10 #8f5adf #000000 #000000 0 1;
#X obj 137 294 hsl 128 15 0 127 0 1 \$0-param-6-s \$0-param-6-r DISTRN 133 7 0 10 #f3b08f #000000 #000000 11400 1;
#X obj 137 325 hsl 128 15 0 127 0 1 \$0-param-7-s \$0-param-7-r BIT-RD 133 7 0 10 #fbc070 #000000 #000000 12700 1;
#X obj 137 201 hsl 128 15 0 127 0 1 \$0-param-3-s \$0-param-3-r VLUME 133 7 0 10 #c07cd2 #000000 #000000 12700 1;
#X obj 137 154 hsl 61 8 0 127 0 1 \$0-param-9-s \$0-param-9-r empty 133 7 0 10 #606060 #000000 #000000 0 1;
#X obj 204 154 hsl 61 8 0 127 0 1 \$0-param-17-s \$0-param-17-r empty 133 7 0 10 #7c7c7c #000000 #000000 0 1;
#X obj 137 185 hsl 61 8 0 127 0 1 \$0-param-10-s \$0-param-10-r empty 133 7 0 10 #606060 #000000 #000000 0 1;
#X obj 204 185 hsl 61 8 0 127 0 1 \$0-param-18-s \$0-param-18-r empty 133 7 0 10 #7c7c7c #000000 #000000 0 1;
#X obj 137 216 hsl 61 8 0 127 0 1 \$0-param-11-s \$0-param-11-r empty 133 7 0 10 #606060 #000000 #000000 0 1;
#X obj 204 216 hsl 61 8 0 127 0 1 \$0-param-19-s \$0-param-19-r empty 133 7 0 10 #7c7c7c #000000 #000000 0 1;
#X obj 137 247 hsl 61 8 0 127 0 1 \$0-param-12-s \$0-param-12-r empty 133 7 0 10 #606060 #000000 #000000 0 1;
#X obj 204 247 hsl 61 8 0 127 0 1 \$0-param-20-s \$0-param-20-r empty 133 7 0 10 #7c7c7c #000000 #000000 0 1;
#X obj 137 278 hsl 61 8 0 127 0 1 \$0-param-13-s \$0-param-13-r empty 133 7 0 10 #606060 #000000 #000000 0 1;
#X obj 204 278 hsl 61 8 0 127 0 1 \$0-param-21-s \$0-param-21-r empty 133 7 0 10 #7c7c7c #000000 #000000 0 1;
#X obj 137 309 hsl 61 8 0 127 0 1 \$0-param-14-s \$0-param-14-r empty 133 7 0 10 #606060 #000000 #000000 0 1;
#X obj 204 309 hsl 61 8 0 127 0 1 \$0-param-22-s \$0-param-22-r empty 133 7 0 10 #7c7c7c #000000 #000000 0 1;
#X obj 137 340 hsl 61 8 0 127 0 1 \$0-param-15-s \$0-param-15-r empty 133 7 0 10 #606060 #000000 #000000 0 1;
#X obj 204 340 hsl 61 8 0 127 0 1 \$0-param-23-s \$0-param-23-r empty 133 7 0 10 #7c7c7c #000000 #000000 0 1;
#X obj 137 355 hsl 128 15 0 127 0 1 \$0-param-8-s \$0-param-8-r BIT-RD 133 7 0 10 #fbc070 #000000 #000000 12700 1;
#X connect 0 0 196 0;
#X connect 1 0 11 0;
#X connect 3 0 4 0;
#X connect 4 0 5 0;
#X connect 5 0 1 1;
#X connect 28 0 27 0;
#X connect 29 0 30 0;
#X connect 30 0 31 0;
#X connect 31 0 28 0;
#X connect 45 0 29 0;
#X connect 46 0 51 0;
#X connect 47 0 48 0;
#X connect 48 0 49 0;
#X connect 49 0 46 0;
#X connect 50 0 47 0;
#X connect 52 0 57 0;
#X connect 53 0 54 0;
#X connect 54 0 55 0;
#X connect 55 0 52 0;
#X connect 56 0 53 0;
#X connect 58 0 63 0;
#X connect 59 0 60 0;
#X connect 60 0 61 0;
#X connect 61 0 58 0;
#X connect 62 0 59 0;
#X connect 64 0 81 0;
#X connect 65 0 66 0;
#X connect 66 0 67 0;
#X connect 67 0 64 0;
#X connect 68 0 83 0;
#X connect 69 0 70 0;
#X connect 70 0 71 0;
#X connect 71 0 68 0;
#X connect 72 0 85 0;
#X connect 73 0 74 0;
#X connect 74 0 75 0;
#X connect 75 0 72 0;
#X connect 76 0 87 0;
#X connect 77 0 78 0;
#X connect 78 0 79 0;
#X connect 79 0 76 0;
#X connect 80 0 65 0;
#X connect 82 0 69 0;
#X connect 84 0 73 0;
#X connect 86 0 77 0;
#X connect 93 0 32 0;
#X connect 93 1 33 0;
#X connect 93 2 34 0;
#X connect 93 3 35 0;
#X connect 93 4 36 0;
#X connect 93 5 37 0;
#X connect 93 6 38 0;
#X connect 93 7 39 0;
#X connect 98 0 131 0;
#X connect 99 0 100 0;
#X connect 100 0 101 0;
#X connect 101 0 98 0;
#X connect 102 0 135 0;
#X connect 103 0 104 0;
#X connect 104 0 105 0;
#X connect 105 0 102 0;
#X connect 106 0 137 0;
#X connect 107 0 108 0;
#X connect 108 0 109 0;
#X connect 109 0 106 0;
#X connect 110 0 139 0;
#X connect 111 0 112 0;
#X connect 112 0 113 0;
#X connect 113 0 110 0;
#X connect 114 0 133 0;
#X connect 115 0 116 0;
#X connect 116 0 117 0;
#X connect 117 0 114 0;
#X connect 118 0 183 0;
#X connect 119 0 120 0;
#X connect 120 0 121 0;
#X connect 121 0 118 0;
#X connect 122 0 185 0;
#X connect 123 0 124 0;
#X connect 124 0 125 0;
#X connect 125 0 122 0;
#X connect 126 0 187 0;
#X connect 127 0 128 0;
#X connect 128 0 129 0;
#X connect 129 0 126 0;
#X connect 130 0 99 0;
#X connect 132 0 115 0;
#X connect 134 0 103 0;
#X connect 136 0 107 0;
#X connect 138 0 111 0;
#X connect 140 0 157 0;
#X connect 141 0 142 0;
#X connect 142 0 143 0;
#X connect 143 0 140 0;
#X connect 144 0 159 0;
#X connect 145 0 146 0;
#X connect 146 0 147 0;
#X connect 147 0 144 0;
#X connect 148 0 161 0;
#X connect 149 0 150 0;
#X connect 150 0 151 0;
#X connect 151 0 148 0;
#X connect 152 0 163 0;
#X connect 153 0 154 0;
#X connect 154 0 155 0;
#X connect 155 0 152 0;
#X connect 156 0 141 0;
#X connect 158 0 145 0;
#X connect 160 0 149 0;
#X connect 162 0 153 0;
#X connect 166 0 189 0;
#X connect 167 0 168 0;
#X connect 168 0 169 0;
#X connect 169 0 166 0;
#X connect 170 0 191 0;
#X connect 171 0 172 0;
#X connect 172 0 173 0;
#X connect 173 0 170 0;
#X connect 174 0 193 0;
#X connect 175 0 176 0;
#X connect 176 0 177 0;
#X connect 177 0 174 0;
#X connect 178 0 195 0;
#X connect 179 0 180 0;
#X connect 180 0 181 0;
#X connect 181 0 178 0;
#X connect 182 0 119 0;
#X connect 184 0 123 0;
#X connect 186 0 127 0;
#X connect 188 0 167 0;
#X connect 190 0 171 0;
#X connect 192 0 175 0;
#X connect 194 0 179 0;
#X connect 196 0 11 0;
#X coords 0 -1 1 1 220 290 2 100 100;
