#N canvas 0 25 1060 678 10;
#X obj 368 84 inlet~;
#X obj 368 195 *~;
#X obj 367 621 outlet~;
#X obj 108 154 hsl 64 15 0 127 0 1 \$0-diet-mixer-channel1-1-s \$0-diet-mixer-channel1-1-r CH1 69 7 0 10 #fcfcfc #000000 #000000 6300 1;
#X obj 383 129 / 127;
#X obj 383 151 pack 0 50;
#X obj 383 173 line~;
#X obj 471 80 inlet~;
#X obj 471 191 *~;
#X obj 486 125 / 127;
#X obj 486 147 pack 0 50;
#X obj 486 169 line~;
#X obj 567 81 inlet~;
#X obj 567 192 *~;
#X obj 582 126 / 127;
#X obj 582 148 pack 0 50;
#X obj 582 170 line~;
#X obj 666 81 inlet~;
#X obj 666 192 *~;
#X obj 681 126 / 127;
#X obj 681 148 pack 0 50;
#X obj 681 170 line~;
#X obj 108 169 hsl 64 15 0 127 0 1 \$0-diet-mixer-channel2-s \$0-diet-mixer-channel2-r CH2 69 7 0 10 #fcfcfc #000000 #000000 5300 1;
#X obj 108 184 hsl 64 15 0 127 0 1 \$0-diet-mixer-channel3-s \$0-diet-mixer-channel3-r CH3 69 7 0 10 #fcfcfc #000000 #000000 5500 1;
#X obj 108 199 hsl 64 15 0 127 0 1 \$0-diet-mixer-channel4-s \$0-diet-mixer-channel4-r CH4 69 7 0 10 #fcfcfc #000000 #000000 5800 1;
#X obj 157 125 cnv 5 5 5 empty empty DIET-MIXER4 0 0 0 12 #fcfcfc #404040 0;
#X obj 246 253 cnv 5 5 5 empty empty UNITY 0 0 0 8 #fcfcfc #404040 0;
#X obj 240 111 cnv 5 5 5 empty empty CH4 0 0 0 8 #fcfcfc #404040 0;
#X obj 103 111 cnv 5 5 5 empty empty CH1 0 0 0 8 #fcfcfc #404040 0;
#X obj 143 111 cnv 5 5 5 empty empty CH2 0 0 0 8 #fcfcfc #404040 0;
#X obj 193 111 cnv 5 5 5 empty empty CH3 0 0 0 8 #fcfcfc #404040 0;
#N canvas 150 25 854 791 state-saving-multiple-instances 0;
#X obj 220 27 loadbang;
#X obj 376 480 textfile;
#X obj 220 60 t b b;
#X msg 653 463 rewind;
#X msg 610 463 bang;
#X obj 124 780 textfile;
#X obj 610 424 t b b;
#X obj 125 356 f;
#X obj 138 669 f;
#X obj 63 402 t b b b;
#X msg 201 669 clear;
#X obj 286 216 outlet;
#X text 282 236 INSTANCE NUMBER;
#X obj 247 151 f \$1;
#X obj 247 187 t f f f;
#X obj 63 377 bng 15 250 50 0 empty empty empty 17 7 0 10 #fcfcfc #000000 #000000;
#X obj 63 273 r SAVE-S;
#X msg 137 740 write statesave/\$1-diet-mixer4-ss.txt;
#X msg 376 455 read statesave/\$1-diet-mixer4-ss.txt;
#X msg 125 527 set \$1 \$2 \$3 \$4 \$5 \$6 \$7 \$8 \$9;
#X obj 125 489 pack f f f f f f f f f, f 32;
#X obj 286 423 r \$0-diet-mixer-side-decay-s;
#X obj 376 502 unpack f f f f f f f f f, f 37;
#X obj 597 577 s \$0-diet-mixer-side-decay-r;
#X obj 140 248 r \$0-diet-mixer-channel1-s;
#X obj 148 272 r \$0-diet-mixer-channel2-s;
#X obj 171 292 r \$0-diet-mixer-channel3-s;
#X obj 194 313 r \$0-diet-mixer-channel4-s;
#X obj 210 338 r \$0-diet-mixer-channel1-1-s;
#X obj 218 362 r \$0-diet-mixer-channel2-2-s;
#X obj 241 382 r \$0-diet-mixer-channel3-3-s;
#X obj 264 403 r \$0-diet-mixer-channel4-4-s;
#X obj 376 766 s \$0-diet-mixer-channel1-r;
#X obj 403 743 s \$0-diet-mixer-channel2-r;
#X obj 430 717 s \$0-diet-mixer-channel3-r;
#X obj 457 697 s \$0-diet-mixer-channel4-r;
#X obj 476 676 s \$0-diet-mixer-channel1-1-r;
#X obj 503 653 s \$0-diet-mixer-channel2-2-r;
#X obj 530 627 s \$0-diet-mixer-channel3-3-r;
#X obj 557 607 s \$0-diet-mixer-channel4-4-r;
#X obj 139 31 bng 16 250 50 0 empty empty empty 0 -8 0 10 #fcfcfc #000000 #000000;
#X connect 0 0 2 0;
#X connect 1 0 22 0;
#X connect 2 0 6 0;
#X connect 2 1 13 0;
#X connect 3 0 1 0;
#X connect 4 0 1 0;
#X connect 6 0 4 0;
#X connect 6 1 3 0;
#X connect 7 0 20 0;
#X connect 8 0 17 0;
#X connect 9 0 8 0;
#X connect 9 1 7 0;
#X connect 9 2 10 0;
#X connect 10 0 5 0;
#X connect 13 0 14 0;
#X connect 14 0 8 1;
#X connect 14 1 18 0;
#X connect 14 2 11 0;
#X connect 15 0 9 0;
#X connect 16 0 15 0;
#X connect 17 0 5 0;
#X connect 18 0 1 0;
#X connect 19 0 5 0;
#X connect 20 0 19 0;
#X connect 21 0 20 8;
#X connect 22 0 32 0;
#X connect 22 1 33 0;
#X connect 22 2 34 0;
#X connect 22 3 35 0;
#X connect 22 4 36 0;
#X connect 22 5 37 0;
#X connect 22 6 38 0;
#X connect 22 7 39 0;
#X connect 22 8 23 0;
#X connect 24 0 7 1;
#X connect 25 0 20 1;
#X connect 26 0 20 2;
#X connect 27 0 20 3;
#X connect 28 0 20 4;
#X connect 29 0 20 5;
#X connect 30 0 20 6;
#X connect 31 0 20 7;
#X connect 40 0 2 0;
#X restore 29 473 pd state-saving-multiple-instances;
#X obj 29 545 s \$0-instance-num;
#X obj 29 497 makefilename %d;
#X obj 237 125 cnv 5 5 5 empty \$0-instance-num 1 0 0 0 12 #fcfcfc #404040 0;
#X msg 29 522 label \$1;
#X obj 644 613 outlet~ UNITY;
#X obj 103 253 cnv 5 5 5 empty empty OUT 0 0 0 8 #fcfcfc #404040 0;
#N canvas 632 64 749 752 external-messages 0;
#X floatatom 186 706 5 0 0 0 - - - 0;
#X obj 185 328 spigot;
#X obj 218 288 tgl 15 0 empty empty empty 17 7 0 10 #fcfcfc #000000 #000000 0 1;
#X obj 254 272 ==;
#X obj 269 248 f \$1;
#X obj 269 224 loadbang;
#X msg 185 202 \$1 \$2;
#X msg 185 156 symbol \$1;
#X obj 185 180 pack s f;
#X obj 186 685 f;
#X obj 186 633 t b f;
#X obj 186 656 spigot;
#X obj 185 62 unpack s f f;
#X symbolatom 185 94 10 0 0 0 - - - 0;
#X obj 218 308 t f f;
#X obj 245 332 s \$0-msg-spigot;
#X obj 234 640 r \$0-msg-spigot;
#X floatatom 223 594 5 0 0 0 - - - 0;
#X obj 223 573 f;
#X obj 223 521 t b f;
#X obj 223 544 spigot;
#X obj 271 528 r \$0-msg-spigot;
#X floatatom 387 639 5 0 0 0 - - - 0;
#X obj 387 618 f;
#X obj 387 566 t b f;
#X obj 387 589 spigot;
#X obj 435 573 r \$0-msg-spigot;
#X floatatom 424 527 5 0 0 0 - - - 0;
#X obj 424 506 f;
#X obj 424 454 t b f;
#X obj 424 477 spigot;
#X obj 472 461 r \$0-msg-spigot;
#X obj 185 14 r mixer4;
#X obj 185 380 route CH1 CH2 CH3 CH4;
#X obj 186 726 s \$0-mixer-channel1-r;
#X obj 223 614 s \$0-mixer-channel2-r;
#X obj 387 659 s \$0-mixer-channel3-r;
#X obj 424 547 s \$0-mixer-channel4-r;
#X connect 0 0 34 0;
#X connect 1 0 33 0;
#X connect 2 0 14 0;
#X connect 3 0 2 0;
#X connect 4 0 3 1;
#X connect 5 0 4 0;
#X connect 6 0 1 0;
#X connect 7 0 8 0;
#X connect 8 0 6 0;
#X connect 9 0 0 0;
#X connect 10 0 11 0;
#X connect 10 1 9 1;
#X connect 11 0 9 0;
#X connect 12 0 13 0;
#X connect 12 1 8 1;
#X connect 12 2 3 0;
#X connect 13 0 7 0;
#X connect 14 0 1 1;
#X connect 14 1 15 0;
#X connect 16 0 11 1;
#X connect 17 0 35 0;
#X connect 18 0 17 0;
#X connect 19 0 20 0;
#X connect 19 1 18 1;
#X connect 20 0 18 0;
#X connect 21 0 20 1;
#X connect 22 0 36 0;
#X connect 23 0 22 0;
#X connect 24 0 25 0;
#X connect 24 1 23 1;
#X connect 25 0 23 0;
#X connect 26 0 25 1;
#X connect 27 0 37 0;
#X connect 28 0 27 0;
#X connect 29 0 30 0;
#X connect 29 1 28 1;
#X connect 30 0 28 0;
#X connect 31 0 30 1;
#X connect 32 0 12 0;
#X connect 33 0 10 0;
#X connect 33 1 19 0;
#X connect 33 2 24 0;
#X connect 33 3 29 0;
#X restore 29 452 pd external-messages;
#X obj 207 154 hsl 64 15 0 127 0 1 \$0-diet-mixer-channel1-s \$0-diet-mixer-channel1-r CH1 69 7 0 10 #fcfcfc #000000 #000000 400 1;
#X obj 207 169 hsl 64 15 0 127 0 1 \$0-diet-mixer-channel2-2-s \$0-diet-mixer-channel2-2-r CH2 69 7 0 10 #fcfcfc #000000 #000000 1100 1;
#X obj 207 184 hsl 64 15 0 127 0 1 \$0-diet-mixer-channel3-3-s \$0-diet-mixer-channel3-3-r CH3 69 7 0 10 #fcfcfc #000000 #000000 500 1;
#X obj 207 199 hsl 64 15 0 127 0 1 \$0-diet-mixer-channel4-4-s \$0-diet-mixer-channel4-4-r CH4 69 7 0 10 #fcfcfc #000000 #000000 2800 1;
#X obj 278 111 cnv 5 5 5 empty empty SIDE 0 0 0 8 #fcfcfc #dc4c90 0;
#X obj 766 81 inlet~;
#X obj 388 276 * 1999;
#X obj 388 298 - 18.99;
#X obj 382 347 f;
#X obj 388 320 moses 1;
#X obj 382 426 vline~;
#X obj 382 448 *~;
#X obj 382 470 *~;
#X text 805 141 DECAY-INLET;
#X obj 766 128 t b b;
#X obj 766 106 threshold~ 0.99 0 1 0;
#X obj 108 224 hsl 64 15 0 127 0 1 \$0-diet-mixer-side-decay-s \$0-diet-mixer-side-decay-r SIDE-DECAY 69 7 0 10 #fcfcfc #000000 #000000 3000 1;
#X obj 388 242 / 527;
#X obj 367 496 *~;
#X msg 114 286 127 \$1;
#X obj 114 306 -;
#X obj 114 326 / 127;
#X floatatom 114 347 5 0 0 0 - - - 0;
#X obj 382 368 pack f f;
#X msg 382 402 \$1 1 \, 1 \$2 1;
#X obj 367 600 *~ 0.25;
#X obj 107 145 cnv 5 5 5 empty empty VOLUME: 0 0 0 10 #fcfcfc #404040 0;
#X obj 204 145 cnv 5 5 5 empty empty SIDE-AMOUNT: 0 0 0 10 #fcfcfc #404040 0;
#X msg 164 286 127 \$1;
#X obj 164 306 -;
#X obj 164 326 / 127;
#X floatatom 164 347 5 0 0 0 - - - 0;
#X msg 214 286 127 \$1;
#X obj 214 306 -;
#X obj 214 326 / 127;
#X floatatom 214 347 5 0 0 0 - - - 0;
#X msg 264 286 127 \$1;
#X obj 264 306 -;
#X obj 264 326 / 127;
#X floatatom 264 347 5 0 0 0 - - - 0;
#X obj 488 276 * 1999;
#X obj 488 298 - 18.99;
#X obj 482 347 f;
#X obj 488 320 moses 1;
#X obj 482 426 vline~;
#X obj 482 448 *~;
#X obj 482 470 *~;
#X obj 488 242 / 527;
#X obj 467 496 *~;
#X obj 482 368 pack f f;
#X msg 482 402 \$1 1 \, 1 \$2 1;
#X obj 588 276 * 1999;
#X obj 588 298 - 18.99;
#X obj 582 347 f;
#X obj 588 320 moses 1;
#X obj 582 426 vline~;
#X obj 582 448 *~;
#X obj 582 470 *~;
#X obj 588 242 / 527;
#X obj 567 496 *~;
#X obj 582 368 pack f f;
#X msg 582 402 \$1 1 \, 1 \$2 1;
#X obj 688 276 * 1999;
#X obj 688 298 - 18.99;
#X obj 682 347 f;
#X obj 688 320 moses 1;
#X obj 682 426 vline~;
#X obj 682 448 *~;
#X obj 682 470 *~;
#X obj 688 242 / 527;
#X obj 667 496 *~;
#X obj 682 368 pack f f;
#X msg 682 402 \$1 1 \, 1 \$2 1;
#X connect 0 0 1 0;
#X connect 1 0 57 0;
#X connect 3 0 4 0;
#X connect 4 0 5 0;
#X connect 5 0 6 0;
#X connect 6 0 1 1;
#X connect 7 0 8 0;
#X connect 8 0 87 0;
#X connect 9 0 10 0;
#X connect 10 0 11 0;
#X connect 11 0 8 1;
#X connect 12 0 13 0;
#X connect 13 0 98 0;
#X connect 14 0 15 0;
#X connect 15 0 16 0;
#X connect 16 0 13 1;
#X connect 17 0 18 0;
#X connect 18 0 109 0;
#X connect 19 0 20 0;
#X connect 20 0 21 0;
#X connect 21 0 18 1;
#X connect 22 0 9 0;
#X connect 23 0 14 0;
#X connect 24 0 19 0;
#X connect 31 0 33 0;
#X connect 33 0 35 0;
#X connect 35 0 32 0;
#X connect 39 0 58 0;
#X connect 40 0 67 0;
#X connect 41 0 71 0;
#X connect 42 0 75 0;
#X connect 44 0 54 0;
#X connect 45 0 46 0;
#X connect 46 0 48 0;
#X connect 47 0 62 0;
#X connect 48 1 62 1;
#X connect 49 0 50 0;
#X connect 49 0 50 1;
#X connect 50 0 51 0;
#X connect 50 0 51 1;
#X connect 51 0 57 1;
#X connect 53 0 47 0;
#X connect 53 0 81 0;
#X connect 53 0 92 0;
#X connect 53 0 103 0;
#X connect 54 0 53 0;
#X connect 55 0 56 0;
#X connect 55 0 86 0;
#X connect 55 0 97 0;
#X connect 55 0 108 0;
#X connect 56 0 45 0;
#X connect 57 0 64 0;
#X connect 57 0 36 0;
#X connect 58 0 59 0;
#X connect 59 0 60 0;
#X connect 60 0 61 0;
#X connect 61 0 47 1;
#X connect 62 0 63 0;
#X connect 63 0 49 0;
#X connect 64 0 2 0;
#X connect 67 0 68 0;
#X connect 68 0 69 0;
#X connect 69 0 70 0;
#X connect 70 0 81 1;
#X connect 71 0 72 0;
#X connect 72 0 73 0;
#X connect 73 0 74 0;
#X connect 74 0 92 1;
#X connect 75 0 76 0;
#X connect 76 0 77 0;
#X connect 77 0 78 0;
#X connect 78 0 103 1;
#X connect 79 0 80 0;
#X connect 80 0 82 0;
#X connect 81 0 88 0;
#X connect 82 1 88 1;
#X connect 83 0 84 0;
#X connect 83 0 84 1;
#X connect 84 0 85 0;
#X connect 84 0 85 1;
#X connect 85 0 87 1;
#X connect 86 0 79 0;
#X connect 87 0 64 0;
#X connect 87 0 36 0;
#X connect 88 0 89 0;
#X connect 89 0 83 0;
#X connect 90 0 91 0;
#X connect 91 0 93 0;
#X connect 92 0 99 0;
#X connect 93 1 99 1;
#X connect 94 0 95 0;
#X connect 94 0 95 1;
#X connect 95 0 96 0;
#X connect 95 0 96 1;
#X connect 96 0 98 1;
#X connect 97 0 90 0;
#X connect 98 0 64 0;
#X connect 98 0 36 0;
#X connect 99 0 100 0;
#X connect 100 0 94 0;
#X connect 101 0 102 0;
#X connect 102 0 104 0;
#X connect 103 0 110 0;
#X connect 104 1 110 1;
#X connect 105 0 106 0;
#X connect 105 0 106 1;
#X connect 106 0 107 0;
#X connect 106 0 107 1;
#X connect 107 0 109 1;
#X connect 108 0 101 0;
#X connect 109 0 64 0;
#X connect 109 0 36 0;
#X connect 110 0 111 0;
#X connect 111 0 105 0;
#X coords 0 -1 1 1 200 160 2 100 100;
