#N canvas 9 25 1431 791 10;
#X obj 153 133 cnv 5 5 5 empty empty THE-CHORD-CREATOR 0 0 0 12 #fcfcfc #404040 0;
#X obj 103 373 cnv 5 5 5 empty empty MIDI-OUT:CHORDS 0 0 0 8 #fcfcfc #404040 0;
#X obj 102 106 cnv 5 5 5 empty empty CV-IN 0 0 0 8 #fcfcfc #404040 0;
#N canvas 21 25 593 735 state-saving-multiple-instances 0;
#X obj 215 28 loadbang;
#X obj 261 480 textfile;
#X msg 556 463 rewind;
#X msg 513 463 bang;
#X obj 119 690 textfile;
#X obj 513 424 t b b;
#X obj 120 356 f;
#X obj 133 579 f;
#X obj 66 422 t b b b;
#X msg 196 579 clear;
#X obj 281 216 outlet;
#X text 277 236 INSTANCE NUMBER;
#X obj 242 92 f \$1;
#X obj 242 128 t f f f;
#X obj 215 61 t b b;
#X obj 66 331 bng 15 250 50 0 empty empty empty 17 7 0 10 #fcfcfc #000000 #000000;
#X obj 66 235 r SAVE-S;
#X msg 120 438 set \$1;
#X obj 120 399 pack f;
#X obj 261 502 unpack f;
#X obj 135 307 r \$0-quantizer-scale-s;
#X obj 261 604 s \$0-quantizer-scale-r;
#X msg 132 648 write statesave/\$1-quantizer-ss.txt;
#X msg 262 455 read statesave/\$1-quantizer-ss.txt;
#X connect 0 0 14 0;
#X connect 1 0 19 0;
#X connect 2 0 1 0;
#X connect 3 0 1 0;
#X connect 5 0 3 0;
#X connect 5 1 2 0;
#X connect 6 0 18 0;
#X connect 7 0 22 0;
#X connect 8 0 7 0;
#X connect 8 1 6 0;
#X connect 8 2 9 0;
#X connect 9 0 4 0;
#X connect 12 0 13 0;
#X connect 13 0 7 1;
#X connect 13 1 23 0;
#X connect 13 2 10 0;
#X connect 14 0 5 0;
#X connect 14 1 12 0;
#X connect 15 0 8 0;
#X connect 16 0 15 0;
#X connect 17 0 4 0;
#X connect 18 0 17 0;
#X connect 19 0 21 0;
#X connect 20 0 6 1;
#X connect 22 0 4 0;
#X connect 23 0 1 0;
#X restore -246 60 pd state-saving-multiple-instances;
#X obj -246 124 s \$0-instance-num;
#X obj -246 81 makefilename %d;
#X obj 275 133 cnv 5 5 5 empty \$0-instance-num 17 0 0 0 12 #fcfcfc #404040 0;
#X msg -246 101 label \$1;
#N canvas 81 22 1117 745 state-saving-via-preset-manager-module 0;
#X obj 477 349 textfile;
#X msg 755 332 rewind;
#X msg 712 332 bang;
#X obj 243 690 textfile;
#X obj 712 293 t b b;
#X obj 244 356 f;
#X obj 257 579 f;
#X obj 190 422 t b b b;
#X msg 320 579 clear;
#X obj 244 264 delay 5;
#X obj 190 484 delay 10;
#X msg 190 314 bang;
#X obj 190 147 r STORE-S!;
#X obj 477 250 f;
#X obj 450 207 t b b;
#X obj 465 171 t b f;
#X obj 522 268 f \$1;
#X obj 477 295 pack f f;
#X obj 522 218 loadbang;
#X obj 257 609 pack f f;
#X obj 302 467 loadbang;
#X obj 302 489 f \$1;
#X obj 465 148 r preset-manager-scan;
#X obj 279 148 r preset-manager-store-slot;
#X msg 244 438 set \$1;
#X msg 256 650 write statesave/\$1-\$2-quantizer-ss.txt;
#X msg 477 324 read statesave/\$1-\$2-quantizer-ss.txt;
#X obj 259 308 r \$0-quantizer-scale-s;
#X obj 476 615 s \$0-quantizer-scale-r;
#N canvas 0 22 1069 747 morph-parameters 0;
#X obj 176 94 inlet;
#X obj 176 236 pack f f;
#X obj 176 261 line;
#X obj 209 117 r preset-manager-morph-s;
#X msg 72 244 stop;
#X obj 72 214 r STOP-MORPH!;
#X obj 209 206 spigot;
#X obj 398 137 t f f;
#X obj 455 154 == 0;
#X obj 221 176 f;
#X floatatom 455 222 5 0 0 0 - - - 0;
#X obj 398 159 t b f;
#X floatatom 425 192 5 0 0 0 - - - 0;
#X obj 209 139 t f f;
#X obj 398 102 r parameters-s;
#X obj 176 288 outlet;
#X connect 0 0 1 0;
#X connect 1 0 2 0;
#X connect 2 0 15 0;
#X connect 3 0 13 0;
#X connect 4 0 2 0;
#X connect 5 0 4 0;
#X connect 6 0 1 1;
#X connect 7 0 11 0;
#X connect 7 1 8 0;
#X connect 8 0 10 0;
#X connect 9 0 6 0;
#X connect 10 0 1 1;
#X connect 11 0 9 0;
#X connect 11 1 12 0;
#X connect 12 0 6 1;
#X connect 13 0 6 0;
#X connect 13 1 9 1;
#X connect 14 0 7 0;
#X restore 476 590 pd morph-parameters;
#X connect 0 0 29 0;
#X connect 1 0 0 0;
#X connect 2 0 0 0;
#X connect 4 0 2 0;
#X connect 4 1 1 0;
#X connect 5 0 24 0;
#X connect 6 0 19 0;
#X connect 7 0 10 0;
#X connect 7 1 9 0;
#X connect 7 2 8 0;
#X connect 8 0 3 0;
#X connect 9 0 5 0;
#X connect 10 0 6 0;
#X connect 11 0 7 0;
#X connect 12 0 11 0;
#X connect 13 0 17 0;
#X connect 14 0 4 0;
#X connect 14 1 13 0;
#X connect 15 0 14 0;
#X connect 15 1 13 1;
#X connect 16 0 17 1;
#X connect 17 0 26 0;
#X connect 18 0 16 0;
#X connect 19 0 25 0;
#X connect 20 0 21 0;
#X connect 21 0 19 1;
#X connect 22 0 15 0;
#X connect 23 0 6 1;
#X connect 24 0 3 0;
#X connect 25 0 3 0;
#X connect 26 0 0 0;
#X connect 27 0 5 1;
#X connect 29 0 28 0;
#X restore -246 38 pd state-saving-via-preset-manager-module;
#N canvas 297 27 748 331 parameter-nudging-system 0;
#X obj 23 67 clip 0 127;
#X obj 23 22 r \$0-quantizer-scale-s;
#X obj 23 95 s \$0-quantizer-scale-r;
#N canvas 0 22 484 497 nudge-parameters 0;
#X obj 124 234 random;
#X obj 232 335 f;
#X obj 232 368 +;
#X obj 257 166 random 2;
#X obj 124 275 t f f;
#X obj 124 351 t b f;
#X obj 124 297 *;
#X obj 257 188 sel 0 1;
#X msg 257 280 -1;
#X msg 335 280 1;
#X obj 124 149 t b b b;
#X obj 124 74 r NUDGE!;
#X obj 157 193 r NUDGE-RANGE;
#X obj 247 308 inlet;
#X obj 232 397 outlet;
#X obj 124 96 spigot;
#X obj 185 79 r parameters2-s;
#X connect 0 0 4 0;
#X connect 1 0 2 0;
#X connect 2 0 14 0;
#X connect 3 0 7 0;
#X connect 4 0 6 0;
#X connect 5 0 2 0;
#X connect 5 1 2 1;
#X connect 6 0 5 0;
#X connect 7 0 8 0;
#X connect 7 1 9 0;
#X connect 8 0 6 1;
#X connect 9 0 6 1;
#X connect 10 0 0 0;
#X connect 10 1 1 0;
#X connect 10 2 3 0;
#X connect 11 0 15 0;
#X connect 12 0 0 1;
#X connect 13 0 1 1;
#X connect 15 0 10 0;
#X connect 16 0 15 1;
#X restore 23 45 pd nudge-parameters;
#X connect 0 0 2 0;
#X connect 1 0 3 0;
#X connect 3 0 0 0;
#X restore -246 13 pd parameter-nudging-system;
#N canvas 632 73 749 752 external-messages 0;
#X floatatom 186 706 5 0 0 0 - - - 0;
#X obj 185 328 spigot;
#X obj 218 288 tgl 15 0 empty empty empty 17 7 0 10 #fcfcfc #000000 #000000 0 1;
#X obj 254 272 ==;
#X obj 269 248 f \$1;
#X obj 269 224 loadbang;
#X msg 185 202 \$1 \$2;
#X msg 185 156 symbol \$1;
#X obj 185 180 pack s f;
#X obj 186 685 f;
#X obj 186 633 t b f;
#X obj 186 656 spigot;
#X obj 185 62 unpack s f f;
#X symbolatom 185 94 10 0 0 0 - - - 0;
#X obj 218 308 t f f;
#X obj 245 332 s \$0-msg-spigot;
#X obj 234 640 r \$0-msg-spigot;
#X obj 185 14 r quantizer;
#X obj 185 380 route SCALE;
#X obj 186 726 s \$0-quantizer-scale-r;
#X connect 0 0 19 0;
#X connect 1 0 18 0;
#X connect 2 0 14 0;
#X connect 3 0 2 0;
#X connect 4 0 3 1;
#X connect 5 0 4 0;
#X connect 6 0 1 0;
#X connect 7 0 8 0;
#X connect 8 0 6 0;
#X connect 9 0 0 0;
#X connect 10 0 11 0;
#X connect 10 1 9 1;
#X connect 11 0 9 0;
#X connect 12 0 13 0;
#X connect 12 1 8 1;
#X connect 12 2 3 0;
#X connect 13 0 7 0;
#X connect 14 0 1 1;
#X connect 14 1 15 0;
#X connect 16 0 11 1;
#X connect 17 0 12 0;
#X connect 18 0 10 0;
#X restore -245 -14 pd external-messages;
#X obj 651 807 outlet;
#X obj 262 253 tgl 15 0 \$0-root-note-bass-s \$0-root-note-bass-r empty 0 -8 0 10 #fcfcfc #000000 #000000 0 1;
#X obj 281 261 cnv 5 5 5 empty empty BASS 0 0 0 8 #fcfcfc #000000 0;
#N canvas 0 25 1440 791 chords 0;
#X text 974 38 Minor7;
#X text 286 36 minor;
#N canvas 179 204 450 300 single-note-through 0;
#X obj 26 45 inlet;
#X obj 26 198 outlet;
#X obj 90 21 r \$0-scale-info-s;
#X obj 241 177 - 12;
#X obj 241 123 spigot;
#X text 283 123 BASS-NOTE: 0-1 (OFF/ON) \;;
#X obj 241 199 outlet;
#X obj 72 198 outlet;
#X obj 116 198 outlet;
#X obj 160 198 outlet;
#X obj 26 142 t f b;
#X msg 72 166 0;
#X obj 90 40 unpack f f f;
#X obj 90 59 sel 0;
#X obj 26 93 spigot;
#X msg 87 80 1;
#X msg 114 80 0;
#X connect 0 0 14 0;
#X connect 2 0 12 0;
#X connect 3 0 6 0;
#X connect 4 0 3 0;
#X connect 10 0 1 0;
#X connect 10 1 11 0;
#X connect 11 0 7 0;
#X connect 11 0 8 0;
#X connect 11 0 9 0;
#X connect 12 0 13 0;
#X connect 12 2 4 1;
#X connect 13 0 15 0;
#X connect 13 1 16 0;
#X connect 14 0 10 0;
#X connect 14 0 4 0;
#X connect 15 0 14 1;
#X connect 16 0 14 1;
#X restore 35 76 pd single-note-through;
#X floatatom 35 95 5 0 0 0 - - - 0;
#X obj 164 112 s \$0-BASS-NOTE;
#X obj 35 112 s \$0-voice1;
#X floatatom 164 94 5 0 0 0 - - - 0;
#X obj 35 56 r \$0-pitch-for-chords;
#X floatatom 67 133 5 0 0 0 - - - 0;
#X obj 67 150 s \$0-voice2;
#X floatatom 99 112 5 0 0 0 - - - 0;
#X obj 99 132 s \$0-voice3;
#X floatatom 132 168 5 0 0 0 - - - 0;
#X obj 132 185 s \$0-voice4;
#X text 35 36 no chord-note-through;
#X floatatom 285 95 5 0 0 0 - - - 0;
#X obj 414 112 s \$0-BASS-NOTE;
#X obj 285 112 s \$0-voice1;
#X floatatom 414 94 5 0 0 0 - - - 0;
#X obj 285 56 r \$0-pitch-for-chords;
#X floatatom 317 133 5 0 0 0 - - - 0;
#X obj 317 150 s \$0-voice2;
#X floatatom 349 112 5 0 0 0 - - - 0;
#X obj 349 132 s \$0-voice3;
#X floatatom 382 168 5 0 0 0 - - - 0;
#X obj 382 185 s \$0-voice4;
#X floatatom 975 95 5 0 0 0 - - - 0;
#X obj 1104 112 s \$0-BASS-NOTE;
#X obj 975 112 s \$0-voice1;
#X floatatom 1104 94 5 0 0 0 - - - 0;
#X obj 975 56 r \$0-pitch-for-chords;
#X floatatom 1007 133 5 0 0 0 - - - 0;
#X obj 1007 150 s \$0-voice2;
#X floatatom 1039 112 5 0 0 0 - - - 0;
#X obj 1039 132 s \$0-voice3;
#X floatatom 1072 168 5 0 0 0 - - - 0;
#X obj 1072 185 s \$0-voice4;
#N canvas 179 204 519 299 minor7------------- 0;
#X obj 26 2 inlet;
#X obj 26 198 outlet;
#X obj 90 1 r \$0-scale-info-s;
#X obj 241 177 - 12;
#X obj 241 123 spigot;
#X text 283 123 BASS-NOTE: 0-1 (OFF/ON) \;;
#X obj 241 199 outlet;
#X obj 72 198 outlet;
#X obj 116 198 outlet;
#X obj 160 198 outlet;
#X obj 26 142 t f b;
#X obj 90 20 unpack f f f;
#X obj 26 93 spigot;
#X msg 87 60 1;
#X msg 114 60 0;
#X obj 72 177 + 3;
#X obj 116 177 + 7;
#X obj 160 176 + 10;
#X obj 90 39 sel 4;
#X connect 0 0 12 0;
#X connect 2 0 11 0;
#X connect 3 0 6 0;
#X connect 4 0 3 0;
#X connect 10 0 1 0;
#X connect 10 0 15 0;
#X connect 10 0 16 0;
#X connect 10 0 17 0;
#X connect 11 0 18 0;
#X connect 11 2 4 1;
#X connect 12 0 10 0;
#X connect 12 0 4 0;
#X connect 13 0 12 1;
#X connect 14 0 12 1;
#X connect 15 0 7 0;
#X connect 16 0 8 0;
#X connect 17 0 9 0;
#X connect 18 0 13 0;
#X connect 18 1 14 0;
#X restore 975 76 pd minor7-------------;
#N canvas 179 204 519 299 minor-------------- 0;
#X obj 26 2 inlet;
#X obj 26 198 outlet;
#X obj 90 1 r \$0-scale-info-s;
#X obj 241 177 - 12;
#X obj 241 123 spigot;
#X text 283 123 BASS-NOTE: 0-1 (OFF/ON) \;;
#X obj 241 199 outlet;
#X obj 72 198 outlet;
#X obj 116 198 outlet;
#X obj 160 198 outlet;
#X obj 26 142 t f b;
#X msg 160 174 0;
#X obj 90 20 unpack f f f;
#X obj 26 93 spigot;
#X msg 87 60 1;
#X msg 114 60 0;
#X obj 90 39 sel 1;
#X obj 72 176 + 3;
#X obj 116 176 + 7;
#X connect 0 0 13 0;
#X connect 2 0 12 0;
#X connect 3 0 6 0;
#X connect 4 0 3 0;
#X connect 10 0 1 0;
#X connect 10 0 17 0;
#X connect 10 0 18 0;
#X connect 10 1 11 0;
#X connect 11 0 9 0;
#X connect 12 0 16 0;
#X connect 12 2 4 1;
#X connect 13 0 10 0;
#X connect 13 0 4 0;
#X connect 14 0 13 1;
#X connect 15 0 13 1;
#X connect 16 0 14 0;
#X connect 16 1 15 0;
#X connect 17 0 7 0;
#X connect 18 0 8 0;
#X restore 285 76 pd minor--------------;
#X floatatom 285 335 5 0 0 0 - - - 0;
#X obj 414 352 s \$0-BASS-NOTE;
#X obj 285 352 s \$0-voice1;
#X floatatom 414 334 5 0 0 0 - - - 0;
#X obj 285 296 r \$0-pitch-for-chords;
#X floatatom 317 373 5 0 0 0 - - - 0;
#X obj 317 390 s \$0-voice2;
#X floatatom 349 352 5 0 0 0 - - - 0;
#X obj 349 372 s \$0-voice3;
#X floatatom 382 408 5 0 0 0 - - - 0;
#X obj 382 425 s \$0-voice4;
#X text 286 276 major;
#N canvas 179 204 519 299 major-------------- 0;
#X obj 26 2 inlet;
#X obj 26 198 outlet;
#X obj 90 1 r \$0-scale-info-s;
#X obj 241 177 - 12;
#X obj 241 123 spigot;
#X text 283 123 BASS-NOTE: 0-1 (OFF/ON) \;;
#X obj 241 199 outlet;
#X obj 72 198 outlet;
#X obj 116 198 outlet;
#X obj 160 198 outlet;
#X obj 26 142 t f b;
#X msg 160 174 0;
#X obj 90 20 unpack f f f;
#X obj 26 93 spigot;
#X msg 87 60 1;
#X msg 114 60 0;
#X obj 116 176 + 7;
#X obj 72 176 + 4;
#X obj 90 39 sel 6;
#X connect 0 0 13 0;
#X connect 2 0 12 0;
#X connect 3 0 6 0;
#X connect 4 0 3 0;
#X connect 10 0 1 0;
#X connect 10 0 16 0;
#X connect 10 0 17 0;
#X connect 10 1 11 0;
#X connect 11 0 9 0;
#X connect 12 0 18 0;
#X connect 12 2 4 1;
#X connect 13 0 10 0;
#X connect 13 0 4 0;
#X connect 14 0 13 1;
#X connect 15 0 13 1;
#X connect 16 0 8 0;
#X connect 17 0 7 0;
#X connect 18 0 14 0;
#X connect 18 1 15 0;
#X restore 285 316 pd major--------------;
#X floatatom 515 95 5 0 0 0 - - - 0;
#X obj 644 112 s \$0-BASS-NOTE;
#X obj 515 112 s \$0-voice1;
#X floatatom 644 94 5 0 0 0 - - - 0;
#X obj 515 56 r \$0-pitch-for-chords;
#X floatatom 547 133 5 0 0 0 - - - 0;
#X obj 547 150 s \$0-voice2;
#X floatatom 579 112 5 0 0 0 - - - 0;
#X obj 579 132 s \$0-voice3;
#X floatatom 612 168 5 0 0 0 - - - 0;
#X obj 612 185 s \$0-voice4;
#X text 514 38 Minor6;
#N canvas 179 204 519 299 minor6------------- 0;
#X obj 26 2 inlet;
#X obj 26 198 outlet;
#X obj 90 1 r \$0-scale-info-s;
#X obj 241 177 - 12;
#X obj 241 123 spigot;
#X text 283 123 BASS-NOTE: 0-1 (OFF/ON) \;;
#X obj 241 199 outlet;
#X obj 72 198 outlet;
#X obj 116 198 outlet;
#X obj 160 198 outlet;
#X obj 26 142 t f b;
#X obj 90 20 unpack f f f;
#X obj 26 93 spigot;
#X msg 87 60 1;
#X msg 114 60 0;
#X obj 72 177 + 3;
#X obj 116 177 + 7;
#X obj 90 39 sel 2;
#X obj 160 176 + 9;
#X connect 0 0 12 0;
#X connect 2 0 11 0;
#X connect 3 0 6 0;
#X connect 4 0 3 0;
#X connect 10 0 1 0;
#X connect 10 0 15 0;
#X connect 10 0 16 0;
#X connect 10 0 18 0;
#X connect 11 0 17 0;
#X connect 11 2 4 1;
#X connect 12 0 10 0;
#X connect 12 0 4 0;
#X connect 13 0 12 1;
#X connect 14 0 12 1;
#X connect 15 0 7 0;
#X connect 16 0 8 0;
#X connect 17 0 13 0;
#X connect 17 1 14 0;
#X connect 18 0 9 0;
#X restore 515 76 pd minor6-------------;
#X floatatom 745 95 5 0 0 0 - - - 0;
#X obj 874 112 s \$0-BASS-NOTE;
#X obj 745 112 s \$0-voice1;
#X floatatom 874 94 5 0 0 0 - - - 0;
#X obj 745 56 r \$0-pitch-for-chords;
#X floatatom 777 133 5 0 0 0 - - - 0;
#X obj 777 150 s \$0-voice2;
#X floatatom 809 112 5 0 0 0 - - - 0;
#X obj 809 132 s \$0-voice3;
#X floatatom 842 168 5 0 0 0 - - - 0;
#X obj 842 185 s \$0-voice4;
#X text 744 38 Dim7;
#N canvas 179 204 519 299 dim7--------------- 0;
#X obj 26 2 inlet;
#X obj 26 198 outlet;
#X obj 90 1 r \$0-scale-info-s;
#X obj 241 177 - 12;
#X obj 241 123 spigot;
#X text 283 123 BASS-NOTE: 0-1 (OFF/ON) \;;
#X obj 241 199 outlet;
#X obj 72 198 outlet;
#X obj 116 198 outlet;
#X obj 160 198 outlet;
#X obj 26 142 t f b;
#X obj 90 20 unpack f f f;
#X obj 26 93 spigot;
#X msg 87 60 1;
#X msg 114 60 0;
#X obj 72 177 + 3;
#X obj 160 176 + 9;
#X obj 116 177 + 6;
#X obj 90 39 sel 3;
#X connect 0 0 12 0;
#X connect 2 0 11 0;
#X connect 3 0 6 0;
#X connect 4 0 3 0;
#X connect 10 0 1 0;
#X connect 10 0 15 0;
#X connect 10 0 16 0;
#X connect 10 0 17 0;
#X connect 11 0 18 0;
#X connect 11 2 4 1;
#X connect 12 0 10 0;
#X connect 12 0 4 0;
#X connect 13 0 12 1;
#X connect 14 0 12 1;
#X connect 15 0 7 0;
#X connect 16 0 9 0;
#X connect 17 0 8 0;
#X connect 18 0 13 0;
#X connect 18 1 14 0;
#X restore 745 76 pd dim7---------------;
#X floatatom 1205 95 5 0 0 0 - - - 0;
#X obj 1334 112 s \$0-BASS-NOTE;
#X obj 1205 112 s \$0-voice1;
#X floatatom 1334 94 5 0 0 0 - - - 0;
#X obj 1205 56 r \$0-pitch-for-chords;
#X floatatom 1237 133 5 0 0 0 - - - 0;
#X obj 1237 150 s \$0-voice2;
#X floatatom 1269 112 5 0 0 0 - - - 0;
#X obj 1269 132 s \$0-voice3;
#X floatatom 1302 168 5 0 0 0 - - - 0;
#X obj 1302 185 s \$0-voice4;
#X floatatom 975 335 5 0 0 0 - - - 0;
#X obj 1104 352 s \$0-BASS-NOTE;
#X obj 975 352 s \$0-voice1;
#X floatatom 1104 334 5 0 0 0 - - - 0;
#X obj 975 296 r \$0-pitch-for-chords;
#X floatatom 1007 373 5 0 0 0 - - - 0;
#X obj 1007 390 s \$0-voice2;
#X floatatom 1039 352 5 0 0 0 - - - 0;
#X obj 1039 372 s \$0-voice3;
#X floatatom 1072 408 5 0 0 0 - - - 0;
#X obj 1072 425 s \$0-voice4;
#X floatatom 515 335 5 0 0 0 - - - 0;
#X obj 644 352 s \$0-BASS-NOTE;
#X obj 515 352 s \$0-voice1;
#X floatatom 644 334 5 0 0 0 - - - 0;
#X obj 515 296 r \$0-pitch-for-chords;
#X floatatom 547 373 5 0 0 0 - - - 0;
#X obj 547 390 s \$0-voice2;
#X floatatom 579 352 5 0 0 0 - - - 0;
#X obj 579 372 s \$0-voice3;
#X floatatom 612 408 5 0 0 0 - - - 0;
#X obj 612 425 s \$0-voice4;
#X floatatom 745 335 5 0 0 0 - - - 0;
#X obj 874 352 s \$0-BASS-NOTE;
#X obj 745 352 s \$0-voice1;
#X floatatom 874 334 5 0 0 0 - - - 0;
#X obj 745 296 r \$0-pitch-for-chords;
#X floatatom 777 373 5 0 0 0 - - - 0;
#X obj 777 390 s \$0-voice2;
#X floatatom 809 352 5 0 0 0 - - - 0;
#X obj 809 372 s \$0-voice3;
#X floatatom 842 408 5 0 0 0 - - - 0;
#X obj 842 425 s \$0-voice4;
#X floatatom 1205 335 5 0 0 0 - - - 0;
#X obj 1334 352 s \$0-BASS-NOTE;
#X obj 1205 352 s \$0-voice1;
#X floatatom 1334 334 5 0 0 0 - - - 0;
#X obj 1205 296 r \$0-pitch-for-chords;
#X floatatom 1237 373 5 0 0 0 - - - 0;
#X obj 1237 390 s \$0-voice2;
#X floatatom 1269 352 5 0 0 0 - - - 0;
#X obj 1269 372 s \$0-voice3;
#X floatatom 1302 408 5 0 0 0 - - - 0;
#X obj 1302 425 s \$0-voice4;
#X text 1204 38 Dim;
#N canvas 179 204 519 299 dim---------------- 0;
#X obj 26 2 inlet;
#X obj 26 198 outlet;
#X obj 90 1 r \$0-scale-info-s;
#X obj 241 177 - 12;
#X obj 241 123 spigot;
#X text 283 123 BASS-NOTE: 0-1 (OFF/ON) \;;
#X obj 241 199 outlet;
#X obj 72 198 outlet;
#X obj 116 198 outlet;
#X obj 160 198 outlet;
#X obj 26 142 t f b;
#X obj 90 20 unpack f f f;
#X obj 26 93 spigot;
#X msg 87 60 1;
#X msg 114 60 0;
#X obj 72 177 + 3;
#X obj 116 177 + 6;
#X msg 161 175 0;
#X obj 90 39 sel 5;
#X connect 0 0 12 0;
#X connect 2 0 11 0;
#X connect 3 0 6 0;
#X connect 4 0 3 0;
#X connect 10 0 1 0;
#X connect 10 0 15 0;
#X connect 10 0 16 0;
#X connect 10 1 17 0;
#X connect 11 0 18 0;
#X connect 11 2 4 1;
#X connect 12 0 10 0;
#X connect 12 0 4 0;
#X connect 13 0 12 1;
#X connect 14 0 12 1;
#X connect 15 0 7 0;
#X connect 16 0 8 0;
#X connect 17 0 9 0;
#X connect 18 0 13 0;
#X connect 18 1 14 0;
#X restore 1205 76 pd dim----------------;
#X text 514 278 Major6;
#X text 744 278 Dom7;
#X text 974 278 Major7;
#N canvas 179 204 519 299 major6------------- 0;
#X obj 26 2 inlet;
#X obj 26 198 outlet;
#X obj 90 1 r \$0-scale-info-s;
#X obj 241 177 - 12;
#X obj 241 123 spigot;
#X text 283 123 BASS-NOTE: 0-1 (OFF/ON) \;;
#X obj 241 199 outlet;
#X obj 72 198 outlet;
#X obj 116 198 outlet;
#X obj 160 198 outlet;
#X obj 26 142 t f b;
#X obj 90 20 unpack f f f;
#X obj 26 93 spigot;
#X msg 87 60 1;
#X msg 114 60 0;
#X obj 116 177 + 7;
#X obj 160 176 + 9;
#X obj 72 177 + 4;
#X obj 90 39 sel 7;
#X connect 0 0 12 0;
#X connect 2 0 11 0;
#X connect 3 0 6 0;
#X connect 4 0 3 0;
#X connect 10 0 1 0;
#X connect 10 0 15 0;
#X connect 10 0 16 0;
#X connect 10 0 17 0;
#X connect 11 0 18 0;
#X connect 11 2 4 1;
#X connect 12 0 10 0;
#X connect 12 0 4 0;
#X connect 13 0 12 1;
#X connect 14 0 12 1;
#X connect 15 0 8 0;
#X connect 16 0 9 0;
#X connect 17 0 7 0;
#X connect 18 0 13 0;
#X connect 18 1 14 0;
#X restore 515 316 pd major6-------------;
#N canvas 179 204 519 299 major7------------- 0;
#X obj 26 2 inlet;
#X obj 26 198 outlet;
#X obj 90 1 r \$0-scale-info-s;
#X obj 241 177 - 12;
#X obj 241 123 spigot;
#X text 283 123 BASS-NOTE: 0-1 (OFF/ON) \;;
#X obj 241 199 outlet;
#X obj 72 198 outlet;
#X obj 116 198 outlet;
#X obj 160 198 outlet;
#X obj 26 142 t f b;
#X obj 90 20 unpack f f f;
#X obj 26 93 spigot;
#X msg 87 60 1;
#X msg 114 60 0;
#X obj 116 177 + 7;
#X obj 72 177 + 4;
#X obj 160 176 + 11;
#X obj 90 39 sel 9;
#X connect 0 0 12 0;
#X connect 2 0 11 0;
#X connect 3 0 6 0;
#X connect 4 0 3 0;
#X connect 10 0 1 0;
#X connect 10 0 15 0;
#X connect 10 0 16 0;
#X connect 10 0 17 0;
#X connect 11 0 18 0;
#X connect 11 2 4 1;
#X connect 12 0 10 0;
#X connect 12 0 4 0;
#X connect 13 0 12 1;
#X connect 14 0 12 1;
#X connect 15 0 8 0;
#X connect 16 0 7 0;
#X connect 17 0 9 0;
#X connect 18 0 13 0;
#X connect 18 1 14 0;
#X restore 975 316 pd major7-------------;
#N canvas 179 204 519 299 dom7--------------- 0;
#X obj 26 2 inlet;
#X obj 26 198 outlet;
#X obj 90 1 r \$0-scale-info-s;
#X obj 241 177 - 12;
#X obj 241 123 spigot;
#X text 283 123 BASS-NOTE: 0-1 (OFF/ON) \;;
#X obj 241 199 outlet;
#X obj 72 198 outlet;
#X obj 116 198 outlet;
#X obj 159 198 outlet;
#X obj 26 142 t f b;
#X obj 90 20 unpack f f f;
#X obj 26 93 spigot;
#X msg 87 60 1;
#X msg 114 60 0;
#X obj 72 177 + 4;
#X obj 116 177 + 7;
#X obj 159 176 + 10;
#X obj 90 39 sel 8;
#X connect 0 0 12 0;
#X connect 2 0 11 0;
#X connect 3 0 6 0;
#X connect 4 0 3 0;
#X connect 10 0 1 0;
#X connect 10 0 15 0;
#X connect 10 0 16 0;
#X connect 10 0 17 0;
#X connect 11 0 18 0;
#X connect 11 2 4 1;
#X connect 12 0 10 0;
#X connect 12 0 4 0;
#X connect 13 0 12 1;
#X connect 14 0 12 1;
#X connect 15 0 7 0;
#X connect 16 0 8 0;
#X connect 17 0 9 0;
#X connect 18 0 13 0;
#X connect 18 1 14 0;
#X restore 745 316 pd dom7---------------;
#X text 1204 278 Aug;
#N canvas 179 204 519 299 aug---------------- 0;
#X obj 26 2 inlet;
#X obj 26 198 outlet;
#X obj 90 1 r \$0-scale-info-s;
#X obj 241 177 - 12;
#X obj 241 123 spigot;
#X text 283 123 BASS-NOTE: 0-1 (OFF/ON) \;;
#X obj 241 199 outlet;
#X obj 72 198 outlet;
#X obj 116 198 outlet;
#X obj 160 198 outlet;
#X obj 26 142 t f b;
#X obj 90 20 unpack f f f;
#X obj 26 93 spigot;
#X msg 87 60 1;
#X msg 114 60 0;
#X msg 161 175 0;
#X obj 116 177 + 8;
#X obj 72 177 + 4;
#X obj 90 39 sel 10;
#X connect 0 0 12 0;
#X connect 2 0 11 0;
#X connect 3 0 6 0;
#X connect 4 0 3 0;
#X connect 10 0 1 0;
#X connect 10 0 16 0;
#X connect 10 0 17 0;
#X connect 10 1 15 0;
#X connect 11 0 18 0;
#X connect 11 2 4 1;
#X connect 12 0 10 0;
#X connect 12 0 4 0;
#X connect 13 0 12 1;
#X connect 14 0 12 1;
#X connect 15 0 9 0;
#X connect 16 0 8 0;
#X connect 17 0 7 0;
#X connect 18 0 13 0;
#X connect 18 1 14 0;
#X restore 1205 316 pd aug----------------;
#X connect 2 0 3 0;
#X connect 2 1 8 0;
#X connect 2 2 10 0;
#X connect 2 3 12 0;
#X connect 2 4 6 0;
#X connect 3 0 5 0;
#X connect 6 0 4 0;
#X connect 7 0 2 0;
#X connect 8 0 9 0;
#X connect 10 0 11 0;
#X connect 12 0 13 0;
#X connect 15 0 17 0;
#X connect 18 0 16 0;
#X connect 19 0 38 0;
#X connect 20 0 21 0;
#X connect 22 0 23 0;
#X connect 24 0 25 0;
#X connect 26 0 28 0;
#X connect 29 0 27 0;
#X connect 30 0 37 0;
#X connect 31 0 32 0;
#X connect 33 0 34 0;
#X connect 35 0 36 0;
#X connect 37 0 26 0;
#X connect 37 1 31 0;
#X connect 37 2 33 0;
#X connect 37 3 35 0;
#X connect 37 4 29 0;
#X connect 38 0 15 0;
#X connect 38 1 20 0;
#X connect 38 2 22 0;
#X connect 38 3 24 0;
#X connect 38 4 18 0;
#X connect 39 0 41 0;
#X connect 42 0 40 0;
#X connect 43 0 51 0;
#X connect 44 0 45 0;
#X connect 46 0 47 0;
#X connect 48 0 49 0;
#X connect 51 0 39 0;
#X connect 51 1 44 0;
#X connect 51 2 46 0;
#X connect 51 3 48 0;
#X connect 51 4 42 0;
#X connect 52 0 54 0;
#X connect 55 0 53 0;
#X connect 56 0 64 0;
#X connect 57 0 58 0;
#X connect 59 0 60 0;
#X connect 61 0 62 0;
#X connect 64 0 52 0;
#X connect 64 1 57 0;
#X connect 64 2 59 0;
#X connect 64 3 61 0;
#X connect 64 4 55 0;
#X connect 65 0 67 0;
#X connect 68 0 66 0;
#X connect 69 0 77 0;
#X connect 70 0 71 0;
#X connect 72 0 73 0;
#X connect 74 0 75 0;
#X connect 77 0 65 0;
#X connect 77 1 70 0;
#X connect 77 2 72 0;
#X connect 77 3 74 0;
#X connect 77 4 68 0;
#X connect 78 0 80 0;
#X connect 81 0 79 0;
#X connect 82 0 134 0;
#X connect 83 0 84 0;
#X connect 85 0 86 0;
#X connect 87 0 88 0;
#X connect 89 0 91 0;
#X connect 92 0 90 0;
#X connect 93 0 139 0;
#X connect 94 0 95 0;
#X connect 96 0 97 0;
#X connect 98 0 99 0;
#X connect 100 0 102 0;
#X connect 103 0 101 0;
#X connect 104 0 138 0;
#X connect 105 0 106 0;
#X connect 107 0 108 0;
#X connect 109 0 110 0;
#X connect 111 0 113 0;
#X connect 114 0 112 0;
#X connect 115 0 140 0;
#X connect 116 0 117 0;
#X connect 118 0 119 0;
#X connect 120 0 121 0;
#X connect 122 0 124 0;
#X connect 125 0 123 0;
#X connect 126 0 142 0;
#X connect 127 0 128 0;
#X connect 129 0 130 0;
#X connect 131 0 132 0;
#X connect 134 0 78 0;
#X connect 134 1 83 0;
#X connect 134 2 85 0;
#X connect 134 3 87 0;
#X connect 134 4 81 0;
#X connect 138 0 100 0;
#X connect 138 1 105 0;
#X connect 138 2 107 0;
#X connect 138 3 109 0;
#X connect 138 4 103 0;
#X connect 139 0 89 0;
#X connect 139 1 94 0;
#X connect 139 2 96 0;
#X connect 139 3 98 0;
#X connect 139 4 92 0;
#X connect 140 0 111 0;
#X connect 140 1 116 0;
#X connect 140 2 118 0;
#X connect 140 3 120 0;
#X connect 140 4 114 0;
#X connect 142 0 122 0;
#X connect 142 1 127 0;
#X connect 142 2 129 0;
#X connect 142 3 131 0;
#X connect 142 4 125 0;
#X restore 491 305 pd chords;
#N canvas 0 63 1163 515 gui-to-chords 0;
#X obj 49 43 r \$0-chord-type-1-s;
#X obj 49 103 r \$0-voicing-1-s;
#X obj 971 39 r \$0-root-note-bass-s;
#X obj 971 77 tabwrite \$0scale-info;
#X obj 971 58 t f b;
#X msg 1094 58 49;
#X obj 49 61 tabwrite \$0scale-info;
#X obj 172 25 loadbang;
#X obj 49 121 tabwrite \$0scale-info;
#X obj 172 85 loadbang;
#X obj 239 61 tabwrite \$0scale-info;
#X obj 362 25 loadbang;
#X obj 239 121 tabwrite \$0scale-info;
#X obj 362 85 loadbang;
#X obj 239 43 r \$0-chord-type-2-s;
#X obj 239 103 r \$0-voicing-2-s;
#X obj 439 61 tabwrite \$0scale-info;
#X obj 562 25 loadbang;
#X obj 439 121 tabwrite \$0scale-info;
#X obj 562 85 loadbang;
#X obj 629 61 tabwrite \$0scale-info;
#X obj 752 25 loadbang;
#X obj 629 121 tabwrite \$0scale-info;
#X obj 752 85 loadbang;
#X obj 439 43 r \$0-chord-type-3-s;
#X obj 439 103 r \$0-voicing-3-s;
#X obj 629 43 r \$0-chord-type-4-s;
#X obj 629 103 r \$0-voicing-4-s;
#X obj 49 241 tabwrite \$0scale-info;
#X obj 172 205 loadbang;
#X obj 49 301 tabwrite \$0scale-info;
#X obj 172 265 loadbang;
#X obj 239 241 tabwrite \$0scale-info;
#X obj 362 205 loadbang;
#X obj 239 301 tabwrite \$0scale-info;
#X obj 362 265 loadbang;
#X obj 439 241 tabwrite \$0scale-info;
#X obj 562 205 loadbang;
#X obj 439 301 tabwrite \$0scale-info;
#X obj 562 265 loadbang;
#X obj 629 241 tabwrite \$0scale-info;
#X obj 752 205 loadbang;
#X obj 629 301 tabwrite \$0scale-info;
#X obj 752 265 loadbang;
#X obj 49 223 r \$0-chord-type-5-s;
#X obj 49 283 r \$0-voicing-5-s;
#X obj 239 223 r \$0-chord-type-6-s;
#X obj 239 283 r \$0-voicing-6-s;
#X obj 439 223 r \$0-chord-type-7-s;
#X obj 439 283 r \$0-voicing-7-s;
#X obj 629 223 r \$0-chord-type-8-s;
#X obj 629 283 r \$0-voicing-8-s;
#X obj 49 421 tabwrite \$0scale-info;
#X obj 172 385 loadbang;
#X obj 49 481 tabwrite \$0scale-info;
#X obj 172 445 loadbang;
#X obj 239 421 tabwrite \$0scale-info;
#X obj 362 385 loadbang;
#X obj 239 481 tabwrite \$0scale-info;
#X obj 362 445 loadbang;
#X obj 439 421 tabwrite \$0scale-info;
#X obj 562 385 loadbang;
#X obj 439 481 tabwrite \$0scale-info;
#X obj 562 445 loadbang;
#X obj 629 421 tabwrite \$0scale-info;
#X obj 752 385 loadbang;
#X obj 629 481 tabwrite \$0scale-info;
#X obj 752 445 loadbang;
#X obj 49 403 r \$0-chord-type-9-s;
#X obj 49 463 r \$0-voicing-9-s;
#X obj 239 403 r \$0-chord-type-10-s;
#X obj 239 463 r \$0-voicing-10-s;
#X obj 439 403 r \$0-chord-type-11-s;
#X obj 439 463 r \$0-voicing-11-s;
#X obj 629 403 r \$0-chord-type-12-s;
#X obj 629 463 r \$0-voicing-12-s;
#X msg 172 43 0;
#X msg 172 103 1;
#X msg 362 43 2;
#X msg 362 103 3;
#X msg 562 43 4;
#X msg 562 103 5;
#X msg 752 43 6;
#X msg 752 103 7;
#X msg 172 223 8;
#X msg 172 283 9;
#X msg 362 223 10;
#X msg 362 283 11;
#X msg 562 223 12;
#X msg 562 283 13;
#X msg 752 223 14;
#X msg 752 283 15;
#X msg 172 403 16;
#X msg 172 463 17;
#X msg 362 403 18;
#X msg 362 463 19;
#X msg 562 403 20;
#X msg 562 463 21;
#X msg 752 403 22;
#X msg 752 463 23;
#X connect 0 0 6 0;
#X connect 1 0 8 0;
#X connect 2 0 4 0;
#X connect 4 0 3 0;
#X connect 4 1 5 0;
#X connect 5 0 3 1;
#X connect 7 0 76 0;
#X connect 9 0 77 0;
#X connect 11 0 78 0;
#X connect 13 0 79 0;
#X connect 14 0 10 0;
#X connect 15 0 12 0;
#X connect 17 0 80 0;
#X connect 19 0 81 0;
#X connect 21 0 82 0;
#X connect 23 0 83 0;
#X connect 24 0 16 0;
#X connect 25 0 18 0;
#X connect 26 0 20 0;
#X connect 27 0 22 0;
#X connect 29 0 84 0;
#X connect 31 0 85 0;
#X connect 33 0 86 0;
#X connect 35 0 87 0;
#X connect 37 0 88 0;
#X connect 39 0 89 0;
#X connect 41 0 90 0;
#X connect 43 0 91 0;
#X connect 44 0 28 0;
#X connect 45 0 30 0;
#X connect 46 0 32 0;
#X connect 47 0 34 0;
#X connect 48 0 36 0;
#X connect 49 0 38 0;
#X connect 50 0 40 0;
#X connect 51 0 42 0;
#X connect 53 0 92 0;
#X connect 55 0 93 0;
#X connect 57 0 94 0;
#X connect 59 0 95 0;
#X connect 61 0 96 0;
#X connect 63 0 97 0;
#X connect 65 0 98 0;
#X connect 67 0 99 0;
#X connect 68 0 52 0;
#X connect 69 0 54 0;
#X connect 70 0 56 0;
#X connect 71 0 58 0;
#X connect 72 0 60 0;
#X connect 73 0 62 0;
#X connect 74 0 64 0;
#X connect 75 0 66 0;
#X connect 76 0 6 1;
#X connect 77 0 8 1;
#X connect 78 0 10 1;
#X connect 79 0 12 1;
#X connect 80 0 16 1;
#X connect 81 0 18 1;
#X connect 82 0 20 1;
#X connect 83 0 22 1;
#X connect 84 0 28 1;
#X connect 85 0 30 1;
#X connect 86 0 32 1;
#X connect 87 0 34 1;
#X connect 88 0 36 1;
#X connect 89 0 38 1;
#X connect 90 0 40 1;
#X connect 91 0 42 1;
#X connect 92 0 52 1;
#X connect 93 0 54 1;
#X connect 94 0 56 1;
#X connect 95 0 58 1;
#X connect 96 0 60 1;
#X connect 97 0 62 1;
#X connect 98 0 64 1;
#X connect 99 0 66 1;
#X restore 586 305 pd gui-to-chords;
#X obj 157 299 bng 15 250 50 0 \$0-scales-button empty SCALES-MANAGER 17 8 0 8 #fcfcfc #000000 #000000;
#X msg 308 490 1;
#X obj 281 490 f \$0;
#X obj 281 509 pack f f;
#X obj 281 471 t b b;
#X text 278 432 Opens the Scales-Subpatch:;
#X obj 281 452 r \$0-scales-button;
#X msg 281 529 \; pd-\$1scales vis \$2;
#X obj 118 165 cnv 5 5 5 empty empty TUNINGS 0 0 0 8 #fcfcfc #000000 0;
#X obj 157 157 hradio 15 1 0 8 \$0-tuning-s \$0-tuning-r empty 0 -8 0 10 #fcfcfc #000000 #000000 0;
#N canvas 79 43 777 351 \$0scales 0;
#X obj 10 7 cnv 15 740 30 empty empty SCALES-MANAGER 10 15 0 14 #90d4b0 #fcfcfc 0;
#X obj 384 41 cnv 15 180 15 empty empty MINOR-SCALES: 10 8 0 12 #9898dc #fcfcfc 0;
#X obj 570 41 cnv 15 180 15 empty empty MAJOR-SCALES 10 8 0 12 #9898dc #fcfcfc 0;
#X obj 384 60 bng 15 250 50 0 \$0-create-lp-filter! empty <--MINOR-POP 17 7 0 10 #fcfcfc #000000 #000000;
#X obj 15 69 bng 15 250 50 0 \$0-chord-trigger-1-s \$0-chord-trigger-1-r empty 0 -8 0 10 #c6ffc7 #000000 #000000;
#X obj 30 53 bng 15 250 50 0 \$0-chord-trigger-2-s \$0-chord-trigger-2-r empty 0 -8 0 10 #ffc7c6 #000000 #000000;
#X obj 45 69 bng 15 250 50 0 \$0-chord-trigger-3-s \$0-chord-trigger-3-r empty 0 -8 0 10 #c6ffc7 #000000 #000000;
#X obj 15 89 vradio 15 1 0 11 \$0-chord-type-1-s \$0-chord-type-1-r empty 0 -8 0 10 #fcfcfc #000000 #000000 0;
#X obj 30 89 vradio 15 1 0 11 \$0-chord-type-2-s \$0-chord-type-2-r empty 0 -8 0 10 #dfdfdf #000000 #000000 0;
#X obj 45 89 vradio 15 1 0 11 \$0-chord-type-3-s \$0-chord-type-3-r empty 0 -8 0 10 #fcfcfc #000000 #000000 0;
#X obj 60 54 bng 15 250 50 0 \$0-chord-trigger-4-s \$0-chord-trigger-4-r empty 0 -8 0 10 #c6ffc7 #000000 #000000;
#X obj 60 89 vradio 15 1 0 11 \$0-chord-type-4-s \$0-chord-type-4-r empty 0 -8 0 10 #dfdfdf #000000 #000000 0;
#X obj 198 126 cnv 5 5 5 empty empty minor6 0 0 0 8 #fcfcfc #000000 0;
#X obj 198 217 cnv 5 5 5 empty empty dom7 0 0 0 8 #fcfcfc #000000 0;
#X obj 75 69 bng 15 250 50 0 \$0-chord-trigger-5-s \$0-chord-trigger-5-r empty 0 -8 0 10 #ffc7c6 #000000 #000000;
#X obj 75 89 vradio 15 1 0 11 \$0-chord-type-5-s \$0-chord-type-5-r empty 0 -8 0 10 #fcfcfc #000000 #000000 0;
#X obj 90 69 bng 15 250 50 0 \$0-chord-trigger-6-s \$0-chord-trigger-6-r empty 0 -8 0 10 #c6ffc7 #000000 #000000;
#X obj 105 53 bng 15 250 50 0 \$0-chord-trigger-7-s \$0-chord-trigger-7-r empty 0 -8 0 10 #ffc7c6 #000000 #000000;
#X obj 120 69 bng 15 250 50 0 \$0-chord-trigger-8-s \$0-chord-trigger-8-r empty 0 -8 0 10 #c6ffc7 #000000 #000000;
#X obj 90 89 vradio 15 1 0 11 \$0-chord-type-6-s \$0-chord-type-6-r empty 0 -8 0 10 #fcfcfc #000000 #000000 0;
#X obj 105 89 vradio 15 1 0 11 \$0-chord-type-7-s \$0-chord-type-7-r empty 0 -8 0 10 #dfdfdf #000000 #000000 0;
#X obj 120 89 vradio 15 1 0 11 \$0-chord-type-8-s \$0-chord-type-8-r empty 0 -8 0 10 #fcfcfc #000000 #000000 0;
#X obj 135 54 bng 15 250 50 0 \$0-chord-trigger-9-s \$0-chord-trigger-9-r empty 0 -8 0 10 #ffc7c6 #000000 #000000;
#X obj 135 89 vradio 15 1 0 11 \$0-chord-type-9-s \$0-chord-type-9-r empty 0 -8 0 10 #dfdfdf #000000 #000000 0;
#X obj 150 69 bng 15 250 50 0 \$0-chord-trigger-10-s \$0-chord-trigger-10-r empty 0 -8 0 10 #c6ffc7 #000000 #000000;
#X obj 150 89 vradio 15 1 0 11 \$0-chord-type-10-s \$0-chord-type-10-r empty 0 -8 0 10 #fcfcfc #000000 #000000 0;
#X obj 165 54 bng 15 250 50 0 \$0-chord-trigger-11-s \$0-chord-trigger-11-r empty 0 -8 0 10 #c6ffc7 #000000 #000000;
#X obj 165 89 vradio 15 1 0 11 \$0-chord-type-11-s \$0-chord-type-11-r empty 0 -8 0 10 #dfdfdf #000000 #000000 0;
#X obj 180 69 bng 15 250 50 0 \$0-chord-trigger-12-s \$0-chord-trigger-12-r empty 0 -8 0 10 #ffc7c6 #000000 #000000;
#X obj 180 89 vradio 15 1 0 11 \$0-chord-type-12-s \$0-chord-type-12-r empty 0 -8 0 10 #fcfcfc #000000 #000000 0;
#X obj 15 267 vradio 15 1 0 3 \$0-voicing-1-s \$0-voicing-1-r empty 0 -8 0 10 #fcfcfc #000000 #000000 0;
#X obj 30 267 vradio 15 1 0 3 \$0-voicing-2-s \$0-voicing-2-r empty 0 -8 0 10 #dfdfdf #000000 #000000 0;
#X obj 45 267 vradio 15 1 0 3 \$0-voicing-3-s \$0-voicing-3-r empty 0 -8 0 10 #fcfcfc #000000 #000000 0;
#X obj 60 267 vradio 15 1 0 3 \$0-voicing-4-s \$0-voicing-4-r empty 0 -8 0 10 #dfdfdf #000000 #000000 0;
#X obj 75 267 vradio 15 1 0 3 \$0-voicing-5-s \$0-voicing-5-r empty 0 -8 0 10 #fcfcfc #000000 #000000 0;
#X obj 90 267 vradio 15 1 0 3 \$0-voicing-6-s \$0-voicing-6-r empty 0 -8 0 10 #fcfcfc #000000 #000000 0;
#X obj 105 267 vradio 15 1 0 3 \$0-voicing-7-s \$0-voicing-7-r empty 0 -8 0 10 #dfdfdf #000000 #000000 0;
#X obj 120 267 vradio 15 1 0 3 \$0-voicing-8-s \$0-voicing-8-r empty 0 -8 0 10 #fcfcfc #000000 #000000 0;
#X obj 135 267 vradio 15 1 0 3 \$0-voicing-9-s \$0-voicing-9-r empty 0 -8 0 10 #dfdfdf #000000 #000000 0;
#X obj 150 267 vradio 15 1 0 3 \$0-voicing-10-s \$0-voicing-10-r empty 0 -8 0 10 #fcfcfc #000000 #000000 0;
#X obj 165 267 vradio 15 1 0 3 \$0-voicing-11-s \$0-voicing-11-r empty 0 -8 0 10 #dfdfdf #000000 #000000 0;
#X obj 180 267 vradio 15 1 0 3 \$0-voicing-12-s \$0-voicing-12-r empty 0 -8 0 10 #fcfcfc #000000 #000000 0;
#X obj 198 276 cnv 5 5 5 empty empty OG-VOICING 0 0 0 8 #fcfcfc #000000 0;
#X obj 198 290 cnv 5 5 5 empty empty -1-VOICING 0 0 0 8 #fcfcfc #000000 0;
#X obj 198 305 cnv 5 5 5 empty empty -2-VOICING 0 0 0 8 #fcfcfc #000000 0;
#X obj 198 111 cnv 5 5 5 empty empty minor 0 0 0 8 #fcfcfc #000000 0;
#X obj 198 141 cnv 5 5 5 empty empty dim7 0 0 0 8 #fcfcfc #000000 0;
#X obj 198 157 cnv 5 5 5 empty empty minor7 0 0 0 8 #fcfcfc #000000 0;
#X obj 198 187 cnv 5 5 5 empty empty major 0 0 0 8 #fcfcfc #000000 0;
#X obj 198 172 cnv 5 5 5 empty empty dim 0 0 0 8 #fcfcfc #000000 0;
#X obj 198 202 cnv 5 5 5 empty empty major6 0 0 0 8 #fcfcfc #000000 0;
#X obj 198 230 cnv 5 5 5 empty empty major7 0 0 0 8 #fcfcfc #000000 0;
#X obj 198 246 cnv 5 5 5 empty empty aug 0 0 0 8 #fcfcfc #000000 0;
#X obj 384 135 bng 15 50 50 0 \$0-save-pattern2 empty LOAD-TO-ACTIVE-TUNE 18 8 0 8 #fcfcfc #fc0400 #000000;
#X obj 384 80 bng 15 250 50 0 \$0-create-lp-filter! empty <--MINOR-JAZZ 17 7 0 10 #fcfcfc #000000 #000000;
#X obj 570 60 bng 15 250 50 0 \$0-create-lp-filter! empty <--MAJOR-POP 17 7 0 10 #fcfcfc #000000 #000000;
#X obj 570 80 bng 15 250 50 0 \$0-create-lp-filter! empty <--MAJOR-JAZZ 17 7 0 10 #fcfcfc #000000 #000000;
#X obj 386 215 hsl 128 15 0 127 0 1 \$0-root-note-in empty ROOT-NOTE 133 7 0 10 #fcfcfc #000000 #000000 0 1;
#X symbolatom 490 200 4 0 0 0 - \$0-root-note-gui - 0;
#X obj 198 96 cnv 5 5 5 empty empty note-off 0 0 0 8 #fcfcfc #000000 0;
#X restore 281 562 pd \$0scales;
#N canvas 0 89 1440 565 save-load-pattern-txt 0;
#X obj 408 227 soundfiler;
#X obj 408 245 t b b;
#X obj 435 264 s \$0-load-pattern;
#X obj 468 108 r \$0-instance-num-2;
#X obj 436 108 f \$0;
#X obj 408 159 pack f f f;
#X obj 408 94 f;
#X obj 399 66 bng 16 250 50 0 empty empty empty 0 -8 0 10 #fcfcfc #000000 #000000;
#X obj 436 88 loadbang;
#X obj 36 178 soundfiler;
#X obj 36 196 t b b;
#X obj 63 215 s \$0-load-pattern;
#X obj 96 95 r \$0-instance-num-2;
#X obj 64 95 f \$0;
#X obj 36 116 pack f f f;
#X obj 36 81 f;
#X obj 27 53 bng 16 250 50 0 empty empty empty 0 -8 0 10 #fcfcfc #000000 #000000;
#X obj 64 75 loadbang;
#X obj 27 32 r \$0-save-pattern2;
#X obj 399 46 r \$0-load-pattern2;
#X obj 765 95 openpanel;
#X obj 765 195 soundfiler;
#X obj 765 74 bng 16 250 50 0 empty empty empty 0 -8 0 10 #fcfcfc #000000 #000000;
#X obj 810 114 loadbang;
#X obj 810 134 f \$0;
#X obj 765 154 pack s f;
#X obj 765 46 r \$0-save-open2;
#X obj 765 215 t b b;
#X obj 792 234 s \$0-load-pattern;
#X obj 1038 215 soundfiler;
#X obj 1038 117 f \$0;
#X obj 1042 77 bng 16 250 50 0 empty empty empty 0 -8 0 10 #fcfcfc #000000 #000000;
#X obj 1051 142 pack f;
#X obj 1045 46 r \$0-export2;
#X msg 765 173 read -ascii -resize \$1 \$2scale-info;
#X msg 1038 174 write ../export/pattern-export.txt \$1scale-info, f 61;
#X obj 51 54 r \$0-tuning-s;
#X obj 423 67 r \$0-tuning-s;
#X obj 36 233 s \$0update-gui;
#X obj 408 282 s \$0update-gui;
#X msg 36 136 write tunings/\$3chord-creator-tuning\$1.txt \$2scale-info, f 40;
#X msg 408 186 read -ascii -resize tunings/\$3chord-creator-tuning\$1.txt \$2scale-info;
#X obj 765 252 s \$0update-gui;
#X connect 0 0 1 0;
#X connect 1 0 39 0;
#X connect 1 1 2 0;
#X connect 3 0 5 2;
#X connect 4 0 5 1;
#X connect 5 0 41 0;
#X connect 6 0 5 0;
#X connect 7 0 6 0;
#X connect 8 0 4 0;
#X connect 9 0 10 0;
#X connect 10 0 38 0;
#X connect 10 1 11 0;
#X connect 12 0 14 2;
#X connect 13 0 14 1;
#X connect 14 0 40 0;
#X connect 15 0 14 0;
#X connect 16 0 15 0;
#X connect 17 0 13 0;
#X connect 18 0 16 0;
#X connect 19 0 7 0;
#X connect 20 0 25 0;
#X connect 21 0 27 0;
#X connect 22 0 20 0;
#X connect 23 0 24 0;
#X connect 24 0 25 1;
#X connect 25 0 34 0;
#X connect 26 0 22 0;
#X connect 27 0 42 0;
#X connect 27 1 28 0;
#X connect 30 0 32 0;
#X connect 31 0 30 0;
#X connect 32 0 35 0;
#X connect 33 0 31 0;
#X connect 34 0 21 0;
#X connect 35 0 29 0;
#X connect 36 0 15 1;
#X connect 37 0 6 1;
#X connect 40 0 9 0;
#X connect 41 0 0 0;
#X restore -246 142 pd save-load-pattern-txt;
#X obj 324 107 cnv 5 5 5 empty empty RESET 0 0 0 8 #fcfcfc #dc4c90 0;
#X obj 328 113 bng 10 50 50 0 \$0reset-clock-gui-s \$0reset-clock-gui-r empty 17 7 0 10 #fcfcfc #fc0400 #000000;
#X obj 1374 -100 inlet~;
#X obj 1374 -81 threshold~ 0.9 0 0.9 0;
#X obj 1374 -60 t b;
#X text 1370 -120 RESET IN;
#X obj 1374 -41 s \$0-reset;
#X obj 246 24 bng 15 250 50 0 s f empty 0 -8 0 10 #fcfcfc #000000 #000000;
#X msg 132 495 1;
#N canvas 417 259 291 186 \$0options 0;
#X obj 19 48 hradio 15 1 0 8 \$0-diet-drum-seq-page-s \$0-diet-drum-seq-page-r Launchpad-Page: 0 -8 0 10 #fcfcfc #000000 #000000 0;
#X text 17 13 Launchpad-Settings:;
#X obj 19 99 hradio 15 1 0 16 \$0-midi-channel-in-s \$0-midi-channel-in-r MIDI-CHANNEL-IN: 0 -8 0 10 #fcfcfc #000000 #000000 0;
#X obj 19 137 hradio 15 1 0 16 \$0-midi-channel-out-s \$0-midi-channel-out-r MIDI-CHANNEL-OUT: 0 -8 0 10 #fcfcfc #000000 #000000 0;
#X restore 105 566 pd \$0options;
#X msg 105 535 \; pd-\$1options vis \$2;
#X obj 105 495 f \$0;
#X obj 105 514 pack f f;
#X obj 157 319 bng 15 250 50 0 \$0-options-button \$0-options-button-r SETTINGS 17 8 0 8 #fcfcfc #000000 #000000;
#X obj 105 476 t b b;
#X obj 105 457 r \$0-options-button;
#X text 103 432 Opens the Options-Subpatch:;
#N canvas 261 157 1179 327 button-colors 0;
#X obj 45 88 s \$0-chord-trigger-1-r;
#X obj 45 5 r \$0-chord-type-1-s;
#X obj 45 24 sel 0;
#X msg 45 46 color #ffc7c6;
#X msg 64 65 color #c6ffc7;
#X obj 195 24 sel 0;
#X msg 195 46 color #ffc7c6;
#X msg 214 65 color #c6ffc7;
#X obj 195 5 r \$0-chord-type-2-s;
#X obj 195 88 s \$0-chord-trigger-2-r;
#X obj 345 24 sel 0;
#X msg 345 46 color #ffc7c6;
#X msg 364 65 color #c6ffc7;
#X obj 345 5 r \$0-chord-type-3-s;
#X obj 345 88 s \$0-chord-trigger-3-r;
#X obj 495 24 sel 0;
#X msg 495 46 color #ffc7c6;
#X msg 514 65 color #c6ffc7;
#X obj 495 5 r \$0-chord-type-4-s;
#X obj 495 88 s \$0-chord-trigger-4-r;
#X obj 45 144 sel 0;
#X msg 45 166 color #ffc7c6;
#X msg 64 185 color #c6ffc7;
#X obj 195 144 sel 0;
#X msg 195 166 color #ffc7c6;
#X msg 214 185 color #c6ffc7;
#X obj 345 144 sel 0;
#X msg 345 166 color #ffc7c6;
#X msg 364 185 color #c6ffc7;
#X obj 495 144 sel 0;
#X msg 495 166 color #ffc7c6;
#X msg 514 185 color #c6ffc7;
#X obj 45 125 r \$0-chord-type-5-s;
#X obj 45 208 s \$0-chord-trigger-5-r;
#X obj 195 125 r \$0-chord-type-6-s;
#X obj 195 208 s \$0-chord-trigger-6-r;
#X obj 345 125 r \$0-chord-type-7-s;
#X obj 345 208 s \$0-chord-trigger-7-r;
#X obj 495 125 r \$0-chord-type-8-s;
#X obj 495 208 s \$0-chord-trigger-8-r;
#X obj 45 274 sel 0;
#X msg 45 296 color #ffc7c6;
#X msg 64 315 color #c6ffc7;
#X obj 195 274 sel 0;
#X msg 195 296 color #ffc7c6;
#X msg 214 315 color #c6ffc7;
#X obj 345 274 sel 0;
#X msg 345 296 color #ffc7c6;
#X msg 364 315 color #c6ffc7;
#X obj 495 274 sel 0;
#X msg 495 296 color #ffc7c6;
#X msg 514 315 color #c6ffc7;
#X obj 45 255 r \$0-chord-type-9-s;
#X obj 45 338 s \$0-chord-trigger-9-r;
#X obj 195 255 r \$0-chord-type-10-s;
#X obj 195 338 s \$0-chord-trigger-10-r;
#X obj 345 255 r \$0-chord-type-11-s;
#X obj 345 338 s \$0-chord-trigger-11-r;
#X obj 495 255 r \$0-chord-type-12-s;
#X obj 495 338 s \$0-chord-trigger-12-r;
#X connect 1 0 2 0;
#X connect 2 0 3 0;
#X connect 2 1 4 0;
#X connect 3 0 0 0;
#X connect 4 0 0 0;
#X connect 5 0 6 0;
#X connect 5 1 7 0;
#X connect 6 0 9 0;
#X connect 7 0 9 0;
#X connect 8 0 5 0;
#X connect 10 0 11 0;
#X connect 10 1 12 0;
#X connect 11 0 14 0;
#X connect 12 0 14 0;
#X connect 13 0 10 0;
#X connect 15 0 16 0;
#X connect 15 1 17 0;
#X connect 16 0 19 0;
#X connect 17 0 19 0;
#X connect 18 0 15 0;
#X connect 20 0 21 0;
#X connect 20 1 22 0;
#X connect 21 0 33 0;
#X connect 22 0 33 0;
#X connect 23 0 24 0;
#X connect 23 1 25 0;
#X connect 24 0 35 0;
#X connect 25 0 35 0;
#X connect 26 0 27 0;
#X connect 26 1 28 0;
#X connect 27 0 37 0;
#X connect 28 0 37 0;
#X connect 29 0 30 0;
#X connect 29 1 31 0;
#X connect 30 0 39 0;
#X connect 31 0 39 0;
#X connect 32 0 20 0;
#X connect 34 0 23 0;
#X connect 36 0 26 0;
#X connect 38 0 29 0;
#X connect 40 0 41 0;
#X connect 40 1 42 0;
#X connect 41 0 53 0;
#X connect 42 0 53 0;
#X connect 43 0 44 0;
#X connect 43 1 45 0;
#X connect 44 0 55 0;
#X connect 45 0 55 0;
#X connect 46 0 47 0;
#X connect 46 1 48 0;
#X connect 47 0 57 0;
#X connect 48 0 57 0;
#X connect 49 0 50 0;
#X connect 49 1 51 0;
#X connect 50 0 59 0;
#X connect 51 0 59 0;
#X connect 52 0 40 0;
#X connect 54 0 43 0;
#X connect 56 0 46 0;
#X connect 58 0 49 0;
#X restore -246 161 pd button-colors;
#X obj 262 268 tgl 15 1 \$0-hold-s \$0-hold-r empty 17 7 0 10 #fcfcfc #000000 #000000 1 1;
#X obj 281 276 cnv 5 5 5 empty empty HOLD 0 0 0 8 #fcfcfc #000000 0;
#X obj 143 107 cnv 5 5 5 empty empty GATE\ 1 0 0 0 8 #fcfcfc #404040 0;
#X obj 774 26 snapshot~;
#X obj 843 -9 tgl 15 0 empty empty empty 17 7 0 10 #fcfcfc #000000 #000000 0 1;
#X obj 774 82 t f f;
#X obj 774 48 change;
#X obj 774 104 > 0;
#X obj 843 9 metro 10;
#X obj 776 -100 inlet~;
#X obj 842 -74 env~;
#X obj 842 -52 > 0;
#X obj 842 -30 change;
#X obj 150 114 cnv 10 10 10 empty \$0-gate-gui empty 20 12 0 14 #202020 #fcfcfc 0;
#X floatatom 894 123 5 0 0 0 - - - 0;
#X obj 894 142 + 12;
#X msg 894 164 color \$1;
#X obj 894 186 s \$0-gate-gui;
#X obj 266 24 s \$0-reset;
#X floatatom 491 189 5 0 0 0 - - - 0;
#X obj 676 222 mod 12;
#X floatatom 676 241 5 0 0 0 - - - 0;
#X text 499 251 pass through pitch/CV;
#X obj 493 51 snapshot~;
#X obj 562 16 tgl 15 0 empty empty empty 17 7 0 10 #fcfcfc #000000 #000000 0 1;
#X obj 493 73 change;
#X obj 562 34 metro 10;
#X obj 562 -58 env~;
#X obj 562 -36 > 0;
#X obj 562 -14 change;
#X obj 493 95 * 127;
#X floatatom 493 115 5 0 0 0 - - - 0;
#X obj 494 -99 inlet~;
#X obj 493 136 s \$0-pitch-in;
#X text 491 -115 PITCH CV-IN;
#X obj 491 171 r \$0-pitch-in;
#X text 695 305 CHORD MODULE GIVES OUT INFO ACCORDING TO INPUT;
#X obj -248 251 table \$0scale-info;
#X obj -247 289 loadbang;
#X text -248 271 Set Size for Pattern-Array;
#X obj -247 333 array size \$0scale-info;
#X msg -247 310 50;
#N canvas 199 322 817 434 read-info-from-table 0;
#X obj 245 169 tabread \$0scale-info;
#X obj 522 205 tabread \$0scale-info;
#X obj 273 190 tabread \$0scale-info;
#X obj 273 146 + 1;
#X text 376 169 CHORD-TYPE: 1-10 \;;
#X text 401 189 VOICING: 1-3 \;;
#X obj 245 82 inlet;
#X obj 245 343 outlet;
#X text 651 205 BASS-NOTE: 0-1 (OFF/ON) \;;
#X obj 522 168 t b;
#X msg 522 187 49;
#X obj 245 120 * 2;
#X obj 245 325 pack f f F;
#X floatatom 166 44 5 0 0 0 - - - 0;
#X floatatom 82 285 5 0 0 0 - - - 0;
#X floatatom 160 291 5 0 0 0 - - - 0;
#X connect 0 0 12 0;
#X connect 1 0 12 2;
#X connect 2 0 12 1;
#X connect 3 0 2 0;
#X connect 3 0 15 0;
#X connect 6 0 9 0;
#X connect 6 0 11 0;
#X connect 9 0 10 0;
#X connect 10 0 1 0;
#X connect 11 0 3 0;
#X connect 11 0 0 0;
#X connect 11 0 14 0;
#X connect 12 0 7 0;
#X connect 13 0 11 0;
#X restore 676 259 pd read-info-from-table;
#X text 721 221 Select NOTE of scale;
#X obj 491 206 t f f;
#X obj 676 279 s \$0-scale-info-s;
#X obj 491 271 s \$0-pitch-for-chords;
#X obj 122 244 cnv 5 5 5 empty empty OKTAVE 0 0 0 8 #fcfcfc #000000 0;
#X obj 213 -87 cnv 5 5 5 empty empty MUTE 0 0 0 8 #fcfcfc #000000 0;
#X obj 159 194 cnv 5 5 5 empty empty ARP 0 0 0 8 #fcfcfc #000000 0;
#X obj 262 172 tgl 15 0 \$0-root-note-bass-s \$0-root-note-bass-r empty 0 -8 0 10 #fcfcfc #000000 #000000 0 1;
#X obj 281 180 cnv 5 5 5 empty empty LEARN_SCALE 0 0 0 8 #fcfcfc #000000 0;
#X obj 157 203 hradio 15 1 0 6 empty empty empty 0 -8 0 10 #fcfcfc #000000 #000000 0;
#X obj 157 218 hradio 15 1 0 6 empty empty empty 0 -8 0 10 #fcfcfc #000000 #000000 0;
#X obj 174 194 cnv 5 5 5 empty empty < 0 0 0 8 #fcfcfc #000000 0;
#X obj 190 194 cnv 5 5 5 empty empty > 0 0 0 8 #fcfcfc #000000 0;
#X obj 220 194 cnv 5 5 5 empty empty rdm 0 0 0 8 #fcfcfc #000000 0;
#X obj 989 784 outlet;
#X text 965 806 BASS-MIDI-OUTPUT;
#X text 618 828 CHORD-MIDI-OUTPUT;
#X text 553 305 <---;
#X text 488 345 CREATION OF MIDI NOTES:;
#X obj 283 373 cnv 5 5 5 empty empty MIDI-OUT:BASS 0 0 0 8 #fcfcfc #404040 0;
#X obj 491 745 pack f f;
#X obj 491 726 f;
#X obj 499 459 r \$0-trigger;
#X msg 555 722 0;
#X obj 528 704 t b b;
#X obj 491 705 t b b;
#X msg 527 722 100;
#X obj 528 666 r \$0-reset;
#X obj 527 608 r \$0-voice1;
#X obj 491 648 spigot;
#X obj 527 629 t f f;
#X obj 518 685 f;
#X obj 491 666 t b b;
#X obj 491 629 t b b;
#X obj 611 745 pack f f;
#X obj 611 726 f;
#X obj 621 459 r \$0-trigger;
#X msg 675 722 0;
#X obj 648 704 t b b;
#X obj 611 705 t b b;
#X msg 647 722 100;
#X obj 648 666 r \$0-reset;
#X obj 611 648 spigot;
#X obj 647 628 t f f;
#X obj 638 685 f;
#X obj 611 666 t b b;
#X obj 611 629 t b b;
#X obj 647 607 r \$0-voice2;
#X obj 731 745 pack f f;
#X obj 731 726 f;
#X obj 741 459 r \$0-trigger;
#X msg 795 722 0;
#X obj 768 704 t b b;
#X obj 731 705 t b b;
#X msg 767 722 100;
#X obj 768 666 r \$0-reset;
#X obj 731 648 spigot;
#X obj 767 627 t f f;
#X obj 758 685 f;
#X obj 731 666 t b b;
#X obj 731 629 t b b;
#X obj 767 606 r \$0-voice3;
#X obj 851 745 pack f f;
#X obj 851 726 f;
#X obj 861 459 r \$0-trigger;
#X msg 915 722 0;
#X obj 888 704 t b b;
#X obj 851 705 t b b;
#X msg 887 722 100;
#X obj 888 666 r \$0-reset;
#X obj 851 648 spigot;
#X obj 887 629 t f f;
#X obj 878 685 f;
#X obj 851 666 t b b;
#X obj 851 629 t b b;
#X obj 887 608 r \$0-voice4;
#X obj 989 764 pack f f;
#X obj 989 745 f;
#X msg 1053 741 0;
#X obj 1026 723 t b b;
#X obj 989 724 t b b;
#X msg 1025 741 100;
#X obj 1026 685 r \$0-reset;
#X obj 989 667 spigot;
#X obj 1025 648 t f f;
#X obj 1016 704 f;
#X obj 989 685 t b b;
#X obj 989 648 t b b;
#X obj 1025 608 r \$0-BASS-NOTE;
#N canvas 93 77 1347 604 keyboard-buttons 0;
#X obj -4 70 r \$0-to-poly;
#X listbox -4 130 13 0 0 0 - - - 0;
#X obj -4 109 pack f f f;
#X listbox -4 169 7 0 0 0 - - - 0;
#X obj 93 -176 pack f 0;
#X msg 93 -225 60;
#X obj 93 -192 +;
#X obj 108 -208 r \$0-oktave;
#X obj 1 -160 s \$0-to-poly;
#X msg 1 -225 60;
#X obj 1 -192 +;
#X obj 16 -208 r \$0-oktave;
#X obj 1 -176 pack f 100;
#X obj 1 -241 sel 1 0;
#X obj 1 -257 r \$0-chord-trigger-1-s;
#X obj 283 -176 pack f 0;
#X obj 283 -192 +;
#X obj 298 -208 r \$0-oktave;
#X obj 191 -160 s \$0-to-poly;
#X obj 191 -192 +;
#X obj 206 -208 r \$0-oktave;
#X obj 191 -176 pack f 100;
#X obj 191 -241 sel 1 0;
#X obj 191 -257 r \$0-chord-trigger-2-s;
#X msg 191 -225 61;
#X msg 283 -225 61;
#X obj 473 -176 pack f 0;
#X obj 473 -192 +;
#X obj 488 -208 r \$0-oktave;
#X obj 381 -160 s \$0-to-poly;
#X obj 381 -192 +;
#X obj 396 -208 r \$0-oktave;
#X obj 381 -176 pack f 100;
#X obj 381 -241 sel 1 0;
#X obj 381 -257 r \$0-chord-trigger-3-s;
#X msg 381 -225 62;
#X msg 473 -225 62;
#X obj 30 237 unpack;
#X obj -4 149 route 1, f 8;
#X obj -4 328 t b f;
#X obj 23 348 s \$0-pitch-in;
#X obj -4 460 s \$0-trigger;
#X obj -4 440 spigot;
#X floatatom 29 264 5 0 0 0 - - - 0;
#X obj -4 89 poly 1 1;
#X obj 29 284 s \$0-gate;
#X obj 663 -176 pack f 0;
#X obj 663 -192 +;
#X obj 678 -208 r \$0-oktave;
#X obj 571 -160 s \$0-to-poly;
#X obj 571 -192 +;
#X obj 586 -208 r \$0-oktave;
#X obj 571 -176 pack f 100;
#X obj 571 -241 sel 1 0;
#X obj 571 -257 r \$0-chord-trigger-4-s;
#X msg 571 -225 63;
#X msg 663 -225 63;
#X obj 853 -177 pack f 0;
#X obj 853 -193 +;
#X obj 868 -209 r \$0-oktave;
#X obj 761 -161 s \$0-to-poly;
#X obj 761 -193 +;
#X obj 776 -209 r \$0-oktave;
#X obj 761 -177 pack f 100;
#X obj 761 -242 sel 1 0;
#X obj 761 -258 r \$0-chord-trigger-5-s;
#X msg 761 -226 64;
#X msg 853 -226 64;
#X obj 1043 -177 pack f 0;
#X obj 1043 -193 +;
#X obj 1058 -209 r \$0-oktave;
#X obj 951 -161 s \$0-to-poly;
#X obj 951 -193 +;
#X obj 966 -209 r \$0-oktave;
#X obj 951 -177 pack f 100;
#X obj 951 -242 sel 1 0;
#X obj 951 -258 r \$0-chord-trigger-6-s;
#X msg 951 -226 65;
#X msg 1043 -226 65;
#X obj 93 -36 pack f 0;
#X obj 93 -52 +;
#X obj 108 -68 r \$0-oktave;
#X obj 1 -20 s \$0-to-poly;
#X obj 1 -52 +;
#X obj 16 -68 r \$0-oktave;
#X obj 1 -36 pack f 100;
#X obj 1 -101 sel 1 0;
#X obj 283 -36 pack f 0;
#X obj 283 -52 +;
#X obj 298 -68 r \$0-oktave;
#X obj 191 -20 s \$0-to-poly;
#X obj 191 -52 +;
#X obj 206 -68 r \$0-oktave;
#X obj 191 -36 pack f 100;
#X obj 191 -101 sel 1 0;
#X obj 473 -36 pack f 0;
#X obj 473 -52 +;
#X obj 488 -68 r \$0-oktave;
#X obj 381 -20 s \$0-to-poly;
#X obj 381 -52 +;
#X obj 396 -68 r \$0-oktave;
#X obj 381 -36 pack f 100;
#X obj 381 -101 sel 1 0;
#X obj 663 -36 pack f 0;
#X obj 663 -52 +;
#X obj 678 -68 r \$0-oktave;
#X obj 571 -20 s \$0-to-poly;
#X obj 571 -52 +;
#X obj 586 -68 r \$0-oktave;
#X obj 571 -36 pack f 100;
#X obj 571 -101 sel 1 0;
#X obj 853 -37 pack f 0;
#X obj 853 -53 +;
#X obj 868 -69 r \$0-oktave;
#X obj 761 -21 s \$0-to-poly;
#X obj 761 -53 +;
#X obj 776 -69 r \$0-oktave;
#X obj 761 -37 pack f 100;
#X obj 761 -102 sel 1 0;
#X obj 1043 -37 pack f 0;
#X obj 1043 -53 +;
#X obj 1058 -69 r \$0-oktave;
#X obj 951 -21 s \$0-to-poly;
#X obj 951 -53 +;
#X obj 966 -69 r \$0-oktave;
#X obj 951 -37 pack f 100;
#X obj 951 -102 sel 1 0;
#X obj 1 -117 r \$0-chord-trigger-7-s;
#X obj 191 -117 r \$0-chord-trigger-8-s;
#X obj 381 -117 r \$0-chord-trigger-9-s;
#X obj 571 -117 r \$0-chord-trigger-10-s;
#X obj 761 -118 r \$0-chord-trigger-11-s;
#X obj 951 -118 r \$0-chord-trigger-12-s;
#X msg 1 -85 66;
#X msg 93 -85 66;
#X msg 191 -85 67;
#X msg 283 -85 67;
#X msg 381 -85 68;
#X msg 473 -85 68;
#X msg 571 -85 69;
#X msg 663 -85 69;
#X msg 761 -86 70;
#X msg 853 -86 70;
#X msg 951 -86 71;
#X msg 1043 -86 71;
#X obj -4 305 stripnote;
#X obj 29 368 r \$0-ext-trigger-s;
#X obj 29 386 sel 1 0;
#X msg 29 404 0;
#X msg 60 404 1;
#X connect 0 0 44 0;
#X connect 1 0 38 0;
#X connect 2 0 1 0;
#X connect 3 0 37 0;
#X connect 3 0 145 0;
#X connect 4 0 8 0;
#X connect 5 0 6 0;
#X connect 6 0 4 0;
#X connect 7 0 6 1;
#X connect 9 0 10 0;
#X connect 10 0 12 0;
#X connect 11 0 10 1;
#X connect 12 0 8 0;
#X connect 13 0 9 0;
#X connect 13 1 5 0;
#X connect 14 0 13 0;
#X connect 15 0 18 0;
#X connect 16 0 15 0;
#X connect 17 0 16 1;
#X connect 19 0 21 0;
#X connect 20 0 19 1;
#X connect 21 0 18 0;
#X connect 22 0 24 0;
#X connect 22 1 25 0;
#X connect 23 0 22 0;
#X connect 24 0 19 0;
#X connect 25 0 16 0;
#X connect 26 0 29 0;
#X connect 27 0 26 0;
#X connect 28 0 27 1;
#X connect 30 0 32 0;
#X connect 31 0 30 1;
#X connect 32 0 29 0;
#X connect 33 0 35 0;
#X connect 33 1 36 0;
#X connect 34 0 33 0;
#X connect 35 0 30 0;
#X connect 36 0 27 0;
#X connect 37 1 43 0;
#X connect 38 0 3 0;
#X connect 39 0 42 0;
#X connect 39 1 40 0;
#X connect 42 0 41 0;
#X connect 43 0 45 0;
#X connect 44 0 2 0;
#X connect 44 1 2 1;
#X connect 44 2 2 2;
#X connect 46 0 49 0;
#X connect 47 0 46 0;
#X connect 48 0 47 1;
#X connect 50 0 52 0;
#X connect 51 0 50 1;
#X connect 52 0 49 0;
#X connect 53 0 55 0;
#X connect 53 1 56 0;
#X connect 54 0 53 0;
#X connect 55 0 50 0;
#X connect 56 0 47 0;
#X connect 57 0 60 0;
#X connect 58 0 57 0;
#X connect 59 0 58 1;
#X connect 61 0 63 0;
#X connect 62 0 61 1;
#X connect 63 0 60 0;
#X connect 64 0 66 0;
#X connect 64 1 67 0;
#X connect 65 0 64 0;
#X connect 66 0 61 0;
#X connect 67 0 58 0;
#X connect 68 0 71 0;
#X connect 69 0 68 0;
#X connect 70 0 69 1;
#X connect 72 0 74 0;
#X connect 73 0 72 1;
#X connect 74 0 71 0;
#X connect 75 0 77 0;
#X connect 75 1 78 0;
#X connect 76 0 75 0;
#X connect 77 0 72 0;
#X connect 78 0 69 0;
#X connect 79 0 82 0;
#X connect 80 0 79 0;
#X connect 81 0 80 1;
#X connect 83 0 85 0;
#X connect 84 0 83 1;
#X connect 85 0 82 0;
#X connect 86 0 133 0;
#X connect 86 1 134 0;
#X connect 87 0 90 0;
#X connect 88 0 87 0;
#X connect 89 0 88 1;
#X connect 91 0 93 0;
#X connect 92 0 91 1;
#X connect 93 0 90 0;
#X connect 94 0 135 0;
#X connect 94 1 136 0;
#X connect 95 0 98 0;
#X connect 96 0 95 0;
#X connect 97 0 96 1;
#X connect 99 0 101 0;
#X connect 100 0 99 1;
#X connect 101 0 98 0;
#X connect 102 0 137 0;
#X connect 102 1 138 0;
#X connect 103 0 106 0;
#X connect 104 0 103 0;
#X connect 105 0 104 1;
#X connect 107 0 109 0;
#X connect 108 0 107 1;
#X connect 109 0 106 0;
#X connect 110 0 139 0;
#X connect 110 1 140 0;
#X connect 111 0 114 0;
#X connect 112 0 111 0;
#X connect 113 0 112 1;
#X connect 115 0 117 0;
#X connect 116 0 115 1;
#X connect 117 0 114 0;
#X connect 118 0 141 0;
#X connect 118 1 142 0;
#X connect 119 0 122 0;
#X connect 120 0 119 0;
#X connect 121 0 120 1;
#X connect 123 0 125 0;
#X connect 124 0 123 1;
#X connect 125 0 122 0;
#X connect 126 0 143 0;
#X connect 126 1 144 0;
#X connect 127 0 86 0;
#X connect 128 0 94 0;
#X connect 129 0 102 0;
#X connect 130 0 110 0;
#X connect 131 0 118 0;
#X connect 132 0 126 0;
#X connect 133 0 83 0;
#X connect 134 0 80 0;
#X connect 135 0 91 0;
#X connect 136 0 88 0;
#X connect 137 0 99 0;
#X connect 138 0 96 0;
#X connect 139 0 107 0;
#X connect 140 0 104 0;
#X connect 141 0 115 0;
#X connect 142 0 112 0;
#X connect 143 0 123 0;
#X connect 144 0 120 0;
#X connect 145 0 39 0;
#X connect 146 0 147 0;
#X connect 147 0 148 0;
#X connect 147 1 149 0;
#X connect 148 0 42 1;
#X connect 149 0 42 1;
#X restore -246 181 pd keyboard-buttons;
#X obj 213 107 cnv 5 5 5 empty empty GATE\ 2 0 0 0 8 #fcfcfc #404040 0;
#X obj 220 114 cnv 10 10 10 empty \$0-gate2-gui empty 20 12 0 14 #202020 #fcfcfc 0;
#X obj 1014 26 snapshot~;
#X obj 1083 -9 tgl 15 0 empty empty empty 17 7 0 10 #fcfcfc #000000 #000000 0 1;
#X obj 1014 82 t f f;
#X obj 1014 48 change;
#X obj 1014 104 > 0;
#X obj 1083 9 metro 10;
#X obj 1016 -100 inlet~;
#X obj 1082 -74 env~;
#X obj 1082 -52 > 0;
#X obj 1082 -30 change;
#X floatatom 1104 123 5 0 0 0 - - - 0;
#X obj 1104 142 + 12;
#X msg 1104 164 color \$1;
#X text 773 -119 GATE IN 1;
#X text 1013 -119 GATE IN 2;
#X obj 1014 140 s \$0-trigger2;
#X obj 996 459 r \$0-trigger2;
#X obj 1025 629 - 12;
#X obj 157 172 bng 15 50 50 0 \$0-load-pattern2 \$0-load-pattern2-r LOAD -23 8 0 8 #fcfcfc #fc0400 #000000;
#X obj 187 172 bng 15 50 50 0 \$0-save-pattern2 empty SVE -15 8 0 8 #fcfcfc #fc0400 #000000;
#N canvas 248 92 743 501 table-to-gui 0;
#X msg 49 62 0;
#X obj 49 81 tabread \$0scale-info;
#X obj 49 100 s \$0-chord-type-1-r;
#X obj 49 43 r \$0update-gui;
#X obj 189 81 tabread \$0scale-info;
#X obj 189 43 r \$0update-gui;
#X msg 189 62 2;
#X obj 189 100 s \$0-chord-type-2-r;
#X obj 329 81 tabread \$0scale-info;
#X obj 329 43 r \$0update-gui;
#X obj 469 81 tabread \$0scale-info;
#X obj 469 43 r \$0update-gui;
#X msg 329 62 4;
#X msg 469 62 6;
#X obj 329 100 s \$0-chord-type-3-r;
#X obj 469 100 s \$0-chord-type-4-r;
#X obj 49 191 tabread \$0scale-info;
#X obj 49 153 r \$0update-gui;
#X obj 189 191 tabread \$0scale-info;
#X obj 189 153 r \$0update-gui;
#X obj 329 191 tabread \$0scale-info;
#X obj 329 153 r \$0update-gui;
#X obj 469 191 tabread \$0scale-info;
#X obj 469 153 r \$0update-gui;
#X msg 49 172 8;
#X msg 189 172 10;
#X msg 329 172 12;
#X msg 469 172 14;
#X obj 49 210 s \$0-chord-type-5-r;
#X obj 189 210 s \$0-chord-type-6-r;
#X obj 329 210 s \$0-chord-type-7-r;
#X obj 469 210 s \$0-chord-type-8-r;
#X obj 49 301 tabread \$0scale-info;
#X obj 49 263 r \$0update-gui;
#X obj 189 301 tabread \$0scale-info;
#X obj 189 263 r \$0update-gui;
#X obj 329 301 tabread \$0scale-info;
#X obj 329 263 r \$0update-gui;
#X obj 469 301 tabread \$0scale-info;
#X obj 469 263 r \$0update-gui;
#X msg 49 282 16;
#X msg 189 282 18;
#X msg 329 282 20;
#X msg 469 282 22;
#X obj 49 320 s \$0-chord-type-9-r;
#X obj 189 320 s \$0-chord-type-10-r;
#X obj 329 320 s \$0-chord-type-11-r;
#X obj 469 320 s \$0-chord-type-12-r;
#X connect 0 0 1 0;
#X connect 1 0 2 0;
#X connect 3 0 0 0;
#X connect 4 0 7 0;
#X connect 5 0 6 0;
#X connect 6 0 4 0;
#X connect 8 0 14 0;
#X connect 9 0 12 0;
#X connect 10 0 15 0;
#X connect 11 0 13 0;
#X connect 12 0 8 0;
#X connect 13 0 10 0;
#X connect 16 0 28 0;
#X connect 17 0 24 0;
#X connect 18 0 29 0;
#X connect 19 0 25 0;
#X connect 20 0 30 0;
#X connect 21 0 26 0;
#X connect 22 0 31 0;
#X connect 23 0 27 0;
#X connect 24 0 16 0;
#X connect 25 0 18 0;
#X connect 26 0 20 0;
#X connect 27 0 22 0;
#X connect 32 0 44 0;
#X connect 33 0 40 0;
#X connect 34 0 45 0;
#X connect 35 0 41 0;
#X connect 36 0 46 0;
#X connect 37 0 42 0;
#X connect 38 0 47 0;
#X connect 39 0 43 0;
#X connect 40 0 32 0;
#X connect 41 0 34 0;
#X connect 42 0 36 0;
#X connect 43 0 38 0;
#X restore -70 142 pd table-to-gui;
#X text -95 142 -->;
#N canvas 299 185 980 594 arp 0;
#X obj 12 31 inlet;
#X obj 122 31 inlet;
#X text 12 11 (I1) MIDI Note;
#X text 122 11 (I2) Velocity;
#X obj 274 297 >;
#X obj 274 318 sel 1;
#X obj 274 360 v \$0-int;
#X obj 212 325 + 1;
#X obj 212 346 v \$0-int;
#X obj 185 283 v \$0-int;
#X msg 274 339 0;
#X obj 185 561 t f f;
#X obj 331 603 div;
#X obj 185 587 %;
#X obj 319 550 r \$0-size;
#X obj 319 571 t f f;
#X obj 185 650 unpack f f;
#X obj 185 671 +;
#X obj 331 624 * 12;
#X obj 185 692 pack f f;
#X obj 222 31 inlet;
#X obj 222 52 + 1;
#X obj 535 239 v \$0-int;
#X obj 594 323 sel 1;
#X obj 539 390 + 1;
#X obj 539 411 v \$0-int;
#X obj 535 260 t b f f;
#X obj 497 286 v \$0-int;
#X msg 594 344 -1;
#X obj 554 323 sel 0;
#X msg 554 344 1;
#X obj 594 302 >=;
#X obj 497 349 min;
#X obj 335 383 list prepend;
#X obj 335 404 -;
#X text 222 11 (I3) Octave;
#X obj 312 31 inlet;
#X text 312 11 (I4) Direction;
#X obj 531 132 v \$0-direction;
#X obj 312 73 s \$0-direction;
#X obj 312 94 v \$0-direction;
#X obj 237 389 r \$0-direction;
#X obj 204 431 spigot;
#X obj 237 410 == 0;
#X obj 335 446 spigot;
#X obj 368 404 r \$0-direction;
#X obj 368 425 == 1;
#X obj 532 43 inlet;
#X obj 185 304 t f f;
#X obj 497 307 t f f;
#X obj 602 260 t f f;
#X obj 497 370 s \$0-counter;
#X obj 335 467 s \$0-counter;
#X obj 352 30 loadbang;
#X msg 352 51 0;
#X obj 405 728 makenote \$2 100;
#X obj 406 752 outlet;
#X obj 274 255 v \$0-int;
#X obj 185 239 t b b;
#X obj 12 52 list prepend;
#N canvas 907 118 449 504 register-&-sort 0;
#X obj 39 54 tabwrite \$0-velocity;
#X obj 12 33 t b l;
#X obj 31 160 t b b;
#X msg 31 181 127;
#X obj 31 202 until;
#X obj 56 223 i;
#X obj 86 223 + 1;
#X msg 71 181 0;
#X obj 56 244 t f f;
#X obj 101 265 tabread \$0-velocity;
#X obj 12 96 t b b b;
#X obj 51 138 text define \$0-note-on;
#X msg 51 117 clear;
#X obj 12 405 text size \$0-note-on;
#X obj 12 426 s \$0-size;
#X text 56 369 [3] Read notes with velocity greater than zero and insert them on the note-on text array.;
#X text 91 117 [2] Clear note-on text array.;
#X text 49 34 [1] Register velocity of all notes.;
#X text 12 466 [4] Get size of note-on: number of active notes;
#X obj 12 446 v \$0-size;
#X obj 56 349 text insert \$0-note-on 127;
#X obj 12 12 inlet;
#X obj 39 74 array define -yrange 0 127 \$0-velocity 127;
#X obj 101 286 t f f;
#X obj 128 312 > 0;
#X obj 56 328 spigot;
#X obj 56 307 pack f f;
#X connect 1 0 10 0;
#X connect 1 1 0 0;
#X connect 2 0 3 0;
#X connect 2 1 7 0;
#X connect 3 0 4 0;
#X connect 4 0 5 0;
#X connect 5 0 6 0;
#X connect 5 0 8 0;
#X connect 6 0 5 1;
#X connect 7 0 5 1;
#X connect 8 0 26 0;
#X connect 8 1 9 0;
#X connect 9 0 23 0;
#X connect 10 0 13 0;
#X connect 10 1 2 0;
#X connect 10 2 12 0;
#X connect 12 0 11 0;
#X connect 13 0 14 0;
#X connect 21 0 1 0;
#X connect 23 0 26 1;
#X connect 23 1 24 0;
#X connect 24 0 25 1;
#X connect 25 0 20 0;
#X connect 26 0 25 0;
#X restore 66 114 pd register-&-sort;
#X obj 39 93 t l l;
#X obj 185 608 text get \$0-note-order;
#X obj 12 73 t b l;
#X obj 12 177 > 0;
#X obj 12 198 change;
#X obj 12 219 t f f;
#X obj 39 240 sel 1;
#X obj 39 261 s \$0-on;
#X obj 89 261 r \$0-on;
#X obj 89 303 v \$0-int;
#X msg 89 282 0;
#X obj 12 282 s \$0-gate;
#X obj 12 156 v \$0-size;
#X msg 185 629 \$2 \$3;
#X obj 212 94 r \$0-size;
#X obj 222 136 - 1;
#X obj 222 73 t b f;
#X obj 222 115 * 1;
#X obj 222 157 s \$0-t-size;
#X obj 289 276 r \$0-t-size;
#X obj 602 239 r \$0-t-size;
#X obj 404 362 r \$0-t-size;
#N canvas 571 257 551 403 note-order 0;
#X obj 176 75 > 0;
#X msg 206 167 1;
#X obj 221 188 +;
#X obj 251 188 i;
#X obj 236 75 r \$0-size;
#X obj 236 96 sel 0;
#X msg 236 167 0;
#X obj 236 117 t b b;
#X obj 176 209 tabwrite \$0-note-order;
#X obj 176 146 sel 0 1;
#X msg 176 167 0;
#X obj 248 49 unpack f f;
#X msg 263 138 const 0;
#X obj 12 33 t l l;
#X obj 31 138 t b b;
#X msg 31 159 127;
#X obj 31 180 until;
#X obj 56 201 i;
#X obj 86 201 + 1;
#X msg 71 159 0;
#X msg 51 96 clear;
#X obj 12 117 text define \$0-note-order;
#X obj 263 159 array define -yrange 0 127 \$0-note-order 127;
#X obj 56 222 t f f;
#X obj 194 269 tabread \$0-note-order;
#X obj 194 290 t f f;
#X obj 221 311 > 0;
#X obj 56 243 t f f;
#X obj 56 285 pack f f;
#X obj 66 264 tabread \$0-velocity;
#X obj 56 306 list prepend;
#X obj 56 327 spigot;
#X obj 56 348 text insert \$0-note-order 0;
#X msg 12 80 sort;
#X obj 12 59 t b b b;
#X obj 12 12 inlet;
#X text 176 229 [1] Assign note order to each note;
#X text 16 369 [2] Sort note order into a text object;
#X connect 0 0 9 0;
#X connect 1 0 2 0;
#X connect 2 0 3 0;
#X connect 2 0 8 0;
#X connect 3 0 2 1;
#X connect 4 0 5 0;
#X connect 5 0 7 0;
#X connect 6 0 2 1;
#X connect 7 0 6 0;
#X connect 7 1 12 0;
#X connect 9 0 10 0;
#X connect 9 1 1 0;
#X connect 10 0 8 0;
#X connect 11 0 0 0;
#X connect 11 1 8 1;
#X connect 12 0 22 0;
#X connect 13 0 34 0;
#X connect 13 1 11 0;
#X connect 14 0 15 0;
#X connect 14 1 19 0;
#X connect 15 0 16 0;
#X connect 16 0 17 0;
#X connect 17 0 18 0;
#X connect 17 0 23 0;
#X connect 18 0 17 1;
#X connect 19 0 17 1;
#X connect 20 0 21 0;
#X connect 23 0 27 0;
#X connect 23 1 24 0;
#X connect 24 0 25 0;
#X connect 25 0 30 1;
#X connect 25 1 26 0;
#X connect 26 0 31 1;
#X connect 27 0 28 0;
#X connect 27 1 29 0;
#X connect 28 0 30 0;
#X connect 29 0 28 1;
#X connect 30 0 31 0;
#X connect 31 0 32 0;
#X connect 33 0 21 0;
#X connect 34 0 33 0;
#X connect 34 1 14 0;
#X connect 34 2 20 0;
#X connect 35 0 13 0;
#X restore 39 135 pd note-order;
#X obj 531 153 s \$0-dir;
#X obj 185 197 r \$0-dir;
#X obj 535 197 r \$0-dir;
#X obj 535 218 sel 2;
#X obj 685 197 r \$0-dir;
#X obj 695 239 random;
#X obj 728 218 r \$0-t-size;
#X obj 695 260 s \$0-counter;
#X obj 185 218 sel 0 1 3;
#X obj 218 498 r \$0-direction;
#X obj 185 540 spigot;
#X obj 218 519 == 3;
#X obj 405 582 t f f;
#X obj 551 634 div;
#X obj 405 608 %;
#X obj 539 571 r \$0-size;
#X obj 539 592 t f f;
#X obj 405 650 unpack f f;
#X obj 405 671 +;
#X obj 551 655 * 12;
#X obj 405 692 pack f f;
#X obj 405 629 text get \$0-note-on;
#X obj 204 452 s \$0-counter;
#X obj 405 561 r \$0-counter;
#X obj 685 218 sel 4;
#X obj 185 367 t f f f;
#X text 204 472 // Up;
#X text 335 487 // Down;
#X text 497 430 // Up and Down;
#X text 695 280 // Random;
#X text 245 692 // Note order;
#X text 405 541 // Up \, Down \, Up/Down & Counter;
#X obj 492 707 r \$0-tempo;
#X text 405 769 (O1) Note;
#X text 492 769 (O2) Velocity;
#X text 531 21 // Clock in;
#X obj 493 752 outlet;
#X connect 0 0 59 0;
#X connect 1 0 59 1;
#X connect 4 0 5 0;
#X connect 5 0 10 0;
#X connect 7 0 8 0;
#X connect 9 0 48 0;
#X connect 10 0 6 0;
#X connect 11 0 13 0;
#X connect 11 1 12 0;
#X connect 12 0 18 0;
#X connect 13 0 62 0;
#X connect 14 0 15 0;
#X connect 15 0 13 1;
#X connect 15 1 12 1;
#X connect 16 0 17 0;
#X connect 16 1 19 1;
#X connect 17 0 19 0;
#X connect 18 0 17 1;
#X connect 19 0 55 0;
#X connect 20 0 21 0;
#X connect 21 0 77 0;
#X connect 22 0 26 0;
#X connect 23 0 28 0;
#X connect 24 0 25 0;
#X connect 26 0 27 0;
#X connect 26 1 29 0;
#X connect 26 2 31 0;
#X connect 27 0 49 0;
#X connect 28 0 24 1;
#X connect 29 0 30 0;
#X connect 30 0 24 1;
#X connect 31 0 23 0;
#X connect 32 0 51 0;
#X connect 33 0 34 0;
#X connect 34 0 44 0;
#X connect 36 0 39 0;
#X connect 38 0 84 0;
#X connect 41 0 43 0;
#X connect 42 0 106 0;
#X connect 43 0 42 1;
#X connect 44 0 52 0;
#X connect 45 0 46 0;
#X connect 46 0 44 1;
#X connect 47 0 38 0;
#X connect 48 0 109 0;
#X connect 48 1 7 0;
#X connect 49 0 32 0;
#X connect 49 1 24 0;
#X connect 50 0 32 1;
#X connect 50 1 31 1;
#X connect 53 0 54 0;
#X connect 54 0 39 0;
#X connect 55 0 56 0;
#X connect 55 1 120 0;
#X connect 57 0 4 0;
#X connect 58 0 9 0;
#X connect 58 1 57 0;
#X connect 59 0 63 0;
#X connect 61 0 83 0;
#X connect 61 1 60 0;
#X connect 62 0 74 0;
#X connect 63 0 73 0;
#X connect 63 1 61 0;
#X connect 64 0 65 0;
#X connect 65 0 66 0;
#X connect 66 0 72 0;
#X connect 66 1 67 0;
#X connect 67 0 68 0;
#X connect 69 0 71 0;
#X connect 71 0 70 0;
#X connect 73 0 64 0;
#X connect 74 0 16 0;
#X connect 75 0 78 0;
#X connect 76 0 79 0;
#X connect 77 0 78 0;
#X connect 77 1 78 1;
#X connect 78 0 76 0;
#X connect 80 0 4 1;
#X connect 81 0 50 0;
#X connect 82 0 33 1;
#X connect 85 0 92 0;
#X connect 86 0 87 0;
#X connect 87 0 22 0;
#X connect 88 0 108 0;
#X connect 89 0 91 0;
#X connect 90 0 89 1;
#X connect 92 0 58 0;
#X connect 92 1 58 0;
#X connect 92 2 58 0;
#X connect 93 0 95 0;
#X connect 94 0 11 0;
#X connect 95 0 94 1;
#X connect 96 0 98 0;
#X connect 96 1 97 0;
#X connect 97 0 103 0;
#X connect 98 0 105 0;
#X connect 99 0 100 0;
#X connect 100 0 98 1;
#X connect 100 1 97 1;
#X connect 101 0 102 0;
#X connect 101 1 104 1;
#X connect 102 0 104 0;
#X connect 103 0 102 1;
#X connect 104 0 55 0;
#X connect 105 0 101 0;
#X connect 107 0 96 0;
#X connect 108 0 89 0;
#X connect 109 0 94 0;
#X connect 109 1 33 0;
#X connect 109 1 42 0;
#X connect 116 0 55 2;
#X restore 230 763 pd arp;
#X f 27;
#X obj 256 715 unpack f f;
#X obj 256 806 pack f ff;
#X obj 801 804 outlet;
#X text 768 825 ARP-MIDI-OUTPUT;
#X obj 1202 -98 inlet~;
#X obj 1202 -74 threshold~ 0.99 0 0.99 0;
#X text 1193 -118 CLOCK IN;
#X obj 251 225 cnv 5 5 5 empty empty ARP-OKTAVE 0 0 0 8 #fcfcfc #000000 0;
#X obj 157 253 tgl 15 0 \$0-chord-trigger-2-s \$0-chord-trigger-2-r empty 0 -8 0 10 #ffc7c6 #000000 #000000 0 1;
#X obj 157 268 tgl 15 0 \$0-chord-trigger-1-s \$0-chord-trigger-1-r empty 0 -8 0 10 #c6ffc7 #000000 #000000 0 1;
#X obj 172 253 tgl 15 0 \$0-chord-trigger-4-s \$0-chord-trigger-4-r empty 0 -8 0 10 #c6ffc7 #000000 #000000 0 1;
#X obj 172 268 tgl 15 0 \$0-chord-trigger-3-s \$0-chord-trigger-3-r empty 0 -8 0 10 #c6ffc7 #000000 #000000 0 1;
#X obj 187 268 tgl 15 0 \$0-chord-trigger-5-s \$0-chord-trigger-5-r empty 0 -8 0 10 #ffc7c6 #000000 #000000 0 1;
#X obj 202 253 tgl 15 0 \$0-chord-trigger-7-s \$0-chord-trigger-7-r empty 0 -8 0 10 #ffc7c6 #000000 #000000 0 1;
#X obj 202 268 tgl 15 0 \$0-chord-trigger-6-s \$0-chord-trigger-6-r empty 0 -8 0 10 #c6ffc7 #000000 #000000 0 1;
#X obj 217 253 tgl 15 0 \$0-chord-trigger-9-s \$0-chord-trigger-9-r empty 0 -8 0 10 #ffc7c6 #000000 #000000 0 1;
#X obj 217 268 tgl 15 0 \$0-chord-trigger-8-s \$0-chord-trigger-8-r empty 0 -8 0 10 #c6ffc7 #000000 #000000 0 1;
#X obj 232 268 tgl 15 0 \$0-chord-trigger-10-s \$0-chord-trigger-10-r empty 0 -8 0 10 #c6ffc7 #000000 #000000 0 1;
#X obj 232 253 tgl 15 0 \$0-chord-trigger-11-s \$0-chord-trigger-11-r empty 0 -8 0 10 #c6ffc7 #000000 #000000 0 1;
#X obj 247 268 tgl 15 0 \$0-chord-trigger-12-s \$0-chord-trigger-12-r empty 0 -8 0 10 #ffc7c6 #000000 #000000 0 1;
#X obj 30 513 - 2;
#X obj 30 531 * 12;
#X floatatom 30 549 5 0 0 0 - - - 0;
#X obj 30 566 s \$0-oktave;
#X obj -80 364 r \$0-gate;
#X obj -80 552 s \$0-reset;
#X obj -80 413 sel 0;
#X obj 1215 574 del;
#X obj 1230 517 r \$0-chord-spread;
#N canvas 151 36 1049 751 bank-counter 0;
#X obj 82 61 inlet;
#X obj 271 60 inlet;
#X obj 94 326 outlet;
#X floatatom 94 213 5 0 0 0 - - - 0;
#X floatatom 94 260 5 0 0 0 - - - 0;
#X obj 129 187 f;
#X obj 94 186 +;
#X msg 94 155 -1;
#X msg 133 154 1;
#X msg 175 154 0;
#X obj 175 44 loadbang;
#X obj 94 236 mod 5;
#X obj 94 292 - 2;
#X connect 0 0 7 0;
#X connect 1 0 8 0;
#X connect 3 0 11 0;
#X connect 4 0 12 0;
#X connect 5 0 6 1;
#X connect 6 0 5 0;
#X connect 6 0 3 0;
#X connect 7 0 6 0;
#X connect 8 0 6 0;
#X connect 9 0 6 0;
#X connect 10 0 9 0;
#X connect 11 0 4 0;
#X connect 12 0 2 0;
#X restore 155 672 pd bank-counter;
#X floatatom 150 718 5 0 0 0 - - - 0;
#X obj 157 236 hradio 15 1 0 5 empty empty empty 0 -8 0 10 #fcfcfc #000000 #000000 0;
#X obj 40 180 loadbang;
#X msg 40 201 2;
#X obj -80 532 spigot;
#X obj -45 436 r \$0-hold-s;
#X obj -45 457 sel 1 0;
#X msg -45 489 0;
#X msg -14 489 1;
#X obj -40 318 s \$0-ext-trigger-s;
#X obj 247 238 tgl 15 1 \$0-ext-trigger-s \$0-ext-trigger-r empty 17 7 0 10 #fcfcfc #000000 #000000 0 1;
#X obj 267 245 cnv 5 5 5 empty empty EXT-TRIG 0 0 0 8 #fcfcfc #000000 0;
#X obj -33 533 t b;
#X obj 774 186 s \$0-trigger-raw;
#X obj -246 479 spigot;
#X obj -246 392 r \$0-trigger-raw;
#X obj -213 416 r \$0-ext-trigger-s;
#X obj -194 564 bng 16 250 50 0 empty empty empty 0 -8 0 10 #fcfcfc #000000 #000000;
#X obj -246 513 s \$0-ext-trigger;
#X obj 491 385 r \$0-ext-trigger;
#X obj 491 437 spigot;
#X obj 611 385 r \$0-ext-trigger;
#X obj 611 437 spigot;
#X obj 731 385 r \$0-ext-trigger;
#X obj 731 437 spigot;
#X obj 851 385 r \$0-ext-trigger;
#X obj 851 437 spigot;
#X obj 988 385 r \$0-ext-trigger;
#X obj 988 437 spigot;
#X obj 1104 186 s \$0-gate2-gui;
#X obj 524 409 r \$0-gate;
#X obj 644 409 r \$0-gate;
#X obj 764 409 r \$0-gate;
#X obj 884 409 r \$0-gate;
#X obj 1021 409 r \$0-gate;
#X text 251 -112 ARP-GUI:;
#X obj 52 -7 vsl 16 136 0 127 0 0 empty empty empty 0 -9 0 10 #fcfcfc #000000 #000000 0 1;
#N canvas 237 262 450 300 delay 0;
#X obj 35 25 inlet;
#X obj 38 248 outlet;
#X obj 38 129 del;
#X obj 99 57 r \$0-random-trigger;
#X obj 100 85 random 150;
#X floatatom 99 165 5 0 0 0 - - - 0;
#X connect 0 0 2 0;
#X connect 2 0 1 0;
#X connect 3 0 4 0;
#X connect 4 0 2 1;
#X connect 4 0 5 0;
#X restore 491 588 pd delay;
#N canvas 237 262 450 300 delay 0;
#X obj 35 25 inlet;
#X obj 38 248 outlet;
#X obj 38 129 del;
#X obj 99 57 r \$0-random-trigger;
#X obj 100 85 random 150;
#X connect 0 0 2 0;
#X connect 2 0 1 0;
#X connect 3 0 4 0;
#X connect 4 0 2 1;
#X restore 611 589 pd delay;
#N canvas 237 262 450 300 delay 0;
#X obj 35 25 inlet;
#X obj 38 248 outlet;
#X obj 38 129 del;
#X obj 99 57 r \$0-random-trigger;
#X obj 100 85 random 150;
#X connect 0 0 2 0;
#X connect 2 0 1 0;
#X connect 3 0 4 0;
#X connect 4 0 2 1;
#X restore 731 582 pd delay;
#N canvas 237 262 450 300 delay 0;
#X obj 35 25 inlet;
#X obj 38 248 outlet;
#X obj 38 129 del;
#X obj 99 57 r \$0-random-trigger;
#X obj 100 85 random 150;
#X connect 0 0 2 0;
#X connect 2 0 1 0;
#X connect 3 0 4 0;
#X connect 4 0 2 1;
#X restore 852 583 pd delay;
#N canvas 237 262 450 300 delay 0;
#X obj 35 25 inlet;
#X obj 38 248 outlet;
#X obj 38 129 del;
#X obj 100 85 random 50;
#X obj 99 57 r \$0-random-trigger;
#X connect 0 0 2 0;
#X connect 2 0 1 0;
#X connect 3 0 2 1;
#X connect 4 0 3 0;
#X restore 1016 563 pd delay;
#X obj 424 304 bng 16 250 50 0 \$0-random-trigger empty empty 0 -8 0 10 #fcfcfc #000000 #000000;
#N canvas 237 262 450 300 delay 0;
#X obj 35 25 inlet;
#X obj 38 248 outlet;
#X obj 38 129 del;
#X obj 99 57 r \$0-random-trigger;
#X floatatom 128 134 5 0 0 0 - - - 0;
#X obj 100 85 random 10;
#X connect 0 0 2 0;
#X connect 2 0 1 0;
#X connect 3 0 5 0;
#X connect 5 0 2 1;
#X connect 5 0 4 0;
#X restore 403 652 pd delay;
#X connect 3 0 5 0;
#X connect 5 0 7 0;
#X connect 7 0 4 0;
#X connect 17 0 19 1;
#X connect 18 0 19 0;
#X connect 19 0 23 0;
#X connect 20 0 18 0;
#X connect 20 1 17 0;
#X connect 22 0 20 0;
#X connect 30 0 31 0;
#X connect 31 0 32 0;
#X connect 32 0 34 0;
#X connect 35 0 64 0;
#X connect 36 0 40 1;
#X connect 39 0 40 0;
#X connect 40 0 38 0;
#X connect 42 0 39 0;
#X connect 42 1 36 0;
#X connect 43 0 42 0;
#X connect 49 0 52 0;
#X connect 50 0 54 0;
#X connect 51 0 53 0;
#X connect 52 0 51 0;
#X connect 53 0 60 0;
#X connect 53 0 247 0;
#X connect 54 0 49 0;
#X connect 55 0 49 0;
#X connect 55 0 56 0;
#X connect 56 0 57 0;
#X connect 57 0 58 0;
#X connect 58 0 50 0;
#X connect 60 0 61 0;
#X connect 61 0 62 0;
#X connect 62 0 63 0;
#X connect 65 0 90 0;
#X connect 66 0 67 0;
#X connect 67 0 88 0;
#X connect 69 0 71 0;
#X connect 70 0 72 0;
#X connect 71 0 76 0;
#X connect 72 0 69 0;
#X connect 73 0 74 0;
#X connect 74 0 75 0;
#X connect 75 0 70 0;
#X connect 76 0 77 0;
#X connect 77 0 79 0;
#X connect 78 0 69 0;
#X connect 78 0 73 0;
#X connect 81 0 65 0;
#X connect 84 0 87 0;
#X connect 87 0 86 0;
#X connect 88 0 91 0;
#X connect 90 0 92 0;
#X connect 90 1 66 0;
#X connect 98 0 203 3;
#X connect 99 0 203 2;
#X connect 109 0 11 0;
#X connect 109 0 204 0;
#X connect 110 0 109 0;
#X connect 111 0 271 0;
#X connect 112 0 109 1;
#X connect 113 0 110 0;
#X connect 113 1 112 0;
#X connect 114 0 110 0;
#X connect 114 1 115 0;
#X connect 115 0 109 1;
#X connect 116 0 113 0;
#X connect 117 0 119 0;
#X connect 118 0 121 0;
#X connect 119 0 118 1;
#X connect 119 1 120 1;
#X connect 120 0 110 1;
#X connect 121 0 114 0;
#X connect 121 1 120 0;
#X connect 122 0 118 0;
#X connect 122 1 113 0;
#X connect 123 0 11 0;
#X connect 123 0 204 0;
#X connect 124 0 123 0;
#X connect 125 0 272 0;
#X connect 126 0 123 1;
#X connect 127 0 124 0;
#X connect 127 1 126 0;
#X connect 128 0 124 0;
#X connect 128 1 129 0;
#X connect 129 0 123 1;
#X connect 130 0 127 0;
#X connect 131 0 134 0;
#X connect 132 0 131 1;
#X connect 132 1 133 1;
#X connect 133 0 124 1;
#X connect 134 0 128 0;
#X connect 134 1 133 0;
#X connect 135 0 131 0;
#X connect 135 1 127 0;
#X connect 136 0 132 0;
#X connect 137 0 11 0;
#X connect 137 0 204 0;
#X connect 138 0 137 0;
#X connect 139 0 273 0;
#X connect 140 0 137 1;
#X connect 141 0 138 0;
#X connect 141 1 140 0;
#X connect 142 0 138 0;
#X connect 142 1 143 0;
#X connect 143 0 137 1;
#X connect 144 0 141 0;
#X connect 145 0 148 0;
#X connect 146 0 145 1;
#X connect 146 1 147 1;
#X connect 147 0 138 1;
#X connect 148 0 142 0;
#X connect 148 1 147 0;
#X connect 149 0 145 0;
#X connect 149 1 141 0;
#X connect 150 0 146 0;
#X connect 151 0 11 0;
#X connect 151 0 204 0;
#X connect 152 0 151 0;
#X connect 153 0 274 0;
#X connect 154 0 151 1;
#X connect 155 0 152 0;
#X connect 155 1 154 0;
#X connect 156 0 152 0;
#X connect 156 1 157 0;
#X connect 157 0 151 1;
#X connect 158 0 155 0;
#X connect 159 0 162 0;
#X connect 160 0 159 1;
#X connect 160 1 161 1;
#X connect 161 0 152 1;
#X connect 162 0 156 0;
#X connect 162 1 161 0;
#X connect 163 0 159 0;
#X connect 163 1 155 0;
#X connect 164 0 160 0;
#X connect 165 0 103 0;
#X connect 166 0 165 0;
#X connect 167 0 165 1;
#X connect 168 0 166 0;
#X connect 168 1 167 0;
#X connect 169 0 166 0;
#X connect 169 1 170 0;
#X connect 170 0 165 1;
#X connect 171 0 168 0;
#X connect 172 0 175 0;
#X connect 173 0 172 1;
#X connect 173 1 174 1;
#X connect 174 0 166 1;
#X connect 175 0 169 0;
#X connect 175 1 174 0;
#X connect 176 0 172 0;
#X connect 176 1 168 0;
#X connect 177 0 198 0;
#X connect 181 0 184 0;
#X connect 182 0 186 0;
#X connect 183 0 185 0;
#X connect 184 0 183 0;
#X connect 185 0 191 0;
#X connect 185 0 196 0;
#X connect 186 0 181 0;
#X connect 187 0 181 0;
#X connect 187 0 188 0;
#X connect 188 0 189 0;
#X connect 189 0 190 0;
#X connect 190 0 182 0;
#X connect 191 0 192 0;
#X connect 192 0 193 0;
#X connect 193 0 263 0;
#X connect 197 0 176 0;
#X connect 198 0 173 0;
#X connect 203 0 205 0;
#X connect 203 1 205 1;
#X connect 204 0 203 0;
#X connect 204 1 203 1;
#X connect 205 0 206 0;
#X connect 208 0 209 0;
#X connect 209 0 277 0;
#X connect 209 0 276 0;
#X connect 224 0 225 0;
#X connect 225 0 226 0;
#X connect 226 0 227 0;
#X connect 228 0 230 0;
#X connect 230 0 238 0;
#X connect 232 0 231 1;
#X connect 233 0 234 0;
#X connect 235 0 224 0;
#X connect 236 0 237 0;
#X connect 237 0 235 0;
#X connect 238 0 229 0;
#X connect 239 0 240 0;
#X connect 240 0 241 0;
#X connect 240 1 242 0;
#X connect 241 0 238 1;
#X connect 242 0 238 1;
#X connect 242 0 246 0;
#X connect 246 0 229 0;
#X connect 248 0 251 0;
#X connect 248 0 252 0;
#X connect 249 0 248 0;
#X connect 250 0 248 1;
#X connect 253 0 254 0;
#X connect 254 0 271 0;
#X connect 255 0 256 0;
#X connect 256 0 272 0;
#X connect 257 0 258 0;
#X connect 258 0 273 0;
#X connect 259 0 260 0;
#X connect 260 0 274 0;
#X connect 261 0 262 0;
#X connect 262 0 176 0;
#X connect 264 0 254 1;
#X connect 265 0 256 1;
#X connect 266 0 258 1;
#X connect 267 0 260 1;
#X connect 268 0 262 1;
#X connect 271 0 122 0;
#X connect 272 0 135 0;
#X connect 273 0 149 0;
#X connect 274 0 163 0;
#X connect 277 0 203 4;
#X coords 0 -1 1 1 250 280 2 100 100;
