#N canvas 71 25 1369 787 10;
#X obj -203 626 tabread4~ \$0-sampleL;
#X obj -203 777 outlet~;
#X obj -203 649 hip~ 5;
#X obj -203 757 *~;
#X obj -188 737 vline~;
#X obj -202 96 inlet;
#X obj -202 118 stripnote;
#X floatatom 188 371 24 0 0 0 - - - 0;
#X obj 101 352 unpack symbol f;
#X listbox 101 406 19 0 0 0 - - - 0;
#X obj 188 388 s \$0-samplelength;
#X msg -54 564 set \$1;
#X obj 94 448 s \$0-sample-name;
#X obj -54 515 r \$0-sample-name;
#X obj 94 426 symbol;
#X obj -203 545 vline~;
#X floatatom 428 360 16 0 0 0 - - - 0;
#X obj -203 486 pack 0 0 0;
#X msg -203 524 \$1 \, \$2 \$3;
#X obj -203 505 t a a;
#X msg -203 467 0;
#X obj 428 339 expr 60000/$f1;
#X floatatom 428 441 10 0 0 0 - - - 0;
#X obj -145 418 r \$0-samplelength;
#X obj -165 457 f;
#X obj 428 420 * 4;
#X obj 114 203 hsl 128 15 0 127 0 1 \$0-2-s \$0-2-r BARS 133 7 0 10 #fcfcfc #000000 #000000 1000 1;
#X obj 552 261 / 127;
#X floatatom 552 324 5 0 0 0 - - - 0;
#X obj 552 344 i;
#X floatatom 552 365 5 0 0 0 - - - 0;
#X obj 552 302 + 1;
#X floatatom 212 188 5 0 0 0 - - - 0;
#X obj 552 409 t b f;
#X obj 552 385 * 4;
#X obj 883 59 inlet~;
#X text 880 38 RESET IN;
#X obj 883 133 t b b;
#X obj 883 111 threshold~ 0.99 0 1 0;
#X msg 886 343 0 5;
#X msg 472 148 1;
#X obj 428 149 f \$0;
#X obj 428 168 pack f f;
#X obj 428 130 t b b;
#X obj 428 110 r \$0-editor-button;
#N canvas 208 233 620 306 \$0-editor 0;
#N canvas 0 25 1440 789 sample-editor 0;
#N canvas 0 22 450 278 (subpatch) 0;
#X array \$1-sample-editor 3.36147e+06 float 2;
#X coords 0 1 3.36147e+06 -1 500 140 1 0 0;
#X restore 148 127 graph;
#X obj 149 273 bng 16 250 50 0 empty empty Normalize 20 8 0 10 #fcfcfc #000000 #000000;
#X obj 148 341 bng 16 250 50 0 empty empty Load\ from\ Computer 20 8 0 10 #fcfcfc #000000 #000000;
#X obj 748 273 loadbang;
#X floatatom 748 163 5 0 0 0 - - - 0;
#X msg 748 100 click;
#X msg 579 705 1e+15;
#X floatatom 876 202 5 0 0 0 - - - 0;
#X floatatom 834 163 5 0 0 0 - - - 0;
#X obj 487 288 hradio 16 1 0 10 empty empty empty 0 -8 0 10 #fcfcfc #000000 #000000 0;
#X floatatom 615 273 5 0 0 0 - - - 0;
#X obj 460 341 bng 16 250 50 0 empty empty LOAD\ FROM\ LIBRARY 20 8 0 10 #fcfcfc #000000 #000000;
#X obj 309 342 bng 16 250 50 0 empty empty SAVE\ TO\ LIBRARY 20 8 0 10 #fcfcfc #000000 #000000;
#X obj 493 626 pack s f;
#X obj 536 506 f;
#X floatatom 834 220 5 0 0 0 - - - 0;
#X obj 747 202 unpack symbol f;
#X listbox 747 237 19 0 0 0 - - - 0;
#X obj 237 276 bng 16 250 50 0 empty empty Reload\ Library 20 8 0 10 #fcfcfc #000000 #000000;
#X obj 747 183 text get \$0-library, f 22;
#X obj 748 122 text define -k \$0-library;
#A set 1loop0 3.36147e+06 \; 1loop1 685775 \; 2loop2 44100 \; 1loop3 325757 \; 1loop4 2.49035e+06 \; tzf 1;
#X f 27;
#X obj 536 723 text set \$0-library, f 22;
#X msg 509 533 loop\$1;
#X obj 1185 528 r patch-path;
#X msg 1148 637 write /Volumes/MODFORMER/patch2/loops/1loop0.wav 1-sample-editor;
#X obj 1168 457 s update-path;
#X obj 1147 529 f;
#X obj 1147 550 t b f;
#X obj 148 518 t b b;
#X obj 148 537 openpanel;
#X obj 149 500 bng 16 250 50 0 empty empty empty 0 -8 0 10 #fcfcfc #000000 #000000;
#X obj 146 594 soundfiler;
#X obj 148 557 pack s f;
#X msg 146 576 read -resize \$1 \$2-sample-editor;
#X obj 1148 677 soundfiler;
#X floatatom 1148 695 31 0 0 0 - - - 0;
#X obj 1158 596 pack f s f;
#X msg 324 525 \; \$1-sample-editor normalize;
#X obj 748 293 f \$0;
#X msg 748 313 \; \$1-sample-editor edit 0;
#X obj 781 506 r patch-path;
#X msg 744 615 read /Users/johannklug/Documents/Bass\ Dieter/2025/Diet/MODULAR_LIVE_\ PERFORMER/patch1/loops/2loop3.wav 2-sample-editor;
#X obj 764 485 s update-path;
#X obj 743 507 f;
#X obj 743 528 t b f;
#X obj 1214 500 soundfiler;
#X msg 1214 481 write sample-library/loop\$1.wav \$0-sample-editor;
#X obj 744 655 soundfiler;
#X floatatom 744 673 31 0 0 0 - - - 0;
#X obj 754 574 pack f s f;
#X text 728 437 This reads the wav from the project folder:;
#X text 1128 401 This writes the wav to the project folder:;
#X floatatom 1073 563 5 0 0 0 - - - 0;
#X obj 1129 424 t b b b b;
#X obj 725 465 t b b b b;
#X obj 237 395 s reload-sample-ram;
#X msg 754 593 set read \$2/loops/\$3loop\$1.wav \$3-sample-editor;
#X msg 1158 615 set write \$2/loops/\$3loop\$1.wav \$3-sample-editor;
#X floatatom 618 539 5 0 0 0 - - - 0;
#X msg 419 711;
#X obj 618 556 pack f f f;
#X msg 543 663 list 1loop0 3.36147e+06;
#X msg 618 577 set list \$1loop\$2 \$3;
#X obj 618 482 t b b f;
#X obj 618 521 f \$1;
#X obj 816 537 f \$1;
#X obj 208 537 f \$1;
#X obj 1220 559 f \$1;
#X obj 324 432 f \$1;
#X msg 1048 135 click;
#X obj 1048 157 text define -k \$1-library;
#A set test1;
#X f 27;
#X connect 1 0 68 0;
#X connect 2 0 30 0;
#X connect 3 0 38 0;
#X connect 4 0 19 0;
#X connect 5 0 20 0;
#X connect 6 0 21 1;
#X connect 8 0 19 2;
#X connect 9 0 10 0;
#X connect 9 0 4 0;
#X connect 9 0 14 1;
#X connect 9 0 21 1;
#X connect 9 0 26 1;
#X connect 9 0 43 1;
#X connect 11 0 54 0;
#X connect 12 0 14 0;
#X connect 12 0 53 0;
#X connect 13 0 59 0;
#X connect 14 0 22 0;
#X connect 14 0 63 0;
#X connect 16 0 17 0;
#X connect 16 1 15 0;
#X connect 18 0 55 0;
#X connect 19 0 16 0;
#X connect 19 1 7 0;
#X connect 23 0 36 1;
#X connect 24 0 34 0;
#X connect 26 0 27 0;
#X connect 26 0 52 0;
#X connect 27 0 24 0;
#X connect 27 1 36 0;
#X connect 28 0 29 0;
#X connect 28 1 66 0;
#X connect 29 0 32 0;
#X connect 30 0 28 0;
#X connect 31 0 13 1;
#X connect 31 0 60 2;
#X connect 32 0 33 0;
#X connect 33 0 31 0;
#X connect 34 0 35 0;
#X connect 36 0 57 0;
#X connect 38 0 39 0;
#X connect 40 0 49 1;
#X connect 41 0 47 0;
#X connect 43 0 44 0;
#X connect 44 0 41 0;
#X connect 44 1 49 0;
#X connect 46 0 45 0;
#X connect 47 0 48 0;
#X connect 49 0 56 0;
#X connect 53 1 26 0;
#X connect 53 2 25 0;
#X connect 53 3 67 0;
#X connect 54 1 43 0;
#X connect 54 2 42 0;
#X connect 54 3 65 0;
#X connect 56 0 41 0;
#X connect 57 0 24 0;
#X connect 58 0 60 0;
#X connect 60 0 62 0;
#X connect 61 0 21 0;
#X connect 62 0 13 0;
#X connect 62 0 61 0;
#X connect 63 0 61 0;
#X connect 63 1 64 0;
#X connect 63 2 60 1;
#X connect 64 0 58 0;
#X connect 65 0 49 2;
#X connect 66 0 32 1;
#X connect 67 0 36 2;
#X connect 68 0 37 0;
#X connect 69 0 70 0;
#X coords 0 -1 1 1 600 280 1 100 100;
#X restore 5 8 pd sample-editor;
#X restore 640 400 pd \$0-editor;
#X msg 428 189 \; pd-\$1-editor vis \$2;
#X obj 224 170 bng 16 250 50 0 empty empty EDITOR-> -50 8 0 10 #fcfcfc #000000 #000000;
#N canvas 141 25 958 735 state-saving-multiple-instances 0;
#X obj 327 27 loadbang;
#X obj 562 480 textfile;
#X msg 753 463 rewind;
#X msg 710 463 bang;
#X obj 119 690 textfile;
#X obj 710 444 t b b;
#X obj 120 356 f;
#X obj 135 507 f;
#X obj 66 382 t b b b;
#X msg 71 573 clear;
#X obj 385 129 outlet;
#X text 381 149 INSTANCE NUMBER;
#X obj 346 88 f \$1;
#X obj 346 108 t f f f;
#X obj 66 291 bng 15 250 50 0 empty empty empty 17 7 0 10 #fcfcfc #000000 #000000;
#X obj 66 195 r SAVE-S;
#X obj 618 334 r patch-path;
#X msg 562 392 read /Users/johannklug/Documents/Bass\ Dieter/2025/Diet/MODULAR_LIVE_\ PERFORMER/patch1/statesave/1-diet-looper-ss.txt;
#X obj 376 88 s update-path;
#X obj 327 47 t b b b;
#X msg 135 600 write /Users/johannklug/Documents/Bass\ Dieter/2025/Diet/MODULAR_LIVE_\ PERFORMER/patch1/statesave/1-diet-looper-ss.txt;
#X obj 573 353 pack f s;
#X obj 190 539 r patch-path;
#X obj 145 559 pack f s;
#X obj 135 528 t b f;
#X obj 562 314 f;
#X obj 562 333 t b f;
#X msg 573 372 set read \$2/statesave/\$1-diet-looper-ss.txt;
#X obj 240 31 bng 16 250 50 0 empty empty empty 0 -8 0 10 #fcfcfc #000000 #000000;
#X msg 145 579 set write \$2/statesave/\$1-diet-looper-ss.txt;
#X obj 120 399 pack f f f f;
#X msg 120 438 set \$1 \$2 \$3 \$4;
#X obj 562 500 unpack f f f f;
#X obj 165 357 r \$0-main-menu-s;
#X obj 189 377 r \$0-sub-menu-s;
#X obj 616 543 s \$0-main-menu-r;
#X obj 643 523 s \$0-sub-menu-r;
#X obj 135 308 r \$0-1-s;
#X obj 165 328 r \$0-2-s;
#X obj 562 582 s \$0-1-r;
#X obj 589 563 s \$0-2-r;
#X connect 0 0 19 0;
#X connect 1 0 32 0;
#X connect 2 0 1 0;
#X connect 3 0 1 0;
#X connect 5 0 3 0;
#X connect 5 1 2 0;
#X connect 6 0 30 0;
#X connect 7 0 24 0;
#X connect 8 0 7 0;
#X connect 8 1 6 0;
#X connect 8 2 9 0;
#X connect 9 0 4 0;
#X connect 12 0 13 0;
#X connect 13 0 7 1;
#X connect 13 1 25 0;
#X connect 13 2 10 0;
#X connect 14 0 8 0;
#X connect 15 0 14 0;
#X connect 16 0 21 1;
#X connect 17 0 1 0;
#X connect 19 0 5 0;
#X connect 19 1 12 0;
#X connect 19 2 18 0;
#X connect 20 0 4 0;
#X connect 21 0 27 0;
#X connect 22 0 23 1;
#X connect 23 0 29 0;
#X connect 24 0 20 0;
#X connect 24 1 23 0;
#X connect 25 0 26 0;
#X connect 26 0 17 0;
#X connect 26 1 21 0;
#X connect 27 0 17 0;
#X connect 28 0 19 0;
#X connect 29 0 20 0;
#X connect 30 0 31 0;
#X connect 31 0 4 0;
#X connect 32 0 39 0;
#X connect 32 1 40 0;
#X connect 32 2 35 0;
#X connect 32 3 36 0;
#X connect 33 0 30 2;
#X connect 34 0 30 3;
#X connect 37 0 6 1;
#X connect 38 0 30 1;
#X restore 640 324 pd state-saving-multiple-instances;
#X obj 640 381 s \$0-instance-num;
#X obj 640 343 makefilename %d;
#X msg 640 362 label \$1;
#X obj 101 333 text get \$0-library, f 22;
#X obj 451 71 hradio 16 1 0 8 empty empty empty 0 -8 0 10 #fcfcfc #000000 #000000 0;
#X obj 116 117 cnv 5 5 5 empty empty LOOP-PLAYER 0 0 0 12 #fcfcfc #404040 0;
#X obj 200 117 cnv 5 5 5 empty \$0-instance-num 1 0 0 0 12 #fcfcfc #404040 0;
#N canvas 54 164 1244 616 push-controll 0;
#X obj 400 72 s \$0-mm;
#X obj 399 122 s \$0-sm1;
#X text 513 93 The Submenu number of the subpatch;
#X obj 399 144 loadbang;
#X msg 399 164 1;
#X obj 399 183 s \$0-sm2;
#X obj 231 97 hradio 16 1 0 8 empty empty empty 0 -8 0 10 #fcfcfc #000000 #000000 0;
#X obj 231 34 r all-menu;
#X obj 231 74 route;
#X obj 258 53 r \$0-mm;
#X obj 231 198 s \$0-sm;
#X obj 400 29 r \$0-main-menu-s;
#X obj 400 50 + 1;
#X obj 399 94 r \$0-sub-menu-s;
#N canvas 208 58 1232 580 push-encoder 0;
#X obj 53 80 push-encoder-reader;
#X obj 53 -17 ctlin 71;
#X obj 298 75 push-encoder-reader;
#X obj 298 -22 ctlin 72;
#X obj 54 38 main-menu;
#X obj 105 20 r \$0-mm;
#N canvas 150 175 450 300 sm1 0;
#X obj 109 64 r \$0-sm;
#X obj 109 102 sel;
#X obj 75 170 outlet;
#X msg 108 123 1;
#X msg 135 123 0;
#X obj 75 149 spigot;
#X obj 75 37 inlet;
#X obj 124 83 r \$0-sm1;
#X connect 0 0 1 0;
#X connect 1 0 3 0;
#X connect 1 1 4 0;
#X connect 3 0 5 1;
#X connect 4 0 5 1;
#X connect 5 0 2 0;
#X connect 6 0 5 0;
#X connect 7 0 1 1;
#X restore 54 57 pd sm1;
#X obj 299 29 main-menu;
#X obj 350 11 r \$0-mm;
#N canvas 150 175 450 300 sm1 0;
#X obj 109 64 r \$0-sm;
#X obj 109 102 sel;
#X obj 75 170 outlet;
#X msg 108 123 1;
#X msg 135 123 0;
#X obj 75 149 spigot;
#X obj 75 37 inlet;
#X obj 124 83 r \$0-sm1;
#X connect 0 0 1 0;
#X connect 1 0 3 0;
#X connect 1 1 4 0;
#X connect 3 0 5 1;
#X connect 4 0 5 1;
#X connect 5 0 2 0;
#X connect 6 0 5 0;
#X connect 7 0 1 1;
#X restore 299 48 pd sm1;
#X text 37 -47 Encoder to volume (submenu1);
#X obj 164 58 r \$0-1-s;
#X obj 53 99 s \$0-1-r;
#X obj 343 49 r \$0-2-s;
#X obj 298 96 s \$0-2-r;
#X connect 0 0 12 0;
#X connect 1 0 4 0;
#X connect 2 0 14 0;
#X connect 3 0 7 0;
#X connect 4 0 6 0;
#X connect 5 0 4 1;
#X connect 6 0 0 0;
#X connect 7 0 9 0;
#X connect 8 0 7 1;
#X connect 9 0 2 0;
#X connect 11 0 0 1;
#X connect 13 0 2 1;
#X restore 21 141 pd push-encoder;
#N canvas 0 25 1440 789 push-display 0;
#X obj 146 -216 t b;
#X obj 147 -3 push-mk1-display 24;
#X obj 146 -279 main-menu;
#X obj 172 -301 r \$0-mm;
#X obj 146 -328 r \$0-sm;
#X obj 428 183 push-mk1-display 25;
#X msg 408 142 symbol :\$1;
#X msg 505 89 symbol :\$1;
#X obj 436 -75 f;
#X obj 507 -64 f;
#X obj 584 -82 f;
#X obj 436 -253 main-menu;
#X obj 462 -275 r \$0-mm;
#X obj 436 -302 r \$0-sm;
#X obj 436 -181 t b;
#X obj 664 -53 f;
#X obj 741 -60 f;
#N canvas 150 175 450 300 sm 0;
#X obj 109 64 r \$0-sm;
#X obj 109 102 sel;
#X obj 124 83 r \$0-sm1;
#X obj 75 170 outlet;
#X msg 108 123 1;
#X msg 135 123 0;
#X obj 75 149 spigot;
#X obj 75 37 inlet;
#X connect 0 0 1 0;
#X connect 1 0 4 0;
#X connect 1 1 5 0;
#X connect 2 0 1 1;
#X connect 4 0 6 1;
#X connect 5 0 6 1;
#X connect 6 0 3 0;
#X connect 7 0 6 0;
#X restore 436 -216 pd sm;
#N canvas 150 175 450 300 sm 0;
#X obj 109 64 r \$0-sm;
#X obj 109 102 sel;
#X obj 124 83 r \$0-sm1;
#X obj 75 170 outlet;
#X msg 108 123 1;
#X msg 135 123 0;
#X obj 75 149 spigot;
#X obj 75 37 inlet;
#X connect 0 0 1 0;
#X connect 1 0 4 0;
#X connect 1 1 5 0;
#X connect 2 0 1 1;
#X connect 4 0 6 1;
#X connect 5 0 6 1;
#X connect 6 0 3 0;
#X connect 7 0 6 0;
#X restore 146 -246 pd sm;
#X msg 247 -46 symbol;
#X msg 267 -24 symbol;
#X msg 902 -29 symbol;
#X msg 982 -28 symbol;
#X obj 436 -123 r \$0-1-s;
#X obj 585 -130 r \$0-3-s;
#X obj 664 -101 r \$0-4-s;
#X obj 739 -121 r \$0-5-s;
#X msg 822 -27 symbol;
#X msg 237 -74 symbol;
#X msg 147 -196 symbol LOOP;
#X msg 167 -174 symbol BARS;
#X msg 177 -146 symbol;
#X msg 197 -124 symbol;
#X msg 216 -96 symbol;
#X msg 585 -31 symbol;
#X msg 663 -29 symbol;
#X msg 742 -29 symbol;
#X obj 512 -37 / 127;
#X floatatom 512 26 5 0 0 0 - - - 0;
#X obj 512 46 i;
#X floatatom 512 67 5 0 0 0 - - - 0;
#X obj 512 4 + 1;
#X obj 512 -17 * 7;
#X obj 513 -195 r \$0-2-s;
#X obj 428 -28 / 127;
#X floatatom 428 35 5 0 0 0 - - - 0;
#X obj 428 55 i;
#X obj 428 -8 * 7;
#X obj 428 13 + 0;
#X connect 0 0 29 0;
#X connect 0 0 30 0;
#X connect 0 0 31 0;
#X connect 0 0 32 0;
#X connect 0 0 33 0;
#X connect 0 0 28 0;
#X connect 0 0 19 0;
#X connect 0 0 20 0;
#X connect 2 0 18 0;
#X connect 3 0 2 1;
#X connect 4 0 2 0;
#X connect 6 0 5 0;
#X connect 7 0 5 1;
#X connect 8 0 44 0;
#X connect 9 0 37 0;
#X connect 10 0 34 0;
#X connect 11 0 17 0;
#X connect 12 0 11 1;
#X connect 13 0 11 0;
#X connect 14 0 8 0;
#X connect 14 0 9 0;
#X connect 14 0 10 0;
#X connect 14 0 15 0;
#X connect 14 0 16 0;
#X connect 14 0 21 0;
#X connect 14 0 22 0;
#X connect 14 0 27 0;
#X connect 15 0 35 0;
#X connect 16 0 36 0;
#X connect 17 0 14 0;
#X connect 18 0 0 0;
#X connect 19 0 1 6;
#X connect 20 0 1 7;
#X connect 21 0 5 6;
#X connect 22 0 5 7;
#X connect 23 0 8 0;
#X connect 24 0 10 0;
#X connect 25 0 15 0;
#X connect 26 0 16 0;
#X connect 27 0 5 5;
#X connect 28 0 1 5;
#X connect 29 0 1 0;
#X connect 30 0 1 1;
#X connect 31 0 1 2;
#X connect 32 0 1 3;
#X connect 33 0 1 4;
#X connect 34 0 5 2;
#X connect 35 0 5 3;
#X connect 36 0 5 4;
#X connect 37 0 42 0;
#X connect 38 0 39 0;
#X connect 39 0 40 0;
#X connect 40 0 7 0;
#X connect 41 0 38 0;
#X connect 42 0 41 0;
#X connect 43 0 9 0;
#X connect 44 0 47 0;
#X connect 45 0 46 0;
#X connect 46 0 6 0;
#X connect 47 0 48 0;
#X connect 48 0 45 0;
#X restore 21 71 pd push-display;
#X connect 3 0 4 0;
#X connect 4 0 5 0;
#X connect 6 0 10 0;
#X connect 7 0 8 0;
#X connect 8 0 6 0;
#X connect 9 0 8 1;
#X connect 11 0 12 0;
#X connect 12 0 0 0;
#X connect 13 0 1 0;
#X restore 642 438 pd push-controll;
#X msg 668 222 1;
#X msg 641 262 \; pd-\$1options vis \$2;
#X obj 641 222 f \$0;
#X obj 641 241 pack f f;
#X obj 232 231 bng 10 250 50 0 \$0-options-button \$0-options-button-r OPTIONS -45 5 0 10 #fcfcfc #000000 #000000;
#X obj 641 203 t b b;
#X obj 641 184 r \$0-options-button;
#N canvas 551 310 191 154 \$0options 0;
#X text 11 10 Ableton-Push-Interface:;
#X obj 15 50 hradio 16 1 0 8 \$0-main-menu-s \$0-main-menu-r Main-Menu 0 -8 0 10 #fcfcfc #000000 #000000 0;
#X obj 15 90 hradio 16 1 0 8 \$0-sub-menu-s \$0-sub-menu-r Sub-Menu 0 -8 0 10 #fcfcfc #000000 #000000 0;
#X restore 640 295 pd \$0options;
#X obj -76 60 bng 16 250 50 0 empty empty empty 0 -8 0 10 #fcfcfc #000000 #000000;
#X obj 642 16 loop-loader \$1loop0;
#X obj 642 36 loop-loader \$1loop1;
#X obj 642 56 loop-loader \$1loop2;
#X obj 642 76 loop-loader \$1loop3;
#X obj 642 96 loop-loader \$1loop4;
#X obj 642 116 loop-loader \$1loop5;
#X obj 642 136 loop-loader \$1loop6;
#X obj 642 156 loop-loader \$1loop7;
#X obj 576 507 s \$0-loop-bars;
#X obj 101 301 f;
#X msg -15 612 1loop0;
#X msg -20 683 0 1 \, 1 5 5;
#X msg -189 674 1 5 5;
#X obj -202 280 t b b b b b b;
#X msg -161 696 0 1;
#X obj -186 402 del 1;
#X obj -202 348 del 1;
#X obj 114 143 hsl 128 15 0 127 0 1 \$0-1-s \$0-1-r LOOP 133 7 0 10 #fcfcfc #000000 #000000 5800 1;
#X floatatom 212 128 5 0 0 0 - - - 0;
#X obj 324 21 / 127;
#X floatatom 324 84 5 0 0 0 - - - 0;
#X obj 324 104 i;
#X obj 324 41 * 7;
#X obj 324 62 + 0;
#X obj 552 281 * 64;
#X obj 428 315 r global-bpm;
#X connect 0 0 2 0;
#X connect 2 0 3 0;
#X connect 3 0 1 0;
#X connect 4 0 3 1;
#X connect 5 0 6 0;
#X connect 6 0 79 0;
#X connect 7 0 10 0;
#X connect 8 0 9 0;
#X connect 8 1 7 0;
#X connect 9 0 14 0;
#X connect 11 0 0 0;
#X connect 11 0 76 0;
#X connect 13 0 11 0;
#X connect 14 0 12 0;
#X connect 15 0 0 0;
#X connect 16 0 25 0;
#X connect 17 0 19 0;
#X connect 18 0 15 0;
#X connect 19 0 18 0;
#X connect 20 0 17 0;
#X connect 21 0 16 0;
#X connect 22 0 17 2;
#X connect 23 0 24 1;
#X connect 24 0 17 1;
#X connect 25 0 22 0;
#X connect 26 0 27 0;
#X connect 27 0 90 0;
#X connect 28 0 29 0;
#X connect 29 0 30 0;
#X connect 30 0 32 0;
#X connect 30 0 34 0;
#X connect 31 0 28 0;
#X connect 33 0 25 0;
#X connect 33 1 25 1;
#X connect 33 1 74 0;
#X connect 34 0 33 0;
#X connect 35 0 38 0;
#X connect 37 0 39 0;
#X connect 38 0 37 0;
#X connect 39 0 4 0;
#X connect 40 0 42 1;
#X connect 41 0 42 0;
#X connect 42 0 46 0;
#X connect 43 0 41 0;
#X connect 43 1 40 0;
#X connect 44 0 43 0;
#X connect 47 0 43 0;
#X connect 48 0 50 0;
#X connect 50 0 51 0;
#X connect 51 0 49 0;
#X connect 52 0 8 0;
#X connect 57 0 60 1;
#X connect 59 0 60 0;
#X connect 60 0 58 0;
#X connect 62 0 59 0;
#X connect 62 1 57 0;
#X connect 63 0 62 0;
#X connect 65 0 79 0;
#X connect 75 0 52 0;
#X connect 78 0 4 0;
#X connect 79 0 82 0;
#X connect 79 1 81 0;
#X connect 79 2 24 0;
#X connect 79 3 14 0;
#X connect 79 4 75 0;
#X connect 79 5 80 0;
#X connect 80 0 4 0;
#X connect 81 0 78 0;
#X connect 82 0 20 0;
#X connect 83 0 85 0;
#X connect 85 0 88 0;
#X connect 86 0 87 0;
#X connect 87 0 84 0;
#X connect 87 0 75 1;
#X connect 87 0 53 0;
#X connect 88 0 89 0;
#X connect 89 0 86 0;
#X connect 90 0 31 0;
#X connect 91 0 21 0;
#X coords 0 -1 1 1 175 150 2 100 100;
