#N canvas 100 25 1340 769 10;
#X obj 293 46 array define \$1;
#X obj 90 194 r patch-path;
#X msg 52 281 read -resize /Users/johannklug/Documents/Bass\ Dieter/2025/Diet/MODULAR_LIVE_\ PERFORMER/patch2/loops/2loop1.wav 2loop1;
#X obj 72 121 s update-path;
#X obj 52 321 soundfiler;
#X floatatom 52 339 31 0 0 0 - - - 0;
#X text 28 3 This reads the wav from the project folder:;
#X obj 33 101 t b b b b;
#X obj 51 143 symbol \$1;
#X obj 51 174 t b s;
#X obj 33 75 bng 16 250 50 0 empty empty empty 0 -8 0 10 #fcfcfc #000000 #000000;
#X obj 62 240 pack s s f;
#X obj 33 24 loadbang;
#X obj 41 50 r reload-sample-ram;
#X msg 62 259 set read -resize \$2/loops/\$1.wav \$1;
#X obj 119 215 f;
#X connect 1 0 11 1;
#X connect 2 0 4 0;
#X connect 4 0 5 0;
#X connect 7 1 8 0;
#X connect 7 2 3 0;
#X connect 7 3 15 0;
#X connect 8 0 9 0;
#X connect 9 0 2 0;
#X connect 9 1 11 0;
#X connect 10 0 7 0;
#X connect 11 0 14 0;
#X connect 12 0 10 0;
#X connect 13 0 10 0;
#X connect 14 0 2 0;
#X connect 15 0 11 2;
#X coords 0 769 1 768 280 80 0;
