#N canvas 100 25 1340 769 10;
#X obj 35 202 soundfiler;
#X obj 35 63 loadbang;
#X obj 414 183 array define \$1;
#X obj 57 101 bng 16 250 50 0 empty empty empty 0 -8 0 10 #fcfcfc #000000 #000000;
#X obj 57 82 r reload-sample-ram;
#X obj 35 260 text set simple-hats, f 22;
#X obj 78 224 loadbang;
#X obj 193 373 bng 16 250 50 0 empty empty empty 0 -8 0 10 #fcfcfc #000000 #000000;
#X obj 78 242 f \$1;
#X msg 35 184 read -resize samples/hihat_oneshot_\$2.wav \$1, f 61;
#X obj 96 141 f \$2;
#X obj 35 123 t b b;
#X obj 35 141 symbol \$1;
#X obj 35 164 pack s f f;
#X connect 1 0 11 0;
#X connect 3 0 11 0;
#X connect 4 0 3 0;
#X connect 6 0 8 0;
#X connect 7 0 8 0;
#X connect 8 0 5 1;
#X connect 9 0 0 0;
#X connect 10 0 13 1;
#X connect 11 0 12 0;
#X connect 11 1 10 0;
#X connect 12 0 13 0;
#X connect 13 0 9 0;
#X coords 0 769 1 768 280 80 0;
