#N canvas 0 103 1440 769 10;
#X obj 134 130 cnv 5 5 5 empty empty SIMPLE-HATS 0 0 0 12 #fcfcfc #404040 0;
#X obj 222 130 cnv 5 5 5 empty \$0-instance-num 1 0 0 0 12 #fcfcfc #404040 0;
#X obj 103 362 cnv 5 5 5 empty empty OUT 0 0 0 8 #fcfcfc #404040 0;
#X obj 1083 103 bng 15 250 50 0 \$0-sampler-triggui-s \$0-sampler-triggui-r empty 17 7 0 10 #fcfcfc #000000 #000000;
#X obj 1084 145 t b b b b;
#X obj 1081 -18 inlet;
#X obj 1081 4 stripnote;
#X obj 1132 50 / 127;
#X obj 1082 501 outlet~, f 10;
#X obj 103 109 cnv 5 5 5 empty empty IN 0 0 0 8 #fcfcfc #9c00ff 0;
#X obj 126 525 hsl 128 15 0 127 0 1 \$0-attack-s \$0-attack-r ATTACK 133 7 0 10 #fcfcfc #000000 #000000 3000 1;
#X obj 126 540 hsl 128 15 0 127 0 1 \$0-decay-s \$0-decay-r DECAY 133 7 0 10 #fcfcfc #000000 #000000 1600 1;
#X obj 126 572 hsl 128 15 0 127 0 1 \$0-sample-rate-s \$0-sample-rate-r SMPL-RTE 133 7 0 10 #fcfcfc #000000 #000000 0 1;
#X obj 307 357 bng 10 250 50 0 \$0-options-button \$0-options-button-r OPTIONS -45 5 0 10 #fcfcfc #000000 #000000;
#X obj 126 432 hsl 128 15 0 127 0 0 \$0-sample-player-file-s \$0-sample-player-file-r SAMPLE_1 133 7 0 10 #fcfcfc #000000 #000000 0 1;
#X floatatom 224 417 5 0 0 0 - - - 0;
#X obj 1520 63 hats-sample-loader hat2 2;
#X obj 1520 83 hats-sample-loader hat3 3;
#X obj 126 467 hsl 128 15 0 127 0 0 \$0-sample-player-file2-s \$0-sample-player-file2-r SAMPLE_2 133 7 0 10 #fcfcfc #000000 #000000 0 1;
#X floatatom 224 452 5 0 0 0 - - - 0;
#X obj 126 482 hsl 128 15 0 127 0 1 \$0-xfade-s \$0-xfade-r XFADE 133 7 0 10 #fcfcfc #000000 #000000 10800 1;
#N canvas 0 244 1178 628 dsp 0;
#X obj 173 416 *~;
#X obj 188 395 vline~;
#X msg 278 379 0;
#X obj 278 358 loadbang;
#X obj 172 107 tabplay~;
#X obj 172 85 t b b;
#X msg 188 366 0 15 \, 1 50 1;
#X obj 173 527 *~;
#N canvas 328 128 611 487 envelope 0;
#X obj 95 268 / 127;
#X obj 95 294 t a a;
#X floatatom 155 201 5 0 0 1 A - - 0;
#X floatatom 185 226 5 0 0 1 D - - 0;
#X floatatom 212 257 5 0 0 1 S(%) - - 0;
#X floatatom 246 279 5 0 0 1 R - - 0;
#N canvas 121 146 989 617 c_adsr 0;
#X obj 105 111 inlet;
#X obj 435 151 inlet;
#X text 101 86 trigger;
#X obj 105 139 sel 0;
#X obj 244 155 t b;
#X obj 166 264 f \$1;
#X obj 166 289 pack 0 \$2;
#X obj 492 151 inlet;
#X obj 438 281 del \$2;
#X obj 462 304 f \$4;
#X obj 501 379 pack 0 \$3;
#X obj 554 151 inlet;
#X obj 616 151 inlet;
#X obj 689 150 inlet;
#X msg 105 170 stop;
#X obj 612 306 pack 0 \$5;
#X text 435 129 level;
#X obj 501 355 * \$1;
#X obj 458 454 outlet~;
#X text 102 378 and pack with;
#X text 103 398 attack time;
#X text 31 126 if zero;
#X text 32 143 release;
#X text 12 160 and cancel;
#X text 43 177 decay;
#X text 284 272 on attack \, set a;
#X text 278 305 recall sustain value;
#X text 315 378 pack with decay time;
#X text 605 332 on release ramp;
#X text 606 349 back to zero;
#X obj 462 329 * 0.01;
#X text 47 567 Objects such as "f" and "pack" can be given dollar sign arguments to initialize their contents from adsr's creation arguments. Inlets are supplied to change them on the fly.;
#X text 13 2 ADSR ENVELOPE;
#X text 488 129 attack;
#X text 555 128 decay;
#X text 609 129 sustain;
#X text 686 129 release;
#X text 202 71 attack;
#X obj 204 92 moses;
#X obj 194 122 t b b;
#X msg 128 290 0;
#X text 20 273 optionally;
#X text 10 291 bash to zero;
#X text 25 246 ATTACK:;
#X text 49 477 When you send this patch a positive trigger it schedules a line~ to do an attack and decay \, and if zero \, it starts the release ramp.;
#X text 495 629 Updated for Pd version 0.37;
#X text 255 89 test for negative trigger;
#X text 253 113 if so \, zero;
#X text 254 129 the output;
#X text 278 165 in any case;
#X text 303 355 multiply by peak level;
#X text 280 286 delay for sustain;
#X text 276 328 convert from percent;
#X text 155 340 ... then;
#X text 103 359 recall peak level;
#X text 439 113 peak;
#X text 281 149 ... do this;
#X text 47 529 Negative triggers cause the output to jump to zero and then attack (instead of attacking from the current location).;
#X text 208 1 Arguments: level \, attack time \, decay time \, sustain level \, release time. A \, D \, and R are in msec and S is in percent. This patch is used as an abstraction in various examples.;
#X obj 458 429 vline~;
#N canvas 228 198 627 317 LICENSE-BSD 0;
#X text 121 56 This software is copyrighted by Miller Puckette \, Reality Jockey Ltd. and others. The terms (the "Standard Improved BSD License") apply to all files associated with the software unless explicitly disclaimed in individual files.;
#X text 123 148 See the file LICENSE.txt for the full license text.;
#X restore 823 80 pd LICENSE-BSD;
#X connect 0 0 3 0;
#X connect 1 0 5 1;
#X connect 1 0 17 1;
#X connect 3 0 14 0;
#X connect 3 0 15 0;
#X connect 3 1 38 0;
#X connect 4 0 5 0;
#X connect 4 0 8 0;
#X connect 5 0 6 0;
#X connect 6 0 59 0;
#X connect 7 0 6 1;
#X connect 7 0 8 1;
#X connect 8 0 9 0;
#X connect 9 0 30 0;
#X connect 10 0 59 0;
#X connect 11 0 10 1;
#X connect 12 0 9 1;
#X connect 13 0 15 1;
#X connect 14 0 8 0;
#X connect 15 0 59 0;
#X connect 17 0 10 0;
#X connect 30 0 17 0;
#X connect 38 0 39 0;
#X connect 38 1 4 0;
#X connect 39 0 4 0;
#X connect 39 1 40 0;
#X connect 40 0 59 0;
#X connect 59 0 18 0;
#X restore 95 322 pd c_adsr 1 80 100 80 200;
#X obj 99 356 *~;
#X obj 100 385 *~;
#X msg 89 214 100;
#X obj 251 221 * 2;
#X obj 264 121 + 5;
#X obj 96 448 outlet~;
#X obj 91 18 inlet;
#X obj 352 206 - 77;
#X obj 352 227 max 0;
#X floatatom 352 248 5 0 0 0 - - - 0;
#X obj 207 173 + 30;
#X obj 207 152 * 3;
#X obj 285 23 inlet;
#X obj 155 19 inlet;
#X connect 0 0 1 0;
#X connect 1 0 6 0;
#X connect 1 1 6 1;
#X connect 2 0 6 2;
#X connect 3 0 6 3;
#X connect 4 0 6 4;
#X connect 5 0 6 5;
#X connect 6 0 7 0;
#X connect 6 0 7 1;
#X connect 7 0 8 0;
#X connect 7 0 8 1;
#X connect 8 0 12 0;
#X connect 9 0 0 0;
#X connect 10 0 5 0;
#X connect 13 0 9 0;
#X connect 14 0 15 0;
#X connect 15 0 16 0;
#X connect 16 0 6 4;
#X connect 17 0 3 0;
#X connect 18 0 17 0;
#X connect 19 0 11 0;
#X connect 19 0 10 0;
#X connect 19 0 14 0;
#X connect 19 0 18 0;
#X connect 20 0 2 0;
#X restore 188 500 pd envelope;
#N canvas 489 241 804 572 alias 0;
#X obj 262 61 inlet~;
#X obj 264 476 outlet~;
#X obj 322 345 phasor~;
#X obj 263 374 samphold~;
#X obj 322 92 samplerate~;
#X obj 322 59 loadbang;
#X floatatom 374 437 10 0 0 0 - - - 0;
#X msg 394 58 bang;
#X obj 336 276 t b a;
#X obj 322 312 / 1;
#X obj 348 169 loadbang;
#X msg 336 244 1;
#X obj 336 221 moses 1;
#X obj 336 194 f \$2;
#X obj 339 128 r \$0-alias;
#X obj 363 311 r \$0-freq;
#X msg 310 424 \$1 10;
#X obj 310 403 r \$0-dry;
#N canvas 498 514 450 300 c_xfade 0;
#X obj 76 87 inlet~;
#X obj 142 87 inlet~;
#X obj 77 198 outlet~;
#X obj 201 87 inlet;
#X obj 201 127 vline~;
#X obj 141 136 -~;
#X obj 141 156 *~;
#X text 371 150 (1-x)*a + x*b;
#X text 371 167 = a - x*a + x*b;
#X text 371 184 = a + x*(b - a);
#X text 366 119 x: fade factor (0-1);
#X text 366 90 a: sig from inlet~ 0;
#X text 339 50 Linear crossfade according to the following calculation:;
#X text 367 104 b: sig from inlet~ 1;
#N canvas 172 83 586 377 LICENSE-GPL 0;
#X text 57 88 This program is free software: you can redistribute it and/or modify it under the terms of the GNU General Public License as published by the Free Software Foundation \, either version 3 of the License \, or (at your option) any later version.;
#X text 58 168 This program is distributed in the hope that it will be useful \, but WITHOUT ANY WARRANTY \; without even the implied warranty of MERCHANTABILITY or FITNESS FOR A PARTICULAR PURPOSE. See the GNU General Public License for more details.;
#X text 57 261 You should have received a copy of the GNU General Public License along with this program. If not \, see <http://www.gnu.org/licenses/>.;
#X text 61 54 Copyright (C) 2009 \, Reality Jockey Ltd.;
#X text 60 325 See the file LICENSE.txt for the full license text.;
#X restore 614 19 pd LICENSE-GPL;
#X connect 0 0 5 1;
#X connect 0 0 2 0;
#X connect 1 0 5 0;
#X connect 3 0 4 0;
#X connect 4 0 6 1;
#X connect 5 0 6 0;
#X connect 6 0 2 0;
#X restore 264 446 pd c_xfade;
#X obj 491 44 inlet;
#X obj 600 52 inlet;
#X text 489 20 alias;
#X text 598 28 mix;
#X floatatom 446 359 17 0 0 0 - - - 0;
#X connect 0 0 3 0;
#X connect 0 0 18 1;
#X connect 2 0 3 1;
#X connect 3 0 18 0;
#X connect 4 0 9 0;
#X connect 5 0 4 0;
#X connect 7 0 4 0;
#X connect 8 0 9 0;
#X connect 8 1 9 1;
#X connect 9 0 6 0;
#X connect 9 0 2 0;
#X connect 9 0 23 0;
#X connect 10 0 13 0;
#X connect 11 0 8 0;
#X connect 12 0 11 0;
#X connect 12 1 8 0;
#X connect 13 0 12 0;
#X connect 14 0 13 0;
#X connect 15 0 2 0;
#X connect 16 0 18 2;
#X connect 17 0 16 0;
#X connect 18 0 1 0;
#X connect 19 0 13 0;
#X connect 20 0 16 0;
#X restore 173 567 pd alias;
#X obj 388 532 hsl 128 15 0 127 0 1 empty empty empty 133 7 0 10 #fcfcfc #000000 #000000 6400 1;
#X obj 411 202 / 127;
#X obj 411 260 * 6;
#X obj 385 552 / 127;
#X msg 385 501 64;
#X obj 384 480 loadbang;
#X obj 232 107 tabplay~;
#N canvas 121 146 857 570 fade 0;
#X obj 277 283 inlet~;
#X obj 395 238 inlet~;
#X obj 276 464 *~;
#X obj 395 441 *~;
#X text 277 262 IN-1;
#X text 396 218 IN-2;
#X obj 127 228 t f f;
#X msg 127 250 127 \$1;
#X obj 127 272 -;
#X obj 127 294 / 127;
#X obj 127 316 pack 0 50;
#X obj 127 338 line~;
#X obj 201 295 / 127;
#X obj 201 317 pack 0 50;
#X obj 201 339 line~;
#X obj 291 400 +~;
#X obj 410 385 +~;
#X obj 410 412 min~ 1;
#X obj 306 374 *~ -1;
#X floatatom 81 294 5 0 0 0 - - - 0;
#X obj 276 486 min~ 1;
#X obj 395 463 min~ 1;
#X obj 277 531 clip~ -1 1;
#X obj 277 553 outlet~ OUT;
#X obj 625 211 inlet;
#X connect 0 0 2 0;
#X connect 1 0 3 0;
#X connect 2 0 20 0;
#X connect 3 0 21 0;
#X connect 6 0 7 0;
#X connect 6 1 12 0;
#X connect 7 0 8 0;
#X connect 8 0 9 0;
#X connect 8 0 19 0;
#X connect 9 0 10 0;
#X connect 10 0 11 0;
#X connect 11 0 15 0;
#X connect 12 0 13 0;
#X connect 13 0 14 0;
#X connect 14 0 16 0;
#X connect 15 0 2 1;
#X connect 16 0 17 0;
#X connect 17 0 3 1;
#X connect 18 0 15 1;
#X connect 20 0 22 0;
#X connect 21 0 22 0;
#X connect 22 0 23 0;
#X connect 24 0 6 0;
#X restore 168 267 pd fade;
#X obj 172 64 inlet;
#X obj 173 602 outlet~;
#X obj 682 67 / 127;
#X obj 682 129 i;
#X floatatom 678 260 5 0 0 0 - - - 0;
#X obj 682 88 * 31;
#X obj 682 109 + 1;
#X msg 678 462 set hat\$1;
#X obj 745 72 / 127;
#X obj 745 134 i;
#X floatatom 748 200 5 0 0 0 - - - 0;
#X obj 745 93 * 31;
#X obj 745 114 + 1;
#X msg 753 462 set hat\$1;
#X obj 676 19 inlet;
#X obj 746 13 inlet;
#X text 674 0 sample 1;
#X text 744 -8 sample 2;
#X obj 1088 12 inlet;
#X text 1087 -10 sample rate;
#X obj 926 12 inlet;
#X obj 1015 13 inlet;
#X text 921 -13 attack;
#X text 1008 -9 decay;
#X obj 841 4 inlet;
#X text 838 -18 xface;
#X floatatom 929 150 5 0 0 0 - - - 0;
#X obj 748 178 clip 1 32;
#X obj 680 176 clip 1 32;
#X connect 0 0 7 0;
#X connect 1 0 0 1;
#X connect 2 0 1 0;
#X connect 3 0 2 0;
#X connect 4 0 17 0;
#X connect 5 0 4 0;
#X connect 5 0 16 0;
#X connect 5 1 6 0;
#X connect 5 1 8 0;
#X connect 6 0 1 0;
#X connect 7 0 9 0;
#X connect 8 0 7 1;
#X connect 9 0 19 0;
#X connect 10 0 13 0;
#X connect 11 0 12 0;
#X connect 12 0 9 1;
#X connect 13 0 9 2;
#X connect 14 0 10 0;
#X connect 15 0 14 0;
#X connect 16 0 17 1;
#X connect 17 0 0 0;
#X connect 18 0 5 0;
#X connect 20 0 23 0;
#X connect 21 0 46 0;
#X connect 22 0 25 0;
#X connect 23 0 24 0;
#X connect 24 0 21 0;
#X connect 25 0 4 0;
#X connect 26 0 29 0;
#X connect 27 0 45 0;
#X connect 28 0 31 0;
#X connect 29 0 30 0;
#X connect 30 0 27 0;
#X connect 31 0 16 0;
#X connect 32 0 20 0;
#X connect 33 0 26 0;
#X connect 36 0 11 0;
#X connect 38 0 8 1;
#X connect 39 0 8 2;
#X connect 39 0 44 0;
#X connect 42 0 17 2;
#X connect 45 0 28 0;
#X connect 46 0 22 0;
#X restore 1082 373 pd dsp;
#X f 27;
#X text 486 228 <--rename labels here;
#X text 486 248 <--modules values are saved here;
#X text 437 266 <--Opens the Options-Subpatch;
#X obj 336 490 s \$0-param-1-t;
#X obj 336 334 s \$0-a;
#X obj 390 334 s \$0-b;
#X obj 444 334 s \$0-c;
#X obj 499 334 s \$0-d;
#X obj 553 333 s \$0-e;
#X obj 608 333 s \$0-f;
#X obj 662 332 s \$0-g;
#X obj 717 332 s \$0-h;
#X text 762 332 <--these go to the dsp-object;
#X text 436 186 <--receives encoder messages from mother.pd;
#X text 436 166 <--sends display info to mother.pd;
#X text 446 206 <--checks menu and if module is "active";
#X text 733 305 <--receives audio + message for mod;
#X obj 336 392 r \$0-param-1-s;
#X obj 432 392 r \$0-param-2-s;
#X obj 432 490 s \$0-param-2-t;
#X msg 530 470 symbol \$1%;
#X obj 530 412 / 1.27;
#X floatatom 530 431 5 0 0 0 - - - 0;
#X obj 530 451 i;
#X obj 530 391 r \$0-param-3-s;
#X obj 530 489 s \$0-param-3-t;
#X msg 630 470 symbol \$1%;
#X obj 630 412 / 1.27;
#X floatatom 630 431 5 0 0 0 - - - 0;
#X obj 630 451 i;
#X obj 630 391 r \$0-param-4-s;
#X obj 630 489 s \$0-param-4-t;
#X msg 336 611 symbol \$1%;
#X obj 336 553 / 1.27;
#X floatatom 336 572 5 0 0 0 - - - 0;
#X obj 336 592 i;
#X msg 432 611 symbol \$1%;
#X obj 432 553 / 1.27;
#X floatatom 432 572 5 0 0 0 - - - 0;
#X obj 432 592 i;
#X msg 530 610 symbol \$1%;
#X obj 530 552 / 1.27;
#X floatatom 530 571 5 0 0 0 - - - 0;
#X obj 530 591 i;
#X msg 630 610 symbol \$1%;
#X obj 630 552 / 1.27;
#X floatatom 630 571 5 0 0 0 - - - 0;
#X obj 630 591 i;
#X obj 336 532 r \$0-param-5-s;
#X obj 336 630 s \$0-param-5-t;
#X obj 432 532 r \$0-param-6-s;
#X obj 432 630 s \$0-param-6-t;
#X obj 530 531 r \$0-param-7-s;
#X obj 530 629 s \$0-param-7-t;
#X obj 630 531 r \$0-param-8-s;
#X obj 630 629 s \$0-param-8-t;
#X obj 336 166 core_display \$0;
#X obj 336 186 core_encoder \$0;
#X obj 336 207 core_main_menu \$0;
#X obj 336 228 core_module_settings \$0;
#X obj 336 306 core_modulation_receiver \$0, f 64;
#X obj 336 248 core_state_saving \$0 \$1;
#X obj 336 267 core_options \$0;
#X text 335 145 Modul Core:;
#X text 334 368 Value Display Representation:;
#X obj 1098 245 r \$0-a;
#X obj 1152 245 r \$0-b;
#X obj 1216 266 r \$0-c;
#X obj 1259 266 r \$0-d;
#X obj 1303 265 r \$0-e;
#X obj 1347 265 r \$0-f;
#X obj 1391 265 r \$0-g;
#X obj 1434 265 r \$0-h;
#X obj 337 119 text define -k \$0-modul-settings;
#A set HATS \; SAMPLE1 \; SAMPLE2 \; XFADE \; ATTACK \; DECAY \; SMPL_RTE \; EMPTY \; EMPTY \; SRC \; 8 \; #ffd84f \; #ffd066 \; #ffc67e \; #ffb894 \; #ffa8ab \; #ff96c1 \; #ff82d4 \; #ff6ee6 \;;
#N canvas 324 349 425 350 info 0;
#X text 23 12 This textfile contains all necessery names of the module and the names of the gui (faders etc.). This way its much easier to change the names of all elements simply by editing the text object.;
#X text 25 93 The Order of the file \; 0=Modul-Name \; 1=Name Param1 - write non if unused \; 2=Name Param2 \; 3=Name Param3 \; 4=Name Param4 \; 5=Name Param5 \; 6=Name Param6 \; 7=Name Param7 \; 8=Name Param8 \; 9=Type of Module (SRC \, MOD \, LFO \, EFX etc) \; 10=Number of used Parameters (1-8) \; 11=Color of Param1-Circle 12=Color of Param2-Circle \; 13=Color of Param3-Circle \; 14=Color of Param4-Circle \; 15=Color of Param5-Circle \; 16=Color of Param6-Circle \; 17=Color of Param7-Circle \; 18=Color of Param8-Circle \; ....;
#X restore 559 118 pd info;
#X text 537 118 ->;
#X text 335 98 Parameter-Values + Names + Colors:;
#X obj 1209 -21 inlet~;
#X obj 1329 -21 inlet~;
#X obj 1209 69 throw~ \$0-mod1;
#X obj 1329 68 throw~ \$0-mod2;
#X text 1207 -38 MOD1;
#X text 1327 -38 MOD2;
#X obj 1097 444 line~;
#X obj 1097 426 pack 0 2;
#X obj 1082 462 *~;
#X obj 137 232 hsl 128 15 0 127 0 1 \$0-param-4-s \$0-param-4-r ATTACK 133 7 0 10 #ffb894 #000000 #000000 0 1;
#X obj 137 170 hsl 128 15 0 127 0 1 \$0-param-2-s \$0-param-2-r SAMPLE2 133 7 0 10 #ffd066 #000000 #000000 8900 1;
#X obj 137 263 hsl 128 15 0 127 0 1 \$0-param-5-s \$0-param-5-r DECAY 133 7 0 10 #ffa8ab #000000 #000000 12700 1;
#X obj 137 139 hsl 128 15 0 127 0 1 \$0-param-1-s \$0-param-1-r SAMPLE1 133 7 0 10 #ffd84f #000000 #000000 11900 1;
#X obj 137 294 hsl 128 15 0 127 0 1 \$0-param-6-s \$0-param-6-r SMPL_RTE 133 7 0 10 #ff96c1 #000000 #000000 400 1;
#X obj 137 201 hsl 128 15 0 127 0 1 \$0-param-3-s \$0-param-3-r XFADE 133 7 0 10 #ffc67e #000000 #000000 12700 1;
#X obj 199 109 cnv 5 5 5 empty empty MOD1 0 0 0 8 #fcfcfc #404040 0;
#X obj 298 108 cnv 5 5 5 empty empty MOD2 0 0 0 8 #fcfcfc #404040 0;
#X obj 1266 321 * 127;
#X obj 1226 321 * 127;
#X obj 1186 321 * 127;
#X obj 1306 321 * 127;
#X obj 137 154 hsl 61 8 0 127 0 1 \$0-param-9-s \$0-param-9-r empty 133 7 0 10 #606060 #000000 #000000 3000 1;
#X obj 204 154 hsl 61 8 0 127 0 1 \$0-param-17-s \$0-param-17-r empty 133 7 0 10 #7c7c7c #000000 #000000 3900 1;
#X obj 137 185 hsl 61 8 0 127 0 1 \$0-param-10-s \$0-param-10-r empty 133 7 0 10 #606060 #000000 #000000 0 1;
#X obj 204 185 hsl 61 8 0 127 0 1 \$0-param-18-s \$0-param-18-r empty 133 7 0 10 #7c7c7c #000000 #000000 0 1;
#X obj 137 216 hsl 61 8 0 127 0 1 \$0-param-11-s \$0-param-11-r empty 133 7 0 10 #606060 #000000 #000000 1700 1;
#X obj 204 216 hsl 61 8 0 127 0 1 \$0-param-19-s \$0-param-19-r empty 133 7 0 10 #7c7c7c #000000 #000000 5500 1;
#X obj 137 247 hsl 61 8 0 127 0 1 \$0-param-12-s \$0-param-12-r empty 133 7 0 10 #606060 #000000 #000000 0 1;
#X obj 204 247 hsl 61 8 0 127 0 1 \$0-param-20-s \$0-param-20-r empty 133 7 0 10 #7c7c7c #000000 #000000 3200 1;
#X obj 137 278 hsl 61 8 0 127 0 1 \$0-param-13-s \$0-param-13-r empty 133 7 0 10 #606060 #000000 #000000 4900 1;
#X obj 204 278 hsl 61 8 0 127 0 1 \$0-param-21-s \$0-param-21-r empty 133 7 0 10 #7c7c7c #000000 #000000 3600 1;
#X obj 137 309 hsl 61 8 0 127 0 1 \$0-param-14-s \$0-param-14-r empty 133 7 0 10 #606060 #000000 #000000 0 1;
#X obj 204 309 hsl 61 8 0 127 0 1 \$0-param-22-s \$0-param-22-r empty 133 7 0 10 #7c7c7c #000000 #000000 0 1;
#X obj 1520 43 hats-sample-loader hat1 1;
#X obj 1520 103 hats-sample-loader hat4 4;
#X obj 1520 123 hats-sample-loader hat5 5;
#X obj 1520 143 hats-sample-loader hat6 6;
#X obj 1520 163 hats-sample-loader hat7 7;
#X obj 1520 183 hats-sample-loader hat8 8;
#X obj 1520 203 hats-sample-loader hat9 9;
#X obj 1520 223 hats-sample-loader hat10 10;
#X obj 1520 243 hats-sample-loader hat11 11;
#X obj 1520 263 hats-sample-loader hat12 12;
#X obj 1520 283 hats-sample-loader hat13 13;
#X obj 1520 303 hats-sample-loader hat14 14;
#X obj 1520 323 hats-sample-loader hat15 15;
#X obj 1520 343 hats-sample-loader hat16 16;
#X obj 1520 363 hats-sample-loader hat17 17;
#X obj 1520 383 hats-sample-loader hat18 18;
#X obj 1520 403 hats-sample-loader hat19 19;
#X obj 1520 423 hats-sample-loader hat20 20;
#X obj 1520 443 hats-sample-loader hat21 21;
#X obj 1520 463 hats-sample-loader hat22 22;
#X obj 1520 483 hats-sample-loader hat23 23;
#X obj 1520 503 hats-sample-loader hat24 24;
#X obj 1520 523 hats-sample-loader hat25 25;
#X obj 1700 43 hats-sample-loader hat26 26;
#X obj 1700 63 hats-sample-loader hat27 27;
#X obj 1700 83 hats-sample-loader hat28 28;
#X obj 1700 103 hats-sample-loader hat29 29;
#X obj 1700 123 hats-sample-loader hat30 30;
#X obj 1700 143 hats-sample-loader hat31 31;
#X obj 1700 163 hats-sample-loader hat32 32;
#X obj 1700 183 hats-sample-loader hat33 33;
#X obj 1700 203 hats-sample-loader hat34 34;
#X obj 1700 223 hats-sample-loader hat35 35;
#X obj 1700 243 hats-sample-loader hat36 36;
#X obj 1700 263 hats-sample-loader hat37 37;
#X obj 1700 283 hats-sample-loader hat38 38;
#X obj 1700 303 hats-sample-loader hat39 39;
#X obj 1700 323 hats-sample-loader hat40 40;
#X obj 1700 343 hats-sample-loader hat41 41;
#X obj 1700 363 hats-sample-loader hat42 42;
#X obj 1700 383 hats-sample-loader hat43 43;
#X obj 1700 403 hats-sample-loader hat44 44;
#X obj 1700 423 hats-sample-loader hat45 45;
#X obj 1700 443 hats-sample-loader hat46 46;
#X obj 1700 463 hats-sample-loader hat47 47;
#X obj 1700 483 hats-sample-loader hat48 48;
#X obj 1700 503 hats-sample-loader hat49 49;
#X obj 1700 523 hats-sample-loader hat50 50;
#X obj 1098 266 * 127;
#X obj 1098 307 i;
#X obj 1098 286 / 2.591;
#X obj 1098 328 + 1;
#X obj 1152 266 * 127;
#X obj 1152 307 i;
#X obj 1152 286 / 2.591;
#X obj 1152 328 + 1;
#X msg 336 471 symbol \$1/;
#X msg 432 471 symbol \$1/;
#X obj 336 287 core_mod_display \$0;
#X connect 3 0 4 0;
#X connect 4 0 21 0;
#X connect 5 0 6 0;
#X connect 6 0 3 0;
#X connect 6 1 7 0;
#X connect 7 0 106 0;
#X connect 21 0 107 0;
#X connect 42 0 47 0;
#X connect 43 0 44 0;
#X connect 44 0 45 0;
#X connect 45 0 42 0;
#X connect 46 0 43 0;
#X connect 48 0 53 0;
#X connect 49 0 50 0;
#X connect 50 0 51 0;
#X connect 51 0 48 0;
#X connect 52 0 49 0;
#X connect 54 0 71 0;
#X connect 55 0 56 0;
#X connect 56 0 57 0;
#X connect 57 0 54 0;
#X connect 58 0 73 0;
#X connect 59 0 60 0;
#X connect 60 0 61 0;
#X connect 61 0 58 0;
#X connect 62 0 75 0;
#X connect 63 0 64 0;
#X connect 64 0 65 0;
#X connect 65 0 62 0;
#X connect 66 0 77 0;
#X connect 67 0 68 0;
#X connect 68 0 69 0;
#X connect 69 0 66 0;
#X connect 70 0 55 0;
#X connect 72 0 59 0;
#X connect 74 0 63 0;
#X connect 76 0 67 0;
#X connect 82 0 26 0;
#X connect 82 1 27 0;
#X connect 82 2 28 0;
#X connect 82 3 29 0;
#X connect 82 4 30 0;
#X connect 82 5 31 0;
#X connect 82 6 32 0;
#X connect 82 7 33 0;
#X connect 87 0 180 0;
#X connect 88 0 184 0;
#X connect 89 0 118 0;
#X connect 90 0 117 0;
#X connect 91 0 116 0;
#X connect 92 0 119 0;
#X connect 99 0 101 0;
#X connect 100 0 102 0;
#X connect 105 0 107 1;
#X connect 106 0 105 0;
#X connect 107 0 8 0;
#X connect 116 0 21 5;
#X connect 117 0 21 4;
#X connect 118 0 21 3;
#X connect 119 0 21 6;
#X connect 180 0 182 0;
#X connect 181 0 183 0;
#X connect 182 0 181 0;
#X connect 183 0 21 1;
#X connect 183 0 188 0;
#X connect 184 0 186 0;
#X connect 185 0 187 0;
#X connect 186 0 185 0;
#X connect 187 0 21 2;
#X connect 187 0 189 0;
#X connect 188 0 25 0;
#X connect 189 0 41 0;
#X coords 0 -1 1 1 220 270 2 100 100;
