#N canvas 440 187 1000 488 10;
#X declare -path patch_editor_abs/controller;
#X declare -path patch_editor_abs;
#X declare -path patch_editor_abs/test;
#X declare -path sample-library;
#X declare -path patch_editor_abs/externals;
#X declare -path patch_editor_abs/airwindows;
#X declare -path patch_editor_abs/core;
#X declare -path patch_editor_abs/utility;
#N canvas 117 31 1084 707 patch-editor-do-not-delete 0;
#N canvas 0 25 1073 713 upper-left-menu+manual 0;
#X msg 36 85 \; pd-quick-guide vis \$1;
#X obj 36 41 r open-quick-guide!;
#X msg 36 63 1;
#N canvas 1 25 915 719 quick-guide 0;
#X obj 454 462 cnv 15 375 125 empty empty empty 20 12 0 14 #dc4c90 #404040 0;
#X obj 454 330 cnv 15 375 125 empty empty empty 20 12 0 14 #90d4b0 #404040 0;
#X obj 17 15 cnv 15 750 60 empty empty Welcome_to-Molipe 20 18 0 24 #90d4b0 #fcfcfc 0;
#X text 19 86 FOLLOW THESE SIMPLE STEPS TO GET STARTED:;
#X text 19 127 1 When starting the AUTOMATONISM you'll see a list of all current available modules to the right. Click the button to the left of the module you want to load and it will appear to the left in the parent window. The module list will then disappear. To call back the module list you can click the grey link in the upper left called "MODULES(esc) or simply upress "esc" on your keyboard;
#X text 19 216 2 Create a BASIC-OSC from the module list.;
#X text 20 312 4 Pure Data has an EDIT MODE and a PERFORMANCE MODE. To make patch connections between objects we need to be in EDIT MODE and to interact with the GUI we need to be in PERFORMANCE MODE. Toggle between the two modes with cmd+e.;
#X text 19 242 3 Open the module list and create the module in the lower right corner called MAESTRO4(dac~). This is the digital-to-analog-converter and is one of the modules that passes on sound to your speakers. Now you can soon make a sound.;
#X text 19 376 5 All inputs are at the top of the modules and all outputs are at the bottom. In EDIT MODE \, connect the BASIC-OSC's output CH1 on the MAESTRO4. Now \, you should have sound. Switch to PERFORMANCE MODE and use the mouse to move the PITCH slider on the BASIC-OSC module.;
#X text 20 449 6 Right click on any module and choose HELP to read more about a module's functions.;
#X text 454 115 7 To save parameter states on each module \, you have to save the pd file \, like you normally would do from the FILE menu or cmd+s \, and then click the grey SAVE! canvas in the left bottom corner(or simply press ENTER on your keyboard) and you'll see the canvas change color from grey to green for a brief moment. All parameter values are now written to textfiles and can be loaded to the equivalent module and instance number next time the patch is loaded.;
#X text 454 215 8 You can call modules without using the module list simply by creating a new object in pd and type the module's name. For the state saving mechanism to work properly you do need to give the module a unique numerical argument. Type "basic-osc 1" for an oscillator and "basic-osc 2" if you need another one. By using the MODULES list this unique numbering is done automatically for you. Use the RESET link in the upper left corner when starting a new patch as this will reset the counter of unique numbers for modules.;
#X text 457 333 9 IMPORTANT!!! In order for Automatonism to work properly \, each patch needs to contain the correct folder structure. A folder--that you can name freely--must contain the folder "patch_editor_abs" and the pd-file "main.pd". Copy the entire main parent folder to start a new project. Please do not add the abstractions to your PD Search path \, because the state svaing system will be writing textfiles in your external folders.;
#X text 455 464 ABOUT RESET BUTTON: Only use the RESET button when your canvas is empty. If you click it in the middle of a patch \, modules will start getting identical state saving numbers to already existing modules. In other words \, if you click it in the middle of a patch \, state saving WILL NOT WORK! The RESET button is there for when you start over \, and perhaps do not want to create "BASIC-OSC 99" \, but start from zero for a clearer view of the patch.;
#X text 34 52 RIGHT+CLICK & CHOOSE 'HELP' ON ANY MODULE!;
#X restore 36 18 pd quick-guide;
#X msg 38 178 1;
#X obj 38 156 r open-signal-flow!;
#X msg 38 203 \; pd-signal-flow vis \$1;
#N canvas 416 25 852 668 signal-flow 0;
#X obj 22 10 cnv 15 365 30 empty empty SIGNAL-FLOW 20 12 0 14 #dc4c90 #fcfcfc 0;
#X obj 26 161 hsl 128 15 0 127 0 0 empty empty empty -2 -8 0 10 #9898dc #fcfcfc #000000 0 1;
#X obj 24 214 hsl 128 15 0 127 0 0 empty empty empty -2 -8 0 10 #90d4b0 #000000 #000000 0 1;
#X obj 21 281 cnv 5 5 5 empty empty CLOCK-IN 0 0 0 8 #fcfcfc #dc4c90 0;
#X text 17 328 All inputs and outputs in the editor are at signal rate within the range of -1 to 1 In contrast to normal pd-programming there is no distinction between control rate and signal rate messages. Everything is converted to signal rate.;
#X msg 20 439 bang;
#X msg 20 461 1 0 \, 0 1 1;
#X obj 20 483 vline~;
#X msg 23 535 bang;
#X msg 23 557 1 0 \, 0 1 1;
#X obj 23 579 vline~;
#X msg 23 623 bang;
#X text 19 404 How to convert a simple bang to a trigger/gate signal in the patch editor:;
#X obj 23 601 threshold~ 0.99 0 1 0;
#X text 21 518 How to convert back to a control rate bang:;
#X obj 404 569 hsl 128 15 0 127 0 0 empty empty empty -2 -8 0 10 #fcfcfc #000000 #000000 0 1;
#X obj 401 589 / 127;
#X obj 401 611 sig~;
#X text 398 534 How convert control numbers to the patch editor's signal flow:;
#X text 541 568 0-127;
#X text 21 178 Purple sliders and inlets means the slider will function as an attenuator for incoming CV.;
#X text 21 48 There are three types of signals in the patch editor: audio \, cv and trigger/gate/pulse/clock. The latter are marked with PINK inlets and outlets. General rule in the patch editor is that all connections are possible. Or \, at least \, just like in any hardware modular system - all connections might not work but there's no harm in trying. ! ! The patch-editor uses color-coding to clarify the signal flow as much as possible.;
#X text 18 287 And pink inlets means the input is expecting a trigger/gate signal to function properly.;
#X text 19 230 Green sliders and inlets tells you that the parameter is bi-polar \, most oftenly working as an attenueverter for incoming CV.;
#X connect 5 0 6 0;
#X connect 6 0 7 0;
#X connect 8 0 9 0;
#X connect 9 0 10 0;
#X connect 10 0 13 0;
#X connect 13 0 11 0;
#X connect 15 0 16 0;
#X connect 16 0 17 0;
#X restore 39 134 pd signal-flow;
#X msg 36 288 1;
#N canvas 138 156 591 276 color-code 0;
#X obj 140 39 hsl 128 15 0 127 0 0 empty empty empty -2 -8 0 10 #9898dc #fcfcfc #000000 0 1;
#X obj 140 100 hsl 128 15 0 127 0 0 empty empty empty -2 -8 0 10 #90d4b0 #000000 #000000 0 1;
#X obj 137 175 cnv 5 5 5 empty empty CLOCK-IN 0 0 0 8 #fcfcfc #dc4c90 0;
#X text 134 56 Purple sliders and inlets means the slider will function as an attenuator for incoming CV.;
#X text 133 117 Green sliders and inlets tells you that the parameter is bi-polar \, most oftenly working as an attenueverter for incoming CV.;
#X text 135 181 And pink inlets means the input is expecting a trigger/gate signal or short impulse(square-wave) to function properly.;
#X restore 37 244 pd color-code;
#X obj 36 266 r open-color-code!;
#X msg 36 313 \; pd-color-code vis \$1;
#X msg 37 404 1;
#N canvas 7 25 355 439 manual 0;
#X obj 28 82 bng 30 250 50 0 open-signal-flow! empty empty 10 7 0 10 #9898dc #000000 #fcfcfc;
#X obj 49 82 bng 30 250 50 0 open-signal-flow! empty empty 17 7 0 10 #fcfcfc #000000 #000000;
#X obj 78 82 bng 30 250 50 0 open-signal-flow! empty empty 17 7 0 10 #fcfcfc #000000 #000000;
#X obj 109 82 bng 30 250 50 0 open-signal-flow! empty empty 17 7 0 10 #fcfcfc #000000 #000000;
#X obj 79 82 cnv 15 60 30 empty empty FLOW 6 12 0 14 #e0e0e0 #404040 0;
#X obj 18 82 cnv 15 60 30 empty empty SIGNAL 18 12 0 14 #e0e0e0 #404040 0;
#X obj 17 12 cnv 15 320 60 empty empty WELCOME-TO-THE-AUTOMATONISM-MANUAL! 20 12 0 14 #90d4b0 #fcfcfc 0;
#X obj 19 119 bng 30 250 50 0 open-color-code! empty empty 17 7 0 10 #fcfcfc #000000 #000000;
#X obj 49 119 bng 30 250 50 0 open-color-code! empty empty 17 7 0 10 #fcfcfc #000000 #000000;
#X obj 79 119 bng 30 250 50 0 open-color-code! empty empty 17 7 0 10 #fcfcfc #000000 #000000;
#X obj 109 119 bng 30 250 50 0 open-color-code! empty empty 17 7 0 10 #fcfcfc #000000 #000000;
#X obj 79 119 cnv 15 60 30 empty empty CODE 6 12 0 14 #e0e0e0 #404040 0;
#X obj 18 119 cnv 15 60 30 empty empty COLOR 18 12 0 14 #e0e0e0 #404040 0;
#X obj 19 196 bng 30 250 50 0 open-help-files! empty empty 17 7 0 10 #fcfcfc #000000 #000000;
#X obj 18 157 bng 30 250 50 0 open-state-saving! empty empty 17 7 0 10 #fcfcfc #000000 #000000;
#X obj 48 157 bng 30 250 50 0 open-state-saving! empty empty 17 7 0 10 #fcfcfc #000000 #000000;
#X obj 78 157 bng 30 250 50 0 open-state-saving! empty empty 17 7 0 10 #fcfcfc #000000 #000000;
#X obj 108 157 bng 30 250 50 0 open-state-saving! empty empty 17 7 0 10 #fcfcfc #000000 #000000;
#X obj 79 157 cnv 15 60 30 empty empty SAVING 6 12 0 14 #e0e0e0 #404040 0;
#X obj 18 157 cnv 15 60 30 empty empty STATE 18 12 0 14 #e0e0e0 #404040 0;
#X obj 49 196 bng 30 250 50 0 open-help-files! empty empty 17 7 0 10 #fcfcfc #000000 #000000;
#X obj 94 196 bng 30 250 50 0 open-help-files! empty empty 17 7 0 10 #fcfcfc #000000 #000000;
#X obj 109 196 bng 30 250 50 0 open-help-files! empty empty 17 7 0 10 #fcfcfc #000000 #000000;
#X obj 79 196 cnv 15 60 30 empty empty FILES 6 12 0 14 #e0e0e0 #404040 0;
#X obj 18 196 cnv 15 60 30 empty empty HELP 18 12 0 14 #e0e0e0 #404040 0;
#X obj 19 232 bng 30 250 50 0 open-folder-hierarchy! empty empty 17 7 0 10 #fcfcfc #000000 #000000;
#X obj 49 232 bng 30 250 50 0 open-folder-hierarchy! empty empty 17 7 0 10 #fcfcfc #000000 #000000;
#X obj 79 232 bng 30 250 50 0 open-folder-hierarchy! empty empty 17 7 0 10 #fcfcfc #000000 #000000;
#X obj 139 232 bng 30 250 50 0 open-folder-hierarchy! empty empty 17 7 0 10 #fcfcfc #000000 #000000;
#X obj 109 232 bng 30 250 50 0 open-folder-hierarchy! empty empty 17 7 0 10 #fcfcfc #000000 #000000;
#X obj 78 232 cnv 15 100 30 empty empty HIERARCHY 20 12 0 14 #e0e0e0 #404040 0;
#X obj 17 232 cnv 15 60 30 empty empty FOLDER 18 12 0 14 #e0e0e0 #404040 0;
#X obj 46 268 bng 30 250 50 0 open-feedback-loops! empty empty 17 7 0 10 #fcfcfc #000000 #000000;
#X obj 46 304 bng 30 250 50 0 open-license! empty empty 17 7 0 10 #fcfcfc #000000 #000000;
#X obj 16 268 bng 30 250 50 0 open-feedback-loops! empty empty 17 7 0 10 #fcfcfc #000000 #000000;
#X obj 106 268 bng 30 250 50 0 open-feedback-loops! empty empty 17 7 0 10 #fcfcfc #000000 #000000;
#X obj 76 268 bng 30 250 50 0 open-feedback-loops! empty empty 17 7 0 10 #fcfcfc #000000 #000000;
#X obj 166 268 bng 30 250 50 0 open-feedback-loops! empty empty 17 7 0 10 #fcfcfc #000000 #000000;
#X obj 136 268 bng 30 250 50 0 open-feedback-loops! empty empty 17 7 0 10 #fcfcfc #000000 #000000;
#X obj 16 268 cnv 15 180 30 empty empty FEEDBACK-&-DSP-LOOPS 18 12 0 14 #e0e0e0 #404040 0;
#X obj 16 304 bng 30 250 50 0 open-license! empty empty 17 7 0 10 #fcfcfc #000000 #000000;
#X obj 106 304 bng 30 250 50 0 open-license! empty empty 17 7 0 10 #fcfcfc #000000 #000000;
#X obj 76 304 bng 30 250 50 0 open-license! empty empty 17 7 0 10 #fcfcfc #000000 #000000;
#X obj 16 304 cnv 15 120 30 empty empty LICENSE 18 12 0 14 #e0e0e0 #404040 0;
#X obj 154 81 bng 30 250 50 0 open-external-msg! empty empty 10 7 0 10 #9898dc #000000 #fcfcfc;
#X obj 184 81 bng 30 250 50 0 open-external-msg! empty empty 17 7 0 10 #fcfcfc #000000 #000000;
#X obj 213 81 bng 30 250 50 0 open-external-msg! empty empty 17 7 0 10 #fcfcfc #000000 #000000;
#X obj 273 81 bng 30 250 50 0 open-external-msg! empty empty 17 7 0 10 #fcfcfc #000000 #000000;
#X obj 243 81 bng 30 250 50 0 open-external-msg! empty empty 17 7 0 10 #fcfcfc #000000 #000000;
#X obj 152 81 cnv 15 120 30 empty empty EXTERNAL 18 12 0 14 #e0e0e0 #404040 0;
#X obj 237 81 cnv 15 80 30 empty empty MESSAGES 6 12 0 14 #e0e0e0 #404040 0;
#X restore 37 358 pd manual;
#X msg 37 429 \; pd-manual vis \$1;
#X obj 37 382 r open-manual!;
#X msg 34 547 1;
#X obj 34 526 r open-state-saving!;
#X msg 34 571 \; pd-state-saving vis \$1;
#N canvas 236 34 420 357 state-saving 0;
#X obj 17 12 cnv 15 400 60 empty empty STATE_SAVING 20 12 0 14 #dc4c90 #fcfcfc 0;
#X text 20 82 The state saving system works by writing parameter values to textfiles in the folder "statesave" inside the "patch_editor_abs" folder. When you load a module form the module list it is automatically being given a unique creation argument which creates a textfile unique for that instance of the module. To save your patch \, simply save as you normally would from the FILE menu and the press ENTER on your keyboard or click the SAVE button in the upper left corner of the main window.;
#X text 20 216 IMPORTANT!!! To start a new project \, the entire folder structure needs to be copied since the abstractions and textfiles are unique to every project. Click the RESET button in the upper left corner to reset the counter that gives unique creation arguments for the modules.;
#X restore 35 504 pd state-saving;
#X msg 203 62 1;
#N canvas 23 25 438 191 help-files 0;
#X obj 17 12 cnv 15 400 60 empty empty HELP-FILES 20 12 0 14 #dc4c90 #fcfcfc 0;
#X text 20 84 Right + click on individual modules and choose "HELP" to access detailed help-files on each modules inlets \, outlets and functionalities.;
#X restore 203 15 pd help-files;
#X obj 203 36 r open-help-files!;
#X msg 203 88 \; pd-help-files vis \$1;
#X msg 204 173 1;
#N canvas 0 22 434 295 organelle-map 0;
#X obj 17 12 cnv 15 400 60 empty empty MAPPING-ORGANELLE-KNOBS/KEYS 20 12 0 14 #dc4c90 #fcfcfc 0;
#X text 20 84 There are specific modules for integrating the Organelle knobs and keyboard into your patches. Use "organelle-keyboard and "organelle-knobs" to connect the keyboard or knobs to parameter values in your patch. Remember that the parameter slider on the module acts as an offset when external cv is connected so set the slider to zero to access the entire range of the parameter with the organelle keyboard or knobs. See the"organelle-keyboard" and "organelle-knobs" help-files for more info. There are many ways to use PD with the Organelle. The "organelle-keyboard" and "organelle-knobs" modules use a simplistic approach. Use your own more elaborate pd-code for deeper control.;
#X restore 204 130 pd organelle-map;
#X obj 204 151 r open-organelle-map!;
#X msg 204 198 \; pd-organelle-map vis \$1;
#X msg 202 416 1;
#X obj 202 394 r open-folder-hierarchy!;
#N canvas 0 25 420 254 folder-hierarchy 0;
#X obj 17 12 cnv 15 400 60 empty empty FOLDER-HIEARCHY 20 12 0 14 #dc4c90 #fcfcfc 0;
#X text 20 84 Inside your project folder you'll find a file called "main.pd" and a folder called "patch_editor_abs". The "main.pd" must stay named the same for Automatonism to function properly. Also \, each of your projects/patches needs tp be in a separet folder with its own "main.pd" and "patch_editor_abs" folder. Copy & paste the project folder \, which you can give any name \, when you want to start a new project/patch.;
#X restore 203 371 pd folder-hierarchy;
#X msg 202 446 \; pd-folder-hierarchy vis \$1;
#X msg 198 543 1;
#N canvas 0 25 432 503 export-patches 0;
#X obj 17 12 cnv 15 400 60 empty empty EXPORT-PATCH 20 12 0 14 #e0e0e0 #404040 0;
#X text 20 84 So \, how do you export patces made in the editor to the Organelle?;
#X text 26 131 LOREM IPSUM.;
#X restore 199 498 pd export-patches;
#X obj 198 521 r open-export-patches!;
#X msg 198 572 \; pd-export-patches vis \$1;
#X msg 387 57 1;
#N canvas 445 294 435 328 tips-&-tricks 0;
#X obj 17 12 cnv 15 400 60 empty empty TIPS&TRICKS 20 12 0 14 #dc4c90 #fcfcfc 0;
#X text 20 110 Hide portions of a complex patch in a subpatch to gain more space.;
#X text 20 175 Don't forget to use utility modules;
#X text 20 201 Existing modular synthesis tutorials ond patches can be translated to the XOUDLAR playGROUND \; like nord modular patches \, sound on sound synthesis secrets \, allen strange's book \, make noise shared system patches \, buchla patches etc;
#X text 20 84 Useful tips and tricks:;
#X text 20 149 Use [switch~] in subpatches in large projects too free CPU;
#X text 20 266 If you want two same modules to share exact parameters copy&paste the module instead of loading a new from the module list.;
#X restore 389 12 pd tips-&-tricks;
#X obj 387 35 r open-tips-&-tricks!;
#X msg 387 88 \; pd-tips-&-tricks vis \$1;
#X msg 384 187 1;
#N canvas 0 25 432 503 advanced-pd-users 0;
#X obj 17 12 cnv 15 400 60 empty empty ADVANCED-PD-USERS 20 12 0 14 #e0e0e0 #404040 0;
#X text 20 84 Some useful information for advanced pd users who want to change \, interact or expand on the XODULAR PLAYGROUND code:;
#X text 21 141 LOREM IPSUM;
#X restore 386 142 pd advanced-pd-users;
#X obj 384 165 r open-advanced-pd-users!;
#X msg 384 218 \; pd-advanced-pd-users vis \$1;
#X msg 382 309 1;
#X obj 382 287 r open-make-your-own-module!;
#N canvas 498 100 673 716 make-your-own-module 0;
#X obj 17 12 cnv 15 400 60 empty empty MAKE-YOUR-OWN-MODULE 20 12 0 14 #dc4c90 #fcfcfc 0;
#X msg 24 128 bang;
#X msg 24 150 1 0 \, 0 1 1;
#X obj 24 172 vline~;
#X msg 23 222 bang;
#X msg 23 244 1 0 \, 0 1 1;
#X obj 23 266 vline~;
#X msg 23 310 bang;
#X text 23 93 How to convert a simple bang to a trigger/gate signal in the patch editor:;
#X obj 23 288 threshold~ 0.99 0 1 0;
#X text 21 205 How to convert back to a control rate bang:;
#X obj 28 389 hsl 128 15 0 127 0 0 empty empty empty -2 -8 0 10 #fcfcfc #000000 #000000 0 1;
#X obj 25 409 / 127;
#X obj 25 431 sig~;
#X text 22 354 How convert control numbers to the patch editor's signal flow:;
#X text 165 388 0-127;
#X text 21 509 GRAPH ON PARENT;
#X text 22 539 MODULE TITLE;
#X text 24 575 INLET/OUTLET LABELS;
#X text 33 614 STATE-SAVING;
#X text 20 477 CV INPUTS:;
#X connect 1 0 2 0;
#X connect 2 0 3 0;
#X connect 4 0 5 0;
#X connect 5 0 6 0;
#X connect 6 0 9 0;
#X connect 9 0 7 0;
#X connect 11 0 12 0;
#X connect 12 0 13 0;
#X restore 384 264 pd make-your-own-module;
#X msg 382 340 \; pd-make-your-own-module vis \$1;
#X msg 381 429 1;
#X obj 381 407 r open-feedback-loops!;
#N canvas 0 25 420 323 feedback-loops 0;
#X obj 17 12 cnv 15 400 60 empty empty FEEDBACK-&-DSP-LOOPS 20 12 0 14 #dc4c90 #fcfcfc 0;
#X text 23 83 Feedback patching is very much possible in the AUTOMATONISM \, just a little bit differently from physical modular systems. If you try to patch a module into itself or any kind of feedback routing \, Pure Data will become silent and you'll get a "DSP loop detected" message in the Pd window. To avoid this you need to delay the signal a tiny tiny bit. Normal [send~) and [receive~] objects automatically does this in Pd. Send the signal to be feedbacked into a [send~ MyFeedback] and pick it up using [receive~ MyFeedback] and then patch into the input to close the feedback loop. Obviously "MyFeedback" could be anything and the abbreviation for send and receive [s~] and [r~] work equally as well.;
#X restore 383 384 pd feedback-loops;
#X msg 381 460 \; pd-feedback-loops vis \$1;
#X msg 380 543 1;
#N canvas 0 25 439 625 license 0;
#X obj 17 12 cnv 15 400 60 empty empty LICENSE 20 12 0 14 #e0e0e0 #404040 0;
#X text 23 83 Copyright ©  2017 \, Johan Eriksson Automatonism is free software: you can redistribute it and/or modify it under the terms of the GNU General Public License as published by the Free Software Foundation \, either version 3 of the License \, or any later version. This program is distributed in the hope that it will be useful \, but WITHOUT ANY WARRANTY \; without even the implied warranty of MERCHANTABILITY or FITNESS FOR A PARTICULAR PURPOSE. See the GNU General Public License for more details.;
#X text 23 213 ADD ON: This is a modification of the fantastic Automatism modular synth. Its adds modules and a sample library. Its was made as a foundation of the live performances of the group "diet". For more information check: www.wueste.info;
#X restore 382 498 pd license;
#X obj 380 521 r open-license!;
#X msg 380 574 \; pd-license vis \$1;
#N canvas 293 25 419 217 reset-warning 0;
#X obj 21 143 bng 15 250 50 0 \$0-reset! empty <--RESET! 17 7 0 10 #fcfcfc #000000 #000000;
#X text 18 49 WARNING!;
#X text 19 68 Never press the RESET! button in the middle of working of a patch since it can cause the state saving mechanism to malfunction. Only use it when starting a new patch and you want the module counters to start over at zero. PRESS THE BUTTON BELOW TO RESET:;
#X restore 600 15 pd reset-warning;
#X msg 601 62 1;
#X obj 601 40 r open-reset-warning!;
#X msg 601 84 \; pd-reset-warning vis \$1;
#X obj 601 117 r \$0-reset!;
#X msg 601 193 \; pd-reset-warning vis 0;
#X obj 601 139 delay 500;
#X msg 604 289 1;
#N canvas 472 160 457 575 external-msg 0;
#X obj 17 12 cnv 15 400 60 empty empty EXTERNAL_MESSAGES 20 12 0 14 #dc4c90 #fcfcfc 0;
#X text 27 86 You can send external control messages into Automatonism modules since Automatonsim 3.0. This makes it easier to map midi controllers to specific parameters and integrate your patches with other Pure Data patches. External Messages routing in Automatonism works like this:;
#X obj 41 181 hsl 128 15 0 127 0 0 empty empty 0-127 -2 -8 0 10 #fcfcfc #000000 #000000 0 1;
#X floatatom 38 201 5 0 0 0 - - - 0;
#X msg 38 221 PITCH \$1 1;
#X obj 38 242 s basic-osc;
#X text 36 276 Send a value between 0-127;
#X text 38 395 To control the P-WIDTH slider of the BASIC-OSC with instance number 3 \, do this instead:;
#X obj 41 451 hsl 128 15 0 127 0 0 empty empty 0-127 -2 -8 0 10 #fcfcfc #000000 #000000 0 1;
#X floatatom 38 471 5 0 0 0 - - - 0;
#X msg 38 491 P-WIDTH \$1 3;
#X obj 38 512 s basic-osc;
#X text 37 296 Write a message where the first word is the name of the slider you are trying to externally control \, type "\$1" to pass on your value to the module and finally type the instance number of the specific module you want to control. The instance number is always showcased to the right of the module's title. Then create a send object and send to the name of the module \, for example [s basic-osc];
#X connect 2 0 3 0;
#X connect 3 0 4 0;
#X connect 4 0 5 0;
#X connect 8 0 9 0;
#X connect 9 0 10 0;
#X connect 10 0 11 0;
#X restore 606 244 pd external-msg;
#X obj 604 267 r open-external-msg!;
#X msg 604 320 \; pd-external-msg vis \$1;
#X msg 612 533 1;
#X text 611 465 DIET-Modification:;
#N canvas 535 199 672 298 sample-library 0;
#N canvas 0 25 1440 789 sample-editor 0;
#X obj 55 458 openpanel;
#X obj 55 494 soundfiler;
#X floatatom 55 512 31 0 0 0 - - - 0;
#X msg 55 476 read -resize \$1 sample-editor;
#N canvas 0 22 450 278 (subpatch) 0;
#X array sample-editor 4608 float 2;
#X coords 0 1 4608 -1 500 140 2 0 0;
#X restore 109 134 graph;
#X msg 55 587 \; sample-editor normalize;
#X obj 217 592 bng 16 250 50 0 empty empty Normalize 20 8 0 10 #fcfcfc #000000 #000000;
#X obj 109 349 bng 16 250 50 0 \$0-load-comp empty Load\ from\ Computer 20 8 0 10 #fcfcfc #000000 #000000;
#X msg 271 460 \; sample-editor edit 0;
#X obj 271 439 loadbang;
#X obj 691 753 text set library, f 22;
#X obj 975 218 text get library, f 22;
#X msg 734 735 1e+15;
#X floatatom 1104 240 5 0 0 0 - - - 0;
#X floatatom 1061 198 5 0 0 0 - - - 0;
#X obj 447 298 hradio 16 1 0 10 empty empty empty 0 -8 0 10 #fcfcfc #000000 #000000 0;
#X floatatom 575 283 5 0 0 0 - - - 0;
#X obj 450 515 soundfiler;
#X floatatom 450 533 31 0 0 0 - - - 0;
#X obj 450 453 f;
#X obj 866 495 soundfiler;
#X floatatom 866 513 31 0 0 0 - - - 0;
#X obj 866 440 f;
#X obj 691 717 pack s f;
#X obj 691 612 f;
#X floatatom 1062 258 5 0 0 0 - - - 0;
#X obj 975 240 unpack symbol f;
#X listbox 975 275 19 0 0 0 - - - 0;
#X obj 108 296 bng 16 250 50 0 reload-library empty Reload\ Library 20 8 0 10 #fcfcfc #000000 #000000;
#X obj 628 136 vradio 16 1 0 6 empty empty BANKS 0 -8 0 10 #fcfcfc #000000 #000000 0;
#X obj 648 144 cnv 5 5 5 empty empty KICK 0 0 0 8 #fcfcfc #000000 0;
#X obj 648 159 cnv 5 5 5 empty empty SNARE 0 0 0 8 #fcfcfc #000000 0;
#X obj 648 176 cnv 5 5 5 empty empty CLAP 0 0 0 8 #fcfcfc #000000 0;
#X obj 648 192 cnv 5 5 5 empty empty HAT 0 0 0 8 #fcfcfc #000000 0;
#X obj 648 208 cnv 5 5 5 empty empty SHAKER 0 0 0 8 #fcfcfc #000000 0;
#X obj 648 225 cnv 5 5 5 empty empty PERCS 0 0 0 8 #fcfcfc #000000 0;
#X obj 769 232 sel 0 1 2 3 4 5;
#X obj 450 472 pack f s;
#X msg 450 496 write sample-library/\$2\$1.wav sample-editor;
#X msg 769 261 symbol kick;
#X msg 784 279 symbol snare;
#X msg 797 299 symbol clap;
#X msg 812 317 symbol hat;
#X msg 824 336 symbol shaker;
#X msg 839 354 symbol percs;
#X msg 866 476 read -resize sample-library/\$2\$1.wav sample-editor;
#X obj 866 458 pack f s;
#X obj 443 342 cnv 16 300 30 empty empty empty 20 12 0 10 #ffcefa #404040 0;
#X obj 55 440 r \$0-load-comp;
#X obj 55 550 t b;
#X obj 55 568 del 5;
#X obj 62 531 s \$0-sample-length;
#X obj 736 698 r \$0-sample-length;
#X obj 866 541 s \$0-sample-length;
#X obj 691 593 r \$0-save-lib;
#X obj 450 434 r \$0-save-lib;
#X obj 866 421 r \$0-load-lib;
#X obj 605 348 bng 16 250 50 0 \$0-load-lib empty LOAD\ FROM\ LIBRARY 20 8 0 10 #fcfcfc #000000 #000000;
#X obj 454 349 bng 16 250 50 0 \$0-save-lib empty SAVE\ TO\ LIBRARY 20 8 0 10 #fcfcfc #000000 #000000;
#X obj 769 383 s \$0-banks;
#X obj 495 453 r \$0-banks;
#X obj 911 440 r \$0-banks;
#X obj 820 735 r \$0-banks;
#X obj 357 647 tabplay~ sample-editor;
#X obj 259 349 bng 16 250 50 0 \$0-play empty Play 20 8 0 10 #fcfcfc #000000 #000000;
#X obj 357 626 r \$0-play;
#X obj 357 669 dac~;
#X obj 1007 575 ==;
#X msg 1027 557 0;
#X obj 988 539 t b f b;
#X obj 1007 611 sel 1;
#X obj 1007 593 tgl 16 0 empty empty empty 0 -8 0 10 #fcfcfc #000000 #000000 0 1;
#X msg 1007 632 \; sample-editor const 0;
#X obj 1077 146 r \$0-banks;
#X obj 810 52 text define -k kick;
#A set kick0 4608 \; kick1 23088 \; kick2 11245 \; kick3 23088 \; kick4 7936 \; kick5 7263 \; kick6 6687 \; kick7 5631 \; kick8 11695 \; kick9 24447 \;;
#X f 27;
#X obj 810 72 text define -k snare;
#A set snare0 5774 \; snare1 13440 \; snare2 12800 \; snare3 29808 \; snare4 10943 \; snare5 4458 \; snare6 12800 \; snare7 35683 \;;
#X f 27;
#X obj 810 92 text define -k clap;
#A set clap0 5928 \; clap1 9088 \; clap2 5888 \; clap3 8464 \; clap4 6560 \; clap5 4744 \; clap7 29312 \; clap9 7104 \; clap8 5216 \;;
#X f 27;
#X obj 810 112 text define -k hat;
#A set hat0 21177 \; hat1 30432 \; hat3 11040 \;;
#X f 27;
#X obj 810 132 text define -k shaker;
#A set;
#X f 27;
#X obj 810 152 text define -k percs;
#A set;
#X f 27;
#X obj 108 113 cnv 16 106 20 empty empty empty 20 12 0 10 #ffffff #404040 0;
#X obj 574 42 loadbang;
#X msg 574 63 0;
#X msg 691 698 \$2\$1;
#X obj 691 652 pack f s;
#X obj 736 634 r \$0-banks;
#X obj 1077 164 t b s;
#X obj 975 195 i;
#X connect 0 0 3 0;
#X connect 1 0 2 0;
#X connect 2 0 49 0;
#X connect 2 0 51 0;
#X connect 3 0 1 0;
#X connect 9 0 8 0;
#X connect 11 0 26 0;
#X connect 11 1 13 0;
#X connect 12 0 10 1;
#X connect 14 0 11 2;
#X connect 15 0 16 0;
#X connect 15 0 19 1;
#X connect 15 0 22 1;
#X connect 15 0 10 1;
#X connect 15 0 24 1;
#X connect 15 0 87 0;
#X connect 17 0 18 0;
#X connect 19 0 37 0;
#X connect 20 0 21 0;
#X connect 21 0 53 0;
#X connect 21 0 69 0;
#X connect 22 0 46 0;
#X connect 23 0 10 0;
#X connect 24 0 84 0;
#X connect 26 0 27 0;
#X connect 26 1 25 0;
#X connect 29 0 36 0;
#X connect 36 0 39 0;
#X connect 36 1 40 0;
#X connect 36 2 41 0;
#X connect 36 3 42 0;
#X connect 36 4 43 0;
#X connect 36 5 44 0;
#X connect 37 0 38 0;
#X connect 38 0 17 0;
#X connect 39 0 59 0;
#X connect 40 0 59 0;
#X connect 41 0 59 0;
#X connect 42 0 59 0;
#X connect 43 0 59 0;
#X connect 44 0 59 0;
#X connect 45 0 20 0;
#X connect 46 0 45 0;
#X connect 48 0 0 0;
#X connect 49 0 50 0;
#X connect 50 0 5 0;
#X connect 52 0 23 1;
#X connect 54 0 24 0;
#X connect 55 0 19 0;
#X connect 56 0 22 0;
#X connect 60 0 37 1;
#X connect 61 0 46 1;
#X connect 62 0 10 3;
#X connect 63 0 66 0;
#X connect 63 0 66 1;
#X connect 65 0 63 0;
#X connect 67 0 71 0;
#X connect 68 0 67 1;
#X connect 69 1 67 0;
#X connect 69 2 68 0;
#X connect 70 0 72 0;
#X connect 71 0 70 0;
#X connect 73 0 86 0;
#X connect 81 0 82 0;
#X connect 82 0 29 0;
#X connect 82 0 15 0;
#X connect 83 0 23 0;
#X connect 84 0 83 0;
#X connect 85 0 84 1;
#X connect 86 0 87 0;
#X connect 86 1 11 3;
#X connect 87 0 11 0;
#X coords 0 -1 1 1 650 280 2 100 100;
#X restore 6 5 pd sample-editor;
#X restore 612 486 pd sample-library;
#X msg 612 555 \; pd-sample-library vis \$1;
#X obj 612 511 r open-sample-library!;
#X connect 1 0 2 0;
#X connect 2 0 0 0;
#X connect 4 0 6 0;
#X connect 5 0 4 0;
#X connect 8 0 11 0;
#X connect 10 0 8 0;
#X connect 12 0 14 0;
#X connect 15 0 12 0;
#X connect 16 0 18 0;
#X connect 17 0 16 0;
#X connect 20 0 23 0;
#X connect 22 0 20 0;
#X connect 24 0 27 0;
#X connect 26 0 24 0;
#X connect 28 0 31 0;
#X connect 29 0 28 0;
#X connect 32 0 35 0;
#X connect 34 0 32 0;
#X connect 36 0 39 0;
#X connect 38 0 36 0;
#X connect 40 0 43 0;
#X connect 42 0 40 0;
#X connect 44 0 47 0;
#X connect 45 0 44 0;
#X connect 48 0 51 0;
#X connect 49 0 48 0;
#X connect 52 0 55 0;
#X connect 54 0 52 0;
#X connect 57 0 59 0;
#X connect 58 0 57 0;
#X connect 60 0 62 0;
#X connect 62 0 61 0;
#X connect 63 0 66 0;
#X connect 65 0 63 0;
#X connect 67 0 70 0;
#X connect 71 0 67 0;
#X restore 28 32 pd upper-left-menu+manual;
#N canvas 63 88 450 300 CPU-load 0;
#X floatatom 118 256 0 0 0 0 - - - 0;
#X obj 118 168 cputime;
#X obj 118 28 loadbang;
#X obj 118 112 metro 1000;
#X msg 118 56 1;
#X floatatom 118 84 0 0 0 0 - - - 0;
#X obj 118 140 t b b;
#X obj 118 228 * 0.1;
#X obj 118 197 int;
#X text 163 84 <-- on/off;
#X obj 235 255 s CPU;
#X connect 0 0 10 0;
#X connect 1 0 8 0;
#X connect 2 0 4 0;
#X connect 3 0 6 0;
#X connect 4 0 5 0;
#X connect 5 0 3 0;
#X connect 6 0 1 0;
#X connect 6 1 1 1;
#X connect 7 0 0 0;
#X connect 8 0 7 0;
#X restore 28 52 pd CPU-load;
#X obj 28 87 declare -path patch_editor_abs/controller;
#X obj 28 105 declare -path patch_editor_abs;
#X obj 28 143 declare -path patch_editor_abs/test;
#X obj 28 162 declare -path sample-library;
#X obj 380 70 pdcontrol;
#X msg 380 51 dir;
#X obj 380 88 pack s;
#X obj 380 31 r update-path;
#X obj 381 152 s patch-path-mother;
#X obj 28 182 declare -path patch_editor_abs/externals;
#X obj 28 202 declare -path patch_editor_abs/airwindows;
#X msg 578 117 \; pd dsp 0;
#X obj 578 23 loadbang;
#X obj 578 92 delay 1;
#X obj 578 45 t b b;
#X msg 640 117 \; pd dsp 1;
#X obj 640 62 delay 1000;
#X obj 28 222 declare -path patch_editor_abs/core;
#X obj 28 125 declare -path patch_editor_abs/utility;
#X obj 477 363 loadbang;
#X connect 6 0 8 0;
#X connect 7 0 6 0;
#X connect 8 0 10 0;
#X connect 9 0 7 0;
#X connect 14 0 16 0;
#X connect 15 0 13 0;
#X connect 16 0 15 0;
#X connect 16 1 18 0;
#X connect 18 0 17 0;
#X connect 21 0 7 0;
#X restore 469 58 pd patch-editor-do-not-delete;
#X text 469 39 DO NOT DELETE THIS OBJECT:;
#X obj 6 -50 cnv 5 5 5 empty empty MOLIPE: 0 12 0 25 #fcfcfc #404040 0;
#X obj 2 -31 cnv 5 5 5 empty empty (Modular\ Live\ Performer) 0 12 0 12 #fcfcfc #404040 0;
#N canvas 0 64 1440 567 TO-DO 0;
#X obj 727 10 cnv 16 350 25 empty empty IN-PROGRESS 20 12 0 25 #ff8300 #404040 0;
#X obj 1086 9 cnv 16 350 25 empty empty DONE 20 12 0 25 #bbbbbb #404040 0;
#X obj 10 9 cnv 16 350 25 empty empty NICE-TO-HAVE 20 12 0 25 #ffc7c6 #404040 0;
#X obj 370 9 cnv 16 350 25 empty empty BACKLOG 20 12 0 25 #00ff04 #404040 0;
#X text 15 42 CROSSOVER-MODULE-------------------------;
#X text 10 102 DIET-DRUM-SEQ-------------------------;
#X text 15 62 - EXTRACT IT FROM THE FORUM-POST;
#X text 4 200 LIVE-MODE-------------------------;
#X text 4 220 - LIVE-MODE-FUNKTION hinzufügen - bei der bestimmte Tastenkombinationen erlaubt oder nicht erlaubt sind: Bsp: das Öffnen des Sampling Managers (verboten in LIVE-MODE) \, öffnen des MIXERS über TASTE M - (nur in LIVE-MODE);
#X text 1090 331 ORGAN-ORGANELLE-------------------------;
#X text 1092 573 - FIXING - DIET-AUDIO-MIX - SAVING PROBLEM;
#X text 1092 459 MIDI-TO-MIDI-OUT-------------------------;
#X text 1093 479 - ADD-DEVICE-FADER;
#X text 1092 496 CHORD-MODUL-------------------------;
#X text 1093 516 - MAKE ENDLESS-CHORDS that end with the next trigger in;
#X text 1092 556 AUDIO-TO-MIXER-------------------------;
#X text 1093 529 - Make a reset button;
#X text 1090 389 CHORD-MODUL-------------------------;
#X text 1091 439 - replace TRIGGER-IN WITH GATE-IN;
#X text 1091 414 - Create a launchpad-concept for the module;
#X text 1090 351 - Combonelle-Patch als Modul einfügen \; --> CV-IN-MODIFICATION beenden;
#X text 1 286 DIET-DRUM-SEQ-------------------------;
#X text 3 608 NOISE-MODULE-------------------------;
#X text 3 628 - MODULE that creates NOISE from samples \, trigger through input volume \; - choose noise sample \; - Hipass + Lopass-Filter \; - Hold-Option (how long to hold after volumte Trigger has ended) \;;
#X text 1092 285 PUSH MK1 integration;
#X text 1089 301 - SCREEN-MODULE \; - ENCODER-READER \;;
#X text 7 718 CPU-REDUCTION;
#X text 4 734 - SWITCH FROM AUDIO to controll communication \;;
#X text 3 543 OSC-CLOCK-COMMUNICATION;
#X text 3 354 PERFORMANCE PAGE;
#X text 0 370 - mit allen wichtigen Parametern \, um eine solo-show hinzulegen: \; - next pattern \, before pattern \, stutter effekte \, wichtige Klangparamter (FILTER!!) etc.;
#X text 1089 251 Develop-Different-Saving Approach------------------------- \; - saving in folder autside abs.;
#X text 0 559 - test communication between macbook and rpi through network \; --> needs its own module in the mother patch!;
#X text 1 306 - PATTERN-LENGTH über langen DRUCK der Step-Taste erzeugen \; will be replaced by encoder-display menu \; ---> nice idea but right now not needed.;
#X text 10 122 - PATTERN-MANAGER erstellen - still necessary?;
#X text 1 430 Other old ideas: \; -GRößerer MIXER mit Hipass und EFX out erstellen \; -DIET-SAMPLER erweitern -> Banks und Samples. \; -organelle-organ-patch als osc einfügen \; -BEAT-SYNCED-LOOP-PLAYER-MODUL entwickeln \; -Multi-FX-Modul entwickeln \; -Paul-Stretch-Sampler-Modul bauen \; -Multi-Oszilator-Modul bauen- \; viele OSZIS in einem Modul \;;
#X text 4 784 - create a module to follow an external midi clock \; - test it with the behringer crave \;;
#X text 9 768 CREATE AN IMAGE OF THE RPI_SD-cARD;
#X text 7 838 Create an Desktop-Editor for the patches;
#X text 4 854 - why? in this way the audio out can be treated differently. Possiblities: Integration of Airwindows-Plugins. Special scripts etc. \;;
#X text 5 904 Copying-Drumpattern to other pattern slots;
#X text 5 944 Recorder needs counter across patches.;
#X text 1093 196 MIDI-CLOCK-LEADER-MODULE;
#X text 1090 212 - create a module to give a midi clock \; - test it with the behringer crave \;;
#X text 374 41 PATTERN-BUTTONS nach unten -------------------------;
#X text 374 61 - unterste Reihe;
#X text 373 92 Master Volume -------------------------;
#X text 373 112 - wo hin? da es acht audio ausgänge gibt!;
#X text 371 172 - vielleicht auf 4-6 reduzieren?;
#X text 371 152 DRUM-MODUL-PARAMETER REDUZIEREN ---------------------;
#X text 371 212 Latenzproblem klären ---------------------;
#X text 371 232 - Wo kommt die Latenz her und wie lässt sie sich klären?;
#X text 726 191 amidiminder -------------------------;
#X text 1087 141 amidiminder -------------------------;
#X text 1087 161 - rules datei so umschreiben \, dass der crave als midi out anerkannt wird.;
#X text 1090 91 MIDI-CLOCK-LATENCY -------------------------;
#X text 1090 111 - die Midi-Clock mit einer Latenz ausstatten;
#X text 726 71 Conductor-Module -------------------------;
#X text 726 91 - Module entwickeln mit dem alle Sound-module gleichzeitig angesteuert werden können (z.B. Decay \, etc.);
#X text 1086 54 Clock-Module in Menu integrieren -------------------------;
#X text 726 211 - datei sichern - und als txt in Molipe ablegen;
#X text 726 44 repeater nach mute setzen --------------------------------;
#X text 726 241 - Scens-Mode einführen? damit zwischen Parametern gefaded werden kann? Dann würde in jeder Text-Datei einfach ein zweiter Faderwert gespeichert werden zwischen denen dann gefaded werden kann.;
#X text 726 121 ---> hier an den Elektron Scenes orientieren aka für jedes Modul z.B. 6 Spreicherungen ablegen zwischen denen gefaded werden kann...;
#X restore 468 18 pd TO-DO;
#N canvas 28 450 1440 847 network-communicator 0;
#X obj 104 103 cnv 5 5 5 empty empty DISPLAY-COMMUNICATOR: 0 12 0 10 #fcfcfc #404040 0;
#X msg 410 138 connect localhost 9001;
#X obj 410 198 netsend -u;
#X obj 410 95 loadbang;
#X obj 421 163 r display-message;
#X obj 411 577 s display-message;
#X obj 596 -6 r patch-nr-loaded;
#X obj 913 40 s display-message;
#X obj 913 -2 r patch-nr-loaded;
#X obj 1527 77 s display-message;
#X obj 1223 35 s display-message;
#X obj 1223 -13 r patch-nr-loaded;
#X msg 913 17 1 0 #5f503e #000000 center BPM:120;
#X msg 1223 6 2 0 #5f503e #000000 center SCENE:1(GUI) 1<>2;
#N canvas 63 88 1263 654 knobs-preset 0;
#X obj 812 179 pack f f;
#X floatatom 812 133 5 0 0 0 - - - 0;
#X floatatom 851 135 5 0 0 0 - - - 0;
#X obj 851 153 t b f;
#X msg 811 198 send RINGVAL 3 1 \$1 \$2;
#X msg 811 236 3 3 #736b1e #000000 center mod*LFO;
#X msg 811 218 3 2 #736b1e #000000 center FREQ;
#X obj 576 181 pack f f;
#X floatatom 576 128 5 0 0 0 - - - 0;
#X floatatom 612 130 5 0 0 0 - - - 0;
#X obj 615 155 t b f;
#X msg 576 200 send RINGVAL 2 1 \$1 \$2;
#X msg 577 219 2 2 #bf1b1b #000000 center FREQ;
#X msg 577 238 2 3 #bf1b1b #000000 center mod*LFO;
#X obj 343 176 pack f f;
#X floatatom 343 123 5 0 0 0 - - - 0;
#X floatatom 379 125 5 0 0 0 - - - 0;
#X obj 382 150 t b f;
#X msg 343 197 send RINGVAL 1 1 \$1 \$2;
#X msg 343 218 1 2 #ed3f1c #000000 center FREQ;
#X msg 343 238 1 3 #912610 #000000 center mod*LFO;
#X obj 113 177 pack f f;
#X floatatom 113 124 5 0 0 0 - - - 0;
#X floatatom 149 126 5 0 0 0 - - - 0;
#X obj 152 151 t b f;
#X msg 113 218 0 2 #ed8008 #000000 center FREQ;
#X msg 113 238 0 3 #912610 #000000 center mod*LFO;
#X msg 113 198 send RINGVAL 0 1 \$1 \$2;
#X obj 807 363 pack f f;
#X floatatom 807 310 5 0 0 0 - - - 0;
#X floatatom 843 312 5 0 0 0 - - - 0;
#X obj 846 337 t b f;
#X obj 577 363 pack f f;
#X floatatom 577 310 5 0 0 0 - - - 0;
#X floatatom 613 312 5 0 0 0 - - - 0;
#X obj 616 337 t b f;
#X obj 344 360 pack f f;
#X floatatom 344 307 5 0 0 0 - - - 0;
#X floatatom 380 309 5 0 0 0 - - - 0;
#X obj 383 334 t b f;
#X obj 115 359 pack f f;
#X floatatom 115 306 5 0 0 0 - - - 0;
#X floatatom 154 314 5 0 0 0 - - - 0;
#X obj 154 333 t b f;
#X msg 807 403 3 6 #d9c3b0 #000000 center FREQ;
#X msg 807 422 3 7 #d9c3b0 #000000 center mod*LFO;
#X msg 807 384 send RINGVAL 3 5 \$1 \$2;
#X msg 577 402 2 6 #bfa07a #000000 center FREQ;
#X msg 577 421 2 7 #bfa07a #000000 center mod*LFO;
#X msg 577 384 send RINGVAL 2 5 \$1 \$2;
#X msg 344 401 1 6 #3b4b59 #000000 center FREQ;
#X msg 344 420 1 7 #3b4b59 #000000 center mod*LFO;
#X msg 344 381 send RINGVAL 1 5 \$1 \$2;
#X msg 115 399 0 6 #cc6324 #000000 center FREQ;
#X msg 115 418 0 7 #cc6324 #000000 center mod*LFO;
#X msg 115 380 send RINGVAL 0 5 \$1 \$2;
#X text 115 98 PARA1;
#X text 341 97 PARA2;
#X text 574 105 PARA3;
#X text 810 107 PARA4;
#X text 113 283 PARA5;
#X text 343 283 PARA6;
#X text 576 288 PARA7;
#X text 804 291 PARA8;
#X connect 0 0 4 0;
#X connect 1 0 0 0;
#X connect 2 0 3 0;
#X connect 3 0 0 0;
#X connect 3 1 0 1;
#X connect 7 0 11 0;
#X connect 8 0 7 0;
#X connect 9 0 10 0;
#X connect 10 0 7 0;
#X connect 10 1 7 1;
#X connect 14 0 18 0;
#X connect 15 0 14 0;
#X connect 16 0 17 0;
#X connect 17 0 14 0;
#X connect 17 1 14 1;
#X connect 21 0 27 0;
#X connect 22 0 21 0;
#X connect 23 0 24 0;
#X connect 24 0 21 0;
#X connect 24 1 21 1;
#X connect 28 0 46 0;
#X connect 29 0 28 0;
#X connect 30 0 31 0;
#X connect 31 0 28 0;
#X connect 31 1 28 1;
#X connect 32 0 49 0;
#X connect 33 0 32 0;
#X connect 34 0 35 0;
#X connect 35 0 32 0;
#X connect 35 1 32 1;
#X connect 36 0 52 0;
#X connect 37 0 36 0;
#X connect 38 0 39 0;
#X connect 39 0 36 0;
#X connect 39 1 36 1;
#X connect 40 0 55 0;
#X connect 41 0 40 0;
#X connect 42 0 43 0;
#X connect 43 0 40 0;
#X connect 43 1 40 1;
#X restore 410 229 pd knobs-preset;
#X text 591 -36 cell1;
#X text 907 -30 cell2;
#X text 1220 -38 cell3;
#X text 1523 -36 cell4;
#X msg 1527 8 3 0 #5f503e #000000 center CPU:\$1%;
#X obj 1527 -11 r CPU;
#N canvas 63 88 1322 357 set-rings 0;
#X msg 976 120 send RING 3 1 #e3e3e3 #736b1e #000000 250 20 45;
#X obj 672 144 s display-message;
#X msg 672 124 send RING 2 1 #e3e3e3 #bf1b1b #000000 250 20 45;
#X obj 364 148 s display-message;
#X msg 364 128 send RING 1 1 #e3e3e3 #ed3f1c #000000 250 20 45;
#X obj 39 159 s display-message;
#X msg 39 140 send RING 0 1 #e3e3e3 #ed8008 #000000 250 20 45;
#X obj 976 141 s display-message;
#X obj 673 249 s display-message;
#X obj 366 251 s display-message;
#X obj 38 263 s display-message;
#X obj 974 251 s display-message;
#X msg 974 233 send RING 3 5 #e3e3e3 #d9c3b0 #000000 250 20 45;
#X msg 673 230 send RING 2 5 #e3e3e3 #bfa07a #000000 250 20 45;
#X msg 366 232 send RING 1 5 #e3e3e3 #3b4b59 #000000 250 20 45;
#X msg 38 243 send RING 0 5 #e3e3e3 #cc6324 #000000 250 20 45;
#X obj 39 112 del 50;
#X obj 364 107 del 50;
#X obj 672 104 del 50;
#X obj 976 100 del 50;
#X connect 0 0 7 0;
#X connect 2 0 1 0;
#X connect 4 0 3 0;
#X connect 6 0 5 0;
#X connect 12 0 11 0;
#X connect 13 0 8 0;
#X connect 14 0 9 0;
#X connect 15 0 10 0;
#X connect 16 0 6 0;
#X connect 17 0 4 0;
#X connect 18 0 2 0;
#X connect 19 0 0 0;
#X restore 411 253 pd set-rings;
#X obj 659 100 text define menu-labels;
#X text 658 81 Receives Names of Modules:;
#X obj 17 271 r menu-labels;
#X msg 418 558 0 9 #ffffff #000000 center \$1;
#X msg 411 538 0 9 #000000 #ffffff center \$1;
#X obj 453 501 text get menu-labels;
#X obj 453 519 symbol;
#X msg 453 483 0;
#X obj 411 465 text get menu-labels;
#X obj 411 483 symbol;
#X obj 17 310 t s b;
#X obj 58 310 f;
#X obj 17 347 text set menu-labels;
#X obj 17 328 symbol;
#X obj 17 291 unpack s f;
#X obj 660 296 text fromlist menu-labels;
#X obj 660 149 loadbang;
#X msg 411 447 0;
#X text 658 120 makes sure the text file is long enough to save necessary data:;
#X obj 611 577 s display-message;
#X obj 653 501 text get menu-labels;
#X obj 653 519 symbol;
#X obj 611 465 text get menu-labels;
#X obj 611 483 symbol;
#X msg 611 538 1 9 #000000 #ffffff center \$1;
#X msg 618 558 1 9 #ffffff #000000 center \$1;
#X msg 611 447 8;
#X obj 811 577 s display-message;
#X obj 853 501 text get menu-labels;
#X obj 853 519 symbol;
#X obj 811 465 text get menu-labels;
#X obj 811 483 symbol;
#X msg 811 538 2 9 #000000 #ffffff center \$1;
#X msg 818 558 2 9 #ffffff #000000 center \$1;
#X msg 811 447 16;
#X obj 1011 577 s display-message;
#X obj 1053 501 text get menu-labels;
#X obj 1053 519 symbol;
#X obj 1011 465 text get menu-labels;
#X obj 1011 483 symbol;
#X msg 1011 447 24;
#X msg 1011 538 3 9 #000000 #ffffff center \$1;
#X msg 1018 558 3 9 #ffffff #000000 center \$1;
#X obj 1221 577 s display-message;
#X obj 1263 501 text get menu-labels;
#X obj 1263 519 symbol;
#X obj 1221 465 text get menu-labels;
#X obj 1221 483 symbol;
#X msg 1221 538 4 9 #000000 #ffffff center \$1;
#X msg 1228 558 4 9 #ffffff #000000 center \$1;
#X msg 1221 447 32;
#X obj 411 351 r all-menu;
#X obj 411 391 unpack f f;
#X floatatom 411 410 5 0 0 0 - - - 0;
#X obj 411 370 route 1;
#X obj 411 428 sel 1;
#X msg 653 483 8;
#X msg 853 483 16;
#X msg 1053 483 24;
#X msg 1263 483 32;
#X obj 611 350 r all-menu;
#X obj 611 390 unpack f f;
#X floatatom 611 409 5 0 0 0 - - - 0;
#X obj 611 369 route 1;
#X obj 611 427 sel 2;
#X obj 811 351 r all-menu;
#X obj 811 391 unpack f f;
#X floatatom 811 410 5 0 0 0 - - - 0;
#X obj 811 370 route 1;
#X obj 811 428 sel 3;
#X obj 1011 351 r all-menu;
#X obj 1011 391 unpack f f;
#X floatatom 1011 410 5 0 0 0 - - - 0;
#X obj 1011 370 route 1;
#X obj 1011 428 sel 4;
#X obj 1221 350 r all-menu;
#X obj 1221 390 unpack f f;
#X floatatom 1221 409 5 0 0 0 - - - 0;
#X obj 1221 369 route 1;
#X obj 1221 427 sel 5;
#X obj 1431 577 s display-message;
#X obj 1473 501 text get menu-labels;
#X obj 1473 519 symbol;
#X obj 1431 465 text get menu-labels;
#X obj 1431 483 symbol;
#X obj 1631 577 s display-message;
#X obj 1673 501 text get menu-labels;
#X obj 1673 519 symbol;
#X obj 1631 465 text get menu-labels;
#X obj 1631 483 symbol;
#X obj 1841 577 s display-message;
#X obj 1883 501 text get menu-labels;
#X obj 1883 519 symbol;
#X obj 1841 465 text get menu-labels;
#X obj 1841 483 symbol;
#X obj 1431 351 r all-menu;
#X obj 1431 391 unpack f f;
#X floatatom 1431 410 5 0 0 0 - - - 0;
#X obj 1431 370 route 1;
#X obj 1631 351 r all-menu;
#X obj 1631 391 unpack f f;
#X floatatom 1631 410 5 0 0 0 - - - 0;
#X obj 1631 370 route 1;
#X obj 1841 350 r all-menu;
#X obj 1841 390 unpack f f;
#X floatatom 1841 409 5 0 0 0 - - - 0;
#X obj 1841 369 route 1;
#X msg 1431 538 5 9 #000000 #ffffff center \$1;
#X msg 1438 558 5 9 #ffffff #000000 center \$1;
#X msg 1631 538 6 9 #000000 #ffffff center \$1;
#X msg 1638 558 6 9 #ffffff #000000 center \$1;
#X msg 1841 538 7 9 #000000 #ffffff center \$1;
#X msg 1848 558 7 9 #ffffff #000000 center \$1;
#X msg 1431 447 40;
#X msg 1473 483 40;
#X msg 1631 447 48;
#X msg 1673 483 48;
#X msg 1841 447 56;
#X msg 1883 483 56;
#X obj 1431 428 sel 6;
#X obj 1631 428 sel 7;
#X obj 1841 427 sel 8;
#X obj 411 921 s display-message;
#X obj 457 847 text get menu-labels;
#X obj 457 865 symbol;
#X obj 411 829 text get menu-labels;
#X obj 411 847 symbol;
#X obj 410 611 r all-menu;
#X obj 410 632 unpack f f f;
#X floatatom 411 651 5 0 0 0 - - - 0;
#X obj 411 669 - 1;
#X obj 411 690 * 8;
#X obj 411 810 f;
#X obj 537 829 f;
#X msg 411 882 0 10 #000000 #ffffff center \$1;
#X msg 416 901 0 10 #ffffff #000000 center \$1;
#X obj 411 711 t b b f;
#X floatatom 450 759 5 0 0 0 - - - 0;
#X floatatom 412 757 5 0 0 0 - - - 0;
#X obj 412 776 sel 1;
#X obj 412 793 bng 16 250 50 0 empty empty empty 0 -8 0 10 #fcfcfc #000000 #000000;
#X obj 536 811 bng 16 250 50 0 empty empty empty 0 -8 0 10 #fcfcfc #000000 #000000;
#X obj 412 737 f;
#X obj 612 921 s display-message;
#X obj 655 847 text get menu-labels;
#X obj 655 865 symbol;
#X obj 612 829 text get menu-labels;
#X obj 612 847 symbol;
#X obj 610 610 r all-menu;
#X obj 610 631 unpack f f f;
#X floatatom 611 650 5 0 0 0 - - - 0;
#X obj 611 668 - 1;
#X obj 611 689 * 8;
#X obj 612 810 f;
#X obj 738 829 f;
#X obj 611 710 t b b f;
#X floatatom 650 758 5 0 0 0 - - - 0;
#X floatatom 612 756 5 0 0 0 - - - 0;
#X obj 612 793 bng 16 250 50 0 empty empty empty 0 -8 0 10 #fcfcfc #000000 #000000;
#X obj 737 811 bng 16 250 50 0 empty empty empty 0 -8 0 10 #fcfcfc #000000 #000000;
#X obj 612 736 f;
#X obj 612 775 sel 2;
#X msg 612 882 1 10 #000000 #ffffff center \$1;
#X msg 617 901 1 10 #ffffff #000000 center \$1;
#X obj 650 733 + 1;
#X obj 812 921 s display-message;
#X obj 855 847 text get menu-labels;
#X obj 855 865 symbol;
#X obj 812 829 text get menu-labels;
#X obj 812 847 symbol;
#X obj 810 610 r all-menu;
#X obj 810 631 unpack f f f;
#X floatatom 811 650 5 0 0 0 - - - 0;
#X obj 811 668 - 1;
#X obj 811 689 * 8;
#X obj 812 810 f;
#X obj 938 829 f;
#X obj 811 710 t b b f;
#X floatatom 850 758 5 0 0 0 - - - 0;
#X floatatom 812 756 5 0 0 0 - - - 0;
#X obj 812 793 bng 16 250 50 0 empty empty empty 0 -8 0 10 #fcfcfc #000000 #000000;
#X obj 937 811 bng 16 250 50 0 empty empty empty 0 -8 0 10 #fcfcfc #000000 #000000;
#X obj 812 736 f;
#X obj 850 733 + 2;
#X msg 812 882 2 10 #000000 #ffffff center \$1;
#X msg 817 901 2 10 #ffffff #000000 center \$1;
#X obj 812 775 sel 3;
#X obj 1012 921 s display-message;
#X obj 1055 847 text get menu-labels;
#X obj 1055 865 symbol;
#X obj 1012 829 text get menu-labels;
#X obj 1012 847 symbol;
#X obj 1010 610 r all-menu;
#X obj 1010 631 unpack f f f;
#X floatatom 1011 650 5 0 0 0 - - - 0;
#X obj 1011 668 - 1;
#X obj 1011 689 * 8;
#X obj 1012 810 f;
#X obj 1138 829 f;
#X obj 1011 710 t b b f;
#X floatatom 1050 758 5 0 0 0 - - - 0;
#X floatatom 1012 756 5 0 0 0 - - - 0;
#X obj 1012 793 bng 16 250 50 0 empty empty empty 0 -8 0 10 #fcfcfc #000000 #000000;
#X obj 1137 811 bng 16 250 50 0 empty empty empty 0 -8 0 10 #fcfcfc #000000 #000000;
#X obj 1012 736 f;
#X obj 1050 733 + 3;
#X obj 1012 775 sel 4;
#X obj 1222 921 s display-message;
#X obj 1265 847 text get menu-labels;
#X obj 1265 865 symbol;
#X obj 1222 829 text get menu-labels;
#X obj 1222 847 symbol;
#X obj 1220 610 r all-menu;
#X obj 1220 631 unpack f f f;
#X floatatom 1221 650 5 0 0 0 - - - 0;
#X obj 1221 668 - 1;
#X obj 1221 689 * 8;
#X obj 1222 810 f;
#X obj 1348 829 f;
#X obj 1221 710 t b b f;
#X floatatom 1260 758 5 0 0 0 - - - 0;
#X floatatom 1222 756 5 0 0 0 - - - 0;
#X obj 1222 793 bng 16 250 50 0 empty empty empty 0 -8 0 10 #fcfcfc #000000 #000000;
#X obj 1347 811 bng 16 250 50 0 empty empty empty 0 -8 0 10 #fcfcfc #000000 #000000;
#X obj 1222 736 f;
#X obj 1260 733 + 4;
#X obj 1222 775 sel 5;
#X msg 1012 882 3 10 #000000 #ffffff center \$1;
#X msg 1017 901 3 10 #ffffff #000000 center \$1;
#X msg 1222 882 4 10 #000000 #ffffff center \$1;
#X msg 1227 901 4 10 #ffffff #000000 center \$1;
#X obj 1432 921 s display-message;
#X obj 1475 847 text get menu-labels;
#X obj 1475 865 symbol;
#X obj 1432 829 text get menu-labels;
#X obj 1432 847 symbol;
#X obj 1430 610 r all-menu;
#X obj 1430 631 unpack f f f;
#X floatatom 1431 650 5 0 0 0 - - - 0;
#X obj 1431 668 - 1;
#X obj 1431 689 * 8;
#X obj 1432 810 f;
#X obj 1558 829 f;
#X obj 1431 710 t b b f;
#X floatatom 1470 758 5 0 0 0 - - - 0;
#X floatatom 1432 756 5 0 0 0 - - - 0;
#X obj 1432 793 bng 16 250 50 0 empty empty empty 0 -8 0 10 #fcfcfc #000000 #000000;
#X obj 1557 811 bng 16 250 50 0 empty empty empty 0 -8 0 10 #fcfcfc #000000 #000000;
#X obj 1432 736 f;
#X obj 1470 733 + 5;
#X obj 1432 775 sel 6;
#X msg 1432 882 5 10 #000000 #ffffff center \$1;
#X msg 1437 901 5 10 #ffffff #000000 center \$1;
#X obj 1632 921 s display-message;
#X obj 1675 847 text get menu-labels;
#X obj 1675 865 symbol;
#X obj 1632 829 text get menu-labels;
#X obj 1632 847 symbol;
#X obj 1630 610 r all-menu;
#X obj 1630 631 unpack f f f;
#X floatatom 1631 650 5 0 0 0 - - - 0;
#X obj 1631 668 - 1;
#X obj 1631 689 * 8;
#X obj 1632 810 f;
#X obj 1758 829 f;
#X obj 1631 710 t b b f;
#X floatatom 1670 758 5 0 0 0 - - - 0;
#X floatatom 1632 756 5 0 0 0 - - - 0;
#X obj 1632 793 bng 16 250 50 0 empty empty empty 0 -8 0 10 #fcfcfc #000000 #000000;
#X obj 1757 811 bng 16 250 50 0 empty empty empty 0 -8 0 10 #fcfcfc #000000 #000000;
#X obj 1632 736 f;
#X obj 1670 733 + 6;
#X obj 1632 775 sel 7;
#X msg 1632 882 6 10 #000000 #ffffff center \$1;
#X msg 1637 901 6 10 #ffffff #000000 center \$1;
#X obj 1842 921 s display-message;
#X obj 1885 847 text get menu-labels;
#X obj 1885 865 symbol;
#X obj 1842 829 text get menu-labels;
#X obj 1842 847 symbol;
#X obj 1840 610 r all-menu;
#X obj 1840 631 unpack f f f;
#X floatatom 1841 650 5 0 0 0 - - - 0;
#X obj 1841 668 - 1;
#X obj 1841 689 * 8;
#X obj 1842 810 f;
#X obj 1968 829 f;
#X obj 1841 710 t b b f;
#X floatatom 1880 758 5 0 0 0 - - - 0;
#X floatatom 1842 756 5 0 0 0 - - - 0;
#X obj 1842 793 bng 16 250 50 0 empty empty empty 0 -8 0 10 #fcfcfc #000000 #000000;
#X obj 1967 811 bng 16 250 50 0 empty empty empty 0 -8 0 10 #fcfcfc #000000 #000000;
#X obj 1842 736 f;
#X obj 1880 733 + 7;
#X obj 1842 775 sel 8;
#X msg 1842 882 7 10 #000000 #ffffff center \$1;
#X msg 1847 901 7 10 #ffffff #000000 center \$1;
#X floatatom 106 184 5 0 0 1 CPU% CPU - 24;
#X obj 23 487 s all-menu;
#X obj 23 422 loadbang;
#X msg 23 464 1 8 8;
#X text 84 421 <--loads menu 8 + submenu 8 at startup;
#X msg 660 167 2 \\\; - \\\; - \\\; - \\\; - \\\; - \\\; - \\\; - \\\; - \\\; - \\\; - \\\; - \\\; - \\\; - \\\; - \\\; - \\\; - \\\; - \\\; - \\\; - \\\; - \\\; - \\\; - \\\; - \\\; - \\\; - \\\; - \\\; - \\\; - \\\; - \\\; - \\\; - \\\; - \\\; - \\\; - \\\; - \\\; - \\\; - \\\; - \\\; - \\\; - \\\; - \\\; - \\\; - \\\; - \\\; - \\\; - \\\; - \\\; - \\\; - \\\; - \\\; - \\\; - \\\; - \\\; - \\\; - \\\; - \\\; - \\\; - \\\; - \\\; - \\\; - \\\; - \\\; - \\\; - \\\; - \\\; - \\\; - \\\; - \\\; - \\\; - \\\; - \\\; - \\\; - \\\; - \\\; - \\\; - \\\; - \\\; - \\\; - \\\; - \\\; - \\\; - \\\; - \\\; - \\\; - \\\; - \\\; - \\\; - \\\; - \\\; - \\\; - \\\; - \\\; - \\\; - \\\; - \\\; - \\\; - \\\; - \\\; - \\\; - \\\; - \\\; - \\\; - \\\; - \\\; - \\\; - \\\; - \\\; - \\\; - \\\; - \\\; - \\\; - \\\; - \\\; - \\\; - \\\; - \\\; - \\\; - \\\; - \\\; - \\\; - \\\; - \\\; - \\\; - \\\; - \\\; - \\\; - \\\; - \\\; - \\\; - \\\; - \\\; - \\\; - \\\; - \\\; - \\\; - \\\; - \\\; - \\\; - \\\; - \\\; - \\\; - \\\; - \\\; - \\\; - \\\; - \\\; - \\\; - \\\; - \\\; - \\\; - \\\; - \\\; - \\\; - \\\; - \\\; - \\\; - \\\; - \\\; - \\\; - \\\; - \\\; - \\\; - \\\; - \\\; - \\\; - \\\; - \\\; - \\\; - \\\; - \\\; - \\\; - \\\; - \\\; - \\\; - \\\; - \\\; - \\\; - \\\; - \\\; - \\\; - \\\; - \\\; - \\\; - \\\; - \\\; - \\\; - \\\; - \\\; - \\\; - \\\; - \\\; - \\\; - \\\; - \\\; - \\\; - \\\; - \\\; - \\\; - \\\; - \\\; - \\\; - \\\; - \\\; - \\\; - \\\; - \\\; - \\\; - \\\; - \\\; - \\\; - \\\; - \\\; - \\\; - \\\; - \\\; - \\\; - \\\; - \\\; - \\\; - \\\; - \\\; - \\\; - \\\; - \\\; - \\\;, f 113;
#X obj 23 443 del 100;
#X obj 596 35 s display-message;
#X msg 596 16 0 0 #5f503e #000000 center PATCH:\$1;
#X connect 1 0 2 0;
#X connect 3 0 1 0;
#X connect 4 0 2 0;
#X connect 6 0 327 0;
#X connect 8 0 12 0;
#X connect 11 0 13 0;
#X connect 19 0 9 0;
#X connect 20 0 19 0;
#X connect 24 0 36 0;
#X connect 25 0 5 0;
#X connect 26 0 5 0;
#X connect 27 0 28 0;
#X connect 28 0 25 0;
#X connect 29 0 27 0;
#X connect 30 0 31 0;
#X connect 31 0 26 0;
#X connect 32 0 35 0;
#X connect 32 1 33 0;
#X connect 33 0 34 1;
#X connect 35 0 34 0;
#X connect 36 0 32 0;
#X connect 36 1 33 1;
#X connect 38 0 324 0;
#X connect 39 0 30 0;
#X connect 42 0 43 0;
#X connect 43 0 47 0;
#X connect 44 0 45 0;
#X connect 45 0 46 0;
#X connect 46 0 41 0;
#X connect 47 0 41 0;
#X connect 48 0 44 0;
#X connect 50 0 51 0;
#X connect 51 0 55 0;
#X connect 52 0 53 0;
#X connect 53 0 54 0;
#X connect 54 0 49 0;
#X connect 55 0 49 0;
#X connect 56 0 52 0;
#X connect 58 0 59 0;
#X connect 59 0 64 0;
#X connect 60 0 61 0;
#X connect 61 0 63 0;
#X connect 62 0 60 0;
#X connect 63 0 57 0;
#X connect 64 0 57 0;
#X connect 66 0 67 0;
#X connect 67 0 71 0;
#X connect 68 0 69 0;
#X connect 69 0 70 0;
#X connect 70 0 65 0;
#X connect 71 0 65 0;
#X connect 72 0 68 0;
#X connect 73 0 76 0;
#X connect 74 0 75 0;
#X connect 75 0 77 0;
#X connect 76 0 74 0;
#X connect 77 0 39 0;
#X connect 77 1 29 0;
#X connect 78 0 42 0;
#X connect 79 0 50 0;
#X connect 80 0 58 0;
#X connect 81 0 66 0;
#X connect 82 0 85 0;
#X connect 83 0 84 0;
#X connect 84 0 86 0;
#X connect 85 0 83 0;
#X connect 86 0 48 0;
#X connect 86 1 78 0;
#X connect 87 0 90 0;
#X connect 88 0 89 0;
#X connect 89 0 91 0;
#X connect 90 0 88 0;
#X connect 91 0 56 0;
#X connect 91 1 79 0;
#X connect 92 0 95 0;
#X connect 93 0 94 0;
#X connect 94 0 96 0;
#X connect 95 0 93 0;
#X connect 96 0 62 0;
#X connect 96 1 80 0;
#X connect 97 0 100 0;
#X connect 98 0 99 0;
#X connect 99 0 101 0;
#X connect 100 0 98 0;
#X connect 101 0 72 0;
#X connect 101 1 81 0;
#X connect 103 0 104 0;
#X connect 104 0 130 0;
#X connect 105 0 106 0;
#X connect 106 0 129 0;
#X connect 108 0 109 0;
#X connect 109 0 132 0;
#X connect 110 0 111 0;
#X connect 111 0 131 0;
#X connect 113 0 114 0;
#X connect 114 0 134 0;
#X connect 115 0 116 0;
#X connect 116 0 133 0;
#X connect 117 0 120 0;
#X connect 118 0 119 0;
#X connect 119 0 141 0;
#X connect 120 0 118 0;
#X connect 121 0 124 0;
#X connect 122 0 123 0;
#X connect 123 0 142 0;
#X connect 124 0 122 0;
#X connect 125 0 128 0;
#X connect 126 0 127 0;
#X connect 127 0 143 0;
#X connect 128 0 126 0;
#X connect 129 0 102 0;
#X connect 130 0 102 0;
#X connect 131 0 107 0;
#X connect 132 0 107 0;
#X connect 133 0 112 0;
#X connect 134 0 112 0;
#X connect 135 0 105 0;
#X connect 136 0 103 0;
#X connect 137 0 110 0;
#X connect 138 0 108 0;
#X connect 139 0 115 0;
#X connect 140 0 113 0;
#X connect 141 0 135 0;
#X connect 141 1 136 0;
#X connect 142 0 137 0;
#X connect 142 1 138 0;
#X connect 143 0 139 0;
#X connect 143 1 140 0;
#X connect 145 0 146 0;
#X connect 146 0 157 0;
#X connect 147 0 148 0;
#X connect 148 0 156 0;
#X connect 149 0 150 0;
#X connect 150 1 151 0;
#X connect 150 2 164 1;
#X connect 151 0 152 0;
#X connect 152 0 153 0;
#X connect 153 0 158 0;
#X connect 154 0 147 0;
#X connect 155 0 145 0;
#X connect 156 0 144 0;
#X connect 157 0 144 0;
#X connect 158 0 164 0;
#X connect 158 2 159 0;
#X connect 159 0 154 1;
#X connect 159 0 155 1;
#X connect 160 0 161 0;
#X connect 161 0 162 0;
#X connect 161 1 163 0;
#X connect 162 0 154 0;
#X connect 163 0 155 0;
#X connect 164 0 160 0;
#X connect 166 0 167 0;
#X connect 167 0 185 0;
#X connect 168 0 169 0;
#X connect 169 0 184 0;
#X connect 170 0 171 0;
#X connect 171 1 172 0;
#X connect 171 2 182 1;
#X connect 172 0 173 0;
#X connect 173 0 174 0;
#X connect 174 0 177 0;
#X connect 175 0 168 0;
#X connect 176 0 166 0;
#X connect 177 0 182 0;
#X connect 177 2 186 0;
#X connect 178 0 175 1;
#X connect 178 0 176 1;
#X connect 179 0 183 0;
#X connect 180 0 175 0;
#X connect 181 0 176 0;
#X connect 182 0 179 0;
#X connect 183 0 180 0;
#X connect 183 1 181 0;
#X connect 184 0 165 0;
#X connect 185 0 165 0;
#X connect 186 0 178 0;
#X connect 188 0 189 0;
#X connect 189 0 207 0;
#X connect 190 0 191 0;
#X connect 191 0 206 0;
#X connect 192 0 193 0;
#X connect 193 1 194 0;
#X connect 193 2 204 1;
#X connect 194 0 195 0;
#X connect 195 0 196 0;
#X connect 196 0 199 0;
#X connect 197 0 190 0;
#X connect 198 0 188 0;
#X connect 199 0 204 0;
#X connect 199 2 205 0;
#X connect 200 0 197 1;
#X connect 200 0 198 1;
#X connect 201 0 208 0;
#X connect 202 0 197 0;
#X connect 203 0 198 0;
#X connect 204 0 201 0;
#X connect 205 0 200 0;
#X connect 206 0 187 0;
#X connect 207 0 187 0;
#X connect 208 0 202 0;
#X connect 208 1 203 0;
#X connect 210 0 211 0;
#X connect 211 0 250 0;
#X connect 212 0 213 0;
#X connect 213 0 249 0;
#X connect 214 0 215 0;
#X connect 215 1 216 0;
#X connect 215 2 226 1;
#X connect 216 0 217 0;
#X connect 217 0 218 0;
#X connect 218 0 221 0;
#X connect 219 0 212 0;
#X connect 220 0 210 0;
#X connect 221 0 226 0;
#X connect 221 2 227 0;
#X connect 222 0 219 1;
#X connect 222 0 220 1;
#X connect 223 0 228 0;
#X connect 224 0 219 0;
#X connect 225 0 220 0;
#X connect 226 0 223 0;
#X connect 227 0 222 0;
#X connect 228 0 224 0;
#X connect 228 1 225 0;
#X connect 230 0 231 0;
#X connect 231 0 252 0;
#X connect 232 0 233 0;
#X connect 233 0 251 0;
#X connect 234 0 235 0;
#X connect 235 1 236 0;
#X connect 235 2 246 1;
#X connect 236 0 237 0;
#X connect 237 0 238 0;
#X connect 238 0 241 0;
#X connect 239 0 232 0;
#X connect 240 0 230 0;
#X connect 241 0 246 0;
#X connect 241 2 247 0;
#X connect 242 0 239 1;
#X connect 242 0 240 1;
#X connect 243 0 248 0;
#X connect 244 0 239 0;
#X connect 245 0 240 0;
#X connect 246 0 243 0;
#X connect 247 0 242 0;
#X connect 248 0 244 0;
#X connect 248 1 245 0;
#X connect 249 0 209 0;
#X connect 250 0 209 0;
#X connect 251 0 229 0;
#X connect 252 0 229 0;
#X connect 254 0 255 0;
#X connect 255 0 274 0;
#X connect 256 0 257 0;
#X connect 257 0 273 0;
#X connect 258 0 259 0;
#X connect 259 1 260 0;
#X connect 259 2 270 1;
#X connect 260 0 261 0;
#X connect 261 0 262 0;
#X connect 262 0 265 0;
#X connect 263 0 256 0;
#X connect 264 0 254 0;
#X connect 265 0 270 0;
#X connect 265 2 271 0;
#X connect 266 0 263 1;
#X connect 266 0 264 1;
#X connect 267 0 272 0;
#X connect 268 0 263 0;
#X connect 269 0 264 0;
#X connect 270 0 267 0;
#X connect 271 0 266 0;
#X connect 272 0 268 0;
#X connect 272 1 269 0;
#X connect 273 0 253 0;
#X connect 274 0 253 0;
#X connect 276 0 277 0;
#X connect 277 0 296 0;
#X connect 278 0 279 0;
#X connect 279 0 295 0;
#X connect 280 0 281 0;
#X connect 281 1 282 0;
#X connect 281 2 292 1;
#X connect 282 0 283 0;
#X connect 283 0 284 0;
#X connect 284 0 287 0;
#X connect 285 0 278 0;
#X connect 286 0 276 0;
#X connect 287 0 292 0;
#X connect 287 2 293 0;
#X connect 288 0 285 1;
#X connect 288 0 286 1;
#X connect 289 0 294 0;
#X connect 290 0 285 0;
#X connect 291 0 286 0;
#X connect 292 0 289 0;
#X connect 293 0 288 0;
#X connect 294 0 290 0;
#X connect 294 1 291 0;
#X connect 295 0 275 0;
#X connect 296 0 275 0;
#X connect 298 0 299 0;
#X connect 299 0 318 0;
#X connect 300 0 301 0;
#X connect 301 0 317 0;
#X connect 302 0 303 0;
#X connect 303 1 304 0;
#X connect 303 2 314 1;
#X connect 304 0 305 0;
#X connect 305 0 306 0;
#X connect 306 0 309 0;
#X connect 307 0 300 0;
#X connect 308 0 298 0;
#X connect 309 0 314 0;
#X connect 309 2 315 0;
#X connect 310 0 307 1;
#X connect 310 0 308 1;
#X connect 311 0 316 0;
#X connect 312 0 307 0;
#X connect 313 0 308 0;
#X connect 314 0 311 0;
#X connect 315 0 310 0;
#X connect 316 0 312 0;
#X connect 316 1 313 0;
#X connect 317 0 297 0;
#X connect 318 0 297 0;
#X connect 321 0 325 0;
#X connect 322 0 320 0;
#X connect 324 0 37 0;
#X connect 325 0 322 0;
#X connect 327 0 326 0;
#X coords 0 -1 1 1 220 120 2 100 100;
#X restore 234 144 pd network-communicator;
#X obj 6 -10 cnv 5 5 5 empty empty KEEP\ THIS\ WINDOW\ OPEN! 0 12 0 25 #ffffff #ff0400 0;
#X text 468 116 THIS PATCH:;
#N canvas 63 88 1310 567 audio-to-hw 0;
#X obj 463 91 catch~ hw1;
#X obj 463 414 dac~ 1 2 3 4 5 6 7 8, f 46;
#X obj 502 111 catch~ hw2;
#X obj 542 130 catch~ hw3;
#X obj 582 149 catch~ hw4;
#X obj 613 168 catch~ hw5;
#X obj 653 187 catch~ hw6;
#X obj 694 208 catch~ hw7;
#X obj 734 227 catch~ hw8;
#X obj 463 387 *~;
#X obj 110 120 vradio 15 1 0 2 empty empty empty 0 -8 0 10 #fcfcfc #000000 #000000 0;
#X obj 346 229 line~;
#X msg 345 193 \$1 5;
#X obj 130 127 cnv 5 5 5 empty empty STEREO-OUT 0 0 0 8 #fcfcfc #000000 0;
#X obj 130 142 cnv 5 5 5 empty empty MULTIPLE\ OUT 0 0 0 8 #fcfcfc #000000 0;
#X obj 502 389 *~;
#X obj 543 387 *~;
#X obj 582 389 *~;
#X obj 615 387 *~;
#X obj 654 389 *~;
#X obj 695 387 *~;
#X obj 734 389 *~;
#X obj 893 469 dac~ 1 2;
#X obj 986 328 line~;
#X msg 985 292 \$1 5;
#X obj 894 409 *~;
#X obj 938 408 *~;
#X obj 971 199 sel 0 1;
#X msg 971 220 1;
#X msg 1002 220 0;
#X obj 889 152 catch~ stereo1;
#X obj 939 121 catch~ stereo2;
#X obj 109 109 cnv 5 5 5 empty empty HARDWARE-AUDIO-SETTINGS: 0 0 0 10 #fcfcfc #404040 0;
#X floatatom 141 68 5 0 0 0 - - - 0;
#X msg 141 32 0, f 6;
#X obj 141 14 loadbang;
#X obj 141 50 text get hw-audio-status;
#X obj 109 169 text set hw-audio-status;
#X obj 109 187 text define -k hw-audio-status;
#A set 0 \;;
#X obj 48 15 r hw-audio;
#X obj 48 36 / 64;
#X obj 48 57 i;
#X connect 0 0 9 0;
#X connect 2 0 15 0;
#X connect 3 0 16 0;
#X connect 4 0 17 0;
#X connect 5 0 18 0;
#X connect 6 0 19 0;
#X connect 7 0 20 0;
#X connect 8 0 21 0;
#X connect 9 0 1 0;
#X connect 10 0 12 0;
#X connect 10 0 27 0;
#X connect 10 0 37 0;
#X connect 11 0 9 1;
#X connect 11 0 15 1;
#X connect 11 0 16 1;
#X connect 11 0 17 1;
#X connect 11 0 18 1;
#X connect 11 0 19 1;
#X connect 11 0 20 1;
#X connect 11 0 21 1;
#X connect 12 0 11 0;
#X connect 15 0 1 1;
#X connect 16 0 1 2;
#X connect 17 0 1 3;
#X connect 18 0 1 4;
#X connect 19 0 1 5;
#X connect 20 0 1 6;
#X connect 21 0 1 7;
#X connect 23 0 25 1;
#X connect 23 0 26 1;
#X connect 24 0 23 0;
#X connect 25 0 22 0;
#X connect 26 0 22 1;
#X connect 27 0 28 0;
#X connect 27 1 29 0;
#X connect 28 0 24 0;
#X connect 29 0 24 0;
#X connect 30 0 25 0;
#X connect 31 0 26 0;
#X connect 33 0 10 0;
#X connect 34 0 36 0;
#X connect 35 0 34 0;
#X connect 36 0 33 0;
#X connect 39 0 40 0;
#X connect 40 0 41 0;
#X connect 41 0 10 0;
#X coords 0 -1 1 1 220 60 2 100 100;
#X restore 234 17 pd audio-to-hw;
#X text 468 135 1 Opens and closes performance patches \; 2 Loads and keeps the sample library \; 3 Establishes sync over network (not yet) \; 4 Sends audio to hardware \; 5 Manages modes of the Midi Controller (Push MK1);
#N canvas 63 88 1310 567 MIDI-to-hw 0;
#X obj 109 126 cnv 5 5 5 empty empty MIDI-CLOCK-DEVICE: 0 0 0 8 #fcfcfc #000000 0;
#X obj 108 110 cnv 5 5 5 empty empty HARDWARE-MIDI-SETTINGS: 0 0 0 10 #fcfcfc #404040 0;
#X floatatom 141 68 5 0 0 0 - - - 0;
#X msg 141 32 0, f 6;
#X obj 141 14 loadbang;
#X obj 109 237 text define -k hw-midi-status;
#A set 3.2126 \;;
#X obj 109 219 text set hw-midi-status;
#X obj 141 50 text get hw-midi-status;
#X obj 108 135 hradio 16 1 0 8 empty empty empty 0 -8 0 10 #fcfcfc #000000 #000000 0;
#X obj 307 217 + 1;
#X obj 307 236 s clock-to-hw-device-nr;
#X obj 63 37 / 15.875;
#X obj 63 14 r md-device;
#X connect 2 0 8 0;
#X connect 3 0 7 0;
#X connect 4 0 3 0;
#X connect 7 0 2 0;
#X connect 8 0 6 0;
#X connect 8 0 9 0;
#X connect 9 0 10 0;
#X connect 11 0 8 0;
#X connect 12 0 11 0;
#X coords 0 -1 1 1 220 60 2 100 100;
#X restore 234 81 pd MIDI-to-hw;
#X text 469 84 MOLIPE is a collection of patches that can be combined like a modular synth.;
#X obj 11 17 patch_loader 1;
#X obj 234 269 push-mk1;
