#N canvas 535 236 744 531 10;
#X declare -path patch_editor_abs/controller;
#X declare -path patch_editor_abs;
#X declare -path patch_editor_abs/test;
#X declare -path sample-library;
#X declare -path patch_editor_abs/externals;
#X declare -path patch_editor_abs/airwindows;
#N canvas 194 25 869 631 patch-editor-do-not-delete 0;
#N canvas 0 25 1073 713 upper-left-menu+manual 0;
#X msg 36 85 \; pd-quick-guide vis \$1;
#X obj 36 41 r open-quick-guide!;
#X msg 36 63 1;
#N canvas 1 25 915 719 quick-guide 0;
#X obj 454 462 cnv 15 375 125 empty empty empty 20 12 0 14 #dc4c90 #404040 0;
#X obj 454 330 cnv 15 375 125 empty empty empty 20 12 0 14 #90d4b0 #404040 0;
#X obj 17 15 cnv 15 750 60 empty empty Welcome_to-Molipe 20 18 0 24 #90d4b0 #fcfcfc 0;
#X text 19 86 FOLLOW THESE SIMPLE STEPS TO GET STARTED:;
#X text 19 127 1 When starting the AUTOMATONISM you'll see a list of all current available modules to the right. Click the button to the left of the module you want to load and it will appear to the left in the parent window. The module list will then disappear. To call back the module list you can click the grey link in the upper left called "MODULES(esc) or simply upress "esc" on your keyboard;
#X text 19 216 2 Create a BASIC-OSC from the module list.;
#X text 20 312 4 Pure Data has an EDIT MODE and a PERFORMANCE MODE. To make patch connections between objects we need to be in EDIT MODE and to interact with the GUI we need to be in PERFORMANCE MODE. Toggle between the two modes with cmd+e.;
#X text 19 242 3 Open the module list and create the module in the lower right corner called MAESTRO4(dac~). This is the digital-to-analog-converter and is one of the modules that passes on sound to your speakers. Now you can soon make a sound.;
#X text 19 376 5 All inputs are at the top of the modules and all outputs are at the bottom. In EDIT MODE \, connect the BASIC-OSC's output CH1 on the MAESTRO4. Now \, you should have sound. Switch to PERFORMANCE MODE and use the mouse to move the PITCH slider on the BASIC-OSC module.;
#X text 20 449 6 Right click on any module and choose HELP to read more about a module's functions.;
#X text 454 115 7 To save parameter states on each module \, you have to save the pd file \, like you normally would do from the FILE menu or cmd+s \, and then click the grey SAVE! canvas in the left bottom corner(or simply press ENTER on your keyboard) and you'll see the canvas change color from grey to green for a brief moment. All parameter values are now written to textfiles and can be loaded to the equivalent module and instance number next time the patch is loaded.;
#X text 454 215 8 You can call modules without using the module list simply by creating a new object in pd and type the module's name. For the state saving mechanism to work properly you do need to give the module a unique numerical argument. Type "basic-osc 1" for an oscillator and "basic-osc 2" if you need another one. By using the MODULES list this unique numbering is done automatically for you. Use the RESET link in the upper left corner when starting a new patch as this will reset the counter of unique numbers for modules.;
#X text 457 333 9 IMPORTANT!!! In order for Automatonism to work properly \, each patch needs to contain the correct folder structure. A folder--that you can name freely--must contain the folder "patch_editor_abs" and the pd-file "main.pd". Copy the entire main parent folder to start a new project. Please do not add the abstractions to your PD Search path \, because the state svaing system will be writing textfiles in your external folders.;
#X text 455 464 ABOUT RESET BUTTON: Only use the RESET button when your canvas is empty. If you click it in the middle of a patch \, modules will start getting identical state saving numbers to already existing modules. In other words \, if you click it in the middle of a patch \, state saving WILL NOT WORK! The RESET button is there for when you start over \, and perhaps do not want to create "BASIC-OSC 99" \, but start from zero for a clearer view of the patch.;
#X text 34 52 RIGHT+CLICK & CHOOSE 'HELP' ON ANY MODULE!;
#X restore 36 18 pd quick-guide;
#X msg 38 178 1;
#X obj 38 156 r open-signal-flow!;
#X msg 38 203 \; pd-signal-flow vis \$1;
#N canvas 416 25 852 668 signal-flow 0;
#X obj 22 10 cnv 15 365 30 empty empty SIGNAL-FLOW 20 12 0 14 #dc4c90 #fcfcfc 0;
#X obj 26 161 hsl 128 15 0 127 0 0 empty empty empty -2 -8 0 10 #9898dc #fcfcfc #000000 0 1;
#X obj 24 214 hsl 128 15 0 127 0 0 empty empty empty -2 -8 0 10 #90d4b0 #000000 #000000 0 1;
#X obj 21 281 cnv 5 5 5 empty empty CLOCK-IN 0 0 0 8 #fcfcfc #dc4c90 0;
#X text 17 328 All inputs and outputs in the editor are at signal rate within the range of -1 to 1 In contrast to normal pd-programming there is no distinction between control rate and signal rate messages. Everything is converted to signal rate.;
#X msg 20 439 bang;
#X msg 20 461 1 0 \, 0 1 1;
#X obj 20 483 vline~;
#X msg 23 535 bang;
#X msg 23 557 1 0 \, 0 1 1;
#X obj 23 579 vline~;
#X msg 23 623 bang;
#X text 19 404 How to convert a simple bang to a trigger/gate signal in the patch editor:;
#X obj 23 601 threshold~ 0.99 0 1 0;
#X text 21 518 How to convert back to a control rate bang:;
#X obj 404 569 hsl 128 15 0 127 0 0 empty empty empty -2 -8 0 10 #fcfcfc #000000 #000000 0 1;
#X obj 401 589 / 127;
#X obj 401 611 sig~;
#X text 398 534 How convert control numbers to the patch editor's signal flow:;
#X text 541 568 0-127;
#X text 21 178 Purple sliders and inlets means the slider will function as an attenuator for incoming CV.;
#X text 21 48 There are three types of signals in the patch editor: audio \, cv and trigger/gate/pulse/clock. The latter are marked with PINK inlets and outlets. General rule in the patch editor is that all connections are possible. Or \, at least \, just like in any hardware modular system - all connections might not work but there's no harm in trying. ! ! The patch-editor uses color-coding to clarify the signal flow as much as possible.;
#X text 18 287 And pink inlets means the input is expecting a trigger/gate signal to function properly.;
#X text 19 230 Green sliders and inlets tells you that the parameter is bi-polar \, most oftenly working as an attenueverter for incoming CV.;
#X connect 5 0 6 0;
#X connect 6 0 7 0;
#X connect 8 0 9 0;
#X connect 9 0 10 0;
#X connect 10 0 13 0;
#X connect 13 0 11 0;
#X connect 15 0 16 0;
#X connect 16 0 17 0;
#X restore 39 134 pd signal-flow;
#X msg 36 288 1;
#N canvas 138 156 591 276 color-code 0;
#X obj 140 39 hsl 128 15 0 127 0 0 empty empty empty -2 -8 0 10 #9898dc #fcfcfc #000000 0 1;
#X obj 140 100 hsl 128 15 0 127 0 0 empty empty empty -2 -8 0 10 #90d4b0 #000000 #000000 0 1;
#X obj 137 175 cnv 5 5 5 empty empty CLOCK-IN 0 0 0 8 #fcfcfc #dc4c90 0;
#X text 134 56 Purple sliders and inlets means the slider will function as an attenuator for incoming CV.;
#X text 133 117 Green sliders and inlets tells you that the parameter is bi-polar \, most oftenly working as an attenueverter for incoming CV.;
#X text 135 181 And pink inlets means the input is expecting a trigger/gate signal or short impulse(square-wave) to function properly.;
#X restore 37 244 pd color-code;
#X obj 36 266 r open-color-code!;
#X msg 36 313 \; pd-color-code vis \$1;
#X msg 37 404 1;
#N canvas 7 25 355 439 manual 0;
#X obj 28 82 bng 30 250 50 0 open-signal-flow! empty empty 10 7 0 10 #9898dc #000000 #fcfcfc;
#X obj 49 82 bng 30 250 50 0 open-signal-flow! empty empty 17 7 0 10 #fcfcfc #000000 #000000;
#X obj 78 82 bng 30 250 50 0 open-signal-flow! empty empty 17 7 0 10 #fcfcfc #000000 #000000;
#X obj 109 82 bng 30 250 50 0 open-signal-flow! empty empty 17 7 0 10 #fcfcfc #000000 #000000;
#X obj 79 82 cnv 15 60 30 empty empty FLOW 6 12 0 14 #e0e0e0 #404040 0;
#X obj 18 82 cnv 15 60 30 empty empty SIGNAL 18 12 0 14 #e0e0e0 #404040 0;
#X obj 17 12 cnv 15 320 60 empty empty WELCOME-TO-THE-AUTOMATONISM-MANUAL! 20 12 0 14 #90d4b0 #fcfcfc 0;
#X obj 19 119 bng 30 250 50 0 open-color-code! empty empty 17 7 0 10 #fcfcfc #000000 #000000;
#X obj 49 119 bng 30 250 50 0 open-color-code! empty empty 17 7 0 10 #fcfcfc #000000 #000000;
#X obj 79 119 bng 30 250 50 0 open-color-code! empty empty 17 7 0 10 #fcfcfc #000000 #000000;
#X obj 109 119 bng 30 250 50 0 open-color-code! empty empty 17 7 0 10 #fcfcfc #000000 #000000;
#X obj 79 119 cnv 15 60 30 empty empty CODE 6 12 0 14 #e0e0e0 #404040 0;
#X obj 18 119 cnv 15 60 30 empty empty COLOR 18 12 0 14 #e0e0e0 #404040 0;
#X obj 19 196 bng 30 250 50 0 open-help-files! empty empty 17 7 0 10 #fcfcfc #000000 #000000;
#X obj 18 157 bng 30 250 50 0 open-state-saving! empty empty 17 7 0 10 #fcfcfc #000000 #000000;
#X obj 48 157 bng 30 250 50 0 open-state-saving! empty empty 17 7 0 10 #fcfcfc #000000 #000000;
#X obj 78 157 bng 30 250 50 0 open-state-saving! empty empty 17 7 0 10 #fcfcfc #000000 #000000;
#X obj 108 157 bng 30 250 50 0 open-state-saving! empty empty 17 7 0 10 #fcfcfc #000000 #000000;
#X obj 79 157 cnv 15 60 30 empty empty SAVING 6 12 0 14 #e0e0e0 #404040 0;
#X obj 18 157 cnv 15 60 30 empty empty STATE 18 12 0 14 #e0e0e0 #404040 0;
#X obj 49 196 bng 30 250 50 0 open-help-files! empty empty 17 7 0 10 #fcfcfc #000000 #000000;
#X obj 94 196 bng 30 250 50 0 open-help-files! empty empty 17 7 0 10 #fcfcfc #000000 #000000;
#X obj 109 196 bng 30 250 50 0 open-help-files! empty empty 17 7 0 10 #fcfcfc #000000 #000000;
#X obj 79 196 cnv 15 60 30 empty empty FILES 6 12 0 14 #e0e0e0 #404040 0;
#X obj 18 196 cnv 15 60 30 empty empty HELP 18 12 0 14 #e0e0e0 #404040 0;
#X obj 19 232 bng 30 250 50 0 open-folder-hierarchy! empty empty 17 7 0 10 #fcfcfc #000000 #000000;
#X obj 49 232 bng 30 250 50 0 open-folder-hierarchy! empty empty 17 7 0 10 #fcfcfc #000000 #000000;
#X obj 79 232 bng 30 250 50 0 open-folder-hierarchy! empty empty 17 7 0 10 #fcfcfc #000000 #000000;
#X obj 139 232 bng 30 250 50 0 open-folder-hierarchy! empty empty 17 7 0 10 #fcfcfc #000000 #000000;
#X obj 109 232 bng 30 250 50 0 open-folder-hierarchy! empty empty 17 7 0 10 #fcfcfc #000000 #000000;
#X obj 78 232 cnv 15 100 30 empty empty HIERARCHY 20 12 0 14 #e0e0e0 #404040 0;
#X obj 17 232 cnv 15 60 30 empty empty FOLDER 18 12 0 14 #e0e0e0 #404040 0;
#X obj 46 268 bng 30 250 50 0 open-feedback-loops! empty empty 17 7 0 10 #fcfcfc #000000 #000000;
#X obj 46 304 bng 30 250 50 0 open-license! empty empty 17 7 0 10 #fcfcfc #000000 #000000;
#X obj 16 268 bng 30 250 50 0 open-feedback-loops! empty empty 17 7 0 10 #fcfcfc #000000 #000000;
#X obj 106 268 bng 30 250 50 0 open-feedback-loops! empty empty 17 7 0 10 #fcfcfc #000000 #000000;
#X obj 76 268 bng 30 250 50 0 open-feedback-loops! empty empty 17 7 0 10 #fcfcfc #000000 #000000;
#X obj 166 268 bng 30 250 50 0 open-feedback-loops! empty empty 17 7 0 10 #fcfcfc #000000 #000000;
#X obj 136 268 bng 30 250 50 0 open-feedback-loops! empty empty 17 7 0 10 #fcfcfc #000000 #000000;
#X obj 16 268 cnv 15 180 30 empty empty FEEDBACK-&-DSP-LOOPS 18 12 0 14 #e0e0e0 #404040 0;
#X obj 16 304 bng 30 250 50 0 open-license! empty empty 17 7 0 10 #fcfcfc #000000 #000000;
#X obj 106 304 bng 30 250 50 0 open-license! empty empty 17 7 0 10 #fcfcfc #000000 #000000;
#X obj 76 304 bng 30 250 50 0 open-license! empty empty 17 7 0 10 #fcfcfc #000000 #000000;
#X obj 16 304 cnv 15 120 30 empty empty LICENSE 18 12 0 14 #e0e0e0 #404040 0;
#X obj 154 81 bng 30 250 50 0 open-external-msg! empty empty 10 7 0 10 #9898dc #000000 #fcfcfc;
#X obj 184 81 bng 30 250 50 0 open-external-msg! empty empty 17 7 0 10 #fcfcfc #000000 #000000;
#X obj 213 81 bng 30 250 50 0 open-external-msg! empty empty 17 7 0 10 #fcfcfc #000000 #000000;
#X obj 273 81 bng 30 250 50 0 open-external-msg! empty empty 17 7 0 10 #fcfcfc #000000 #000000;
#X obj 243 81 bng 30 250 50 0 open-external-msg! empty empty 17 7 0 10 #fcfcfc #000000 #000000;
#X obj 152 81 cnv 15 120 30 empty empty EXTERNAL 18 12 0 14 #e0e0e0 #404040 0;
#X obj 237 81 cnv 15 80 30 empty empty MESSAGES 6 12 0 14 #e0e0e0 #404040 0;
#X restore 37 358 pd manual;
#X msg 37 429 \; pd-manual vis \$1;
#X obj 37 382 r open-manual!;
#X msg 34 547 1;
#X obj 34 526 r open-state-saving!;
#X msg 34 571 \; pd-state-saving vis \$1;
#N canvas 236 34 420 357 state-saving 0;
#X obj 17 12 cnv 15 400 60 empty empty STATE_SAVING 20 12 0 14 #dc4c90 #fcfcfc 0;
#X text 20 82 The state saving system works by writing parameter values to textfiles in the folder "statesave" inside the "patch_editor_abs" folder. When you load a module form the module list it is automatically being given a unique creation argument which creates a textfile unique for that instance of the module. To save your patch \, simply save as you normally would from the FILE menu and the press ENTER on your keyboard or click the SAVE button in the upper left corner of the main window.;
#X text 20 216 IMPORTANT!!! To start a new project \, the entire folder structure needs to be copied since the abstractions and textfiles are unique to every project. Click the RESET button in the upper left corner to reset the counter that gives unique creation arguments for the modules.;
#X restore 35 504 pd state-saving;
#X msg 203 62 1;
#N canvas 23 25 438 191 help-files 0;
#X obj 17 12 cnv 15 400 60 empty empty HELP-FILES 20 12 0 14 #dc4c90 #fcfcfc 0;
#X text 20 84 Right + click on individual modules and choose "HELP" to access detailed help-files on each modules inlets \, outlets and functionalities.;
#X restore 203 15 pd help-files;
#X obj 203 36 r open-help-files!;
#X msg 203 88 \; pd-help-files vis \$1;
#X msg 204 173 1;
#N canvas 0 22 434 295 organelle-map 0;
#X obj 17 12 cnv 15 400 60 empty empty MAPPING-ORGANELLE-KNOBS/KEYS 20 12 0 14 #dc4c90 #fcfcfc 0;
#X text 20 84 There are specific modules for integrating the Organelle knobs and keyboard into your patches. Use "organelle-keyboard and "organelle-knobs" to connect the keyboard or knobs to parameter values in your patch. Remember that the parameter slider on the module acts as an offset when external cv is connected so set the slider to zero to access the entire range of the parameter with the organelle keyboard or knobs. See the"organelle-keyboard" and "organelle-knobs" help-files for more info. There are many ways to use PD with the Organelle. The "organelle-keyboard" and "organelle-knobs" modules use a simplistic approach. Use your own more elaborate pd-code for deeper control.;
#X restore 204 130 pd organelle-map;
#X obj 204 151 r open-organelle-map!;
#X msg 204 198 \; pd-organelle-map vis \$1;
#X msg 202 416 1;
#X obj 202 394 r open-folder-hierarchy!;
#N canvas 0 25 420 254 folder-hierarchy 0;
#X obj 17 12 cnv 15 400 60 empty empty FOLDER-HIEARCHY 20 12 0 14 #dc4c90 #fcfcfc 0;
#X text 20 84 Inside your project folder you'll find a file called "main.pd" and a folder called "patch_editor_abs". The "main.pd" must stay named the same for Automatonism to function properly. Also \, each of your projects/patches needs tp be in a separet folder with its own "main.pd" and "patch_editor_abs" folder. Copy & paste the project folder \, which you can give any name \, when you want to start a new project/patch.;
#X restore 203 371 pd folder-hierarchy;
#X msg 202 446 \; pd-folder-hierarchy vis \$1;
#X msg 198 543 1;
#N canvas 0 25 432 503 export-patches 0;
#X obj 17 12 cnv 15 400 60 empty empty EXPORT-PATCH 20 12 0 14 #e0e0e0 #404040 0;
#X text 20 84 So \, how do you export patces made in the editor to the Organelle?;
#X text 26 131 LOREM IPSUM.;
#X restore 199 498 pd export-patches;
#X obj 198 521 r open-export-patches!;
#X msg 198 572 \; pd-export-patches vis \$1;
#X msg 387 57 1;
#N canvas 445 294 435 328 tips-&-tricks 0;
#X obj 17 12 cnv 15 400 60 empty empty TIPS&TRICKS 20 12 0 14 #dc4c90 #fcfcfc 0;
#X text 20 110 Hide portions of a complex patch in a subpatch to gain more space.;
#X text 20 175 Don't forget to use utility modules;
#X text 20 201 Existing modular synthesis tutorials ond patches can be translated to the XOUDLAR playGROUND \; like nord modular patches \, sound on sound synthesis secrets \, allen strange's book \, make noise shared system patches \, buchla patches etc;
#X text 20 84 Useful tips and tricks:;
#X text 20 149 Use [switch~] in subpatches in large projects too free CPU;
#X text 20 266 If you want two same modules to share exact parameters copy&paste the module instead of loading a new from the module list.;
#X restore 389 12 pd tips-&-tricks;
#X obj 387 35 r open-tips-&-tricks!;
#X msg 387 88 \; pd-tips-&-tricks vis \$1;
#X msg 384 187 1;
#N canvas 0 25 432 503 advanced-pd-users 0;
#X obj 17 12 cnv 15 400 60 empty empty ADVANCED-PD-USERS 20 12 0 14 #e0e0e0 #404040 0;
#X text 20 84 Some useful information for advanced pd users who want to change \, interact or expand on the XODULAR PLAYGROUND code:;
#X text 21 141 LOREM IPSUM;
#X restore 386 142 pd advanced-pd-users;
#X obj 384 165 r open-advanced-pd-users!;
#X msg 384 218 \; pd-advanced-pd-users vis \$1;
#X msg 382 309 1;
#X obj 382 287 r open-make-your-own-module!;
#N canvas 498 100 673 716 make-your-own-module 0;
#X obj 17 12 cnv 15 400 60 empty empty MAKE-YOUR-OWN-MODULE 20 12 0 14 #dc4c90 #fcfcfc 0;
#X msg 24 128 bang;
#X msg 24 150 1 0 \, 0 1 1;
#X obj 24 172 vline~;
#X msg 23 222 bang;
#X msg 23 244 1 0 \, 0 1 1;
#X obj 23 266 vline~;
#X msg 23 310 bang;
#X text 23 93 How to convert a simple bang to a trigger/gate signal in the patch editor:;
#X obj 23 288 threshold~ 0.99 0 1 0;
#X text 21 205 How to convert back to a control rate bang:;
#X obj 28 389 hsl 128 15 0 127 0 0 empty empty empty -2 -8 0 10 #fcfcfc #000000 #000000 0 1;
#X obj 25 409 / 127;
#X obj 25 431 sig~;
#X text 22 354 How convert control numbers to the patch editor's signal flow:;
#X text 165 388 0-127;
#X text 21 509 GRAPH ON PARENT;
#X text 22 539 MODULE TITLE;
#X text 24 575 INLET/OUTLET LABELS;
#X text 33 614 STATE-SAVING;
#X text 20 477 CV INPUTS:;
#X connect 1 0 2 0;
#X connect 2 0 3 0;
#X connect 4 0 5 0;
#X connect 5 0 6 0;
#X connect 6 0 9 0;
#X connect 9 0 7 0;
#X connect 11 0 12 0;
#X connect 12 0 13 0;
#X restore 384 264 pd make-your-own-module;
#X msg 382 340 \; pd-make-your-own-module vis \$1;
#X msg 381 429 1;
#X obj 381 407 r open-feedback-loops!;
#N canvas 0 25 420 323 feedback-loops 0;
#X obj 17 12 cnv 15 400 60 empty empty FEEDBACK-&-DSP-LOOPS 20 12 0 14 #dc4c90 #fcfcfc 0;
#X text 23 83 Feedback patching is very much possible in the AUTOMATONISM \, just a little bit differently from physical modular systems. If you try to patch a module into itself or any kind of feedback routing \, Pure Data will become silent and you'll get a "DSP loop detected" message in the Pd window. To avoid this you need to delay the signal a tiny tiny bit. Normal [send~) and [receive~] objects automatically does this in Pd. Send the signal to be feedbacked into a [send~ MyFeedback] and pick it up using [receive~ MyFeedback] and then patch into the input to close the feedback loop. Obviously "MyFeedback" could be anything and the abbreviation for send and receive [s~] and [r~] work equally as well.;
#X restore 383 384 pd feedback-loops;
#X msg 381 460 \; pd-feedback-loops vis \$1;
#X msg 380 543 1;
#N canvas 0 25 439 625 license 0;
#X obj 17 12 cnv 15 400 60 empty empty LICENSE 20 12 0 14 #e0e0e0 #404040 0;
#X text 23 83 Copyright ©  2017 \, Johan Eriksson Automatonism is free software: you can redistribute it and/or modify it under the terms of the GNU General Public License as published by the Free Software Foundation \, either version 3 of the License \, or any later version. This program is distributed in the hope that it will be useful \, but WITHOUT ANY WARRANTY \; without even the implied warranty of MERCHANTABILITY or FITNESS FOR A PARTICULAR PURPOSE. See the GNU General Public License for more details.;
#X text 23 213 ADD ON: This is a modification of the fantastic Automatism modular synth. Its adds modules and a sample library. Its was made as a foundation of the live performances of the group "diet". For more information check: www.wueste.info;
#X restore 382 498 pd license;
#X obj 380 521 r open-license!;
#X msg 380 574 \; pd-license vis \$1;
#N canvas 293 25 419 217 reset-warning 0;
#X obj 21 143 bng 15 250 50 0 \$0-reset! empty <--RESET! 17 7 0 10 #fcfcfc #000000 #000000;
#X text 18 49 WARNING!;
#X text 19 68 Never press the RESET! button in the middle of working of a patch since it can cause the state saving mechanism to malfunction. Only use it when starting a new patch and you want the module counters to start over at zero. PRESS THE BUTTON BELOW TO RESET:;
#X restore 600 15 pd reset-warning;
#X msg 601 62 1;
#X obj 601 40 r open-reset-warning!;
#X msg 601 84 \; pd-reset-warning vis \$1;
#X obj 601 117 r \$0-reset!;
#X msg 601 193 \; pd-reset-warning vis 0;
#X obj 601 139 delay 500;
#X msg 604 289 1;
#N canvas 472 160 457 575 external-msg 0;
#X obj 17 12 cnv 15 400 60 empty empty EXTERNAL_MESSAGES 20 12 0 14 #dc4c90 #fcfcfc 0;
#X text 27 86 You can send external control messages into Automatonism modules since Automatonsim 3.0. This makes it easier to map midi controllers to specific parameters and integrate your patches with other Pure Data patches. External Messages routing in Automatonism works like this:;
#X obj 41 181 hsl 128 15 0 127 0 0 empty empty 0-127 -2 -8 0 10 #fcfcfc #000000 #000000 0 1;
#X floatatom 38 201 5 0 0 0 - - - 0;
#X msg 38 221 PITCH \$1 1;
#X obj 38 242 s basic-osc;
#X text 36 276 Send a value between 0-127;
#X text 38 395 To control the P-WIDTH slider of the BASIC-OSC with instance number 3 \, do this instead:;
#X obj 41 451 hsl 128 15 0 127 0 0 empty empty 0-127 -2 -8 0 10 #fcfcfc #000000 #000000 0 1;
#X floatatom 38 471 5 0 0 0 - - - 0;
#X msg 38 491 P-WIDTH \$1 3;
#X obj 38 512 s basic-osc;
#X text 37 296 Write a message where the first word is the name of the slider you are trying to externally control \, type "\$1" to pass on your value to the module and finally type the instance number of the specific module you want to control. The instance number is always showcased to the right of the module's title. Then create a send object and send to the name of the module \, for example [s basic-osc];
#X connect 2 0 3 0;
#X connect 3 0 4 0;
#X connect 4 0 5 0;
#X connect 8 0 9 0;
#X connect 9 0 10 0;
#X connect 10 0 11 0;
#X restore 606 244 pd external-msg;
#X obj 604 267 r open-external-msg!;
#X msg 604 320 \; pd-external-msg vis \$1;
#X msg 612 533 1;
#X text 611 465 DIET-Modification:;
#N canvas 535 199 672 298 sample-library 0;
#N canvas 0 25 1440 789 sample-editor 0;
#X obj 55 458 openpanel;
#X obj 55 494 soundfiler;
#X floatatom 55 512 31 0 0 0 - - - 0;
#X msg 55 476 read -resize \$1 sample-editor;
#N canvas 0 22 450 278 (subpatch) 0;
#X array sample-editor 4608 float 2;
#X coords 0 1 4608 -1 500 140 2 0 0;
#X restore 109 134 graph;
#X msg 55 587 \; sample-editor normalize;
#X obj 217 592 bng 16 250 50 0 empty empty Normalize 20 8 0 10 #fcfcfc #000000 #000000;
#X obj 109 349 bng 16 250 50 0 \$0-load-comp empty Load\ from\ Computer 20 8 0 10 #fcfcfc #000000 #000000;
#X msg 271 460 \; sample-editor edit 0;
#X obj 271 439 loadbang;
#X obj 691 753 text set library, f 22;
#X obj 975 218 text get library, f 22;
#X msg 734 735 1e+15;
#X floatatom 1104 240 5 0 0 0 - - - 0;
#X floatatom 1061 198 5 0 0 0 - - - 0;
#X obj 447 298 hradio 16 1 0 10 empty empty empty 0 -8 0 10 #fcfcfc #000000 #000000 0;
#X floatatom 575 283 5 0 0 0 - - - 0;
#X obj 450 515 soundfiler;
#X floatatom 450 533 31 0 0 0 - - - 0;
#X obj 450 453 f;
#X obj 866 495 soundfiler;
#X floatatom 866 513 31 0 0 0 - - - 0;
#X obj 866 440 f;
#X obj 691 717 pack s f;
#X obj 691 612 f;
#X floatatom 1062 258 5 0 0 0 - - - 0;
#X obj 975 240 unpack symbol f;
#X listbox 975 275 19 0 0 0 - - - 0;
#X obj 108 296 bng 16 250 50 0 reload-library empty Reload\ Library 20 8 0 10 #fcfcfc #000000 #000000;
#X obj 628 136 vradio 16 1 0 6 empty empty BANKS 0 -8 0 10 #fcfcfc #000000 #000000 0;
#X obj 648 144 cnv 5 5 5 empty empty KICK 0 0 0 8 #fcfcfc #000000 0;
#X obj 648 159 cnv 5 5 5 empty empty SNARE 0 0 0 8 #fcfcfc #000000 0;
#X obj 648 176 cnv 5 5 5 empty empty CLAP 0 0 0 8 #fcfcfc #000000 0;
#X obj 648 192 cnv 5 5 5 empty empty HAT 0 0 0 8 #fcfcfc #000000 0;
#X obj 648 208 cnv 5 5 5 empty empty SHAKER 0 0 0 8 #fcfcfc #000000 0;
#X obj 648 225 cnv 5 5 5 empty empty PERCS 0 0 0 8 #fcfcfc #000000 0;
#X obj 769 232 sel 0 1 2 3 4 5;
#X obj 450 472 pack f s;
#X msg 450 496 write sample-library/\$2\$1.wav sample-editor;
#X msg 769 261 symbol kick;
#X msg 784 279 symbol snare;
#X msg 797 299 symbol clap;
#X msg 812 317 symbol hat;
#X msg 824 336 symbol shaker;
#X msg 839 354 symbol percs;
#X msg 866 476 read -resize sample-library/\$2\$1.wav sample-editor;
#X obj 866 458 pack f s;
#X obj 443 342 cnv 16 300 30 empty empty empty 20 12 0 10 #ffcefa #404040 0;
#X obj 55 440 r \$0-load-comp;
#X obj 55 550 t b;
#X obj 55 568 del 5;
#X obj 62 531 s \$0-sample-length;
#X obj 736 698 r \$0-sample-length;
#X obj 866 541 s \$0-sample-length;
#X obj 691 593 r \$0-save-lib;
#X obj 450 434 r \$0-save-lib;
#X obj 866 421 r \$0-load-lib;
#X obj 605 348 bng 16 250 50 0 \$0-load-lib empty LOAD\ FROM\ LIBRARY 20 8 0 10 #fcfcfc #000000 #000000;
#X obj 454 349 bng 16 250 50 0 \$0-save-lib empty SAVE\ TO\ LIBRARY 20 8 0 10 #fcfcfc #000000 #000000;
#X obj 769 383 s \$0-banks;
#X obj 495 453 r \$0-banks;
#X obj 911 440 r \$0-banks;
#X obj 820 735 r \$0-banks;
#X obj 357 647 tabplay~ sample-editor;
#X obj 259 349 bng 16 250 50 0 \$0-play empty Play 20 8 0 10 #fcfcfc #000000 #000000;
#X obj 357 626 r \$0-play;
#X obj 357 669 dac~;
#X obj 1007 575 ==;
#X msg 1027 557 0;
#X obj 988 539 t b f b;
#X obj 1007 611 sel 1;
#X obj 1007 593 tgl 16 0 empty empty empty 0 -8 0 10 #fcfcfc #000000 #000000 0 1;
#X msg 1007 632 \; sample-editor const 0;
#X obj 1077 146 r \$0-banks;
#X obj 810 52 text define -k kick;
#A set kick0 4608 \; kick1 23088 \; kick2 11245 \; kick3 23088 \; kick4 7936 \; kick5 7263 \; kick6 6687 \; kick7 5631 \; kick8 11695 \; kick9 24447 \;;
#X f 27;
#X obj 810 72 text define -k snare;
#A set snare0 5774 \; snare1 13440 \; snare2 12800 \; snare3 29808 \; snare4 10943 \; snare5 4458 \; snare6 12800 \; snare7 35683 \;;
#X f 27;
#X obj 810 92 text define -k clap;
#A set clap0 5928 \; clap1 9088 \; clap2 5888 \; clap3 8464 \; clap4 6560 \; clap5 4744 \; clap7 29312 \; clap9 7104 \; clap8 5216 \;;
#X f 27;
#X obj 810 112 text define -k hat;
#A set hat0 21177 \; hat1 30432 \; hat3 11040 \;;
#X f 27;
#X obj 810 132 text define -k shaker;
#A set;
#X f 27;
#X obj 810 152 text define -k percs;
#A set;
#X f 27;
#X obj 108 113 cnv 16 106 20 empty empty empty 20 12 0 10 #ffffff #404040 0;
#X obj 574 42 loadbang;
#X msg 574 63 0;
#X msg 691 698 \$2\$1;
#X obj 691 652 pack f s;
#X obj 736 634 r \$0-banks;
#X obj 1077 164 t b s;
#X obj 975 195 i;
#X connect 0 0 3 0;
#X connect 1 0 2 0;
#X connect 2 0 49 0;
#X connect 2 0 51 0;
#X connect 3 0 1 0;
#X connect 9 0 8 0;
#X connect 11 0 26 0;
#X connect 11 1 13 0;
#X connect 12 0 10 1;
#X connect 14 0 11 2;
#X connect 15 0 16 0;
#X connect 15 0 19 1;
#X connect 15 0 22 1;
#X connect 15 0 10 1;
#X connect 15 0 24 1;
#X connect 15 0 87 0;
#X connect 17 0 18 0;
#X connect 19 0 37 0;
#X connect 20 0 21 0;
#X connect 21 0 53 0;
#X connect 21 0 69 0;
#X connect 22 0 46 0;
#X connect 23 0 10 0;
#X connect 24 0 84 0;
#X connect 26 0 27 0;
#X connect 26 1 25 0;
#X connect 29 0 36 0;
#X connect 36 0 39 0;
#X connect 36 1 40 0;
#X connect 36 2 41 0;
#X connect 36 3 42 0;
#X connect 36 4 43 0;
#X connect 36 5 44 0;
#X connect 37 0 38 0;
#X connect 38 0 17 0;
#X connect 39 0 59 0;
#X connect 40 0 59 0;
#X connect 41 0 59 0;
#X connect 42 0 59 0;
#X connect 43 0 59 0;
#X connect 44 0 59 0;
#X connect 45 0 20 0;
#X connect 46 0 45 0;
#X connect 48 0 0 0;
#X connect 49 0 50 0;
#X connect 50 0 5 0;
#X connect 52 0 23 1;
#X connect 54 0 24 0;
#X connect 55 0 19 0;
#X connect 56 0 22 0;
#X connect 60 0 37 1;
#X connect 61 0 46 1;
#X connect 62 0 10 3;
#X connect 63 0 66 0;
#X connect 63 0 66 1;
#X connect 65 0 63 0;
#X connect 67 0 71 0;
#X connect 68 0 67 1;
#X connect 69 1 67 0;
#X connect 69 2 68 0;
#X connect 70 0 72 0;
#X connect 71 0 70 0;
#X connect 73 0 86 0;
#X connect 81 0 82 0;
#X connect 82 0 29 0;
#X connect 82 0 15 0;
#X connect 83 0 23 0;
#X connect 84 0 83 0;
#X connect 85 0 84 1;
#X connect 86 0 87 0;
#X connect 86 1 11 3;
#X connect 87 0 11 0;
#X coords 0 -1 1 1 650 280 2 100 100;
#X restore 6 5 pd sample-editor;
#X restore 612 486 pd sample-library;
#X msg 612 555 \; pd-sample-library vis \$1;
#X obj 612 511 r open-sample-library!;
#X connect 1 0 2 0;
#X connect 2 0 0 0;
#X connect 4 0 6 0;
#X connect 5 0 4 0;
#X connect 8 0 11 0;
#X connect 10 0 8 0;
#X connect 12 0 14 0;
#X connect 15 0 12 0;
#X connect 16 0 18 0;
#X connect 17 0 16 0;
#X connect 20 0 23 0;
#X connect 22 0 20 0;
#X connect 24 0 27 0;
#X connect 26 0 24 0;
#X connect 28 0 31 0;
#X connect 29 0 28 0;
#X connect 32 0 35 0;
#X connect 34 0 32 0;
#X connect 36 0 39 0;
#X connect 38 0 36 0;
#X connect 40 0 43 0;
#X connect 42 0 40 0;
#X connect 44 0 47 0;
#X connect 45 0 44 0;
#X connect 48 0 51 0;
#X connect 49 0 48 0;
#X connect 52 0 55 0;
#X connect 54 0 52 0;
#X connect 57 0 59 0;
#X connect 58 0 57 0;
#X connect 60 0 62 0;
#X connect 62 0 61 0;
#X connect 63 0 66 0;
#X connect 65 0 63 0;
#X connect 67 0 70 0;
#X connect 71 0 67 0;
#X restore 28 32 pd upper-left-menu+manual;
#N canvas 63 88 450 300 CPU-load 0;
#X floatatom 118 256 0 0 0 0 - - - 0;
#X obj 118 168 cputime;
#X obj 118 28 loadbang;
#X obj 118 112 metro 1000;
#X msg 118 56 1;
#X floatatom 118 84 0 0 0 0 - - - 0;
#X obj 118 140 t b b;
#X obj 118 228 * 0.1;
#X obj 118 197 int;
#X text 163 84 <-- on/off;
#X obj 235 255 s CPU;
#X connect 0 0 10 0;
#X connect 1 0 8 0;
#X connect 2 0 4 0;
#X connect 3 0 6 0;
#X connect 4 0 5 0;
#X connect 5 0 3 0;
#X connect 6 0 1 0;
#X connect 6 1 1 1;
#X connect 7 0 0 0;
#X connect 8 0 7 0;
#X restore 28 52 pd CPU-load;
#X obj 28 87 declare -path patch_editor_abs/controller;
#X obj 28 105 declare -path patch_editor_abs;
#X obj 28 123 declare -path patch_editor_abs/test;
#X obj 28 142 declare -path sample-library;
#X obj 283 32 sample-library;
#X obj 380 70 pdcontrol;
#X msg 380 51 dir;
#X obj 380 88 pack s;
#X obj 380 31 r update-path;
#X obj 380 147 s patch-path-mother;
#X obj 28 162 declare -path patch_editor_abs/externals;
#X obj 28 182 declare -path patch_editor_abs/airwindows;
#X msg 578 117 \; pd dsp 0;
#X obj 578 23 loadbang;
#X obj 578 92 delay 1;
#X obj 578 45 t b b;
#X msg 640 117 \; pd dsp 1;
#X obj 640 62 delay 1000;
#X connect 7 0 9 0;
#X connect 8 0 7 0;
#X connect 9 0 11 0;
#X connect 10 0 8 0;
#X connect 15 0 17 0;
#X connect 16 0 14 0;
#X connect 17 0 16 0;
#X connect 17 1 19 0;
#X connect 19 0 18 0;
#X restore 7 283 pd patch-editor-do-not-delete;
#X text 7 264 DO NOT DELETE THIS OBJECT:;
#X floatatom 9 71 5 0 0 1 CPU% CPU - 24;
#X obj 8 8 cnv 5 5 5 empty empty MOLIPE: 0 12 0 25 #fcfcfc #404040 0;
#X obj 9 128 bng 15 250 50 0 open-quick-guide! empty <--QUICK-GUIDE 17 7 0 10 #fcfcfc #000000 #000000;
#X obj 5 37 cnv 5 5 5 empty empty (Modular\ Live\ Performer) 0 12 0 12 #fcfcfc #404040 0;
#N canvas 0 64 1440 567 TO-DO 0;
#X obj 727 10 cnv 16 350 25 empty empty IN-PROGRESS 20 12 0 25 #ff8300 #404040 0;
#X obj 1086 9 cnv 16 350 25 empty empty DONE 20 12 0 25 #bbbbbb #404040 0;
#X obj 10 9 cnv 16 350 25 empty empty NICE-TO-HAVE 20 12 0 25 #ffc7c6 #404040 0;
#X obj 370 9 cnv 16 350 25 empty empty BACKLOG 20 12 0 25 #00ff04 #404040 0;
#X text 15 42 CROSSOVER-MODULE-------------------------;
#X text 10 102 DIET-DRUM-SEQ-------------------------;
#X text 15 62 - EXTRACT IT FROM THE FORUM-POST;
#X text 4 200 LIVE-MODE-------------------------;
#X text 4 220 - LIVE-MODE-FUNKTION hinzufügen - bei der bestimmte Tastenkombinationen erlaubt oder nicht erlaubt sind: Bsp: das Öffnen des Sampling Managers (verboten in LIVE-MODE) \, öffnen des MIXERS über TASTE M - (nur in LIVE-MODE);
#X text 1090 331 ORGAN-ORGANELLE-------------------------;
#X text 1092 573 - FIXING - DIET-AUDIO-MIX - SAVING PROBLEM;
#X text 1092 459 MIDI-TO-MIDI-OUT-------------------------;
#X text 1093 479 - ADD-DEVICE-FADER;
#X text 1092 496 CHORD-MODUL-------------------------;
#X text 1093 516 - MAKE ENDLESS-CHORDS that end with the next trigger in;
#X text 1092 556 AUDIO-TO-MIXER-------------------------;
#X text 1093 529 - Make a reset button;
#X text 1090 389 CHORD-MODUL-------------------------;
#X text 1091 439 - replace TRIGGER-IN WITH GATE-IN;
#X text 1091 414 - Create a launchpad-concept for the module;
#X text 1090 351 - Combonelle-Patch als Modul einfügen \; --> CV-IN-MODIFICATION beenden;
#X text 1 286 DIET-DRUM-SEQ-------------------------;
#X text 3 608 NOISE-MODULE-------------------------;
#X text 3 628 - MODULE that creates NOISE from samples \, trigger through input volume \; - choose noise sample \; - Hipass + Lopass-Filter \; - Hold-Option (how long to hold after volumte Trigger has ended) \;;
#X text 1092 285 PUSH MK1 integration;
#X text 1089 301 - SCREEN-MODULE \; - ENCODER-READER \;;
#X text 7 718 CPU-REDUCTION;
#X text 4 734 - SWITCH FROM AUDIO to controll communication \;;
#X text 3 543 OSC-CLOCK-COMMUNICATION;
#X text 3 354 PERFORMANCE PAGE;
#X text 0 370 - mit allen wichtigen Parametern \, um eine solo-show hinzulegen: \; - next pattern \, before pattern \, stutter effekte \, wichtige Klangparamter (FILTER!!) etc.;
#X text 1089 251 Develop-Different-Saving Approach------------------------- \; - saving in folder autside abs.;
#X text 0 559 - test communication between macbook and rpi through network \; --> needs its own module in the mother patch!;
#X text 1 306 - PATTERN-LENGTH über langen DRUCK der Step-Taste erzeugen \; will be replaced by encoder-display menu \; ---> nice idea but right now not needed.;
#X text 10 122 - PATTERN-MANAGER erstellen - still necessary?;
#X text 1 430 Other old ideas: \; -GRößerer MIXER mit Hipass und EFX out erstellen \; -DIET-SAMPLER erweitern -> Banks und Samples. \; -organelle-organ-patch als osc einfügen \; -BEAT-SYNCED-LOOP-PLAYER-MODUL entwickeln \; -Multi-FX-Modul entwickeln \; -Paul-Stretch-Sampler-Modul bauen \; -Multi-Oszilator-Modul bauen- \; viele OSZIS in einem Modul \;;
#X text 4 784 - create a module to follow an external midi clock \; - test it with the behringer crave \;;
#X text 9 768 CREATE AN IMAGE OF THE RPI_SD-cARD;
#X text 7 838 Create an Desktop-Editor for the patches;
#X text 4 854 - why? in this way the audio out can be treated differently. Possiblities: Integration of Airwindows-Plugins. Special scripts etc. \;;
#X text 5 904 Copying-Drumpattern to other pattern slots;
#X text 5 944 Recorder needs counter across patches.;
#X text 1093 196 MIDI-CLOCK-LEADER-MODULE;
#X text 1090 212 - create a module to give a midi clock \; - test it with the behringer crave \;;
#X text 374 41 PATTERN-BUTTONS nach unten -------------------------;
#X text 374 61 - unterste Reihe;
#X text 373 92 Master Volume -------------------------;
#X text 373 112 - wo hin? da es acht audio ausgänge gibt!;
#X text 371 172 - vielleicht auf 4-6 reduzieren?;
#X text 371 152 DRUM-MODUL-PARAMETER REDUZIEREN ---------------------;
#X text 371 212 Latenzproblem klären ---------------------;
#X text 371 232 - Wo kommt die Latenz her und wie lässt sie sich klären?;
#X text 726 191 amidiminder -------------------------;
#X text 1087 141 amidiminder -------------------------;
#X text 1087 161 - rules datei so umschreiben \, dass der crave als midi out anerkannt wird.;
#X text 1090 91 MIDI-CLOCK-LATENCY -------------------------;
#X text 1090 111 - die Midi-Clock mit einer Latenz ausstatten;
#X text 726 71 Conductor-Module -------------------------;
#X text 726 91 - Module entwickeln mit dem alle Sound-module gleichzeitig angesteuert werden können (z.B. Decay \, etc.);
#X text 1086 54 Clock-Module in Menu integrieren -------------------------;
#X text 726 211 - datei sichern - und als txt in Molipe ablegen;
#X text 726 44 repeater nach mute setzen --------------------------------;
#X text 726 241 - Scens-Mode einführen? damit zwischen Parametern gefaded werden kann? Dann würde in jeder Text-Datei einfach ein zweiter Faderwert gespeichert werden zwischen denen dann gefaded werden kann.;
#X text 726 121 ---> hier an den Elektron Scenes orientieren aka für jedes Modul z.B. 6 Spreicherungen ablegen zwischen denen gefaded werden kann...;
#X restore 8 208 pd TO-DO;
#N canvas 186 92 1099 553 patchloader 1;
#X obj 356 273 pdcontrol;
#X msg 356 250 dir;
#X obj 356 320 pack s s s;
#X msg 356 343 set \$1/\$2;
#X obj 336 400 pack s;
#X msg 344 421 \; pd open main.pd \$1;
#X msg 426 260 \; pd-main.pd menuclose \;;
#X msg 389 296 symbol patch\$1;
#X obj 336 203 f;
#X obj 274 195 bng 19 250 50 0 empty empty LOAD> -33 9 0 10 #fcfcfc #000000 #000000;
#X msg 336 369 /Users/johannklug/Documents/Bass\ Dieter/2025/Diet/MODULAR_LIVE_\ PERFORMER/patch1, f 78;
#N canvas 99 25 1234 789 push-controll 1;
#N canvas 138 155 1232 580 push-encoder 0;
#X obj 53 117 push-encoder-reader;
#X obj 53 13 ctlin 71;
#X obj 54 68 main-menu;
#X obj 105 50 r \$0-mm;
#N canvas 150 175 450 300 sm1 0;
#X obj 109 64 r \$0-sm;
#X obj 109 102 sel;
#X obj 75 170 outlet;
#X msg 108 123 1;
#X msg 135 123 0;
#X obj 75 149 spigot;
#X obj 75 37 inlet;
#X obj 124 83 r \$0-sm1;
#X connect 0 0 1 0;
#X connect 1 0 3 0;
#X connect 1 1 4 0;
#X connect 3 0 5 1;
#X connect 4 0 5 1;
#X connect 5 0 2 0;
#X connect 6 0 5 0;
#X connect 7 0 1 1;
#X restore 54 94 pd sm1;
#X text 37 -47 Encoder to volume (submenu1);
#X obj 183 92 r \$0-patch-number-s;
#X obj 54 143 s \$0-patch-number-r;
#X connect 0 0 7 0;
#X connect 1 0 2 0;
#X connect 2 0 4 0;
#X connect 3 0 2 1;
#X connect 4 0 0 0;
#X connect 6 0 0 1;
#X restore 27 51 pd push-encoder;
#N canvas 0 25 1440 789 push-display 0;
#X obj 146 -245 t b;
#X obj 697 -261 t b;
#X obj 147 -52 push-mk1-display 24;
#X obj 698 -48 push-mk1-display 27;
#X obj 146 -328 r main-menu;
#X obj 146 -273 main-menu;
#X obj 206 -302 r \$0-mm;
#X obj 697 -330 r main-menu;
#X obj 701 -285 main-menu;
#X obj 761 -312 r \$0-mm;
#X msg 698 -241 symbol;
#X msg 728 -191 symbol;
#X msg 748 -169 symbol;
#X msg 768 -141 symbol;
#X obj 514 330 push-mk1-display 26;
#X obj 484 60 loadbang;
#X obj 331 334 push-mk1-display 25;
#X msg 328 142 symbol;
#X msg 338 166 symbol;
#X msg 350 188 symbol;
#X msg 368 212 symbol;
#X msg 386 235 symbol;
#X msg 402 257 symbol;
#X msg 417 279 symbol;
#X msg 433 302 symbol;
#X obj 347 70 loadbang;
#X msg 155 143 symbol;
#X msg 165 167 symbol;
#X msg 177 189 symbol;
#X msg 195 213 symbol;
#X msg 213 236 symbol;
#X msg 229 258 symbol;
#X msg 244 280 symbol;
#X msg 260 303 symbol;
#X obj 174 71 loadbang;
#X obj 158 335 push-mk1-display 24;
#X msg 689 131 symbol;
#X msg 699 155 symbol;
#X msg 711 177 symbol;
#X msg 729 201 symbol;
#X msg 747 224 symbol;
#X msg 763 246 symbol;
#X obj 708 59 loadbang;
#X obj 692 323 push-mk1-display 27;
#X msg 570 256 symbol;
#X msg 585 278 symbol;
#X msg 612 301 symbol;
#X msg 167 -175 symbol;
#X msg 187 -157 symbol;
#X msg 207 -139 symbol;
#X msg 222 -119 symbol;
#X msg 242 -101 symbol;
#X msg 257 -81 symbol;
#X msg 147 -215 symbol MOTHER-PA;
#X msg 162 -193 symbol TCH;
#X msg 506 166 symbol WELCOME_T;
#X msg 522 188 symbol O_PERFOM;
#X msg 537 210 symbol ATISM_MOD;
#X msg 554 234 symbol;
#X msg 519 144 symbol ULAR;
#X msg 714 -219 symbol;
#X obj 332 -244 t b;
#X obj 332 -327 r main-menu;
#X obj 332 -272 main-menu;
#X obj 392 -301 r \$0-mm;
#X msg 353 -174 symbol;
#X msg 373 -156 symbol;
#X msg 393 -138 symbol;
#X msg 408 -118 symbol;
#X msg 428 -100 symbol;
#X msg 443 -80 symbol;
#X obj 333 -51 push-mk1-display 25;
#X obj 526 -262 t b;
#X obj 526 -331 r main-menu;
#X obj 526 -278 main-menu;
#X obj 586 -305 r \$0-mm;
#X msg 597 -142 symbol;
#X msg 617 -120 symbol;
#X msg 627 -92 symbol;
#X msg 647 -70 symbol;
#X obj 527 -49 push-mk1-display 26;
#X msg 333 -214 symbol;
#X msg 348 -192 symbol;
#X msg 527 -242 symbol CHOOSE;
#X msg 557 -192 symbol TO;
#X msg 543 -220 symbol PATCH;
#X msg 577 -170 symbol OPEN;
#X obj 966 -121 r CPU;
#X obj 966 -102 main-menu;
#X obj 1017 -121 r \$0-mm;
#X obj 966 -83 f;
#X msg 966 -63 symbol CPU:\$1%;
#X msg 788 -119 symbol;
#X obj 861 -141 r global-bpm;
#X obj 861 -101 main-menu;
#X obj 912 -120 r \$0-mm;
#X obj 861 -82 f;
#X msg 861 -62 symbol BPM:\$1%;
#X connect 0 0 53 0;
#X connect 0 0 54 0;
#X connect 0 0 47 0;
#X connect 0 0 48 0;
#X connect 0 0 49 0;
#X connect 0 0 50 0;
#X connect 0 0 51 0;
#X connect 0 0 52 0;
#X connect 1 0 10 0;
#X connect 1 0 60 0;
#X connect 1 0 11 0;
#X connect 1 0 12 0;
#X connect 1 0 13 0;
#X connect 1 0 92 0;
#X connect 1 0 90 0;
#X connect 1 0 96 0;
#X connect 4 0 5 0;
#X connect 5 0 0 0;
#X connect 6 0 5 1;
#X connect 7 0 8 0;
#X connect 8 0 1 0;
#X connect 9 0 8 1;
#X connect 10 0 3 0;
#X connect 11 0 3 2;
#X connect 12 0 3 3;
#X connect 13 0 3 4;
#X connect 15 0 55 0;
#X connect 15 0 56 0;
#X connect 15 0 57 0;
#X connect 15 0 59 0;
#X connect 15 0 58 0;
#X connect 15 0 44 0;
#X connect 15 0 45 0;
#X connect 15 0 46 0;
#X connect 17 0 16 0;
#X connect 18 0 16 1;
#X connect 19 0 16 2;
#X connect 20 0 16 3;
#X connect 21 0 16 4;
#X connect 22 0 16 5;
#X connect 23 0 16 6;
#X connect 24 0 16 7;
#X connect 25 0 17 0;
#X connect 25 0 18 0;
#X connect 25 0 19 0;
#X connect 25 0 20 0;
#X connect 25 0 21 0;
#X connect 25 0 22 0;
#X connect 25 0 23 0;
#X connect 25 0 24 0;
#X connect 26 0 35 0;
#X connect 27 0 35 1;
#X connect 28 0 35 2;
#X connect 29 0 35 3;
#X connect 30 0 35 4;
#X connect 31 0 35 5;
#X connect 32 0 35 6;
#X connect 33 0 35 7;
#X connect 34 0 26 0;
#X connect 34 0 27 0;
#X connect 34 0 28 0;
#X connect 34 0 29 0;
#X connect 34 0 30 0;
#X connect 34 0 31 0;
#X connect 34 0 32 0;
#X connect 34 0 33 0;
#X connect 36 0 43 0;
#X connect 37 0 43 1;
#X connect 38 0 43 2;
#X connect 39 0 43 3;
#X connect 40 0 43 4;
#X connect 41 0 43 5;
#X connect 42 0 36 0;
#X connect 42 0 37 0;
#X connect 42 0 38 0;
#X connect 42 0 39 0;
#X connect 42 0 40 0;
#X connect 42 0 41 0;
#X connect 44 0 14 5;
#X connect 45 0 14 6;
#X connect 46 0 14 7;
#X connect 47 0 2 2;
#X connect 48 0 2 3;
#X connect 49 0 2 4;
#X connect 50 0 2 5;
#X connect 51 0 2 6;
#X connect 52 0 2 7;
#X connect 53 0 2 0;
#X connect 54 0 2 1;
#X connect 55 0 14 0;
#X connect 56 0 14 1;
#X connect 57 0 14 2;
#X connect 58 0 14 4;
#X connect 59 0 14 3;
#X connect 60 0 3 1;
#X connect 61 0 81 0;
#X connect 61 0 82 0;
#X connect 61 0 65 0;
#X connect 61 0 66 0;
#X connect 61 0 67 0;
#X connect 61 0 68 0;
#X connect 61 0 69 0;
#X connect 61 0 70 0;
#X connect 62 0 63 0;
#X connect 63 0 61 0;
#X connect 64 0 63 1;
#X connect 65 0 71 2;
#X connect 66 0 71 3;
#X connect 67 0 71 4;
#X connect 68 0 71 5;
#X connect 69 0 71 6;
#X connect 70 0 71 7;
#X connect 72 0 83 0;
#X connect 72 0 85 0;
#X connect 72 0 84 0;
#X connect 72 0 86 0;
#X connect 72 0 76 0;
#X connect 72 0 77 0;
#X connect 72 0 78 0;
#X connect 72 0 79 0;
#X connect 73 0 74 0;
#X connect 74 0 72 0;
#X connect 75 0 74 1;
#X connect 76 0 80 4;
#X connect 77 0 80 5;
#X connect 78 0 80 6;
#X connect 79 0 80 7;
#X connect 81 0 71 0;
#X connect 82 0 71 1;
#X connect 83 0 80 0;
#X connect 84 0 80 2;
#X connect 85 0 80 1;
#X connect 86 0 80 3;
#X connect 87 0 88 0;
#X connect 88 0 90 0;
#X connect 89 0 88 1;
#X connect 90 0 91 0;
#X connect 91 0 3 7;
#X connect 92 0 3 5;
#X connect 93 0 94 0;
#X connect 94 0 96 0;
#X connect 95 0 94 1;
#X connect 96 0 97 0;
#X connect 97 0 3 6;
#X restore 28 18 pd push-display;
#X msg 463 302 13;
#X msg 495 302 0;
#X obj 464 231 hradio 16 1 0 8 empty empty empty 0 -8 0 10 #fcfcfc #000000 #000000 0;
#X obj 464 270 sel 0;
#X msg 545 302 13;
#X msg 577 302 0;
#X obj 546 270 sel 1;
#X obj 1127 252 s \$0-mm;
#X obj 465 66 main-menu;
#X obj 471 43 r \$0-mm;
#X obj 544 63 main-menu;
#X obj 550 40 r \$0-mm;
#X obj 465 87 sel 127;
#X msg 465 108 0;
#X obj 545 88 sel 127;
#X msg 545 109 1;
#X obj 439 405 s \$0-sm;
#X obj 1127 161 loadbang;
#X obj 1126 57 s \$0-sm1;
#X text 1190 58 The Submenu number of the subpatch;
#X obj 1126 18 loadbang;
#X obj 1126 92 loadbang;
#X msg 1126 112 1;
#X obj 1126 131 s \$0-sm2;
#X obj 409 19 loadbang;
#X msg 409 40 0;
#X obj 465 19 ctlin 20;
#X obj 543 19 ctlin 21;
#X obj 464 384 ctlout 20;
#X obj 546 384 ctlout 21;
#X obj 614 63 main-menu;
#X obj 620 40 r \$0-mm;
#X obj 615 88 sel 127;
#X obj 613 19 ctlin 22;
#X obj 684 63 main-menu;
#X obj 690 40 r \$0-mm;
#X obj 685 88 sel 127;
#X obj 683 19 ctlin 23;
#X obj 745 65 main-menu;
#X obj 751 42 r \$0-mm;
#X obj 824 62 main-menu;
#X obj 830 39 r \$0-mm;
#X obj 745 86 sel 127;
#X obj 825 87 sel 127;
#X obj 894 62 main-menu;
#X obj 900 39 r \$0-mm;
#X obj 895 87 sel 127;
#X obj 964 62 main-menu;
#X obj 970 39 r \$0-mm;
#X obj 965 87 sel 127;
#X obj 745 18 ctlin 24;
#X obj 823 18 ctlin 25;
#X obj 893 18 ctlin 26;
#X obj 963 18 ctlin 27;
#X msg 615 109 2;
#X msg 685 109 3;
#X msg 745 107 4;
#X msg 825 108 5;
#X msg 895 108 6;
#X msg 965 108 7;
#X msg 615 301 13;
#X msg 647 301 0;
#X msg 697 301 13;
#X msg 729 301 0;
#X msg 768 301 13;
#X msg 800 301 0;
#X msg 850 301 13;
#X msg 882 301 0;
#X msg 920 300 13;
#X msg 952 300 0;
#X msg 1002 300 13;
#X msg 1034 300 0;
#X obj 616 269 sel 2;
#X obj 698 269 sel 3;
#X obj 769 269 sel 4;
#X obj 851 269 sel 5;
#X obj 921 268 sel 6;
#X obj 1003 268 sel 7;
#X obj 616 383 ctlout 22;
#X obj 698 383 ctlout 23;
#X obj 769 383 ctlout 24;
#X obj 851 383 ctlout 25;
#X obj 921 382 ctlout 26;
#X obj 1003 382 ctlout 27;
#X obj 418 428 s \$0-diet-drum-seq-set-instrument-r;
#X msg 1127 200 6;
#X msg 1126 38 1;
#X obj 329 528 notein;
#X obj 329 566 sel 92;
#X obj 329 667 bng 16 250 50 0 empty empty empty 0 -8 0 10 #fcfcfc #000000 #000000;
#X obj 329 548 stripnote;
#X obj 391 528 notein;
#X obj 391 667 bng 16 250 50 0 empty empty empty 0 -8 0 10 #fcfcfc #000000 #000000;
#X obj 391 548 stripnote;
#X obj 391 566 sel 93;
#X obj 459 528 notein;
#X obj 459 667 bng 16 250 50 0 empty empty empty 0 -8 0 10 #fcfcfc #000000 #000000;
#X obj 459 548 stripnote;
#X obj 521 528 notein;
#X obj 521 667 bng 16 250 50 0 empty empty empty 0 -8 0 10 #fcfcfc #000000 #000000;
#X obj 521 548 stripnote;
#X obj 589 528 notein;
#X obj 589 667 bng 16 250 50 0 empty empty empty 0 -8 0 10 #fcfcfc #000000 #000000;
#X obj 589 548 stripnote;
#X obj 651 528 notein;
#X obj 651 667 bng 16 250 50 0 empty empty empty 0 -8 0 10 #fcfcfc #000000 #000000;
#X obj 651 548 stripnote;
#X obj 719 528 notein;
#X obj 719 667 bng 16 250 50 0 empty empty empty 0 -8 0 10 #fcfcfc #000000 #000000;
#X obj 719 548 stripnote;
#X obj 781 528 notein;
#X obj 781 667 bng 16 250 50 0 empty empty empty 0 -8 0 10 #fcfcfc #000000 #000000;
#X obj 781 548 stripnote;
#X obj 459 566 sel 94;
#X obj 521 566 sel 95;
#X obj 589 566 sel 96;
#X obj 651 566 sel 97;
#X obj 719 566 sel 98;
#X obj 781 566 sel 99;
#X msg 329 688 0;
#X msg 391 688 1;
#X msg 459 688 2;
#X msg 521 688 3;
#X msg 589 688 4;
#X msg 651 688 5;
#X msg 719 688 6;
#X msg 781 688 7;
#X obj 878 765 r \$0-patchnr;
#X obj 878 843 noteout;
#X msg 878 822 92 60;
#X msg 911 802 92 0;
#X obj 878 783 sel 0;
#X obj 959 764 r \$0-patchnr;
#X obj 959 842 noteout;
#X obj 959 782 sel 1;
#X msg 959 821 93 60;
#X msg 992 801 93 0;
#X obj 1038 764 r \$0-patchnr;
#X obj 1038 842 noteout;
#X obj 1038 782 sel 2;
#X msg 1038 821 94 60;
#X msg 1071 801 94 0;
#X obj 1118 764 r \$0-patchnr;
#X obj 1118 842 noteout;
#X obj 1199 763 r \$0-patchnr;
#X obj 1199 841 noteout;
#X obj 1278 763 r \$0-patchnr;
#X obj 1278 841 noteout;
#X obj 1118 782 sel 3;
#X obj 1199 781 sel 4;
#X obj 1278 781 sel 5;
#X msg 1118 821 95 60;
#X msg 1151 801 95 0;
#X msg 1199 820 96 60;
#X msg 1232 800 96 0;
#X msg 1278 820 97 60;
#X msg 1311 800 97 0;
#X obj 1357 763 r \$0-patchnr;
#X obj 1357 841 noteout;
#X obj 1436 763 r \$0-patchnr;
#X obj 1436 841 noteout;
#X obj 1357 781 sel 6;
#X obj 1436 781 sel 7;
#X msg 1357 820 98 60;
#X msg 1390 800 98 0;
#X msg 1436 820 99 60;
#X msg 1469 800 99 0;
#X obj 329 607 main-menu;
#X obj 335 584 r \$0-mm;
#X obj 391 607 main-menu;
#X obj 397 584 r \$0-mm;
#X obj 459 607 main-menu;
#X obj 465 584 r \$0-mm;
#X obj 521 607 main-menu;
#X obj 527 584 r \$0-mm;
#X obj 589 607 main-menu;
#X obj 595 584 r \$0-mm;
#X obj 651 607 main-menu;
#X obj 657 584 r \$0-mm;
#X obj 719 607 main-menu;
#X obj 725 584 r \$0-mm;
#X obj 781 607 main-menu;
#X obj 787 584 r \$0-mm;
#X obj 329 768 notein;
#X obj 329 907 bng 16 250 50 0 empty empty empty 0 -8 0 10 #fcfcfc #000000 #000000;
#X obj 329 788 stripnote;
#X obj 391 768 notein;
#X obj 391 907 bng 16 250 50 0 empty empty empty 0 -8 0 10 #fcfcfc #000000 #000000;
#X obj 391 788 stripnote;
#X obj 459 768 notein;
#X obj 459 907 bng 16 250 50 0 empty empty empty 0 -8 0 10 #fcfcfc #000000 #000000;
#X obj 459 788 stripnote;
#X obj 521 768 notein;
#X obj 521 907 bng 16 250 50 0 empty empty empty 0 -8 0 10 #fcfcfc #000000 #000000;
#X obj 521 788 stripnote;
#X obj 589 768 notein;
#X obj 589 907 bng 16 250 50 0 empty empty empty 0 -8 0 10 #fcfcfc #000000 #000000;
#X obj 589 788 stripnote;
#X obj 651 768 notein;
#X obj 651 907 bng 16 250 50 0 empty empty empty 0 -8 0 10 #fcfcfc #000000 #000000;
#X obj 651 788 stripnote;
#X obj 719 768 notein;
#X obj 719 907 bng 16 250 50 0 empty empty empty 0 -8 0 10 #fcfcfc #000000 #000000;
#X obj 719 788 stripnote;
#X obj 781 768 notein;
#X obj 781 907 bng 16 250 50 0 empty empty empty 0 -8 0 10 #fcfcfc #000000 #000000;
#X obj 781 788 stripnote;
#X obj 329 847 main-menu;
#X obj 335 824 r \$0-mm;
#X obj 391 847 main-menu;
#X obj 397 824 r \$0-mm;
#X obj 459 847 main-menu;
#X obj 465 824 r \$0-mm;
#X obj 521 847 main-menu;
#X obj 527 824 r \$0-mm;
#X obj 589 847 main-menu;
#X obj 595 824 r \$0-mm;
#X obj 651 847 main-menu;
#X obj 657 824 r \$0-mm;
#X obj 719 847 main-menu;
#X obj 725 824 r \$0-mm;
#X obj 781 847 main-menu;
#X obj 787 824 r \$0-mm;
#X obj 329 806 sel 84;
#X obj 391 806 sel 85;
#X obj 459 806 sel 86;
#X obj 521 806 sel 87;
#X obj 589 806 sel 88;
#X obj 651 806 sel 89;
#X obj 719 806 sel 90;
#X obj 781 806 sel 91;
#X msg 329 928 8;
#X msg 391 928 9;
#X msg 459 928 10;
#X msg 521 928 11;
#X msg 589 928 12;
#X msg 651 928 13;
#X msg 719 928 14;
#X msg 781 927 15;
#X obj 878 865 r \$0-patchnr;
#X obj 878 943 noteout;
#X obj 959 864 r \$0-patchnr;
#X obj 959 942 noteout;
#X obj 1038 864 r \$0-patchnr;
#X obj 1038 942 noteout;
#X obj 1118 864 r \$0-patchnr;
#X obj 1118 942 noteout;
#X obj 1199 863 r \$0-patchnr;
#X obj 1199 941 noteout;
#X obj 1278 863 r \$0-patchnr;
#X obj 1278 941 noteout;
#X obj 1357 863 r \$0-patchnr;
#X obj 1357 941 noteout;
#X obj 1436 863 r \$0-patchnr;
#X obj 1436 941 noteout;
#X msg 877 922 84 60;
#X msg 911 902 84 0;
#X msg 959 921 85 60;
#X msg 992 901 85 0;
#X msg 1038 921 86 60;
#X msg 1071 901 86 0;
#X msg 1118 921 87 60;
#X msg 1151 901 87 0;
#X msg 1199 920 88 60;
#X msg 1232 900 88 0;
#X msg 1278 920 89 60;
#X msg 1311 900 89 0;
#X msg 1390 900 90 0;
#X msg 1357 920 90 60;
#X msg 1436 920 91 60;
#X msg 1469 900 91 0;
#X text 880 732 loading leds on push:;
#X text 331 500 Reading push buttons:;
#X obj 557 969 s \$0-patchnr-r;
#X obj 557 729 s \$0-patchnr-r;
#X obj 878 883 sel 8;
#X obj 959 882 sel 9;
#X obj 1038 882 sel 10;
#X obj 1118 882 sel 11;
#X obj 1199 881 sel 12;
#X obj 1278 881 sel 13;
#X obj 1357 881 sel 14;
#X obj 1436 881 sel 15;
#X obj 885 639 f;
#X obj 893 593 r main-menu;
#X obj 893 620 sel 1;
#X obj 920 572 r \$0-mm;
#X obj 885 554 r \$0-patchnr-s;
#X obj 885 658 s \$0-patchnr;
#X obj 329 1008 notein;
#X obj 329 1147 bng 16 250 50 0 empty empty empty 0 -8 0 10 #fcfcfc #000000 #000000;
#X obj 329 1028 stripnote;
#X obj 391 1008 notein;
#X obj 391 1147 bng 16 250 50 0 empty empty empty 0 -8 0 10 #fcfcfc #000000 #000000;
#X obj 391 1028 stripnote;
#X obj 459 1008 notein;
#X obj 459 1147 bng 16 250 50 0 empty empty empty 0 -8 0 10 #fcfcfc #000000 #000000;
#X obj 459 1028 stripnote;
#X obj 521 1008 notein;
#X obj 521 1147 bng 16 250 50 0 empty empty empty 0 -8 0 10 #fcfcfc #000000 #000000;
#X obj 521 1028 stripnote;
#X obj 589 1008 notein;
#X obj 589 1147 bng 16 250 50 0 empty empty empty 0 -8 0 10 #fcfcfc #000000 #000000;
#X obj 589 1028 stripnote;
#X obj 651 1008 notein;
#X obj 651 1147 bng 16 250 50 0 empty empty empty 0 -8 0 10 #fcfcfc #000000 #000000;
#X obj 651 1028 stripnote;
#X obj 719 1008 notein;
#X obj 719 1147 bng 16 250 50 0 empty empty empty 0 -8 0 10 #fcfcfc #000000 #000000;
#X obj 719 1028 stripnote;
#X obj 781 1008 notein;
#X obj 781 1147 bng 16 250 50 0 empty empty empty 0 -8 0 10 #fcfcfc #000000 #000000;
#X obj 781 1028 stripnote;
#X obj 329 1087 main-menu;
#X obj 335 1064 r \$0-mm;
#X obj 391 1087 main-menu;
#X obj 397 1064 r \$0-mm;
#X obj 459 1087 main-menu;
#X obj 465 1064 r \$0-mm;
#X obj 521 1087 main-menu;
#X obj 527 1064 r \$0-mm;
#X obj 589 1087 main-menu;
#X obj 595 1064 r \$0-mm;
#X obj 651 1087 main-menu;
#X obj 657 1064 r \$0-mm;
#X obj 719 1087 main-menu;
#X obj 725 1064 r \$0-mm;
#X obj 781 1087 main-menu;
#X obj 787 1064 r \$0-mm;
#X obj 557 1209 s \$0-patchnr-r;
#X obj 329 1046 sel 76;
#X obj 391 1046 sel 77;
#X obj 878 965 r \$0-patchnr;
#X obj 878 1043 noteout;
#X obj 959 964 r \$0-patchnr;
#X obj 959 1042 noteout;
#X obj 1038 964 r \$0-patchnr;
#X obj 1038 1042 noteout;
#X obj 1118 964 r \$0-patchnr;
#X obj 1118 1042 noteout;
#X obj 1199 963 r \$0-patchnr;
#X obj 1199 1041 noteout;
#X obj 1278 963 r \$0-patchnr;
#X obj 1278 1041 noteout;
#X obj 1357 963 r \$0-patchnr;
#X obj 1357 1041 noteout;
#X obj 1436 963 r \$0-patchnr;
#X obj 1436 1041 noteout;
#X obj 878 983 sel 16;
#X obj 959 982 sel 17;
#X obj 1038 982 sel 18;
#X obj 1118 982 sel 19;
#X obj 1199 981 sel 20;
#X obj 1278 981 sel 21;
#X obj 1357 981 sel 22;
#X obj 1436 981 sel 23;
#X msg 877 1022 76 60;
#X msg 911 1002 76 0;
#X msg 959 1021 77 60;
#X msg 992 1001 77 0;
#X msg 1038 1021 78 60;
#X msg 1071 1001 78 0;
#X msg 1118 1021 79 60;
#X msg 1151 1001 79 0;
#X msg 1199 1020 80 60;
#X msg 1232 1000 80 0;
#X msg 1278 1020 81 60;
#X msg 1311 1000 81 0;
#X msg 1357 1020 82 60;
#X msg 1390 1000 82 0;
#X msg 1436 1020 83 60;
#X msg 1469 1000 83 0;
#X obj 459 1046 sel 78;
#X obj 521 1046 sel 79;
#X obj 589 1046 sel 80;
#X obj 651 1046 sel 81;
#X obj 719 1046 sel 82;
#X obj 781 1046 sel 83;
#X msg 329 1168 16;
#X msg 391 1168 17;
#X msg 459 1168 18;
#X msg 521 1168 19;
#X msg 589 1168 20;
#X msg 651 1168 21;
#X msg 719 1168 22;
#X msg 781 1166 23;
#X obj 878 1065 r \$0-patchnr;
#X obj 878 1143 noteout;
#X obj 959 1064 r \$0-patchnr;
#X obj 959 1142 noteout;
#X obj 1038 1064 r \$0-patchnr;
#X obj 1038 1142 noteout;
#X obj 1118 1064 r \$0-patchnr;
#X obj 1118 1142 noteout;
#X obj 1199 1063 r \$0-patchnr;
#X obj 1199 1141 noteout;
#X obj 1278 1063 r \$0-patchnr;
#X obj 1278 1141 noteout;
#X obj 1357 1063 r \$0-patchnr;
#X obj 1357 1141 noteout;
#X obj 1436 1063 r \$0-patchnr;
#X obj 1436 1141 noteout;
#X msg 1436 1120 75 60;
#X msg 1469 1100 75 0;
#X msg 1390 1100 74 0;
#X msg 1357 1119 74 60;
#X msg 1311 1100 73 0;
#X msg 1278 1120 73 60;
#X msg 1232 1100 72 0;
#X msg 1199 1120 72 60;
#X msg 1151 1101 71 0;
#X msg 1118 1121 71 60;
#X msg 1071 1101 70 0;
#X msg 1038 1121 70 60;
#X msg 992 1101 69 0;
#X msg 959 1121 69 60;
#X msg 911 1102 68 0;
#X msg 877 1122 68 60;
#X obj 878 1165 r \$0-patchnr;
#X obj 878 1243 noteout;
#X obj 959 1164 r \$0-patchnr;
#X obj 959 1242 noteout;
#X obj 1038 1164 r \$0-patchnr;
#X obj 1038 1242 noteout;
#X obj 1118 1164 r \$0-patchnr;
#X obj 1118 1242 noteout;
#X obj 1199 1163 r \$0-patchnr;
#X obj 1199 1241 noteout;
#X obj 1278 1163 r \$0-patchnr;
#X obj 1278 1241 noteout;
#X obj 1357 1163 r \$0-patchnr;
#X obj 1357 1241 noteout;
#X obj 1436 1163 r \$0-patchnr;
#X obj 1436 1241 noteout;
#X msg 1469 1200 67 0;
#X msg 1436 1220 67 60;
#X msg 1390 1200 66 0;
#X msg 1357 1219 66 60;
#X msg 1311 1200 65 0;
#X msg 1278 1220 65 60;
#X msg 1232 1200 64 0;
#X msg 1199 1220 64 60;
#X msg 1151 1201 63 0;
#X msg 1118 1221 63 60;
#X msg 1071 1200 62 0;
#X msg 1038 1221 62 60;
#X msg 992 1201 61 0;
#X msg 959 1221 61 60;
#X msg 911 1202 60 0;
#X msg 877 1222 60 60;
#X obj 878 1083 sel 24;
#X obj 959 1082 sel 25;
#X obj 1038 1082 sel 26;
#X obj 1118 1082 sel 27;
#X obj 1199 1081 sel 28;
#X obj 1278 1081 sel 29;
#X obj 1357 1081 sel 30;
#X obj 1436 1081 sel 31;
#X obj 878 1183 sel 32;
#X obj 959 1182 sel 33;
#X obj 1038 1182 sel 34;
#X obj 1118 1182 sel 35;
#X obj 1199 1181 sel 36;
#X obj 1278 1181 sel 37;
#X obj 1357 1181 sel 38;
#X obj 1436 1181 sel 39;
#X connect 2 0 30 0;
#X connect 3 0 30 0;
#X connect 4 0 5 0;
#X connect 4 0 8 0;
#X connect 4 0 18 0;
#X connect 4 0 74 0;
#X connect 4 0 75 0;
#X connect 4 0 76 0;
#X connect 4 0 77 0;
#X connect 4 0 78 0;
#X connect 4 0 79 0;
#X connect 4 0 86 0;
#X connect 5 0 2 0;
#X connect 5 1 3 0;
#X connect 6 0 31 0;
#X connect 7 0 31 0;
#X connect 8 0 6 0;
#X connect 8 1 7 0;
#X connect 10 0 14 0;
#X connect 11 0 10 1;
#X connect 12 0 16 0;
#X connect 13 0 12 1;
#X connect 14 0 15 0;
#X connect 15 0 4 0;
#X connect 16 0 17 0;
#X connect 17 0 4 0;
#X connect 19 0 87 0;
#X connect 22 0 88 0;
#X connect 23 0 24 0;
#X connect 24 0 25 0;
#X connect 26 0 27 0;
#X connect 27 0 4 0;
#X connect 28 0 10 0;
#X connect 29 0 12 0;
#X connect 32 0 34 0;
#X connect 33 0 32 1;
#X connect 34 0 56 0;
#X connect 35 0 32 0;
#X connect 36 0 38 0;
#X connect 37 0 36 1;
#X connect 38 0 57 0;
#X connect 39 0 36 0;
#X connect 40 0 44 0;
#X connect 41 0 40 1;
#X connect 42 0 45 0;
#X connect 43 0 42 1;
#X connect 44 0 58 0;
#X connect 45 0 59 0;
#X connect 46 0 48 0;
#X connect 47 0 46 1;
#X connect 48 0 60 0;
#X connect 49 0 51 0;
#X connect 50 0 49 1;
#X connect 51 0 61 0;
#X connect 52 0 40 0;
#X connect 53 0 42 0;
#X connect 54 0 46 0;
#X connect 55 0 49 0;
#X connect 56 0 4 0;
#X connect 57 0 4 0;
#X connect 58 0 4 0;
#X connect 59 0 4 0;
#X connect 60 0 4 0;
#X connect 61 0 4 0;
#X connect 62 0 80 0;
#X connect 63 0 80 0;
#X connect 64 0 81 0;
#X connect 65 0 81 0;
#X connect 66 0 82 0;
#X connect 67 0 82 0;
#X connect 68 0 83 0;
#X connect 69 0 83 0;
#X connect 70 0 84 0;
#X connect 71 0 84 0;
#X connect 72 0 85 0;
#X connect 73 0 85 0;
#X connect 74 0 62 0;
#X connect 74 1 63 0;
#X connect 75 0 64 0;
#X connect 75 1 65 0;
#X connect 76 0 66 0;
#X connect 76 1 67 0;
#X connect 77 0 68 0;
#X connect 77 1 69 0;
#X connect 78 0 70 0;
#X connect 78 1 71 0;
#X connect 79 0 72 0;
#X connect 79 1 73 0;
#X connect 87 0 9 0;
#X connect 88 0 20 0;
#X connect 89 0 92 0;
#X connect 89 1 92 1;
#X connect 90 0 169 0;
#X connect 91 0 121 0;
#X connect 92 0 90 0;
#X connect 93 0 95 0;
#X connect 93 1 95 1;
#X connect 94 0 122 0;
#X connect 95 0 96 0;
#X connect 96 0 171 0;
#X connect 97 0 99 0;
#X connect 97 1 99 1;
#X connect 98 0 123 0;
#X connect 99 0 115 0;
#X connect 100 0 102 0;
#X connect 100 1 102 1;
#X connect 101 0 124 0;
#X connect 102 0 116 0;
#X connect 103 0 105 0;
#X connect 103 1 105 1;
#X connect 104 0 125 0;
#X connect 105 0 117 0;
#X connect 106 0 108 0;
#X connect 106 1 108 1;
#X connect 107 0 126 0;
#X connect 108 0 118 0;
#X connect 109 0 111 0;
#X connect 109 1 111 1;
#X connect 110 0 127 0;
#X connect 111 0 119 0;
#X connect 112 0 114 0;
#X connect 112 1 114 1;
#X connect 113 0 128 0;
#X connect 114 0 120 0;
#X connect 115 0 173 0;
#X connect 116 0 175 0;
#X connect 117 0 177 0;
#X connect 118 0 179 0;
#X connect 119 0 181 0;
#X connect 120 0 183 0;
#X connect 121 0 276 0;
#X connect 122 0 276 0;
#X connect 123 0 276 0;
#X connect 124 0 276 0;
#X connect 125 0 276 0;
#X connect 126 0 276 0;
#X connect 127 0 276 0;
#X connect 128 0 276 0;
#X connect 129 0 133 0;
#X connect 131 0 130 0;
#X connect 132 0 130 0;
#X connect 133 0 131 0;
#X connect 133 1 132 0;
#X connect 134 0 136 0;
#X connect 136 0 137 0;
#X connect 136 1 138 0;
#X connect 137 0 135 0;
#X connect 138 0 135 0;
#X connect 139 0 141 0;
#X connect 141 0 142 0;
#X connect 141 1 143 0;
#X connect 142 0 140 0;
#X connect 143 0 140 0;
#X connect 144 0 150 0;
#X connect 146 0 151 0;
#X connect 148 0 152 0;
#X connect 150 0 153 0;
#X connect 150 1 154 0;
#X connect 151 0 155 0;
#X connect 151 1 156 0;
#X connect 152 0 157 0;
#X connect 152 1 158 0;
#X connect 153 0 145 0;
#X connect 154 0 145 0;
#X connect 155 0 147 0;
#X connect 156 0 147 0;
#X connect 157 0 149 0;
#X connect 158 0 149 0;
#X connect 159 0 163 0;
#X connect 161 0 164 0;
#X connect 163 0 165 0;
#X connect 163 1 166 0;
#X connect 164 0 167 0;
#X connect 164 1 168 0;
#X connect 165 0 160 0;
#X connect 166 0 160 0;
#X connect 167 0 162 0;
#X connect 168 0 162 0;
#X connect 169 0 91 0;
#X connect 170 0 169 1;
#X connect 171 0 94 0;
#X connect 172 0 171 1;
#X connect 173 0 98 0;
#X connect 174 0 173 1;
#X connect 175 0 101 0;
#X connect 176 0 175 1;
#X connect 177 0 104 0;
#X connect 178 0 177 1;
#X connect 179 0 107 0;
#X connect 180 0 179 1;
#X connect 181 0 110 0;
#X connect 182 0 181 1;
#X connect 183 0 113 0;
#X connect 184 0 183 1;
#X connect 185 0 187 0;
#X connect 185 1 187 1;
#X connect 186 0 233 0;
#X connect 187 0 225 0;
#X connect 188 0 190 0;
#X connect 188 1 190 1;
#X connect 189 0 234 0;
#X connect 190 0 226 0;
#X connect 191 0 193 0;
#X connect 191 1 193 1;
#X connect 192 0 235 0;
#X connect 193 0 227 0;
#X connect 194 0 196 0;
#X connect 194 1 196 1;
#X connect 195 0 236 0;
#X connect 196 0 228 0;
#X connect 197 0 199 0;
#X connect 197 1 199 1;
#X connect 198 0 237 0;
#X connect 199 0 229 0;
#X connect 200 0 202 0;
#X connect 200 1 202 1;
#X connect 201 0 238 0;
#X connect 202 0 230 0;
#X connect 203 0 205 0;
#X connect 203 1 205 1;
#X connect 204 0 239 0;
#X connect 205 0 231 0;
#X connect 206 0 208 0;
#X connect 206 1 208 1;
#X connect 207 0 240 0;
#X connect 208 0 232 0;
#X connect 209 0 186 0;
#X connect 210 0 209 1;
#X connect 211 0 189 0;
#X connect 212 0 211 1;
#X connect 213 0 192 0;
#X connect 214 0 213 1;
#X connect 215 0 195 0;
#X connect 216 0 215 1;
#X connect 217 0 198 0;
#X connect 218 0 217 1;
#X connect 219 0 201 0;
#X connect 220 0 219 1;
#X connect 221 0 204 0;
#X connect 222 0 221 1;
#X connect 223 0 207 0;
#X connect 224 0 223 1;
#X connect 225 0 209 0;
#X connect 226 0 211 0;
#X connect 227 0 213 0;
#X connect 228 0 215 0;
#X connect 229 0 217 0;
#X connect 230 0 219 0;
#X connect 231 0 221 0;
#X connect 232 0 223 0;
#X connect 233 0 275 0;
#X connect 234 0 275 0;
#X connect 235 0 275 0;
#X connect 236 0 275 0;
#X connect 237 0 275 0;
#X connect 238 0 275 0;
#X connect 239 0 275 0;
#X connect 240 0 275 0;
#X connect 241 0 277 0;
#X connect 243 0 278 0;
#X connect 245 0 279 0;
#X connect 247 0 280 0;
#X connect 249 0 281 0;
#X connect 251 0 282 0;
#X connect 253 0 283 0;
#X connect 255 0 284 0;
#X connect 257 0 242 0;
#X connect 258 0 242 0;
#X connect 259 0 244 0;
#X connect 260 0 244 0;
#X connect 261 0 246 0;
#X connect 262 0 246 0;
#X connect 263 0 248 0;
#X connect 264 0 248 0;
#X connect 265 0 250 0;
#X connect 266 0 250 0;
#X connect 267 0 252 0;
#X connect 268 0 252 0;
#X connect 269 0 254 0;
#X connect 270 0 254 0;
#X connect 271 0 256 0;
#X connect 272 0 256 0;
#X connect 277 0 257 0;
#X connect 277 1 258 0;
#X connect 278 0 259 0;
#X connect 278 1 260 0;
#X connect 279 0 261 0;
#X connect 279 1 262 0;
#X connect 280 0 263 0;
#X connect 280 1 264 0;
#X connect 281 0 265 0;
#X connect 281 1 266 0;
#X connect 282 0 267 0;
#X connect 282 1 268 0;
#X connect 283 0 270 0;
#X connect 283 1 269 0;
#X connect 284 0 271 0;
#X connect 284 1 272 0;
#X connect 285 0 290 0;
#X connect 286 0 287 0;
#X connect 287 0 285 0;
#X connect 288 0 287 1;
#X connect 289 0 285 0;
#X connect 291 0 293 0;
#X connect 291 1 293 1;
#X connect 292 0 380 0;
#X connect 293 0 332 0;
#X connect 294 0 296 0;
#X connect 294 1 296 1;
#X connect 295 0 381 0;
#X connect 296 0 333 0;
#X connect 297 0 299 0;
#X connect 297 1 299 1;
#X connect 298 0 382 0;
#X connect 299 0 374 0;
#X connect 300 0 302 0;
#X connect 300 1 302 1;
#X connect 301 0 383 0;
#X connect 302 0 375 0;
#X connect 303 0 305 0;
#X connect 303 1 305 1;
#X connect 304 0 384 0;
#X connect 305 0 376 0;
#X connect 306 0 308 0;
#X connect 306 1 308 1;
#X connect 307 0 385 0;
#X connect 308 0 377 0;
#X connect 309 0 311 0;
#X connect 309 1 311 1;
#X connect 310 0 386 0;
#X connect 311 0 378 0;
#X connect 312 0 314 0;
#X connect 312 1 314 1;
#X connect 313 0 387 0;
#X connect 314 0 379 0;
#X connect 315 0 292 0;
#X connect 316 0 315 1;
#X connect 317 0 295 0;
#X connect 318 0 317 1;
#X connect 319 0 298 0;
#X connect 320 0 319 1;
#X connect 321 0 301 0;
#X connect 322 0 321 1;
#X connect 323 0 304 0;
#X connect 324 0 323 1;
#X connect 325 0 307 0;
#X connect 326 0 325 1;
#X connect 327 0 310 0;
#X connect 328 0 327 1;
#X connect 329 0 313 0;
#X connect 330 0 329 1;
#X connect 332 0 315 0;
#X connect 333 0 317 0;
#X connect 334 0 350 0;
#X connect 336 0 351 0;
#X connect 338 0 352 0;
#X connect 340 0 353 0;
#X connect 342 0 354 0;
#X connect 344 0 355 0;
#X connect 346 0 356 0;
#X connect 348 0 357 0;
#X connect 350 0 358 0;
#X connect 350 1 359 0;
#X connect 351 0 360 0;
#X connect 351 1 361 0;
#X connect 352 0 362 0;
#X connect 352 1 363 0;
#X connect 353 0 364 0;
#X connect 353 1 365 0;
#X connect 354 0 366 0;
#X connect 354 1 367 0;
#X connect 355 0 368 0;
#X connect 355 1 369 0;
#X connect 356 0 370 0;
#X connect 356 1 371 0;
#X connect 357 0 372 0;
#X connect 357 1 373 0;
#X connect 358 0 335 0;
#X connect 359 0 335 0;
#X connect 360 0 337 0;
#X connect 361 0 337 0;
#X connect 362 0 339 0;
#X connect 363 0 339 0;
#X connect 364 0 341 0;
#X connect 365 0 341 0;
#X connect 366 0 343 0;
#X connect 367 0 343 0;
#X connect 368 0 345 0;
#X connect 369 0 345 0;
#X connect 370 0 347 0;
#X connect 371 0 347 0;
#X connect 372 0 349 0;
#X connect 373 0 349 0;
#X connect 374 0 319 0;
#X connect 375 0 321 0;
#X connect 376 0 323 0;
#X connect 377 0 325 0;
#X connect 378 0 327 0;
#X connect 379 0 329 0;
#X connect 380 0 331 0;
#X connect 381 0 331 0;
#X connect 382 0 331 0;
#X connect 383 0 331 0;
#X connect 384 0 331 0;
#X connect 385 0 331 0;
#X connect 386 0 331 0;
#X connect 387 0 331 0;
#X connect 388 0 452 0;
#X connect 390 0 453 0;
#X connect 392 0 454 0;
#X connect 394 0 455 0;
#X connect 396 0 456 0;
#X connect 398 0 457 0;
#X connect 400 0 458 0;
#X connect 402 0 459 0;
#X connect 404 0 403 0;
#X connect 405 0 403 0;
#X connect 406 0 401 0;
#X connect 407 0 401 0;
#X connect 408 0 399 0;
#X connect 409 0 399 0;
#X connect 410 0 397 0;
#X connect 411 0 397 0;
#X connect 412 0 395 0;
#X connect 413 0 395 0;
#X connect 414 0 393 0;
#X connect 415 0 393 0;
#X connect 416 0 391 0;
#X connect 417 0 391 0;
#X connect 418 0 389 0;
#X connect 419 0 389 0;
#X connect 420 0 460 0;
#X connect 422 0 461 0;
#X connect 424 0 462 0;
#X connect 426 0 463 0;
#X connect 428 0 464 0;
#X connect 430 0 465 0;
#X connect 432 0 466 0;
#X connect 434 0 467 0;
#X connect 436 0 435 0;
#X connect 437 0 435 0;
#X connect 438 0 433 0;
#X connect 439 0 433 0;
#X connect 440 0 431 0;
#X connect 441 0 431 0;
#X connect 442 0 429 0;
#X connect 443 0 429 0;
#X connect 444 0 427 0;
#X connect 445 0 427 0;
#X connect 446 0 425 0;
#X connect 447 0 425 0;
#X connect 448 0 423 0;
#X connect 449 0 423 0;
#X connect 450 0 421 0;
#X connect 451 0 421 0;
#X connect 452 0 419 0;
#X connect 452 1 418 0;
#X connect 453 0 417 0;
#X connect 453 1 416 0;
#X connect 454 0 415 0;
#X connect 454 1 414 0;
#X connect 455 0 413 0;
#X connect 455 1 412 0;
#X connect 456 0 411 0;
#X connect 456 1 410 0;
#X connect 457 0 409 0;
#X connect 457 1 408 0;
#X connect 458 0 407 0;
#X connect 458 1 406 0;
#X connect 459 0 404 0;
#X connect 459 1 405 0;
#X connect 460 0 451 0;
#X connect 460 1 450 0;
#X connect 461 0 449 0;
#X connect 461 1 448 0;
#X connect 462 0 447 0;
#X connect 462 1 446 0;
#X connect 463 0 445 0;
#X connect 463 1 444 0;
#X connect 464 0 443 0;
#X connect 464 1 442 0;
#X connect 465 0 441 0;
#X connect 465 1 440 0;
#X connect 466 0 439 0;
#X connect 466 1 438 0;
#X connect 467 0 437 0;
#X connect 467 1 436 0;
#X restore 334 93 pd push-controll;
#X obj 109 105 cnv 5 5 5 empty empty OPEN/CLOSE\ PATCHES: 0 12 0 10 #fcfcfc #404040 0;
#X obj 336 225 t b b f b b;
#X obj 336 296 del 200;
#X floatatom 270 10 5 0 0 0 - - - 0;
#X obj 243 -9 t b f;
#X obj 335 72 text define -k patch-status;
#A set 0 \;;
#X obj 335 54 text set patch-status;
#X obj 336 7 text get patch-status;
#X floatatom 336 25 5 0 0 0 - - - 0;
#X msg 336 -11 0, f 6;
#X obj 336 -29 loadbang;
#X obj 243 -29 r \$0-patchnr-r;
#X floatatom 222 136 5 1 5 0 PATCH_NR - - 24;
#X obj 334 117 s \$0-patchnr-s;
#X obj 336 452 t b;
#X obj 336 471 del 500;
#X obj 336 549 s main-menu;
#X msg 336 530 1;
#X text 575 -15 This subpatch opens and closes other subpatches located in Molipe’s main folder. Each subpatch folder must be named patch+number in order to be recognized and opened. The number of patches is limited only by the storage capacity of the device running Molipe.;
#X text 322 145 <--------change this number to increase the number of loadable patches;
#X obj 442 488 r clock-to-hw-device-nr;
#X obj 427 507 f;
#X obj 427 526 s clock-to-hw-device-nr;
#X text 583 506 <-- resends midi clock device settings at startup of patch;
#X obj -62 309 s patch-nr;
#X obj 223 64 + 1;
#X obj 291 55 - 1;
#X obj -64 358 s patch-nr-loaded;
#X text 9 308 for gui status of patches;
#X text 51 359 for gui status of patch that is loaded;
#N canvas 266 173 1174 614 module-settings 0;
#X text 279 32 This textfile contains all necessery names of the module and the names of the gui (faders etc.). This way its much easier to change the names of all elements simply by editing the text object.;
#X text 280 87 The Order of the file \; Modul-Name \; Name Param1 \; Name Param2 \; Name Param3 \; ....;
#X obj 42 37 text define -k \$0-modul-settings;
#A set MENU \; LLALA: \; CHOOSE \; PATCH \; AND \; LOAD \; CURRENT: \; CHOOSE: \; - \; LOAD<- \;;
#X restore 719 146 pd module-settings;
#N canvas 46 141 1372 580 encoder 0;
#X obj 53 80 push-encoder-reader;
#X obj 298 75 push-encoder-reader;
#X obj 536 77 push-encoder-reader;
#X obj 781 72 push-encoder-reader;
#X obj 56 241 push-encoder-reader;
#X obj 301 236 push-encoder-reader;
#X obj 539 238 push-encoder-reader;
#X text 37 -47 Encoder to volume (submenu1);
#X obj 164 58 r \$0-param-1-s;
#X obj 54 106 s \$0-param-1-r;
#X obj 409 53 r \$0-param-3-s;
#X obj 299 101 s \$0-param-3-r;
#X obj 647 55 r \$0-param-5-s;
#X obj 537 103 s \$0-param-5-r;
#X obj 892 50 r \$0-param-7-s;
#X obj 782 98 s \$0-param-7-r;
#X obj 167 219 r \$0-param-9-s;
#X obj 57 267 s \$0-param-9-r;
#X obj 412 214 r \$0-param-11-s;
#X obj 302 262 s \$0-param-11-r;
#X obj 650 216 r \$0-param-13-s;
#X obj 540 264 s \$0-param-13-r;
#X obj 86 6 r \$0-modul-active;
#X obj 53 25 spigot;
#X obj 331 -3 r \$0-modul-active;
#X obj 298 16 spigot;
#X obj 569 0 r \$0-modul-active;
#X obj 536 19 spigot;
#X obj 814 -2 r \$0-modul-active;
#X obj 781 17 spigot;
#X obj 90 180 r \$0-modul-active;
#X obj 57 199 spigot;
#X obj 334 176 r \$0-modul-active;
#X obj 301 195 spigot;
#X obj 572 180 r \$0-modul-active;
#X obj 539 199 spigot;
#X obj 53 -14 r enc1;
#X obj 298 -21 r enc2;
#X obj 536 -21 r enc3;
#X obj 781 -21 r enc4;
#X obj 57 160 r enc5;
#X obj 301 155 r enc6;
#X obj 539 158 r enc7;
#X obj 781 164 r enc8;
#X connect 0 0 9 0;
#X connect 1 0 11 0;
#X connect 2 0 13 0;
#X connect 3 0 15 0;
#X connect 4 0 17 0;
#X connect 5 0 19 0;
#X connect 6 0 21 0;
#X connect 8 0 0 1;
#X connect 10 0 1 1;
#X connect 12 0 2 1;
#X connect 14 0 3 1;
#X connect 16 0 4 1;
#X connect 18 0 5 1;
#X connect 20 0 6 1;
#X connect 22 0 23 1;
#X connect 23 0 0 0;
#X connect 24 0 25 1;
#X connect 25 0 1 0;
#X connect 26 0 27 1;
#X connect 27 0 2 0;
#X connect 28 0 29 1;
#X connect 29 0 3 0;
#X connect 30 0 31 1;
#X connect 31 0 4 0;
#X connect 32 0 33 1;
#X connect 33 0 5 0;
#X connect 34 0 35 1;
#X connect 35 0 6 0;
#X connect 36 0 23 0;
#X connect 37 0 25 0;
#X connect 38 0 27 0;
#X connect 39 0 29 0;
#X connect 40 0 31 0;
#X connect 41 0 33 0;
#X connect 42 0 35 0;
#X restore 719 110 pd encoder;
#N canvas 63 88 450 300 options 0;
#X obj 15 70 hradio 16 1 0 8 \$0-main-menu-s \$0-main-menu-r Main-Menu 0 -8 0 10 #fcfcfc #000000 #000000 0;
#X obj 15 110 hradio 16 1 0 8 \$0-sub-menu-s \$0-sub-menu-r Sub-Menu 0 -8 0 10 #fcfcfc #000000 #000000 0;
#X obj 15 150 hradio 16 1 0 8 \$0-sub2-menu-s \$0-sub2-menu-r Sub2-Menu 0 -8 0 10 #fcfcfc #000000 #000000 0;
#X obj 134 5 loadbang;
#X msg 134 26 2;
#X msg 191 73 0;
#X connect 3 0 4 0;
#X connect 3 0 5 0;
#X connect 4 0 0 0;
#X connect 5 0 1 0;
#X connect 5 0 2 0;
#X restore 861 93 pd options;
#N canvas 11 84 729 487 main-menu 0;
#X obj 243 98 s \$0-sm1;
#X obj 182 51 r \$0-main-menu-s;
#X obj 215 75 r \$0-sub-menu-s;
#X obj 250 115 r \$0-sub2-menu-s;
#X obj 165 148 r all-menu;
#X obj 165 169 unpack f f f;
#X obj 165 195 ==;
#X obj 199 195 ==;
#X obj 235 189 ==;
#X floatatom 165 222 5 0 0 0 - - - 0;
#X floatatom 199 222 5 0 0 0 - - - 0;
#X floatatom 235 223 5 0 0 0 - - - 0;
#X obj 165 247 +;
#X obj 165 271 +;
#X obj 235 242 t b f;
#X obj 199 243 t b f;
#X obj 165 312 sel 3;
#X msg 165 365 1;
#X msg 195 364 0;
#X obj 166 395 tgl 16 0 empty empty empty 0 -8 0 10 #fcfcfc #000000 #000000 0 1;
#X obj 166 419 s \$0-modul-active;
#X text 353 116 The Submenu2 number of the module;
#X text 317 75 The Submenu number of the module;
#X text 294 51 the mainmenu number of the module;
#X obj 182 72 + 1;
#X obj 215 96 + 1;
#X obj 250 136 + 1;
#X obj 455 402 s \$0-main-menu-active;
#X msg 454 347 1;
#X msg 484 346 0;
#X obj 455 377 tgl 16 0 empty empty empty 0 -8 0 10 #fcfcfc #000000 #000000 0 1;
#X obj 454 294 sel 1;
#X msg 314 348 1;
#X msg 344 347 0;
#X obj 315 378 tgl 16 0 empty empty empty 0 -8 0 10 #fcfcfc #000000 #000000 0 1;
#X obj 315 403 s \$0-sub-menu-active;
#X obj 314 295 sel 2;
#X obj 165 292 change;
#X obj 314 276 change;
#X obj 454 275 change;
#X connect 1 0 24 0;
#X connect 2 0 25 0;
#X connect 3 0 26 0;
#X connect 4 0 5 0;
#X connect 5 0 6 0;
#X connect 5 1 7 0;
#X connect 5 2 8 0;
#X connect 6 0 9 0;
#X connect 6 0 39 0;
#X connect 7 0 10 0;
#X connect 8 0 11 0;
#X connect 9 0 12 0;
#X connect 10 0 15 0;
#X connect 11 0 14 0;
#X connect 12 0 13 0;
#X connect 12 0 38 0;
#X connect 13 0 37 0;
#X connect 14 0 13 0;
#X connect 14 1 13 1;
#X connect 15 1 12 1;
#X connect 16 0 17 0;
#X connect 16 1 18 0;
#X connect 17 0 19 0;
#X connect 18 0 19 0;
#X connect 19 0 20 0;
#X connect 24 0 6 1;
#X connect 25 0 7 1;
#X connect 26 0 8 1;
#X connect 28 0 30 0;
#X connect 29 0 30 0;
#X connect 30 0 27 0;
#X connect 31 0 28 0;
#X connect 31 1 29 0;
#X connect 32 0 34 0;
#X connect 33 0 34 0;
#X connect 34 0 35 0;
#X connect 36 0 32 0;
#X connect 36 1 33 0;
#X connect 37 0 16 0;
#X connect 38 0 36 0;
#X connect 39 0 31 0;
#X restore 719 128 pd main-menu;
#X connect 0 0 2 0;
#X connect 1 0 0 0;
#X connect 2 0 3 0;
#X connect 3 0 10 0;
#X connect 4 0 5 0;
#X connect 4 0 26 0;
#X connect 7 0 2 1;
#X connect 8 0 13 0;
#X connect 8 0 39 0;
#X connect 9 0 8 0;
#X connect 10 0 4 0;
#X connect 13 0 14 0;
#X connect 13 1 1 0;
#X connect 13 2 7 0;
#X connect 13 3 6 0;
#X connect 14 0 10 0;
#X connect 15 0 37 0;
#X connect 16 0 9 0;
#X connect 16 1 15 0;
#X connect 19 0 20 0;
#X connect 20 0 37 0;
#X connect 21 0 19 0;
#X connect 22 0 21 0;
#X connect 23 0 16 0;
#X connect 24 0 36 0;
#X connect 24 0 8 1;
#X connect 24 0 38 0;
#X connect 26 0 27 0;
#X connect 27 0 29 0;
#X connect 27 0 33 0;
#X connect 29 0 28 0;
#X connect 32 0 33 1;
#X connect 33 0 34 0;
#X connect 37 0 24 0;
#X connect 38 0 18 0;
#X connect 38 0 17 0;
#X coords 0 -1 1 1 200 120 1 100 100;
#X restore 201 190 pd patchloader;
#N canvas 0 25 1440 847 network-communicator 0;
#X obj 104 103 cnv 5 5 5 empty empty DISPLAY-COMMUNICATOR: 0 12 0 10 #fcfcfc #404040 0;
#X msg 410 138 connect localhost 9001;
#X obj 410 198 netsend -u;
#X obj 410 95 loadbang;
#X obj 421 163 r display-message;
#X obj 596 32 s display-message;
#X obj 411 278 r all-menu;
#X obj 411 341 unpack f f;
#X floatatom 411 362 5 0 0 0 - - - 0;
#X floatatom 468 362 5 0 0 0 - - - 0;
#X obj 461 527 s display-message;
#X obj 461 442 sel 1;
#X obj 669 530 s display-message;
#X obj 669 445 sel 2;
#X obj 889 523 s display-message;
#X obj 889 438 sel 3;
#X obj 1091 520 s display-message;
#X obj 1091 435 sel 4;
#X obj 596 -6 r patch-nr-loaded;
#X obj 361 519 route 1;
#X obj 367 660 s display-message;
#X obj 367 575 sel 1;
#X obj 361 540 unpack f;
#X floatatom 298 583 5 0 0 0 - - - 0;
#X obj 580 660 s display-message;
#X obj 580 575 sel 2;
#X obj 797 660 s display-message;
#X obj 1010 660 s display-message;
#X obj 797 575 sel 3;
#X obj 1010 575 sel 4;
#X msg 377 619 0 10 #383838 #000000 center SRCE;
#X msg 367 639 0 10 #ffffff #000000 center SRCE;
#X msg 590 619 1 10 #383838 #000000 center LFO1;
#X msg 580 640 1 10 #ffffff #000000 center LFO1;
#X msg 470 486 0 9 #ffffff #000000 center KICK;
#X msg 461 506 0 9 #000000 #ffffff center KICK;
#X msg 679 489 1 9 #ffffff #000000 center SNRE;
#X msg 669 509 1 9 #000000 #ffffff center SNRE;
#X obj 913 40 s display-message;
#X obj 913 -2 r patch-nr-loaded;
#X obj 1527 26 s display-message;
#X obj 1223 35 s display-message;
#X obj 1223 -13 r patch-nr-loaded;
#X msg 596 13 0 0 #5f503e #000000 center PATCH:\$1;
#X msg 913 17 1 0 #5f503e #000000 center BPM:120;
#X msg 1223 6 2 0 #5f503e #000000 center SCENE:1(GUI) 1<>2;
#X msg 899 482 2 9 #ffffff #000000 center HAT;
#X msg 889 502 2 9 #000000 #ffffff center HAT;
#X msg 807 619 2 10 #383838 #000000 center LFO2;
#X msg 797 639 2 10 #ffffff #000000 center LFO2;
#X msg 1101 480 3 9 #ffffff #000000 center CMBL;
#X msg 1091 499 3 9 #000000 #ffffff center CMBL;
#X msg 1020 619 3 10 #383838 #000000 center EFX1;
#X msg 1010 640 3 10 #ffffff #000000 center EFX1;
#N canvas 63 88 1263 654 knobs-preset 0;
#X obj 812 179 pack f f;
#X floatatom 812 133 5 0 0 0 - - - 0;
#X floatatom 851 135 5 0 0 0 - - - 0;
#X obj 851 153 t b f;
#X msg 811 198 send RINGVAL 3 1 \$1 \$2;
#X msg 811 236 3 3 #736b1e #000000 center mod*LFO;
#X msg 811 218 3 2 #736b1e #000000 center FREQ;
#X obj 576 181 pack f f;
#X floatatom 576 128 5 0 0 0 - - - 0;
#X floatatom 612 130 5 0 0 0 - - - 0;
#X obj 615 155 t b f;
#X msg 576 200 send RINGVAL 2 1 \$1 \$2;
#X msg 577 219 2 2 #bf1b1b #000000 center FREQ;
#X msg 577 238 2 3 #bf1b1b #000000 center mod*LFO;
#X obj 343 176 pack f f;
#X floatatom 343 123 5 0 0 0 - - - 0;
#X floatatom 379 125 5 0 0 0 - - - 0;
#X obj 382 150 t b f;
#X msg 343 197 send RINGVAL 1 1 \$1 \$2;
#X msg 343 218 1 2 #ed3f1c #000000 center FREQ;
#X msg 343 238 1 3 #912610 #000000 center mod*LFO;
#X obj 113 177 pack f f;
#X floatatom 113 124 5 0 0 0 - - - 0;
#X floatatom 149 126 5 0 0 0 - - - 0;
#X obj 152 151 t b f;
#X msg 113 218 0 2 #ed8008 #000000 center FREQ;
#X msg 113 238 0 3 #912610 #000000 center mod*LFO;
#X msg 113 198 send RINGVAL 0 1 \$1 \$2;
#X obj 807 363 pack f f;
#X floatatom 807 310 5 0 0 0 - - - 0;
#X floatatom 843 312 5 0 0 0 - - - 0;
#X obj 846 337 t b f;
#X obj 577 363 pack f f;
#X floatatom 577 310 5 0 0 0 - - - 0;
#X floatatom 613 312 5 0 0 0 - - - 0;
#X obj 616 337 t b f;
#X obj 344 360 pack f f;
#X floatatom 344 307 5 0 0 0 - - - 0;
#X floatatom 380 309 5 0 0 0 - - - 0;
#X obj 383 334 t b f;
#X obj 115 359 pack f f;
#X floatatom 115 306 5 0 0 0 - - - 0;
#X floatatom 154 314 5 0 0 0 - - - 0;
#X obj 154 333 t b f;
#X msg 807 403 3 6 #d9c3b0 #000000 center FREQ;
#X msg 807 422 3 7 #d9c3b0 #000000 center mod*LFO;
#X msg 807 384 send RINGVAL 3 5 \$1 \$2;
#X msg 577 402 2 6 #bfa07a #000000 center FREQ;
#X msg 577 421 2 7 #bfa07a #000000 center mod*LFO;
#X msg 577 384 send RINGVAL 2 5 \$1 \$2;
#X msg 344 401 1 6 #3b4b59 #000000 center FREQ;
#X msg 344 420 1 7 #3b4b59 #000000 center mod*LFO;
#X msg 344 381 send RINGVAL 1 5 \$1 \$2;
#X msg 115 399 0 6 #cc6324 #000000 center FREQ;
#X msg 115 418 0 7 #cc6324 #000000 center mod*LFO;
#X msg 115 380 send RINGVAL 0 5 \$1 \$2;
#X text 115 98 PARA1;
#X text 341 97 PARA2;
#X text 574 105 PARA3;
#X text 810 107 PARA4;
#X text 113 283 PARA5;
#X text 343 283 PARA6;
#X text 576 288 PARA7;
#X text 804 291 PARA8;
#X connect 0 0 4 0;
#X connect 1 0 0 0;
#X connect 2 0 3 0;
#X connect 3 0 0 0;
#X connect 3 1 0 1;
#X connect 7 0 11 0;
#X connect 8 0 7 0;
#X connect 9 0 10 0;
#X connect 10 0 7 0;
#X connect 10 1 7 1;
#X connect 14 0 18 0;
#X connect 15 0 14 0;
#X connect 16 0 17 0;
#X connect 17 0 14 0;
#X connect 17 1 14 1;
#X connect 21 0 27 0;
#X connect 22 0 21 0;
#X connect 23 0 24 0;
#X connect 24 0 21 0;
#X connect 24 1 21 1;
#X connect 28 0 46 0;
#X connect 29 0 28 0;
#X connect 30 0 31 0;
#X connect 31 0 28 0;
#X connect 31 1 28 1;
#X connect 32 0 49 0;
#X connect 33 0 32 0;
#X connect 34 0 35 0;
#X connect 35 0 32 0;
#X connect 35 1 32 1;
#X connect 36 0 52 0;
#X connect 37 0 36 0;
#X connect 38 0 39 0;
#X connect 39 0 36 0;
#X connect 39 1 36 1;
#X connect 40 0 55 0;
#X connect 41 0 40 0;
#X connect 42 0 43 0;
#X connect 43 0 40 0;
#X connect 43 1 40 1;
#X restore 410 229 pd knobs-preset;
#X text 591 -36 cell1;
#X text 907 -30 cell2;
#X text 1220 -38 cell3;
#X text 1523 -36 cell4;
#X msg 1527 8 3 0 #5f503e #000000 center CPU:\$1%;
#X obj 1527 -11 r CPU;
#N canvas 63 88 1322 357 set-rings 0;
#X msg 976 120 send RING 3 1 #e3e3e3 #736b1e #000000 250 20 45;
#X obj 672 144 s display-message;
#X msg 672 124 send RING 2 1 #e3e3e3 #bf1b1b #000000 250 20 45;
#X obj 364 148 s display-message;
#X msg 364 128 send RING 1 1 #e3e3e3 #ed3f1c #000000 250 20 45;
#X obj 39 159 s display-message;
#X msg 39 140 send RING 0 1 #e3e3e3 #ed8008 #000000 250 20 45;
#X obj 976 141 s display-message;
#X obj 673 249 s display-message;
#X obj 366 251 s display-message;
#X obj 38 263 s display-message;
#X obj 974 251 s display-message;
#X msg 974 233 send RING 3 5 #e3e3e3 #d9c3b0 #000000 250 20 45;
#X msg 673 230 send RING 2 5 #e3e3e3 #bfa07a #000000 250 20 45;
#X msg 366 232 send RING 1 5 #e3e3e3 #3b4b59 #000000 250 20 45;
#X msg 38 243 send RING 0 5 #e3e3e3 #cc6324 #000000 250 20 45;
#X obj 39 112 del 50;
#X obj 364 107 del 50;
#X obj 672 104 del 50;
#X obj 976 100 del 50;
#X connect 0 0 7 0;
#X connect 2 0 1 0;
#X connect 4 0 3 0;
#X connect 6 0 5 0;
#X connect 12 0 11 0;
#X connect 13 0 8 0;
#X connect 14 0 9 0;
#X connect 15 0 10 0;
#X connect 16 0 6 0;
#X connect 17 0 4 0;
#X connect 18 0 2 0;
#X connect 19 0 0 0;
#X restore 621 282 pd set-rings;
#X obj 411 320 route 1;
#X connect 1 0 2 0;
#X connect 3 0 1 0;
#X connect 4 0 2 0;
#X connect 6 0 62 0;
#X connect 7 0 8 0;
#X connect 7 1 9 0;
#X connect 8 0 11 0;
#X connect 8 0 13 0;
#X connect 8 0 15 0;
#X connect 8 0 17 0;
#X connect 11 0 35 0;
#X connect 11 1 34 0;
#X connect 13 0 37 0;
#X connect 13 1 36 0;
#X connect 15 0 47 0;
#X connect 15 1 46 0;
#X connect 17 0 51 0;
#X connect 17 1 50 0;
#X connect 18 0 43 0;
#X connect 19 0 22 0;
#X connect 21 0 31 0;
#X connect 21 1 30 0;
#X connect 22 0 23 0;
#X connect 22 0 21 0;
#X connect 22 0 25 0;
#X connect 22 0 28 0;
#X connect 22 0 29 0;
#X connect 25 0 33 0;
#X connect 25 1 32 0;
#X connect 28 0 49 0;
#X connect 28 1 48 0;
#X connect 29 0 53 0;
#X connect 29 1 52 0;
#X connect 30 0 20 0;
#X connect 31 0 20 0;
#X connect 32 0 24 0;
#X connect 33 0 24 0;
#X connect 34 0 10 0;
#X connect 35 0 10 0;
#X connect 36 0 12 0;
#X connect 37 0 12 0;
#X connect 39 0 44 0;
#X connect 42 0 45 0;
#X connect 43 0 5 0;
#X connect 46 0 14 0;
#X connect 47 0 14 0;
#X connect 48 0 26 0;
#X connect 49 0 26 0;
#X connect 50 0 16 0;
#X connect 51 0 16 0;
#X connect 52 0 27 0;
#X connect 53 0 27 0;
#X connect 59 0 40 0;
#X connect 60 0 59 0;
#X connect 62 0 7 0;
#X connect 62 0 19 0;
#X coords 0 -1 1 1 280 120 2 100 100;
#X restore 407 190 pd network-communicator;
#X obj 201 8 cnv 5 5 5 empty empty >>>KEEP\ THIS\ PATCH\ OPEN!<<< 0 12 0 25 #ffffff #ff0400 0;
#X text 199 103 THIS PATCH:;
#X obj 201 314 push-mk1;
#N canvas 63 88 1310 567 audio-to-hw 0;
#X obj 463 91 catch~ hw1;
#X obj 463 414 dac~ 1 2 3 4 5 6 7 8, f 46;
#X obj 502 111 catch~ hw2;
#X obj 542 130 catch~ hw3;
#X obj 582 149 catch~ hw4;
#X obj 613 168 catch~ hw5;
#X obj 653 187 catch~ hw6;
#X obj 694 208 catch~ hw7;
#X obj 734 227 catch~ hw8;
#X obj 463 387 *~;
#X obj 287 115 vradio 15 1 0 2 empty empty empty 0 -8 0 10 #fcfcfc #000000 #000000 0;
#X obj 346 229 line~;
#X msg 345 193 \$1 5;
#X obj 307 122 cnv 5 5 5 empty empty STEREO-OUT 0 0 0 8 #fcfcfc #000000 0;
#X obj 307 137 cnv 5 5 5 empty empty MULTIPLE\ OUT 0 0 0 8 #fcfcfc #000000 0;
#X obj 502 389 *~;
#X obj 543 387 *~;
#X obj 582 389 *~;
#X obj 615 387 *~;
#X obj 654 389 *~;
#X obj 695 387 *~;
#X obj 734 389 *~;
#X obj 893 469 dac~ 1 2;
#X obj 986 328 line~;
#X msg 985 292 \$1 5;
#X obj 894 409 *~;
#X obj 938 408 *~;
#X obj 971 199 sel 0 1;
#X msg 971 220 1;
#X msg 1002 220 0;
#X obj 889 152 catch~ stereo1;
#X obj 939 121 catch~ stereo2;
#X obj 109 105 cnv 5 5 5 empty empty HARDWARE-AUDIO-SETTINGS: 0 12 0 10 #fcfcfc #404040 0;
#X floatatom 141 68 5 0 0 0 - - - 0;
#X msg 141 32 0, f 6;
#X obj 141 14 loadbang;
#X obj 141 50 text get hw-audio-status;
#X obj 109 169 text set hw-audio-status;
#X obj 109 187 text define -k hw-audio-status;
#A set 0 \;;
#X connect 0 0 9 0;
#X connect 2 0 15 0;
#X connect 3 0 16 0;
#X connect 4 0 17 0;
#X connect 5 0 18 0;
#X connect 6 0 19 0;
#X connect 7 0 20 0;
#X connect 8 0 21 0;
#X connect 9 0 1 0;
#X connect 10 0 12 0;
#X connect 10 0 27 0;
#X connect 10 0 37 0;
#X connect 11 0 9 1;
#X connect 11 0 15 1;
#X connect 11 0 16 1;
#X connect 11 0 17 1;
#X connect 11 0 18 1;
#X connect 11 0 19 1;
#X connect 11 0 20 1;
#X connect 11 0 21 1;
#X connect 12 0 11 0;
#X connect 15 0 1 1;
#X connect 16 0 1 2;
#X connect 17 0 1 3;
#X connect 18 0 1 4;
#X connect 19 0 1 5;
#X connect 20 0 1 6;
#X connect 21 0 1 7;
#X connect 23 0 25 1;
#X connect 23 0 26 1;
#X connect 24 0 23 0;
#X connect 25 0 22 0;
#X connect 26 0 22 1;
#X connect 27 0 28 0;
#X connect 27 1 29 0;
#X connect 28 0 24 0;
#X connect 29 0 24 0;
#X connect 30 0 25 0;
#X connect 31 0 26 0;
#X connect 33 0 10 0;
#X connect 34 0 36 0;
#X connect 35 0 34 0;
#X connect 36 0 33 0;
#X coords 0 -1 1 1 280 60 1 100 100;
#X restore 407 317 pd audio-to-hw;
#X text 200 51 MOLIPE is a collection of patches that can be combined like a modular synth. It is based on the incredible AUTOMATISM MODULAR but also has some significant differences.;
#X text 199 122 1 Opens and closes performance patches \; 2 Loads and keeps the sample library \; 3 Establishes sync over network (not yet) \; 4 Sends audio to hardware \; 5 Manages modes of the Midi Controller (Push MK1);
#N canvas 63 88 1310 567 MIDI-to-hw 0;
#X obj 109 135 cnv 5 5 5 empty empty MIDI-CLOCK-DEVICE: 0 0 0 8 #fcfcfc #000000 0;
#X obj 109 105 cnv 5 5 5 empty empty HARDWARE-MIDIO-SETTINGS: 0 12 0 10 #fcfcfc #404040 0;
#X floatatom 141 68 5 0 0 0 - - - 0;
#X msg 141 32 0, f 6;
#X obj 141 14 loadbang;
#X obj 109 237 text define -k hw-midi-status;
#A set 1 \;;
#X obj 109 219 text set hw-midi-status;
#X obj 141 50 text get hw-midi-status;
#X obj 204 130 hradio 16 1 0 8 empty empty empty 0 -8 0 10 #fcfcfc #000000 #000000 0;
#X obj 307 217 + 1;
#X obj 307 236 s clock-to-hw-device-nr;
#X connect 2 0 8 0;
#X connect 3 0 7 0;
#X connect 4 0 3 0;
#X connect 7 0 2 0;
#X connect 8 0 6 0;
#X connect 8 0 9 0;
#X connect 9 0 10 0;
#X coords 0 -1 1 1 280 60 2 100 100;
#X restore 407 385 pd MIDI-to-hw;
