#N canvas 0 25 1440 847 10;
#X declare -path ../../patch_editor_abs/drums/simple-hats;
#X declare -path ../../000-SAMPLE-LIBRARY;
#X declare -path ../../patch_editor_abs;
#X declare -path ../../patch_editor_abs/controller;
#X declare -path ../../patch_editor_abs/test;
#X declare -path ../../patch_editor_abs/airwindows;
#X declare -path ../../patch_editor_abs/drums;
#X declare -path ../../patch_editor_abs/drums/cmbcym;
#X declare -path ../../patch_editor_abs/drums/fmperc;
#X declare -path ../../patch_editor_abs/mixer;
#X declare -path ../../patch_editor_abs/sequencers;
#X declare -path ../../patch_editor_abs/sequencers/rhythm-designer;
#X declare -path ../../patch_editor_abs/sequencers/mono-rhythm;
#X declare -path ../../patch_editor_abs/effects;
#X declare -path ../../patch_editor_abs/effects/delay;
#X declare -path ../../patch_editor_abs/utility/scene-conductor;
#X declare -path ../../patch_editor_abs/filters;
#X declare -path ../../patch_editor_abs/reverbs;
#X declare -path ../../patch_editor_abs/modifier;
#X declare -path ../../patch_editor_abs/looper;
#X declare -path ../../patch_editor_abs/shared-objects;
#X declare -path ../../patch_editor_abs/core;
#X declare -path ../../patch_editor_abs/utility;
#X obj 1570 1175 catch~ send1;
#X obj 1567 876 catch~ send2;
#X obj 4 372 mute-group 1;
#X obj 4 427 repeater-group 1;
#N canvas 279 183 979 649 do-not-delete 0;
#X obj 484 291 pdcontrol;
#X msg 484 273 dir;
#X obj 484 311 pack s;
#X obj 484 330 s patch-path;
#X obj 484 234 r update-path;
#X obj 542 271 loadbang;
#X obj 316 128 cnv 5 5 5 empty empty //////\ DO_NOT_DELETE\ ///////// 0 0 0 12 #fcfcfc #404040 0;
#X obj 105 120 cnv 5 5 5 empty empty MOLIPE_01 0 0 0 38 #fcfcfc #404040 0;
#X obj 316 112 cnv 5 5 5 empty empty /////////////// 0 0 0 12 #fcfcfc #404040 0;
#X obj 110 348 declare -path ../../patch_editor_abs/drums/simple-hats;
#X obj 100 232 declare -path ../../000-SAMPLE-LIBRARY;
#X obj 100 251 declare -path ../../patch_editor_abs;
#X obj 100 270 declare -path ../../patch_editor_abs/controller;
#X obj 100 289 declare -path ../../patch_editor_abs/test;
#X obj 100 308 declare -path ../../patch_editor_abs/airwindows;
#X obj 100 327 declare -path ../../patch_editor_abs/drums;
#X obj 110 368 declare -path ../../patch_editor_abs/drums/cmbcym;
#X obj 110 388 declare -path ../../patch_editor_abs/drums/fmperc;
#X obj 100 408 declare -path ../../patch_editor_abs/mixer;
#X obj 100 428 declare -path ../../patch_editor_abs/sequencers;
#X obj 110 448 declare -path ../../patch_editor_abs/sequencers/rhythm-designer, f 69;
#X obj 110 468 declare -path ../../patch_editor_abs/sequencers/mono-rhythm;
#X obj 100 488 declare -path ../../patch_editor_abs/effects;
#X obj 110 508 declare -path ../../patch_editor_abs/effects/delay;
#X obj 110 548 declare -path ../../patch_editor_abs/utility/scene-conductor;
#X obj 100 568 declare -path ../../patch_editor_abs/filters;
#X obj 100 588 declare -path ../../patch_editor_abs/reverbs;
#X obj 100 608 declare -path ../../patch_editor_abs/modifier;
#X obj 100 628 declare -path ../../patch_editor_abs/looper;
#X obj 100 648 declare -path ../../patch_editor_abs/shared-objects;
#X obj 100 668 declare -path ../../patch_editor_abs/core;
#X obj 100 528 declare -path ../../patch_editor_abs/utility;
#N canvas 0 25 1073 713 upper-left-menu+manual 0;
#X msg 36 85 \; pd-quick-guide vis \$1;
#X obj 36 41 r open-quick-guide!;
#X msg 36 63 1;
#N canvas 1 25 915 719 quick-guide 0;
#X obj 454 462 cnv 15 375 125 empty empty empty 20 12 0 14 #dc4c90 #404040 0;
#X obj 454 330 cnv 15 375 125 empty empty empty 20 12 0 14 #90d4b0 #404040 0;
#X obj 17 15 cnv 15 750 60 empty empty Welcome_to-Molipe 20 18 0 24 #90d4b0 #fcfcfc 0;
#X text 19 86 FOLLOW THESE SIMPLE STEPS TO GET STARTED:;
#X text 19 127 1 When starting the AUTOMATONISM you'll see a list of all current available modules to the right. Click the button to the left of the module you want to load and it will appear to the left in the parent window. The module list will then disappear. To call back the module list you can click the grey link in the upper left called "MODULES(esc) or simply upress "esc" on your keyboard;
#X text 19 216 2 Create a BASIC-OSC from the module list.;
#X text 20 312 4 Pure Data has an EDIT MODE and a PERFORMANCE MODE. To make patch connections between objects we need to be in EDIT MODE and to interact with the GUI we need to be in PERFORMANCE MODE. Toggle between the two modes with cmd+e.;
#X text 19 242 3 Open the module list and create the module in the lower right corner called MAESTRO4(dac~). This is the digital-to-analog-converter and is one of the modules that passes on sound to your speakers. Now you can soon make a sound.;
#X text 19 376 5 All inputs are at the top of the modules and all outputs are at the bottom. In EDIT MODE \, connect the BASIC-OSC's output CH1 on the MAESTRO4. Now \, you should have sound. Switch to PERFORMANCE MODE and use the mouse to move the PITCH slider on the BASIC-OSC module.;
#X text 20 449 6 Right click on any module and choose HELP to read more about a module's functions.;
#X text 454 115 7 To save parameter states on each module \, you have to save the pd file \, like you normally would do from the FILE menu or cmd+s \, and then click the grey SAVE! canvas in the left bottom corner(or simply press ENTER on your keyboard) and you'll see the canvas change color from grey to green for a brief moment. All parameter values are now written to textfiles and can be loaded to the equivalent module and instance number next time the patch is loaded.;
#X text 454 215 8 You can call modules without using the module list simply by creating a new object in pd and type the module's name. For the state saving mechanism to work properly you do need to give the module a unique numerical argument. Type "basic-osc 1" for an oscillator and "basic-osc 2" if you need another one. By using the MODULES list this unique numbering is done automatically for you. Use the RESET link in the upper left corner when starting a new patch as this will reset the counter of unique numbers for modules.;
#X text 457 333 9 IMPORTANT!!! In order for Automatonism to work properly \, each patch needs to contain the correct folder structure. A folder--that you can name freely--must contain the folder "patch_editor_abs" and the pd-file "main.pd". Copy the entire main parent folder to start a new project. Please do not add the abstractions to your PD Search path \, because the state svaing system will be writing textfiles in your external folders.;
#X text 455 464 ABOUT RESET BUTTON: Only use the RESET button when your canvas is empty. If you click it in the middle of a patch \, modules will start getting identical state saving numbers to already existing modules. In other words \, if you click it in the middle of a patch \, state saving WILL NOT WORK! The RESET button is there for when you start over \, and perhaps do not want to create "BASIC-OSC 99" \, but start from zero for a clearer view of the patch.;
#X text 34 52 RIGHT+CLICK & CHOOSE 'HELP' ON ANY MODULE!;
#X restore 36 18 pd quick-guide;
#X msg 38 178 1;
#X obj 38 156 r open-signal-flow!;
#X msg 38 203 \; pd-signal-flow vis \$1;
#N canvas 416 25 852 668 signal-flow 0;
#X obj 22 10 cnv 15 365 30 empty empty SIGNAL-FLOW 20 12 0 14 #dc4c90 #fcfcfc 0;
#X obj 26 161 hsl 128 15 0 127 0 0 empty empty empty -2 -8 0 10 #9898dc #fcfcfc #000000 0 1;
#X obj 24 214 hsl 128 15 0 127 0 0 empty empty empty -2 -8 0 10 #90d4b0 #000000 #000000 0 1;
#X obj 21 281 cnv 5 5 5 empty empty CLOCK-IN 0 0 0 8 #fcfcfc #dc4c90 0;
#X text 17 328 All inputs and outputs in the editor are at signal rate within the range of -1 to 1 In contrast to normal pd-programming there is no distinction between control rate and signal rate messages. Everything is converted to signal rate.;
#X msg 20 439 bang;
#X msg 20 461 1 0 \, 0 1 1;
#X obj 20 483 vline~;
#X msg 23 535 bang;
#X msg 23 557 1 0 \, 0 1 1;
#X obj 23 579 vline~;
#X msg 23 623 bang;
#X text 19 404 How to convert a simple bang to a trigger/gate signal in the patch editor:;
#X obj 23 601 threshold~ 0.99 0 1 0;
#X text 21 518 How to convert back to a control rate bang:;
#X obj 404 569 hsl 128 15 0 127 0 0 empty empty empty -2 -8 0 10 #fcfcfc #000000 #000000 0 1;
#X obj 401 589 / 127;
#X obj 401 611 sig~;
#X text 398 534 How convert control numbers to the patch editor's signal flow:;
#X text 541 568 0-127;
#X text 21 178 Purple sliders and inlets means the slider will function as an attenuator for incoming CV.;
#X text 21 48 There are three types of signals in the patch editor: audio \, cv and trigger/gate/pulse/clock. The latter are marked with PINK inlets and outlets. General rule in the patch editor is that all connections are possible. Or \, at least \, just like in any hardware modular system - all connections might not work but there's no harm in trying. ! ! The patch-editor uses color-coding to clarify the signal flow as much as possible.;
#X text 18 287 And pink inlets means the input is expecting a trigger/gate signal to function properly.;
#X text 19 230 Green sliders and inlets tells you that the parameter is bi-polar \, most oftenly working as an attenueverter for incoming CV.;
#X connect 5 0 6 0;
#X connect 6 0 7 0;
#X connect 8 0 9 0;
#X connect 9 0 10 0;
#X connect 10 0 13 0;
#X connect 13 0 11 0;
#X connect 15 0 16 0;
#X connect 16 0 17 0;
#X restore 39 134 pd signal-flow;
#X msg 36 288 1;
#N canvas 138 156 591 276 color-code 0;
#X obj 140 39 hsl 128 15 0 127 0 0 empty empty empty -2 -8 0 10 #9898dc #fcfcfc #000000 0 1;
#X obj 140 100 hsl 128 15 0 127 0 0 empty empty empty -2 -8 0 10 #90d4b0 #000000 #000000 0 1;
#X obj 137 175 cnv 5 5 5 empty empty CLOCK-IN 0 0 0 8 #fcfcfc #dc4c90 0;
#X text 134 56 Purple sliders and inlets means the slider will function as an attenuator for incoming CV.;
#X text 133 117 Green sliders and inlets tells you that the parameter is bi-polar \, most oftenly working as an attenueverter for incoming CV.;
#X text 135 181 And pink inlets means the input is expecting a trigger/gate signal or short impulse(square-wave) to function properly.;
#X restore 37 244 pd color-code;
#X obj 36 266 r open-color-code!;
#X msg 36 313 \; pd-color-code vis \$1;
#X msg 37 404 1;
#N canvas 7 25 355 439 manual 0;
#X obj 28 82 bng 30 250 50 0 open-signal-flow! empty empty 10 7 0 10 #9898dc #000000 #fcfcfc;
#X obj 49 82 bng 30 250 50 0 open-signal-flow! empty empty 17 7 0 10 #fcfcfc #000000 #000000;
#X obj 78 82 bng 30 250 50 0 open-signal-flow! empty empty 17 7 0 10 #fcfcfc #000000 #000000;
#X obj 109 82 bng 30 250 50 0 open-signal-flow! empty empty 17 7 0 10 #fcfcfc #000000 #000000;
#X obj 79 82 cnv 15 60 30 empty empty FLOW 6 12 0 14 #e0e0e0 #404040 0;
#X obj 18 82 cnv 15 60 30 empty empty SIGNAL 18 12 0 14 #e0e0e0 #404040 0;
#X obj 17 12 cnv 15 320 60 empty empty WELCOME-TO-THE-AUTOMATONISM-MANUAL! 20 12 0 14 #90d4b0 #fcfcfc 0;
#X obj 19 119 bng 30 250 50 0 open-color-code! empty empty 17 7 0 10 #fcfcfc #000000 #000000;
#X obj 49 119 bng 30 250 50 0 open-color-code! empty empty 17 7 0 10 #fcfcfc #000000 #000000;
#X obj 79 119 bng 30 250 50 0 open-color-code! empty empty 17 7 0 10 #fcfcfc #000000 #000000;
#X obj 109 119 bng 30 250 50 0 open-color-code! empty empty 17 7 0 10 #fcfcfc #000000 #000000;
#X obj 79 119 cnv 15 60 30 empty empty CODE 6 12 0 14 #e0e0e0 #404040 0;
#X obj 18 119 cnv 15 60 30 empty empty COLOR 18 12 0 14 #e0e0e0 #404040 0;
#X obj 19 196 bng 30 250 50 0 open-help-files! empty empty 17 7 0 10 #fcfcfc #000000 #000000;
#X obj 18 157 bng 30 250 50 0 open-state-saving! empty empty 17 7 0 10 #fcfcfc #000000 #000000;
#X obj 48 157 bng 30 250 50 0 open-state-saving! empty empty 17 7 0 10 #fcfcfc #000000 #000000;
#X obj 78 157 bng 30 250 50 0 open-state-saving! empty empty 17 7 0 10 #fcfcfc #000000 #000000;
#X obj 108 157 bng 30 250 50 0 open-state-saving! empty empty 17 7 0 10 #fcfcfc #000000 #000000;
#X obj 79 157 cnv 15 60 30 empty empty SAVING 6 12 0 14 #e0e0e0 #404040 0;
#X obj 18 157 cnv 15 60 30 empty empty STATE 18 12 0 14 #e0e0e0 #404040 0;
#X obj 49 196 bng 30 250 50 0 open-help-files! empty empty 17 7 0 10 #fcfcfc #000000 #000000;
#X obj 94 196 bng 30 250 50 0 open-help-files! empty empty 17 7 0 10 #fcfcfc #000000 #000000;
#X obj 109 196 bng 30 250 50 0 open-help-files! empty empty 17 7 0 10 #fcfcfc #000000 #000000;
#X obj 79 196 cnv 15 60 30 empty empty FILES 6 12 0 14 #e0e0e0 #404040 0;
#X obj 18 196 cnv 15 60 30 empty empty HELP 18 12 0 14 #e0e0e0 #404040 0;
#X obj 19 232 bng 30 250 50 0 open-folder-hierarchy! empty empty 17 7 0 10 #fcfcfc #000000 #000000;
#X obj 49 232 bng 30 250 50 0 open-folder-hierarchy! empty empty 17 7 0 10 #fcfcfc #000000 #000000;
#X obj 79 232 bng 30 250 50 0 open-folder-hierarchy! empty empty 17 7 0 10 #fcfcfc #000000 #000000;
#X obj 139 232 bng 30 250 50 0 open-folder-hierarchy! empty empty 17 7 0 10 #fcfcfc #000000 #000000;
#X obj 109 232 bng 30 250 50 0 open-folder-hierarchy! empty empty 17 7 0 10 #fcfcfc #000000 #000000;
#X obj 78 232 cnv 15 100 30 empty empty HIERARCHY 20 12 0 14 #e0e0e0 #404040 0;
#X obj 17 232 cnv 15 60 30 empty empty FOLDER 18 12 0 14 #e0e0e0 #404040 0;
#X obj 46 268 bng 30 250 50 0 open-feedback-loops! empty empty 17 7 0 10 #fcfcfc #000000 #000000;
#X obj 46 304 bng 30 250 50 0 open-license! empty empty 17 7 0 10 #fcfcfc #000000 #000000;
#X obj 16 268 bng 30 250 50 0 open-feedback-loops! empty empty 17 7 0 10 #fcfcfc #000000 #000000;
#X obj 106 268 bng 30 250 50 0 open-feedback-loops! empty empty 17 7 0 10 #fcfcfc #000000 #000000;
#X obj 76 268 bng 30 250 50 0 open-feedback-loops! empty empty 17 7 0 10 #fcfcfc #000000 #000000;
#X obj 166 268 bng 30 250 50 0 open-feedback-loops! empty empty 17 7 0 10 #fcfcfc #000000 #000000;
#X obj 136 268 bng 30 250 50 0 open-feedback-loops! empty empty 17 7 0 10 #fcfcfc #000000 #000000;
#X obj 16 268 cnv 15 180 30 empty empty FEEDBACK-&-DSP-LOOPS 18 12 0 14 #e0e0e0 #404040 0;
#X obj 16 304 bng 30 250 50 0 open-license! empty empty 17 7 0 10 #fcfcfc #000000 #000000;
#X obj 106 304 bng 30 250 50 0 open-license! empty empty 17 7 0 10 #fcfcfc #000000 #000000;
#X obj 76 304 bng 30 250 50 0 open-license! empty empty 17 7 0 10 #fcfcfc #000000 #000000;
#X obj 16 304 cnv 15 120 30 empty empty LICENSE 18 12 0 14 #e0e0e0 #404040 0;
#X obj 154 81 bng 30 250 50 0 open-external-msg! empty empty 10 7 0 10 #9898dc #000000 #fcfcfc;
#X obj 184 81 bng 30 250 50 0 open-external-msg! empty empty 17 7 0 10 #fcfcfc #000000 #000000;
#X obj 213 81 bng 30 250 50 0 open-external-msg! empty empty 17 7 0 10 #fcfcfc #000000 #000000;
#X obj 273 81 bng 30 250 50 0 open-external-msg! empty empty 17 7 0 10 #fcfcfc #000000 #000000;
#X obj 243 81 bng 30 250 50 0 open-external-msg! empty empty 17 7 0 10 #fcfcfc #000000 #000000;
#X obj 152 81 cnv 15 120 30 empty empty EXTERNAL 18 12 0 14 #e0e0e0 #404040 0;
#X obj 237 81 cnv 15 80 30 empty empty MESSAGES 6 12 0 14 #e0e0e0 #404040 0;
#X restore 37 358 pd manual;
#X msg 37 429 \; pd-manual vis \$1;
#X obj 37 382 r open-manual!;
#X msg 34 547 1;
#X obj 34 526 r open-state-saving!;
#X msg 34 571 \; pd-state-saving vis \$1;
#N canvas 236 34 420 357 state-saving 0;
#X obj 17 12 cnv 15 400 60 empty empty STATE_SAVING 20 12 0 14 #dc4c90 #fcfcfc 0;
#X text 20 82 The state saving system works by writing parameter values to textfiles in the folder "statesave" inside the "patch_editor_abs" folder. When you load a module form the module list it is automatically being given a unique creation argument which creates a textfile unique for that instance of the module. To save your patch \, simply save as you normally would from the FILE menu and the press ENTER on your keyboard or click the SAVE button in the upper left corner of the main window.;
#X text 20 216 IMPORTANT!!! To start a new project \, the entire folder structure needs to be copied since the abstractions and textfiles are unique to every project. Click the RESET button in the upper left corner to reset the counter that gives unique creation arguments for the modules.;
#X restore 35 504 pd state-saving;
#X msg 203 62 1;
#N canvas 23 25 438 191 help-files 0;
#X obj 17 12 cnv 15 400 60 empty empty HELP-FILES 20 12 0 14 #dc4c90 #fcfcfc 0;
#X text 20 84 Right + click on individual modules and choose "HELP" to access detailed help-files on each modules inlets \, outlets and functionalities.;
#X restore 203 15 pd help-files;
#X obj 203 36 r open-help-files!;
#X msg 203 88 \; pd-help-files vis \$1;
#X msg 204 173 1;
#N canvas 0 22 434 295 organelle-map 0;
#X obj 17 12 cnv 15 400 60 empty empty MAPPING-ORGANELLE-KNOBS/KEYS 20 12 0 14 #dc4c90 #fcfcfc 0;
#X text 20 84 There are specific modules for integrating the Organelle knobs and keyboard into your patches. Use "organelle-keyboard and "organelle-knobs" to connect the keyboard or knobs to parameter values in your patch. Remember that the parameter slider on the module acts as an offset when external cv is connected so set the slider to zero to access the entire range of the parameter with the organelle keyboard or knobs. See the"organelle-keyboard" and "organelle-knobs" help-files for more info. There are many ways to use PD with the Organelle. The "organelle-keyboard" and "organelle-knobs" modules use a simplistic approach. Use your own more elaborate pd-code for deeper control.;
#X restore 204 130 pd organelle-map;
#X obj 204 151 r open-organelle-map!;
#X msg 204 198 \; pd-organelle-map vis \$1;
#X msg 202 416 1;
#X obj 202 394 r open-folder-hierarchy!;
#N canvas 0 25 420 254 folder-hierarchy 0;
#X obj 17 12 cnv 15 400 60 empty empty FOLDER-HIEARCHY 20 12 0 14 #dc4c90 #fcfcfc 0;
#X text 20 84 Inside your project folder you'll find a file called "main.pd" and a folder called "patch_editor_abs". The "main.pd" must stay named the same for Automatonism to function properly. Also \, each of your projects/patches needs tp be in a separet folder with its own "main.pd" and "patch_editor_abs" folder. Copy & paste the project folder \, which you can give any name \, when you want to start a new project/patch.;
#X restore 203 371 pd folder-hierarchy;
#X msg 202 446 \; pd-folder-hierarchy vis \$1;
#X msg 198 543 1;
#N canvas 0 25 432 503 export-patches 0;
#X obj 17 12 cnv 15 400 60 empty empty EXPORT-PATCH 20 12 0 14 #e0e0e0 #404040 0;
#X text 20 84 So \, how do you export patces made in the editor to the Organelle?;
#X text 26 131 LOREM IPSUM.;
#X restore 199 498 pd export-patches;
#X obj 198 521 r open-export-patches!;
#X msg 198 572 \; pd-export-patches vis \$1;
#X msg 387 57 1;
#N canvas 445 294 435 328 tips-&-tricks 0;
#X obj 17 12 cnv 15 400 60 empty empty TIPS&TRICKS 20 12 0 14 #dc4c90 #fcfcfc 0;
#X text 20 110 Hide portions of a complex patch in a subpatch to gain more space.;
#X text 20 175 Don't forget to use utility modules;
#X text 20 201 Existing modular synthesis tutorials ond patches can be translated to the XOUDLAR playGROUND \; like nord modular patches \, sound on sound synthesis secrets \, allen strange's book \, make noise shared system patches \, buchla patches etc;
#X text 20 84 Useful tips and tricks:;
#X text 20 149 Use [switch~] in subpatches in large projects too free CPU;
#X text 20 266 If you want two same modules to share exact parameters copy&paste the module instead of loading a new from the module list.;
#X restore 389 12 pd tips-&-tricks;
#X obj 387 35 r open-tips-&-tricks!;
#X msg 387 88 \; pd-tips-&-tricks vis \$1;
#X msg 384 187 1;
#N canvas 0 25 432 503 advanced-pd-users 0;
#X obj 17 12 cnv 15 400 60 empty empty ADVANCED-PD-USERS 20 12 0 14 #e0e0e0 #404040 0;
#X text 20 84 Some useful information for advanced pd users who want to change \, interact or expand on the XODULAR PLAYGROUND code:;
#X text 21 141 LOREM IPSUM;
#X restore 386 142 pd advanced-pd-users;
#X obj 384 165 r open-advanced-pd-users!;
#X msg 384 218 \; pd-advanced-pd-users vis \$1;
#X msg 382 309 1;
#X obj 382 287 r open-make-your-own-module!;
#N canvas 498 100 673 716 make-your-own-module 0;
#X obj 17 12 cnv 15 400 60 empty empty MAKE-YOUR-OWN-MODULE 20 12 0 14 #dc4c90 #fcfcfc 0;
#X msg 24 128 bang;
#X msg 24 150 1 0 \, 0 1 1;
#X obj 24 172 vline~;
#X msg 23 222 bang;
#X msg 23 244 1 0 \, 0 1 1;
#X obj 23 266 vline~;
#X msg 23 310 bang;
#X text 23 93 How to convert a simple bang to a trigger/gate signal in the patch editor:;
#X obj 23 288 threshold~ 0.99 0 1 0;
#X text 21 205 How to convert back to a control rate bang:;
#X obj 28 389 hsl 128 15 0 127 0 0 empty empty empty -2 -8 0 10 #fcfcfc #000000 #000000 0 1;
#X obj 25 409 / 127;
#X obj 25 431 sig~;
#X text 22 354 How convert control numbers to the patch editor's signal flow:;
#X text 165 388 0-127;
#X text 21 509 GRAPH ON PARENT;
#X text 22 539 MODULE TITLE;
#X text 24 575 INLET/OUTLET LABELS;
#X text 33 614 STATE-SAVING;
#X text 20 477 CV INPUTS:;
#X connect 1 0 2 0;
#X connect 2 0 3 0;
#X connect 4 0 5 0;
#X connect 5 0 6 0;
#X connect 6 0 9 0;
#X connect 9 0 7 0;
#X connect 11 0 12 0;
#X connect 12 0 13 0;
#X restore 384 264 pd make-your-own-module;
#X msg 382 340 \; pd-make-your-own-module vis \$1;
#X msg 381 429 1;
#X obj 381 407 r open-feedback-loops!;
#N canvas 0 25 420 323 feedback-loops 0;
#X obj 17 12 cnv 15 400 60 empty empty FEEDBACK-&-DSP-LOOPS 20 12 0 14 #dc4c90 #fcfcfc 0;
#X text 23 83 Feedback patching is very much possible in the AUTOMATONISM \, just a little bit differently from physical modular systems. If you try to patch a module into itself or any kind of feedback routing \, Pure Data will become silent and you'll get a "DSP loop detected" message in the Pd window. To avoid this you need to delay the signal a tiny tiny bit. Normal [send~) and [receive~] objects automatically does this in Pd. Send the signal to be feedbacked into a [send~ MyFeedback] and pick it up using [receive~ MyFeedback] and then patch into the input to close the feedback loop. Obviously "MyFeedback" could be anything and the abbreviation for send and receive [s~] and [r~] work equally as well.;
#X restore 383 384 pd feedback-loops;
#X msg 381 460 \; pd-feedback-loops vis \$1;
#X msg 380 543 1;
#N canvas 0 25 439 625 license 0;
#X obj 17 12 cnv 15 400 60 empty empty LICENSE 20 12 0 14 #e0e0e0 #404040 0;
#X text 23 83 Copyright ©  2017 \, Johan Eriksson Automatonism is free software: you can redistribute it and/or modify it under the terms of the GNU General Public License as published by the Free Software Foundation \, either version 3 of the License \, or any later version. This program is distributed in the hope that it will be useful \, but WITHOUT ANY WARRANTY \; without even the implied warranty of MERCHANTABILITY or FITNESS FOR A PARTICULAR PURPOSE. See the GNU General Public License for more details.;
#X text 23 213 ADD ON: This is a modification of the fantastic Automatism modular synth. Its adds modules and a sample library. Its was made as a foundation of the live performances of the group "diet". For more information check: www.wueste.info;
#X restore 382 498 pd license;
#X obj 380 521 r open-license!;
#X msg 380 574 \; pd-license vis \$1;
#N canvas 293 25 419 217 reset-warning 0;
#X obj 21 143 bng 15 250 50 0 \$0-reset! empty <--RESET! 17 7 0 10 #fcfcfc #000000 #000000;
#X text 18 49 WARNING!;
#X text 19 68 Never press the RESET! button in the middle of working of a patch since it can cause the state saving mechanism to malfunction. Only use it when starting a new patch and you want the module counters to start over at zero. PRESS THE BUTTON BELOW TO RESET:;
#X restore 600 15 pd reset-warning;
#X msg 601 62 1;
#X obj 601 40 r open-reset-warning!;
#X msg 601 84 \; pd-reset-warning vis \$1;
#X obj 601 117 r \$0-reset!;
#X msg 601 193 \; pd-reset-warning vis 0;
#X obj 601 139 delay 500;
#X msg 604 289 1;
#N canvas 472 160 457 575 external-msg 0;
#X obj 17 12 cnv 15 400 60 empty empty EXTERNAL_MESSAGES 20 12 0 14 #dc4c90 #fcfcfc 0;
#X text 27 86 You can send external control messages into Automatonism modules since Automatonsim 3.0. This makes it easier to map midi controllers to specific parameters and integrate your patches with other Pure Data patches. External Messages routing in Automatonism works like this:;
#X obj 41 181 hsl 128 15 0 127 0 0 empty empty 0-127 -2 -8 0 10 #fcfcfc #000000 #000000 0 1;
#X floatatom 38 201 5 0 0 0 - - - 0;
#X msg 38 221 PITCH \$1 1;
#X obj 38 242 s basic-osc;
#X text 36 276 Send a value between 0-127;
#X text 38 395 To control the P-WIDTH slider of the BASIC-OSC with instance number 3 \, do this instead:;
#X obj 41 451 hsl 128 15 0 127 0 0 empty empty 0-127 -2 -8 0 10 #fcfcfc #000000 #000000 0 1;
#X floatatom 38 471 5 0 0 0 - - - 0;
#X msg 38 491 P-WIDTH \$1 3;
#X obj 38 512 s basic-osc;
#X text 37 296 Write a message where the first word is the name of the slider you are trying to externally control \, type "\$1" to pass on your value to the module and finally type the instance number of the specific module you want to control. The instance number is always showcased to the right of the module's title. Then create a send object and send to the name of the module \, for example [s basic-osc];
#X connect 2 0 3 0;
#X connect 3 0 4 0;
#X connect 4 0 5 0;
#X connect 8 0 9 0;
#X connect 9 0 10 0;
#X connect 10 0 11 0;
#X restore 606 244 pd external-msg;
#X obj 604 267 r open-external-msg!;
#X msg 604 320 \; pd-external-msg vis \$1;
#X msg 612 533 1;
#X text 611 465 DIET-Modification:;
#N canvas 535 199 672 298 sample-library 0;
#N canvas 0 25 1440 789 sample-editor 0;
#X obj 55 458 openpanel;
#X obj 55 494 soundfiler;
#X floatatom 55 512 31 0 0 0 - - - 0;
#X msg 55 476 read -resize \$1 sample-editor;
#N canvas 0 22 450 278 (subpatch) 0;
#X array sample-editor 4608 float 2;
#X coords 0 1 4608 -1 500 140 2 0 0;
#X restore 109 134 graph;
#X msg 55 587 \; sample-editor normalize;
#X obj 217 592 bng 16 250 50 0 empty empty Normalize 20 8 0 10 #fcfcfc #000000 #000000;
#X obj 109 349 bng 16 250 50 0 \$0-load-comp empty Load\ from\ Computer 20 8 0 10 #fcfcfc #000000 #000000;
#X msg 271 460 \; sample-editor edit 0;
#X obj 271 439 loadbang;
#X obj 691 753 text set library, f 22;
#X obj 975 218 text get library, f 22;
#X msg 734 735 1e+15;
#X floatatom 1104 240 5 0 0 0 - - - 0;
#X floatatom 1061 198 5 0 0 0 - - - 0;
#X obj 447 298 hradio 16 1 0 10 empty empty empty 0 -8 0 10 #fcfcfc #000000 #000000 0;
#X floatatom 575 283 5 0 0 0 - - - 0;
#X obj 450 515 soundfiler;
#X floatatom 450 533 31 0 0 0 - - - 0;
#X obj 450 453 f;
#X obj 866 495 soundfiler;
#X floatatom 866 513 31 0 0 0 - - - 0;
#X obj 866 440 f;
#X obj 691 717 pack s f;
#X obj 691 612 f;
#X floatatom 1062 258 5 0 0 0 - - - 0;
#X obj 975 240 unpack symbol f;
#X listbox 975 275 19 0 0 0 - - - 0;
#X obj 108 296 bng 16 250 50 0 reload-library empty Reload\ Library 20 8 0 10 #fcfcfc #000000 #000000;
#X obj 628 136 vradio 16 1 0 6 empty empty BANKS 0 -8 0 10 #fcfcfc #000000 #000000 0;
#X obj 648 144 cnv 5 5 5 empty empty KICK 0 0 0 8 #fcfcfc #000000 0;
#X obj 648 159 cnv 5 5 5 empty empty SNARE 0 0 0 8 #fcfcfc #000000 0;
#X obj 648 176 cnv 5 5 5 empty empty CLAP 0 0 0 8 #fcfcfc #000000 0;
#X obj 648 192 cnv 5 5 5 empty empty HAT 0 0 0 8 #fcfcfc #000000 0;
#X obj 648 208 cnv 5 5 5 empty empty SHAKER 0 0 0 8 #fcfcfc #000000 0;
#X obj 648 225 cnv 5 5 5 empty empty PERCS 0 0 0 8 #fcfcfc #000000 0;
#X obj 769 232 sel 0 1 2 3 4 5;
#X obj 450 472 pack f s;
#X msg 450 496 write sample-library/\$2\$1.wav sample-editor;
#X msg 769 261 symbol kick;
#X msg 784 279 symbol snare;
#X msg 797 299 symbol clap;
#X msg 812 317 symbol hat;
#X msg 824 336 symbol shaker;
#X msg 839 354 symbol percs;
#X msg 866 476 read -resize sample-library/\$2\$1.wav sample-editor;
#X obj 866 458 pack f s;
#X obj 443 342 cnv 16 300 30 empty empty empty 20 12 0 10 #ffcefa #404040 0;
#X obj 55 440 r \$0-load-comp;
#X obj 55 550 t b;
#X obj 55 568 del 5;
#X obj 62 531 s \$0-sample-length;
#X obj 736 698 r \$0-sample-length;
#X obj 866 541 s \$0-sample-length;
#X obj 691 593 r \$0-save-lib;
#X obj 450 434 r \$0-save-lib;
#X obj 866 421 r \$0-load-lib;
#X obj 605 348 bng 16 250 50 0 \$0-load-lib empty LOAD\ FROM\ LIBRARY 20 8 0 10 #fcfcfc #000000 #000000;
#X obj 454 349 bng 16 250 50 0 \$0-save-lib empty SAVE\ TO\ LIBRARY 20 8 0 10 #fcfcfc #000000 #000000;
#X obj 769 383 s \$0-banks;
#X obj 495 453 r \$0-banks;
#X obj 911 440 r \$0-banks;
#X obj 820 735 r \$0-banks;
#X obj 357 647 tabplay~ sample-editor;
#X obj 259 349 bng 16 250 50 0 \$0-play empty Play 20 8 0 10 #fcfcfc #000000 #000000;
#X obj 357 626 r \$0-play;
#X obj 357 669 dac~;
#X obj 1007 575 ==;
#X msg 1027 557 0;
#X obj 988 539 t b f b;
#X obj 1007 611 sel 1;
#X obj 1007 593 tgl 16 0 empty empty empty 0 -8 0 10 #fcfcfc #000000 #000000 0 1;
#X msg 1007 632 \; sample-editor const 0;
#X obj 1077 146 r \$0-banks;
#X obj 810 52 text define -k kick;
#A set kick0 4608 \; kick1 23088 \; kick2 11245 \; kick3 23088 \; kick4 7936 \; kick5 7263 \; kick6 6687 \; kick7 5631 \; kick8 11695 \; kick9 24447 \;;
#X f 27;
#X obj 810 72 text define -k snare;
#A set snare0 5774 \; snare1 13440 \; snare2 12800 \; snare3 29808 \; snare4 10943 \; snare5 4458 \; snare6 12800 \; snare7 35683 \;;
#X f 27;
#X obj 810 92 text define -k clap;
#A set clap0 5928 \; clap1 9088 \; clap2 5888 \; clap3 8464 \; clap4 6560 \; clap5 4744 \; clap7 29312 \; clap9 7104 \; clap8 5216 \;;
#X f 27;
#X obj 810 112 text define -k hat;
#A set hat0 21177 \; hat1 30432 \; hat3 11040 \;;
#X f 27;
#X obj 810 132 text define -k shaker;
#A set;
#X f 27;
#X obj 810 152 text define -k percs;
#A set;
#X f 27;
#X obj 108 113 cnv 16 106 20 empty empty empty 20 12 0 10 #ffffff #404040 0;
#X obj 574 42 loadbang;
#X msg 574 63 0;
#X msg 691 698 \$2\$1;
#X obj 691 652 pack f s;
#X obj 736 634 r \$0-banks;
#X obj 1077 164 t b s;
#X obj 975 195 i;
#X connect 0 0 3 0;
#X connect 1 0 2 0;
#X connect 2 0 49 0;
#X connect 2 0 51 0;
#X connect 3 0 1 0;
#X connect 9 0 8 0;
#X connect 11 0 26 0;
#X connect 11 1 13 0;
#X connect 12 0 10 1;
#X connect 14 0 11 2;
#X connect 15 0 16 0;
#X connect 15 0 19 1;
#X connect 15 0 22 1;
#X connect 15 0 10 1;
#X connect 15 0 24 1;
#X connect 15 0 87 0;
#X connect 17 0 18 0;
#X connect 19 0 37 0;
#X connect 20 0 21 0;
#X connect 21 0 53 0;
#X connect 21 0 69 0;
#X connect 22 0 46 0;
#X connect 23 0 10 0;
#X connect 24 0 84 0;
#X connect 26 0 27 0;
#X connect 26 1 25 0;
#X connect 29 0 36 0;
#X connect 36 0 39 0;
#X connect 36 1 40 0;
#X connect 36 2 41 0;
#X connect 36 3 42 0;
#X connect 36 4 43 0;
#X connect 36 5 44 0;
#X connect 37 0 38 0;
#X connect 38 0 17 0;
#X connect 39 0 59 0;
#X connect 40 0 59 0;
#X connect 41 0 59 0;
#X connect 42 0 59 0;
#X connect 43 0 59 0;
#X connect 44 0 59 0;
#X connect 45 0 20 0;
#X connect 46 0 45 0;
#X connect 48 0 0 0;
#X connect 49 0 50 0;
#X connect 50 0 5 0;
#X connect 52 0 23 1;
#X connect 54 0 24 0;
#X connect 55 0 19 0;
#X connect 56 0 22 0;
#X connect 60 0 37 1;
#X connect 61 0 46 1;
#X connect 62 0 10 3;
#X connect 63 0 66 0;
#X connect 63 0 66 1;
#X connect 65 0 63 0;
#X connect 67 0 71 0;
#X connect 68 0 67 1;
#X connect 69 1 67 0;
#X connect 69 2 68 0;
#X connect 70 0 72 0;
#X connect 71 0 70 0;
#X connect 73 0 86 0;
#X connect 81 0 82 0;
#X connect 82 0 29 0;
#X connect 82 0 15 0;
#X connect 83 0 23 0;
#X connect 84 0 83 0;
#X connect 85 0 84 1;
#X connect 86 0 87 0;
#X connect 86 1 11 3;
#X connect 87 0 11 0;
#X coords 0 -1 1 1 650 280 2 100 100;
#X restore 6 5 pd sample-editor;
#X restore 612 486 pd sample-library;
#X msg 612 555 \; pd-sample-library vis \$1;
#X obj 612 511 r open-sample-library!;
#X connect 1 0 2 0;
#X connect 2 0 0 0;
#X connect 4 0 6 0;
#X connect 5 0 4 0;
#X connect 8 0 11 0;
#X connect 10 0 8 0;
#X connect 12 0 14 0;
#X connect 15 0 12 0;
#X connect 16 0 18 0;
#X connect 17 0 16 0;
#X connect 20 0 23 0;
#X connect 22 0 20 0;
#X connect 24 0 27 0;
#X connect 26 0 24 0;
#X connect 28 0 31 0;
#X connect 29 0 28 0;
#X connect 32 0 35 0;
#X connect 34 0 32 0;
#X connect 36 0 39 0;
#X connect 38 0 36 0;
#X connect 40 0 43 0;
#X connect 42 0 40 0;
#X connect 44 0 47 0;
#X connect 45 0 44 0;
#X connect 48 0 51 0;
#X connect 49 0 48 0;
#X connect 52 0 55 0;
#X connect 54 0 52 0;
#X connect 57 0 59 0;
#X connect 58 0 57 0;
#X connect 60 0 62 0;
#X connect 62 0 61 0;
#X connect 63 0 66 0;
#X connect 65 0 63 0;
#X connect 67 0 70 0;
#X connect 71 0 67 0;
#X restore 506 39 pd upper-left-menu+manual;
#N canvas 63 88 450 300 CPU-load 0;
#X floatatom 118 256 0 0 0 0 - - - 0;
#X obj 118 168 cputime;
#X obj 118 28 loadbang;
#X obj 118 112 metro 1000;
#X msg 118 56 1;
#X floatatom 118 84 0 0 0 0 - - - 0;
#X obj 118 140 t b b;
#X obj 118 228 * 0.1;
#X obj 118 197 int;
#X text 163 84 <-- on/off;
#X obj 235 255 s CPU;
#X connect 0 0 10 0;
#X connect 1 0 8 0;
#X connect 2 0 4 0;
#X connect 3 0 6 0;
#X connect 4 0 5 0;
#X connect 5 0 3 0;
#X connect 6 0 1 0;
#X connect 6 1 1 1;
#X connect 7 0 0 0;
#X connect 8 0 7 0;
#X restore 506 59 pd CPU-load;
#X connect 0 0 2 0;
#X connect 1 0 0 0;
#X connect 2 0 3 0;
#X connect 4 0 1 0;
#X connect 5 0 1 0;
#X coords 0 -1 1 1 1780 40 2 100 100;
#X restore 4 3 pd do-not-delete;
#X obj 75 379 s global-sidechain;
#N canvas 274 133 1166 644 rec 0;
#X obj 486 68 t b b;
#X obj 105 135 tgl 15 0 rec/stop-s rec/stop-r REC/STOP 17 7 0 10 #90d4b0 #000000 #000000 0 1;
#X obj 513 91 f;
#X obj 541 92 + 1;
#X obj 513 113 + 1;
#X floatatom 173 135 5 0 0 1 TAKE - - 0;
#X msg 467 214 stop;
#X obj 467 45 sel 0 1;
#X obj 486 160 delay 100;
#X msg 486 182 start;
#X obj 104 123 cnv 5 5 5 empty empty AUDIO-RECORDER 0 0 0 12 #fcfcfc #404040 0;
#X obj 103 109 cnv 5 5 5 empty empty LEFT 0 0 0 8 #fcfcfc #404040 0;
#X obj 248 108 cnv 5 5 5 empty empty RIGHT 0 0 0 8 #fcfcfc #404040 0;
#X obj 513 135 t f f;
#X obj 122 231 hsl 128 15 0 127 0 1 \$0-rec-level-s \$0-rec-level-r LEVEL 133 7 0 10 #9898dc #000000 #000000 12700 1;
#X obj 238 135 bng 15 250 50 0 \$0-rec-reset-s \$0-rec-reset-r RST 17 7 0 10 #fcfcfc #000000 #000000;
#X obj 594 23 r \$0-rec-takenumber-s;
#X obj 579 58 f;
#X obj 579 -21 loadbang;
#X obj 647 221 *~;
#X obj 485 575 writesf~ 2;
#X obj 734 236 *~;
#X obj 749 138 r \$0-rec-level-s;
#X obj 749 160 * 0.00787402;
#X obj 749 182 pack 0 50;
#X obj 749 204 line~;
#X obj 280 151 hsl 128 15 0 127 0 1 empty empty empty -2 -8 0 10 #fcfcfc #000000 #000000 200 1;
#X obj 277 199 t f f;
#X obj 304 225 s \$0-rec-takenumber-s;
#X msg 100 531 menusave;
#X obj 100 553 s pd-audio-recorder.pd;
#X obj 100 508 r SAVE-S;
#X obj 618 52 r \$0-rec-reset-s;
#X msg 618 74 0;
#X obj 208 115 bng 15 250 50 0 empty empty empty 17 7 0 10 #000000 #dc4c90 #000000;
#X obj 208 10 tgl 15 0 empty empty empty 17 7 0 10 #fcfcfc #000000 #000000 0 1;
#X obj 208 30 metro 500;
#X obj 208 73 spigot;
#X obj 208 -15 loadbang;
#X obj 589 302 f \$1;
#X obj 544 227 t f b;
#X floatatom 231 115 5 0 0 0 - - - 0;
#X obj 467 16 r rec/stop-s;
#X obj 240 50 r rec/stop-s;
#X obj 544 330 pack f f;
#X obj 579 1 delay 250;
#X msg 538 370 open -bytes 3 ./recordings/mix_take\$1.wav;
#X obj 664 86 catch~ recL;
#X obj 740 86 catch~ recR;
#X obj 24 168 loadbang;
#X msg 24 188 127;
#X connect 0 0 8 0;
#X connect 0 1 2 0;
#X connect 2 0 3 0;
#X connect 2 0 4 0;
#X connect 3 0 2 1;
#X connect 4 0 13 0;
#X connect 6 0 20 0;
#X connect 7 0 6 0;
#X connect 7 1 0 0;
#X connect 8 0 9 0;
#X connect 9 0 20 0;
#X connect 13 0 26 0;
#X connect 13 1 40 0;
#X connect 16 0 17 1;
#X connect 17 0 2 1;
#X connect 18 0 45 0;
#X connect 19 0 20 0;
#X connect 21 0 20 1;
#X connect 22 0 23 0;
#X connect 23 0 24 0;
#X connect 24 0 25 0;
#X connect 25 0 21 1;
#X connect 25 0 19 1;
#X connect 26 0 27 0;
#X connect 27 0 5 0;
#X connect 27 1 28 0;
#X connect 29 0 30 0;
#X connect 31 0 29 0;
#X connect 32 0 33 0;
#X connect 33 0 2 1;
#X connect 33 0 26 0;
#X connect 35 0 36 0;
#X connect 36 0 37 0;
#X connect 37 0 34 0;
#X connect 38 0 35 0;
#X connect 39 0 44 1;
#X connect 40 0 44 0;
#X connect 40 1 39 0;
#X connect 42 0 7 0;
#X connect 43 0 37 1;
#X connect 44 0 46 0;
#X connect 45 0 17 0;
#X connect 46 0 20 0;
#X connect 47 0 19 0;
#X connect 48 0 21 0;
#X connect 49 0 50 0;
#X connect 50 0 14 0;
#X coords 0 -1 1 1 200 200 1 100 100;
#X restore 1788 48 pd rec;
#X obj 1960 508 r saving-data;
#X obj 1960 623 text insert save-data;
#X msg 2045 603 1e+09;
#X obj 2045 583 loadbang;
#X obj 1876 648 bng 16 250 50 0 empty empty empty 0 -8 0 10 #fcfcfc #000000 #000000;
#X obj 1876 625 t b b;
#X obj 1876 605 bng 16 250 50 0 empty empty empty 0 -8 0 10 #fcfcfc #000000 #000000;
#X msg 1896 648 line 0;
#X obj 1876 694 s saving-data-s;
#X obj 1876 668 text sequence save-data -g;
#X obj 2506 406 loadbang;
#X obj 2513 635 f;
#X obj 2513 614 t b b b;
#X text 2613 582 INSTANCE NUMBER;
#X obj 2525 516 t f f f;
#X obj 2513 590 bng 15 250 50 0 empty empty empty 17 7 0 10 #fcfcfc #000000 #000000;
#X obj 2937 671 r patch-path;
#X msg 2898 736 read /Users/johannklug/Documents/Bass\ Dieter/2025/Diet/MODULAR_LIVE_\ PERFORMER/preset_projects/MOLIPE_DRUMS/statesave/project-saving.txt;
#X obj 2555 480 s update-path;
#X msg 2513 738 write /Users/johannklug/Documents/Bass\ Dieter/2025/Diet/MODULAR_LIVE_\ PERFORMER/preset_projects/MOLIPE_DRUMS/statesave/project-saving.txt;
#X obj 2551 656 r patch-path;
#X obj 2513 656 t b f;
#X obj 2898 655 f;
#X obj 2898 676 t b f;
#X obj 2616 564 s \$1-instance-num;
#X obj 2616 528 makefilename %d;
#X msg 2616 546 label \$1;
#X obj 2506 439 t b b b b;
#X obj 2525 480 f \$2;
#X obj 2593 615 s \$1-instance-num-2;
#X obj 1876 586 loadbang;
#X obj 2114 623 s reload-saving;
#X obj 2114 586 bng 16 250 50 0 empty empty empty 0 -8 0 10 #fcfcfc #000000 #000000;
#X msg 2178 558 -1;
#X obj 2178 582 text delete save-data;
#X obj 2421 462 bng 16 250 50 0 empty empty empty 0 -8 0 10 #fcfcfc #000000 #000000;
#X obj 2177 533 r delete-current;
#X obj 2494 545 r write-sv-txt;
#X obj 2523 697 pack f s f;
#X obj 2909 696 pack f s f;
#X obj 5 47 mono-rhythm 3 1 1;
#X obj 227 47 mono-rhythm 2 1 2;
#X obj 1 527 basic-lfo 1 3 1;
#X obj 443 528 basic-lfo 5 3 3;
#X obj 222 527 basic-lfo 3 3 2;
#X obj 664 528 basic-lfo 7 3 4;
#X obj 891 529 basic-lfo 9 3 5;
#X obj 1114 528 basic-lfo 13 3 6;
#X obj 1568 529 basic-lfo 15 3 8;
#X obj 450 47 mono-rhythm 1 1 3;
#X obj 672 48 mono-rhythm 4 1 4;
#X obj 894 47 mono-rhythm 5 1 5;
#X obj 1117 49 mono-rhythm 6 1 6;
#X obj 1339 48 mono-rhythm 7 1 7;
#X obj 1561 48 menu 0 1 8;
#X obj 2 719 basic-lfo 2 4 1;
#X obj 222 719 basic-lfo 4 4 2;
#X obj 444 719 basic-lfo 6 4 3;
#X obj 665 719 basic-lfo 8 4 4;
#X obj 889 724 basic-lfo 10 4 5;
#X obj 1114 721 basic-lfo 14 4 6;
#X obj 1569 709 basic-lfo 16 4 8;
#X obj 221 899 mymembrane 38 2 2;
#X obj 0 899 synth-kick2 2 2 1;
#X obj 444 899 simple-hats 1 2 3;
#X obj 666 899 cmbcym 1 2 4;
#X obj 887 897 perk-clap-mod 1 2 5;
#X obj 1112 897 mymembrane 2 2 6;
#X obj 1339 901 mymembrane 3 2 7;
#X obj 3 1191 channel 1 5 1;
#X obj 223 1191 channel 2 5 2;
#X obj 446 1192 channel 3 5 3;
#X obj 668 1191 channel 4 5 4;
#X obj 891 1190 channel 5 5 5;
#X obj 1125 1184 channel 6 5 6;
#X obj 1346 1190 channel 7 5 7;
#X obj 1567 900 stereo-delay 6 5 8;
#X obj 2 1486 diet-audio-to-mixer 34 8 1;
#X obj 225 1485 diet-audio-to-mixer 42 8 2;
#X obj 447 1486 diet-audio-to-mixer 36 8 3;
#X obj 669 1486 diet-audio-to-mixer 38 8 4;
#X obj 891 1485 diet-audio-to-mixer 39 8 5;
#X obj 1126 1488 diet-audio-to-mixer 43 8 6;
#X obj 1349 1500 diet-audio-to-mixer 41 8 7;
#X obj 1572 1500 diet-audio-to-mixer 40 8 8;
#X obj 1571 1193 millerverb 3 6 8;
#X obj 2513 826 array define scene1 5000;
#X msg 2523 717 set write \$2/statesave/project-saving.txt;
#X msg 2909 715 set read \$2/statesave/project-saving.txt;
#X obj 2358 953 tabread scene1;
#X msg 2357 895 201;
#X floatatom 2358 974 5 0 0 0 - - - 0;
#X obj 3074 143 hsl 128 15 0 127 0 1 \$0-param-3-s \$0-param-3-r COPY-SC 133 7 0 10 #3b6ea8 #000000 #000000 0 1;
#X obj 3090 239 cnv 5 5 5 empty empty <4 0 0 0 8 #fcfcfc #000000 0;
#X obj 3090 223 cnv 5 5 5 empty empty <3 0 0 0 8 #fcfcfc #000000 0;
#X obj 3090 208 cnv 5 5 5 empty empty <2 0 0 0 8 #fcfcfc #000000 0;
#X obj 3090 193 cnv 5 5 5 empty empty <1 0 0 0 8 #fcfcfc #000000 0;
#X obj 3071 186 vradio 15 1 0 4 \$0-param-4-s \$0-param-4-r LOAD 0 -8 0 10 #4fb0a8 #000000 #000000 0;
#X obj 3173 239 cnv 5 5 5 empty empty <4 0 0 0 8 #fcfcfc #000000 0;
#X obj 3173 223 cnv 5 5 5 empty empty <3 0 0 0 8 #fcfcfc #000000 0;
#X obj 3173 208 cnv 5 5 5 empty empty <2 0 0 0 8 #fcfcfc #000000 0;
#X obj 3173 193 cnv 5 5 5 empty empty <1 0 0 0 8 #fcfcfc #000000 0;
#X obj 3154 186 vradio 15 1 0 4 \$0-param-5-s \$0-param-5-r SCENE_A 0 -8 0 10 #8fd3a6 #000000 #000000 0;
#X obj 3090 99 cnv 5 5 5 empty empty <4 0 0 0 8 #fcfcfc #000000 0;
#X obj 3090 83 cnv 5 5 5 empty empty <3 0 0 0 8 #fcfcfc #000000 0;
#X obj 3090 68 cnv 5 5 5 empty empty <2 0 0 0 8 #fcfcfc #000000 0;
#X obj 3090 53 cnv 5 5 5 empty empty <1 0 0 0 8 #fcfcfc #000000 0;
#X obj 3071 46 vradio 15 1 0 4 empty empty GUI-SC 0 -8 0 10 #4a4d6a #000000 #000000 0;
#X obj 3071 34 cnv 5 5 5 empty empty GUI-SCENE: 0 0 0 10 #fcfcfc #000000 0;
#X obj 3111 106 bng 15 250 50 0 empty empty LOAD-> -40 8 0 10 #fcfcfc #000000 #000000;
#X obj 3080 444 f;
#X obj 3080 462 + 1;
#X obj 3080 481 s gui-scene;
#X obj 3170 99 cnv 5 5 5 empty empty <4 0 0 0 8 #fcfcfc #000000 0;
#X obj 3170 83 cnv 5 5 5 empty empty <3 0 0 0 8 #fcfcfc #000000 0;
#X obj 3170 68 cnv 5 5 5 empty empty <2 0 0 0 8 #fcfcfc #000000 0;
#X obj 3170 53 cnv 5 5 5 empty empty <1 0 0 0 8 #fcfcfc #000000 0;
#X obj 3151 46 vradio 15 1 0 4 \$0-param-2-s \$0-param-2-r LOAD 0 -8 0 10 #5f738f #000000 #000000 0;
#X obj 3151 34 cnv 5 5 5 empty empty SCENE-COPY-TO: 0 0 0 10 #fcfcfc #000000 0;
#X obj 3191 106 bng 15 250 50 0 empty empty COPY-> -40 8 0 10 #fcfcfc #000000 #000000;
#X obj 3164 446 f;
#X obj 3164 465 + 1;
#X obj 3164 484 s copy-scene;
#X obj 3126 -108 loadbang;
#X obj 3071 317 + 1;
#X obj 3071 395 s a-scene;
#X obj 3156 317 + 1;
#X obj 2930 98 s scene-mix;
#X obj 3156 395 s b-scene;
#X obj 3071 376 f;
#X obj 3156 376 f;
#X obj 3077 336 loadbang;
#X obj 3077 357 del 100;
#X obj 3162 335 loadbang;
#X obj 3162 356 del 100;
#X msg 3047 -41 0;
#X obj 3059 18 cnv 5 5 5 empty \$0-modul-name SCENES 0 0 0 12 #fcfcfc #404040 0;
#X obj 3101 18 cnv 5 5 5 empty \$0-instance-num 0 0 0 0 12 #fcfcfc #404040 0;
#X obj 2989 65 cnv 5 5 5 empty empty OUT 0 0 0 8 #fcfcfc #000000 0;
#X msg 2968 18 0;
#X obj 2971 -49 loadbang;
#X msg 3020 56 1;
#X obj 2971 -28 del 150;
#X obj 3126 -87 del 300;
#X connect 0 0 92 0;
#X connect 1 0 83 0;
#X connect 2 0 3 0;
#X connect 2 1 3 2;
#X connect 2 2 3 4;
#X connect 2 3 3 6;
#X connect 2 4 3 8;
#X connect 2 5 3 10;
#X connect 2 6 3 12;
#X connect 3 0 70 0;
#X connect 3 1 69 0;
#X connect 3 2 71 0;
#X connect 3 3 72 0;
#X connect 3 4 73 0;
#X connect 3 5 74 0;
#X connect 3 6 75 0;
#X connect 7 0 8 0;
#X connect 9 0 8 1;
#X connect 10 0 9 0;
#X connect 11 0 16 0;
#X connect 12 0 11 0;
#X connect 12 1 14 0;
#X connect 13 0 12 0;
#X connect 14 0 16 0;
#X connect 16 0 15 0;
#X connect 17 0 34 0;
#X connect 18 0 28 0;
#X connect 19 0 18 0;
#X connect 21 0 18 1;
#X connect 21 1 29 0;
#X connect 21 2 32 0;
#X connect 21 2 36 0;
#X connect 22 0 19 0;
#X connect 23 0 46 1;
#X connect 24 0 93 0;
#X connect 26 0 93 0;
#X connect 27 0 45 1;
#X connect 28 0 26 0;
#X connect 28 1 45 0;
#X connect 29 0 30 0;
#X connect 30 0 24 0;
#X connect 30 1 46 0;
#X connect 32 0 33 0;
#X connect 33 0 31 0;
#X connect 34 1 35 0;
#X connect 34 2 25 0;
#X connect 35 0 21 0;
#X connect 37 0 13 0;
#X connect 39 0 38 0;
#X connect 40 0 41 0;
#X connect 42 0 34 0;
#X connect 43 0 40 0;
#X connect 44 0 22 0;
#X connect 45 0 94 0;
#X connect 46 0 95 0;
#X connect 47 0 2 0;
#X connect 47 0 5 0;
#X connect 47 1 3 1;
#X connect 48 0 2 1;
#X connect 48 1 3 3;
#X connect 49 0 70 1;
#X connect 49 0 76 1;
#X connect 50 0 71 1;
#X connect 51 0 69 1;
#X connect 52 0 72 1;
#X connect 53 0 73 1;
#X connect 54 0 74 1;
#X connect 55 0 83 1;
#X connect 55 0 92 1;
#X connect 56 0 2 2;
#X connect 56 1 3 5;
#X connect 57 0 2 3;
#X connect 57 1 3 7;
#X connect 58 0 2 4;
#X connect 58 1 3 9;
#X connect 59 0 2 5;
#X connect 59 1 3 11;
#X connect 60 0 2 6;
#X connect 62 0 70 2;
#X connect 62 0 76 2;
#X connect 63 0 69 2;
#X connect 64 0 71 2;
#X connect 65 0 72 2;
#X connect 66 0 73 2;
#X connect 67 0 74 2;
#X connect 68 0 83 2;
#X connect 68 0 92 2;
#X connect 69 0 77 0;
#X connect 70 0 76 0;
#X connect 71 0 78 0;
#X connect 72 0 79 0;
#X connect 73 0 80 0;
#X connect 74 0 81 0;
#X connect 75 0 82 0;
#X connect 76 0 84 0;
#X connect 77 0 85 0;
#X connect 78 0 86 0;
#X connect 79 0 87 0;
#X connect 80 0 88 0;
#X connect 81 0 89 0;
#X connect 82 0 89 0;
#X connect 83 0 90 0;
#X connect 83 1 91 0;
#X connect 92 0 90 0;
#X connect 92 1 91 0;
#X connect 94 0 26 0;
#X connect 95 0 24 0;
#X connect 96 0 98 0;
#X connect 97 0 96 0;
#X connect 99 0 134 0;
#X connect 104 0 131 0;
#X connect 109 0 133 0;
#X connect 114 0 117 1;
#X connect 116 0 117 0;
#X connect 117 0 118 0;
#X connect 118 0 119 0;
#X connect 124 0 127 1;
#X connect 126 0 127 0;
#X connect 127 0 128 0;
#X connect 128 0 129 0;
#X connect 130 0 150 0;
#X connect 131 0 136 0;
#X connect 133 0 137 0;
#X connect 136 0 132 0;
#X connect 137 0 135 0;
#X connect 138 0 139 0;
#X connect 139 0 136 0;
#X connect 140 0 141 0;
#X connect 141 0 137 0;
#X connect 142 0 99 0;
#X connect 146 0 104 0;
#X connect 147 0 149 0;
#X connect 148 0 109 0;
#X connect 149 0 146 0;
#X connect 149 0 148 0;
#X connect 150 0 116 0;
#X connect 150 0 142 0;
