#N canvas 14 26 1266 729 10;
#X obj 119 252 hsl 128 15 0 127 0 1 \$0-param-3-s \$0-param-3-r SCENE-MIX 133 7 0 10 #fcfcfc #000000 #000000 0 1;
#X obj 135 348 cnv 5 5 5 empty empty <4 0 0 0 8 #fcfcfc #000000 0;
#X obj 135 332 cnv 5 5 5 empty empty <3 0 0 0 8 #fcfcfc #000000 0;
#X obj 135 317 cnv 5 5 5 empty empty <2 0 0 0 8 #fcfcfc #000000 0;
#X obj 135 302 cnv 5 5 5 empty empty <1 0 0 0 8 #fcfcfc #000000 0;
#X obj 116 295 vradio 15 1 0 4 \$0-param-4-s \$0-param-4-r empty 0 -8 0 10 #fcfcfc #000000 #000000 0;
#X obj 218 348 cnv 5 5 5 empty empty <4 0 0 0 8 #fcfcfc #000000 0;
#X obj 218 332 cnv 5 5 5 empty empty <3 0 0 0 8 #fcfcfc #000000 0;
#X obj 218 317 cnv 5 5 5 empty empty <2 0 0 0 8 #fcfcfc #000000 0;
#X obj 218 302 cnv 5 5 5 empty empty <1 0 0 0 8 #fcfcfc #000000 0;
#X obj 199 295 vradio 15 1 0 4 \$0-param-5-s \$0-param-5-r empty 0 -8 0 10 #fcfcfc #000000 #000000 0;
#X obj 199 283 cnv 5 5 5 empty empty SCENE\ B 0 0 0 10 #fcfcfc #000000 0;
#X obj 116 283 cnv 5 5 5 empty empty SCENE\ A 0 0 0 10 #fcfcfc #000000 0;
#X obj 135 208 cnv 5 5 5 empty empty <4 0 0 0 8 #fcfcfc #000000 0;
#X obj 135 192 cnv 5 5 5 empty empty <3 0 0 0 8 #fcfcfc #000000 0;
#X obj 135 177 cnv 5 5 5 empty empty <2 0 0 0 8 #fcfcfc #000000 0;
#X obj 135 162 cnv 5 5 5 empty empty <1 0 0 0 8 #fcfcfc #000000 0;
#X obj 116 155 vradio 15 1 0 4 \$0-param-1-s \$0-param-1-r empty 0 -8 0 10 #fcfcfc #000000 #000000 0;
#X obj 116 143 cnv 5 5 5 empty empty GUI-SCENE: 0 0 0 10 #fcfcfc #000000 0;
#X obj 156 215 bng 15 250 50 0 empty empty LOAD-> -40 8 0 10 #fcfcfc #000000 #000000;
#X obj 115 120 cnv 5 5 5 empty empty SCENE-ORGANIZER 0 0 0 12 #fcfcfc #404040 0;
#X obj 384 276 f;
#X obj 384 294 + 1;
#X obj 384 313 s gui-scene;
#X obj 215 208 cnv 5 5 5 empty empty <4 0 0 0 8 #fcfcfc #000000 0;
#X obj 215 192 cnv 5 5 5 empty empty <3 0 0 0 8 #fcfcfc #000000 0;
#X obj 215 177 cnv 5 5 5 empty empty <2 0 0 0 8 #fcfcfc #000000 0;
#X obj 215 162 cnv 5 5 5 empty empty <1 0 0 0 8 #fcfcfc #000000 0;
#X obj 196 155 vradio 15 1 0 4 \$0-param-2-s \$0-param-2-r empty 0 -8 0 10 #fcfcfc #000000 #000000 0;
#X obj 196 143 cnv 5 5 5 empty empty SCENE-COPY-TO: 0 0 0 10 #fcfcfc #000000 0;
#X obj 236 215 bng 15 250 50 0 empty empty COPY-> -40 8 0 10 #fcfcfc #000000 #000000;
#X obj 471 275 f;
#X obj 471 294 + 1;
#X obj 471 313 s copy-scene;
#X obj 388 160 s \$0-instance-num;
#X obj 388 122 makefilename %d;
#X msg 388 141 label \$1;
#X obj 156 28 loadbang;
#X obj 156 49 del 100;
#N canvas 0 25 1440 847 state-saving-multiple-instances-with-NO!-scenes 0;
#X obj 223 18 loadbang;
#X obj 230 247 f;
#X obj 230 226 t b b b;
#X obj 281 206 outlet;
#X text 277 226 INSTANCE NUMBER;
#X obj 242 92 f \$1;
#X obj 242 128 t f f f;
#X obj 230 202 bng 15 250 50 0 empty empty empty 17 7 0 10 #fcfcfc #000000 #000000;
#X obj 230 179 r SAVE-S;
#X obj 631 291 r patch-path;
#X msg 575 350 read /Users/johannklug/Documents/Bass\ Dieter/2025/Diet/MODULAR_LIVE_\ PERFORMER/patch2/statesave/0-scene-org-ss.txt;
#X obj 272 92 s update-path;
#X obj 223 51 t b b b;
#X msg 230 350 write /Users/johannklug/Documents/Bass\ Dieter/2025/Diet/MODULAR_LIVE_\ PERFORMER/patch1/statesave/0-scene-org-ss.txt;
#X obj 586 310 pack f s;
#X obj 285 289 r patch-path;
#X obj 240 309 pack f s;
#X obj 230 268 t b f;
#X obj 575 269 f;
#X obj 575 290 t b f;
#X obj 229 448 array define \$0-presets 256;
#X obj 225 893 tabwrite \$0-presets;
#X obj 336 856 loadbang;
#X obj 225 579 tabread \$0-presets;
#X obj 258 835 t b;
#X obj 225 871 spigot;
#X msg 258 854 0;
#X obj 294 836 del 5;
#X msg 294 855 1;
#X obj 225 597 s \$0-param-1-r;
#X obj 225 794 r \$0-param-1-s;
#X obj 445 893 tabwrite \$0-presets;
#X obj 445 579 tabread \$0-presets;
#X obj 478 835 t b;
#X obj 445 871 spigot;
#X msg 478 854 0;
#X obj 514 836 del 5;
#X msg 514 855 1;
#X obj 445 597 s \$0-param-2-r;
#X obj 445 794 r \$0-param-2-s;
#X obj 665 893 tabwrite \$0-presets;
#X obj 665 579 tabread \$0-presets;
#X obj 698 835 t b;
#X obj 665 871 spigot;
#X msg 698 854 0;
#X obj 734 836 del 5;
#X msg 734 855 1;
#X obj 885 893 tabwrite \$0-presets;
#X obj 885 579 tabread \$0-presets;
#X obj 918 835 t b;
#X obj 885 871 spigot;
#X msg 918 854 0;
#X obj 954 836 del 5;
#X msg 954 855 1;
#X obj 665 597 s \$0-param-3-r;
#X obj 665 794 r \$0-param-3-s;
#X obj 885 597 s \$0-param-4-r;
#X obj 885 794 r \$0-param-4-s;
#X text 221 765 writing param to scene;
#X text 220 510 reading param from array;
#X obj 225 1053 tabwrite \$0-presets;
#X obj 258 995 t b;
#X obj 225 1031 spigot;
#X msg 258 1014 0;
#X obj 294 996 del 5;
#X obj 445 1053 tabwrite \$0-presets;
#X obj 445 699 tabread \$0-presets;
#X obj 478 995 t b;
#X obj 445 1031 spigot;
#X msg 478 1014 0;
#X obj 514 996 del 5;
#X msg 514 1015 1;
#X obj 478 975 r \$0-wait;
#X obj 665 1053 tabwrite \$0-presets;
#X obj 665 699 tabread \$0-presets;
#X obj 698 995 t b;
#X obj 665 1031 spigot;
#X msg 698 1014 0;
#X obj 734 996 del 5;
#X obj 698 975 r \$0-wait;
#X obj 885 1053 tabwrite \$0-presets;
#X obj 885 699 tabread \$0-presets;
#X obj 918 995 t b;
#X obj 885 1031 spigot;
#X msg 918 1014 0;
#X obj 954 996 del 5;
#X msg 954 1015 1;
#X obj 918 975 r \$0-wait;
#X obj 227 712 s \$0-param-5-r;
#X obj 445 717 s \$0-param-6-r;
#X obj 665 717 s \$0-param-7-r;
#X obj 885 717 s \$0-param-8-r;
#X msg 294 1015 1;
#X msg 734 1015 1;
#X obj 225 954 r \$0-param-5-s;
#X obj 445 954 r \$0-param-6-s;
#X obj 665 954 r \$0-param-7-s;
#X obj 885 954 r \$0-param-8-s;
#X msg 240 329 set write \$2/statesave/\$1-scene-org-ss.txt;
#X msg 586 329 set read \$2/statesave/\$1-scene-org-ss.txt;
#X msg 225 560 17;
#X msg 445 560 18;
#X msg 336 874 17;
#X msg 665 559 19;
#X msg 885 560 20;
#X msg 227 671 21;
#X msg 445 679 22;
#X msg 665 680 23;
#X msg 885 680 24;
#X msg 556 875 18;
#X msg 776 875 19;
#X msg 996 875 20;
#X msg 336 1034 21;
#X obj 556 1016 r loadbang;
#X msg 556 1034 22;
#X msg 776 1034 23;
#X msg 996 1033 24;
#X obj 258 815 loadbang;
#X obj 478 815 loadbang;
#X obj 698 815 loadbang;
#X obj 918 815 loadbang;
#X obj 258 975 loadbang;
#X obj 556 857 loadbang;
#X obj 225 541 loadbang;
#X obj 445 541 loadbang;
#X obj 665 540 loadbang;
#X obj 885 541 loadbang;
#X obj 227 652 loadbang;
#X obj 776 857 loadbang;
#X obj 996 857 loadbang;
#X obj 336 1016 loadbang;
#X obj 776 1016 loadbang;
#X obj 996 1015 loadbang;
#X obj 445 660 loadbang;
#X obj 665 660 loadbang;
#X obj 885 661 loadbang;
#X text 885 39 Array - Saving Rules \; -Slot 1-16 for general values \; -17-24 gui parameter-values \; - no scene function in this module \;;
#X obj 227 692 tabread \$0-presets;
#X connect 0 0 12 0;
#X connect 1 0 17 0;
#X connect 2 0 1 0;
#X connect 5 0 6 0;
#X connect 6 0 1 1;
#X connect 6 1 18 0;
#X connect 6 2 3 0;
#X connect 7 0 2 0;
#X connect 8 0 7 0;
#X connect 9 0 14 1;
#X connect 10 0 20 0;
#X connect 12 1 5 0;
#X connect 12 2 11 0;
#X connect 13 0 20 0;
#X connect 14 0 99 0;
#X connect 15 0 16 1;
#X connect 16 0 98 0;
#X connect 17 0 13 0;
#X connect 17 1 16 0;
#X connect 18 0 19 0;
#X connect 19 0 10 0;
#X connect 19 1 14 0;
#X connect 22 0 102 0;
#X connect 23 0 29 0;
#X connect 24 0 26 0;
#X connect 24 0 27 0;
#X connect 25 0 21 0;
#X connect 26 0 25 1;
#X connect 27 0 28 0;
#X connect 28 0 25 1;
#X connect 30 0 25 0;
#X connect 32 0 38 0;
#X connect 33 0 35 0;
#X connect 33 0 36 0;
#X connect 34 0 31 0;
#X connect 35 0 34 1;
#X connect 36 0 37 0;
#X connect 37 0 34 1;
#X connect 39 0 34 0;
#X connect 41 0 54 0;
#X connect 42 0 44 0;
#X connect 42 0 45 0;
#X connect 43 0 40 0;
#X connect 44 0 43 1;
#X connect 45 0 46 0;
#X connect 46 0 43 1;
#X connect 48 0 56 0;
#X connect 49 0 51 0;
#X connect 49 0 52 0;
#X connect 50 0 47 0;
#X connect 51 0 50 1;
#X connect 52 0 53 0;
#X connect 53 0 50 1;
#X connect 55 0 43 0;
#X connect 57 0 50 0;
#X connect 61 0 63 0;
#X connect 61 0 64 0;
#X connect 62 0 60 0;
#X connect 63 0 62 1;
#X connect 64 0 92 0;
#X connect 66 0 89 0;
#X connect 67 0 69 0;
#X connect 67 0 70 0;
#X connect 68 0 65 0;
#X connect 69 0 68 1;
#X connect 70 0 71 0;
#X connect 71 0 68 1;
#X connect 72 0 67 0;
#X connect 74 0 90 0;
#X connect 75 0 77 0;
#X connect 75 0 78 0;
#X connect 76 0 73 0;
#X connect 77 0 76 1;
#X connect 78 0 93 0;
#X connect 79 0 75 0;
#X connect 81 0 91 0;
#X connect 82 0 84 0;
#X connect 82 0 85 0;
#X connect 83 0 80 0;
#X connect 84 0 83 1;
#X connect 85 0 86 0;
#X connect 86 0 83 1;
#X connect 87 0 82 0;
#X connect 92 0 62 1;
#X connect 93 0 76 1;
#X connect 94 0 62 0;
#X connect 95 0 68 0;
#X connect 96 0 76 0;
#X connect 97 0 83 0;
#X connect 98 0 13 0;
#X connect 99 0 10 0;
#X connect 100 0 23 0;
#X connect 101 0 32 0;
#X connect 102 0 21 1;
#X connect 103 0 41 0;
#X connect 104 0 48 0;
#X connect 105 0 137 0;
#X connect 106 0 66 0;
#X connect 107 0 74 0;
#X connect 108 0 81 0;
#X connect 109 0 31 1;
#X connect 110 0 40 1;
#X connect 111 0 47 1;
#X connect 112 0 60 1;
#X connect 113 0 114 0;
#X connect 114 0 65 1;
#X connect 115 0 73 1;
#X connect 116 0 80 1;
#X connect 117 0 24 0;
#X connect 118 0 33 0;
#X connect 119 0 42 0;
#X connect 120 0 49 0;
#X connect 121 0 61 0;
#X connect 122 0 109 0;
#X connect 123 0 100 0;
#X connect 124 0 101 0;
#X connect 125 0 103 0;
#X connect 126 0 104 0;
#X connect 127 0 105 0;
#X connect 128 0 110 0;
#X connect 129 0 111 0;
#X connect 130 0 112 0;
#X connect 131 0 115 0;
#X connect 132 0 116 0;
#X connect 133 0 106 0;
#X connect 134 0 107 0;
#X connect 135 0 108 0;
#X connect 137 0 88 0;
#X restore 388 103 pd state-saving-multiple-instances-with-NO!-scenes;
#X obj 381 455 + 1;
#X obj 381 533 s a-scene;
#X obj 466 455 + 1;
#X obj 380 383 s scene-mix;
#X obj 466 533 s b-scene;
#X floatatom 25 -13 5 0 0 0 - - - 0;
#X obj 25 -34 ctlin 60 17;
#N canvas 194 135 804 544 display 0;
#X obj 324 178 r gui-scene;
#X obj 374 198 r a-scene;
#X obj 419 217 r b-scene;
#X obj 323 309 s display-message;
#X msg 323 289 2 0 #5f503e #000000 center SCENE:\$1(GUI) \$2<>\$3;
#X obj 323 266 pack f f f, f 21;
#X obj 374 238 t b f;
#X obj 419 238 t b f;
#X connect 0 0 5 0;
#X connect 1 0 6 0;
#X connect 2 0 7 0;
#X connect 4 0 3 0;
#X connect 5 0 4 0;
#X connect 6 0 5 0;
#X connect 6 1 5 1;
#X connect 7 0 5 0;
#X connect 7 1 5 2;
#X restore 389 57 pd display;
#X obj 381 514 f;
#X obj 466 514 f;
#X obj 387 474 loadbang;
#X obj 387 495 del 100;
#X obj 472 473 loadbang;
#X obj 472 494 del 100;
#X msg 99 49 0;
#X connect 0 0 43 0;
#X connect 5 0 40 0;
#X connect 10 0 42 0;
#X connect 17 0 21 1;
#X connect 19 0 21 0;
#X connect 21 0 22 0;
#X connect 22 0 23 0;
#X connect 28 0 31 1;
#X connect 30 0 31 0;
#X connect 31 0 32 0;
#X connect 32 0 33 0;
#X connect 35 0 36 0;
#X connect 36 0 34 0;
#X connect 37 0 38 0;
#X connect 38 0 19 0;
#X connect 38 0 54 0;
#X connect 39 0 35 0;
#X connect 40 0 48 0;
#X connect 42 0 49 0;
#X connect 45 0 0 0;
#X connect 46 0 45 0;
#X connect 48 0 41 0;
#X connect 49 0 44 0;
#X connect 50 0 51 0;
#X connect 51 0 48 0;
#X connect 52 0 53 0;
#X connect 53 0 49 0;
#X connect 54 0 0 0;
#X coords 0 -1 1 1 220 300 2 100 100;
