#N canvas 174 143 1266 729 10;
#X obj 1129 252 hsl 128 15 0 127 0 1 \$0-param-3-s \$0-param-3-r COPY-SC 133 7 0 10 #3b6ea8 #000000 #000000 0 1;
#X obj 1145 348 cnv 5 5 5 empty empty <4 0 0 0 8 #fcfcfc #000000 0;
#X obj 1145 332 cnv 5 5 5 empty empty <3 0 0 0 8 #fcfcfc #000000 0;
#X obj 1145 317 cnv 5 5 5 empty empty <2 0 0 0 8 #fcfcfc #000000 0;
#X obj 1145 302 cnv 5 5 5 empty empty <1 0 0 0 8 #fcfcfc #000000 0;
#X obj 1126 295 vradio 15 1 0 4 \$0-param-4-s \$0-param-4-r LOAD 0 -8 0 10 #4fb0a8 #000000 #000000 0;
#X obj 1228 348 cnv 5 5 5 empty empty <4 0 0 0 8 #fcfcfc #000000 0;
#X obj 1228 332 cnv 5 5 5 empty empty <3 0 0 0 8 #fcfcfc #000000 0;
#X obj 1228 317 cnv 5 5 5 empty empty <2 0 0 0 8 #fcfcfc #000000 0;
#X obj 1228 302 cnv 5 5 5 empty empty <1 0 0 0 8 #fcfcfc #000000 0;
#X obj 1209 295 vradio 15 1 0 4 \$0-param-5-s \$0-param-5-r SCENE_A 0 -8 0 10 #8fd3a6 #000000 #000000 0;
#X obj 1145 208 cnv 5 5 5 empty empty <4 0 0 0 8 #fcfcfc #000000 0;
#X obj 1145 192 cnv 5 5 5 empty empty <3 0 0 0 8 #fcfcfc #000000 0;
#X obj 1145 177 cnv 5 5 5 empty empty <2 0 0 0 8 #fcfcfc #000000 0;
#X obj 1145 162 cnv 5 5 5 empty empty <1 0 0 0 8 #fcfcfc #000000 0;
#X obj 1126 155 vradio 15 1 0 4 empty empty GUI-SC 0 -8 0 10 #4a4d6a #000000 #000000 0;
#X obj 1126 143 cnv 5 5 5 empty empty GUI-SCENE: 0 0 0 10 #fcfcfc #000000 0;
#X obj 1166 215 bng 15 250 50 0 empty empty LOAD-> -40 8 0 10 #fcfcfc #000000 #000000;
#X obj 135 130 cnv 5 5 5 empty empty SCENE-ORGANIZER 0 0 0 12 #fcfcfc #404040 0;
#X obj 1132 556 f;
#X obj 1132 574 + 1;
#X obj 1132 593 s gui-scene;
#X obj 1225 208 cnv 5 5 5 empty empty <4 0 0 0 8 #fcfcfc #000000 0;
#X obj 1225 192 cnv 5 5 5 empty empty <3 0 0 0 8 #fcfcfc #000000 0;
#X obj 1225 177 cnv 5 5 5 empty empty <2 0 0 0 8 #fcfcfc #000000 0;
#X obj 1225 162 cnv 5 5 5 empty empty <1 0 0 0 8 #fcfcfc #000000 0;
#X obj 1206 155 vradio 15 1 0 4 \$0-param-2-s \$0-param-2-r LOAD 0 -8 0 10 #5f738f #000000 #000000 0;
#X obj 1206 143 cnv 5 5 5 empty empty SCENE-COPY-TO: 0 0 0 10 #fcfcfc #000000 0;
#X obj 1246 215 bng 15 250 50 0 empty empty COPY-> -40 8 0 10 #fcfcfc #000000 #000000;
#X obj 1219 555 f;
#X obj 1219 574 + 1;
#X obj 1219 593 s copy-scene;
#X obj 1022 473 loadbang;
#X obj 1126 426 + 1;
#X obj 1126 504 s a-scene;
#X obj 1211 426 + 1;
#X obj 1128 663 s scene-mix;
#X obj 1211 504 s b-scene;
#N canvas 194 135 804 544 display 0;
#X obj 324 178 r gui-scene;
#X obj 374 198 r a-scene;
#X obj 419 217 r b-scene;
#X obj 323 309 s display-message;
#X msg 323 289 2 0 #5f503e #000000 center SCENE:\$1(GUI) \$2<>\$3;
#X obj 323 266 pack f f f, f 21;
#X obj 374 238 t b f;
#X obj 419 238 t b f;
#X connect 0 0 5 0;
#X connect 1 0 6 0;
#X connect 2 0 7 0;
#X connect 4 0 3 0;
#X connect 5 0 4 0;
#X connect 6 0 5 0;
#X connect 6 1 5 1;
#X connect 7 0 5 0;
#X connect 7 1 5 2;
#X restore 1227 702 pd display;
#X obj 1126 485 f;
#X obj 1211 485 f;
#X obj 1132 445 loadbang;
#X obj 1132 466 del 100;
#X obj 1217 444 loadbang;
#X obj 1217 465 del 100;
#X msg 943 540 0;
#X obj 136 236 hsl 128 15 0 127 0 1 \$0-param-4-s \$0-param-4-r LOAD 133 7 0 10 #4fb0a8 #000000 #000000 0 1;
#X obj 136 174 hsl 128 15 0 127 0 1 \$0-param-2-s \$0-param-2-r LOAD 133 7 0 10 #5f738f #000000 #000000 0 1;
#X obj 136 267 hsl 128 15 0 127 0 1 \$0-param-5-s \$0-param-5-r SCENE_A 133 7 0 10 #8fd3a6 #000000 #000000 0 1;
#X obj 136 143 hsl 128 15 0 127 0 1 \$0-param-1-s empty GUI-SC 133 7 0 10 #4a4d6a #000000 #000000 3900 1;
#X obj 136 298 hsl 128 15 0 127 0 1 \$0-param-6-s \$0-param-6-r SCENE_B 133 7 0 10 #f2c14e #000000 #000000 0 1;
#X obj 136 329 hsl 128 15 0 127 0 1 \$0-param-7-s \$0-param-7-r FADE 133 7 0 10 #e07a5f #000000 #000000 0 1;
#X obj 136 205 hsl 128 15 0 127 0 1 \$0-param-3-s \$0-param-3-r COPY-SC 133 7 0 10 #3b6ea8 #000000 #000000 0 1;
#X obj 103 119 cnv 5 5 5 empty empty IN 0 0 0 8 #ffffff #ff8300 0;
#X obj 1114 127 cnv 5 5 5 empty \$0-modul-name SCENES 0 0 0 12 #fcfcfc #404040 0;
#X obj 1156 127 cnv 5 5 5 empty \$0-instance-num 0 0 0 0 12 #fcfcfc #404040 0;
#X obj 1083 412 cnv 5 5 5 empty empty OUT 0 0 0 8 #fcfcfc #000000 0;
#X obj 199 119 cnv 5 5 5 empty empty MOD1 0 0 0 8 #fcfcfc #404040 0;
#X obj 308 408 bng 10 250 50 0 \$0-options-button \$0-options-button-r OPTIONS -45 5 0 10 #fcfcfc #000000 #000000;
#X text 99 82 DESKTOP-GUI-INTERFACE:;
#X obj 136 158 hsl 61 8 0 127 0 1 \$0-param-9-s \$0-param-9-r empty 133 7 0 10 #606060 #000000 #000000 0 1;
#X obj 203 158 hsl 61 8 0 127 0 1 \$0-param-17-s \$0-param-17-r empty 133 7 0 10 #7c7c7c #000000 #000000 0 1;
#X obj 136 189 hsl 61 8 0 127 0 1 \$0-param-10-s \$0-param-10-r empty 133 7 0 10 #606060 #000000 #000000 0 1;
#X obj 203 189 hsl 61 8 0 127 0 1 \$0-param-18-s \$0-param-18-r empty 133 7 0 10 #7c7c7c #000000 #000000 0 1;
#X obj 136 220 hsl 61 8 0 127 0 1 \$0-param-11-s \$0-param-11-r empty 133 7 0 10 #606060 #000000 #000000 0 1;
#X obj 203 220 hsl 61 8 0 127 0 1 \$0-param-19-s \$0-param-19-r empty 133 7 0 10 #7c7c7c #000000 #000000 0 1;
#X obj 136 251 hsl 61 8 0 127 0 1 \$0-param-12-s \$0-param-12-r empty 133 7 0 10 #606060 #000000 #000000 0 1;
#X obj 203 251 hsl 61 8 0 127 0 1 \$0-param-20-s \$0-param-20-r empty 133 7 0 10 #7c7c7c #000000 #000000 0 1;
#X obj 136 282 hsl 61 8 0 127 0 1 \$0-param-13-s \$0-param-13-r empty 133 7 0 10 #606060 #000000 #000000 0 1;
#X obj 203 282 hsl 61 8 0 127 0 1 \$0-param-21-s \$0-param-21-r empty 133 7 0 10 #7c7c7c #000000 #000000 0 1;
#X obj 136 313 hsl 61 8 0 127 0 1 \$0-param-14-s \$0-param-14-r empty 133 7 0 10 #606060 #000000 #000000 0 1;
#X obj 203 313 hsl 61 8 0 127 0 1 \$0-param-22-s \$0-param-22-r empty 133 7 0 10 #7c7c7c #000000 #000000 0 1;
#X obj 136 344 hsl 61 8 0 127 0 1 \$0-param-15-s \$0-param-15-r empty 133 7 0 10 #606060 #000000 #000000 0 1;
#X obj 203 344 hsl 61 8 0 127 0 1 \$0-param-23-s \$0-param-23-r empty 133 7 0 10 #7c7c7c #000000 #000000 0 1;
#X obj 298 118 cnv 5 5 5 empty empty MOD2 0 0 0 8 #fcfcfc #404040 0;
#X text 487 248 <--rename labels here;
#X text 527 268 <--modules values are saved here;
#X obj 337 118 text define -k \$0-modul-settings;
#A set SCENES \; GUI-SC \; LOAD \; COPY-SC \; LOAD \; SCENE_A \; SCENE_B \; FADE \; - \; SRC \; 7 \; #4a4d6a \; #5f738f \; #3b6ea8 \; #4fb0a8 \; #8fd3a6 \; #f2c14e \; #e07a5f \; #e6e6eb \;;
#N canvas 324 349 425 350 info 0;
#X text 23 12 This textfile contains all necessery names of the module and the names of the gui (faders etc.). This way its much easier to change the names of all elements simply by editing the text object.;
#X text 25 93 The Order of the file \; 0=Modul-Name \; 1=Name Param1 - write non if unused \; 2=Name Param2 \; 3=Name Param3 \; 4=Name Param4 \; 5=Name Param5 \; 6=Name Param6 \; 7=Name Param7 \; 8=Name Param8 \; 9=Type of Module (SRC \, MOD \, LFO \, EFX etc) \; 10=Number of used Parameters (1-8) \; 11=Color of Param1-Circle 12=Color of Param2-Circle \; 13=Color of Param3-Circle \; 14=Color of Param4-Circle \; 15=Color of Param5-Circle \; 16=Color of Param6-Circle \; 17=Color of Param7-Circle \; 18=Color of Param8-Circle \; ....;
#X restore 559 119 pd info;
#X text 537 118 ->;
#X text 335 98 Parameter-Values + Names + Colors:;
#X text 488 286 <--Opens the Options-Subpatch;
#X obj 337 334 s \$0-a;
#X obj 391 334 s \$0-b;
#X obj 445 334 s \$0-c;
#X obj 500 334 s \$0-d;
#X obj 554 333 s \$0-e;
#X obj 609 333 s \$0-f;
#X obj 663 332 s \$0-g;
#X obj 718 332 s \$0-h;
#X text 763 332 <--these go to the dsp-object;
#X text 437 206 <--receives encoder messages from mother.pd;
#X text 437 186 <--sends display info to mother.pd;
#X text 447 226 <--checks menu and if module is "active";
#X text 734 305 <--receives audio + message for mod;
#X obj 337 186 core_display \$0;
#X obj 337 206 core_encoder \$0;
#X obj 337 227 core_main_menu \$0;
#X obj 337 248 core_module_settings \$0;
#X obj 337 306 core_modulation_receiver \$0, f 64;
#X text 336 165 Modul Core:;
#X obj 339 502 s \$0-param-1-t;
#X msg 339 483 symbol \$1%;
#X floatatom 339 444 5 0 0 0 - - - 0;
#X obj 339 464 i;
#X obj 339 404 r \$0-param-1-s;
#X obj 435 425 / 1.27;
#X floatatom 435 444 5 0 0 0 - - - 0;
#X obj 435 464 i;
#X obj 435 404 r \$0-param-2-s;
#X obj 435 502 s \$0-param-2-t;
#X msg 533 482 symbol \$1%;
#X obj 533 424 / 1.27;
#X floatatom 533 443 5 0 0 0 - - - 0;
#X obj 533 463 i;
#X obj 533 403 r \$0-param-3-s;
#X obj 533 501 s \$0-param-3-t;
#X obj 633 424 / 1.27;
#X floatatom 633 443 5 0 0 0 - - - 0;
#X obj 633 463 i;
#X obj 633 403 r \$0-param-4-s;
#X obj 633 501 s \$0-param-4-t;
#X msg 339 623 symbol \$1%;
#X obj 339 565 / 1.27;
#X floatatom 339 584 5 0 0 0 - - - 0;
#X obj 339 604 i;
#X msg 435 623 symbol \$1%;
#X obj 435 565 / 1.27;
#X floatatom 435 584 5 0 0 0 - - - 0;
#X obj 435 604 i;
#X msg 533 622 symbol \$1%;
#X obj 533 564 / 1.27;
#X floatatom 533 583 5 0 0 0 - - - 0;
#X obj 533 603 i;
#X msg 633 622 symbol \$1%;
#X obj 633 564 / 1.27;
#X floatatom 633 583 5 0 0 0 - - - 0;
#X obj 633 603 i;
#X obj 339 544 r \$0-param-5-s;
#X obj 339 642 s \$0-param-5-t;
#X obj 435 544 r \$0-param-6-s;
#X obj 435 642 s \$0-param-6-t;
#X obj 533 543 r \$0-param-7-s;
#X obj 533 641 s \$0-param-7-t;
#X obj 633 543 r \$0-param-8-s;
#X obj 633 641 s \$0-param-8-t;
#X text 337 380 Value Display Representation:;
#X msg 435 483 symbol >>>;
#X msg 633 482 symbol >>>;
#X msg 1062 365 0;
#X obj 1065 298 loadbang;
#X msg 1114 403 1;
#X obj 1065 319 del 150;
#X obj 1022 494 del 300;
#X obj 337 268 core_state_saving \$0 \$1 \$2 \$3;
#X obj 339 425 / 64;
#X floatatom 275 516 5 0 0 0 - - - 0;
#X obj 175 603 vradio 16 1 0 2 empty empty empty 0 -8 0 10 #fcfcfc #000000 #000000 0;
#X obj 175 680 s scene-tester;
#X obj 18 39 loadbang;
#X msg 18 60 0;
#X obj 175 647 change;
#X obj 337 287 core_options \$0 \$1 \$2 \$3;
#X connect 0 0 36 0;
#X connect 5 0 33 0;
#X connect 10 0 35 0;
#X connect 15 0 19 1;
#X connect 17 0 19 0;
#X connect 19 0 20 0;
#X connect 20 0 21 0;
#X connect 26 0 29 1;
#X connect 28 0 29 0;
#X connect 29 0 30 0;
#X connect 30 0 31 0;
#X connect 32 0 153 0;
#X connect 33 0 39 0;
#X connect 35 0 40 0;
#X connect 39 0 34 0;
#X connect 40 0 37 0;
#X connect 41 0 42 0;
#X connect 42 0 39 0;
#X connect 43 0 44 0;
#X connect 44 0 40 0;
#X connect 45 0 0 0;
#X connect 99 0 82 0;
#X connect 99 1 83 0;
#X connect 99 2 84 0;
#X connect 99 3 85 0;
#X connect 99 4 86 0;
#X connect 99 5 87 0;
#X connect 99 6 88 0;
#X connect 99 7 89 0;
#X connect 102 0 101 0;
#X connect 103 0 104 0;
#X connect 104 0 102 0;
#X connect 104 0 156 0;
#X connect 105 0 155 0;
#X connect 106 0 107 0;
#X connect 107 0 108 0;
#X connect 108 0 147 0;
#X connect 109 0 106 0;
#X connect 111 0 116 0;
#X connect 112 0 113 0;
#X connect 113 0 114 0;
#X connect 114 0 111 0;
#X connect 115 0 112 0;
#X connect 117 0 118 0;
#X connect 118 0 119 0;
#X connect 119 0 148 0;
#X connect 120 0 117 0;
#X connect 122 0 139 0;
#X connect 123 0 124 0;
#X connect 124 0 125 0;
#X connect 125 0 122 0;
#X connect 126 0 141 0;
#X connect 127 0 128 0;
#X connect 128 0 129 0;
#X connect 129 0 126 0;
#X connect 130 0 143 0;
#X connect 131 0 132 0;
#X connect 132 0 133 0;
#X connect 133 0 130 0;
#X connect 134 0 145 0;
#X connect 135 0 136 0;
#X connect 136 0 137 0;
#X connect 137 0 134 0;
#X connect 138 0 123 0;
#X connect 140 0 127 0;
#X connect 142 0 131 0;
#X connect 144 0 135 0;
#X connect 147 0 110 0;
#X connect 148 0 121 0;
#X connect 149 0 5 0;
#X connect 150 0 152 0;
#X connect 151 0 10 0;
#X connect 152 0 149 0;
#X connect 152 0 151 0;
#X connect 153 0 17 0;
#X connect 153 0 45 0;
#X connect 155 0 103 0;
#X connect 156 0 157 0;
#X connect 157 0 161 0;
#X connect 159 0 160 0;
#X connect 160 0 49 0;
#X connect 161 0 158 0;
#X coords 0 -1 1 1 220 320 1 100 100;
