#N canvas 73 25 1367 801 10;
#X obj 134 127 cnv 5 5 5 empty \$0-modul-name KNOBS 0 0 0 12 #fcfcfc #404040 0;
#X obj 186 127 cnv 5 5 5 empty \$0-instance-num 1 0 0 0 12 #fcfcfc #404040 0;
#X text 747 248 <--rename labels here;
#X text 787 268 <--modules values are saved here;
#X obj 597 118 text define -k \$0-modul-settings;
#A set L-PASS \; LP1 \; LP2 \; LP3 \; LP4 \; LP5 \; LP6 \; LP7 \; LP8 \; SRC \; 8 \; #8f5adf \; #a86ada \; #c07cd2 \; #d48dc1 \; #e69fad \; #f3b08f \; #fbc070 \; #ffcf4f \;;
#N canvas 324 349 425 350 info 0;
#X text 23 12 This textfile contains all necessery names of the module and the names of the gui (faders etc.). This way its much easier to change the names of all elements simply by editing the text object.;
#X text 25 93 The Order of the file \; 0=Modul-Name \; 1=Name Param1 - write non if unused \; 2=Name Param2 \; 3=Name Param3 \; 4=Name Param4 \; 5=Name Param5 \; 6=Name Param6 \; 7=Name Param7 \; 8=Name Param8 \; 9=Type of Module (SRC \, MOD \, LFO \, EFX etc) \; 10=Number of used Parameters (1-8) \; 11=Color of Param1-Circle 12=Color of Param2-Circle \; 13=Color of Param3-Circle \; 14=Color of Param4-Circle \; 15=Color of Param5-Circle \; 16=Color of Param6-Circle \; 17=Color of Param7-Circle \; 18=Color of Param8-Circle \; ....;
#X restore 819 119 pd info;
#X text 797 118 ->;
#X text 595 98 Parameter-Values + Names + Colors:;
#X text 758 286 <--Opens the Options-Subpatch;
#X text 99 82 DESKTOP-GUI-INTERFACE:;
#X obj 599 522 s \$0-param-1-t;
#X msg 599 503 symbol \$1%;
#X obj 599 445 / 1.27;
#X floatatom 599 464 5 0 0 0 - - - 0;
#X obj 599 484 i;
#X text 697 206 <--receives encoder messages from mother.pd;
#X text 697 186 <--sends display info to mother.pd;
#X text 707 226 <--checks menu and if module is "active";
#X obj 599 424 r \$0-param-1-s;
#X msg 695 503 symbol \$1%;
#X obj 695 445 / 1.27;
#X floatatom 695 464 5 0 0 0 - - - 0;
#X obj 695 484 i;
#X obj 695 424 r \$0-param-2-s;
#X obj 695 522 s \$0-param-2-t;
#X msg 793 502 symbol \$1%;
#X obj 793 444 / 1.27;
#X floatatom 793 463 5 0 0 0 - - - 0;
#X obj 793 483 i;
#X obj 793 423 r \$0-param-3-s;
#X obj 793 521 s \$0-param-3-t;
#X msg 893 502 symbol \$1%;
#X obj 893 444 / 1.27;
#X floatatom 893 463 5 0 0 0 - - - 0;
#X obj 893 483 i;
#X obj 893 423 r \$0-param-4-s;
#X obj 893 521 s \$0-param-4-t;
#X msg 599 643 symbol \$1%;
#X obj 599 585 / 1.27;
#X floatatom 599 604 5 0 0 0 - - - 0;
#X obj 599 624 i;
#X msg 695 643 symbol \$1%;
#X obj 695 585 / 1.27;
#X floatatom 695 604 5 0 0 0 - - - 0;
#X obj 695 624 i;
#X msg 793 642 symbol \$1%;
#X obj 793 584 / 1.27;
#X floatatom 793 603 5 0 0 0 - - - 0;
#X obj 793 623 i;
#X msg 893 642 symbol \$1%;
#X obj 893 584 / 1.27;
#X floatatom 893 603 5 0 0 0 - - - 0;
#X obj 893 623 i;
#X obj 599 564 r \$0-param-5-s;
#X obj 599 662 s \$0-param-5-t;
#X obj 695 564 r \$0-param-6-s;
#X obj 695 662 s \$0-param-6-t;
#X obj 793 563 r \$0-param-7-s;
#X obj 793 661 s \$0-param-7-t;
#X obj 893 563 r \$0-param-8-s;
#X obj 893 661 s \$0-param-8-t;
#X obj 597 186 core_display \$0;
#X obj 597 206 core_encoder \$0;
#X obj 597 227 core_main_menu \$0;
#X obj 597 248 core_module_settings \$0;
#X text 596 165 Modul Core:;
#X text 597 400 Value Display Representation:;
#X obj 137 232 hsl 128 15 0 127 0 1 \$0-param-4-s \$0-param-4-r KNOB4 133 7 0 10 #d48dc1 #000000 #000000 2900 1;
#X obj 137 170 hsl 128 15 0 127 0 1 \$0-param-2-s \$0-param-2-r KNOB2 133 7 0 10 #a86ada #000000 #000000 0 1;
#X obj 137 263 hsl 128 15 0 127 0 1 \$0-param-5-s \$0-param-5-r KNOB5 133 7 0 10 #e69fad #000000 #000000 0 1;
#X obj 137 139 hsl 128 15 0 127 0 1 \$0-param-1-s \$0-param-1-r KNOB1 133 7 0 10 #8f5adf #000000 #000000 12700 1;
#X obj 137 294 hsl 128 15 0 127 0 1 \$0-param-6-s \$0-param-6-r KNOB6 133 7 0 10 #f3b08f #000000 #000000 0 1;
#X obj 137 325 hsl 128 15 0 127 0 1 \$0-param-7-s \$0-param-7-r KNOB7 133 7 0 10 #fbc070 #000000 #000000 0 1;
#X obj 137 201 hsl 128 15 0 127 0 1 \$0-param-3-s \$0-param-3-r KNOB3 133 7 0 10 #c07cd2 #000000 #000000 0 1;
#X obj 137 355 hsl 128 15 0 127 0 1 \$0-param-8-s \$0-param-8-r KNOB8 133 7 0 10 #ffcf4f #000000 #000000 0 1;
#X obj 597 307 core_mod_display \$0;
#X obj 597 287 core_options \$0 \$1 \$2 \$3;
#X obj 597 268 core_state_saving \$0 \$1 \$2 \$3;
#X obj 434 13 change;
#X obj 434 63 change;
#X obj 434 113 change;
#X obj 434 163 change;
#X obj 434 213 change;
#X obj 434 263 change;
#X obj 434 313 change;
#X obj 434 363 change;
#X obj 24 34 r 1-lp;
#X obj 434 35 s 1-lp;
#X obj 24 74 r 2-lp;
#X obj 434 85 s 2-lp;
#X obj 24 114 r 3-lp;
#X obj 434 135 s 3-lp;
#X obj 24 154 r 4-lp;
#X obj 434 185 s 4-lp;
#X obj 24 194 r 5-lp;
#X obj 24 234 r 6-lp;
#X obj 24 274 r 7-lp;
#X obj 434 235 s 5-lp;
#X obj 24 314 r 8-lp;
#X obj 434 285 s 6-lp;
#X obj 434 335 s 7-lp;
#X obj 434 385 s 8-lp;
#X connect 11 0 10 0;
#X connect 12 0 13 0;
#X connect 13 0 14 0;
#X connect 14 0 11 0;
#X connect 18 0 12 0;
#X connect 19 0 24 0;
#X connect 20 0 21 0;
#X connect 21 0 22 0;
#X connect 22 0 19 0;
#X connect 23 0 20 0;
#X connect 25 0 30 0;
#X connect 26 0 27 0;
#X connect 27 0 28 0;
#X connect 28 0 25 0;
#X connect 29 0 26 0;
#X connect 31 0 36 0;
#X connect 32 0 33 0;
#X connect 33 0 34 0;
#X connect 34 0 31 0;
#X connect 35 0 32 0;
#X connect 37 0 54 0;
#X connect 38 0 39 0;
#X connect 39 0 40 0;
#X connect 40 0 37 0;
#X connect 41 0 56 0;
#X connect 42 0 43 0;
#X connect 43 0 44 0;
#X connect 44 0 41 0;
#X connect 45 0 58 0;
#X connect 46 0 47 0;
#X connect 47 0 48 0;
#X connect 48 0 45 0;
#X connect 49 0 60 0;
#X connect 50 0 51 0;
#X connect 51 0 52 0;
#X connect 52 0 49 0;
#X connect 53 0 38 0;
#X connect 55 0 42 0;
#X connect 57 0 46 0;
#X connect 59 0 50 0;
#X connect 67 0 81 0;
#X connect 68 0 79 0;
#X connect 69 0 82 0;
#X connect 70 0 78 0;
#X connect 71 0 83 0;
#X connect 72 0 84 0;
#X connect 73 0 80 0;
#X connect 74 0 85 0;
#X connect 78 0 87 0;
#X connect 79 0 89 0;
#X connect 80 0 91 0;
#X connect 81 0 93 0;
#X connect 82 0 97 0;
#X connect 83 0 99 0;
#X connect 84 0 100 0;
#X connect 85 0 101 0;
#X connect 86 0 70 0;
#X connect 88 0 68 0;
#X connect 90 0 73 0;
#X connect 92 0 67 0;
#X connect 94 0 69 0;
#X connect 95 0 71 0;
#X connect 96 0 72 0;
#X connect 98 0 74 0;
#X coords 0 -1 1 1 220 290 1 100 100;
