#N canvas 885 102 933 569 12;
#X msg 37 303 connect localhost 9001;
#X obj 163 530 netsend -u;
#X floatatom 110 176 5 0 0 0 - - - 0;
#X msg 105 212 0 2 #ffffff black \$1;
#X msg 369 39 6 0 #ffffff black BPM:;
#X msg 331 212 0 2 #ffffff black I;
#X msg 347 236 0 2 #ffffff black II;
#X msg 353 263 0 2 #ffffff black III;
#X obj 650 73 tgl 19 0 empty empty empty 0 -10 0 12 #fcfcfc #000000 #000000 0 1;
#X obj 563 192 sel 0 1 2 3;
#X obj 605 131 metro 30;
#X obj 563 167 random 4;
#X msg 379 68 7 0 #ffffff black \$1;
#X floatatom 585 19 5 0 0 0 - - - 0;
#X msg 366 288 0 2 #ffffff black IIII;
#X msg 112 86 0 1 #000000 white FREQ;
#X msg 295 119 3 1 #000000 white FILTR;
#X obj 167 424 sel 0;
#X obj 332 421 sel 1;
#X obj 324 342 hradio 19 1 0 8 empty empty empty 0 -10 0 12 #fcfcfc #000000 #000000 0;
#X obj 527 384 sel 2;
#X obj 726 393 sel 3;
#X msg 149 465 0 10 #ffffff black KICK;
#X msg 163 488 0 10 #000000 white KICK;
#X msg 347 462 1 10 #ffffff black SNRE;
#X msg 346 495 1 10 #000000 white SNRE;
#X msg 525 442 2 10 #ffffff black HAT;
#X msg 533 486 2 10 #000000 white HAT;
#X msg 748 434 3 10 #ffffff black CYMBL;
#X msg 719 481 3 10 #000000 white CYMBL;
#X msg 98 35 0 0 #ffffff black SON \, mnG:;
#X connect 0 0 1 0;
#X connect 2 0 3 0;
#X connect 3 0 1 0;
#X connect 4 0 1 0;
#X connect 5 0 1 0;
#X connect 6 0 1 0;
#X connect 7 0 1 0;
#X connect 8 0 10 0;
#X connect 9 0 5 0;
#X connect 9 1 6 0;
#X connect 9 2 7 0;
#X connect 9 3 14 0;
#X connect 10 0 11 0;
#X connect 11 0 9 0;
#X connect 12 0 1 0;
#X connect 13 0 12 0;
#X connect 14 0 1 0;
#X connect 15 0 1 0;
#X connect 16 0 1 0;
#X connect 17 0 23 0;
#X connect 17 1 22 0;
#X connect 18 0 25 0;
#X connect 18 1 24 0;
#X connect 19 0 17 0;
#X connect 19 0 18 0;
#X connect 19 0 20 0;
#X connect 19 0 21 0;
#X connect 20 0 27 0;
#X connect 20 1 26 0;
#X connect 21 0 29 0;
#X connect 21 1 28 0;
#X connect 22 0 1 0;
#X connect 23 0 1 0;
#X connect 24 0 1 0;
#X connect 25 0 1 0;
#X connect 26 0 1 0;
#X connect 27 0 1 0;
#X connect 28 0 1 0;
#X connect 29 0 1 0;
#X connect 30 0 1 0;
