#N canvas 17 84 1423 788 10;
#X text 936 32 CLOCK IN;
#X obj 115 142 cnv 5 5 5 empty empty MONO-RHYTHM 0 0 0 12 #fcfcfc #404040 0;
#X text 1081 33 RESET IN;
#X obj 103 109 cnv 5 5 5 empty empty CLOCK-IN 0 0 0 8 #fcfcfc #dc4c90 0;
#X obj 293 109 cnv 5 5 5 empty empty RESET 0 0 0 8 #fcfcfc #dc4c90 0;
#X obj 297 115 bng 10 50 50 0 \$0reset-clock-gui-s \$0reset-clock-gui-r empty 17 7 0 10 #fcfcfc #fc0400 #000000;
#X obj 1084 128 t b b;
#X obj 1124 134 loadbang;
#X obj 938 100 t b b;
#X obj 105 116 bng 10 50 50 0 \$0-clock-in-s \$0-clock-in-r empty 17 7 0 10 #fcfcfc #dc4c90 #000000;
#N canvas 154 56 1238 729 state-saving-multiple-instances 0;
#X obj 205 -49 loadbang;
#X obj 628 239 textfile;
#X msg 917 223 rewind;
#X msg 874 223 bang;
#X obj 110 663 textfile;
#X obj 874 184 t b b;
#X obj 111 329 f;
#X obj 124 552 f;
#X obj 52 373 t b b b;
#X msg 187 552 clear;
#X obj 264 57 outlet;
#X text 306 58 INSTANCE NUMBER;
#X obj 225 15 f \$1;
#X obj 225 34 t f f f;
#X obj 52 350 bng 15 250 50 0 empty empty empty 17 7 0 10 #fcfcfc #000000 #000000;
#X obj 52 206 r SAVE-S;
#X obj 111 100 r \$0-diet-drum-seq-mute1-s;
#X obj 123 123 r \$0-diet-drum-seq-mute2-s;
#X obj 137 144 r \$0-diet-drum-seq-mute3-s;
#X obj 155 169 r \$0-diet-drum-seq-mute4-s;
#X obj 175 194 r \$0-diet-drum-seq-mute5-s;
#X obj 193 215 r \$0-diet-drum-seq-mute6-s;
#X obj 223 240 r \$0-diet-drum-seq-mute7-s;
#X obj 243 265 r \$0-diet-drum-seq-mute8-s;
#X obj 607 580 s \$0-diet-drum-seq-mute1-r;
#X obj 628 556 s \$0-diet-drum-seq-mute2-r;
#X obj 649 532 s \$0-diet-drum-seq-mute3-r;
#X obj 670 508 s \$0-diet-drum-seq-mute4-r;
#X obj 691 482 s \$0-diet-drum-seq-mute5-r;
#X obj 712 458 s \$0-diet-drum-seq-mute6-r;
#X obj 722 423 s \$0-diet-drum-seq-mute7-r;
#X obj 743 397 s \$0-diet-drum-seq-mute8-r;
#X obj 261 286 r \$0-diet-drum-seq-stutter-length-s;
#X obj 764 373 s \$0-diet-drum-seq-stutter-length-r;
#X obj 271 309 r \$0-diet-drum-seq-pattern-s;
#X obj 774 353 s \$0-diet-drum-seq-pattern-r;
#X obj 281 329 r \$0-diet-drum-seq-page-s;
#X obj 784 333 s \$0-diet-drum-seq-page-r;
#X obj 287 348 r \$0-midi-channel-in-s;
#X obj 798 312 s \$0-midi-channel-in-r;
#X msg 111 440 set \$1 \$2 \$3 \$4 \$5 \$6 \$7 \$8 \$9 \$10 \$11 \$12 \$13;
#X obj 111 402 pack f f f f f f f f f f f f f;
#X obj 628 263 unpack f f f f f f f f f f f f f;
#X obj 294 372 r \$0-midi-channel-out-s;
#X obj 817 293 s \$0-midi-channel-out-r;
#X obj 683 73 r patch-path;
#X msg 627 132 read /Users/johannklug/Documents/Bass\ Dieter/2025/Diet/MODULAR_LIVE_\ PERFORMER/patch1/statesave/3-mono-rhythm-ss.txt;
#X obj 638 92 pack f s;
#X obj 627 51 f;
#X obj 627 72 t b f;
#X obj 206 -16 t b b b;
#X obj 256 14 s update-path;
#X obj 305 515 r patch-path;
#X obj 260 534 pack f s;
#X obj 249 493 f;
#X obj 249 514 t b f;
#X msg 249 574 write /Users/johannklug/Documents/Bass\ Dieter/2025/Diet/MODULAR_LIVE_\ PERFORMER/patch1/statesave/3-mono-rhythm-ss.txt;
#X obj 149 0 bng 16 250 50 0 empty empty empty 0 -8 0 10 #fcfcfc #000000 #000000;
#X obj 1095 196 text;
#X msg 638 111 set read \$2/statesave/\$1-mono-rhythm-ss.txt;
#X msg 260 553 set write \$2/statesave/\$1-mono-rhythm-ss.txt;
#X connect 0 0 50 0;
#X connect 1 0 42 0;
#X connect 2 0 1 0;
#X connect 3 0 1 0;
#X connect 5 0 3 0;
#X connect 5 1 2 0;
#X connect 6 0 41 0;
#X connect 8 0 7 0;
#X connect 8 0 54 0;
#X connect 8 1 6 0;
#X connect 8 2 9 0;
#X connect 9 0 4 0;
#X connect 12 0 13 0;
#X connect 13 0 7 1;
#X connect 13 0 54 1;
#X connect 13 1 48 0;
#X connect 13 2 10 0;
#X connect 14 0 8 0;
#X connect 15 0 14 0;
#X connect 16 0 6 1;
#X connect 17 0 41 1;
#X connect 18 0 41 2;
#X connect 19 0 41 3;
#X connect 20 0 41 4;
#X connect 21 0 41 5;
#X connect 22 0 41 6;
#X connect 23 0 41 7;
#X connect 32 0 41 8;
#X connect 34 0 41 9;
#X connect 36 0 41 10;
#X connect 38 0 41 11;
#X connect 40 0 4 0;
#X connect 41 0 40 0;
#X connect 42 0 24 0;
#X connect 42 1 25 0;
#X connect 42 2 26 0;
#X connect 42 3 27 0;
#X connect 42 4 28 0;
#X connect 42 5 29 0;
#X connect 42 6 30 0;
#X connect 42 7 31 0;
#X connect 42 8 33 0;
#X connect 42 9 35 0;
#X connect 42 10 37 0;
#X connect 42 11 39 0;
#X connect 42 12 44 0;
#X connect 43 0 41 12;
#X connect 45 0 47 1;
#X connect 46 0 1 0;
#X connect 47 0 59 0;
#X connect 48 0 49 0;
#X connect 49 0 46 0;
#X connect 49 1 47 0;
#X connect 50 0 5 0;
#X connect 50 1 12 0;
#X connect 50 2 51 0;
#X connect 52 0 53 1;
#X connect 53 0 60 0;
#X connect 54 0 55 0;
#X connect 55 0 56 0;
#X connect 55 1 53 0;
#X connect 56 0 4 0;
#X connect 57 0 50 0;
#X connect 59 0 46 0;
#X connect 60 0 56 0;
#X restore -216 46 pd state-saving-multiple-instances;
#X obj -205 101 s \$0-instance-num;
#X obj -206 64 makefilename %d;
#X obj 200 142 cnv 5 5 5 empty \$0-instance-num 3 0 0 0 12 #fcfcfc #404040 0;
#X msg -205 83 label \$1;
#X obj 114 151 hradio 15 1 0 8 empty \$0-count-seq empty 0 -10 0 12 #fcfcfc #ce2413 #000000 0;
#X obj 114 173 vsl 15 30 0 127 0 0 \$0-step-edit0 \$0-r-step-edit0 empty 0 -9 0 10 #dfdfdf #000000 #000000 0 1;
#X obj 129 173 vsl 15 30 0 127 0 0 \$0-step-edit1 \$0-r-step-edit1 empty 0 -9 0 10 #fcfcfc #000000 #000000 0 1;
#X obj 144 173 vsl 15 30 0 127 0 0 \$0-step-edit2 \$0-r-step-edit2 empty 0 -9 0 10 #fcfcfc #000000 #000000 0 1;
#X obj 159 173 vsl 15 30 0 127 0 0 \$0-step-edit3 \$0-r-step-edit3 empty 0 -9 0 10 #fcfcfc #000000 #000000 0 1;
#X obj 174 173 vsl 15 30 0 127 0 0 \$0-step-edit4 \$0-r-step-edit4 empty 0 -9 0 10 #dfdfdf #000000 #000000 0 1;
#X obj 189 173 vsl 15 30 0 127 0 0 \$0-step-edit5 \$0-r-step-edit5 empty 0 -9 0 10 #fcfcfc #000000 #000000 0 1;
#X obj 204 173 vsl 15 30 0 127 0 0 \$0-step-edit6 \$0-r-step-edit6 empty 0 -9 0 10 #fcfcfc #000000 #000000 0 1;
#X obj 219 173 vsl 15 30 0 127 0 0 \$0-step-edit7 \$0-r-step-edit7 empty 0 -9 0 10 #fcfcfc #000000 #000000 0 1;
#X obj 114 211 vsl 15 30 0 127 0 0 \$0-step-edit8 \$0-r-step-edit8 empty 0 -9 0 10 #dfdfdf #000000 #000000 0 1;
#X obj 129 211 vsl 15 30 0 127 0 0 \$0-step-edit9 \$0-r-step-edit9 empty 0 -9 0 10 #fcfcfc #000000 #000000 0 1;
#X obj 144 211 vsl 15 30 0 127 0 0 \$0-step-edit10 \$0-r-step-edit10 empty 0 -9 0 10 #fcfcfc #000000 #000000 0 1;
#X obj 159 211 vsl 15 30 0 127 0 0 \$0-step-edit11 \$0-r-step-edit11 empty 0 -9 0 10 #fcfcfc #000000 #000000 0 1;
#X obj 174 211 vsl 15 30 0 127 0 0 \$0-step-edit12 \$0-r-step-edit12 empty 0 -9 0 10 #dfdfdf #000000 #000000 0 1;
#X obj 189 211 vsl 15 30 0 127 0 0 \$0-step-edit13 \$0-r-step-edit13 empty 0 -9 0 10 #fcfcfc #000000 #000000 0 1;
#X obj 204 211 vsl 15 30 0 127 0 0 \$0-step-edit14 \$0-r-step-edit14 empty 0 -9 0 10 #fcfcfc #000000 #000000 0 1;
#X obj 219 211 vsl 15 30 0 127 0 0 \$0-step-edit15 \$0-r-step-edit15 empty 0 -9 0 10 #fcfcfc #000000 #000000 0 1;
#N canvas 0 25 1440 789 step-indicator 0;
#X obj 200 203 t f f f f;
#X floatatom 230 459 5 0 0 0 - - - 0;
#X floatatom 80 435 5 0 0 0 - - - 0;
#X obj 80 283 max 0;
#X obj 80 307 min 15;
#X obj 230 282 max 16;
#X obj 230 306 min 31;
#X obj 390 282 max 32;
#X obj 390 306 min 47;
#X obj 550 282 max 48;
#X obj 550 306 min 63;
#X floatatom 550 459 5 0 0 0 - - - 0;
#X floatatom 390 459 5 0 0 0 - - - 0;
#X obj 230 330 - 16;
#X obj 390 330 - 32;
#X obj 550 330 - 48;
#X obj 80 411 spigot;
#X obj 103 357 sel 0;
#X msg 103 381 1;
#X msg 135 380 0;
#X obj 231 433 spigot;
#X msg 254 403 1;
#X msg 286 402 0;
#X obj 390 433 spigot;
#X msg 413 403 1;
#X msg 445 402 0;
#X obj 550 433 spigot;
#X msg 573 403 1;
#X msg 605 402 0;
#X obj 254 379 sel 1;
#X obj 413 379 sel 2;
#X obj 573 379 sel 3;
#X obj 239 81 r \$0-diet-drum-seq-set-instrument-s;
#X obj 80 465 s \$0-count-seq;
#X obj 230 495 s \$0-count-seq;
#X obj 390 495 s \$0-count-seq;
#X obj 550 498 s \$0-count-seq;
#X obj 103 330 r \$0-set-pattern-pos;
#X obj 254 352 r \$0-set-pattern-pos;
#X obj 413 352 r \$0-set-pattern-pos;
#X obj 573 352 r \$0-set-pattern-pos;
#X obj 200 133 route 1;
#X floatatom 135 189 5 0 0 0 - - - 0;
#X floatatom 240 171 5 0 0 0 - - - 0;
#X floatatom 293 147 5 0 0 0 - - - 0;
#X obj 239 102 + 1;
#X obj 200 62 r \$0-count-seq-pre;
#X connect 0 0 3 0;
#X connect 0 1 5 0;
#X connect 0 2 7 0;
#X connect 0 3 9 0;
#X connect 1 0 34 0;
#X connect 2 0 33 0;
#X connect 3 0 4 0;
#X connect 4 0 16 0;
#X connect 5 0 6 0;
#X connect 6 0 13 0;
#X connect 7 0 8 0;
#X connect 8 0 14 0;
#X connect 9 0 10 0;
#X connect 10 0 15 0;
#X connect 11 0 36 0;
#X connect 12 0 35 0;
#X connect 13 0 20 0;
#X connect 14 0 23 0;
#X connect 15 0 26 0;
#X connect 16 0 2 0;
#X connect 17 0 18 0;
#X connect 17 1 19 0;
#X connect 18 0 16 1;
#X connect 19 0 16 1;
#X connect 20 0 1 0;
#X connect 21 0 20 1;
#X connect 22 0 20 1;
#X connect 23 0 12 0;
#X connect 24 0 23 1;
#X connect 25 0 23 1;
#X connect 26 0 11 0;
#X connect 27 0 26 1;
#X connect 28 0 26 1;
#X connect 29 0 21 0;
#X connect 29 1 22 0;
#X connect 30 0 24 0;
#X connect 30 1 25 0;
#X connect 31 0 27 0;
#X connect 31 1 28 0;
#X connect 32 0 45 0;
#X connect 37 0 17 0;
#X connect 38 0 29 0;
#X connect 39 0 30 0;
#X connect 40 0 31 0;
#X connect 41 0 0 0;
#X connect 41 0 43 0;
#X connect 45 0 41 1;
#X connect 45 0 44 0;
#X connect 46 0 41 0;
#X connect 46 0 42 0;
#X restore -216 158 pd step-indicator;
#N canvas 652 91 716 627 load-steplength 0;
#X obj 127 312 +;
#X obj 127 292 t b f;
#X obj 497 218 t b;
#X obj 464 269 spigot;
#X msg 497 237 0;
#X obj 127 230 t f b;
#X obj 533 234 del 5;
#X msg 533 253 1;
#X obj 127 362 outlet;
#X obj 437 92 inlet;
#X obj 88 125 r \$0-load-pattern;
#X obj 127 162 s \$0-wait-after-load;
#X obj 154 251 s \$0-wait-after-load;
#X obj 497 198 r \$0-wait-after-load;
#X obj 127 342 tabread \$0-pattern;
#X obj 464 298 tabwrite \$0-pattern;
#X obj 437 127 t b f;
#X floatatom 50 337 5 0 0 0 - - - 0;
#X obj 127 273 + 12;
#X obj 88 143 t b f b b;
#X obj 127 191 loadbang;
#X msg 127 210 0;
#X connect 0 0 14 0;
#X connect 0 0 15 1;
#X connect 1 0 0 0;
#X connect 1 1 0 1;
#X connect 2 0 4 0;
#X connect 2 0 6 0;
#X connect 3 0 15 0;
#X connect 4 0 3 1;
#X connect 5 0 18 0;
#X connect 5 1 12 0;
#X connect 6 0 7 0;
#X connect 7 0 3 1;
#X connect 9 0 16 0;
#X connect 10 0 19 0;
#X connect 13 0 2 0;
#X connect 14 0 8 0;
#X connect 16 1 3 0;
#X connect 18 0 1 0;
#X connect 18 0 17 0;
#X connect 19 0 0 0;
#X connect 19 2 11 0;
#X connect 20 0 21 0;
#X connect 21 0 5 0;
#X restore 105 789 pd load-steplength;
#X obj 111 753 t b;
#N canvas 42 54 1068 759 pattern-reader 0;
#X obj 244 433 mod;
#X obj 244 385 f;
#X obj 278 385 + 1;
#X msg 259 365 0;
#X obj 98 98 t b f;
#X msg 98 118 11;
#X obj 98 139 + \$1;
#X obj 431 545 \$1;
#X obj 431 569 * 100;
#X obj 431 595 + 400;
#X obj 246 611 +;
#X obj 431 511 t b f;
#X text 268 33 TRIGGER-TRIMING A;
#X obj 213 1407 outlet;
#X obj 98 77 f;
#X obj 488 13 inlet;
#X obj 242 13 inlet;
#X obj 259 346 r \$0reset-clock;
#X obj 246 740 sel 0;
#X obj 286 1409 outlet;
#X obj 286 1149 f;
#X text 458 43 INSTRUMENT-NUMBER;
#X text 306 484 STUTTER-EFFECT;
#N canvas 726 25 499 586 stutter 0;
#X obj 80 29 inlet;
#X obj 80 251 spigot;
#X obj 95 202 sel 0;
#X msg 95 223 1;
#X msg 127 222 0;
#X obj 172 182 spigot;
#X msg 228 155 0;
#X floatatom 80 371 5 0 0 0 - - - 0;
#X obj 219 328 mod;
#X floatatom 300 294 5 0 0 0 - - - 0;
#X obj 219 284 f;
#X obj 253 284 + 1;
#X msg 234 258 0;
#X floatatom 172 203 5 0 0 0 - - - 0;
#X obj 95 127 r \$0-stutter-on-off;
#X obj 205 87 r \$0-stutter-on-off;
#X obj 80 67 t f f;
#X obj 172 222 t f b;
#X obj 145 154 t b f;
#X obj 171 353 +;
#X obj 235 207 r \$0-stutter-on-off;
#X obj 235 228 sel 0;
#X floatatom 171 374 5 0 0 0 - - - 0;
#X obj 166 258 spigot;
#X obj 300 257 r \$0-stutter-length;
#X obj 80 497 outlet;
#X obj 355 38 inlet;
#X obj 171 415 mod;
#X obj 311 332 change;
#X obj 284 433 f;
#X obj 309 387 t b f;
#X floatatom 171 436 5 0 0 0 - - - 0;
#X connect 0 0 16 0;
#X connect 1 0 7 0;
#X connect 2 0 3 0;
#X connect 2 1 4 0;
#X connect 3 0 1 1;
#X connect 4 0 1 1;
#X connect 5 0 13 0;
#X connect 6 0 5 1;
#X connect 7 0 25 0;
#X connect 8 0 19 0;
#X connect 9 0 8 1;
#X connect 9 0 28 0;
#X connect 10 0 11 0;
#X connect 10 0 8 0;
#X connect 11 0 10 1;
#X connect 12 0 10 1;
#X connect 12 0 23 1;
#X connect 13 0 17 0;
#X connect 14 0 2 0;
#X connect 15 0 5 1;
#X connect 15 0 23 1;
#X connect 16 0 1 0;
#X connect 16 1 18 0;
#X connect 17 0 19 1;
#X connect 17 1 6 0;
#X connect 18 0 23 0;
#X connect 18 1 5 0;
#X connect 19 0 22 0;
#X connect 20 0 21 0;
#X connect 21 0 12 0;
#X connect 22 0 27 0;
#X connect 23 0 10 0;
#X connect 24 0 9 0;
#X connect 26 0 27 1;
#X connect 27 0 25 0;
#X connect 27 0 29 1;
#X connect 27 0 31 0;
#X connect 28 0 30 0;
#X connect 29 0 17 0;
#X connect 30 0 29 0;
#X restore 246 513 pd stutter;
#X msg 916 729 0;
#X obj 934 652 tgl 16 0 empty empty empty 0 -8 0 10 #fcfcfc #000000 #000000 0 1;
#X obj 901 676 spigot;
#X obj 246 650 t f b b f;
#X obj 934 413 r \$0-diet-drum-seq-erase-s;
#X obj 950 588 sel \$1;
#X msg 950 607 1;
#X obj 934 629 spigot;
#X msg 983 607 0;
#X obj 950 568 + 1;
#X floatatom 638 538 5 0 0 0 - - - 0;
#X floatatom 695 538 5 0 0 0 - - - 0;
#X obj 695 558 > 0;
#X obj 695 579 tgl 16 0 empty empty empty 0 -8 0 10 #fcfcfc #000000 #000000 0 1;
#X obj 662 621 spigot;
#X obj 623 669 f;
#X obj 728 580 r \$0-diet-drum-seq-rec-s;
#X obj 695 601 spigot;
#X obj 247 1024 sel 1;
#X msg 247 1065 0;
#X msg 276 1065 1;
#X obj 214 1090 spigot;
#X obj 415 945 spigot;
#X obj 382 1025 f;
#X obj 382 966 spigot;
#X obj 246 713 t f f b;
#X obj 98 182 tabread \$0-pattern;
#X obj 246 693 tabread \$0-pattern;
#X obj 623 718 tabwrite \$0-pattern;
#X obj 92 577 pack f f;
#X obj 92 538 f \$1;
#X obj 100 557 t b f;
#X obj 92 596 s \$0-count-seq-pre;
#X obj 287 1023 loadbang;
#X obj 47 9 r \$0-reload-pattern-length;
#X obj 98 53 r \$0-load-pattern;
#X obj 906 774 s \$0-diet-drum-seq-update-gui;
#X obj 950 547 r \$0-diet-drum-seq-set-instrument-s;
#X obj 431 474 r \$0-load-pattern;
#X obj 662 647 s \$0-diet-drum-seq-update-gui;
#X obj 695 405 r \$0-gate-in;
#X obj 639 386 r \$0-pitch-in;
#X obj 711 468 sel \$1;
#X msg 711 487 1;
#X obj 695 509 spigot;
#X msg 744 487 0;
#X obj 711 448 + 1;
#X obj 711 427 r \$0-diet-drum-seq-set-instrument-s;
#X floatatom 397 1007 5 0 0 0 - - - 0;
#X floatatom 415 883 5 0 0 0 - - - 0;
#X obj 415 903 > 0;
#X obj 415 924 tgl 16 0 empty empty empty 0 -8 0 10 #fcfcfc #000000 #000000 0 1;
#X obj 415 750 r \$0-gate-in;
#X obj 397 986 r \$0-pitch-in;
#X obj 431 813 sel \$1;
#X msg 431 832 1;
#X obj 415 854 spigot;
#X msg 464 832 0;
#X obj 431 793 + 1;
#X obj 431 772 r \$0-diet-drum-seq-set-instrument-s;
#X obj 448 925 r \$0-diet-drum-seq-pass-s;
#X text 285 1428 CV-OUT;
#X text 201 1429 TRIGGER-OUT;
#X floatatom 394 624 5 0 0 0 - - - 0;
#X floatatom 149 722 5 0 0 0 - - - 0;
#X obj 98 214 / 127;
#X obj 98 235 * 63;
#X obj 98 256 + 1;
#X obj 98 277 i;
#X obj 98 312 + 0;
#X floatatom 49 163 5 0 0 0 - - - 0;
#X obj 765 284 loadbang;
#X msg 765 303 0;
#X obj 585 807 loadbang;
#X msg 585 826 0;
#X obj 180 936 bng 16 250 50 0 empty empty empty 0 -8 0 10 #fcfcfc #000000 #000000;
#X connect 0 0 23 0;
#X connect 1 0 2 0;
#X connect 1 0 0 0;
#X connect 2 0 1 1;
#X connect 3 0 1 1;
#X connect 4 0 5 0;
#X connect 5 0 6 0;
#X connect 6 0 50 0;
#X connect 6 0 94 0;
#X connect 7 0 8 0;
#X connect 8 0 9 0;
#X connect 9 0 10 1;
#X connect 9 0 87 0;
#X connect 10 0 27 0;
#X connect 11 0 7 0;
#X connect 14 0 4 0;
#X connect 15 0 6 1;
#X connect 15 0 7 1;
#X connect 15 0 29 1;
#X connect 15 0 54 0;
#X connect 15 0 66 1;
#X connect 15 0 78 1;
#X connect 16 0 1 0;
#X connect 17 0 3 0;
#X connect 18 1 45 0;
#X connect 18 1 99 0;
#X connect 20 0 19 0;
#X connect 23 0 10 0;
#X connect 23 0 55 0;
#X connect 24 0 52 0;
#X connect 25 0 26 1;
#X connect 26 0 24 0;
#X connect 26 0 60 0;
#X connect 27 0 51 0;
#X connect 27 0 88 0;
#X connect 27 2 26 0;
#X connect 27 2 38 0;
#X connect 27 3 52 1;
#X connect 28 0 31 0;
#X connect 29 0 30 0;
#X connect 29 1 32 0;
#X connect 30 0 31 1;
#X connect 31 0 25 0;
#X connect 32 0 31 1;
#X connect 33 0 29 0;
#X connect 34 0 39 1;
#X connect 35 0 36 0;
#X connect 36 0 37 0;
#X connect 37 0 41 0;
#X connect 38 0 39 0;
#X connect 38 0 63 0;
#X connect 39 0 52 0;
#X connect 40 0 41 1;
#X connect 41 0 38 1;
#X connect 42 0 43 0;
#X connect 42 1 44 0;
#X connect 43 0 45 1;
#X connect 44 0 45 1;
#X connect 45 0 20 0;
#X connect 45 0 13 0;
#X connect 46 0 42 0;
#X connect 46 0 48 1;
#X connect 47 0 19 0;
#X connect 48 0 47 0;
#X connect 49 0 18 0;
#X connect 49 1 20 1;
#X connect 49 2 48 0;
#X connect 50 0 89 0;
#X connect 51 0 49 0;
#X connect 53 0 56 0;
#X connect 54 0 53 0;
#X connect 55 0 53 0;
#X connect 55 1 53 1;
#X connect 57 0 44 0;
#X connect 58 0 14 0;
#X connect 59 0 14 0;
#X connect 61 0 33 0;
#X connect 62 0 11 0;
#X connect 64 0 68 0;
#X connect 65 0 34 0;
#X connect 66 0 67 0;
#X connect 66 1 69 0;
#X connect 67 0 68 1;
#X connect 68 0 35 0;
#X connect 69 0 68 1;
#X connect 70 0 66 0;
#X connect 71 0 70 0;
#X connect 72 0 47 1;
#X connect 73 0 74 0;
#X connect 74 0 75 0;
#X connect 75 0 46 0;
#X connect 76 0 80 0;
#X connect 77 0 72 0;
#X connect 78 0 79 0;
#X connect 78 1 81 0;
#X connect 79 0 80 1;
#X connect 80 0 73 0;
#X connect 81 0 80 1;
#X connect 82 0 78 0;
#X connect 83 0 82 0;
#X connect 84 0 46 1;
#X connect 89 0 90 0;
#X connect 90 0 91 0;
#X connect 91 0 92 0;
#X connect 92 0 93 0;
#X connect 93 0 0 1;
#X connect 93 0 23 1;
#X connect 95 0 96 0;
#X connect 96 0 70 0;
#X connect 96 0 33 0;
#X connect 97 0 98 0;
#X connect 98 0 82 0;
#X restore 1115 515 pd pattern-reader;
#X msg 1214 474 1;
#X obj 1214 455 loadbang;
#X obj 1084 218 s \$0reset-clock;
#X obj 100 514 bng 15 50 50 0 \$0-load-pattern2 \$0-load-pattern2-r LOAD 18 8 0 8 #fcfcfc #fc0400 #000000;
#X obj 151 253 cnv 5 5 5 empty empty 33-48 0 0 0 8 #fcfcfc #000000 0;
#X obj 114 254 cnv 5 5 5 empty empty 1-16 0 0 0 8 #fcfcfc #000000 0;
#X obj 131 262 cnv 5 5 5 empty empty 17-32 0 0 0 8 #fcfcfc #000000 0;
#X obj 171 261 cnv 5 5 5 empty empty 49-64 0 0 0 8 #fcfcfc #000000 0;
#X obj 938 137 s \$0-clock-in;
#X obj 1115 477 r \$0-clock-in;
#X obj 234 268 tgl 15 0 \$0-stutter-on-off \$0-stutter-on-off-r empty 0 -8 0 10 #fcfcfc #000000 #000000 0 1;
#X obj 174 268 hradio 15 1 0 4 \$0-diet-drum-seq-stutter-length-s \$0-diet-drum-seq-stutter-length-r empty 0 -8 0 10 #ffc7c6 #000000 #000000 0;
#X obj 104 581 s \$0-stutter-length;
#X obj 104 554 + 1;
#X obj 241 158 cnv 5 5 5 empty empty STEP 0 0 0 8 #fcfcfc #000000 0;
#X obj 259 276 cnv 5 5 5 empty empty STUTTER 0 0 0 8 #fcfcfc #000000 0;
#X obj -214 429 loadbang;
#X obj -214 450 del 200;
#X msg -214 474 0;
#X obj 240 229 tgl 15 0 \$0-diet-drum-seq-erase-s \$0-diet-drum-seq-erase-r empty 0 -8 0 10 #fcfcfc #000000 #000000 0 1;
#X obj 260 236 cnv 5 5 5 empty empty ERASE 0 0 0 8 #fcfcfc #000000 0;
#X obj 430 33 tgl 15 0 \$0-diet-drum-seq-rec-s \$0-diet-drum-seq-rec-r empty 0 -8 0 10 #fcfcfc #000000 #000000 0 1;
#X obj 448 40 cnv 5 5 5 empty empty REC 0 0 0 8 #fcfcfc #000000 0;
#X obj 369 33 tgl 15 0 \$0-diet-drum-seq-pass-s \$0-diet-drum-seq-pass-r empty 0 -8 0 10 #fcfcfc #000000 #000000 0 1;
#X obj 387 41 cnv 5 5 5 empty empty THROUGH 0 0 0 8 #fcfcfc #000000 0;
#X obj -216 177 table \$0-pattern;
#X obj 111 771 s \$0-reload-pattern-length;
#N canvas 506 196 825 618 load-array-to-gui-patches 0;
#N canvas 565 97 762 668 step-load 0;
#X floatatom 206 590 5 0 0 0 - - - 0;
#X obj 248 287 * 100;
#X obj 248 313 + 400;
#X obj 248 263 + 1;
#X obj 248 377 +;
#X obj 248 337 t b f;
#X floatatom 513 346 5 0 0 0 - - - 0;
#X obj 552 392 t b;
#X obj 513 469 spigot;
#X msg 552 416 0;
#X obj 214 138 t b f b;
#X obj 248 223 t f b;
#X obj 588 415 del 5;
#X msg 588 439 1;
#X obj 331 386 * 16;
#X floatatom 331 410 5 0 0 0 - - - 0;
#X obj 243 460 +;
#X obj 312 338 t b f b;
#X obj 214 117 f;
#X obj 511 35 inlet;
#X obj 206 557 tabread \$0-pattern;
#X obj 206 639 outlet;
#X obj 513 548 tabwrite \$0-pattern;
#X obj 153 31 r \$0-diet-drum-seq-update-gui;
#X obj 214 95 r \$0-load-pattern;
#X obj 253 159 s \$0-wait-after-load;
#X obj 248 199 r \$0-diet-drum-seq-set-instrument-s;
#X obj 275 243 s \$0-wait-after-load;
#X obj 312 316 r \$0-set-pattern-pos;
#X obj 351 361 s \$0-wait-after-load;
#X obj 552 368 r \$0-wait-after-load;
#X obj 214 269 f;
#X obj 553 35 inlet;
#X obj 135 160 loadbang;
#X msg 135 181 0;
#X connect 0 0 21 0;
#X connect 1 0 2 0;
#X connect 2 0 5 0;
#X connect 3 0 1 0;
#X connect 4 0 16 0;
#X connect 5 0 4 0;
#X connect 5 1 4 1;
#X connect 6 0 8 0;
#X connect 7 0 9 0;
#X connect 7 0 12 0;
#X connect 8 0 22 0;
#X connect 9 0 8 1;
#X connect 10 0 31 0;
#X connect 10 2 25 0;
#X connect 11 0 3 0;
#X connect 11 1 27 0;
#X connect 12 0 13 0;
#X connect 13 0 8 1;
#X connect 14 0 15 0;
#X connect 15 0 16 1;
#X connect 16 0 20 0;
#X connect 16 0 22 1;
#X connect 17 0 16 0;
#X connect 17 1 14 0;
#X connect 17 2 29 0;
#X connect 18 0 10 0;
#X connect 19 0 6 0;
#X connect 20 0 0 0;
#X connect 23 0 18 0;
#X connect 24 0 18 0;
#X connect 26 0 11 0;
#X connect 28 0 17 0;
#X connect 30 0 7 0;
#X connect 31 0 4 0;
#X connect 32 0 31 1;
#X connect 33 0 34 0;
#X connect 34 0 11 0;
#X restore 120 133 pd step-load;
#X floatatom 120 92 5 0 0 0 - - - 0;
#X obj 120 71 r \$0-step-edit0;
#X obj 120 153 s \$0-r-step-edit0;
#X obj 189 91 loadbang;
#X msg 189 112 0;
#N canvas 565 97 762 668 step-load 0;
#X floatatom 206 590 5 0 0 0 - - - 0;
#X obj 248 287 * 100;
#X obj 248 313 + 400;
#X obj 248 263 + 1;
#X obj 248 377 +;
#X obj 248 337 t b f;
#X floatatom 513 346 5 0 0 0 - - - 0;
#X obj 552 392 t b;
#X obj 513 469 spigot;
#X msg 552 416 0;
#X obj 206 138 t b f b;
#X obj 248 223 t f b;
#X obj 588 415 del 5;
#X msg 588 439 1;
#X obj 312 386 * 16;
#X floatatom 312 410 5 0 0 0 - - - 0;
#X obj 243 460 +;
#X obj 312 338 t b f b;
#X obj 207 106 f;
#X obj 511 35 inlet;
#X obj 206 557 tabread \$0-pattern;
#X obj 206 639 outlet;
#X obj 513 548 tabwrite \$0-pattern;
#X obj 153 31 r \$0-diet-drum-seq-update-gui;
#X obj 206 63 r \$0-load-pattern;
#X obj 252 164 s \$0-wait-after-load;
#X obj 248 199 r \$0-diet-drum-seq-set-instrument-s;
#X obj 280 253 s \$0-wait-after-load;
#X obj 312 316 r \$0-set-pattern-pos;
#X obj 351 381 s \$0-wait-after-load;
#X obj 552 368 r \$0-wait-after-load;
#X obj 214 269 f;
#X obj 553 35 inlet;
#X obj 135 160 loadbang;
#X msg 135 181 0;
#X connect 0 0 21 0;
#X connect 1 0 2 0;
#X connect 2 0 5 0;
#X connect 3 0 1 0;
#X connect 4 0 16 0;
#X connect 5 0 4 0;
#X connect 5 1 4 1;
#X connect 6 0 8 0;
#X connect 7 0 9 0;
#X connect 7 0 12 0;
#X connect 8 0 22 0;
#X connect 9 0 8 1;
#X connect 10 0 31 0;
#X connect 10 2 25 0;
#X connect 11 0 3 0;
#X connect 11 1 27 0;
#X connect 12 0 13 0;
#X connect 13 0 8 1;
#X connect 14 0 15 0;
#X connect 15 0 16 1;
#X connect 16 0 20 0;
#X connect 16 0 22 1;
#X connect 17 0 16 0;
#X connect 17 1 14 0;
#X connect 17 2 29 0;
#X connect 18 0 10 0;
#X connect 19 0 6 0;
#X connect 20 0 0 0;
#X connect 23 0 18 0;
#X connect 24 0 18 0;
#X connect 26 0 11 0;
#X connect 28 0 17 0;
#X connect 30 0 7 0;
#X connect 31 0 4 0;
#X connect 32 0 31 1;
#X connect 33 0 34 0;
#X connect 34 0 11 0;
#X restore 260 133 pd step-load;
#X floatatom 260 92 5 0 0 0 - - - 0;
#X obj 329 91 loadbang;
#N canvas 565 97 762 668 step-load 0;
#X floatatom 206 590 5 0 0 0 - - - 0;
#X obj 248 287 * 100;
#X obj 248 313 + 400;
#X obj 248 263 + 1;
#X obj 248 377 +;
#X obj 248 337 t b f;
#X floatatom 513 346 5 0 0 0 - - - 0;
#X obj 552 392 t b;
#X obj 513 469 spigot;
#X msg 552 416 0;
#X obj 206 138 t b f b;
#X obj 248 223 t f b;
#X obj 588 415 del 5;
#X msg 588 439 1;
#X obj 312 386 * 16;
#X floatatom 312 410 5 0 0 0 - - - 0;
#X obj 243 460 +;
#X obj 312 338 t b f b;
#X obj 207 106 f;
#X obj 511 35 inlet;
#X obj 206 557 tabread \$0-pattern;
#X obj 206 639 outlet;
#X obj 513 548 tabwrite \$0-pattern;
#X obj 153 31 r \$0-diet-drum-seq-update-gui;
#X obj 206 63 r \$0-load-pattern;
#X obj 252 164 s \$0-wait-after-load;
#X obj 248 199 r \$0-diet-drum-seq-set-instrument-s;
#X obj 280 253 s \$0-wait-after-load;
#X obj 312 316 r \$0-set-pattern-pos;
#X obj 351 381 s \$0-wait-after-load;
#X obj 552 368 r \$0-wait-after-load;
#X obj 214 269 f;
#X obj 553 35 inlet;
#X obj 135 160 loadbang;
#X msg 135 181 0;
#X connect 0 0 21 0;
#X connect 1 0 2 0;
#X connect 2 0 5 0;
#X connect 3 0 1 0;
#X connect 4 0 16 0;
#X connect 5 0 4 0;
#X connect 5 1 4 1;
#X connect 6 0 8 0;
#X connect 7 0 9 0;
#X connect 7 0 12 0;
#X connect 8 0 22 0;
#X connect 9 0 8 1;
#X connect 10 0 31 0;
#X connect 10 2 25 0;
#X connect 11 0 3 0;
#X connect 11 1 27 0;
#X connect 12 0 13 0;
#X connect 13 0 8 1;
#X connect 14 0 15 0;
#X connect 15 0 16 1;
#X connect 16 0 20 0;
#X connect 16 0 22 1;
#X connect 17 0 16 0;
#X connect 17 1 14 0;
#X connect 17 2 29 0;
#X connect 18 0 10 0;
#X connect 19 0 6 0;
#X connect 20 0 0 0;
#X connect 23 0 18 0;
#X connect 24 0 18 0;
#X connect 26 0 11 0;
#X connect 28 0 17 0;
#X connect 30 0 7 0;
#X connect 31 0 4 0;
#X connect 32 0 31 1;
#X connect 33 0 34 0;
#X connect 34 0 11 0;
#X restore 400 133 pd step-load;
#X floatatom 400 92 5 0 0 0 - - - 0;
#X obj 469 91 loadbang;
#X obj 260 71 r \$0-step-edit1;
#X msg 329 112 1;
#X obj 260 153 s \$0-r-step-edit1;
#X obj 400 71 r \$0-step-edit2;
#X msg 469 112 2;
#X obj 400 153 s \$0-r-step-edit2;
#N canvas 565 97 762 668 step-load 0;
#X floatatom 206 590 5 0 0 0 - - - 0;
#X obj 248 287 * 100;
#X obj 248 313 + 400;
#X obj 248 263 + 1;
#X obj 248 377 +;
#X obj 248 337 t b f;
#X floatatom 513 346 5 0 0 0 - - - 0;
#X obj 552 392 t b;
#X obj 513 469 spigot;
#X msg 552 416 0;
#X obj 206 138 t b f b;
#X obj 248 223 t f b;
#X obj 588 415 del 5;
#X msg 588 439 1;
#X obj 312 386 * 16;
#X floatatom 312 410 5 0 0 0 - - - 0;
#X obj 243 460 +;
#X obj 312 338 t b f b;
#X obj 207 106 f;
#X obj 511 35 inlet;
#X obj 206 557 tabread \$0-pattern;
#X obj 206 639 outlet;
#X obj 513 548 tabwrite \$0-pattern;
#X obj 153 31 r \$0-diet-drum-seq-update-gui;
#X obj 206 63 r \$0-load-pattern;
#X obj 252 164 s \$0-wait-after-load;
#X obj 248 199 r \$0-diet-drum-seq-set-instrument-s;
#X obj 280 253 s \$0-wait-after-load;
#X obj 312 316 r \$0-set-pattern-pos;
#X obj 351 381 s \$0-wait-after-load;
#X obj 552 368 r \$0-wait-after-load;
#X obj 214 269 f;
#X obj 553 35 inlet;
#X obj 135 160 loadbang;
#X msg 135 181 0;
#X connect 0 0 21 0;
#X connect 1 0 2 0;
#X connect 2 0 5 0;
#X connect 3 0 1 0;
#X connect 4 0 16 0;
#X connect 5 0 4 0;
#X connect 5 1 4 1;
#X connect 6 0 8 0;
#X connect 7 0 9 0;
#X connect 7 0 12 0;
#X connect 8 0 22 0;
#X connect 9 0 8 1;
#X connect 10 0 31 0;
#X connect 10 2 25 0;
#X connect 11 0 3 0;
#X connect 11 1 27 0;
#X connect 12 0 13 0;
#X connect 13 0 8 1;
#X connect 14 0 15 0;
#X connect 15 0 16 1;
#X connect 16 0 20 0;
#X connect 16 0 22 1;
#X connect 17 0 16 0;
#X connect 17 1 14 0;
#X connect 17 2 29 0;
#X connect 18 0 10 0;
#X connect 19 0 6 0;
#X connect 20 0 0 0;
#X connect 23 0 18 0;
#X connect 24 0 18 0;
#X connect 26 0 11 0;
#X connect 28 0 17 0;
#X connect 30 0 7 0;
#X connect 31 0 4 0;
#X connect 32 0 31 1;
#X connect 33 0 34 0;
#X connect 34 0 11 0;
#X restore 540 133 pd step-load;
#X floatatom 540 92 5 0 0 0 - - - 0;
#X obj 609 91 loadbang;
#X obj 540 71 r \$0-step-edit3;
#X obj 540 153 s \$0-r-step-edit3;
#X msg 609 112 3;
#N canvas 565 97 762 668 step-load 0;
#X floatatom 206 590 5 0 0 0 - - - 0;
#X obj 248 287 * 100;
#X obj 248 313 + 400;
#X obj 248 263 + 1;
#X obj 248 377 +;
#X obj 248 337 t b f;
#X floatatom 513 346 5 0 0 0 - - - 0;
#X obj 552 392 t b;
#X obj 513 469 spigot;
#X msg 552 416 0;
#X obj 206 138 t b f b;
#X obj 248 223 t f b;
#X obj 588 415 del 5;
#X msg 588 439 1;
#X obj 312 386 * 16;
#X floatatom 312 410 5 0 0 0 - - - 0;
#X obj 243 460 +;
#X obj 312 338 t b f b;
#X obj 207 106 f;
#X obj 511 35 inlet;
#X obj 206 557 tabread \$0-pattern;
#X obj 206 639 outlet;
#X obj 513 548 tabwrite \$0-pattern;
#X obj 153 31 r \$0-diet-drum-seq-update-gui;
#X obj 206 63 r \$0-load-pattern;
#X obj 252 164 s \$0-wait-after-load;
#X obj 248 199 r \$0-diet-drum-seq-set-instrument-s;
#X obj 280 253 s \$0-wait-after-load;
#X obj 312 316 r \$0-set-pattern-pos;
#X obj 351 381 s \$0-wait-after-load;
#X obj 552 368 r \$0-wait-after-load;
#X obj 214 269 f;
#X obj 553 35 inlet;
#X obj 135 160 loadbang;
#X msg 135 181 0;
#X connect 0 0 21 0;
#X connect 1 0 2 0;
#X connect 2 0 5 0;
#X connect 3 0 1 0;
#X connect 4 0 16 0;
#X connect 5 0 4 0;
#X connect 5 1 4 1;
#X connect 6 0 8 0;
#X connect 7 0 9 0;
#X connect 7 0 12 0;
#X connect 8 0 22 0;
#X connect 9 0 8 1;
#X connect 10 0 31 0;
#X connect 10 2 25 0;
#X connect 11 0 3 0;
#X connect 11 1 27 0;
#X connect 12 0 13 0;
#X connect 13 0 8 1;
#X connect 14 0 15 0;
#X connect 15 0 16 1;
#X connect 16 0 20 0;
#X connect 16 0 22 1;
#X connect 17 0 16 0;
#X connect 17 1 14 0;
#X connect 17 2 29 0;
#X connect 18 0 10 0;
#X connect 19 0 6 0;
#X connect 20 0 0 0;
#X connect 23 0 18 0;
#X connect 24 0 18 0;
#X connect 26 0 11 0;
#X connect 28 0 17 0;
#X connect 30 0 7 0;
#X connect 31 0 4 0;
#X connect 32 0 31 1;
#X connect 33 0 34 0;
#X connect 34 0 11 0;
#X restore 120 283 pd step-load;
#X floatatom 120 242 5 0 0 0 - - - 0;
#X obj 189 241 loadbang;
#N canvas 565 97 762 668 step-load 0;
#X floatatom 206 590 5 0 0 0 - - - 0;
#X obj 248 287 * 100;
#X obj 248 313 + 400;
#X obj 248 263 + 1;
#X obj 248 377 +;
#X obj 248 337 t b f;
#X floatatom 513 346 5 0 0 0 - - - 0;
#X obj 552 392 t b;
#X obj 513 469 spigot;
#X msg 552 416 0;
#X obj 206 138 t b f b;
#X obj 248 223 t f b;
#X obj 588 415 del 5;
#X msg 588 439 1;
#X obj 312 386 * 16;
#X floatatom 312 410 5 0 0 0 - - - 0;
#X obj 243 460 +;
#X obj 312 338 t b f b;
#X obj 207 106 f;
#X obj 511 35 inlet;
#X obj 206 557 tabread \$0-pattern;
#X obj 206 639 outlet;
#X obj 513 548 tabwrite \$0-pattern;
#X obj 153 31 r \$0-diet-drum-seq-update-gui;
#X obj 206 63 r \$0-load-pattern;
#X obj 252 164 s \$0-wait-after-load;
#X obj 248 199 r \$0-diet-drum-seq-set-instrument-s;
#X obj 280 253 s \$0-wait-after-load;
#X obj 312 316 r \$0-set-pattern-pos;
#X obj 351 381 s \$0-wait-after-load;
#X obj 552 368 r \$0-wait-after-load;
#X obj 214 269 f;
#X obj 553 35 inlet;
#X obj 135 160 loadbang;
#X msg 135 181 0;
#X connect 0 0 21 0;
#X connect 1 0 2 0;
#X connect 2 0 5 0;
#X connect 3 0 1 0;
#X connect 4 0 16 0;
#X connect 5 0 4 0;
#X connect 5 1 4 1;
#X connect 6 0 8 0;
#X connect 7 0 9 0;
#X connect 7 0 12 0;
#X connect 8 0 22 0;
#X connect 9 0 8 1;
#X connect 10 0 31 0;
#X connect 10 2 25 0;
#X connect 11 0 3 0;
#X connect 11 1 27 0;
#X connect 12 0 13 0;
#X connect 13 0 8 1;
#X connect 14 0 15 0;
#X connect 15 0 16 1;
#X connect 16 0 20 0;
#X connect 16 0 22 1;
#X connect 17 0 16 0;
#X connect 17 1 14 0;
#X connect 17 2 29 0;
#X connect 18 0 10 0;
#X connect 19 0 6 0;
#X connect 20 0 0 0;
#X connect 23 0 18 0;
#X connect 24 0 18 0;
#X connect 26 0 11 0;
#X connect 28 0 17 0;
#X connect 30 0 7 0;
#X connect 31 0 4 0;
#X connect 32 0 31 1;
#X connect 33 0 34 0;
#X connect 34 0 11 0;
#X restore 260 283 pd step-load;
#X floatatom 260 242 5 0 0 0 - - - 0;
#X obj 329 241 loadbang;
#N canvas 565 97 762 668 step-load 0;
#X floatatom 206 590 5 0 0 0 - - - 0;
#X obj 248 287 * 100;
#X obj 248 313 + 400;
#X obj 248 263 + 1;
#X obj 248 377 +;
#X obj 248 337 t b f;
#X floatatom 513 346 5 0 0 0 - - - 0;
#X obj 552 392 t b;
#X obj 513 469 spigot;
#X msg 552 416 0;
#X obj 206 138 t b f b;
#X obj 248 223 t f b;
#X obj 588 415 del 5;
#X msg 588 439 1;
#X obj 312 386 * 16;
#X floatatom 312 410 5 0 0 0 - - - 0;
#X obj 243 460 +;
#X obj 312 338 t b f b;
#X obj 207 106 f;
#X obj 511 35 inlet;
#X obj 206 557 tabread \$0-pattern;
#X obj 206 639 outlet;
#X obj 513 548 tabwrite \$0-pattern;
#X obj 153 31 r \$0-diet-drum-seq-update-gui;
#X obj 206 63 r \$0-load-pattern;
#X obj 252 164 s \$0-wait-after-load;
#X obj 248 199 r \$0-diet-drum-seq-set-instrument-s;
#X obj 280 253 s \$0-wait-after-load;
#X obj 312 316 r \$0-set-pattern-pos;
#X obj 351 381 s \$0-wait-after-load;
#X obj 552 368 r \$0-wait-after-load;
#X obj 214 269 f;
#X obj 553 35 inlet;
#X obj 135 160 loadbang;
#X msg 135 181 0;
#X connect 0 0 21 0;
#X connect 1 0 2 0;
#X connect 2 0 5 0;
#X connect 3 0 1 0;
#X connect 4 0 16 0;
#X connect 5 0 4 0;
#X connect 5 1 4 1;
#X connect 6 0 8 0;
#X connect 7 0 9 0;
#X connect 7 0 12 0;
#X connect 8 0 22 0;
#X connect 9 0 8 1;
#X connect 10 0 31 0;
#X connect 10 2 25 0;
#X connect 11 0 3 0;
#X connect 11 1 27 0;
#X connect 12 0 13 0;
#X connect 13 0 8 1;
#X connect 14 0 15 0;
#X connect 15 0 16 1;
#X connect 16 0 20 0;
#X connect 16 0 22 1;
#X connect 17 0 16 0;
#X connect 17 1 14 0;
#X connect 17 2 29 0;
#X connect 18 0 10 0;
#X connect 19 0 6 0;
#X connect 20 0 0 0;
#X connect 23 0 18 0;
#X connect 24 0 18 0;
#X connect 26 0 11 0;
#X connect 28 0 17 0;
#X connect 30 0 7 0;
#X connect 31 0 4 0;
#X connect 32 0 31 1;
#X connect 33 0 34 0;
#X connect 34 0 11 0;
#X restore 400 283 pd step-load;
#X floatatom 400 242 5 0 0 0 - - - 0;
#X obj 469 241 loadbang;
#N canvas 565 97 762 668 step-load 0;
#X floatatom 206 590 5 0 0 0 - - - 0;
#X obj 248 287 * 100;
#X obj 248 313 + 400;
#X obj 248 263 + 1;
#X obj 248 377 +;
#X obj 248 337 t b f;
#X floatatom 513 346 5 0 0 0 - - - 0;
#X obj 552 392 t b;
#X obj 513 469 spigot;
#X msg 552 416 0;
#X obj 206 138 t b f b;
#X obj 248 223 t f b;
#X obj 588 415 del 5;
#X msg 588 439 1;
#X obj 312 386 * 16;
#X floatatom 312 410 5 0 0 0 - - - 0;
#X obj 243 460 +;
#X obj 312 338 t b f b;
#X obj 207 106 f;
#X obj 511 35 inlet;
#X obj 206 557 tabread \$0-pattern;
#X obj 206 639 outlet;
#X obj 513 548 tabwrite \$0-pattern;
#X obj 153 31 r \$0-diet-drum-seq-update-gui;
#X obj 206 63 r \$0-load-pattern;
#X obj 252 164 s \$0-wait-after-load;
#X obj 248 199 r \$0-diet-drum-seq-set-instrument-s;
#X obj 280 253 s \$0-wait-after-load;
#X obj 312 316 r \$0-set-pattern-pos;
#X obj 351 381 s \$0-wait-after-load;
#X obj 552 368 r \$0-wait-after-load;
#X obj 214 269 f;
#X obj 553 35 inlet;
#X obj 135 160 loadbang;
#X msg 135 181 0;
#X connect 0 0 21 0;
#X connect 1 0 2 0;
#X connect 2 0 5 0;
#X connect 3 0 1 0;
#X connect 4 0 16 0;
#X connect 5 0 4 0;
#X connect 5 1 4 1;
#X connect 6 0 8 0;
#X connect 7 0 9 0;
#X connect 7 0 12 0;
#X connect 8 0 22 0;
#X connect 9 0 8 1;
#X connect 10 0 31 0;
#X connect 10 2 25 0;
#X connect 11 0 3 0;
#X connect 11 1 27 0;
#X connect 12 0 13 0;
#X connect 13 0 8 1;
#X connect 14 0 15 0;
#X connect 15 0 16 1;
#X connect 16 0 20 0;
#X connect 16 0 22 1;
#X connect 17 0 16 0;
#X connect 17 1 14 0;
#X connect 17 2 29 0;
#X connect 18 0 10 0;
#X connect 19 0 6 0;
#X connect 20 0 0 0;
#X connect 23 0 18 0;
#X connect 24 0 18 0;
#X connect 26 0 11 0;
#X connect 28 0 17 0;
#X connect 30 0 7 0;
#X connect 31 0 4 0;
#X connect 32 0 31 1;
#X connect 33 0 34 0;
#X connect 34 0 11 0;
#X restore 540 283 pd step-load;
#X floatatom 540 242 5 0 0 0 - - - 0;
#X obj 609 241 loadbang;
#X obj 120 221 r \$0-step-edit4;
#X msg 189 262 4;
#X obj 120 303 s \$0-r-step-edit4;
#X obj 260 221 r \$0-step-edit5;
#X msg 329 262 5;
#X obj 260 303 s \$0-r-step-edit5;
#X obj 400 221 r \$0-step-edit6;
#X msg 469 262 6;
#X obj 400 303 s \$0-r-step-edit6;
#X obj 540 221 r \$0-step-edit7;
#X msg 609 262 7;
#X obj 540 303 s \$0-r-step-edit7;
#N canvas 565 97 762 668 step-load 0;
#X floatatom 206 590 5 0 0 0 - - - 0;
#X obj 248 287 * 100;
#X obj 248 313 + 400;
#X obj 248 263 + 1;
#X obj 248 377 +;
#X obj 248 337 t b f;
#X floatatom 513 346 5 0 0 0 - - - 0;
#X obj 552 392 t b;
#X obj 513 469 spigot;
#X msg 552 416 0;
#X obj 206 138 t b f b;
#X obj 248 223 t f b;
#X obj 588 415 del 5;
#X msg 588 439 1;
#X obj 312 386 * 16;
#X floatatom 312 410 5 0 0 0 - - - 0;
#X obj 243 460 +;
#X obj 312 338 t b f b;
#X obj 207 106 f;
#X obj 511 35 inlet;
#X obj 206 557 tabread \$0-pattern;
#X obj 206 639 outlet;
#X obj 513 548 tabwrite \$0-pattern;
#X obj 153 31 r \$0-diet-drum-seq-update-gui;
#X obj 206 63 r \$0-load-pattern;
#X obj 252 164 s \$0-wait-after-load;
#X obj 248 199 r \$0-diet-drum-seq-set-instrument-s;
#X obj 280 253 s \$0-wait-after-load;
#X obj 312 316 r \$0-set-pattern-pos;
#X obj 351 381 s \$0-wait-after-load;
#X obj 552 368 r \$0-wait-after-load;
#X obj 214 269 f;
#X obj 553 35 inlet;
#X obj 135 160 loadbang;
#X msg 135 181 0;
#X connect 0 0 21 0;
#X connect 1 0 2 0;
#X connect 2 0 5 0;
#X connect 3 0 1 0;
#X connect 4 0 16 0;
#X connect 5 0 4 0;
#X connect 5 1 4 1;
#X connect 6 0 8 0;
#X connect 7 0 9 0;
#X connect 7 0 12 0;
#X connect 8 0 22 0;
#X connect 9 0 8 1;
#X connect 10 0 31 0;
#X connect 10 2 25 0;
#X connect 11 0 3 0;
#X connect 11 1 27 0;
#X connect 12 0 13 0;
#X connect 13 0 8 1;
#X connect 14 0 15 0;
#X connect 15 0 16 1;
#X connect 16 0 20 0;
#X connect 16 0 22 1;
#X connect 17 0 16 0;
#X connect 17 1 14 0;
#X connect 17 2 29 0;
#X connect 18 0 10 0;
#X connect 19 0 6 0;
#X connect 20 0 0 0;
#X connect 23 0 18 0;
#X connect 24 0 18 0;
#X connect 26 0 11 0;
#X connect 28 0 17 0;
#X connect 30 0 7 0;
#X connect 31 0 4 0;
#X connect 32 0 31 1;
#X connect 33 0 34 0;
#X connect 34 0 11 0;
#X restore 120 443 pd step-load;
#X floatatom 120 402 5 0 0 0 - - - 0;
#X obj 189 401 loadbang;
#N canvas 565 97 762 668 step-load 0;
#X floatatom 206 590 5 0 0 0 - - - 0;
#X obj 248 287 * 100;
#X obj 248 313 + 400;
#X obj 248 263 + 1;
#X obj 248 377 +;
#X obj 248 337 t b f;
#X floatatom 513 346 5 0 0 0 - - - 0;
#X obj 552 392 t b;
#X obj 513 469 spigot;
#X msg 552 416 0;
#X obj 206 138 t b f b;
#X obj 248 223 t f b;
#X obj 588 415 del 5;
#X msg 588 439 1;
#X obj 312 386 * 16;
#X floatatom 312 410 5 0 0 0 - - - 0;
#X obj 243 460 +;
#X obj 312 338 t b f b;
#X obj 207 106 f;
#X obj 511 35 inlet;
#X obj 206 557 tabread \$0-pattern;
#X obj 206 639 outlet;
#X obj 513 548 tabwrite \$0-pattern;
#X obj 153 31 r \$0-diet-drum-seq-update-gui;
#X obj 206 63 r \$0-load-pattern;
#X obj 252 164 s \$0-wait-after-load;
#X obj 248 199 r \$0-diet-drum-seq-set-instrument-s;
#X obj 280 253 s \$0-wait-after-load;
#X obj 312 316 r \$0-set-pattern-pos;
#X obj 351 381 s \$0-wait-after-load;
#X obj 552 368 r \$0-wait-after-load;
#X obj 214 269 f;
#X obj 553 35 inlet;
#X obj 135 160 loadbang;
#X msg 135 181 0;
#X connect 0 0 21 0;
#X connect 1 0 2 0;
#X connect 2 0 5 0;
#X connect 3 0 1 0;
#X connect 4 0 16 0;
#X connect 5 0 4 0;
#X connect 5 1 4 1;
#X connect 6 0 8 0;
#X connect 7 0 9 0;
#X connect 7 0 12 0;
#X connect 8 0 22 0;
#X connect 9 0 8 1;
#X connect 10 0 31 0;
#X connect 10 2 25 0;
#X connect 11 0 3 0;
#X connect 11 1 27 0;
#X connect 12 0 13 0;
#X connect 13 0 8 1;
#X connect 14 0 15 0;
#X connect 15 0 16 1;
#X connect 16 0 20 0;
#X connect 16 0 22 1;
#X connect 17 0 16 0;
#X connect 17 1 14 0;
#X connect 17 2 29 0;
#X connect 18 0 10 0;
#X connect 19 0 6 0;
#X connect 20 0 0 0;
#X connect 23 0 18 0;
#X connect 24 0 18 0;
#X connect 26 0 11 0;
#X connect 28 0 17 0;
#X connect 30 0 7 0;
#X connect 31 0 4 0;
#X connect 32 0 31 1;
#X connect 33 0 34 0;
#X connect 34 0 11 0;
#X restore 260 443 pd step-load;
#X floatatom 260 402 5 0 0 0 - - - 0;
#X obj 329 401 loadbang;
#N canvas 565 97 762 668 step-load 0;
#X floatatom 206 590 5 0 0 0 - - - 0;
#X obj 248 287 * 100;
#X obj 248 313 + 400;
#X obj 248 263 + 1;
#X obj 248 377 +;
#X obj 248 337 t b f;
#X floatatom 513 346 5 0 0 0 - - - 0;
#X obj 552 392 t b;
#X obj 513 469 spigot;
#X msg 552 416 0;
#X obj 206 138 t b f b;
#X obj 248 223 t f b;
#X obj 588 415 del 5;
#X msg 588 439 1;
#X obj 312 386 * 16;
#X floatatom 312 410 5 0 0 0 - - - 0;
#X obj 243 460 +;
#X obj 312 338 t b f b;
#X obj 207 106 f;
#X obj 511 35 inlet;
#X obj 206 557 tabread \$0-pattern;
#X obj 206 639 outlet;
#X obj 513 548 tabwrite \$0-pattern;
#X obj 153 31 r \$0-diet-drum-seq-update-gui;
#X obj 206 63 r \$0-load-pattern;
#X obj 252 164 s \$0-wait-after-load;
#X obj 248 199 r \$0-diet-drum-seq-set-instrument-s;
#X obj 280 253 s \$0-wait-after-load;
#X obj 312 316 r \$0-set-pattern-pos;
#X obj 351 381 s \$0-wait-after-load;
#X obj 552 368 r \$0-wait-after-load;
#X obj 214 269 f;
#X obj 553 35 inlet;
#X obj 135 160 loadbang;
#X msg 135 181 0;
#X connect 0 0 21 0;
#X connect 1 0 2 0;
#X connect 2 0 5 0;
#X connect 3 0 1 0;
#X connect 4 0 16 0;
#X connect 5 0 4 0;
#X connect 5 1 4 1;
#X connect 6 0 8 0;
#X connect 7 0 9 0;
#X connect 7 0 12 0;
#X connect 8 0 22 0;
#X connect 9 0 8 1;
#X connect 10 0 31 0;
#X connect 10 2 25 0;
#X connect 11 0 3 0;
#X connect 11 1 27 0;
#X connect 12 0 13 0;
#X connect 13 0 8 1;
#X connect 14 0 15 0;
#X connect 15 0 16 1;
#X connect 16 0 20 0;
#X connect 16 0 22 1;
#X connect 17 0 16 0;
#X connect 17 1 14 0;
#X connect 17 2 29 0;
#X connect 18 0 10 0;
#X connect 19 0 6 0;
#X connect 20 0 0 0;
#X connect 23 0 18 0;
#X connect 24 0 18 0;
#X connect 26 0 11 0;
#X connect 28 0 17 0;
#X connect 30 0 7 0;
#X connect 31 0 4 0;
#X connect 32 0 31 1;
#X connect 33 0 34 0;
#X connect 34 0 11 0;
#X restore 400 443 pd step-load;
#X floatatom 400 402 5 0 0 0 - - - 0;
#X obj 469 401 loadbang;
#N canvas 565 97 762 668 step-load 0;
#X floatatom 206 590 5 0 0 0 - - - 0;
#X obj 248 287 * 100;
#X obj 248 313 + 400;
#X obj 248 263 + 1;
#X obj 248 377 +;
#X obj 248 337 t b f;
#X floatatom 513 346 5 0 0 0 - - - 0;
#X obj 552 392 t b;
#X obj 513 469 spigot;
#X msg 552 416 0;
#X obj 206 138 t b f b;
#X obj 248 223 t f b;
#X obj 588 415 del 5;
#X msg 588 439 1;
#X obj 312 386 * 16;
#X floatatom 312 410 5 0 0 0 - - - 0;
#X obj 243 460 +;
#X obj 312 338 t b f b;
#X obj 207 106 f;
#X obj 511 35 inlet;
#X obj 206 557 tabread \$0-pattern;
#X obj 206 639 outlet;
#X obj 513 548 tabwrite \$0-pattern;
#X obj 153 31 r \$0-diet-drum-seq-update-gui;
#X obj 206 63 r \$0-load-pattern;
#X obj 252 164 s \$0-wait-after-load;
#X obj 248 199 r \$0-diet-drum-seq-set-instrument-s;
#X obj 280 253 s \$0-wait-after-load;
#X obj 312 316 r \$0-set-pattern-pos;
#X obj 351 381 s \$0-wait-after-load;
#X obj 552 368 r \$0-wait-after-load;
#X obj 214 269 f;
#X obj 553 35 inlet;
#X obj 135 160 loadbang;
#X msg 135 181 0;
#X connect 0 0 21 0;
#X connect 1 0 2 0;
#X connect 2 0 5 0;
#X connect 3 0 1 0;
#X connect 4 0 16 0;
#X connect 5 0 4 0;
#X connect 5 1 4 1;
#X connect 6 0 8 0;
#X connect 7 0 9 0;
#X connect 7 0 12 0;
#X connect 8 0 22 0;
#X connect 9 0 8 1;
#X connect 10 0 31 0;
#X connect 10 2 25 0;
#X connect 11 0 3 0;
#X connect 11 1 27 0;
#X connect 12 0 13 0;
#X connect 13 0 8 1;
#X connect 14 0 15 0;
#X connect 15 0 16 1;
#X connect 16 0 20 0;
#X connect 16 0 22 1;
#X connect 17 0 16 0;
#X connect 17 1 14 0;
#X connect 17 2 29 0;
#X connect 18 0 10 0;
#X connect 19 0 6 0;
#X connect 20 0 0 0;
#X connect 23 0 18 0;
#X connect 24 0 18 0;
#X connect 26 0 11 0;
#X connect 28 0 17 0;
#X connect 30 0 7 0;
#X connect 31 0 4 0;
#X connect 32 0 31 1;
#X connect 33 0 34 0;
#X connect 34 0 11 0;
#X restore 540 443 pd step-load;
#X floatatom 540 402 5 0 0 0 - - - 0;
#X obj 609 401 loadbang;
#N canvas 565 97 762 668 step-load 0;
#X floatatom 206 590 5 0 0 0 - - - 0;
#X obj 248 287 * 100;
#X obj 248 313 + 400;
#X obj 248 263 + 1;
#X obj 248 377 +;
#X obj 248 337 t b f;
#X floatatom 513 346 5 0 0 0 - - - 0;
#X obj 552 392 t b;
#X obj 513 469 spigot;
#X msg 552 416 0;
#X obj 206 138 t b f b;
#X obj 248 223 t f b;
#X obj 588 415 del 5;
#X msg 588 439 1;
#X obj 312 386 * 16;
#X floatatom 312 410 5 0 0 0 - - - 0;
#X obj 243 460 +;
#X obj 312 338 t b f b;
#X obj 207 106 f;
#X obj 511 35 inlet;
#X obj 206 557 tabread \$0-pattern;
#X obj 206 639 outlet;
#X obj 513 548 tabwrite \$0-pattern;
#X obj 153 31 r \$0-diet-drum-seq-update-gui;
#X obj 206 63 r \$0-load-pattern;
#X obj 252 164 s \$0-wait-after-load;
#X obj 248 199 r \$0-diet-drum-seq-set-instrument-s;
#X obj 280 253 s \$0-wait-after-load;
#X obj 312 316 r \$0-set-pattern-pos;
#X obj 351 381 s \$0-wait-after-load;
#X obj 552 368 r \$0-wait-after-load;
#X obj 214 269 f;
#X obj 553 35 inlet;
#X obj 135 160 loadbang;
#X msg 135 181 0;
#X connect 0 0 21 0;
#X connect 1 0 2 0;
#X connect 2 0 5 0;
#X connect 3 0 1 0;
#X connect 4 0 16 0;
#X connect 5 0 4 0;
#X connect 5 1 4 1;
#X connect 6 0 8 0;
#X connect 7 0 9 0;
#X connect 7 0 12 0;
#X connect 8 0 22 0;
#X connect 9 0 8 1;
#X connect 10 0 31 0;
#X connect 10 2 25 0;
#X connect 11 0 3 0;
#X connect 11 1 27 0;
#X connect 12 0 13 0;
#X connect 13 0 8 1;
#X connect 14 0 15 0;
#X connect 15 0 16 1;
#X connect 16 0 20 0;
#X connect 16 0 22 1;
#X connect 17 0 16 0;
#X connect 17 1 14 0;
#X connect 17 2 29 0;
#X connect 18 0 10 0;
#X connect 19 0 6 0;
#X connect 20 0 0 0;
#X connect 23 0 18 0;
#X connect 24 0 18 0;
#X connect 26 0 11 0;
#X connect 28 0 17 0;
#X connect 30 0 7 0;
#X connect 31 0 4 0;
#X connect 32 0 31 1;
#X connect 33 0 34 0;
#X connect 34 0 11 0;
#X restore 120 593 pd step-load;
#X floatatom 120 552 5 0 0 0 - - - 0;
#X obj 189 551 loadbang;
#N canvas 565 97 762 668 step-load 0;
#X floatatom 206 590 5 0 0 0 - - - 0;
#X obj 248 287 * 100;
#X obj 248 313 + 400;
#X obj 248 263 + 1;
#X obj 248 377 +;
#X obj 248 337 t b f;
#X floatatom 513 346 5 0 0 0 - - - 0;
#X obj 552 392 t b;
#X obj 513 469 spigot;
#X msg 552 416 0;
#X obj 206 138 t b f b;
#X obj 248 223 t f b;
#X obj 588 415 del 5;
#X msg 588 439 1;
#X obj 312 386 * 16;
#X floatatom 312 410 5 0 0 0 - - - 0;
#X obj 243 460 +;
#X obj 312 338 t b f b;
#X obj 207 106 f;
#X obj 511 35 inlet;
#X obj 206 557 tabread \$0-pattern;
#X obj 206 639 outlet;
#X obj 513 548 tabwrite \$0-pattern;
#X obj 153 31 r \$0-diet-drum-seq-update-gui;
#X obj 206 63 r \$0-load-pattern;
#X obj 252 164 s \$0-wait-after-load;
#X obj 248 199 r \$0-diet-drum-seq-set-instrument-s;
#X obj 280 253 s \$0-wait-after-load;
#X obj 312 316 r \$0-set-pattern-pos;
#X obj 351 381 s \$0-wait-after-load;
#X obj 552 368 r \$0-wait-after-load;
#X obj 214 269 f;
#X obj 553 35 inlet;
#X obj 135 160 loadbang;
#X msg 135 181 0;
#X connect 0 0 21 0;
#X connect 1 0 2 0;
#X connect 2 0 5 0;
#X connect 3 0 1 0;
#X connect 4 0 16 0;
#X connect 5 0 4 0;
#X connect 5 1 4 1;
#X connect 6 0 8 0;
#X connect 7 0 9 0;
#X connect 7 0 12 0;
#X connect 8 0 22 0;
#X connect 9 0 8 1;
#X connect 10 0 31 0;
#X connect 10 2 25 0;
#X connect 11 0 3 0;
#X connect 11 1 27 0;
#X connect 12 0 13 0;
#X connect 13 0 8 1;
#X connect 14 0 15 0;
#X connect 15 0 16 1;
#X connect 16 0 20 0;
#X connect 16 0 22 1;
#X connect 17 0 16 0;
#X connect 17 1 14 0;
#X connect 17 2 29 0;
#X connect 18 0 10 0;
#X connect 19 0 6 0;
#X connect 20 0 0 0;
#X connect 23 0 18 0;
#X connect 24 0 18 0;
#X connect 26 0 11 0;
#X connect 28 0 17 0;
#X connect 30 0 7 0;
#X connect 31 0 4 0;
#X connect 32 0 31 1;
#X connect 33 0 34 0;
#X connect 34 0 11 0;
#X restore 260 593 pd step-load;
#X floatatom 260 552 5 0 0 0 - - - 0;
#X obj 329 551 loadbang;
#N canvas 565 97 762 668 step-load 0;
#X floatatom 206 590 5 0 0 0 - - - 0;
#X obj 248 287 * 100;
#X obj 248 313 + 400;
#X obj 248 263 + 1;
#X obj 248 377 +;
#X obj 248 337 t b f;
#X floatatom 513 346 5 0 0 0 - - - 0;
#X obj 552 392 t b;
#X obj 513 469 spigot;
#X msg 552 416 0;
#X obj 206 138 t b f b;
#X obj 248 223 t f b;
#X obj 588 415 del 5;
#X msg 588 439 1;
#X obj 312 386 * 16;
#X floatatom 312 410 5 0 0 0 - - - 0;
#X obj 243 460 +;
#X obj 312 338 t b f b;
#X obj 207 106 f;
#X obj 511 35 inlet;
#X obj 206 557 tabread \$0-pattern;
#X obj 206 639 outlet;
#X obj 513 548 tabwrite \$0-pattern;
#X obj 153 31 r \$0-diet-drum-seq-update-gui;
#X obj 206 63 r \$0-load-pattern;
#X obj 252 164 s \$0-wait-after-load;
#X obj 248 199 r \$0-diet-drum-seq-set-instrument-s;
#X obj 280 253 s \$0-wait-after-load;
#X obj 312 316 r \$0-set-pattern-pos;
#X obj 351 381 s \$0-wait-after-load;
#X obj 552 368 r \$0-wait-after-load;
#X obj 214 269 f;
#X obj 553 35 inlet;
#X obj 135 160 loadbang;
#X msg 135 181 0;
#X connect 0 0 21 0;
#X connect 1 0 2 0;
#X connect 2 0 5 0;
#X connect 3 0 1 0;
#X connect 4 0 16 0;
#X connect 5 0 4 0;
#X connect 5 1 4 1;
#X connect 6 0 8 0;
#X connect 7 0 9 0;
#X connect 7 0 12 0;
#X connect 8 0 22 0;
#X connect 9 0 8 1;
#X connect 10 0 31 0;
#X connect 10 2 25 0;
#X connect 11 0 3 0;
#X connect 11 1 27 0;
#X connect 12 0 13 0;
#X connect 13 0 8 1;
#X connect 14 0 15 0;
#X connect 15 0 16 1;
#X connect 16 0 20 0;
#X connect 16 0 22 1;
#X connect 17 0 16 0;
#X connect 17 1 14 0;
#X connect 17 2 29 0;
#X connect 18 0 10 0;
#X connect 19 0 6 0;
#X connect 20 0 0 0;
#X connect 23 0 18 0;
#X connect 24 0 18 0;
#X connect 26 0 11 0;
#X connect 28 0 17 0;
#X connect 30 0 7 0;
#X connect 31 0 4 0;
#X connect 32 0 31 1;
#X connect 33 0 34 0;
#X connect 34 0 11 0;
#X restore 400 593 pd step-load;
#X floatatom 400 552 5 0 0 0 - - - 0;
#X obj 469 551 loadbang;
#N canvas 565 97 762 668 step-load 0;
#X floatatom 206 590 5 0 0 0 - - - 0;
#X obj 248 287 * 100;
#X obj 248 313 + 400;
#X obj 248 263 + 1;
#X obj 248 377 +;
#X obj 248 337 t b f;
#X floatatom 513 346 5 0 0 0 - - - 0;
#X obj 552 392 t b;
#X obj 513 469 spigot;
#X msg 552 416 0;
#X obj 206 138 t b f b;
#X obj 248 223 t f b;
#X obj 588 415 del 5;
#X msg 588 439 1;
#X obj 312 386 * 16;
#X floatatom 312 410 5 0 0 0 - - - 0;
#X obj 243 460 +;
#X obj 312 338 t b f b;
#X obj 207 106 f;
#X obj 511 35 inlet;
#X obj 206 557 tabread \$0-pattern;
#X obj 206 639 outlet;
#X obj 513 548 tabwrite \$0-pattern;
#X obj 153 31 r \$0-diet-drum-seq-update-gui;
#X obj 206 63 r \$0-load-pattern;
#X obj 252 164 s \$0-wait-after-load;
#X obj 248 199 r \$0-diet-drum-seq-set-instrument-s;
#X obj 280 253 s \$0-wait-after-load;
#X obj 312 316 r \$0-set-pattern-pos;
#X obj 351 381 s \$0-wait-after-load;
#X obj 552 368 r \$0-wait-after-load;
#X obj 214 269 f;
#X obj 553 35 inlet;
#X obj 135 160 loadbang;
#X msg 135 181 0;
#X connect 0 0 21 0;
#X connect 1 0 2 0;
#X connect 2 0 5 0;
#X connect 3 0 1 0;
#X connect 4 0 16 0;
#X connect 5 0 4 0;
#X connect 5 1 4 1;
#X connect 6 0 8 0;
#X connect 7 0 9 0;
#X connect 7 0 12 0;
#X connect 8 0 22 0;
#X connect 9 0 8 1;
#X connect 10 0 31 0;
#X connect 10 2 25 0;
#X connect 11 0 3 0;
#X connect 11 1 27 0;
#X connect 12 0 13 0;
#X connect 13 0 8 1;
#X connect 14 0 15 0;
#X connect 15 0 16 1;
#X connect 16 0 20 0;
#X connect 16 0 22 1;
#X connect 17 0 16 0;
#X connect 17 1 14 0;
#X connect 17 2 29 0;
#X connect 18 0 10 0;
#X connect 19 0 6 0;
#X connect 20 0 0 0;
#X connect 23 0 18 0;
#X connect 24 0 18 0;
#X connect 26 0 11 0;
#X connect 28 0 17 0;
#X connect 30 0 7 0;
#X connect 31 0 4 0;
#X connect 32 0 31 1;
#X connect 33 0 34 0;
#X connect 34 0 11 0;
#X restore 540 593 pd step-load;
#X floatatom 540 552 5 0 0 0 - - - 0;
#X obj 609 551 loadbang;
#X obj 120 381 r \$0-step-edit8;
#X msg 189 422 8;
#X obj 120 463 s \$0-r-step-edit8;
#X obj 260 381 r \$0-step-edit9;
#X msg 329 422 9;
#X obj 260 463 s \$0-r-step-edit9;
#X obj 400 381 r \$0-step-edit10;
#X msg 469 422 10;
#X obj 400 463 s \$0-r-step-edit10;
#X obj 540 381 r \$0-step-edit11;
#X msg 609 422 11;
#X obj 540 463 s \$0-r-step-edit11;
#X obj 120 531 r \$0-step-edit12;
#X msg 189 572 12;
#X obj 120 613 s \$0-r-step-edit12;
#X obj 260 531 r \$0-step-edit13;
#X msg 329 572 13;
#X obj 260 613 s \$0-r-step-edit13;
#X obj 400 531 r \$0-step-edit14;
#X msg 469 572 14;
#X obj 400 613 s \$0-r-step-edit14;
#X obj 540 531 r \$0-step-edit15;
#X msg 609 572 15;
#X obj 540 613 s \$0-r-step-edit15;
#X connect 0 0 3 0;
#X connect 1 0 0 0;
#X connect 2 0 1 0;
#X connect 4 0 5 0;
#X connect 5 0 0 1;
#X connect 6 0 14 0;
#X connect 7 0 6 0;
#X connect 8 0 13 0;
#X connect 9 0 17 0;
#X connect 10 0 9 0;
#X connect 11 0 16 0;
#X connect 12 0 7 0;
#X connect 13 0 6 1;
#X connect 15 0 10 0;
#X connect 16 0 9 1;
#X connect 18 0 22 0;
#X connect 19 0 18 0;
#X connect 20 0 23 0;
#X connect 21 0 19 0;
#X connect 23 0 18 1;
#X connect 24 0 38 0;
#X connect 25 0 24 0;
#X connect 26 0 37 0;
#X connect 27 0 41 0;
#X connect 28 0 27 0;
#X connect 29 0 40 0;
#X connect 30 0 44 0;
#X connect 31 0 30 0;
#X connect 32 0 43 0;
#X connect 33 0 47 0;
#X connect 34 0 33 0;
#X connect 35 0 46 0;
#X connect 36 0 25 0;
#X connect 37 0 24 1;
#X connect 39 0 28 0;
#X connect 40 0 27 1;
#X connect 42 0 31 0;
#X connect 43 0 30 1;
#X connect 45 0 34 0;
#X connect 46 0 33 1;
#X connect 48 0 74 0;
#X connect 49 0 48 0;
#X connect 50 0 73 0;
#X connect 51 0 77 0;
#X connect 52 0 51 0;
#X connect 53 0 76 0;
#X connect 54 0 80 0;
#X connect 55 0 54 0;
#X connect 56 0 79 0;
#X connect 57 0 83 0;
#X connect 58 0 57 0;
#X connect 59 0 82 0;
#X connect 60 0 86 0;
#X connect 61 0 60 0;
#X connect 62 0 85 0;
#X connect 63 0 89 0;
#X connect 64 0 63 0;
#X connect 65 0 88 0;
#X connect 66 0 92 0;
#X connect 67 0 66 0;
#X connect 68 0 91 0;
#X connect 69 0 95 0;
#X connect 70 0 69 0;
#X connect 71 0 94 0;
#X connect 72 0 49 0;
#X connect 73 0 48 1;
#X connect 75 0 52 0;
#X connect 76 0 51 1;
#X connect 78 0 55 0;
#X connect 79 0 54 1;
#X connect 81 0 58 0;
#X connect 82 0 57 1;
#X connect 84 0 61 0;
#X connect 85 0 60 1;
#X connect 87 0 64 0;
#X connect 88 0 63 1;
#X connect 90 0 67 0;
#X connect 91 0 66 1;
#X connect 93 0 70 0;
#X connect 94 0 69 1;
#X restore -216 139 pd load-array-to-gui-patches;
#X obj 101 461 bng 15 50 50 0 \$0-save-pattern2 empty SAVE 18 8 0 8 #fcfcfc #fc0400 #000000;
#X obj -216 120 s \$0-instance-num-2;
#N canvas 0 68 1440 580 save-load-pattern-txt 0;
#X obj 408 377 soundfiler;
#X obj 408 395 t b b;
#X obj 408 442 s \$0-diet-drum-seq-update-gui;
#X obj 435 424 s \$0-load-pattern;
#X obj 490 128 r \$0-instance-num-2;
#X obj 458 128 f \$0;
#X obj 430 114 f;
#X obj 408 16 bng 16 250 50 0 empty empty empty 0 -8 0 10 #fcfcfc #000000 #000000;
#X obj 458 108 loadbang;
#X obj 445 87 r \$0-diet-drum-seq-pattern-s;
#X obj 36 373 soundfiler;
#X obj 36 391 t b b;
#X obj 36 448 s \$0-diet-drum-seq-update-gui;
#X obj 63 430 s \$0-load-pattern;
#X obj 107 122 r \$0-instance-num-2;
#X obj 78 122 f \$0;
#X obj 54 102 f;
#X obj 36 13 bng 16 250 50 0 empty empty empty 0 -8 0 10 #fcfcfc #000000 #000000;
#X obj 78 102 loadbang;
#X obj 69 81 r \$0-diet-drum-seq-pattern-s;
#X obj 36 -8 r \$0-save-pattern2;
#X obj 408 -4 r \$0-load-pattern2;
#X obj 765 95 openpanel;
#X obj 765 195 soundfiler;
#X obj 765 74 bng 16 250 50 0 empty empty empty 0 -8 0 10 #fcfcfc #000000 #000000;
#X obj 810 114 loadbang;
#X obj 810 134 f \$0;
#X obj 765 154 pack s f;
#X msg 765 173 read -ascii -resize \$1 \$2-pattern;
#X obj 765 46 r \$0-save-open2;
#X obj 765 215 t b b;
#X obj 765 252 s \$0-diet-drum-seq-update-gui;
#X obj 792 234 s \$0-load-pattern;
#X obj 1038 215 soundfiler;
#X obj 1038 117 f \$0;
#X obj 1042 77 bng 16 250 50 0 empty empty empty 0 -8 0 10 #fcfcfc #000000 #000000;
#X obj 1051 142 pack f;
#X msg 1038 174 write ../export/pattern-export.txt \$1-pattern, f 61;
#X obj 1045 46 r \$0-export2;
#X obj 75 56 s update-path;
#X obj 54 173 pack f f f s;
#X obj 124 148 r patch-path;
#X msg 36 269 write /Users/johannklug/Documents/Bass\ Dieter/2025/Diet/MODULAR_LIVE_\ PERFORMER/patch1/statesave/patterns/3mono-rhythm-pattern0.txt 1239-pattern, f 31;
#X obj 447 61 s update-path;
#X msg 408 281 read -ascii -resize /Users/johannklug/Documents/Bass\ Dieter/2025/Diet/MODULAR_LIVE_\ PERFORMER/patch1/statesave/patterns/3mono-rhythm-pattern0.txt 4427-pattern, f 34;
#X obj 430 169 pack f f f s;
#X obj 499 148 r patch-path;
#X text 767 6 Not done:;
#X text 1042 8 Not done:;
#X obj 36 32 t b b b;
#X obj 408 37 t b b b;
#X msg 54 199 set write \$4/statesave/patterns/\$3mono-rhythm-pattern\$1.txt \$2-pattern, f 28;
#X msg 430 195 set read -ascii -resize \$4/statesave/patterns/\$3mono-rhythm-pattern\$1.txt \$2-pattern, f 29;
#X connect 0 0 1 0;
#X connect 1 0 2 0;
#X connect 1 1 3 0;
#X connect 4 0 45 2;
#X connect 5 0 45 1;
#X connect 6 0 45 0;
#X connect 7 0 50 0;
#X connect 8 0 5 0;
#X connect 9 0 6 1;
#X connect 10 0 11 0;
#X connect 11 0 12 0;
#X connect 11 1 13 0;
#X connect 14 0 40 2;
#X connect 15 0 40 1;
#X connect 16 0 40 0;
#X connect 17 0 49 0;
#X connect 18 0 15 0;
#X connect 19 0 16 1;
#X connect 20 0 17 0;
#X connect 21 0 7 0;
#X connect 22 0 27 0;
#X connect 23 0 30 0;
#X connect 24 0 22 0;
#X connect 25 0 26 0;
#X connect 26 0 27 1;
#X connect 27 0 28 0;
#X connect 28 0 23 0;
#X connect 29 0 24 0;
#X connect 30 0 31 0;
#X connect 30 1 32 0;
#X connect 34 0 36 0;
#X connect 35 0 34 0;
#X connect 36 0 37 0;
#X connect 37 0 33 0;
#X connect 38 0 35 0;
#X connect 40 0 51 0;
#X connect 41 0 40 3;
#X connect 42 0 10 0;
#X connect 44 0 0 0;
#X connect 45 0 52 0;
#X connect 46 0 45 3;
#X connect 49 0 42 0;
#X connect 49 1 16 0;
#X connect 49 2 39 0;
#X connect 50 0 44 0;
#X connect 50 1 6 0;
#X connect 50 2 43 0;
#X connect 51 0 42 0;
#X connect 52 0 44 0;
#X restore -216 196 pd save-load-pattern-txt;
#X obj 103 411 cnv 5 5 5 empty empty TR01 0 0 0 8 #ffffff #ff8300 0;
#X obj -156 495 s \$0-stutter-on-off-r;
#X obj 302 402 bng 15 250 50 0 \$0-options-button \$0-options-button-r SETTINGS -50 8 0 10 #fcfcfc #000000 #000000;
#X obj -166 513 s \$0-diet-drum-seq-pass-r;
#X obj -179 532 s \$0-diet-drum-seq-rec-r;
#X obj -204 569 s \$0-load-pattern2-r;
#X obj -193 550 s \$0-diet-drum-seq-set-instrument-r;
#X obj 909 164 s \$0-clock-in-r;
#X obj 1113 158 s \$0reset-clock-gui-r;
#X obj -216 587 s \$0-set-pattern-pos-r;
#X obj 244 298 cnv 5 5 5 empty empty PATTERN 0 0 0 8 #fcfcfc #000000 0;
#X obj 114 290 hradio 15 1 0 8 \$0-diet-drum-seq-pattern-s \$0-diet-drum-seq-pattern-r empty 0 -8 0 10 #ffc7c6 #000000 #000000 0;
#X obj 114 268 hradio 15 1 0 4 \$0-set-pattern-pos \$0-set-pattern-pos-r empty 0 -8 0 10 #fcfcfc #000000 #000000 0;
#X text -216 410 LOAD STARTUP GUI;
#X text 103 606 Reads and writes pattern \; length:;
#X obj -212 364 array size \$0-pattern;
#X msg -212 343 5000;
#X obj -212 320 loadbang;
#X text -214 302 Set Size for Pattern-Array;
#X obj 101 426 r SAVE-S;
#X obj 100 489 del 2;
#X obj 117 327 hsl 128 15 0 127 0 1 \$0-pattern-length-s \$0-pattern-length-r PTRN-LENGTH 133 7 0 10 #fcfcfc #000000 #000000 1100 1;
#X obj 117 362 hsl 128 15 0 127 0 1 \$0-offset-s \$0-offset-r OFFSET+/- 133 7 0 10 #fcfcfc #000000 #000000 7500 1;
#X text 367 8 old function:;
#X obj 1115 646 outlet;
#X msg 1115 589 60;
#X obj 1115 627 pack f f;
#X text 1111 665 KICK MIDI OUT;
#X obj 105 639 r \$0-pattern-length-s;
#X floatatom 215 312 5 0 0 0 STEPS - - 8;
#X obj 105 807 s \$0-pattern-length-r;
#X obj 125 664 / 127;
#X obj 125 685 * 63;
#X obj 125 706 + 1;
#X obj 125 727 i;
#N canvas 0 25 1440 788 clock-chaos 0;
#X obj 90 68 inlet;
#X obj 90 791 outlet;
#X obj 425 80 loadbang;
#X obj 425 124 array size \$0-pattern-groove1;
#X msg 425 103 16;
#X obj 156 466 tabread \$0-pattern-groove1;
#X obj 90 127 f;
#X obj 124 127 + 1;
#X msg 105 107 0;
#X obj 105 88 r \$0reset-clock;
#X obj 129 228 del;
#X obj 129 246 f;
#X obj 129 210 t b f;
#X floatatom 129 264 5 0 0 0 - - - 0;
#X obj 129 190 mod 16;
#X obj 530 387 r global-bpm;
#X floatatom 530 412 5 0 0 0 - - - 0;
#X obj 530 434 t b f;
#X obj 530 479 / \$1;
#X msg 530 455 60000;
#X obj 129 728 del;
#X obj 129 381 t b f;
#X floatatom 156 449 5 0 0 0 - - - 0;
#X obj 156 507 * -1;
#X obj 156 687 *;
#X floatatom 156 705 5 0 0 0 - - - 0;
#X floatatom 530 539 5 0 0 0 - - - 0;
#X obj 156 409 - 1;
#X obj 156 429 mod 16;
#X obj 90 164 route 0;
#X msg 90 204 0;
#X obj 156 487 * 0.5;
#X obj 156 557 + 1;
#X obj 223 320 mod 2;
#X floatatom 223 302 5 0 0 0 - - - 0;
#X floatatom 223 341 5 0 0 0 - - - 0;
#X obj 190 365 spigot;
#X obj 261 299 sel 0;
#X msg 261 320 1;
#X msg 289 320 0;
#X obj 252 362 spigot;
#X obj 190 282 t f f;
#X obj 366 456 tabread \$0-pattern-groove1;
#X obj 337 734 del;
#X obj 339 378 t b f;
#X floatatom 366 439 5 0 0 0 - - - 0;
#X obj 366 497 * -1;
#X obj 366 693 *;
#X floatatom 366 711 5 0 0 0 - - - 0;
#X obj 366 399 - 1;
#X obj 366 419 mod 16;
#X obj 366 477 * 0.5;
#X obj 366 557 + 1;
#X obj 529 509 / 4;
#X obj 224 543 r \$0reset-clock;
#X msg 224 564 stop;
#X listbox 426 193 30 0 0 0 - - - 0;
#X obj 426 170 array get \$0-pattern-groove1;
#X obj 426 149 bng 16 250 50 0 empty empty empty 0 -8 0 10 #fcfcfc #000000 #000000;
#X obj 426 213 print;
#X msg 426 238 -0.1 0.7 0.3 0.546668 0.560001 0.439999 0.119994 -0.0266751 -0.0400087 0.0466595 0.213329 0.373332 0.406666 0.326664 0.213329 0.206662 0.279997 0.439999 0.453333 0.3 -0.9 0.9 0.1 0.4 -0.5, f 72;
#X obj 426 326 array set \$0-pattern-groove1;
#X obj 739 503 r \$0-update-offset;
#X obj 733 483 + 30;
#X obj 733 55 inlet;
#X obj 733 465 - 1;
#X obj 733 541 tabread \$0-pattern;
#X obj 733 523 f;
#X floatatom 733 560 5 0 0 0 - - - 0;
#X floatatom 733 614 5 0 0 0 - - - 0;
#X floatatom 733 655 5 0 0 0 - - - 0;
#X obj 733 634 / 127;
#X obj 733 577 - 63.5;
#X obj 366 594 +;
#X obj 156 595 +;
#X msg 631 291 0 0 0 0 0 0 0 0 0 0 0 0 0 0 0 0;
#X obj 733 595 * -1;
#X obj 746 160 pack f f;
#X msg 746 181 set \$2-pattern-groove\$1;
#X obj 746 124 t f b;
#X floatatom 746 104 5 0 0 0 - - - 0;
#X obj 791 140 f \$0;
#X connect 0 0 6 0;
#X connect 2 0 4 0;
#X connect 4 0 3 0;
#X connect 5 0 31 0;
#X connect 6 0 7 0;
#X connect 6 0 29 0;
#X connect 7 0 6 1;
#X connect 8 0 6 1;
#X connect 9 0 8 0;
#X connect 10 0 11 0;
#X connect 11 0 13 0;
#X connect 12 0 10 0;
#X connect 12 1 11 1;
#X connect 13 0 41 0;
#X connect 14 0 12 0;
#X connect 15 0 16 0;
#X connect 16 0 17 0;
#X connect 17 0 19 0;
#X connect 17 1 18 1;
#X connect 18 0 53 0;
#X connect 19 0 18 0;
#X connect 20 0 1 0;
#X connect 21 0 20 0;
#X connect 21 1 27 0;
#X connect 22 0 5 0;
#X connect 23 0 32 0;
#X connect 24 0 25 0;
#X connect 25 0 20 1;
#X connect 26 0 24 1;
#X connect 26 0 47 1;
#X connect 27 0 28 0;
#X connect 28 0 22 0;
#X connect 29 0 30 0;
#X connect 29 1 14 0;
#X connect 30 0 14 0;
#X connect 30 0 1 0;
#X connect 31 0 23 0;
#X connect 32 0 74 0;
#X connect 33 0 35 0;
#X connect 34 0 33 0;
#X connect 35 0 36 1;
#X connect 35 0 37 0;
#X connect 36 0 21 0;
#X connect 37 0 38 0;
#X connect 37 1 39 0;
#X connect 38 0 40 1;
#X connect 39 0 40 1;
#X connect 40 0 44 0;
#X connect 41 0 36 0;
#X connect 41 0 40 0;
#X connect 41 1 34 0;
#X connect 42 0 51 0;
#X connect 43 0 1 0;
#X connect 44 0 43 0;
#X connect 44 1 49 0;
#X connect 45 0 42 0;
#X connect 46 0 52 0;
#X connect 47 0 48 0;
#X connect 48 0 43 1;
#X connect 49 0 50 0;
#X connect 50 0 45 0;
#X connect 51 0 46 0;
#X connect 52 0 73 0;
#X connect 53 0 26 0;
#X connect 54 0 55 0;
#X connect 55 0 20 0;
#X connect 55 0 43 0;
#X connect 56 0 59 0;
#X connect 57 0 56 0;
#X connect 58 0 57 0;
#X connect 60 0 61 0;
#X connect 62 0 67 0;
#X connect 63 0 67 0;
#X connect 64 0 65 0;
#X connect 64 0 80 0;
#X connect 65 0 63 0;
#X connect 66 0 68 0;
#X connect 67 0 66 0;
#X connect 68 0 72 0;
#X connect 69 0 71 0;
#X connect 70 0 74 1;
#X connect 70 0 73 1;
#X connect 71 0 70 0;
#X connect 72 0 76 0;
#X connect 73 0 47 0;
#X connect 74 0 24 0;
#X connect 75 0 61 0;
#X connect 76 0 69 0;
#X connect 77 0 78 0;
#X connect 78 0 3 1;
#X connect 78 0 57 2;
#X connect 78 0 61 2;
#X connect 78 0 42 0;
#X connect 78 0 5 0;
#X connect 79 0 77 0;
#X connect 79 1 81 0;
#X connect 80 0 79 0;
#X connect 81 0 77 1;
#X restore 1115 496 pd clock-chaos;
#X obj 340 857 r \$0-offset-s;
#X obj 340 895 s \$0-offset-r;
#X obj 117 377 hsl 128 15 0 127 0 1 \$0-velo-rndm-s \$0-velo-rndm-r VELO-RNDM 133 7 0 10 #fcfcfc #000000 #000000 12700 1;
#N canvas 393 100 716 627 load-velo-rndm 0;
#X obj 127 282 +;
#X obj 127 262 t b f;
#X obj 497 218 t b;
#X obj 464 269 spigot;
#X msg 497 237 0;
#X obj 88 78 t b f b;
#X obj 127 180 t f b;
#X obj 533 234 del 5;
#X msg 533 253 1;
#X obj 127 360 outlet;
#X obj 437 92 inlet;
#X obj 88 50 r \$0-load-pattern;
#X obj 127 137 s \$0-wait-after-load;
#X obj 127 161 r \$0-diet-drum-seq-set-instrument-s;
#X obj 154 201 s \$0-wait-after-load;
#X obj 497 198 r \$0-wait-after-load;
#X obj 127 342 tabread \$0-pattern;
#X obj 464 337 tabwrite \$0-pattern;
#X obj 437 127 t b f;
#X obj 127 223 + 40;
#X obj 479 170 s \$0-update-velorndm;
#X obj 35 156 loadbang;
#X msg 35 177 0;
#X connect 0 0 16 0;
#X connect 0 0 17 1;
#X connect 1 0 0 0;
#X connect 1 1 0 1;
#X connect 2 0 4 0;
#X connect 2 0 7 0;
#X connect 3 0 17 0;
#X connect 4 0 3 1;
#X connect 5 0 0 0;
#X connect 5 2 12 0;
#X connect 6 0 19 0;
#X connect 6 1 14 0;
#X connect 7 0 8 0;
#X connect 8 0 3 1;
#X connect 10 0 18 0;
#X connect 11 0 5 0;
#X connect 13 0 6 0;
#X connect 15 0 2 0;
#X connect 16 0 9 0;
#X connect 18 0 20 0;
#X connect 18 1 3 0;
#X connect 19 0 1 0;
#X connect 21 0 22 0;
#X connect 22 0 6 0;
#X restore 433 877 pd load-velo-rndm;
#X obj 433 857 r \$0-velo-rndm-s;
#X obj 433 895 s \$0-velo-rndm-r;
#N canvas 494 96 716 627 load-offset 0;
#X obj 127 282 +;
#X obj 127 262 t b f;
#X obj 497 218 t b;
#X obj 464 269 spigot;
#X msg 497 237 0;
#X obj 88 78 t b f b;
#X obj 127 180 t f b;
#X obj 533 234 del 5;
#X msg 533 253 1;
#X obj 154 394 outlet;
#X obj 437 92 inlet;
#X obj 88 50 r \$0-load-pattern;
#X obj 127 137 s \$0-wait-after-load;
#X obj 127 161 r \$0-diet-drum-seq-set-instrument-s;
#X obj 154 201 s \$0-wait-after-load;
#X obj 497 198 r \$0-wait-after-load;
#X obj 127 342 tabread \$0-pattern;
#X obj 464 337 tabwrite \$0-pattern;
#X obj 437 127 t b f;
#X obj 127 223 + 30;
#X obj 127 373 t b f;
#X obj 128 417 s \$0-update-offset;
#X floatatom 52 253 5 0 0 0 - - - 0;
#X obj 437 161 s \$0-update-offset;
#X obj 35 156 loadbang;
#X msg 35 177 0;
#X connect 0 0 16 0;
#X connect 0 0 17 1;
#X connect 1 0 0 0;
#X connect 1 1 0 1;
#X connect 2 0 4 0;
#X connect 2 0 7 0;
#X connect 3 0 17 0;
#X connect 4 0 3 1;
#X connect 5 0 0 0;
#X connect 5 2 12 0;
#X connect 6 0 19 0;
#X connect 6 0 22 0;
#X connect 6 1 14 0;
#X connect 7 0 8 0;
#X connect 8 0 3 1;
#X connect 10 0 18 0;
#X connect 11 0 5 0;
#X connect 13 0 6 0;
#X connect 15 0 2 0;
#X connect 16 0 20 0;
#X connect 18 0 23 0;
#X connect 18 1 3 0;
#X connect 19 0 1 0;
#X connect 20 0 21 0;
#X connect 20 1 9 0;
#X connect 24 0 25 0;
#X connect 25 0 6 0;
#X restore 340 877 pd load-offset;
#N canvas 494 96 716 627 load-grve-intens 0;
#X obj 127 282 +;
#X obj 127 262 t b f;
#X obj 497 218 t b;
#X obj 464 269 spigot;
#X msg 497 237 0;
#X obj 88 78 t b f b;
#X obj 127 180 t f b;
#X obj 533 234 del 5;
#X msg 533 253 1;
#X obj 154 394 outlet;
#X obj 437 92 inlet;
#X obj 88 50 r \$0-load-pattern;
#X obj 127 137 s \$0-wait-after-load;
#X obj 127 161 r \$0-diet-drum-seq-set-instrument-s;
#X obj 154 201 s \$0-wait-after-load;
#X obj 497 198 r \$0-wait-after-load;
#X obj 127 342 tabread \$0-pattern;
#X obj 464 337 tabwrite \$0-pattern;
#X obj 437 127 t b f;
#X obj 127 373 t b f;
#X floatatom 52 253 5 0 0 0 - - - 0;
#X obj 127 223 + 50;
#X obj 127 420 s \$0-update-grve-intens;
#X obj 437 161 s \$0-update-grve-intens;
#X obj 35 156 loadbang;
#X msg 35 177 0;
#X connect 0 0 16 0;
#X connect 0 0 17 1;
#X connect 1 0 0 0;
#X connect 1 1 0 1;
#X connect 2 0 4 0;
#X connect 2 0 7 0;
#X connect 3 0 17 0;
#X connect 4 0 3 1;
#X connect 5 0 0 0;
#X connect 5 2 12 0;
#X connect 6 0 20 0;
#X connect 6 0 21 0;
#X connect 6 1 14 0;
#X connect 7 0 8 0;
#X connect 8 0 3 1;
#X connect 10 0 18 0;
#X connect 11 0 5 0;
#X connect 13 0 6 0;
#X connect 15 0 2 0;
#X connect 16 0 19 0;
#X connect 18 0 23 0;
#X connect 18 1 3 0;
#X connect 19 0 22 0;
#X connect 19 1 9 0;
#X connect 21 0 1 0;
#X connect 24 0 25 0;
#X connect 25 0 6 0;
#X restore 552 876 pd load-grve-intens;
#X obj 552 857 r \$0-grve-intens-s;
#X obj 552 894 s \$0-grve-intens-r;
#X obj 1278 475 table \$0-pattern-groove1;
#N canvas 295 320 832 357 velorndm 0;
#X obj 168 6 inlet;
#X obj -7 265 outlet;
#X obj 153 158 random;
#X obj 173 198 / 2;
#X obj 173 219 * -1;
#X obj 145 243 +;
#X floatatom 145 264 5 0 0 0 - - - 0;
#X floatatom 169 104 5 0 0 0 - - - 0;
#X obj 169 129 t b f f;
#X obj 5 5 inlet;
#X obj 5 26 t f b;
#X obj 7 188 +;
#X obj 249 47 - 1;
#X obj 249 123 tabread \$0-pattern;
#X obj 249 105 f;
#X obj 249 65 + 40;
#X obj 255 85 r \$0-update-velorndm;
#X connect 0 0 12 0;
#X connect 2 0 5 0;
#X connect 3 0 4 0;
#X connect 4 0 5 1;
#X connect 5 0 6 0;
#X connect 6 0 11 1;
#X connect 7 0 8 0;
#X connect 8 0 2 0;
#X connect 8 1 2 1;
#X connect 8 2 3 0;
#X connect 9 0 10 0;
#X connect 10 0 11 0;
#X connect 10 1 2 0;
#X connect 11 0 1 0;
#X connect 12 0 15 0;
#X connect 13 0 7 0;
#X connect 14 0 13 0;
#X connect 15 0 14 0;
#X connect 16 0 14 0;
#X restore 1214 539 pd velorndm;
#X obj 1115 608 makenote 100 2;
#X obj 938 51 inlet;
#X msg 386 727 1;
#X msg 341 788 \; pd-\$1options vis \$2;
#X obj 341 728 f \$0;
#X obj 341 767 pack f f;
#X obj 341 709 t b b;
#X obj 341 690 r \$0-options-button;
#X text 339 665 Opens the Options-Subpatch:;
#N canvas 551 264 349 207 \$0options 0;
#X text 11 10 Ableton-Push-Interface:;
#X obj 15 70 hradio 16 1 0 8 \$0-main-menu-s \$0-main-menu-r Main-Menu 0 -8 0 10 #fcfcfc #000000 #000000 0;
#X obj 15 110 hradio 16 1 0 8 \$0-sub-menu-s \$0-sub-menu-r Sub-Menu 0 -8 0 10 #fcfcfc #000000 #000000 0;
#X text 11 30 (BUTTONS);
#X obj 190 71 hradio 16 1 0 8 \$0-main-menu-s \$0-main-menu-r Main-Menu 0 -8 0 10 #fcfcfc #000000 #000000 0;
#X obj 190 111 hradio 16 1 0 8 \$0-sub-menu-s \$0-sub-menu-r Sub-Menu 0 -8 0 10 #fcfcfc #000000 #000000 0;
#X obj 190 151 hradio 16 1 0 8 \$0-sub2-menu-s \$0-sub2-menu-r Sub2-Menu 0 -8 0 10 #fcfcfc #000000 #000000 0;
#X text 186 31 (ENCODERS);
#X restore 340 821 pd \$0options;
#X obj 1084 54 inlet;
#X obj 891 2 r global-trigger;
#X obj 1055 7 r global-reset;
#X connect 6 0 75 0;
#X connect 6 0 38 0;
#X connect 7 0 38 0;
#X connect 8 0 44 0;
#X connect 8 0 74 0;
#X connect 10 0 12 0;
#X connect 10 0 65 0;
#X connect 12 0 14 0;
#X connect 14 0 11 0;
#X connect 33 0 97 0;
#X connect 34 0 62 0;
#X connect 35 0 92 0;
#X connect 35 1 114 0;
#X connect 36 0 35 1;
#X connect 36 0 102 1;
#X connect 36 0 114 1;
#X connect 37 0 36 0;
#X connect 45 0 102 0;
#X connect 47 0 49 0;
#X connect 49 0 48 0;
#X connect 52 0 53 0;
#X connect 53 0 54 0;
#X connect 53 0 72 0;
#X connect 54 0 68 0;
#X connect 54 0 70 0;
#X connect 54 0 71 0;
#X connect 54 0 73 0;
#X connect 54 0 76 0;
#X connect 78 0 87 0;
#X connect 83 0 82 0;
#X connect 84 0 83 0;
#X connect 86 0 64 0;
#X connect 87 0 39 0;
#X connect 92 0 115 0;
#X connect 93 0 91 0;
#X connect 95 0 33 0;
#X connect 95 0 34 0;
#X connect 95 0 98 0;
#X connect 98 0 99 0;
#X connect 99 0 100 0;
#X connect 100 0 101 0;
#X connect 101 0 96 0;
#X connect 102 0 35 0;
#X connect 103 0 109 0;
#X connect 106 0 108 0;
#X connect 107 0 106 0;
#X connect 109 0 104 0;
#X connect 110 0 112 0;
#X connect 111 0 110 0;
#X connect 114 0 115 1;
#X connect 115 0 93 0;
#X connect 115 1 93 1;
#X connect 116 0 8 0;
#X connect 117 0 120 1;
#X connect 119 0 120 0;
#X connect 120 0 118 0;
#X connect 121 0 119 0;
#X connect 121 1 117 0;
#X connect 122 0 121 0;
#X connect 125 0 6 0;
#X connect 126 0 8 0;
#X connect 127 0 6 0;
#X coords 0 -1 1 1 220 320 2 100 100;
