#N canvas 0 25 1440 847 10;
#X obj 77 493 line~;
#X obj 77 548 mtof~;
#X floatatom 232 122 5 0 0 1 Hz - - 0;
#X obj 77 520 +~;
#X obj 947 67 *~ 127;
#X obj 134 136 hsl 128 15 0 127 0 1 \$0-param-1-s \$0-param-1-r FREQ 135 7 0 10 #6b3f1d #000000 #000000 3 1;
#X obj 269 109 cnv 5 5 5 empty empty SYNC 0 0 0 8 #fcfcfc #dc4c90 0;
#X obj 77 572 +~;
#X obj 131 129 cnv 5 5 5 empty empty BASIC-LFO 0 0 0 12 #fcfcfc #404040 0;
#X obj 77 470 pack 0 50;
#X obj 134 151 hsl 128 15 0 127 0 1 \$0-param-2-s \$0-param-2-r P-WIDTH 135 7 0 10 #8d5524 #000000 #000000 3 1;
#N canvas 63 88 833 418 sinewave 0;
#X obj 231 28 r \$0-basic-lfo-sync!;
#X obj 209 58 inlet~;
#X obj 209 136 osc~;
#X obj 450 235 switch~;
#X obj 209 241 *~;
#X obj 450 62 t f f;
#X obj 477 136 line~;
#X obj 477 114 pack 0 100;
#X obj 450 158 sel 0;
#X obj 450 180 del 100;
#X msg 450 202 0;
#X obj 509 22 r \$0-basic-lfo-sine-on/off;
#X obj 377 220 *~ 0.5;
#X obj 379 245 +~ 0.5;
#X obj 209 286 outlet~ BI;
#X obj 376 278 outlet~ UNI;
#X obj 450 14 inlet;
#X connect 0 0 2 1;
#X connect 1 0 2 0;
#X connect 2 0 4 0;
#X connect 2 0 12 0;
#X connect 4 0 14 0;
#X connect 5 0 8 0;
#X connect 5 1 7 0;
#X connect 6 0 4 1;
#X connect 7 0 6 0;
#X connect 8 0 9 0;
#X connect 8 1 3 0;
#X connect 9 0 10 0;
#X connect 10 0 3 0;
#X connect 12 0 13 0;
#X connect 13 0 15 0;
#X connect 16 0 5 0;
#X restore 77 601 pd sinewave;
#X obj 202 129 cnv 5 5 5 empty \$0-instance-num 1 0 0 0 12 #fcfcfc #404040 0;
#N canvas 92 117 732 465 triangle 0;
#X obj 428 75 r \$0-basic-lfo-sync!;
#X obj 340 53 inlet~;
#X obj 388 335 switch~;
#X obj 340 326 *~;
#X obj 388 74 t f f;
#X obj 415 309 line~;
#X obj 340 125 phasor~;
#X obj 340 213 min~;
#X obj 361 167 *~ -1;
#X obj 361 189 +~ 1;
#X obj 340 235 *~ 4;
#X obj 340 257 -~ 1;
#X obj 415 287 pack 0 100;
#X obj 388 225 sel 0;
#X obj 388 247 del 100;
#X msg 388 269 0;
#X obj 448 42 r \$0-basic-lfo-triangle-on/off;
#X obj 547 231 *~ 2;
#X obj 547 360 outlet~ UNI;
#X obj 340 371 outlet~ BI;
#X obj 388 21 inlet;
#X connect 0 0 6 1;
#X connect 1 0 6 0;
#X connect 3 0 19 0;
#X connect 4 0 13 0;
#X connect 4 1 12 0;
#X connect 5 0 3 1;
#X connect 6 0 7 0;
#X connect 6 0 8 0;
#X connect 7 0 10 0;
#X connect 7 0 17 0;
#X connect 8 0 9 0;
#X connect 9 0 7 1;
#X connect 10 0 11 0;
#X connect 11 0 3 0;
#X connect 12 0 5 0;
#X connect 13 0 14 0;
#X connect 13 1 2 0;
#X connect 14 0 15 0;
#X connect 15 0 2 0;
#X connect 17 0 18 0;
#X connect 20 0 4 0;
#X restore 161 602 pd triangle;
#N canvas 411 391 652 481 saw 0;
#X obj 404 116 r \$0-basic-lfo-sync!;
#X obj 365 68 inlet~;
#X obj 413 350 switch~;
#X obj 365 341 *~;
#X obj 413 89 t f f;
#X obj 440 324 line~;
#X obj 365 140 phasor~;
#X obj 365 272 -~ 1;
#X obj 365 215 *~ 2;
#X obj 440 302 pack 0 100;
#X obj 413 177 sel 0;
#X obj 413 199 del 100;
#X msg 413 221 0;
#X obj 443 57 r \$0-basic-lfo-saw-on/off;
#X obj 535 385 outlet~ UNI;
#X obj 365 386 outlet~ BI;
#X obj 413 28 inlet;
#X connect 0 0 6 1;
#X connect 1 0 6 0;
#X connect 3 0 15 0;
#X connect 4 0 10 0;
#X connect 4 1 9 0;
#X connect 5 0 3 1;
#X connect 6 0 8 0;
#X connect 6 0 14 0;
#X connect 7 0 3 0;
#X connect 8 0 7 0;
#X connect 9 0 5 0;
#X connect 10 0 11 0;
#X connect 10 1 2 0;
#X connect 11 0 12 0;
#X connect 12 0 2 0;
#X connect 16 0 4 0;
#X restore 241 601 pd saw;
#N canvas 0 129 813 603 pulse 0;
#X obj 144 47 r \$0-basic-lfo-sync!;
#X obj 324 53 inlet~;
#X obj 324 501 outlet~;
#X obj 324 125 phasor~;
#X obj 324 425 -~ 1;
#X obj 324 323 cos~;
#X obj 324 350 expr~ $v1 < $v2;
#X obj 411 295 pack 0 50;
#X obj 411 313 line~;
#X obj 411 331 +~;
#X obj 411 239 * 0.00787402;
#X obj 324 404 *~ 2;
#X obj 411 277 + 0.01;
#X obj 411 258 * 0.98;
#N canvas 20 41 451 535 scene-out-pm2 0;
#X obj 37 51 r scene-mix;
#X obj 37 240 t f f;
#X msg 37 262 127 \$1;
#X obj 37 284 -;
#X obj 207 503 outlet OUT;
#X floatatom 329 226 5 0 0 0 - - - 0;
#X obj 207 340 *;
#X floatatom 207 361 5 0 0 0 - - - 0;
#X obj 207 381 / 127;
#X floatatom 207 402 5 0 0 0 - - - 0;
#X obj 329 329 *;
#X floatatom 329 347 5 0 0 0 - - - 0;
#X obj 329 365 / 127;
#X floatatom 329 383 5 0 0 0 - - - 0;
#X obj 207 447 +;
#X floatatom 207 485 5 0 0 0 - - - 0;
#X obj 207 466 i;
#X obj 329 310 f;
#X obj 329 246 t b f;
#X floatatom 210 221 5 0 0 0 - - - 0;
#X obj 209 310 f;
#X obj 210 241 t b f;
#X obj 329 400 t b f;
#X obj 210 175 r \$0-param-2-r-a;
#X obj 329 174 r \$0-param-2-r-b;
#X connect 0 0 1 0;
#X connect 1 0 2 0;
#X connect 1 1 17 0;
#X connect 2 0 3 0;
#X connect 3 0 20 0;
#X connect 5 0 18 0;
#X connect 6 0 7 0;
#X connect 7 0 8 0;
#X connect 8 0 9 0;
#X connect 9 0 14 0;
#X connect 10 0 11 0;
#X connect 11 0 12 0;
#X connect 12 0 13 0;
#X connect 13 0 22 0;
#X connect 14 0 16 0;
#X connect 15 0 4 0;
#X connect 16 0 15 0;
#X connect 17 0 10 0;
#X connect 18 0 17 0;
#X connect 18 1 10 1;
#X connect 19 0 21 0;
#X connect 20 0 6 0;
#X connect 21 0 20 0;
#X connect 21 1 6 1;
#X connect 22 0 14 0;
#X connect 22 1 14 1;
#X connect 23 0 19 0;
#X connect 24 0 5 0;
#X restore 411 220 pd scene-out-pm2;
#X obj 324 459 *~;
#X obj 543 179 t f f;
#X obj 570 414 line~;
#X obj 570 392 pack 0 100;
#X obj 543 267 sel 0;
#X obj 543 289 del 100;
#X msg 543 311 0;
#X obj 543 118 inlet;
#X obj 464 506 outlet~;
#X msg 514 396 1;
#X connect 0 0 3 1;
#X connect 1 0 3 0;
#X connect 3 0 5 0;
#X connect 4 0 15 0;
#X connect 4 0 23 0;
#X connect 5 0 6 0;
#X connect 6 0 11 0;
#X connect 7 0 8 0;
#X connect 8 0 9 0;
#X connect 9 0 6 1;
#X connect 10 0 13 0;
#X connect 11 0 4 0;
#X connect 12 0 7 0;
#X connect 13 0 12 0;
#X connect 14 0 10 0;
#X connect 15 0 2 0;
#X connect 16 0 19 0;
#X connect 16 1 18 0;
#X connect 17 0 15 1;
#X connect 18 0 17 0;
#X connect 19 0 20 0;
#X connect 20 0 21 0;
#X connect 22 0 16 0;
#X restore 297 600 pd pulse;
#X obj 77 444 t f f;
#X obj 478 580 pack 0 50;
#X obj 478 616 line~;
#X obj 103 302 cnv 5 5 5 empty empty BI-P 0 0 0 8 #fcfcfc #404040 0;
#X obj 140 302 cnv 5 5 5 empty empty UNI-P 0 0 0 8 #fcfcfc #404040 0;
#X obj 183 302 cnv 5 5 5 empty empty PULSE 0 0 0 8 #fcfcfc #000000 0;
#X obj 463 661 *~;
#X obj 641 515 noise~;
#X obj 641 575 samphold~;
#X obj 948 18 inlet~ FREQ;
#X obj 341 71 inlet~;
#X obj 341 93 threshold~ 0.9 0 0.9 0;
#X obj 341 162 s \$0-basic-lfo-sync!;
#X msg 341 138 0;
#X obj 77 405 * 1.5;
#X obj 77 424 - 127;
#X obj 648 534 threshold~ 0.9 0 0.9 0;
#X msg 648 556 reset;
#X obj 349 114 loadbang;
#X obj 75 834 outlet~ BI-POLAR;
#X obj 233 302 cnv 5 5 5 empty empty S&H 0 0 0 8 #fcfcfc #404040 0;
#X obj 164 461 mtof;
#N canvas 155 101 1132 690 choose-wform 0;
#X obj 91 344 s \$0-lfo-waveform-gui-r;
#X obj 81 200 i;
#X obj 81 302 sel 0;
#X msg 81 383 1;
#X msg 110 383 0;
#X obj 81 405 outlet;
#X msg 251 388 1;
#X msg 280 388 0;
#X obj 251 410 outlet;
#X obj 251 302 sel 1;
#X msg 420 383 1;
#X msg 449 383 0;
#X obj 420 405 outlet;
#X obj 420 298 sel 2;
#X msg 590 382 1;
#X msg 619 382 0;
#X obj 590 404 outlet;
#X obj 590 298 sel 3;
#X obj 261 345 s \$0-lfo-waveform-gui-r;
#X obj 428 342 s \$0-lfo-waveform-gui-r;
#X obj 598 342 s \$0-lfo-waveform-gui-r;
#X msg 257 322 symbol TRI;
#X msg 87 321 symbol SIN;
#X msg 424 319 symbol SAW;
#X msg 594 319 symbol PLS;
#X msg 750 382 1;
#X msg 779 382 0;
#X obj 750 404 outlet;
#X obj 758 342 s \$0-lfo-waveform-gui-r;
#X obj 750 298 sel 4;
#X msg 754 319 symbol S&H;
#X floatatom 120 277 5 0 0 0 - - - 0;
#X obj 80 25 / 27;
#X obj 88 363 s \$0-param-3-t;
#X obj 257 364 s \$0-param-3-t;
#X obj 425 361 s \$0-param-3-t;
#X obj 595 361 s \$0-param-3-t;
#X obj 755 361 s \$0-param-3-t;
#X obj 80 7 r \$0-param-3-s;
#X obj 143 76 loadbang;
#X obj 143 97 del 500;
#X connect 1 0 2 0;
#X connect 1 0 9 0;
#X connect 1 0 13 0;
#X connect 1 0 17 0;
#X connect 1 0 29 0;
#X connect 1 0 31 0;
#X connect 2 0 3 0;
#X connect 2 0 22 0;
#X connect 2 1 4 0;
#X connect 3 0 5 0;
#X connect 4 0 5 0;
#X connect 6 0 8 0;
#X connect 7 0 8 0;
#X connect 9 0 6 0;
#X connect 9 0 21 0;
#X connect 9 1 7 0;
#X connect 10 0 12 0;
#X connect 11 0 12 0;
#X connect 13 0 10 0;
#X connect 13 0 23 0;
#X connect 13 1 11 0;
#X connect 14 0 16 0;
#X connect 15 0 16 0;
#X connect 17 0 14 0;
#X connect 17 0 24 0;
#X connect 17 1 15 0;
#X connect 21 0 18 0;
#X connect 21 0 34 0;
#X connect 22 0 0 0;
#X connect 22 0 33 0;
#X connect 23 0 19 0;
#X connect 23 0 35 0;
#X connect 24 0 20 0;
#X connect 24 0 36 0;
#X connect 25 0 27 0;
#X connect 26 0 27 0;
#X connect 29 0 25 0;
#X connect 29 0 30 0;
#X connect 29 1 26 0;
#X connect 30 0 28 0;
#X connect 30 0 37 0;
#X connect 32 0 1 0;
#X connect 38 0 32 0;
#X connect 39 0 40 0;
#X connect 40 0 1 0;
#X restore 341 197 pd choose-wform;
#X floatatom 77 387 5 0 0 0 - - - 0;
#N canvas 20 41 451 535 scene-out-pm1 0;
#X obj 37 51 r scene-mix;
#X obj 37 240 t f f;
#X msg 37 262 127 \$1;
#X obj 37 284 -;
#X obj 207 503 outlet OUT;
#X floatatom 329 226 5 0 0 0 - - - 0;
#X obj 207 340 *;
#X floatatom 207 361 5 0 0 0 - - - 0;
#X obj 207 381 / 127;
#X floatatom 207 402 5 0 0 0 - - - 0;
#X obj 329 329 *;
#X floatatom 329 347 5 0 0 0 - - - 0;
#X obj 329 365 / 127;
#X floatatom 329 383 5 0 0 0 - - - 0;
#X obj 207 447 +;
#X floatatom 207 485 5 0 0 0 - - - 0;
#X obj 207 466 i;
#X obj 329 310 f;
#X obj 329 246 t b f;
#X floatatom 210 221 5 0 0 0 - - - 0;
#X obj 209 310 f;
#X obj 210 241 t b f;
#X obj 210 175 r \$0-param-1-r-a;
#X obj 329 174 r \$0-param-1-r-b;
#X obj 329 400 t b f;
#X connect 0 0 1 0;
#X connect 1 0 2 0;
#X connect 1 1 17 0;
#X connect 2 0 3 0;
#X connect 3 0 20 0;
#X connect 5 0 18 0;
#X connect 6 0 7 0;
#X connect 7 0 8 0;
#X connect 8 0 9 0;
#X connect 9 0 14 0;
#X connect 10 0 11 0;
#X connect 11 0 12 0;
#X connect 12 0 13 0;
#X connect 13 0 24 0;
#X connect 14 0 16 0;
#X connect 15 0 4 0;
#X connect 16 0 15 0;
#X connect 17 0 10 0;
#X connect 18 0 17 0;
#X connect 18 1 10 1;
#X connect 19 0 21 0;
#X connect 20 0 6 0;
#X connect 21 0 20 0;
#X connect 21 1 6 1;
#X connect 22 0 19 0;
#X connect 23 0 5 0;
#X connect 24 0 14 0;
#X connect 24 1 14 1;
#X restore 77 368 pd scene-out-pm1;
#N canvas 148 143 451 535 scene-out-pm3 0;
#X obj 37 51 r scene-mix;
#X obj 37 240 t f f;
#X msg 37 262 127 \$1;
#X obj 37 284 -;
#X obj 207 503 outlet OUT;
#X floatatom 329 226 5 0 0 0 - - - 0;
#X obj 207 340 *;
#X floatatom 207 361 5 0 0 0 - - - 0;
#X obj 207 381 / 127;
#X floatatom 207 402 5 0 0 0 - - - 0;
#X obj 329 329 *;
#X floatatom 329 347 5 0 0 0 - - - 0;
#X obj 329 365 / 127;
#X floatatom 329 383 5 0 0 0 - - - 0;
#X obj 207 447 +;
#X floatatom 207 485 5 0 0 0 - - - 0;
#X obj 329 310 f;
#X obj 329 246 t b f;
#X floatatom 210 221 5 0 0 0 - - - 0;
#X obj 209 310 f;
#X obj 210 241 t b f;
#X obj 329 400 t b f;
#X obj 210 175 r \$0-param-3-r-a;
#X obj 329 174 r \$0-param-3-r-b;
#X connect 0 0 1 0;
#X connect 1 0 2 0;
#X connect 1 1 16 0;
#X connect 2 0 3 0;
#X connect 3 0 19 0;
#X connect 5 0 17 0;
#X connect 6 0 7 0;
#X connect 7 0 8 0;
#X connect 8 0 9 0;
#X connect 9 0 14 0;
#X connect 10 0 11 0;
#X connect 11 0 12 0;
#X connect 12 0 13 0;
#X connect 13 0 21 0;
#X connect 14 0 15 0;
#X connect 15 0 4 0;
#X connect 16 0 10 0;
#X connect 17 0 16 0;
#X connect 17 1 10 1;
#X connect 18 0 20 0;
#X connect 19 0 6 0;
#X connect 20 0 19 0;
#X connect 20 1 6 1;
#X connect 21 0 14 0;
#X connect 21 1 14 1;
#X connect 22 0 18 0;
#X connect 23 0 5 0;
#X restore 478 491 pd scene-out-pm3;
#X obj 193 427 t f f;
#X obj 193 388 * 1.5;
#X obj 193 407 - 127;
#X floatatom 193 370 5 0 0 0 - - - 0;
#X obj 478 513 - 1;
#X obj 478 534 / 127;
#X floatatom 478 555 5 0 0 0 - - - 0;
#X obj 526 47 text define -k \$0-modul-settings;
#A set LFO \; FREQ \; P-WIDTH \; SHAPE \; SLIDE \; - \; - \; \; \; LFO \; 4 \; #6b3f1d \; #8d5524 \; #c68642 \; #e0ac69 \; #f1c27d \; #ffdbac \; #ffe6c7 \; #fff1df \;;
#X obj 134 184 hsl 128 15 0 127 0 1 \$0-param-3-s \$0-param-3-r SHAPE 135 7 0 10 #c68642 #000000 #000000 3 1;
#X listbox 220 170 9 0 0 0 - \$0-lfo-waveform-gui-r - 8;
#X obj 134 206 hsl 128 15 0 127 0 1 \$0-param-4-s \$0-param-4-r SLIDE 135 7 0 10 #e0ac69 #000000 #000000 3 1;
#X obj 341 216 tgl 16 0 empty empty empty 0 -8 0 10 #fcfcfc #000000 #000000 0 1;
#X obj 359 216 tgl 16 0 empty empty empty 0 -8 0 10 #fcfcfc #000000 #000000 0 1;
#X obj 377 216 tgl 16 0 empty empty empty 0 -8 0 10 #fcfcfc #000000 #000000 0 1;
#X obj 395 216 tgl 16 0 empty empty empty 0 -8 0 10 #fcfcfc #000000 #000000 0 1;
#X obj 426 267 tgl 16 0 empty empty empty 0 -8 0 10 #fcfcfc #000000 #000000 0 1;
#X obj 464 804 *~;
#X obj 643 717 line~;
#X obj 643 695 pack 0 100;
#X obj 692 649 line~;
#X obj 195 766 lop~;
#X obj 302 670 * 6;
#X obj 302 691 exp;
#X obj 302 733 + 0.1;
#X obj 302 650 / 127;
#X floatatom 302 754 27 0 0 0 - - - 0;
#X obj 302 712 * 40;
#X obj 981 40 inlet~;
#X text 675 153 <--rename labels here;
#X text 715 173 <--modules values are saved here;
#X text 676 191 <--Opens the Options-Subpatch;
#X obj 525 262 s \$0-a;
#X obj 579 262 s \$0-b;
#X obj 633 262 s \$0-c;
#X obj 688 262 s \$0-d;
#X obj 742 261 s \$0-e;
#X obj 797 261 s \$0-f;
#X obj 851 260 s \$0-g;
#X obj 906 260 s \$0-h;
#X text 951 260 <--these go to the dsp-object;
#X text 625 111 <--receives encoder messages from mother.pd;
#X text 625 91 <--sends display info to mother.pd;
#X text 635 131 <--checks menu and if module is "active";
#X text 922 233 <--receives audio + message for mod;
#X obj 525 91 core_display \$0;
#X obj 525 111 core_encoder \$0;
#X obj 525 132 core_main_menu \$0;
#X obj 525 153 core_module_settings \$0;
#X obj 525 234 core_modulation_receiver \$0, f 64;
#X text 524 70 Modul Core:;
#X obj 525 212 core_mod_display \$0;
#X obj 831 422 s \$0-param-1-t;
#X obj 831 324 r \$0-param-1-s;
#X msg 927 403 symbol \$1%;
#X obj 927 345 / 1.27;
#X floatatom 927 364 5 0 0 0 - - - 0;
#X obj 927 384 i;
#X obj 927 324 r \$0-param-2-s;
#X obj 927 422 s \$0-param-2-t;
#X msg 1125 402 symbol \$1%;
#X obj 1125 344 / 1.27;
#X floatatom 1125 363 5 0 0 0 - - - 0;
#X obj 1125 383 i;
#X obj 1125 323 r \$0-param-4-s;
#X obj 1125 421 s \$0-param-4-t;
#X msg 831 543 symbol \$1%;
#X obj 831 485 / 1.27;
#X floatatom 831 504 5 0 0 0 - - - 0;
#X obj 831 524 i;
#X msg 927 543 symbol \$1%;
#X obj 927 485 / 1.27;
#X floatatom 927 504 5 0 0 0 - - - 0;
#X obj 927 524 i;
#X msg 1025 542 symbol \$1%;
#X obj 1025 484 / 1.27;
#X floatatom 1025 503 5 0 0 0 - - - 0;
#X obj 1025 523 i;
#X msg 1125 542 symbol \$1%;
#X obj 1125 484 / 1.27;
#X floatatom 1125 503 5 0 0 0 - - - 0;
#X obj 1125 523 i;
#X obj 831 464 r \$0-param-5-s;
#X obj 831 562 s \$0-param-5-t;
#X obj 927 464 r \$0-param-6-s;
#X obj 927 562 s \$0-param-6-t;
#X obj 1025 463 r \$0-param-7-s;
#X obj 1025 561 s \$0-param-7-t;
#X obj 1125 463 r \$0-param-8-s;
#X obj 1125 561 s \$0-param-8-t;
#X text 829 300 Value Display Representation:;
#X msg 831 403 symbol \$1hz;
#X obj 666 371 i;
#X obj 666 349 * 100;
#X obj 666 392 / 100;
#X obj 512 420 makefilename %.3f;
#X obj 103 242 cnv 5 5 5 empty empty OUT 0 0 0 8 #fcfcfc #000000 0;
#X obj 525 192 core_options \$0 \$1 \$2 \$3;
#X obj 525 173 core_state_saving \$0 \$1 \$2 \$3;
#X connect 0 0 3 0;
#X connect 1 0 7 0;
#X connect 3 0 1 0;
#X connect 4 0 3 1;
#X connect 5 0 45 0;
#X connect 7 0 15 0;
#X connect 7 0 11 0;
#X connect 7 0 13 0;
#X connect 7 0 14 0;
#X connect 9 0 0 0;
#X connect 11 0 62 0;
#X connect 13 0 62 0;
#X connect 14 0 62 0;
#X connect 15 0 62 0;
#X connect 15 1 24 1;
#X connect 16 0 9 0;
#X connect 17 0 18 0;
#X connect 18 0 22 1;
#X connect 23 0 24 0;
#X connect 24 0 22 0;
#X connect 24 0 58 0;
#X connect 25 0 4 0;
#X connect 26 0 27 0;
#X connect 27 0 29 0;
#X connect 29 0 28 0;
#X connect 30 0 31 0;
#X connect 31 0 16 0;
#X connect 32 0 33 0;
#X connect 33 0 24 0;
#X connect 34 0 29 0;
#X connect 37 0 2 0;
#X connect 37 0 134 0;
#X connect 37 0 136 0;
#X connect 38 0 53 0;
#X connect 38 1 54 0;
#X connect 38 2 55 0;
#X connect 38 3 56 0;
#X connect 38 4 57 0;
#X connect 39 0 30 0;
#X connect 40 0 39 0;
#X connect 41 0 46 0;
#X connect 42 0 37 0;
#X connect 43 0 44 0;
#X connect 44 0 42 0;
#X connect 45 0 43 0;
#X connect 46 0 47 0;
#X connect 47 0 48 0;
#X connect 48 0 17 0;
#X connect 52 0 66 0;
#X connect 53 0 11 1;
#X connect 54 0 13 1;
#X connect 55 0 14 1;
#X connect 56 0 15 1;
#X connect 57 0 60 0;
#X connect 58 0 35 0;
#X connect 59 0 58 1;
#X connect 60 0 59 0;
#X connect 62 0 35 0;
#X connect 63 0 64 0;
#X connect 64 0 68 0;
#X connect 65 0 67 0;
#X connect 66 0 63 0;
#X connect 67 0 62 1;
#X connect 68 0 65 0;
#X connect 69 0 4 0;
#X connect 90 0 73 0;
#X connect 90 1 74 0;
#X connect 90 2 75 0;
#X connect 90 3 76 0;
#X connect 90 4 77 0;
#X connect 90 5 78 0;
#X connect 90 6 79 0;
#X connect 90 7 80 0;
#X connect 95 0 100 0;
#X connect 96 0 97 0;
#X connect 97 0 98 0;
#X connect 98 0 95 0;
#X connect 99 0 96 0;
#X connect 101 0 106 0;
#X connect 102 0 103 0;
#X connect 103 0 104 0;
#X connect 104 0 101 0;
#X connect 105 0 102 0;
#X connect 107 0 124 0;
#X connect 108 0 109 0;
#X connect 109 0 110 0;
#X connect 110 0 107 0;
#X connect 111 0 126 0;
#X connect 112 0 113 0;
#X connect 113 0 114 0;
#X connect 114 0 111 0;
#X connect 115 0 128 0;
#X connect 116 0 117 0;
#X connect 117 0 118 0;
#X connect 118 0 115 0;
#X connect 119 0 130 0;
#X connect 120 0 121 0;
#X connect 121 0 122 0;
#X connect 122 0 119 0;
#X connect 123 0 108 0;
#X connect 125 0 112 0;
#X connect 127 0 116 0;
#X connect 129 0 120 0;
#X connect 132 0 93 0;
#X connect 133 0 135 0;
#X connect 134 0 133 0;
#X connect 136 0 132 0;
#X coords 0 -1 1 1 220 160 1 100 100;
