#N canvas 0 25 1440 847 12;
#X obj 70 14 inlet;
#X obj 48 379 outlet;
#X obj 101 179 t f f;
#X obj 100 221 ==;
#X obj 100 242 sel 1;
#X obj 23 179 t f f;
#X obj 22 221 ==;
#X obj 22 242 sel 1;
#X obj 256 180 t f f;
#X obj 255 222 ==;
#X obj 255 243 sel 1;
#X obj 178 180 t f f;
#X obj 177 222 ==;
#X obj 177 243 sel 1;
#X obj 315 243 sel 0;
#X obj 58 199 <= 127;
#X obj 13 199 >= 101;
#X obj 178 200 >= 35;
#X obj 256 200 > 0;
#X obj 286 200 < 35;
#X obj 213 200 < 70;
#X obj 101 199 >= 70;
#X obj 136 199 <= 100;
#X msg 22 302 5;
#X msg 100 302 53;
#X msg 177 303 54;
#X msg 255 303 55;
#X obj 385 179 t f;
#X obj 385 203 sel 200;
#X msg 385 307 76;
#X obj 22 272 retrig;
#X obj 100 272 retrig;
#X obj 174 274 retrig;
#X obj 252 274 retrig;
#X obj 314 274 retrig;
#X obj 385 276 retrig;
#X obj 455 179 t f;
#X obj 455 276 retrig;
#X obj 455 203 sel 201;
#X msg 455 307 96;
#X obj 523 181 t f;
#X obj 523 205 sel 202;
#X msg 512 298 105;
#X obj 518 257 retrig;
#X floatatom 393 450 5 0 0 0 - - - 0;
#X msg 315 303 0;
#X connect 0 0 5 0;
#X connect 0 0 2 0;
#X connect 0 0 11 0;
#X connect 0 0 8 0;
#X connect 0 0 14 0;
#X connect 0 0 27 0;
#X connect 0 0 36 0;
#X connect 0 0 40 0;
#X connect 2 0 21 0;
#X connect 2 1 22 0;
#X connect 3 0 4 0;
#X connect 4 0 31 0;
#X connect 5 0 16 0;
#X connect 5 1 15 0;
#X connect 6 0 7 0;
#X connect 7 0 30 0;
#X connect 8 0 18 0;
#X connect 8 1 19 0;
#X connect 9 0 10 0;
#X connect 10 0 33 0;
#X connect 11 0 17 0;
#X connect 11 1 20 0;
#X connect 12 0 13 0;
#X connect 13 0 32 0;
#X connect 14 0 34 0;
#X connect 15 0 6 1;
#X connect 16 0 6 0;
#X connect 17 0 12 0;
#X connect 18 0 9 0;
#X connect 19 0 9 1;
#X connect 20 0 12 1;
#X connect 21 0 3 0;
#X connect 22 0 3 1;
#X connect 23 0 1 0;
#X connect 24 0 1 0;
#X connect 25 0 1 0;
#X connect 26 0 1 0;
#X connect 27 0 28 0;
#X connect 28 0 35 0;
#X connect 29 0 1 0;
#X connect 30 0 23 0;
#X connect 31 0 24 0;
#X connect 32 0 25 0;
#X connect 33 0 26 0;
#X connect 34 0 45 0;
#X connect 35 0 29 0;
#X connect 36 0 38 0;
#X connect 37 0 39 0;
#X connect 38 0 37 0;
#X connect 39 0 1 0;
#X connect 40 0 41 0;
#X connect 41 0 43 0;
#X connect 42 0 1 0;
#X connect 43 0 42 0;
#X connect 44 0 1 0;
#X connect 45 0 1 0;
#X coords 0 847 1 846 220 150 0;
