#N canvas 0 25 1440 702 10;
#X obj 344 145 +~;
#X obj 344 35 inlet~;
#X obj 344 478 outlet~;
#X obj 344 398 hip~ 3;
#X obj 107 133 hsl 128 15 0 127 0 0 \$0-diet-saturation-drive-s \$0-diet-saturation-drive-r DRIVE 135 7 0 8 #fcfcfc #000000 #000000 0 1;
#X obj 104 277 + 2;
#X obj 344 322 -~;
#X obj 344 350 /~;
#X obj 414 320 +~;
#X obj 429 290 exp~;
#X obj 344 292 exp~;
#X obj 344 373 clip~ -1 1;
#X obj 344 235 clip~ -88 88;
#X obj 359 190 vline~;
#X obj 344 211 *~;
#X obj 359 124 vline~;
#X obj 359 105 pack \$1 5;
#X obj 359 170 pack \$1 5;
#X obj 104 122 cnv 5 5 5 empty empty DIET-SATURATION 0 0 0 12 #fcfcfc #404040 0;
#X obj 249 107 cnv 5 5 5 empty empty DRIVE 0 0 0 8 #fcfcfc #404040 0;
#X obj 103 107 cnv 5 5 5 empty empty IN 0 0 0 8 #fcfcfc #404040 0;
#X obj 212 122 cnv 5 5 5 empty \$0-instance-num 26 0 0 0 12 #fcfcfc #404040 0;
#X obj 554 35 inlet~;
#X obj 126 151 vradio 15 1 0 3 \$0-diet-saturation-tone-s \$0-diet-saturation-tone-r empty 0 -8 0 10 #fcfcfc #000000 #000000 0;
#X obj 143 190 cnv 5 5 5 empty empty HARD 0 0 0 8 #fcfcfc #000000 0;
#X obj 144 159 cnv 5 5 5 empty empty SOFT 0 0 0 8 #fcfcfc #000000 0;
#X obj 144 174 cnv 5 5 5 empty empty MEDIUM 0 0 0 8 #fcfcfc #000000 0;
#X obj 104 192 cnv 5 5 5 empty empty OUT 0 0 0 8 #fcfcfc #000000 0;
#X obj 359 86 / 100;
#X obj 104 254 / 25.4;
#X text 654 27 Info: WHERE Does this patch come from? --> Pilos LIB;
#X obj 444 234 vline~;
#X obj 429 260 *~;
#X obj 126 211 * -5;
#X obj 344 441 *~;
#X obj 204 344 sel 0 1 2;
#X msg 204 365 1;
#X msg 214 389 0.6;
#X msg 246 390 0.3;
#X obj 202 451 vline~;
#X obj 202 431 pack \$1 50;
#X obj 444 214 pack \$1 50;
#X text 654 107 To-Do: \; Modulation-Input \;;
#X connect 0 0 14 0;
#X connect 1 0 0 0;
#X connect 3 0 34 0;
#X connect 4 0 29 0;
#X connect 5 0 17 0;
#X connect 5 0 28 0;
#X connect 6 0 7 0;
#X connect 7 0 11 0;
#X connect 8 0 7 1;
#X connect 9 0 6 1;
#X connect 9 0 8 1;
#X connect 10 0 6 0;
#X connect 10 0 8 0;
#X connect 11 0 3 0;
#X connect 12 0 10 0;
#X connect 12 0 32 0;
#X connect 13 0 14 1;
#X connect 14 0 12 0;
#X connect 15 0 0 1;
#X connect 16 0 15 0;
#X connect 17 0 13 0;
#X connect 23 0 33 0;
#X connect 23 0 35 0;
#X connect 28 0 16 0;
#X connect 29 0 5 0;
#X connect 31 0 32 1;
#X connect 32 0 9 0;
#X connect 33 0 41 0;
#X connect 34 0 2 0;
#X connect 35 0 36 0;
#X connect 35 1 37 0;
#X connect 35 2 38 0;
#X connect 36 0 40 0;
#X connect 37 0 40 0;
#X connect 38 0 40 0;
#X connect 39 0 34 1;
#X connect 40 0 39 0;
#X connect 41 0 31 0;
#X coords 0 -1 1 1 175 100 2 100 100;
