#N canvas 0 25 1440 702 10;
#X obj 344 145 +~;
#X obj 344 35 inlet~;
#X obj 344 478 outlet~;
#X obj 344 398 hip~ 3;
#X obj 107 133 hsl 128 15 0 127 0 0 \$0-diet-saturation-drive-s \$0-diet-saturation-drive-r DRIVE 135 7 0 8 #fcfcfc #000000 #000000 0 1;
#X obj 104 277 + 2;
#X obj 344 322 -~;
#X obj 344 350 /~;
#X obj 414 320 +~;
#X obj 429 290 exp~;
#X obj 344 292 exp~;
#X obj 344 373 clip~ -1 1;
#X obj 344 235 clip~ -88 88;
#X obj 359 190 vline~;
#X obj 344 211 *~;
#X obj 359 124 vline~;
#X obj 359 105 pack \$1 5;
#X obj 359 170 pack \$1 5;
#N canvas 327 25 1003 763 state-saving-multiple-instances 0;
#X obj 215 28 loadbang;
#X obj 591 550 textfile;
#X msg 881 533 rewind;
#X msg 845 533 bang;
#X obj 119 640 textfile;
#X obj 845 504 t b b;
#X obj 120 356 f;
#X obj 195 467 f;
#X obj 66 422 t b b b;
#X msg 40 533 clear;
#X obj 273 206 outlet;
#X text 269 226 INSTANCE NUMBER;
#X obj 234 105 f \$1;
#X obj 234 128 t f f f;
#X obj 66 331 bng 15 250 50 0 empty empty empty 17 7 0 10 #fcfcfc #000000 #000000;
#X obj 66 235 r SAVE-S;
#X obj 120 399 pack f f;
#X msg 120 438 set \$1 \$2;
#X obj 591 572 unpack f f;
#X obj 135 308 r \$0-diet-saturation-drive-s;
#X obj 165 355 r \$0-diet-saturation-tone-s;
#X msg 786 288 read statesave/\$1-diet-saturation-ss.txt;
#X obj 648 600 s \$0-diet-saturation-tone-r;
#X obj 591 624 s \$0-diet-saturation-drive-r;
#X msg 195 489 write statesave/\$1-diet-saturation-ss.txt;
#X obj 646 364 r patch-path;
#X msg 590 423 read /Users/johannklug/Documents/Bass\ Dieter/2025/Diet/MODULAR_LIVE_\ PERFORMER/patch1/statesave/22-diet-saturation-ss.txt;
#X obj 601 383 pack f s;
#X obj 590 342 f;
#X obj 590 363 t b f;
#X msg 600 402 set read \$2/statesave/\$1-diet-saturation-ss.txt;
#X obj 215 61 t b b b;
#X obj 254 84 s update-path;
#X obj 191 539 r patch-path;
#X msg 135 598 write /Users/johannklug/Documents/Bass\ Dieter/2025/Diet/MODULAR_LIVE_\ PERFORMER/patch2/statesave/28-diet-saturation-ss.txt;
#X obj 146 558 pack f s;
#X obj 135 517 f;
#X obj 135 538 t b f;
#X msg 145 577 set write \$2/statesave/\$1-diet-saturation-ss.txt;
#X connect 0 0 31 0;
#X connect 1 0 18 0;
#X connect 2 0 1 0;
#X connect 3 0 1 0;
#X connect 5 0 3 0;
#X connect 5 1 2 0;
#X connect 6 0 16 0;
#X connect 7 0 24 0;
#X connect 8 0 7 0;
#X connect 8 0 36 0;
#X connect 8 1 6 0;
#X connect 8 2 9 0;
#X connect 9 0 4 0;
#X connect 12 0 13 0;
#X connect 13 0 7 1;
#X connect 13 0 36 1;
#X connect 13 1 21 0;
#X connect 13 2 10 0;
#X connect 13 2 28 0;
#X connect 14 0 8 0;
#X connect 15 0 14 0;
#X connect 16 0 17 0;
#X connect 17 0 4 0;
#X connect 18 0 23 0;
#X connect 18 1 22 0;
#X connect 19 0 6 1;
#X connect 20 0 16 1;
#X connect 25 0 27 1;
#X connect 26 0 1 0;
#X connect 27 0 30 0;
#X connect 28 0 29 0;
#X connect 29 0 26 0;
#X connect 29 1 27 0;
#X connect 30 0 26 0;
#X connect 31 0 5 0;
#X connect 31 1 12 0;
#X connect 31 2 32 0;
#X connect 33 0 35 1;
#X connect 34 0 4 0;
#X connect 35 0 38 0;
#X connect 36 0 37 0;
#X connect 37 0 34 0;
#X connect 37 1 35 0;
#X connect 38 0 34 0;
#X restore 1029 108 pd state-saving-multiple-instances;
#X obj 104 122 cnv 5 5 5 empty empty DIET-SATURATION 0 0 0 12 #fcfcfc #404040 0;
#X obj 249 107 cnv 5 5 5 empty empty DRIVE 0 0 0 8 #fcfcfc #404040 0;
#X obj 103 107 cnv 5 5 5 empty empty IN 0 0 0 8 #fcfcfc #404040 0;
#X obj 1029 182 s \$0-instance-num;
#X obj 1029 134 makefilename %d;
#X obj 212 122 cnv 5 5 5 empty \$0-instance-num 22 0 0 0 12 #fcfcfc #404040 0;
#X msg 1029 159 label \$1;
#N canvas 225 22 1117 745 state-saving-via-preset-manager-module 0;
#X obj 477 349 textfile;
#X msg 734 332 rewind;
#X msg 691 332 bang;
#X obj 243 690 textfile;
#X obj 691 293 t b b;
#X obj 244 356 f;
#X obj 257 579 f;
#X obj 190 422 t b b b;
#X msg 320 579 clear;
#X obj 244 399 pack f f;
#X msg 244 438 set \$1 \$2;
#X obj 477 371 unpack f f;
#X floatatom 325 391 5 0 0 0 - - - 0;
#X obj 244 264 delay 5;
#X obj 190 484 delay 10;
#X msg 190 314 bang;
#X obj 190 147 r STORE-S!;
#X obj 477 250 f;
#X obj 450 227 t b b;
#X obj 465 171 t b f;
#X obj 522 268 f \$1;
#X obj 477 295 pack f f;
#X obj 522 218 loadbang;
#X obj 257 609 pack f f;
#X obj 302 467 loadbang;
#X obj 302 489 f \$1;
#X obj 465 148 r preset-manager-scan;
#X obj 279 148 r preset-manager-store-slot;
#X msg 256 650 write statesave/\$1-\$2-overdrive-ss.txt;
#X msg 477 324 read statesave/\$1-\$2-overdrive-ss.txt;
#X obj 259 308 r \$0-overdrive-drive-s;
#X obj 477 615 s \$0-overdrive-drive-r;
#X obj 289 355 r \$0-overdrive-tone-s;
#X obj 534 517 s \$0-overdrive-tone-r;
#N canvas 0 22 1069 747 morph-parameters 0;
#X obj 176 94 inlet;
#X obj 176 236 pack f f;
#X obj 176 261 line;
#X obj 209 117 r preset-manager-morph-s;
#X msg 72 244 stop;
#X obj 72 214 r STOP-MORPH!;
#X obj 209 206 spigot;
#X obj 398 137 t f f;
#X obj 455 154 == 0;
#X obj 221 176 f;
#X floatatom 455 222 5 0 0 0 - - - 0;
#X obj 398 159 t b f;
#X floatatom 425 192 5 0 0 0 - - - 0;
#X obj 209 139 t f f;
#X obj 398 102 r parameters-s;
#X obj 176 288 outlet;
#X connect 0 0 1 0;
#X connect 1 0 2 0;
#X connect 2 0 15 0;
#X connect 3 0 13 0;
#X connect 4 0 2 0;
#X connect 5 0 4 0;
#X connect 6 0 1 1;
#X connect 7 0 11 0;
#X connect 7 1 8 0;
#X connect 8 0 10 0;
#X connect 9 0 6 0;
#X connect 10 0 1 1;
#X connect 11 0 9 0;
#X connect 11 1 12 0;
#X connect 12 0 6 1;
#X connect 13 0 6 0;
#X connect 13 1 9 1;
#X connect 14 0 7 0;
#X restore 534 493 pd morph-parameters;
#N canvas 0 22 1069 747 morph-parameters 0;
#X obj 176 94 inlet;
#X obj 176 236 pack f f;
#X obj 176 261 line;
#X obj 209 117 r preset-manager-morph-s;
#X msg 72 244 stop;
#X obj 72 214 r STOP-MORPH!;
#X obj 209 206 spigot;
#X obj 398 137 t f f;
#X obj 455 154 == 0;
#X obj 221 176 f;
#X floatatom 455 222 5 0 0 0 - - - 0;
#X obj 398 159 t b f;
#X floatatom 425 192 5 0 0 0 - - - 0;
#X obj 209 139 t f f;
#X obj 398 102 r parameters-s;
#X obj 176 288 outlet;
#X connect 0 0 1 0;
#X connect 1 0 2 0;
#X connect 2 0 15 0;
#X connect 3 0 13 0;
#X connect 4 0 2 0;
#X connect 5 0 4 0;
#X connect 6 0 1 1;
#X connect 7 0 11 0;
#X connect 7 1 8 0;
#X connect 8 0 10 0;
#X connect 9 0 6 0;
#X connect 10 0 1 1;
#X connect 11 0 9 0;
#X connect 11 1 12 0;
#X connect 12 0 6 1;
#X connect 13 0 6 0;
#X connect 13 1 9 1;
#X connect 14 0 7 0;
#X restore 477 591 pd morph-parameters;
#X connect 0 0 11 0;
#X connect 1 0 0 0;
#X connect 2 0 0 0;
#X connect 4 0 2 0;
#X connect 4 1 1 0;
#X connect 5 0 9 0;
#X connect 6 0 23 0;
#X connect 7 0 14 0;
#X connect 7 1 13 0;
#X connect 7 2 8 0;
#X connect 8 0 3 0;
#X connect 9 0 10 0;
#X connect 10 0 3 0;
#X connect 11 0 35 0;
#X connect 11 1 34 0;
#X connect 13 0 5 0;
#X connect 14 0 6 0;
#X connect 15 0 7 0;
#X connect 16 0 15 0;
#X connect 17 0 21 0;
#X connect 18 0 4 0;
#X connect 18 1 17 0;
#X connect 19 0 18 0;
#X connect 19 1 17 1;
#X connect 20 0 21 1;
#X connect 21 0 29 0;
#X connect 22 0 20 0;
#X connect 23 0 28 0;
#X connect 24 0 25 0;
#X connect 25 0 23 1;
#X connect 26 0 19 0;
#X connect 27 0 6 1;
#X connect 28 0 3 0;
#X connect 29 0 0 0;
#X connect 30 0 5 1;
#X connect 32 0 9 1;
#X connect 32 0 12 0;
#X connect 34 0 33 0;
#X connect 35 0 31 0;
#X restore 1029 64 pd state-saving-via-preset-manager-module;
#N canvas 297 27 518 295 parameter-nudging-system 0;
#X obj 23 67 clip 0 127;
#X obj 171 67 clip 0 127;
#X obj 171 22 r \$0-overdrive-tone-s;
#X obj 171 95 s \$0-overdrive-tone-r;
#X obj 23 22 r \$0-overdrive-drive-s;
#X obj 23 95 s \$0-overdrive-drive-r;
#N canvas 0 22 484 497 nudge-parameters 0;
#X obj 124 234 random;
#X obj 232 335 f;
#X obj 232 368 +;
#X obj 257 166 random 2;
#X obj 124 275 t f f;
#X obj 124 351 t b f;
#X obj 124 297 *;
#X obj 257 188 sel 0 1;
#X msg 257 280 -1;
#X msg 335 280 1;
#X obj 124 149 t b b b;
#X obj 124 74 r NUDGE!;
#X obj 157 193 r NUDGE-RANGE;
#X obj 247 308 inlet;
#X obj 232 397 outlet;
#X obj 124 96 spigot;
#X obj 185 79 r parameters2-s;
#X connect 0 0 4 0;
#X connect 1 0 2 0;
#X connect 2 0 14 0;
#X connect 3 0 7 0;
#X connect 4 0 6 0;
#X connect 5 0 2 0;
#X connect 5 1 2 1;
#X connect 6 0 5 0;
#X connect 7 0 8 0;
#X connect 7 1 9 0;
#X connect 8 0 6 1;
#X connect 9 0 6 1;
#X connect 10 0 0 0;
#X connect 10 1 1 0;
#X connect 10 2 3 0;
#X connect 11 0 15 0;
#X connect 12 0 0 1;
#X connect 13 0 1 1;
#X connect 15 0 10 0;
#X connect 16 0 15 1;
#X restore 172 45 pd nudge-parameters;
#N canvas 0 22 484 497 nudge-parameters 0;
#X obj 124 234 random;
#X obj 232 335 f;
#X obj 232 368 +;
#X obj 257 166 random 2;
#X obj 124 275 t f f;
#X obj 124 351 t b f;
#X obj 124 297 *;
#X obj 257 188 sel 0 1;
#X msg 257 280 -1;
#X msg 335 280 1;
#X obj 124 149 t b b b;
#X obj 124 74 r NUDGE!;
#X obj 157 193 r NUDGE-RANGE;
#X obj 247 308 inlet;
#X obj 232 397 outlet;
#X obj 124 96 spigot;
#X obj 185 79 r parameters2-s;
#X connect 0 0 4 0;
#X connect 1 0 2 0;
#X connect 2 0 14 0;
#X connect 3 0 7 0;
#X connect 4 0 6 0;
#X connect 5 0 2 0;
#X connect 5 1 2 1;
#X connect 6 0 5 0;
#X connect 7 0 8 0;
#X connect 7 1 9 0;
#X connect 8 0 6 1;
#X connect 9 0 6 1;
#X connect 10 0 0 0;
#X connect 10 1 1 0;
#X connect 10 2 3 0;
#X connect 11 0 15 0;
#X connect 12 0 0 1;
#X connect 13 0 1 1;
#X connect 15 0 10 0;
#X connect 16 0 15 1;
#X restore 23 45 pd nudge-parameters;
#X connect 0 0 5 0;
#X connect 1 0 3 0;
#X connect 2 0 6 0;
#X connect 4 0 7 0;
#X connect 6 0 1 0;
#X connect 7 0 0 0;
#X restore 1029 86 pd parameter-nudging-system;
#N canvas 632 73 749 752 external-messages 0;
#X floatatom 186 706 5 0 0 0 - - - 0;
#X obj 185 328 spigot;
#X obj 218 288 tgl 15 0 empty empty empty 17 7 0 10 #fcfcfc #000000 #000000 0 1;
#X obj 254 272 ==;
#X obj 269 248 f \$1;
#X obj 269 224 loadbang;
#X msg 185 202 \$1 \$2;
#X msg 185 156 symbol \$1;
#X obj 185 180 pack s f;
#X obj 186 685 f;
#X obj 186 633 t b f;
#X obj 186 656 spigot;
#X obj 185 62 unpack s f f;
#X symbolatom 185 94 10 0 0 0 - - - 0;
#X obj 218 308 t f f;
#X obj 245 332 s \$0-msg-spigot;
#X obj 234 640 r \$0-msg-spigot;
#X floatatom 223 594 5 0 0 0 - - - 0;
#X obj 223 573 f;
#X obj 223 521 t b f;
#X obj 223 544 spigot;
#X obj 271 528 r \$0-msg-spigot;
#X obj 185 14 r overdrive;
#X obj 185 380 route DRIVE TONE;
#X obj 186 726 s \$0-overdrive-drive-r;
#X obj 223 614 s \$0-overdrive-tone-r;
#X connect 0 0 24 0;
#X connect 1 0 23 0;
#X connect 2 0 14 0;
#X connect 3 0 2 0;
#X connect 4 0 3 1;
#X connect 5 0 4 0;
#X connect 6 0 1 0;
#X connect 7 0 8 0;
#X connect 8 0 6 0;
#X connect 9 0 0 0;
#X connect 10 0 11 0;
#X connect 10 1 9 1;
#X connect 11 0 9 0;
#X connect 12 0 13 0;
#X connect 12 1 8 1;
#X connect 12 2 3 0;
#X connect 13 0 7 0;
#X connect 14 0 1 1;
#X connect 14 1 15 0;
#X connect 16 0 11 1;
#X connect 17 0 25 0;
#X connect 18 0 17 0;
#X connect 19 0 20 0;
#X connect 19 1 18 1;
#X connect 20 0 18 0;
#X connect 21 0 20 1;
#X connect 22 0 12 0;
#X connect 23 0 10 0;
#X connect 23 1 19 0;
#X restore 1032 38 pd external-messages;
#X obj 554 35 inlet~;
#X obj 126 151 vradio 15 1 0 3 \$0-diet-saturation-tone-s \$0-diet-saturation-tone-r empty 0 -8 0 10 #fcfcfc #000000 #000000 0;
#X obj 143 190 cnv 5 5 5 empty empty HARD 0 0 0 8 #fcfcfc #000000 0;
#X obj 144 159 cnv 5 5 5 empty empty SOFT 0 0 0 8 #fcfcfc #000000 0;
#X obj 144 174 cnv 5 5 5 empty empty MEDIUM 0 0 0 8 #fcfcfc #000000 0;
#X obj 104 192 cnv 5 5 5 empty empty OUT 0 0 0 8 #fcfcfc #000000 0;
#X obj 359 86 / 100;
#X obj 104 254 / 25.4;
#X text 654 27 Info: WHERE Does this patch come from? --> Pilos LIB;
#X obj 444 234 vline~;
#X obj 429 260 *~;
#X obj 126 211 * -5;
#X obj 344 441 *~;
#X obj 204 344 sel 0 1 2;
#X msg 204 365 1;
#X msg 214 389 0.6;
#X msg 246 390 0.3;
#X obj 202 451 vline~;
#X obj 202 431 pack \$1 50;
#X obj 444 214 pack \$1 50;
#X text 654 107 To-Do: \; Modulation-Input \;;
#X connect 0 0 14 0;
#X connect 1 0 0 0;
#X connect 3 0 41 0;
#X connect 4 0 36 0;
#X connect 5 0 17 0;
#X connect 5 0 35 0;
#X connect 6 0 7 0;
#X connect 7 0 11 0;
#X connect 8 0 7 1;
#X connect 9 0 6 1;
#X connect 9 0 8 1;
#X connect 10 0 6 0;
#X connect 10 0 8 0;
#X connect 11 0 3 0;
#X connect 12 0 10 0;
#X connect 12 0 39 0;
#X connect 13 0 14 1;
#X connect 14 0 12 0;
#X connect 15 0 0 1;
#X connect 16 0 15 0;
#X connect 17 0 13 0;
#X connect 18 0 23 0;
#X connect 23 0 25 0;
#X connect 25 0 22 0;
#X connect 30 0 40 0;
#X connect 30 0 42 0;
#X connect 35 0 16 0;
#X connect 36 0 5 0;
#X connect 38 0 39 1;
#X connect 39 0 9 0;
#X connect 40 0 48 0;
#X connect 41 0 2 0;
#X connect 42 0 43 0;
#X connect 42 1 44 0;
#X connect 42 2 45 0;
#X connect 43 0 47 0;
#X connect 44 0 47 0;
#X connect 45 0 47 0;
#X connect 46 0 41 1;
#X connect 47 0 46 0;
#X connect 48 0 38 0;
#X coords 0 -1 1 1 175 100 2 100 100;
