#N canvas 63 88 623 503 10;
#X obj 24 353 cnv 15 400 30 empty empty OUTPUTS: 20 12 0 14 #9898dc #fcfcfc 0;
#X obj 21 136 cnv 15 400 30 empty empty CONTROLS: 20 12 0 14 #9898dc #fcfcfc 0;
#X obj 21 242 cnv 15 400 30 empty empty INPUTS: 20 12 0 14 #9898dc #fcfcfc 0;
#X obj 20 17 cnv 15 400 30 empty empty DIET-CLOCK: 20 12 0 14 #90d4b0 #fcfcfc 0;
#X text 25 210 ON/OFF - turn the clock on/off;
#X text 25 278 CLK_RATE - input for cv-control of the clock rate;
#X text 25 320 ON/OFF - trigger/gate input for turning the clock on/off;
#X text 21 53 The "CLOCK" module is a simple clock/trigger/gate generator. Control the clock-rate or turn the clock on/off. Notice that there are other ways to generate clocks in the patch editor. For example using BASIC-LFO or the EOC of a cycling envelope.;
#X obj 423 17 diet-clock;
#X text 27 387 OUT - GATE-OUT of the clock;
#X text 25 174 CLK_RATE - controls the clock-rate in BPM from 60 to 180;
#X text 27 457 NOTE: This is a modification of the original clock;
#X text 27 407 RESET-OUT - a gate out \, when the clock is switched off;
