#N canvas 362 136 1078 537 10;
#X obj 117 428 vline~;
#X obj 27 307 hsl 128 15 0 127 0 1 \$0-clock-clk-rate-s \$0-clock-clk-rate-r RATE 133 7 0 10 #fcfcfc #000000 #000000 0 1;
#X floatatom 290 175 5 0 0 1 BPM - - 10;
#X obj 102 123 cnv 5 5 5 empty empty DIET-MICRO-CLOCK-MODIFIER 0 0 0 12 #fcfcfc #404040 0;
#X obj 117 494 outlet~;
#X obj 401 40 inlet~;
#X obj 321 109 cnv 5 5 5 empty empty RESET 0 0 0 8 #fcfcfc #dc4c90 0;
#N canvas 21 25 902 739 state-saving-multiple-instances 0;
#X obj 215 28 loadbang;
#X obj 261 480 textfile;
#X msg 508 413 rewind;
#X msg 465 413 bang;
#X obj 119 690 textfile;
#X obj 465 364 t b b;
#X obj 120 356 f;
#X obj 133 579 f;
#X obj 66 422 t b b b;
#X msg 196 579 clear;
#X obj 281 216 outlet;
#X text 277 236 INSTANCE NUMBER;
#X obj 242 92 f \$1;
#X obj 242 128 t f f f;
#X obj 215 61 t b b;
#X obj 66 331 bng 15 250 50 0 empty empty empty 17 7 0 10 #fcfcfc #000000 #000000;
#X obj 66 235 r SAVE-S;
#X obj 120 399 pack f f;
#X msg 120 438 set \$1 \$2;
#X obj 261 502 unpack f f;
#X obj 165 355 r \$0-clock-on/off-s;
#X obj 318 530 s \$0-clock-on/off-r;
#X msg 132 650 write statesave/\$1-diet-micro-clock-modifier-ss.txt;
#X msg 261 455 read statesave/\$1-diet-micro-clock-modifier-ss.txt;
#X obj 135 308 r \$0-micro-shift-s;
#X obj 261 604 s \$0-micro-shift-r;
#X connect 0 0 14 0;
#X connect 1 0 19 0;
#X connect 2 0 1 0;
#X connect 3 0 1 0;
#X connect 5 0 3 0;
#X connect 5 1 2 0;
#X connect 6 0 17 0;
#X connect 7 0 22 0;
#X connect 8 0 7 0;
#X connect 8 1 6 0;
#X connect 8 2 9 0;
#X connect 9 0 4 0;
#X connect 12 0 13 0;
#X connect 13 0 7 1;
#X connect 13 1 23 0;
#X connect 13 2 10 0;
#X connect 14 0 5 0;
#X connect 14 1 12 0;
#X connect 15 0 8 0;
#X connect 16 0 15 0;
#X connect 17 0 18 0;
#X connect 18 0 4 0;
#X connect 19 0 25 0;
#X connect 19 1 21 0;
#X connect 20 0 17 1;
#X connect 22 0 4 0;
#X connect 23 0 1 0;
#X connect 24 0 6 1;
#X restore 850 53 pd state-saving-multiple-instances;
#X obj 850 123 s \$0-instance-num;
#X obj 850 75 makefilename %d;
#X obj 282 123 cnv 5 5 5 empty \$0-instance-num 0 0 0 0 12 #fcfcfc #404040 0;
#X msg 850 100 label \$1;
#X obj 103 191 cnv 5 5 5 empty empty OUT 0 0 0 8 #fcfcfc #dc4c90 0;
#X obj 401 64 threshold~ 0.99 0 0.99 0;
#X msg 117 406 1 0 \, 0 1 1;
#N canvas 632 64 749 752 external-messages 0;
#X floatatom 186 706 5 0 0 0 - - - 0;
#X obj 185 328 spigot;
#X obj 218 288 tgl 15 0 empty empty empty 17 7 0 10 #fcfcfc #000000 #000000 0 1;
#X obj 254 272 ==;
#X obj 269 248 f \$1;
#X obj 269 224 loadbang;
#X msg 185 202 \$1 \$2;
#X msg 185 156 symbol \$1;
#X obj 185 180 pack s f;
#X obj 186 685 f;
#X obj 186 633 t b f;
#X obj 186 656 spigot;
#X obj 185 62 unpack s f f;
#X symbolatom 185 94 10 0 0 0 - - - 0;
#X obj 218 308 t f f;
#X obj 245 332 s \$0-msg-spigot;
#X obj 234 640 r \$0-msg-spigot;
#X floatatom 223 594 5 0 0 0 - - - 0;
#X obj 223 573 f;
#X obj 223 521 t b f;
#X obj 223 544 spigot;
#X obj 271 528 r \$0-msg-spigot;
#X obj 185 14 r clock;
#X obj 184 380 route RATE ON/OFF;
#X obj 186 726 s \$0-clock-clk-rate-r;
#X obj 223 614 s \$0-clock-on/off-r;
#X connect 0 0 24 0;
#X connect 1 0 23 0;
#X connect 2 0 14 0;
#X connect 3 0 2 0;
#X connect 4 0 3 1;
#X connect 5 0 4 0;
#X connect 6 0 1 0;
#X connect 7 0 8 0;
#X connect 8 0 6 0;
#X connect 9 0 0 0;
#X connect 10 0 11 0;
#X connect 10 1 9 1;
#X connect 11 0 9 0;
#X connect 12 0 13 0;
#X connect 12 1 8 1;
#X connect 12 2 3 0;
#X connect 13 0 7 0;
#X connect 14 0 1 1;
#X connect 14 1 15 0;
#X connect 16 0 11 1;
#X connect 17 0 25 0;
#X connect 18 0 17 0;
#X connect 19 0 20 0;
#X connect 19 1 18 1;
#X connect 20 0 18 0;
#X connect 21 0 20 1;
#X connect 22 0 12 0;
#X connect 23 0 10 0;
#X connect 23 1 19 0;
#X restore 850 30 pd external-messages;
#X obj 19 8 ctlin;
#X obj 20 38 pack 0 0 0;
#X obj 20 61 route 20;
#X floatatom 20 83 5 0 0 0 - - - 0;
#X obj 175 22 cnv 5 5 5 empty empty GROOVE-MANAGER: 0 0 0 8 #fcfcfc #000000 0;
#X floatatom 138 182 3 -9 9 0 - - - 0;
#X obj 302 269 f;
#X obj 336 269 + 1;
#X msg 317 249 0;
#X obj 317 230 r \$0reset-clock;
#X obj 645 227 expr 60000/$f1;
#X obj 645 246 / 4;
#X obj 644 169 r global-bpm;
#X floatatom 645 267 5 0 0 0 - - - 0;
#X obj 302 375 sel 0 1 2 3;
#X obj 302 410 bng 16 250 50 0 empty empty empty 0 -8 0 10 #fcfcfc #000000 #000000;
#X obj 367 599 bng 16 250 50 0 empty empty empty 0 -8 0 10 #fcfcfc #000000 #000000;
#X obj 321 429 del;
#X obj 302 333 del;
#X obj 302 354 f;
#X obj 302 315 t b f;
#X floatatom 247 335 5 0 0 0 - - - 0;
#X obj 630 292 *;
#X floatatom 739 263 5 0 0 0 - - - 0;
#X obj 739 227 / 1270;
#X obj 630 346 +;
#X obj 630 320 t b f;
#X obj 366 429 del;
#X obj 410 430 del;
#X obj 447 346 r \$0reset-clock;
#X obj 302 287 mod 8;
#X obj 451 431 del;
#X obj 496 432 del;
#X obj 537 432 del;
#X obj 579 425 del;
#X obj 103 109 cnv 5 5 5 empty empty CLOCK-IN 0 0 0 8 #fcfcfc #dc4c90 0;
#X obj 401 85 t b;
#X obj 677 34 inlet~;
#X obj 677 58 threshold~ 0.99 0 0.99 0;
#X obj 677 79 t b;
#X text 404 21 CLOCK-IN;
#X text 671 11 RESET-IH;
#X obj 679 113 s \$0reset-clock;
#X msg 447 370 stop;
#X obj 107 160 hradio 15 1 0 8 empty empty empty 0 -8 0 10 #fcfcfc #000000 #000000 0;
#X obj 739 245 - 0.05;
#X obj 110 145 hsl 128 15 0 127 0 1 \$0-micro-shift-s \$0-micro-shift-r MICRO-SHIFT 133 7 0 10 #fcfcfc #000000 #000000 7900 1;
#X floatatom 207 130 5 0 0 0 - - - 0;
#X obj 211 109 cnv 5 5 5 empty empty BPM 0 0 0 8 #fcfcfc #dc4c90 0;
#X obj 585 35 inlet;
#X text 586 14 BPM;
#X connect 0 0 4 0;
#X connect 5 0 13 0;
#X connect 7 0 9 0;
#X connect 9 0 11 0;
#X connect 11 0 8 0;
#X connect 13 0 52 0;
#X connect 14 0 0 0;
#X connect 16 0 17 1;
#X connect 16 1 17 0;
#X connect 16 2 17 2;
#X connect 17 0 18 0;
#X connect 18 0 19 0;
#X connect 22 0 23 0;
#X connect 22 0 46 0;
#X connect 23 0 22 1;
#X connect 24 0 22 1;
#X connect 25 0 24 0;
#X connect 26 0 27 0;
#X connect 27 0 29 0;
#X connect 29 0 38 1;
#X connect 29 0 41 0;
#X connect 30 0 31 0;
#X connect 31 0 32 0;
#X connect 31 0 33 0;
#X connect 32 0 14 0;
#X connect 33 0 32 0;
#X connect 33 0 43 0;
#X connect 34 0 35 0;
#X connect 35 0 30 0;
#X connect 36 0 34 0;
#X connect 36 1 35 1;
#X connect 37 0 34 1;
#X connect 38 0 42 0;
#X connect 39 0 38 0;
#X connect 39 0 63 0;
#X connect 40 0 61 0;
#X connect 41 0 33 1;
#X connect 41 0 43 1;
#X connect 41 0 44 1;
#X connect 41 0 48 1;
#X connect 41 0 49 1;
#X connect 41 0 47 1;
#X connect 41 0 50 1;
#X connect 42 0 41 0;
#X connect 42 1 41 1;
#X connect 43 0 32 0;
#X connect 43 0 44 0;
#X connect 44 0 32 0;
#X connect 44 0 47 0;
#X connect 45 0 59 0;
#X connect 46 0 35 1;
#X connect 46 0 36 0;
#X connect 46 0 60 0;
#X connect 47 0 48 0;
#X connect 47 0 32 0;
#X connect 48 0 49 0;
#X connect 48 0 32 0;
#X connect 49 0 50 0;
#X connect 49 0 32 0;
#X connect 50 0 32 0;
#X connect 52 0 22 0;
#X connect 53 0 54 0;
#X connect 54 0 55 0;
#X connect 55 0 58 0;
#X connect 59 0 33 0;
#X connect 59 0 43 0;
#X connect 59 0 44 0;
#X connect 59 0 47 0;
#X connect 59 0 48 0;
#X connect 59 0 49 0;
#X connect 59 0 50 0;
#X connect 61 0 39 0;
#X connect 62 0 40 0;
#X connect 65 0 26 0;
#X connect 65 0 2 0;
#X coords 0 -1 1 1 250 100 2 100 100;
