#N canvas 362 248 1078 537 10;
#X obj 988 193 tgl 15 1 \$0-clock-on/off-s \$0-clock-on/off-r ON/OFF 17 7 0 10 #fcfcfc #000000 #000000 0 1;
#X obj 874 249 vline~;
#X obj 873 174 hsl 128 15 0 127 0 1 \$0-clock-clk-rate-s \$0-clock-clk-rate-r RATE 133 7 0 10 #fcfcfc #000000 #000000 0 1;
#X floatatom 871 192 5 0 0 1 BPM - - 10;
#X obj 970 193 bng 15 50 50 0 empty empty empty 17 7 0 10 #fcfcfc #dc4c90 #000000;
#X obj 127 124 cnv 5 5 5 empty empty DIET-ARP 0 0 0 12 #fcfcfc #404040 0;
#N canvas 17 81 927 763 state-saving-multiple-instances 0;
#X obj 215 28 loadbang;
#X obj 261 480 textfile;
#X msg 538 463 rewind;
#X msg 495 463 bang;
#X obj 119 690 textfile;
#X obj 495 424 t b b;
#X obj 120 356 f;
#X obj 133 579 f;
#X obj 66 422 t b b b;
#X msg 196 579 clear;
#X obj 281 216 outlet;
#X text 277 236 INSTANCE NUMBER;
#X obj 242 92 f \$1;
#X obj 242 128 t f f f;
#X obj 215 61 t b b;
#X obj 66 331 bng 15 250 50 0 empty empty empty 17 7 0 10 #fcfcfc #000000 #000000;
#X obj 66 235 r SAVE-S;
#X msg 261 455 read statesave/\$1-diet-arp-ss.txt;
#X msg 132 650 write statesave/\$1-diet-arp-ss.txt;
#X obj 135 308 r \$0-diet-arp-oktave-s;
#X obj 261 602 s \$0-diet-arp-oktave-r;
#X obj 148 336 r \$0-diet-arp-direction-s;
#X obj 295 570 s \$0-diet-arp-direction-r;
#X obj 120 399 pack f f f;
#X obj 177 364 r \$0-diet-arp-on/through-s;
#X obj 261 502 unpack f f f;
#X obj 330 541 s \$0-diet-arp-on/through-r;
#X floatatom 220 444 5 0 0 0 - - - 0;
#X msg 120 438 set \$1 \$2 \$3;
#X connect 0 0 14 0;
#X connect 1 0 25 0;
#X connect 2 0 1 0;
#X connect 3 0 1 0;
#X connect 5 0 3 0;
#X connect 5 1 2 0;
#X connect 6 0 23 0;
#X connect 7 0 18 0;
#X connect 8 0 7 0;
#X connect 8 1 6 0;
#X connect 8 2 9 0;
#X connect 9 0 4 0;
#X connect 12 0 13 0;
#X connect 13 0 7 1;
#X connect 13 1 17 0;
#X connect 13 2 10 0;
#X connect 14 0 5 0;
#X connect 14 1 12 0;
#X connect 15 0 8 0;
#X connect 16 0 15 0;
#X connect 17 0 1 0;
#X connect 18 0 4 0;
#X connect 19 0 6 1;
#X connect 21 0 23 1;
#X connect 23 0 28 0;
#X connect 24 0 23 2;
#X connect 24 0 27 0;
#X connect 25 0 20 0;
#X connect 25 1 22 0;
#X connect 25 2 26 0;
#X connect 28 0 4 0;
#X restore 864 45 pd state-saving-multiple-instances;
#X obj 864 115 s \$0-instance-num;
#X obj 864 67 makefilename %d;
#X obj 187 124 cnv 5 5 5 empty \$0-instance-num 4 0 0 0 12 #fcfcfc #404040 0;
#X msg 864 92 label \$1;
#X msg 874 227 1 0 \, 0 1 1;
#N canvas 632 64 749 752 external-messages 0;
#X floatatom 186 706 5 0 0 0 - - - 0;
#X obj 185 328 spigot;
#X obj 218 288 tgl 15 0 empty empty empty 17 7 0 10 #fcfcfc #000000 #000000 0 1;
#X obj 254 272 ==;
#X obj 269 248 f \$1;
#X obj 269 224 loadbang;
#X msg 185 202 \$1 \$2;
#X msg 185 156 symbol \$1;
#X obj 185 180 pack s f;
#X obj 186 685 f;
#X obj 186 633 t b f;
#X obj 186 656 spigot;
#X obj 185 62 unpack s f f;
#X symbolatom 185 94 10 0 0 0 - - - 0;
#X obj 218 308 t f f;
#X obj 245 332 s \$0-msg-spigot;
#X obj 234 640 r \$0-msg-spigot;
#X floatatom 223 594 5 0 0 0 - - - 0;
#X obj 223 573 f;
#X obj 223 521 t b f;
#X obj 223 544 spigot;
#X obj 271 528 r \$0-msg-spigot;
#X obj 185 14 r clock;
#X obj 184 380 route RATE ON/OFF;
#X obj 186 726 s \$0-clock-clk-rate-r;
#X obj 223 614 s \$0-clock-on/off-r;
#X connect 0 0 24 0;
#X connect 1 0 23 0;
#X connect 2 0 14 0;
#X connect 3 0 2 0;
#X connect 4 0 3 1;
#X connect 5 0 4 0;
#X connect 6 0 1 0;
#X connect 7 0 8 0;
#X connect 8 0 6 0;
#X connect 9 0 0 0;
#X connect 10 0 11 0;
#X connect 10 1 9 1;
#X connect 11 0 9 0;
#X connect 12 0 13 0;
#X connect 12 1 8 1;
#X connect 12 2 3 0;
#X connect 13 0 7 0;
#X connect 14 0 1 1;
#X connect 14 1 15 0;
#X connect 16 0 11 1;
#X connect 17 0 25 0;
#X connect 18 0 17 0;
#X connect 19 0 20 0;
#X connect 19 1 18 1;
#X connect 20 0 18 0;
#X connect 21 0 20 1;
#X connect 22 0 12 0;
#X connect 23 0 10 0;
#X connect 23 1 19 0;
#X restore 864 22 pd external-messages;
#X obj 1004 249 vline~;
#X msg 1004 227 1 0 \, 0 1 1;
#X obj 46 26 inlet~;
#X obj 46 50 threshold~ 0.99 0 0.99 0;
#N canvas 299 185 980 594 arp 0;
#X obj 12 31 inlet;
#X obj 122 31 inlet;
#X text 12 11 (I1) MIDI Note;
#X text 122 11 (I2) Velocity;
#X obj 274 297 >;
#X obj 274 318 sel 1;
#X obj 274 360 v \$0-int;
#X obj 212 325 + 1;
#X obj 212 346 v \$0-int;
#X obj 185 283 v \$0-int;
#X msg 274 339 0;
#X obj 185 561 t f f;
#X obj 331 603 div;
#X obj 185 587 %;
#X obj 319 550 r \$0-size;
#X obj 319 571 t f f;
#X obj 185 650 unpack f f;
#X obj 185 671 +;
#X obj 331 624 * 12;
#X obj 185 692 pack f f;
#X obj 222 31 inlet;
#X obj 222 52 + 1;
#X obj 535 239 v \$0-int;
#X obj 594 323 sel 1;
#X obj 539 390 + 1;
#X obj 539 411 v \$0-int;
#X obj 535 260 t b f f;
#X obj 497 286 v \$0-int;
#X msg 594 344 -1;
#X obj 554 323 sel 0;
#X msg 554 344 1;
#X obj 594 302 >=;
#X obj 497 349 min;
#X obj 335 383 list prepend;
#X obj 335 404 -;
#X text 222 11 (I3) Octave;
#X obj 312 31 inlet;
#X text 312 11 (I4) Direction;
#X obj 531 132 v \$0-direction;
#X obj 312 73 s \$0-direction;
#X obj 312 94 v \$0-direction;
#X obj 237 389 r \$0-direction;
#X obj 204 431 spigot;
#X obj 237 410 == 0;
#X obj 335 446 spigot;
#X obj 368 404 r \$0-direction;
#X obj 368 425 == 1;
#X obj 532 43 inlet;
#X obj 185 304 t f f;
#X obj 497 307 t f f;
#X obj 602 260 t f f;
#X obj 497 370 s \$0-counter;
#X obj 335 467 s \$0-counter;
#X obj 352 30 loadbang;
#X msg 352 51 0;
#X obj 405 728 makenote \$2 100;
#X obj 406 752 outlet;
#X obj 274 255 v \$0-int;
#X obj 185 239 t b b;
#X obj 12 52 list prepend;
#N canvas 907 118 449 504 register-&-sort 0;
#X obj 39 54 tabwrite \$0-velocity;
#X obj 12 33 t b l;
#X obj 31 160 t b b;
#X msg 31 181 127;
#X obj 31 202 until;
#X obj 56 223 i;
#X obj 86 223 + 1;
#X msg 71 181 0;
#X obj 56 244 t f f;
#X obj 101 265 tabread \$0-velocity;
#X obj 12 96 t b b b;
#X obj 51 138 text define \$0-note-on;
#X msg 51 117 clear;
#X obj 12 405 text size \$0-note-on;
#X obj 12 426 s \$0-size;
#X text 56 369 [3] Read notes with velocity greater than zero and insert them on the note-on text array.;
#X text 91 117 [2] Clear note-on text array.;
#X text 49 34 [1] Register velocity of all notes.;
#X text 12 466 [4] Get size of note-on: number of active notes;
#X obj 12 446 v \$0-size;
#X obj 56 349 text insert \$0-note-on 127;
#X obj 12 12 inlet;
#X obj 39 74 array define -yrange 0 127 \$0-velocity 127;
#X obj 101 286 t f f;
#X obj 128 312 > 0;
#X obj 56 328 spigot;
#X obj 56 307 pack f f;
#X connect 1 0 10 0;
#X connect 1 1 0 0;
#X connect 2 0 3 0;
#X connect 2 1 7 0;
#X connect 3 0 4 0;
#X connect 4 0 5 0;
#X connect 5 0 6 0;
#X connect 5 0 8 0;
#X connect 6 0 5 1;
#X connect 7 0 5 1;
#X connect 8 0 26 0;
#X connect 8 1 9 0;
#X connect 9 0 23 0;
#X connect 10 0 13 0;
#X connect 10 1 2 0;
#X connect 10 2 12 0;
#X connect 12 0 11 0;
#X connect 13 0 14 0;
#X connect 21 0 1 0;
#X connect 23 0 26 1;
#X connect 23 1 24 0;
#X connect 24 0 25 1;
#X connect 25 0 20 0;
#X connect 26 0 25 0;
#X restore 66 114 pd register-&-sort;
#X obj 39 93 t l l;
#X obj 185 608 text get \$0-note-order;
#X obj 12 73 t b l;
#X obj 12 177 > 0;
#X obj 12 198 change;
#X obj 12 219 t f f;
#X obj 39 240 sel 1;
#X obj 39 261 s \$0-on;
#X obj 89 261 r \$0-on;
#X obj 89 303 v \$0-int;
#X msg 89 282 0;
#X obj 12 282 s \$0-gate;
#X obj 12 156 v \$0-size;
#X msg 185 629 \$2 \$3;
#X obj 212 94 r \$0-size;
#X obj 222 136 - 1;
#X obj 222 73 t b f;
#X obj 222 115 * 1;
#X obj 222 157 s \$0-t-size;
#X obj 289 276 r \$0-t-size;
#X obj 602 239 r \$0-t-size;
#X obj 404 362 r \$0-t-size;
#N canvas 571 257 551 403 note-order 0;
#X obj 176 75 > 0;
#X msg 206 167 1;
#X obj 221 188 +;
#X obj 251 188 i;
#X obj 236 75 r \$0-size;
#X obj 236 96 sel 0;
#X msg 236 167 0;
#X obj 236 117 t b b;
#X obj 176 209 tabwrite \$0-note-order;
#X obj 176 146 sel 0 1;
#X msg 176 167 0;
#X obj 248 49 unpack f f;
#X msg 263 138 const 0;
#X obj 12 33 t l l;
#X obj 31 138 t b b;
#X msg 31 159 127;
#X obj 31 180 until;
#X obj 56 201 i;
#X obj 86 201 + 1;
#X msg 71 159 0;
#X msg 51 96 clear;
#X obj 12 117 text define \$0-note-order;
#X obj 263 159 array define -yrange 0 127 \$0-note-order 127;
#X obj 56 222 t f f;
#X obj 194 269 tabread \$0-note-order;
#X obj 194 290 t f f;
#X obj 221 311 > 0;
#X obj 56 243 t f f;
#X obj 56 285 pack f f;
#X obj 66 264 tabread \$0-velocity;
#X obj 56 306 list prepend;
#X obj 56 327 spigot;
#X obj 56 348 text insert \$0-note-order 0;
#X msg 12 80 sort;
#X obj 12 59 t b b b;
#X obj 12 12 inlet;
#X text 176 229 [1] Assign note order to each note;
#X text 16 369 [2] Sort note order into a text object;
#X connect 0 0 9 0;
#X connect 1 0 2 0;
#X connect 2 0 3 0;
#X connect 2 0 8 0;
#X connect 3 0 2 1;
#X connect 4 0 5 0;
#X connect 5 0 7 0;
#X connect 6 0 2 1;
#X connect 7 0 6 0;
#X connect 7 1 12 0;
#X connect 9 0 10 0;
#X connect 9 1 1 0;
#X connect 10 0 8 0;
#X connect 11 0 0 0;
#X connect 11 1 8 1;
#X connect 12 0 22 0;
#X connect 13 0 34 0;
#X connect 13 1 11 0;
#X connect 14 0 15 0;
#X connect 14 1 19 0;
#X connect 15 0 16 0;
#X connect 16 0 17 0;
#X connect 17 0 18 0;
#X connect 17 0 23 0;
#X connect 18 0 17 1;
#X connect 19 0 17 1;
#X connect 20 0 21 0;
#X connect 23 0 27 0;
#X connect 23 1 24 0;
#X connect 24 0 25 0;
#X connect 25 0 30 1;
#X connect 25 1 26 0;
#X connect 26 0 31 1;
#X connect 27 0 28 0;
#X connect 27 1 29 0;
#X connect 28 0 30 0;
#X connect 29 0 28 1;
#X connect 30 0 31 0;
#X connect 31 0 32 0;
#X connect 33 0 21 0;
#X connect 34 0 33 0;
#X connect 34 1 14 0;
#X connect 34 2 20 0;
#X connect 35 0 13 0;
#X restore 39 135 pd note-order;
#X obj 531 153 s \$0-dir;
#X obj 185 197 r \$0-dir;
#X obj 535 197 r \$0-dir;
#X obj 535 218 sel 2;
#X obj 685 197 r \$0-dir;
#X obj 695 239 random;
#X obj 728 218 r \$0-t-size;
#X obj 695 260 s \$0-counter;
#X obj 185 218 sel 0 1 3;
#X obj 218 498 r \$0-direction;
#X obj 185 540 spigot;
#X obj 218 519 == 3;
#X obj 405 582 t f f;
#X obj 551 634 div;
#X obj 405 608 %;
#X obj 539 571 r \$0-size;
#X obj 539 592 t f f;
#X obj 405 650 unpack f f;
#X obj 405 671 +;
#X obj 551 655 * 12;
#X obj 405 692 pack f f;
#X obj 405 629 text get \$0-note-on;
#X obj 204 452 s \$0-counter;
#X obj 405 561 r \$0-counter;
#X obj 685 218 sel 4;
#X obj 185 367 t f f f;
#X text 204 472 // Up;
#X text 335 487 // Down;
#X text 497 430 // Up and Down;
#X text 695 280 // Random;
#X text 245 692 // Note order;
#X text 405 541 // Up \, Down \, Up/Down & Counter;
#X obj 492 707 r \$0-tempo;
#X text 405 769 (O1) Note;
#X text 492 769 (O2) Velocity;
#X text 531 21 // Clock in;
#X obj 493 752 outlet;
#X connect 0 0 59 0;
#X connect 1 0 59 1;
#X connect 4 0 5 0;
#X connect 5 0 10 0;
#X connect 7 0 8 0;
#X connect 9 0 48 0;
#X connect 10 0 6 0;
#X connect 11 0 13 0;
#X connect 11 1 12 0;
#X connect 12 0 18 0;
#X connect 13 0 62 0;
#X connect 14 0 15 0;
#X connect 15 0 13 1;
#X connect 15 1 12 1;
#X connect 16 0 17 0;
#X connect 16 1 19 1;
#X connect 17 0 19 0;
#X connect 18 0 17 1;
#X connect 19 0 55 0;
#X connect 20 0 21 0;
#X connect 21 0 77 0;
#X connect 22 0 26 0;
#X connect 23 0 28 0;
#X connect 24 0 25 0;
#X connect 26 0 27 0;
#X connect 26 1 29 0;
#X connect 26 2 31 0;
#X connect 27 0 49 0;
#X connect 28 0 24 1;
#X connect 29 0 30 0;
#X connect 30 0 24 1;
#X connect 31 0 23 0;
#X connect 32 0 51 0;
#X connect 33 0 34 0;
#X connect 34 0 44 0;
#X connect 36 0 39 0;
#X connect 38 0 84 0;
#X connect 41 0 43 0;
#X connect 42 0 106 0;
#X connect 43 0 42 1;
#X connect 44 0 52 0;
#X connect 45 0 46 0;
#X connect 46 0 44 1;
#X connect 47 0 38 0;
#X connect 48 0 109 0;
#X connect 48 1 7 0;
#X connect 49 0 32 0;
#X connect 49 1 24 0;
#X connect 50 0 32 1;
#X connect 50 1 31 1;
#X connect 53 0 54 0;
#X connect 54 0 39 0;
#X connect 55 0 56 0;
#X connect 55 1 120 0;
#X connect 57 0 4 0;
#X connect 58 0 9 0;
#X connect 58 1 57 0;
#X connect 59 0 63 0;
#X connect 61 0 83 0;
#X connect 61 1 60 0;
#X connect 62 0 74 0;
#X connect 63 0 73 0;
#X connect 63 1 61 0;
#X connect 64 0 65 0;
#X connect 65 0 66 0;
#X connect 66 0 72 0;
#X connect 66 1 67 0;
#X connect 67 0 68 0;
#X connect 69 0 71 0;
#X connect 71 0 70 0;
#X connect 73 0 64 0;
#X connect 74 0 16 0;
#X connect 75 0 78 0;
#X connect 76 0 79 0;
#X connect 77 0 78 0;
#X connect 77 1 78 1;
#X connect 78 0 76 0;
#X connect 80 0 4 1;
#X connect 81 0 50 0;
#X connect 82 0 33 1;
#X connect 85 0 92 0;
#X connect 86 0 87 0;
#X connect 87 0 22 0;
#X connect 88 0 108 0;
#X connect 89 0 91 0;
#X connect 90 0 89 1;
#X connect 92 0 58 0;
#X connect 92 1 58 0;
#X connect 92 2 58 0;
#X connect 93 0 95 0;
#X connect 94 0 11 0;
#X connect 95 0 94 1;
#X connect 96 0 98 0;
#X connect 96 1 97 0;
#X connect 97 0 103 0;
#X connect 98 0 105 0;
#X connect 99 0 100 0;
#X connect 100 0 98 1;
#X connect 100 1 97 1;
#X connect 101 0 102 0;
#X connect 101 1 104 1;
#X connect 102 0 104 0;
#X connect 103 0 102 1;
#X connect 104 0 55 0;
#X connect 105 0 101 0;
#X connect 107 0 96 0;
#X connect 108 0 89 0;
#X connect 109 0 94 0;
#X connect 109 1 33 0;
#X connect 109 1 42 0;
#X connect 116 0 55 2;
#X restore 465 178 pd arp;
#X f 27;
#X obj 105 116 bng 15 250 50 0 empty empty empty 0 -8 0 10 #fcfcfc #000000 #000000;
#X text 863 146 OLD GUI:;
#X obj 398 382 / 127;
#X obj 398 404 sig~;
#X obj 558 343 > 0;
#X obj 558 384 pack 0 10;
#X obj 558 406 line~;
#X obj 398 426 outlet~ PITCH;
#X obj 638 451 outlet~ GATE;
#X obj 558 362 t f f;
#X obj 398 361 t f f;
#X obj 558 322 t f f f;
#X obj 104 225 cnv 5 5 5 empty empty NOTE 0 0 0 8 #fcfcfc #404040 0;
#X obj 251 225 cnv 5 5 5 empty empty GATE 0 0 0 8 #fcfcfc #404040 0;
#X obj 131 137 vradio 15 1 0 4 \$0-diet-arp-oktave-s \$0-diet-arp-oktave-r empty 0 -8 0 10 #fcfcfc #000000 #000000 0;
#X obj 149 176 cnv 5 5 5 empty empty 3\ OKTAVE 0 0 0 8 #fcfcfc #000000 0;
#X obj 150 145 cnv 5 5 5 empty empty 1\ OKTAVE 0 0 0 8 #fcfcfc #000000 0;
#X obj 150 160 cnv 5 5 5 empty empty 2\ OKTAVE 0 0 0 8 #fcfcfc #000000 0;
#X obj 149 191 cnv 5 5 5 empty empty 4\ OKTAVE 0 0 0 8 #fcfcfc #000000 0;
#X obj 207 138 vradio 15 1 0 5 \$0-diet-arp-direction-s \$0-diet-arp-direction-r empty 0 -8 0 10 #fcfcfc #000000 #000000 0;
#X obj 225 176 cnv 5 5 5 empty empty UP-DOWN 0 0 0 8 #fcfcfc #000000 0;
#X obj 226 145 cnv 5 5 5 empty empty UP 0 0 0 8 #fcfcfc #000000 0;
#X obj 226 160 cnv 5 5 5 empty empty DOWN 0 0 0 8 #fcfcfc #000000 0;
#X obj 225 191 cnv 5 5 5 empty empty ORDER 0 0 0 8 #fcfcfc #000000 0;
#X obj 225 206 cnv 5 5 5 empty empty RANDOM 0 0 0 8 #fcfcfc #000000 0;
#X obj 131 200 tgl 15 1 \$0-diet-arp-on/through-s \$0-diet-arp-on/through-r ON/TROUGH 17 7 0 10 #fcfcfc #000000 #000000 1 1;
#X obj 468 259 spigot;
#X obj 516 260 spigot;
#X obj 323 238 spigot;
#X obj 373 238 spigot;
#X obj 343 162 sel 0;
#X msg 346 195 1;
#X msg 386 194 0;
#X obj 158 336 f;
#X obj 158 291 loadbang;
#X obj 158 312 del 200;
#X text 214 286 To make sure the value is \; loaded into the arp;
#X obj 550 35 inlet~;
#X text 553 16 ON/OFF GATE INPUT;
#X obj 550 59 threshold~ 0.99 0 0.99 0;
#X obj 244 109 cnv 5 5 5 empty empty ON/OFF 0 0 0 8 #fcfcfc #dc4c90 0;
#X obj 665 370 vline~;
#X msg 665 348 1 0 \, 0 1 1;
#X obj 105 109 cnv 5 5 5 empty empty IN 0 0 0 8 #fcfcfc #dc4c90 0;
#X text 37 6 CLOCK IN;
#X obj 388 7 inlet;
#X text 383 -16 MIDI IN;
#X obj 382 51 unpack f f;
#X connect 6 0 8 0;
#X connect 8 0 10 0;
#X connect 10 0 7 0;
#X connect 11 0 1 0;
#X connect 14 0 13 0;
#X connect 15 0 16 0;
#X connect 16 0 18 0;
#X connect 16 0 17 4;
#X connect 17 0 44 0;
#X connect 17 1 45 0;
#X connect 20 0 21 0;
#X connect 21 0 25 0;
#X connect 22 0 27 0;
#X connect 23 0 24 0;
#X connect 24 0 26 0;
#X connect 27 0 23 0;
#X connect 28 0 20 0;
#X connect 29 0 22 0;
#X connect 32 0 17 2;
#X connect 37 0 17 3;
#X connect 37 0 51 1;
#X connect 43 0 44 1;
#X connect 43 0 45 1;
#X connect 43 0 48 0;
#X connect 44 0 28 0;
#X connect 45 0 29 0;
#X connect 46 0 28 0;
#X connect 47 0 29 0;
#X connect 48 0 49 0;
#X connect 48 1 50 0;
#X connect 49 0 46 1;
#X connect 49 0 47 1;
#X connect 50 0 46 1;
#X connect 50 0 47 1;
#X connect 51 0 17 3;
#X connect 52 0 53 0;
#X connect 53 0 51 0;
#X connect 55 0 57 0;
#X connect 57 0 43 0;
#X connect 60 0 59 0;
#X connect 63 0 65 0;
#X connect 65 0 46 0;
#X connect 65 0 17 0;
#X connect 65 1 47 0;
#X connect 65 1 17 1;
#X coords 0 -1 1 1 175 135 2 100 100;
