#N canvas 63 88 1216 583 10;
#X obj 24 353 cnv 15 400 30 empty empty OUTPUTS: 20 12 0 14 #9898dc #fcfcfc 0;
#X obj 21 136 cnv 15 400 30 empty empty CONTROLS: 20 12 0 14 #9898dc #fcfcfc 0;
#X obj 21 242 cnv 15 400 30 empty empty INPUTS: 20 12 0 14 #9898dc #fcfcfc 0;
#X obj 20 17 cnv 15 400 30 empty empty DIET-CLOCK: 20 12 0 14 #90d4b0 #fcfcfc 0;
#X text 25 210 ON/OFF - turn the clock on/off;
#X text 25 278 CLK_RATE - input for cv-control of the clock rate;
#X text 25 320 ON/OFF - trigger/gate input for turning the clock on/off;
#X text 21 53 The "CLOCK" module is a simple clock/trigger/gate generator. Control the clock-rate or turn the clock on/off. Notice that there are other ways to generate clocks in the patch editor. For example using BASIC-LFO or the EOC of a cycling envelope.;
#X obj 423 17 diet-clock;
#X text 27 387 OUT - GATE-OUT of the clock;
#X text 25 174 CLK_RATE - controls the clock-rate in BPM from 60 to 180;
#X text 27 457 NOTE: This is a modification of the original clock;
#X text 27 407 RESET-OUT - a gate out \, when the clock is switched off;
#X obj 703 17 notein;
#X obj 703 159 arpeggiator, f 18;
#X obj 703 249 poly 1 1;
#X obj 703 269 pack f f f;
#X obj 703 290 route 1;
#X obj 703 311 unpack f f;
#X obj 703 332 mtof;
#X obj 703 353 osc~;
#X obj 703 400 *~;
#X obj 763 334 > 0;
#X msg 763 355 \$1 1;
#X obj 763 376 line~;
#X obj 703 421 *~ 0.5;
#X obj 703 442 clip~ -1 1;
#X obj 703 463 hip~ 3;
#X obj 703 484 *~ 0.5;
#X obj 703 505 dac~ 1 2;
#X obj 840 34 nbx 5 16 0 1e+37 0 0 empty \$0-r-tempo TEMPO 0 -6 0 12 #7c7c7c #fcfcfc #000000 0 256;
#X obj 750 87 hradio 16 1 0 5 empty \$0-r-direction DIRECTION 0 -6 0 12 #7c7c7c #fcfcfc #000000 0;
#X msg 840 55 60000 \$1;
#X obj 840 76 /;
#X obj 840 97 / 4;
#X obj 734 52 hradio 16 1 0 4 empty \$0-r-octave OCTAVE 0 -6 0 12 #7c7c7c #fcfcfc #000000 0;
#X connect 13 0 14 0;
#X connect 13 1 14 1;
#X connect 14 0 15 0;
#X connect 14 1 15 1;
#X connect 15 0 16 0;
#X connect 15 1 16 1;
#X connect 15 2 16 2;
#X connect 16 0 17 0;
#X connect 17 0 18 0;
#X connect 18 0 19 0;
#X connect 18 1 22 0;
#X connect 19 0 20 0;
#X connect 20 0 21 0;
#X connect 21 0 25 0;
#X connect 22 0 23 0;
#X connect 23 0 24 0;
#X connect 24 0 21 1;
#X connect 25 0 26 0;
#X connect 26 0 27 0;
#X connect 27 0 28 0;
#X connect 28 0 29 0;
#X connect 28 0 29 1;
#X connect 30 0 32 0;
#X connect 31 0 14 3;
#X connect 32 0 33 0;
#X connect 33 0 34 0;
#X connect 34 0 14 4;
#X connect 35 0 14 2;
