#N canvas 62 26 1378 788 10;
#X obj 213 454 hradio 17 1 1 4 empty empty TUNING 0 -8 0 10 #fcfcfc #000000 #000000 0;
#X obj 134 148 cnv 5 5 5 empty empty CMBCYM 0 0 0 12 #fcfcfc #404040 0;
#X obj 103 362 cnv 5 5 5 empty empty OUT 0 0 0 8 #fcfcfc #404040 0;
#X obj 181 148 cnv 5 5 5 empty \$0-instance-num 1 0 0 0 12 #fcfcfc #404040 0;
#X obj 1004 108 inlet;
#X obj 103 119 cnv 5 5 5 empty empty IN 0 0 0 8 #fcfcfc #ff8300 0;
#N canvas 0 25 1440 847 dsp 0;
#X obj 69 586 clip~ -1 1;
#X obj 69 604 hip~ 3;
#X obj 68 243 i;
#X obj 104 110 vsl 17 127 1 127 0 1 empty empty VELOCITY 0 -9 0 10 #fcfcfc #000000 #000000 12600 1;
#X obj 104 245 nbx 3 17 1 127 0 0 empty empty empty 0 -8 0 10 #fcfcfc #000000 #000000 0 256;
#X obj 436 121 hsl 128 17 0 127 0 1 \$0-attack empty ATTACK -2 -8 0 10 #fcfcfc #000000 #000000 0 1;
#X obj 566 121 nbx 3 17 0 127 0 0 empty \$0-attack empty 0 -8 0 10 #fcfcfc #000000 #000000 0 256;
#X obj 92 293 r \$0-attack;
#X msg 92 315 attack \$1;
#X obj 122 337 r \$0-decay;
#X msg 122 359 decay \$1;
#X obj 142 381 r \$0-noise;
#X msg 142 403 noise \$1;
#X msg 172 447 highpass \$1;
#X obj 172 425 r \$0-highpass;
#X obj 436 156 hsl 128 17 0 127 0 1 \$0-decay empty DECAY -2 -8 0 10 #fcfcfc #000000 #000000 0 1;
#X obj 566 156 nbx 3 17 0 127 0 0 empty \$0-decay empty 0 -8 0 10 #fcfcfc #000000 #000000 0 256;
#X obj 436 191 hsl 128 17 0 127 0 1 \$0-noise empty NOISE -2 -8 0 10 #fcfcfc #000000 #000000 12700 1;
#X obj 566 191 nbx 3 17 0 127 0 0 empty \$0-noise empty 0 -8 0 10 #fcfcfc #000000 #000000 0 256;
#X obj 436 226 hsl 128 17 0 127 0 1 \$0-highpass empty HIGHPASS -2 -8 0 10 #fcfcfc #000000 #000000 0 1;
#X obj 566 226 nbx 3 17 0 127 0 0 empty \$0-highpass empty 0 -8 0 10 #fcfcfc #000000 #000000 0 256;
#X msg 340 361 210.2 320.09 379.973 539.95 549.5 799.957;
#X obj 342 457 t a;
#X obj 340 339 sel 0 1 2 3;
#X msg 371 405 205.3 369.6 304.3 522.7 1149.9 627.2;
#X msg 387 427 489.8 620.2 325.53 317.14 853.2 567.3;
#X text 432 85 PARAMETERS;
#X msg 355 383 420.2 250.7 317.8 475.9 521.43 745.321;
#N canvas 121 146 1210 553 cmbcym 0;
#X obj 455 445 /;
#X obj 166 327 +~;
#X obj 166 305 *~ 0.9;
#X obj 223 305 *~ 0.1;
#X obj 223 283 pow~ 1.85;
#X obj 166 283 pow~ 6.7;
#X obj 353 167 noise~;
#X obj 151 455 *~;
#X obj 515 445 /;
#X obj 575 445 /;
#X obj 635 445 /;
#X obj 695 445 /;
#X obj 755 446 /;
#X obj 295 240 r \$0-vel-cym;
#X msg 295 262 1 \$1;
#X obj 295 284 -;
#X obj 295 350 + 100;
#X obj 295 372 dbtorms;
#X msg 295 394 \$1 1;
#X obj 295 416 line~;
#X obj 166 46 r \$0-trg-cym;
#N canvas 0 22 241 126 lowpass 0;
#X obj 12 93 outlet~;
#N canvas 674 187 405 205 @hv_obj 0;
#X obj 62 12 inlet~ b0;
#X obj 132 12 inlet~ b1;
#X obj 202 12 inlet~ b2;
#X obj 272 12 inlet~ a1;
#X obj 332 12 inlet~ a2;
#X obj 12 12 inlet~;
#N canvas 677 380 306 397 zeros 0;
#X obj 12 282 czero~;
#X obj 12 329 czero~;
#X obj 12 356 outlet~;
#X obj 75 356 outlet~;
#X obj 62 12 inlet~ b0;
#X obj 132 12 inlet~ b1;
#X obj 202 12 inlet~ b2;
#X obj 12 12 inlet~;
#X obj 47 89 *~ -1;
#X obj 47 111 *~ 0.5;
#X obj 132 117 *~;
#X obj 132 155 -~;
#X obj 187 138 *~ 4;
#X obj 187 116 *~;
#X obj 228 172 abs~;
#X obj 228 216 *~ 0.5;
#X obj 228 238 /~;
#N canvas 773 235 262 212 location 0;
#X obj 12 12 inlet~;
#X obj 62 12 inlet~;
#X obj 207 12 inlet~;
#X obj 12 174 outlet~;
#X obj 72 174 outlet~;
#X obj 132 174 outlet~;
#X obj 192 174 outlet~;
#N canvas 725 189 180 137 gte 0;
#X obj 117 12 inlet~;
#X obj 12 12 inlet~;
#X obj 12 100 outlet~;
#N canvas 758 270 144 76 @hv_obj 0;
#X obj 62 12 inlet~;
#X obj 12 12 inlet~;
#X obj 12 34 outlet~;
#X connect 1 0 2 0;
#X restore 12 78 pd @hv_obj __and~f;
#X obj 117 56 sig~ 1;
#N canvas 945 362 136 178 @hv_obj 0;
#X obj 12 56 -~;
#X obj 12 78 clip~ -1e-37 0;
#X obj 12 12 inlet~;
#X obj 62 12 inlet~;
#X obj 12 144 outlet~;
#X obj 12 122 *~ 1e+37;
#X obj 12 34 min~;
#X obj 12 100 +~ 1e-37;
#X connect 0 0 1 0;
#X connect 1 0 7 0;
#X connect 2 0 6 0;
#X connect 3 0 6 1;
#X connect 3 0 0 1;
#X connect 5 0 4 0;
#X connect 6 0 0 0;
#X connect 7 0 5 0;
#X restore 12 34 pd @hv_obj __gte~f;
#X connect 0 0 5 1;
#X connect 1 0 5 0;
#X connect 3 0 2 0;
#X connect 4 0 3 1;
#X connect 5 0 3 0;
#X restore 62 49 pd gte;
#N canvas 845 375 187 138 lte 0;
#X obj 117 12 inlet~;
#X obj 12 12 inlet~;
#X obj 12 100 outlet~;
#N canvas 467 216 140 82 @hv_obj 0;
#X obj 72 12 inlet~;
#X obj 12 12 inlet~;
#X obj 12 39 outlet~;
#X connect 1 0 2 0;
#X restore 12 78 pd @hv_obj __and~f;
#X obj 117 56 sig~ 1;
#N canvas 715 101 137 184 @hv_obj 0;
#X obj 12 56 -~;
#X obj 12 78 clip~ -1e-37 0;
#X obj 12 12 inlet~;
#X obj 62 12 inlet~;
#X obj 12 144 outlet~;
#X obj 12 122 *~ 1e+37;
#X obj 12 34 min~;
#X obj 12 100 +~ 1e-37;
#X connect 0 0 1 0;
#X connect 1 0 7 0;
#X connect 2 0 6 0;
#X connect 2 0 0 1;
#X connect 3 0 6 1;
#X connect 5 0 4 0;
#X connect 6 0 0 0;
#X connect 7 0 5 0;
#X restore 12 34 pd @hv_obj __lte~f;
#X connect 0 0 5 1;
#X connect 1 0 5 0;
#X connect 3 0 2 0;
#X connect 4 0 3 1;
#X connect 5 0 3 0;
#X restore 127 49 pd lte;
#X obj 12 152 +~;
#X obj 160 22 sig~ 0;
#X obj 147 125 *~;
#X obj 192 125 *~;
#X obj 132 152 -~;
#X obj 192 152 *~ -1;
#X connect 0 0 9 0;
#X connect 0 0 13 0;
#X connect 1 0 7 0;
#X connect 1 0 8 0;
#X connect 2 0 11 1;
#X connect 2 0 12 1;
#X connect 7 0 11 0;
#X connect 8 0 12 0;
#X connect 9 0 3 0;
#X connect 10 0 7 1;
#X connect 10 0 8 1;
#X connect 11 0 9 1;
#X connect 11 0 13 1;
#X connect 12 0 4 0;
#X connect 12 0 14 0;
#X connect 13 0 5 0;
#X connect 14 0 6 0;
#X restore 34 255 pd location;
#X obj 228 194 sqrt~;
#X obj 47 133 /~;
#X connect 0 0 1 0;
#X connect 0 1 1 1;
#X connect 1 0 2 0;
#X connect 1 1 3 0;
#X connect 4 0 13 0;
#X connect 4 0 16 1;
#X connect 4 0 19 1;
#X connect 5 0 8 0;
#X connect 5 0 10 1;
#X connect 5 0 10 0;
#X connect 6 0 13 1;
#X connect 7 0 0 0;
#X connect 8 0 9 0;
#X connect 9 0 19 0;
#X connect 10 0 11 0;
#X connect 11 0 14 0;
#X connect 11 0 17 1;
#X connect 12 0 11 1;
#X connect 13 0 12 0;
#X connect 14 0 18 0;
#X connect 15 0 16 0;
#X connect 16 0 17 2;
#X connect 17 0 0 2;
#X connect 17 1 0 3;
#X connect 17 2 1 2;
#X connect 17 3 1 3;
#X connect 18 0 15 0;
#X connect 19 0 17 0;
#X restore 12 86 pd zeros;
#X obj 12 49 *~;
#N canvas 744 202 254 278 poles 0;
#X obj 12 170 cpole~;
#X obj 12 217 cpole~;
#X obj 12 244 outlet~;
#X obj 12 12 inlet~;
#X obj 62 12 inlet~;
#X obj 112 12 inlet~ a1;
#X obj 182 12 inlet~ a2;
#N canvas 739 258 279 198 location 0;
#X obj 12 12 inlet~;
#X obj 127 12 inlet~;
#X obj 222 49 inlet~;
#X obj 12 155 outlet~;
#X obj 62 155 outlet~;
#X obj 112 155 outlet~;
#X obj 172 155 outlet~;
#N canvas 796 341 183 142 gte 0;
#X obj 117 12 inlet~;
#X obj 12 12 inlet~;
#X obj 12 100 outlet~;
#N canvas 679 326 140 75 @hv_obj 0;
#X obj 72 12 inlet~;
#X obj 12 12 inlet~;
#X obj 12 34 outlet~;
#X connect 1 0 2 0;
#X restore 12 78 pd @hv_obj __and~f;
#X obj 117 56 sig~ 1;
#N canvas 754 439 132 184 @hv_obj 0;
#X obj 12 56 -~;
#X obj 12 78 clip~ -1e-37 0;
#X obj 12 12 inlet~;
#X obj 62 12 inlet~;
#X obj 12 144 outlet~;
#X obj 12 122 *~ 1e+37;
#X obj 12 34 min~;
#X obj 12 100 +~ 1e-37;
#X connect 0 0 1 0;
#X connect 1 0 7 0;
#X connect 2 0 6 0;
#X connect 3 0 6 1;
#X connect 3 0 0 1;
#X connect 5 0 4 0;
#X connect 6 0 0 0;
#X connect 7 0 5 0;
#X restore 12 34 pd @hv_obj __gte~f;
#X connect 0 0 5 1;
#X connect 1 0 5 0;
#X connect 3 0 2 0;
#X connect 4 0 3 1;
#X connect 5 0 3 0;
#X restore 127 39 pd gte;
#N canvas 816 493 187 138 lte 0;
#X obj 117 12 inlet~;
#X obj 12 12 inlet~;
#X obj 12 100 outlet~;
#N canvas 467 216 142 76 @hv_obj 0;
#X obj 72 12 inlet~;
#X obj 12 12 inlet~;
#X obj 12 34 outlet~;
#X connect 1 0 2 0;
#X restore 12 78 pd @hv_obj __and~f;
#X obj 117 56 sig~ 1;
#N canvas 715 101 131 178 @hv_obj 0;
#X obj 12 56 -~;
#X obj 12 78 clip~ -1e-37 0;
#X obj 12 12 inlet~;
#X obj 62 12 inlet~;
#X obj 12 144 outlet~;
#X obj 12 122 *~ 1e+37;
#X obj 12 34 min~;
#X obj 12 100 +~ 1e-37;
#X connect 0 0 1 0;
#X connect 1 0 7 0;
#X connect 2 0 6 0;
#X connect 2 0 0 1;
#X connect 3 0 6 1;
#X connect 5 0 4 0;
#X connect 6 0 0 0;
#X connect 7 0 5 0;
#X restore 12 34 pd @hv_obj __lte~f;
#X connect 0 0 5 1;
#X connect 1 0 5 0;
#X connect 3 0 2 0;
#X connect 4 0 3 1;
#X connect 5 0 3 0;
#X restore 172 39 pd lte;
#X obj 12 83 +~;
#X obj 205 12 sig~ 0;
#X obj 127 66 *~;
#X obj 172 66 *~;
#X obj 112 133 -~;
#X obj 172 133 *~ -1;
#X connect 0 0 9 0;
#X connect 0 0 13 0;
#X connect 1 0 7 0;
#X connect 1 0 8 0;
#X connect 2 0 11 1;
#X connect 2 0 12 1;
#X connect 7 0 11 0;
#X connect 8 0 12 0;
#X connect 9 0 3 0;
#X connect 10 0 7 1;
#X connect 10 0 8 1;
#X connect 11 0 9 1;
#X connect 11 0 13 1;
#X connect 12 0 4 0;
#X connect 12 0 14 0;
#X connect 13 0 5 0;
#X connect 14 0 6 0;
#X restore 34 144 pd location;
#X obj 54 77 *~ 0.5;
#X obj 112 39 *~;
#X obj 112 61 +~;
#X obj 182 44 *~ 4;
#X obj 112 83 abs~;
#X obj 112 127 *~ 0.5;
#X obj 112 105 sqrt~;
#X connect 0 0 1 0;
#X connect 0 1 1 1;
#X connect 1 0 2 0;
#X connect 3 0 0 0;
#X connect 4 0 0 1;
#X connect 5 0 8 0;
#X connect 5 0 9 0;
#X connect 5 0 9 1;
#X connect 6 0 11 0;
#X connect 7 0 0 2;
#X connect 7 1 0 3;
#X connect 7 2 1 2;
#X connect 7 3 1 3;
#X connect 8 0 7 0;
#X connect 9 0 10 0;
#X connect 10 0 7 1;
#X connect 10 0 12 0;
#X connect 11 0 10 1;
#X connect 12 0 14 0;
#X connect 13 0 7 2;
#X connect 14 0 13 0;
#X restore 12 133 pd poles;
#X obj 12 160 outlet~;
#X obj 272 116 *~ -1;
#X obj 332 116 *~ -1;
#X connect 0 0 6 1;
#X connect 0 0 7 1;
#X connect 1 0 6 2;
#X connect 2 0 6 3;
#X connect 3 0 10 0;
#X connect 4 0 11 0;
#X connect 5 0 7 0;
#X connect 6 0 8 0;
#X connect 6 1 8 1;
#X connect 7 0 6 0;
#X connect 8 0 9 0;
#X connect 10 0 8 2;
#X connect 11 0 8 3;
#X restore 12 71 pd @hv_obj biquad;
#X obj 62 12 inlet~ freq;
#X obj 161 12 inlet~ q;
#N canvas 533 23 706 367 lowpass.coeffs 0;
#X obj 137 12 inlet~ freq;
#X obj 298 50 inlet~ q;
#N canvas 78 244 261 257 hz2rad 0;
#X obj 27 56 samplerate~;
#X obj 27 34 loadbang;
#X obj 27 122 atan;
#X msg 27 100 1;
#X obj 27 144 * 8;
#X obj 27 78 t b a;
#X obj 27 166 / 44100;
#X obj 12 188 *~;
#X obj 12 210 outlet~ w(rad);
#X obj 12 12 inlet~ freq(Hz);
#X text 77 166 // 2 * pi / SR;
#X text 107 56 // w = 2 * pi * f / SR;
#X connect 0 0 5 0;
#X connect 1 0 0 0;
#X connect 2 0 4 0;
#X connect 3 0 2 0;
#X connect 4 0 6 0;
#X connect 5 0 3 0;
#X connect 5 1 6 1;
#X connect 6 0 7 1;
#X connect 7 0 8 0;
#X connect 9 0 7 0;
#X restore 137 55 pd hz2rad;
#X obj 137 34 clip~ 20 20000;
#X obj 137 77 /~ 6.28319;
#X obj 137 121 cos~;
#X obj 298 72 clip~ 0.1 100;
#X obj 283 94 sig~ 1;
#X obj 283 116 /~;
#X obj 207 121 cos~;
#X obj 283 138 *~;
#X obj 283 160 *~ 0.5;
#X obj 12 258 sig~ 1;
#X obj 12 280 /~;
#X obj 122 297 *~;
#X obj 137 275 *~ 0.5;
#X obj 122 319 outlet~ b0;
#X obj 192 297 *~;
#X obj 192 319 outlet~ b1;
#X obj 262 297 *~;
#X obj 262 319 outlet~ b2;
#X obj 347 297 *~;
#X obj 362 231 *~ -2;
#X obj 347 319 outlet~ a1;
#X obj 432 231 sig~ 1;
#X obj 432 253 -~;
#X obj 417 297 *~;
#X obj 417 319 outlet~ a2;
#X obj 57 263 +~ 1;
#X text 363 162 w0 = 2*pi*f0*Fs;
#X text 363 182 alpha = sin(w0)/(2*Q);
#X text 527 237 a2 = 1 - alpha;
#X text 527 217 a1 = -2*cos(w0);
#X text 392 72 H(z) = -----------------------------------------;
#X text 392 32 Audio-Cookbook:;
#X text 392 112 http://musicdsp.org/files/Audio-EQ-Cookbook.txt;
#X obj 137 231 sig~ 1;
#X obj 137 253 -~;
#X obj 207 231 sig~ 1;
#X obj 207 253 -~;
#X obj 277 275 *~ 0.5;
#X obj 277 231 sig~ 1;
#X obj 277 253 -~;
#X text 434 87 1 + (a1/a0)*z^(-1) + (a2/a0)*z^(-2);
#X text 434 57 (b0/a0) + (b1/a0)*z^(-1) + (b2/a0)*z^(-2);
#X text 527 197 a0 = 1 + alpha;
#X text 527 257 b0 = (1 - cos(w0))/2;
#X text 527 277 b1 = (1 - cos(w0));
#X text 527 297 b2 = (1 - cos(w0))/2;
#X text 517 177 LPF:;
#X obj 207 99 -~ 0.25;
#X connect 0 0 3 0;
#X connect 1 0 6 0;
#X connect 2 0 4 0;
#X connect 3 0 2 0;
#X connect 4 0 5 0;
#X connect 4 0 50 0;
#X connect 5 0 37 1;
#X connect 5 0 39 1;
#X connect 5 0 42 1;
#X connect 5 0 22 0;
#X connect 6 0 8 1;
#X connect 7 0 8 0;
#X connect 8 0 10 0;
#X connect 9 0 10 1;
#X connect 10 0 11 0;
#X connect 11 0 25 1;
#X connect 11 0 28 0;
#X connect 12 0 13 0;
#X connect 13 0 14 0;
#X connect 13 0 17 0;
#X connect 13 0 19 0;
#X connect 13 0 21 0;
#X connect 13 0 26 0;
#X connect 14 0 16 0;
#X connect 15 0 14 1;
#X connect 17 0 18 0;
#X connect 19 0 20 0;
#X connect 21 0 23 0;
#X connect 22 0 21 1;
#X connect 24 0 25 0;
#X connect 25 0 26 1;
#X connect 26 0 27 0;
#X connect 28 0 13 1;
#X connect 36 0 37 0;
#X connect 37 0 15 0;
#X connect 38 0 39 0;
#X connect 39 0 17 1;
#X connect 40 0 19 1;
#X connect 41 0 42 0;
#X connect 42 0 40 0;
#X connect 50 0 9 0;
#X restore 62 34 pd lowpass.coeffs;
#X obj 12 12 inlet~;
#X connect 1 0 0 0;
#X connect 2 0 4 0;
#X connect 3 0 4 1;
#X connect 4 0 1 1;
#X connect 4 1 1 2;
#X connect 4 2 1 3;
#X connect 4 3 1 4;
#X connect 4 4 1 5;
#X connect 5 0 1 0;
#X restore 12 438 pd lowpass;
#X obj 80 267 r \$0-vel-cym;
#X obj 80 355 pow;
#X msg 80 333 2 \$1;
#X obj 80 377 * 40;
#X msg 80 399 \$1 1;
#X obj 80 421 line~;
#X msg 120 311 1 \$1;
#X obj 120 333 -;
#X msg 120 399 \$1 1;
#X obj 120 421 line~;
#X obj 166 433 *~;
#X obj 295 328 * -9;
#X obj 295 306 pow 2;
#X obj 419 305 +~;
#X obj 419 283 *~ 0.9;
#X obj 476 283 *~ 0.1;
#X obj 476 261 pow~ 1.85;
#X obj 419 261 pow~ 6.7;
#X obj 419 349 *~;
#X obj 351 366 *~;
#X obj 166 349 pow~;
#X obj 268 332 + 1;
#X obj 268 310 * 3;
#X obj 544 156 r \$0-vel-cym;
#X msg 544 178 1 \$1;
#X obj 544 200 -;
#X obj 544 266 + 100;
#X obj 544 288 dbtorms;
#X msg 544 310 \$1 1;
#X obj 544 332 line~;
#X obj 80 289 * 4;
#X obj 80 311 + 5;
#X obj 351 344 hip~ 1000;
#X obj 353 444 clip~ -1 1;
#X obj 12 184 bp~ 3462 0.3;
#X obj 12 394 hip~ 1000;
#X obj 12 416 hip~ 1000;
#X obj 351 388 *~;
#N canvas 92 117 273 194 comb 0;
#X obj 12 11 inlet~;
#X obj 12 119 -~;
#X obj 12 146 outlet~;
#X obj 62 92 *~;
#X obj 148 75 clip~ 0 0.999;
#X obj 148 53 inlet~ feedback;
#X obj 148 26 block~ 1;
#X obj 62 65 vd~ \$0-del-1;
#X obj 62 11 inlet~ delay;
#X obj 78 136 delwrite~ \$0-del-1 100;
#X obj 62 38 min~ 100;
#X connect 0 0 1 0;
#X connect 1 0 2 0;
#X connect 1 0 9 0;
#X connect 3 0 1 1;
#X connect 4 0 3 1;
#X connect 5 0 4 0;
#X connect 7 0 3 0;
#X connect 8 0 10 0;
#X connect 10 0 7 0;
#X restore 436 489 pd comb;
#X obj 455 467 sig~;
#N canvas 0 22 273 194 comb 0;
#X obj 12 11 inlet~;
#X obj 12 119 -~;
#X obj 12 146 outlet~;
#X obj 62 92 *~;
#X obj 148 75 clip~ 0 0.999;
#X obj 148 53 inlet~ feedback;
#X obj 148 26 block~ 1;
#X obj 62 11 inlet~ delay;
#X obj 62 38 min~ 100;
#X obj 78 136 delwrite~ \$0-del-2 100;
#X obj 62 65 vd~ \$0-del-2;
#X connect 0 0 1 0;
#X connect 1 0 2 0;
#X connect 1 0 9 0;
#X connect 3 0 1 1;
#X connect 4 0 3 1;
#X connect 5 0 4 0;
#X connect 7 0 8 0;
#X connect 8 0 10 0;
#X connect 10 0 3 0;
#X restore 496 489 pd comb;
#X obj 515 467 sig~;
#N canvas 0 22 273 194 comb 0;
#X obj 12 11 inlet~;
#X obj 12 119 -~;
#X obj 12 146 outlet~;
#X obj 62 92 *~;
#X obj 148 75 clip~ 0 0.999;
#X obj 148 53 inlet~ feedback;
#X obj 148 26 block~ 1;
#X obj 62 11 inlet~ delay;
#X obj 62 38 min~ 100;
#X obj 78 136 delwrite~ \$0-del-3 100;
#X obj 62 65 vd~ \$0-del-3;
#X connect 0 0 1 0;
#X connect 1 0 2 0;
#X connect 1 0 9 0;
#X connect 3 0 1 1;
#X connect 4 0 3 1;
#X connect 5 0 4 0;
#X connect 7 0 8 0;
#X connect 8 0 10 0;
#X connect 10 0 3 0;
#X restore 556 489 pd comb;
#X obj 575 467 sig~;
#N canvas 0 22 273 194 comb 0;
#X obj 12 11 inlet~;
#X obj 12 119 -~;
#X obj 12 146 outlet~;
#X obj 62 92 *~;
#X obj 148 75 clip~ 0 0.999;
#X obj 148 53 inlet~ feedback;
#X obj 148 26 block~ 1;
#X obj 62 11 inlet~ delay;
#X obj 62 38 min~ 100;
#X obj 78 136 delwrite~ \$0-del-4 100;
#X obj 62 65 vd~ \$0-del-4;
#X connect 0 0 1 0;
#X connect 1 0 2 0;
#X connect 1 0 9 0;
#X connect 3 0 1 1;
#X connect 4 0 3 1;
#X connect 5 0 4 0;
#X connect 7 0 8 0;
#X connect 8 0 10 0;
#X connect 10 0 3 0;
#X restore 616 489 pd comb;
#X obj 635 467 sig~;
#N canvas 0 22 273 194 comb 0;
#X obj 12 11 inlet~;
#X obj 12 119 -~;
#X obj 12 146 outlet~;
#X obj 62 92 *~;
#X obj 148 75 clip~ 0 0.999;
#X obj 148 53 inlet~ feedback;
#X obj 148 26 block~ 1;
#X obj 62 11 inlet~ delay;
#X obj 62 38 min~ 100;
#X obj 78 136 delwrite~ \$0-del-5 100;
#X obj 62 65 vd~ \$0-del-5;
#X connect 0 0 1 0;
#X connect 1 0 2 0;
#X connect 1 0 9 0;
#X connect 3 0 1 1;
#X connect 4 0 3 1;
#X connect 5 0 4 0;
#X connect 7 0 8 0;
#X connect 8 0 10 0;
#X connect 10 0 3 0;
#X restore 676 489 pd comb;
#X obj 695 467 sig~;
#N canvas 0 22 273 194 comb 0;
#X obj 12 11 inlet~;
#X obj 12 119 -~;
#X obj 12 146 outlet~;
#X obj 62 92 *~;
#X obj 148 75 clip~ 0 0.999;
#X obj 148 53 inlet~ feedback;
#X obj 148 26 block~ 1;
#X obj 62 11 inlet~ delay;
#X obj 62 38 min~ 100;
#X obj 78 136 delwrite~ \$0-del-6 100;
#X obj 62 65 vd~ \$0-del-6;
#X connect 0 0 1 0;
#X connect 1 0 2 0;
#X connect 1 0 9 0;
#X connect 3 0 1 1;
#X connect 4 0 3 1;
#X connect 5 0 4 0;
#X connect 7 0 8 0;
#X connect 8 0 10 0;
#X connect 10 0 3 0;
#X restore 736 490 pd comb;
#X obj 736 512 /~ 6;
#X obj 755 468 sig~;
#X msg 807 450 \$1 20;
#X obj 807 472 line~;
#X obj 600 261 / 127;
#X obj 600 283 pow 0.125;
#X obj 600 327 dbtorms;
#X obj 600 371 line~;
#X msg 600 349 \$1 10;
#X obj 600 305 * 91;
#X obj 807 362 / 127;
#X obj 807 406 * 0.099;
#X obj 807 428 + 0.9;
#X obj 807 384 sqrt;
#X obj 351 322 pow~ 8;
#X obj 36 239 / 127;
#X msg 36 283 2 \$1;
#X obj 36 305 pow;
#X obj 36 327 * 500;
#X obj 36 261 * 4;
#X obj 223 90 / 127;
#X obj 223 156 pow;
#X obj 223 68 r \$0-snd-cym-0;
#X msg 223 134 10 \$1;
#X obj 223 112 * 3;
#N canvas 633 38 388 273 hv.vline 0;
#X obj 12 12 inlet;
#X obj 69 116 unpack f f f;
#X obj 69 67 t a b;
#X msg 87 91 0;
#X text 120 92 Default to zero delay if 2 args supplied;
#X obj 12 225 outlet~;
#X obj 12 34 route stop;
#X msg 12 126 stop;
#X obj 12 56 t b b;
#X msg 25 94 clear;
#N canvas 274 138 360 214 dbl-pipe 0;
#X obj 65 42 inlet;
#X obj 125 42 inlet;
#X obj 185 42 inlet;
#X obj 65 84 pipe 0;
#X obj 125 84 pipe 0;
#X obj 65 106 outlet;
#X obj 125 106 outlet;
#X connect 0 0 3 0;
#X connect 0 0 4 0;
#X connect 1 0 4 0;
#X connect 2 0 3 1;
#X connect 2 0 4 1;
#X connect 3 0 5 0;
#X connect 4 0 6 0;
#X restore 69 144 pd dbl-pipe;
#X obj 69 168 pack f f;
#X obj 12 203 line~;
#X connect 0 0 6 0;
#X connect 1 0 10 0;
#X connect 1 1 10 1;
#X connect 1 2 10 2;
#X connect 2 0 1 0;
#X connect 2 1 3 0;
#X connect 3 0 10 2;
#X connect 6 0 8 0;
#X connect 6 1 2 0;
#X connect 7 0 12 0;
#X connect 8 0 7 0;
#X connect 8 1 9 0;
#X connect 9 0 10 0;
#X connect 9 0 10 1;
#X connect 10 0 11 0;
#X connect 10 1 11 1;
#X connect 11 0 12 0;
#X connect 12 0 5 0;
#X restore 166 261 pd hv.vline;
#X obj 223 178 + 2;
#X msg 166 239 1 \$2 \, 0 50 \$3;
#X obj 807 340 r \$0-snd-cym-1;
#X obj 36 217 r \$0-snd-cym-3;
#X obj 600 239 r \$0-snd-cym-2;
#X obj 316 73 / 127;
#X msg 316 139 2 \$1;
#X obj 316 161 pow;
#X obj 316 183 * 20;
#X obj 316 117 + 3;
#X obj 316 95 * 5;
#X obj 316 51 r \$0-snd-cym-1;
#N canvas 633 38 388 273 hv.vline 0;
#X obj 12 12 inlet;
#X obj 69 116 unpack f f f;
#X obj 69 67 t a b;
#X msg 87 91 0;
#X text 120 92 Default to zero delay if 2 args supplied;
#X obj 12 225 outlet~;
#X obj 12 34 route stop;
#X msg 12 126 stop;
#X obj 12 56 t b b;
#X msg 25 94 clear;
#N canvas 274 138 360 214 dbl-pipe 0;
#X obj 65 42 inlet;
#X obj 125 42 inlet;
#X obj 185 42 inlet;
#X obj 65 84 pipe 0;
#X obj 125 84 pipe 0;
#X obj 65 106 outlet;
#X obj 125 106 outlet;
#X connect 0 0 3 0;
#X connect 0 0 4 0;
#X connect 1 0 4 0;
#X connect 2 0 3 1;
#X connect 2 0 4 1;
#X connect 3 0 5 0;
#X connect 4 0 6 0;
#X restore 69 144 pd dbl-pipe;
#X obj 69 168 pack f f;
#X obj 12 203 line~;
#X connect 0 0 6 0;
#X connect 1 0 10 0;
#X connect 1 1 10 1;
#X connect 1 2 10 2;
#X connect 2 0 1 0;
#X connect 2 1 3 0;
#X connect 3 0 10 2;
#X connect 6 0 8 0;
#X connect 6 1 2 0;
#X connect 7 0 12 0;
#X connect 8 0 7 0;
#X connect 8 1 9 0;
#X connect 9 0 10 0;
#X connect 9 0 10 1;
#X connect 10 0 11 0;
#X connect 10 1 11 1;
#X connect 11 0 12 0;
#X connect 12 0 5 0;
#X restore 419 239 pd hv.vline;
#X obj 166 200 pack f f f f;
#X msg 419 217 1 \$2 \, 0 \$4 \$3;
#X msg 863 384 210.2 320.09 379.973 539.95 549.5 799.957;
#X obj 459 595 *~ 0.5;
#X obj 544 244 * -15;
#X obj 544 222 sqrt;
#X obj 120 355 * 3.5;
#X obj 863 406 unpack f f f f f f;
#X obj 863 367 loadbang;
#X msg 455 423 1000 \$1;
#X msg 515 423 1000 \$1;
#X msg 575 423 1000 \$1;
#X msg 635 423 1000 \$1;
#X msg 695 423 1000 \$1;
#X msg 755 424 1000 \$1;
#X obj 616 511 /~ 6;
#X obj 676 511 /~ 6;
#X obj 436 511 /~ 12;
#X obj 556 511 /~ 6;
#X obj 496 511 /~ 6;
#X obj 459 634 outlet~;
#X obj 12 73 sel 0;
#X obj 12 95 t b f;
#X obj 12 117 s \$0-trg-cym;
#X obj 93 112 - 1;
#X obj 93 134 / 126;
#X obj 695 163 route attack decay noise highpass;
#X obj 695 317 clip 0 127;
#X obj 695 339 s \$0-snd-cym-0;
#X obj 743 273 clip 0 127;
#X obj 792 229 clip 0 127;
#X obj 743 295 s \$0-snd-cym-1;
#X obj 792 251 s \$0-snd-cym-2;
#X obj 841 185 clip 0 127;
#X obj 841 207 s \$0-snd-cym-3;
#X obj 925 357 inlet tuning;
#X obj 12 29 inlet trigger/velocity;
#X obj 695 141 inlet parameters;
#X text 455 403 //Hz to ms;
#X text 243 38 //ATTACK;
#X text 80 237 //LPF VEL;
#X text 419 197 //NOISE ENV;
#X text 600 209 //NOISE AMP;
#X text 12 458 //RESONANT LPF;
#X text 346 489 //COMB FILTERS;
#X text 807 320 //DECAY-FEEDBACK;
#X text 448 65 Miguel Moreno 2018;
#X text 12 9 //INLET 1: Trigger/Velocity;
#X text 695 121 //INLET 2: Parameters;
#X text 925 337 //INLET 3: Tuning;
#X text 448 80 Email: mianmogra94@gmail.com;
#X text 544 136 //AMP VEL -15–0 dB;
#X text 316 31 //DECAY 160–5120 ms;
#X text 243 53 //1–1000 ms;
#X text 176 219 //BURST ENV;
#X text 36 201 //HIGHPASS 500–8k Hz;
#X text 80 252 //1280–20k Hz;
#X text 295 220 //AMP VEL -9–0 dB;
#X text 600 224 //-100–-9 dB;
#X text 448 95 GitHub: github.com/MikeMorenoAudio;
#X text 678 50 Facebook: fb.com/MikeMorenoAudio;
#X text 678 65 Youtube: youtube.com/user/Lehjiot;
#X text 678 80 WordPress: mikemorenoaudio.wordpress.com;
#X text 678 95 PatchStorage: patchstorage.com/author/mianmogra;
#X text 448 45 COMB CYMBAL v1;
#X obj 907 124 loadbang;
#X msg 907 146 0 120 64 64;
#X obj 907 168 unpack f f f f;
#X obj 93 156 s \$0-vel-cym;
#X obj 12 51 clip 0 127;
#X connect 0 0 61 0;
#X connect 1 0 42 0;
#X connect 2 0 1 0;
#X connect 3 0 1 1;
#X connect 4 0 3 0;
#X connect 5 0 2 0;
#X connect 6 0 56 0;
#X connect 6 0 85 0;
#X connect 7 0 55 0;
#X connect 8 0 63 0;
#X connect 9 0 65 0;
#X connect 10 0 67 0;
#X connect 11 0 69 0;
#X connect 12 0 72 0;
#X connect 13 0 14 0;
#X connect 14 0 15 0;
#X connect 15 0 34 0;
#X connect 15 0 44 0;
#X connect 16 0 17 0;
#X connect 17 0 18 0;
#X connect 18 0 19 0;
#X connect 19 0 32 1;
#X connect 20 0 110 0;
#X connect 21 0 7 0;
#X connect 22 0 28 0;
#X connect 22 0 52 0;
#X connect 23 0 25 0;
#X connect 24 0 23 0;
#X connect 25 0 26 0;
#X connect 26 0 27 0;
#X connect 27 0 21 1;
#X connect 28 0 29 0;
#X connect 29 0 116 0;
#X connect 30 0 31 0;
#X connect 31 0 21 2;
#X connect 32 0 7 1;
#X connect 33 0 16 0;
#X connect 34 0 33 0;
#X connect 35 0 40 0;
#X connect 36 0 35 0;
#X connect 37 0 35 1;
#X connect 38 0 37 0;
#X connect 39 0 36 0;
#X connect 40 0 41 1;
#X connect 41 0 59 0;
#X connect 42 0 32 0;
#X connect 43 0 42 1;
#X connect 44 0 43 0;
#X connect 45 0 46 0;
#X connect 46 0 47 0;
#X connect 47 0 115 0;
#X connect 48 0 49 0;
#X connect 49 0 50 0;
#X connect 50 0 51 0;
#X connect 51 0 40 1;
#X connect 52 0 53 0;
#X connect 53 0 24 0;
#X connect 54 0 41 0;
#X connect 55 0 60 0;
#X connect 55 0 62 0;
#X connect 55 0 64 0;
#X connect 55 0 66 0;
#X connect 55 0 68 0;
#X connect 55 0 70 0;
#X connect 56 0 57 0;
#X connect 57 0 58 0;
#X connect 58 0 21 0;
#X connect 59 0 55 0;
#X connect 60 0 127 0;
#X connect 61 0 60 1;
#X connect 62 0 129 0;
#X connect 63 0 62 1;
#X connect 64 0 128 0;
#X connect 65 0 64 1;
#X connect 66 0 125 0;
#X connect 67 0 66 1;
#X connect 68 0 126 0;
#X connect 69 0 68 1;
#X connect 70 0 71 0;
#X connect 71 0 113 0;
#X connect 72 0 70 1;
#X connect 73 0 74 0;
#X connect 74 0 70 2;
#X connect 74 0 68 2;
#X connect 74 0 66 2;
#X connect 74 0 64 2;
#X connect 74 0 62 2;
#X connect 74 0 60 2;
#X connect 75 0 76 0;
#X connect 76 0 80 0;
#X connect 77 0 79 0;
#X connect 78 0 59 1;
#X connect 79 0 78 0;
#X connect 80 0 77 0;
#X connect 81 0 84 0;
#X connect 82 0 83 0;
#X connect 83 0 73 0;
#X connect 84 0 82 0;
#X connect 85 0 54 0;
#X connect 86 0 90 0;
#X connect 87 0 88 0;
#X connect 88 0 89 0;
#X connect 89 0 57 1;
#X connect 89 0 54 1;
#X connect 89 0 58 1;
#X connect 90 0 87 0;
#X connect 91 0 95 0;
#X connect 92 0 97 0;
#X connect 92 0 110 1;
#X connect 93 0 91 0;
#X connect 94 0 92 0;
#X connect 95 0 94 0;
#X connect 96 0 5 0;
#X connect 96 0 4 0;
#X connect 97 0 110 2;
#X connect 98 0 96 0;
#X connect 99 0 81 0;
#X connect 100 0 86 0;
#X connect 101 0 75 0;
#X connect 102 0 107 0;
#X connect 103 0 104 0;
#X connect 104 0 105 0;
#X connect 105 0 110 3;
#X connect 106 0 103 0;
#X connect 107 0 106 0;
#X connect 108 0 102 0;
#X connect 109 0 39 0;
#X connect 109 0 38 0;
#X connect 110 0 98 0;
#X connect 110 0 111 0;
#X connect 111 0 109 0;
#X connect 112 0 117 0;
#X connect 113 0 130 0;
#X connect 114 0 48 0;
#X connect 115 0 114 0;
#X connect 116 0 30 0;
#X connect 117 0 119 0;
#X connect 117 1 120 0;
#X connect 117 2 121 0;
#X connect 117 3 122 0;
#X connect 117 4 123 0;
#X connect 117 5 124 0;
#X connect 118 0 112 0;
#X connect 119 0 0 0;
#X connect 120 0 8 0;
#X connect 121 0 9 0;
#X connect 122 0 10 0;
#X connect 123 0 11 0;
#X connect 124 0 12 0;
#X connect 125 0 113 0;
#X connect 126 0 113 0;
#X connect 127 0 113 0;
#X connect 128 0 113 0;
#X connect 129 0 113 0;
#X connect 131 1 132 0;
#X connect 132 0 133 0;
#X connect 132 1 134 0;
#X connect 134 0 135 0;
#X connect 135 0 178 0;
#X connect 136 0 137 0;
#X connect 136 1 139 0;
#X connect 136 2 140 0;
#X connect 136 3 143 0;
#X connect 137 0 138 0;
#X connect 139 0 141 0;
#X connect 140 0 142 0;
#X connect 143 0 144 0;
#X connect 145 0 117 0;
#X connect 146 0 179 0;
#X connect 147 0 136 0;
#X connect 175 0 176 0;
#X connect 176 0 177 0;
#X connect 177 0 137 0;
#X connect 177 1 139 0;
#X connect 177 2 140 0;
#X connect 177 3 143 0;
#X connect 177 3 143 1;
#X connect 179 0 131 0;
#X restore 70 515 pd cmbcym;
#X obj 69 620 outlet~;
#X obj 621 176 hsl 128 15 0 127 0 1 \$0-noise-s \$0-noise-r NOISE 133 7 0 10 #fcfcfc #000000 #000000 12700 1;
#X obj 621 191 hsl 128 15 0 127 0 1 \$0-noise-cv-s \$0-noise-cv-r NS-/+ 133 7 0 10 #90d3b0 #000000 #000000 4600 1;
#X obj 800 478 pack f f f f f f;
#X obj 799 331 hsl 136 16 0 127 0 0 empty empty empty -2 -8 0 10 #fcfcfc #000000 #000000 0 1;
#X obj 796 352 * 10;
#X obj 831 353 hsl 136 16 0 127 0 0 empty empty empty -2 -8 0 10 #fcfcfc #000000 #000000 0 1;
#X obj 828 374 * 10;
#X obj 865 375 hsl 136 16 0 127 0 0 empty empty empty -2 -8 0 10 #fcfcfc #000000 #000000 0 1;
#X obj 862 396 * 10;
#X obj 897 397 hsl 136 16 0 127 0 0 empty empty empty -2 -8 0 10 #fcfcfc #000000 #000000 0 1;
#X obj 894 418 * 10;
#X obj 931 419 hsl 136 16 0 127 0 0 empty empty empty -2 -8 0 10 #fcfcfc #000000 #000000 0 1;
#X obj 928 440 * 10;
#X obj 963 441 hsl 136 16 0 127 0 0 empty empty empty -2 -8 0 10 #fcfcfc #000000 #000000 0 1;
#X obj 960 462 * 10;
#X obj 827 594 t b;
#X obj 110 547 *~;
#N canvas 0 22 462 312 rh_scalelog 0;
#X obj 20 155 exp;
#X obj 20 107 *;
#X obj 20 130 +;
#X obj 98 87 log;
#X obj 194 84 log;
#X obj 123 123 t b f;
#X obj 123 145 -;
#X obj 20 183 outlet;
#X obj 20 19 inlet;
#X obj 98 23 inlet;
#X obj 194 24 inlet;
#X connect 0 0 7 0;
#X connect 1 0 2 0;
#X connect 2 0 0 0;
#X connect 3 0 2 1;
#X connect 3 0 5 0;
#X connect 4 0 6 0;
#X connect 5 0 6 0;
#X connect 5 1 6 1;
#X connect 6 0 1 1;
#X connect 8 0 1 0;
#X connect 9 0 3 0;
#X connect 10 0 4 0;
#X restore 299 549 pd rh_scalelog;
#X msg 339 526 1;
#X obj 339 504 loadbang;
#X obj 265 288 / 127;
#X msg 380 527 0.6;
#X obj 619 95 loadbang;
#X msg 619 116 0;
#X obj 618 138 loadbang;
#X msg 618 157 127;
#X obj 68 11 inlet;
#X obj 207 11 inlet;
#X obj 325 13 inlet;
#X obj 449 13 inlet;
#X obj 567 15 inlet;
#X text 1133 103 INLET 1: Trigger / Velocity;
#X text 1143 171 - DECAY: controls the decay for the noise env;
#X text 1133 256 INLET 3: Tuning;
#X text 1143 271 A list of 6 numbers to tune each comb filter (in Hz).;
#X text 1143 286 Default: 210.2 320.09 379.973 539.95 549.5 799.957;
#X text 1143 231 Default: 0 120 64 64;
#X text 1143 118 Trigger the cymbal by sending a number from 1 to 127;
#X text 1143 216 - HIGHPASS: Controls de cutoff freq.;
#X text 1143 201 - NOISE: controls the amount of noise.;
#X text 1143 186 and comb feedback.;
#X text 1143 155 - ATTACK: controls the attack for the burst env.;
#X text 1142 338 Miguel Moreno 2018;
#X text 1142 353 Email: mianmogra94@gmail.com;
#X text 1142 368 GitHub: github.com/MikeMorenoAudio;
#X text 1142 393 Facebook: fb.com/MikeMorenoAudio;
#X text 1142 423 WordPress: mikemorenoaudio.wordpress.com;
#X text 1142 438 PatchStorage: patchstorage.com/author/mianmogra;
#X text 1142 318 COMB CYMBAL v1;
#X text 1133 43 COMB CYMBAL;
#X text 1143 58 A Cymbal consisting of 6 comb filters with high feedback;
#X text 1143 73 and a noise impulse with velocity response.;
#X text 1133 139 INLET 2: Parameters (0-127);
#X text 1142 408 Youtube: youtube.com/c/mikemorenoaudio;
#X obj 10 85 unpack;
#X obj 10 111 stripnote;
#X obj 10 134 bng 16 250 50 0 empty empty empty 0 -8 0 10 #fcfcfc #000000 #000000;
#X floatatom 67 132 5 0 0 0 - - - 0;
#X connect 0 0 1 0;
#X connect 1 0 29 0;
#X connect 2 0 28 0;
#X connect 3 0 4 0;
#X connect 4 0 2 1;
#X connect 7 0 8 0;
#X connect 8 0 28 1;
#X connect 9 0 10 0;
#X connect 10 0 28 1;
#X connect 11 0 12 0;
#X connect 12 0 28 1;
#X connect 13 0 28 1;
#X connect 14 0 13 0;
#X connect 15 0 50 0;
#X connect 21 0 22 0;
#X connect 22 0 28 2;
#X connect 23 0 21 0;
#X connect 23 1 27 0;
#X connect 23 2 24 0;
#X connect 23 3 25 0;
#X connect 24 0 22 0;
#X connect 25 0 22 0;
#X connect 27 0 22 0;
#X connect 28 0 46 0;
#X connect 30 0 17 0;
#X connect 32 0 22 0;
#X connect 33 0 34 0;
#X connect 34 0 32 0;
#X connect 35 0 36 0;
#X connect 36 0 32 1;
#X connect 36 0 45 0;
#X connect 37 0 38 0;
#X connect 38 0 32 2;
#X connect 38 0 45 0;
#X connect 39 0 40 0;
#X connect 40 0 32 3;
#X connect 40 0 45 0;
#X connect 41 0 42 0;
#X connect 42 0 32 4;
#X connect 42 0 45 0;
#X connect 43 0 44 0;
#X connect 44 0 32 5;
#X connect 44 0 45 0;
#X connect 45 0 32 0;
#X connect 46 0 0 0;
#X connect 47 0 46 1;
#X connect 48 0 47 1;
#X connect 49 0 48 0;
#X connect 49 0 51 0;
#X connect 50 0 47 0;
#X connect 51 0 47 2;
#X connect 52 0 53 0;
#X connect 53 0 19 0;
#X connect 54 0 55 0;
#X connect 55 0 30 0;
#X connect 56 0 84 0;
#X connect 57 0 5 0;
#X connect 58 0 15 0;
#X connect 84 0 85 0;
#X connect 84 1 85 1;
#X connect 85 0 86 0;
#X connect 85 1 87 0;
#X connect 87 0 2 0;
#X restore 1005 232 pd dsp;
#X f 21;
#X text 491 227 <--rename labels here;
#X text 521 247 <--modules values are saved here;
#X text 492 265 <--Opens the Options-Subpatch;
#X obj 340 515 s \$0-param-1-t;
#X msg 340 496 symbol \$1%;
#X obj 340 438 / 1.27;
#X floatatom 340 457 5 0 0 0 - - - 0;
#X obj 340 477 i;
#X obj 340 339 s \$0-a;
#X obj 394 339 s \$0-b;
#X obj 448 339 s \$0-c;
#X obj 503 339 s \$0-d;
#X obj 557 338 s \$0-e;
#X obj 612 338 s \$0-f;
#X obj 666 337 s \$0-g;
#X obj 721 337 s \$0-h;
#X text 766 337 <--these go to the dsp-object;
#X text 441 185 <--receives encoder messages from mother.pd;
#X text 441 165 <--sends display info to mother.pd;
#X text 451 205 <--checks menu and if module is "active";
#X text 737 310 <--receives audio + message for mod;
#X obj 340 417 r \$0-param-1-s;
#X msg 436 496 symbol \$1%;
#X obj 436 438 / 1.27;
#X floatatom 436 457 5 0 0 0 - - - 0;
#X obj 436 477 i;
#X obj 436 417 r \$0-param-2-s;
#X obj 436 515 s \$0-param-2-t;
#X msg 534 495 symbol \$1%;
#X obj 534 437 / 1.27;
#X floatatom 534 456 5 0 0 0 - - - 0;
#X obj 534 476 i;
#X obj 534 416 r \$0-param-3-s;
#X obj 534 514 s \$0-param-3-t;
#X msg 634 495 symbol \$1%;
#X obj 634 437 / 1.27;
#X floatatom 634 456 5 0 0 0 - - - 0;
#X obj 634 476 i;
#X obj 634 416 r \$0-param-4-s;
#X obj 634 514 s \$0-param-4-t;
#X msg 340 636 symbol \$1%;
#X obj 340 578 / 1.27;
#X floatatom 340 597 5 0 0 0 - - - 0;
#X obj 340 617 i;
#X msg 436 636 symbol \$1%;
#X obj 436 578 / 1.27;
#X floatatom 436 597 5 0 0 0 - - - 0;
#X obj 436 617 i;
#X msg 534 635 symbol \$1%;
#X obj 534 577 / 1.27;
#X floatatom 534 596 5 0 0 0 - - - 0;
#X obj 534 616 i;
#X msg 634 635 symbol \$1%;
#X obj 634 577 / 1.27;
#X floatatom 634 596 5 0 0 0 - - - 0;
#X obj 634 616 i;
#X obj 340 557 r \$0-param-5-s;
#X obj 340 655 s \$0-param-5-t;
#X obj 436 557 r \$0-param-6-s;
#X obj 436 655 s \$0-param-6-t;
#X obj 534 556 r \$0-param-7-s;
#X obj 534 654 s \$0-param-7-t;
#X obj 634 556 r \$0-param-8-s;
#X obj 634 654 s \$0-param-8-t;
#X obj 341 165 core_display \$0;
#X obj 341 185 core_encoder \$0;
#X obj 341 206 core_main_menu \$0;
#X obj 341 227 core_module_settings \$0;
#X obj 340 311 core_modulation_receiver \$0, f 64;
#X text 340 144 Modul Core:;
#X text 338 393 Value Display Representation:;
#X obj 342 118 text define -k \$0-modul-settings;
#A set CYMBL \; ATTACK \; DECAY \; EMPTY \; EMPTY \; EMPTY \; EMPTY \; EMPTY \; EMPTY \; SRC \; 8 \; #2a74d9 \; #1f63cc \; #0f4faf \; #39527a \; #2967b8 \; #2a3e57 \; #8aa6c8 \; #b7cce0 \;;
#N canvas 324 349 425 350 info 0;
#X text 23 12 This textfile contains all necessery names of the module and the names of the gui (faders etc.). This way its much easier to change the names of all elements simply by editing the text object.;
#X text 25 93 The Order of the file \; 0=Modul-Name \; 1=Name Param1 - write non if unused \; 2=Name Param2 \; 3=Name Param3 \; 4=Name Param4 \; 5=Name Param5 \; 6=Name Param6 \; 7=Name Param7 \; 8=Name Param8 \; 9=Type of Module (SRC \, MOD \, LFO \, EFX etc) \; 10=Number of used Parameters (1-8) \; 11=Color of Param1-Circle 12=Color of Param2-Circle \; 13=Color of Param3-Circle \; 14=Color of Param4-Circle \; 15=Color of Param5-Circle \; 16=Color of Param6-Circle \; 17=Color of Param7-Circle \; 18=Color of Param8-Circle \; ....;
#X restore 564 117 pd info;
#X text 542 117 ->;
#X text 340 97 Parameter-Values + Names + Colors:;
#X obj 137 190 hsl 128 15 0 127 0 1 \$0-param-2-s \$0-param-2-r DECAY 133 7 0 10 #1f63cc #000000 #000000 1 1;
#X obj 137 159 hsl 128 15 0 127 0 1 \$0-param-1-s \$0-param-1-r ATTACK 133 7 0 10 #2a74d9 #000000 #000000 1 1;
#X obj 199 119 cnv 5 5 5 empty empty MOD1 0 0 0 8 #fcfcfc #404040 0;
#X obj 298 118 cnv 5 5 5 empty empty MOD2 0 0 0 8 #fcfcfc #404040 0;
#X obj 1006 350 clip~ -1 1;
#X obj 1006 370 hip~ 3;
#X obj 1006 390 outlet~;
#X obj 1072 94 r \$0-a;
#X obj 1116 94 r \$0-b;
#X obj 1160 95 r \$0-c;
#X obj 1203 95 r \$0-d;
#X obj 1170 150 * 127;
#X obj 1130 150 * 127;
#X obj 1116 116 * 127;
#X obj 1076 116 * 127;
#X obj 1272 98 inlet~;
#X obj 1392 98 inlet~;
#X obj 1272 188 throw~ \$0-mod1;
#X obj 1392 187 throw~ \$0-mod2;
#X text 1270 81 MOD1;
#X text 1390 81 MOD2;
#X obj 137 174 hsl 61 8 0 127 0 1 \$0-param-9-s \$0-param-9-r empty 133 7 0 10 #606060 #000000 #000000 1 1;
#X obj 204 174 hsl 61 8 0 127 0 1 \$0-param-17-s \$0-param-17-r empty 133 7 0 10 #7c7c7c #000000 #000000 1 1;
#X obj 137 205 hsl 61 8 0 127 0 1 \$0-param-10-s \$0-param-10-r empty 133 7 0 10 #606060 #000000 #000000 1 1;
#X obj 204 205 hsl 61 8 0 127 0 1 \$0-param-18-s \$0-param-18-r empty 133 7 0 10 #7c7c7c #000000 #000000 1 1;
#X obj 340 288 core_mod_display \$0;
#X obj 900 232 r CYMBL\$1;
#X obj 341 266 core_options \$0 \$1 \$2 \$3;
#X obj 341 247 core_state_saving \$0 \$1 \$2 \$3;
#X connect 4 0 6 0;
#X connect 6 0 86 0;
#X connect 11 0 10 0;
#X connect 12 0 13 0;
#X connect 13 0 14 0;
#X connect 14 0 11 0;
#X connect 28 0 12 0;
#X connect 29 0 34 0;
#X connect 30 0 31 0;
#X connect 31 0 32 0;
#X connect 32 0 29 0;
#X connect 33 0 30 0;
#X connect 35 0 40 0;
#X connect 36 0 37 0;
#X connect 37 0 38 0;
#X connect 38 0 35 0;
#X connect 39 0 36 0;
#X connect 41 0 46 0;
#X connect 42 0 43 0;
#X connect 43 0 44 0;
#X connect 44 0 41 0;
#X connect 45 0 42 0;
#X connect 47 0 64 0;
#X connect 48 0 49 0;
#X connect 49 0 50 0;
#X connect 50 0 47 0;
#X connect 51 0 66 0;
#X connect 52 0 53 0;
#X connect 53 0 54 0;
#X connect 54 0 51 0;
#X connect 55 0 68 0;
#X connect 56 0 57 0;
#X connect 57 0 58 0;
#X connect 58 0 55 0;
#X connect 59 0 70 0;
#X connect 60 0 61 0;
#X connect 61 0 62 0;
#X connect 62 0 59 0;
#X connect 63 0 48 0;
#X connect 65 0 52 0;
#X connect 67 0 56 0;
#X connect 69 0 60 0;
#X connect 75 0 15 0;
#X connect 75 1 16 0;
#X connect 75 2 17 0;
#X connect 75 3 18 0;
#X connect 75 4 19 0;
#X connect 75 5 20 0;
#X connect 75 6 21 0;
#X connect 75 7 22 0;
#X connect 86 0 87 0;
#X connect 87 0 88 0;
#X connect 89 0 96 0;
#X connect 90 0 95 0;
#X connect 91 0 94 0;
#X connect 92 0 93 0;
#X connect 93 0 6 4;
#X connect 94 0 6 3;
#X connect 95 0 6 2;
#X connect 96 0 6 1;
#X connect 97 0 99 0;
#X connect 98 0 100 0;
#X coords 0 -1 1 1 220 270 1 100 100;
