#N canvas 0 45 1340 769 10;
#X obj 105 115 bng 15 50 50 0 empty empty empty 17 7 0 10 #fcfcfc #dc4c90 #000000;
#X obj 135 124 cnv 5 5 5 empty empty DIET-SIMPLER 0 0 0 12 #fcfcfc #404040 0;
#X obj 197 109 cnv 5 5 5 empty empty DECAY 0 0 0 8 #ffffff #2f004d 0;
#X obj 223 124 cnv 5 5 5 empty \$0-instance-num 1 0 0 0 12 #fcfcfc #404040 0;
#X obj 1345 -65 inlet~ FILE-CV;
#X obj 1345 -43 s~ \$0-sampler-file-cv;
#X obj 297 109 cnv 5 5 5 empty empty FILE 0 0 0 8 #fcfcfc #404040 0;
#N canvas 441 54 771 725 state-saving-multiple-instances 0;
#X obj 164 26 loadbang;
#X obj 440 519 textfile;
#X msg 721 502 rewind;
#X msg 678 502 bang;
#X obj 51 752 textfile;
#X obj 678 461 t b b;
#X obj 88 355 f;
#X obj 52 308 t b b b;
#X msg 329 556 clear;
#X obj 230 215 outlet;
#X text 272 217 INSTANCE NUMBER;
#X obj 191 180 t f f f;
#X obj 191 144 f \$1;
#X obj 164 59 t b b;
#X obj 52 284 bng 15 250 50 0 empty empty empty 17 7 0 10 #fcfcfc #000000 #000000;
#X obj 52 140 r SAVE-S;
#X obj 103 275 r \$0-sample-player-file-s;
#X obj 439 758 s \$0-sample-player-file-r;
#X obj 227 29 r \$0-reload!;
#X obj 109 293 r \$0-banks-s;
#X obj 123 311 r \$0-swarm-vol-s;
#X obj 137 331 r \$0-swarm-intens-s;
#X obj 459 740 s \$0-banks-r;
#X obj 479 722 s \$0-swarm-vol-r;
#X obj 499 704 s \$0-swarm-intens-r;
#X obj 153 351 r \$0-attack-s;
#X obj 169 369 r \$0-decay-s;
#X obj 184 388 r \$0-sample-rate-s;
#X obj 496 357 r patch-path;
#X msg 440 416 read /Users/johannklug/Documents/Bass\ Dieter/2025/Diet/MODULAR_LIVE_\ PERFORMER/patch1/statesave/1-simpler-ss.txt;
#X obj 451 376 pack f s;
#X obj 440 335 f;
#X obj 440 356 t b f;
#X msg 450 395 set read \$2/statesave/\$1-simpler-ss.txt;
#X obj 122 20 bng 16 250 50 0 empty empty empty 0 -8 0 10 #fcfcfc #000000 #000000;
#X obj 107 583 r patch-path;
#X msg 51 642 write /Users/johannklug/Documents/Bass\ Dieter/2025/Diet/MODULAR_LIVE_\ PERFORMER/patch1/statesave/1-simpler-ss.txt;
#X obj 62 602 pack f s;
#X obj 51 561 f;
#X obj 51 582 t b f;
#X msg 61 621 set write \$2/statesave/\$1-simpler-ss.txt;
#X obj 519 685 s \$0-attack-r;
#X obj 539 667 s \$0-decay-r;
#X obj 559 649 s \$0-sample-rate-r;
#X obj 200 410 r \$0-noise-length-s;
#X obj 217 433 r \$0-noise-vol-s;
#X obj 599 606 s \$0-noise-vol-r;
#X obj 579 626 s \$0-noise-length-r;
#X msg 88 556 set \$1 \$2 \$3 \$4 \$5 \$6 \$7 \$8 \$9 \$10 \$11;
#X obj 88 508 pack f f f f f f f f f f f, f 27;
#X obj 440 541 unpack f f f f f f f f f f f, f 34;
#X obj 231 459 r \$0-main-menu-s;
#X obj 247 483 r \$0-sub-menu-s;
#X obj 620 586 s \$0-main-menu-r;
#X obj 641 566 s \$0-sub-menu-r;
#X connect 0 0 13 0;
#X connect 1 0 50 0;
#X connect 2 0 1 0;
#X connect 3 0 1 0;
#X connect 5 0 3 0;
#X connect 5 1 2 0;
#X connect 6 0 49 0;
#X connect 7 0 38 0;
#X connect 7 1 6 0;
#X connect 7 2 8 0;
#X connect 8 0 4 0;
#X connect 11 0 38 1;
#X connect 11 1 31 0;
#X connect 11 2 9 0;
#X connect 12 0 11 0;
#X connect 13 0 5 0;
#X connect 13 1 12 0;
#X connect 14 0 7 0;
#X connect 15 0 14 0;
#X connect 16 0 6 1;
#X connect 18 0 13 0;
#X connect 19 0 49 1;
#X connect 20 0 49 2;
#X connect 21 0 49 3;
#X connect 25 0 49 4;
#X connect 26 0 49 5;
#X connect 27 0 49 6;
#X connect 28 0 30 1;
#X connect 29 0 1 0;
#X connect 30 0 33 0;
#X connect 31 0 32 0;
#X connect 32 0 29 0;
#X connect 32 1 30 0;
#X connect 33 0 29 0;
#X connect 34 0 13 0;
#X connect 35 0 37 1;
#X connect 36 0 4 0;
#X connect 37 0 40 0;
#X connect 38 0 39 0;
#X connect 39 0 36 0;
#X connect 39 1 37 0;
#X connect 40 0 36 0;
#X connect 44 0 49 7;
#X connect 45 0 49 8;
#X connect 48 0 4 0;
#X connect 49 0 48 0;
#X connect 50 0 17 0;
#X connect 50 1 22 0;
#X connect 50 2 23 0;
#X connect 50 3 24 0;
#X connect 50 4 41 0;
#X connect 50 5 42 0;
#X connect 50 6 43 0;
#X connect 50 7 47 0;
#X connect 50 8 46 0;
#X connect 50 9 53 0;
#X connect 50 10 54 0;
#X connect 51 0 49 9;
#X connect 52 0 49 10;
#X restore 1496 14 pd state-saving-multiple-instances;
#X obj 1496 87 s \$0-instance-num;
#X obj 1496 39 makefilename %d;
#X msg 1496 64 label \$1;
#X obj 103 362 cnv 5 5 5 empty empty OUT 0 0 0 8 #fcfcfc #404040 0;
#N canvas 632 64 749 752 external-messages 0;
#X floatatom 43 604 5 0 0 0 - - - 0;
#X obj 185 328 spigot;
#X obj 218 288 tgl 15 0 empty empty empty 17 7 0 10 #fcfcfc #000000 #000000 0 1;
#X obj 254 272 ==;
#X obj 269 248 f \$1;
#X obj 269 224 loadbang;
#X msg 185 202 \$1 \$2;
#X msg 185 156 symbol \$1;
#X obj 185 180 pack s f;
#X obj 43 583 f;
#X obj 43 531 t b f;
#X obj 43 554 spigot;
#X obj 185 62 unpack s f f;
#X symbolatom 185 94 10 0 0 0 - - - 0;
#X obj 218 308 t f f;
#X obj 245 332 s \$0-msg-spigot;
#X obj 91 538 r \$0-msg-spigot;
#X floatatom 223 594 5 0 0 0 - - - 0;
#X obj 223 573 f;
#X obj 223 521 t b f;
#X obj 223 544 spigot;
#X obj 271 528 r \$0-msg-spigot;
#X floatatom 387 639 5 0 0 0 - - - 0;
#X obj 387 618 f;
#X obj 387 566 t b f;
#X obj 387 589 spigot;
#X obj 435 573 r \$0-msg-spigot;
#X floatatom 424 527 5 0 0 0 - - - 0;
#X obj 424 506 f;
#X obj 424 454 t b f;
#X obj 424 477 spigot;
#X obj 472 461 r \$0-msg-spigot;
#X floatatom 572 635 5 0 0 0 - - - 0;
#X obj 572 614 f;
#X obj 572 562 t b f;
#X obj 572 585 spigot;
#X obj 620 569 r \$0-msg-spigot;
#X obj 185 14 r sampler;
#X floatatom 588 486 5 0 0 0 - - - 0;
#X obj 588 465 f;
#X obj 588 413 t b f;
#X obj 588 436 spigot;
#X obj 636 420 r \$0-msg-spigot;
#X obj 43 624 s \$0-sample-player-file-r;
#X obj 223 614 s \$0-sample-player-pitch-r;
#X obj 387 659 s \$0-sample-player-pitch-cv-att-r;
#X obj 424 547 s \$0-sample-player-loop-r;
#X obj 185 380 route FILE PITCH P.CV LOOP ORIGINAL TRIG;
#X obj 572 655 s \$0-sampler-original-r;
#X obj 588 506 s \$0-sampler-triggui-r;
#X connect 0 0 43 0;
#X connect 1 0 47 0;
#X connect 2 0 14 0;
#X connect 3 0 2 0;
#X connect 4 0 3 1;
#X connect 5 0 4 0;
#X connect 6 0 1 0;
#X connect 7 0 8 0;
#X connect 8 0 6 0;
#X connect 9 0 0 0;
#X connect 10 0 11 0;
#X connect 10 1 9 1;
#X connect 11 0 9 0;
#X connect 12 0 13 0;
#X connect 12 1 8 1;
#X connect 12 2 3 0;
#X connect 13 0 7 0;
#X connect 14 0 1 1;
#X connect 14 1 15 0;
#X connect 16 0 11 1;
#X connect 17 0 44 0;
#X connect 18 0 17 0;
#X connect 19 0 20 0;
#X connect 19 1 18 1;
#X connect 20 0 18 0;
#X connect 21 0 20 1;
#X connect 22 0 45 0;
#X connect 23 0 22 0;
#X connect 24 0 25 0;
#X connect 24 1 23 1;
#X connect 25 0 23 0;
#X connect 26 0 25 1;
#X connect 27 0 46 0;
#X connect 28 0 27 0;
#X connect 29 0 30 0;
#X connect 29 1 28 1;
#X connect 30 0 28 0;
#X connect 31 0 30 1;
#X connect 32 0 48 0;
#X connect 33 0 32 0;
#X connect 34 0 35 0;
#X connect 34 1 33 1;
#X connect 35 0 33 0;
#X connect 36 0 35 1;
#X connect 37 0 12 0;
#X connect 38 0 49 0;
#X connect 39 0 38 0;
#X connect 40 0 41 0;
#X connect 40 1 39 1;
#X connect 41 0 39 0;
#X connect 42 0 41 1;
#X connect 47 0 10 0;
#X connect 47 1 19 0;
#X connect 47 2 24 0;
#X connect 47 3 29 0;
#X connect 47 4 34 0;
#X connect 47 5 40 0;
#X restore 1498 -64 pd external-messages;
#X obj 87 12 bng 15 250 50 0 \$0-sampler-triggui-s \$0-sampler-triggui-r empty 17 7 0 10 #fcfcfc #000000 #000000;
#X obj 105 62 t b b b b;
#X obj 102 -101 inlet;
#X obj 102 -79 stripnote;
#X obj 153 -57 / 127;
#X obj 187 821 line~;
#X obj 314 507 pack 0 2;
#X obj 173 1034 outlet~, f 10;
#X obj 173 847 *~;
#X obj 103 109 cnv 5 5 5 empty empty IN 0 0 0 8 #fcfcfc #9c00ff 0;
#X obj 519 152 text get library, f 22;
#X floatatom 606 192 5 0 0 0 - - - 0;
#X obj 519 174 unpack symbol f;
#X listbox 519 227 19 0 0 0 - - - 0;
#X floatatom 627 422 5 0 0 0 - - - 0;
#X obj 172 733 *~;
#X obj 200 658 vline~;
#X msg 223 608 0;
#X obj 223 587 loadbang;
#X obj 606 209 s \$0-samplelength;
#X msg 185 559 set \$1;
#X obj 519 263 s \$0-sample-name;
#X obj 185 536 r \$0-sample-name;
#X obj 519 245 symbol;
#X obj 519 134 i;
#X obj 168 590 tabplay~;
#X obj 168 509 t b b;
#X obj 365 245 sel 0 1 2 3 4 5;
#X msg 365 274 symbol kick;
#X msg 380 292 symbol snare;
#X msg 393 312 symbol clap;
#X msg 408 330 symbol hat;
#X msg 420 349 symbol shaker;
#X msg 435 367 symbol percs;
#X obj 365 396 s \$0-banks;
#X obj 621 102 r \$0-banks;
#X msg 200 629 0 15 \, 1 50 1;
#X obj 173 954 *~;
#X obj 127 250 hsl 128 15 0 127 0 1 \$0-attack-s \$0-attack-r ATTACK 133 7 0 10 #fcfcfc #000000 #000000 0 1;
#X obj 127 265 hsl 128 15 0 127 0 1 \$0-decay-s \$0-decay-r DECAY 133 7 0 10 #fcfcfc #000000 #000000 3900 1;
#N canvas 328 128 611 487 envelope 0;
#X obj 95 268 / 127;
#X obj 95 294 t a a;
#X floatatom 155 201 5 0 0 1 A - - 0;
#X floatatom 185 226 5 0 0 1 D - - 0;
#X floatatom 212 257 5 0 0 1 S(%) - - 0;
#X floatatom 246 279 5 0 0 1 R - - 0;
#N canvas 121 146 989 617 c_adsr 0;
#X obj 105 111 inlet;
#X obj 435 151 inlet;
#X text 101 86 trigger;
#X obj 105 139 sel 0;
#X obj 244 155 t b;
#X obj 166 264 f \$1;
#X obj 166 289 pack 0 \$2;
#X obj 492 151 inlet;
#X obj 438 281 del \$2;
#X obj 462 304 f \$4;
#X obj 501 379 pack 0 \$3;
#X obj 554 151 inlet;
#X obj 616 151 inlet;
#X obj 689 150 inlet;
#X msg 105 170 stop;
#X obj 612 306 pack 0 \$5;
#X text 435 129 level;
#X obj 501 355 * \$1;
#X obj 458 454 outlet~;
#X text 102 378 and pack with;
#X text 103 398 attack time;
#X text 31 126 if zero;
#X text 32 143 release;
#X text 12 160 and cancel;
#X text 43 177 decay;
#X text 284 272 on attack \, set a;
#X text 278 305 recall sustain value;
#X text 315 378 pack with decay time;
#X text 605 332 on release ramp;
#X text 606 349 back to zero;
#X obj 462 329 * 0.01;
#X text 47 567 Objects such as "f" and "pack" can be given dollar sign arguments to initialize their contents from adsr's creation arguments. Inlets are supplied to change them on the fly.;
#X text 13 2 ADSR ENVELOPE;
#X text 488 129 attack;
#X text 555 128 decay;
#X text 609 129 sustain;
#X text 686 129 release;
#X text 202 71 attack;
#X obj 204 92 moses;
#X obj 194 122 t b b;
#X msg 128 290 0;
#X text 20 273 optionally;
#X text 10 291 bash to zero;
#X text 25 246 ATTACK:;
#X text 49 477 When you send this patch a positive trigger it schedules a line~ to do an attack and decay \, and if zero \, it starts the release ramp.;
#X text 495 629 Updated for Pd version 0.37;
#X text 255 89 test for negative trigger;
#X text 253 113 if so \, zero;
#X text 254 129 the output;
#X text 278 165 in any case;
#X text 303 355 multiply by peak level;
#X text 280 286 delay for sustain;
#X text 276 328 convert from percent;
#X text 155 340 ... then;
#X text 103 359 recall peak level;
#X text 439 113 peak;
#X text 281 149 ... do this;
#X text 47 529 Negative triggers cause the output to jump to zero and then attack (instead of attacking from the current location).;
#X text 208 1 Arguments: level \, attack time \, decay time \, sustain level \, release time. A \, D \, and R are in msec and S is in percent. This patch is used as an abstraction in various examples.;
#X obj 458 429 vline~;
#N canvas 228 198 627 317 LICENSE-BSD 0;
#X text 121 56 This software is copyrighted by Miller Puckette \, Reality Jockey Ltd. and others. The terms (the "Standard Improved BSD License") apply to all files associated with the software unless explicitly disclaimed in individual files.;
#X text 123 148 See the file LICENSE.txt for the full license text.;
#X restore 823 80 pd LICENSE-BSD;
#X connect 0 0 3 0;
#X connect 1 0 5 1;
#X connect 1 0 17 1;
#X connect 3 0 14 0;
#X connect 3 0 15 0;
#X connect 3 1 38 0;
#X connect 4 0 5 0;
#X connect 4 0 8 0;
#X connect 5 0 6 0;
#X connect 6 0 59 0;
#X connect 7 0 6 1;
#X connect 7 0 8 1;
#X connect 8 0 9 0;
#X connect 9 0 30 0;
#X connect 10 0 59 0;
#X connect 11 0 10 1;
#X connect 12 0 9 1;
#X connect 13 0 15 1;
#X connect 14 0 8 0;
#X connect 15 0 59 0;
#X connect 17 0 10 0;
#X connect 30 0 17 0;
#X connect 38 0 39 0;
#X connect 38 1 4 0;
#X connect 39 0 4 0;
#X connect 39 1 40 0;
#X connect 40 0 59 0;
#X connect 59 0 18 0;
#X restore 95 322 pd c_adsr 1 80 100 80 200;
#X obj 99 356 *~;
#X obj 100 385 *~;
#X msg 89 214 100;
#X obj 251 221 * 2;
#X obj 264 121 + 5;
#X obj 96 448 outlet~;
#X obj 91 18 inlet;
#X obj 352 206 - 77;
#X obj 352 227 max 0;
#X floatatom 352 248 5 0 0 0 - - - 0;
#X obj 207 173 + 30;
#X obj 207 152 * 3;
#X obj 285 23 inlet;
#X obj 155 19 inlet;
#X connect 0 0 1 0;
#X connect 1 0 6 0;
#X connect 1 1 6 1;
#X connect 2 0 6 2;
#X connect 3 0 6 3;
#X connect 4 0 6 4;
#X connect 5 0 6 5;
#X connect 6 0 7 0;
#X connect 6 0 7 1;
#X connect 7 0 8 0;
#X connect 7 0 8 1;
#X connect 8 0 12 0;
#X connect 9 0 0 0;
#X connect 10 0 5 0;
#X connect 13 0 9 0;
#X connect 14 0 15 0;
#X connect 15 0 16 0;
#X connect 16 0 6 4;
#X connect 17 0 3 0;
#X connect 18 0 17 0;
#X connect 19 0 11 0;
#X connect 19 0 10 0;
#X connect 19 0 14 0;
#X connect 19 0 18 0;
#X connect 20 0 2 0;
#X restore 188 927 pd envelope;
#X obj 124 244 cnv 5 5 5 empty empty ENVELOPE 0 0 0 10 #fcfcfc #404040 0;
#X obj 621 126 t b s;
#N canvas 489 241 804 572 alias 0;
#X obj 262 61 inlet~;
#X obj 264 476 outlet~;
#X obj 322 345 phasor~;
#X obj 263 374 samphold~;
#X obj 322 92 samplerate~;
#X obj 322 59 loadbang;
#X floatatom 374 437 10 0 0 0 - - - 0;
#X msg 394 58 bang;
#X obj 336 276 t b a;
#X obj 322 312 / 1;
#X obj 348 169 loadbang;
#X msg 336 244 1;
#X obj 336 221 moses 1;
#X obj 336 194 f \$2;
#X obj 339 128 r \$0-alias;
#X obj 363 311 r \$0-freq;
#X msg 310 424 \$1 10;
#X obj 310 403 r \$0-dry;
#N canvas 498 514 450 300 c_xfade 0;
#X obj 76 87 inlet~;
#X obj 142 87 inlet~;
#X obj 77 198 outlet~;
#X obj 201 87 inlet;
#X obj 201 127 vline~;
#X obj 141 136 -~;
#X obj 141 156 *~;
#X text 371 150 (1-x)*a + x*b;
#X text 371 167 = a - x*a + x*b;
#X text 371 184 = a + x*(b - a);
#X text 366 119 x: fade factor (0-1);
#X text 366 90 a: sig from inlet~ 0;
#X text 339 50 Linear crossfade according to the following calculation:;
#X text 367 104 b: sig from inlet~ 1;
#N canvas 172 83 586 377 LICENSE-GPL 0;
#X text 57 88 This program is free software: you can redistribute it and/or modify it under the terms of the GNU General Public License as published by the Free Software Foundation \, either version 3 of the License \, or (at your option) any later version.;
#X text 58 168 This program is distributed in the hope that it will be useful \, but WITHOUT ANY WARRANTY \; without even the implied warranty of MERCHANTABILITY or FITNESS FOR A PARTICULAR PURPOSE. See the GNU General Public License for more details.;
#X text 57 261 You should have received a copy of the GNU General Public License along with this program. If not \, see <http://www.gnu.org/licenses/>.;
#X text 61 54 Copyright (C) 2009 \, Reality Jockey Ltd.;
#X text 60 325 See the file LICENSE.txt for the full license text.;
#X restore 614 19 pd LICENSE-GPL;
#X connect 0 0 5 1;
#X connect 0 0 2 0;
#X connect 1 0 5 0;
#X connect 3 0 4 0;
#X connect 4 0 6 1;
#X connect 5 0 6 0;
#X connect 6 0 2 0;
#X restore 264 446 pd c_xfade;
#X obj 491 44 inlet;
#X obj 600 52 inlet;
#X text 489 20 alias;
#X text 598 28 mix;
#X floatatom 446 359 17 0 0 0 - - - 0;
#X connect 0 0 3 0;
#X connect 0 0 18 1;
#X connect 2 0 3 1;
#X connect 3 0 18 0;
#X connect 4 0 9 0;
#X connect 5 0 4 0;
#X connect 7 0 4 0;
#X connect 8 0 9 0;
#X connect 8 1 9 1;
#X connect 9 0 6 0;
#X connect 9 0 2 0;
#X connect 9 0 23 0;
#X connect 10 0 13 0;
#X connect 11 0 8 0;
#X connect 12 0 11 0;
#X connect 12 1 8 0;
#X connect 13 0 12 0;
#X connect 14 0 13 0;
#X connect 15 0 2 0;
#X connect 16 0 18 2;
#X connect 17 0 16 0;
#X connect 18 0 1 0;
#X connect 19 0 13 0;
#X connect 20 0 16 0;
#X restore 183 991 pd alias;
#X obj 447 685 hsl 128 15 0 127 0 1 empty empty ATTACK 133 7 0 10 #fcfcfc #000000 #000000 6400 1;
#X obj 127 309 hsl 128 15 0 127 0 1 \$0-sample-rate-s \$0-sample-rate-r SMPL-RTE 133 7 0 10 #fcfcfc #000000 #000000 7400 1;
#X obj 410 629 / 127;
#X obj 410 687 * 6;
#X obj 444 705 / 127;
#X msg 529 572 64;
#X obj 528 551 loadbang;
#N canvas 196 112 1244 616 push-controll 0;
#N canvas 208 84 1232 580 push-encoder 0;
#X obj 53 80 push-encoder-reader;
#X obj 53 -17 ctlin 71;
#X obj 298 75 push-encoder-reader;
#X obj 298 -22 ctlin 72;
#X obj 781 72 push-encoder-reader;
#X obj 56 241 push-encoder-reader;
#X obj 301 236 push-encoder-reader;
#X obj 539 238 push-encoder-reader;
#X obj 54 38 main-menu;
#X obj 105 20 r \$0-mm;
#N canvas 150 175 450 300 sm1 0;
#X obj 109 64 r \$0-sm;
#X obj 109 102 sel;
#X obj 75 170 outlet;
#X msg 108 123 1;
#X msg 135 123 0;
#X obj 75 149 spigot;
#X obj 75 37 inlet;
#X obj 124 83 r \$0-sm1;
#X connect 0 0 1 0;
#X connect 1 0 3 0;
#X connect 1 1 4 0;
#X connect 3 0 5 1;
#X connect 4 0 5 1;
#X connect 5 0 2 0;
#X connect 6 0 5 0;
#X connect 7 0 1 1;
#X restore 54 57 pd sm1;
#X obj 299 29 main-menu;
#X obj 350 11 r \$0-mm;
#N canvas 150 175 450 300 sm1 0;
#X obj 109 64 r \$0-sm;
#X obj 109 102 sel;
#X obj 75 170 outlet;
#X msg 108 123 1;
#X msg 135 123 0;
#X obj 75 149 spigot;
#X obj 75 37 inlet;
#X obj 124 83 r \$0-sm1;
#X connect 0 0 1 0;
#X connect 1 0 3 0;
#X connect 1 1 4 0;
#X connect 3 0 5 1;
#X connect 4 0 5 1;
#X connect 5 0 2 0;
#X connect 6 0 5 0;
#X connect 7 0 1 1;
#X restore 299 48 pd sm1;
#X obj 781 15 main-menu;
#X obj 832 -3 r \$0-mm;
#N canvas 150 175 450 300 sm1 0;
#X obj 109 64 r \$0-sm;
#X obj 109 102 sel;
#X obj 75 170 outlet;
#X msg 108 123 1;
#X msg 135 123 0;
#X obj 75 149 spigot;
#X obj 75 37 inlet;
#X obj 124 83 r \$0-sm1;
#X connect 0 0 1 0;
#X connect 1 0 3 0;
#X connect 1 1 4 0;
#X connect 3 0 5 1;
#X connect 4 0 5 1;
#X connect 5 0 2 0;
#X connect 6 0 5 0;
#X connect 7 0 1 1;
#X restore 781 34 pd sm1;
#X obj 57 194 main-menu;
#X obj 108 176 r \$0-mm;
#N canvas 150 175 450 300 sm1 0;
#X obj 109 64 r \$0-sm;
#X obj 109 102 sel;
#X obj 75 170 outlet;
#X msg 108 123 1;
#X msg 135 123 0;
#X obj 75 149 spigot;
#X obj 75 37 inlet;
#X obj 124 83 r \$0-sm1;
#X connect 0 0 1 0;
#X connect 1 0 3 0;
#X connect 1 1 4 0;
#X connect 3 0 5 1;
#X connect 4 0 5 1;
#X connect 5 0 2 0;
#X connect 6 0 5 0;
#X connect 7 0 1 1;
#X restore 57 213 pd sm1;
#X obj 309 185 main-menu;
#X obj 360 167 r \$0-mm;
#N canvas 150 175 450 300 sm1 0;
#X obj 109 64 r \$0-sm;
#X obj 109 102 sel;
#X obj 75 170 outlet;
#X msg 108 123 1;
#X msg 135 123 0;
#X obj 75 149 spigot;
#X obj 75 37 inlet;
#X obj 124 83 r \$0-sm1;
#X connect 0 0 1 0;
#X connect 1 0 3 0;
#X connect 1 1 4 0;
#X connect 3 0 5 1;
#X connect 4 0 5 1;
#X connect 5 0 2 0;
#X connect 6 0 5 0;
#X connect 7 0 1 1;
#X restore 309 204 pd sm1;
#X obj 543 187 main-menu;
#X obj 594 169 r \$0-mm;
#N canvas 150 175 450 300 sm1 0;
#X obj 109 64 r \$0-sm;
#X obj 109 102 sel;
#X obj 75 170 outlet;
#X msg 108 123 1;
#X msg 135 123 0;
#X obj 75 149 spigot;
#X obj 75 37 inlet;
#X obj 124 83 r \$0-sm1;
#X connect 0 0 1 0;
#X connect 1 0 3 0;
#X connect 1 1 4 0;
#X connect 3 0 5 1;
#X connect 4 0 5 1;
#X connect 5 0 2 0;
#X connect 6 0 5 0;
#X connect 7 0 1 1;
#X restore 543 206 pd sm1;
#X text 37 -47 Encoder to volume (submenu1);
#X obj 164 58 r \$0-banks-s;
#X obj 53 99 s \$0-banks-r;
#X obj 343 49 r \$0-sample-player-file-s;
#X obj 298 95 s \$0-sample-player-file-r;
#X obj 132 215 r \$0-decay-s;
#X obj 363 205 r \$0-noise-length-s;
#X obj 654 204 r \$0-noise-vol-s;
#X obj 885 210 r \$0-sample-rate-s;
#X obj 867 36 r \$0-attack-s;
#X obj 781 93 s \$0-attack-r;
#X obj 56 265 s \$0-decay-r;
#X obj 301 258 s \$0-noise-length-r;
#X obj 539 260 s \$0-noise-vol-r;
#X obj 774 236 push-encoder-reader;
#X obj 778 185 main-menu;
#X obj 829 167 r \$0-mm;
#N canvas 150 175 450 300 sm1 0;
#X obj 109 64 r \$0-sm;
#X obj 109 102 sel;
#X obj 75 170 outlet;
#X msg 108 123 1;
#X msg 135 123 0;
#X obj 75 149 spigot;
#X obj 75 37 inlet;
#X obj 124 83 r \$0-sm1;
#X connect 0 0 1 0;
#X connect 1 0 3 0;
#X connect 1 1 4 0;
#X connect 3 0 5 1;
#X connect 4 0 5 1;
#X connect 5 0 2 0;
#X connect 6 0 5 0;
#X connect 7 0 1 1;
#X restore 778 204 pd sm1;
#X obj 774 258 s \$0-sample-rate-r;
#X floatatom 730 302 5 0 0 0 - - - 0;
#X obj 781 -25 ctlin 73;
#X obj 56 154 ctlin 74;
#X obj 301 149 ctlin 75;
#X obj 539 151 ctlin 76;
#X obj 774 149 ctlin 77;
#X connect 0 0 28 0;
#X connect 1 0 8 0;
#X connect 2 0 30 0;
#X connect 3 0 11 0;
#X connect 4 0 36 0;
#X connect 5 0 37 0;
#X connect 6 0 38 0;
#X connect 7 0 39 0;
#X connect 8 0 10 0;
#X connect 9 0 8 1;
#X connect 10 0 0 0;
#X connect 11 0 13 0;
#X connect 12 0 11 1;
#X connect 13 0 2 0;
#X connect 14 0 16 0;
#X connect 15 0 14 1;
#X connect 16 0 4 0;
#X connect 17 0 19 0;
#X connect 18 0 17 1;
#X connect 19 0 5 0;
#X connect 20 0 22 0;
#X connect 21 0 20 1;
#X connect 22 0 6 0;
#X connect 23 0 25 0;
#X connect 24 0 23 1;
#X connect 25 0 7 0;
#X connect 27 0 0 1;
#X connect 29 0 2 1;
#X connect 31 0 5 1;
#X connect 32 0 6 1;
#X connect 33 0 7 1;
#X connect 34 0 40 1;
#X connect 35 0 4 1;
#X connect 40 0 44 0;
#X connect 41 0 43 0;
#X connect 41 0 45 0;
#X connect 42 0 41 1;
#X connect 43 0 40 0;
#X connect 46 0 14 0;
#X connect 47 0 17 0;
#X connect 48 0 20 0;
#X connect 49 0 23 0;
#X connect 50 0 41 0;
#X restore 21 141 pd push-encoder;
#N canvas 0 25 1440 789 push-display 0;
#X obj 146 -216 t b;
#X obj 147 37 push-mk1-display 24;
#X obj 146 -279 main-menu;
#X obj 172 -301 r \$0-mm;
#X obj 146 -328 r \$0-sm;
#X obj 567 301 push-mk1-display 25;
#X msg 580 254 symbol :\$1;
#X obj 436 -253 main-menu;
#X obj 462 -275 r \$0-mm;
#X obj 436 -302 r \$0-sm;
#X obj 436 -181 t b;
#X obj 664 -53 f;
#X obj 741 -60 f;
#X obj 821 -94 f;
#X msg 663 -29 symbol :\$1;
#X msg 742 -29 symbol :\$1;
#X msg 822 -27 symbol :\$1;
#X msg 902 -29 symbol :\$1;
#X obj 902 -79 f;
#X msg 147 -196 symbol BANK;
#X msg 167 -174 symbol SAMPLE;
#X msg 180 -144 symbol ATTACK;
#X msg 197 -117 symbol DECAY;
#X msg 215 -86 symbol NSE-LENGTH;
#X msg 229 -57 symbol NSE-VOL;
#X msg 244 -29 symbol SMPL-RATE;
#N canvas 150 175 450 300 sm 0;
#X obj 109 64 r \$0-sm;
#X obj 109 102 sel;
#X obj 124 83 r \$0-sm1;
#X obj 75 170 outlet;
#X msg 108 123 1;
#X msg 135 123 0;
#X obj 75 149 spigot;
#X obj 75 37 inlet;
#X connect 0 0 1 0;
#X connect 1 0 4 0;
#X connect 1 1 5 0;
#X connect 2 0 1 1;
#X connect 4 0 6 1;
#X connect 5 0 6 1;
#X connect 6 0 3 0;
#X connect 7 0 6 0;
#X restore 436 -216 pd sm;
#N canvas 150 175 450 300 sm 0;
#X obj 109 64 r \$0-sm;
#X obj 109 102 sel;
#X obj 124 83 r \$0-sm1;
#X obj 75 170 outlet;
#X msg 108 123 1;
#X msg 135 123 0;
#X obj 75 149 spigot;
#X obj 75 37 inlet;
#X connect 0 0 1 0;
#X connect 1 0 4 0;
#X connect 1 1 5 0;
#X connect 2 0 1 1;
#X connect 4 0 6 1;
#X connect 5 0 6 1;
#X connect 6 0 3 0;
#X connect 7 0 6 0;
#X restore 146 -246 pd sm;
#X obj 664 -101 r \$0-attack-s;
#X obj 739 -121 r \$0-decay-s;
#X obj 821 -142 r \$0-noise-length-s;
#X obj 902 -116 r \$0-noise-vol-s;
#X obj 982 -92 r \$0-sample-rate-s;
#X obj 982 -67 f;
#X msg 982 -28 symbol :\$1;
#X obj 396 -120 r \$0-banks-s;
#X obj 433 -47 f;
#X obj 405 84 sel 0 1 2 3 4 5;
#X msg 405 113 symbol kick;
#X msg 420 131 symbol snare;
#X msg 433 151 symbol clap;
#X msg 448 169 symbol hat;
#X msg 460 188 symbol shaker;
#X msg 475 206 symbol percs;
#X obj 405 -1 / 127;
#X obj 405 41 i;
#X floatatom 405 62 5 0 0 0 - - - 0;
#X obj 405 20 * 5;
#X obj 405 235 t s;
#X obj 565 -166 r \$0-sample-player-file-s;
#X obj 509 -69 f;
#X obj 509 -49 / 127;
#X obj 509 -7 i;
#X floatatom 509 14 5 0 0 0 - - - 0;
#X obj 509 -28 * 7;
#X msg 1026 136 symbol;
#X msg 258 -3 symbol;
#X connect 0 0 19 0;
#X connect 0 0 20 0;
#X connect 0 0 21 0;
#X connect 0 0 22 0;
#X connect 0 0 23 0;
#X connect 0 0 24 0;
#X connect 0 0 25 0;
#X connect 0 0 56 0;
#X connect 2 0 27 0;
#X connect 3 0 2 1;
#X connect 4 0 2 0;
#X connect 6 0 5 1;
#X connect 7 0 26 0;
#X connect 8 0 7 1;
#X connect 9 0 7 0;
#X connect 10 0 11 0;
#X connect 10 0 12 0;
#X connect 10 0 13 0;
#X connect 10 0 18 0;
#X connect 10 0 33 0;
#X connect 10 0 36 0;
#X connect 10 0 50 0;
#X connect 10 0 55 0;
#X connect 11 0 14 0;
#X connect 12 0 15 0;
#X connect 13 0 16 0;
#X connect 14 0 5 2;
#X connect 15 0 5 3;
#X connect 16 0 5 4;
#X connect 17 0 5 5;
#X connect 18 0 17 0;
#X connect 19 0 1 0;
#X connect 20 0 1 1;
#X connect 21 0 1 2;
#X connect 22 0 1 3;
#X connect 23 0 1 4;
#X connect 24 0 1 5;
#X connect 25 0 1 6;
#X connect 26 0 10 0;
#X connect 27 0 0 0;
#X connect 28 0 11 0;
#X connect 29 0 12 0;
#X connect 30 0 13 0;
#X connect 31 0 18 0;
#X connect 32 0 33 0;
#X connect 33 0 34 0;
#X connect 34 0 5 6;
#X connect 35 0 36 0;
#X connect 36 0 44 0;
#X connect 37 0 38 0;
#X connect 37 1 39 0;
#X connect 37 2 40 0;
#X connect 37 3 41 0;
#X connect 37 4 42 0;
#X connect 37 5 43 0;
#X connect 38 0 48 0;
#X connect 39 0 48 0;
#X connect 40 0 48 0;
#X connect 41 0 48 0;
#X connect 42 0 48 0;
#X connect 43 0 48 0;
#X connect 44 0 47 0;
#X connect 45 0 46 0;
#X connect 46 0 37 0;
#X connect 47 0 45 0;
#X connect 48 0 5 0;
#X connect 49 0 50 0;
#X connect 50 0 51 0;
#X connect 51 0 54 0;
#X connect 52 0 53 0;
#X connect 53 0 6 0;
#X connect 54 0 52 0;
#X connect 55 0 5 7;
#X connect 56 0 1 7;
#X restore 21 71 pd push-display;
#X obj 400 72 s \$0-mm;
#X obj 399 122 s \$0-sm1;
#X text 513 93 The Submenu number of the subpatch;
#X obj 399 144 loadbang;
#X msg 399 164 1;
#X obj 399 183 s \$0-sm2;
#X obj 231 97 hradio 16 1 0 8 empty empty empty 0 -8 0 10 #fcfcfc #000000 #000000 0;
#X obj 231 34 r all-menu;
#X obj 231 74 route;
#X obj 258 53 r \$0-mm;
#X obj 231 198 s \$0-sm;
#X obj 400 29 r \$0-main-menu-s;
#X obj 400 50 + 1;
#X obj 399 94 r \$0-sub-menu-s;
#X connect 5 0 6 0;
#X connect 6 0 7 0;
#X connect 8 0 12 0;
#X connect 9 0 10 0;
#X connect 10 0 8 0;
#X connect 11 0 10 1;
#X connect 13 0 14 0;
#X connect 14 0 2 0;
#X connect 15 0 3 0;
#X restore 1496 -9 pd push-controll;
#X msg 1525 183 1;
#X msg 1498 223 \; pd-\$1options vis \$2;
#X obj 1498 183 f \$0;
#X obj 1498 202 pack f f;
#X obj 224 352 bng 10 250 50 0 \$0-options-button \$0-options-button-r OPTIONS -45 5 0 10 #fcfcfc #000000 #000000;
#X obj 1498 164 t b b;
#X obj 1498 145 r \$0-options-button;
#X text 1496 120 Opens the Options-Subpatch:;
#N canvas 301 36 191 154 \$0options 0;
#X text 11 10 Ableton-Push-Interface:;
#X obj 15 50 hradio 16 1 0 8 \$0-main-menu-s \$0-main-menu-r Main-Menu 0 -8 0 10 #fcfcfc #000000 #000000 0;
#X obj 15 90 hradio 16 1 0 8 \$0-sub-menu-s \$0-sub-menu-r Sub-Menu 0 -8 0 10 #fcfcfc #000000 #000000 0;
#X restore 1497 256 pd \$0options;
#X obj 127 199 hsl 128 15 0 127 0 0 \$0-sample-player-file-s \$0-sample-player-file-r SAMPLE 133 7 0 10 #fcfcfc #000000 #000000 0 1;
#X obj 439 -15 / 127;
#X obj 439 27 i;
#X floatatom 439 48 5 0 0 0 - - - 0;
#X obj 439 6 * 7;
#X floatatom 225 184 5 0 0 0 - - - 0;
#X obj 127 159 hsl 128 15 0 127 0 0 \$0-banks-s \$0-banks-r BANK 133 7 0 10 #fcfcfc #000000 #000000 0 1;
#X obj 377 151 / 127;
#X obj 377 193 i;
#X floatatom 377 214 5 0 0 0 - - - 0;
#X obj 377 172 * 5;
#X obj 230 33 r \$0-banks;
#X listbox 219 144 6 0 0 0 - - - 0;
#X obj 800 168 / 127;
#X obj 786 189 pack 0 50;
#X obj 906 -39 / 127;
#X obj 906 58 pack 0 50;
#X obj 906 27 t f f;
#X obj 906 -61 r \$0-frequency-cv-s;
#X obj 788 58 snapshot~;
#X obj 796 21 tgl 15 0 empty empty empty 17 7 0 10 #fcfcfc #000000 #000000 0 1;
#X obj 788 78 change;
#X obj 796 39 metro 10;
#X obj 796 -38 env~;
#X obj 796 -18 > 0;
#X obj 796 2 change;
#X obj 789 -58 inlet~;
#X obj 855 99 *;
#X obj 906 80 line;
#X obj 786 211 line;
#X obj 786 231 +;
#X floatatom 786 250 5 0 0 0 - - - 0;
#X obj 788 100 * 1;
#X obj 879 99 t b f;
#X text 786 -89 decay mod in;
#X obj 788 120 t b f;
#X obj 800 145 r \$0-decay-s;
#X obj 786 269 * 127;
#X floatatom 786 290 5 0 0 0 - - - 0;
#X obj 1060 168 / 127;
#X obj 1046 189 pack 0 50;
#X obj 1166 -39 / 127;
#X obj 1166 58 pack 0 50;
#X obj 1166 27 t f f;
#X obj 1166 -61 r \$0-frequency-cv-s;
#X obj 1048 58 snapshot~;
#X obj 1056 21 tgl 15 0 empty empty empty 17 7 0 10 #fcfcfc #000000 #000000 0 1;
#X obj 1048 78 change;
#X obj 1056 39 metro 10;
#X obj 1056 -38 env~;
#X obj 1056 -18 > 0;
#X obj 1056 2 change;
#X obj 1049 -58 inlet~;
#X obj 1115 99 *;
#X obj 1166 80 line;
#X obj 1046 211 line;
#X obj 1046 231 +;
#X floatatom 1046 250 5 0 0 0 - - - 0;
#X obj 1048 100 * 1;
#X obj 1139 99 t b f;
#X obj 1048 120 t b f;
#X obj 1046 269 * 127;
#X floatatom 1046 290 5 0 0 0 - - - 0;
#X text 1046 -89 attack mod in;
#X obj 1060 145 r \$0-attack-s;
#X connect 4 0 5 0;
#X connect 7 0 9 0;
#X connect 9 0 10 0;
#X connect 10 0 8 0;
#X connect 13 0 0 0;
#X connect 13 0 14 0;
#X connect 14 0 0 0;
#X connect 14 0 39 0;
#X connect 14 3 36 0;
#X connect 15 0 16 0;
#X connect 16 0 13 0;
#X connect 16 1 17 0;
#X connect 16 1 27 0;
#X connect 17 0 19 0;
#X connect 18 0 21 1;
#X connect 19 0 18 0;
#X connect 21 0 50 0;
#X connect 23 0 25 0;
#X connect 24 0 32 0;
#X connect 25 0 26 0;
#X connect 25 1 24 0;
#X connect 26 0 36 0;
#X connect 28 0 21 0;
#X connect 29 0 28 1;
#X connect 30 0 29 0;
#X connect 31 0 30 0;
#X connect 33 0 38 0;
#X connect 35 0 33 0;
#X connect 36 0 34 0;
#X connect 37 0 23 0;
#X connect 38 0 28 0;
#X connect 39 0 38 0;
#X connect 39 1 49 0;
#X connect 39 1 53 0;
#X connect 40 0 41 0;
#X connect 40 1 42 0;
#X connect 40 2 43 0;
#X connect 40 3 44 0;
#X connect 40 4 45 0;
#X connect 40 5 46 0;
#X connect 41 0 47 0;
#X connect 42 0 47 0;
#X connect 43 0 47 0;
#X connect 44 0 47 0;
#X connect 45 0 47 0;
#X connect 46 0 47 0;
#X connect 48 0 55 0;
#X connect 49 0 29 0;
#X connect 50 0 56 0;
#X connect 53 0 50 1;
#X connect 55 0 37 0;
#X connect 55 1 23 3;
#X connect 56 0 20 0;
#X connect 57 0 61 0;
#X connect 58 0 59 0;
#X connect 59 0 60 0;
#X connect 60 0 56 1;
#X connect 61 0 56 2;
#X connect 62 0 57 0;
#X connect 63 0 62 0;
#X connect 65 0 68 1;
#X connect 67 0 68 0;
#X connect 68 0 66 0;
#X connect 70 0 67 0;
#X connect 70 1 65 0;
#X connect 71 0 70 0;
#X connect 74 0 75 0;
#X connect 75 0 78 0;
#X connect 76 0 77 0;
#X connect 77 0 79 0;
#X connect 77 0 37 0;
#X connect 78 0 76 0;
#X connect 80 0 81 0;
#X connect 81 0 84 0;
#X connect 82 0 83 0;
#X connect 83 0 40 0;
#X connect 84 0 82 0;
#X connect 85 0 86 0;
#X connect 87 0 88 0;
#X connect 88 0 103 0;
#X connect 89 0 91 0;
#X connect 90 0 102 0;
#X connect 91 0 90 0;
#X connect 92 0 89 0;
#X connect 93 0 95 0;
#X connect 94 0 96 0;
#X connect 95 0 106 0;
#X connect 96 0 93 0;
#X connect 97 0 98 0;
#X connect 98 0 99 0;
#X connect 99 0 94 0;
#X connect 100 0 93 0;
#X connect 100 0 97 0;
#X connect 101 0 107 0;
#X connect 102 0 101 1;
#X connect 103 0 104 0;
#X connect 104 0 105 0;
#X connect 105 0 111 0;
#X connect 106 0 109 0;
#X connect 109 0 104 0;
#X connect 109 1 104 1;
#X connect 110 0 87 0;
#X connect 111 0 53 2;
#X connect 111 0 112 0;
#X connect 113 0 114 0;
#X connect 114 0 129 0;
#X connect 115 0 117 0;
#X connect 116 0 128 0;
#X connect 117 0 116 0;
#X connect 118 0 115 0;
#X connect 119 0 121 0;
#X connect 120 0 122 0;
#X connect 121 0 132 0;
#X connect 122 0 119 0;
#X connect 123 0 124 0;
#X connect 124 0 125 0;
#X connect 125 0 120 0;
#X connect 126 0 119 0;
#X connect 126 0 123 0;
#X connect 127 0 133 0;
#X connect 128 0 127 1;
#X connect 129 0 130 0;
#X connect 130 0 131 0;
#X connect 131 0 135 0;
#X connect 132 0 134 0;
#X connect 134 0 130 0;
#X connect 134 1 130 1;
#X connect 135 0 136 0;
#X connect 135 0 53 1;
#X connect 138 0 113 0;
#X coords 0 -1 1 1 220 270 2 100 100;
