#N canvas 0 25 1239 789 10;
#N canvas 92 117 1009 681 engine 0;
#X msg 224 209 1000 \$1;
#X obj 224 230 /;
#X obj 310 203 noise~;
#X obj 310 320 *~;
#X obj 461 345 vd~ \$0-del;
#X obj 486 581 delwrite~ \$0-del 100;
#X obj 461 303 sig~ 1000;
#X obj 461 324 /~;
#X msg 224 251 0 \, 1 \$1;
#X obj 224 272 vline~;
#X obj 224 293 -~ 0.25;
#X obj 224 314 cos~;
#N canvas 1069 608 371 206 allpass100ms 0;
#X obj 12 31 inlet~;
#X obj 12 92 +~;
#X obj 27 70 *~;
#X obj 202 53 inlet;
#X obj 202 75 * -1;
#X obj 187 109 *~;
#X obj 172 131 +~;
#X obj 172 153 outlet~;
#X text 12 173 0 - 100 mSec allpass;
#X text 202 33 gain;
#X text 102 11 time;
#X text 12 11 sound;
#X obj 12 153 delwrite~ \$0-short-4 100;
#X obj 102 53 vd~ \$0-short-4;
#X obj 248 118 inlet;
#X msg 248 139 clear;
#X obj 102 31 inlet~;
#X connect 0 0 1 0;
#X connect 1 0 5 0;
#X connect 1 0 12 0;
#X connect 2 0 1 1;
#X connect 3 0 2 1;
#X connect 3 0 4 0;
#X connect 4 0 5 1;
#X connect 5 0 6 1;
#X connect 6 0 7 0;
#X connect 13 0 2 0;
#X connect 13 0 6 0;
#X connect 14 0 15 0;
#X connect 15 0 12 0;
#X connect 16 0 13 0;
#X restore 224 525 pd allpass100ms;
#X obj 224 422 +~;
#X obj 224 389 *~;
#X msg 390 291 1 \$1;
#X obj 390 312 -;
#X obj 390 354 + 100;
#X obj 390 375 dbtorms;
#X obj 375 724 *~;
#X obj 375 682 hip~ 100;
#X obj 405 656 pow~ 50;
#N canvas 4 23 162 227 hv.tanh 0;
#X obj 12 12 inlet~;
#X obj 12 38 clip~ -3 3;
#X obj 27 64 *~;
#X obj 12 192 outlet~;
#X obj 27 140 /~;
#X obj 12 166 *~;
#X obj 67 90 *~ 9;
#X obj 27 90 +~ 27;
#X obj 67 116 +~ 27;
#X connect 0 0 1 0;
#X connect 1 0 2 0;
#X connect 1 0 2 1;
#X connect 1 0 5 0;
#X connect 2 0 7 0;
#X connect 2 0 6 0;
#X connect 4 0 5 1;
#X connect 5 0 3 0;
#X connect 6 0 8 0;
#X connect 7 0 4 0;
#X connect 8 0 4 1;
#X restore 224 612 pd hv.tanh;
#N canvas 4 23 162 227 hv.tanh 0;
#X obj 12 12 inlet~;
#X obj 12 38 clip~ -3 3;
#X obj 27 64 *~;
#X obj 12 192 outlet~;
#X obj 27 140 /~;
#X obj 12 166 *~;
#X obj 67 90 *~ 9;
#X obj 27 90 +~ 27;
#X obj 67 116 +~ 27;
#X connect 0 0 1 0;
#X connect 1 0 2 0;
#X connect 1 0 2 1;
#X connect 1 0 5 0;
#X connect 2 0 7 0;
#X connect 2 0 6 0;
#X connect 4 0 5 1;
#X connect 5 0 3 0;
#X connect 6 0 8 0;
#X connect 7 0 4 0;
#X connect 8 0 4 1;
#X restore 461 408 pd hv.tanh;
#X obj 224 356 +~;
#X obj 670 284 vline~;
#X obj 542 289 *~;
#X obj 542 310 *~;
#X obj 375 703 bp~ 3000 1;
#X obj 185 52 inlet;
#X obj 170 73 f;
#X obj 345 52 inlet;
#X obj 330 73 f;
#X obj 330 115 s \$0-dmp-snr;
#X obj 425 52 inlet;
#X obj 410 73 f;
#X obj 505 52 inlet;
#X obj 490 73 f;
#X obj 170 94 clip 0 22050;
#X obj 170 115 s \$0-frq-snr;
#X obj 410 94 clip -1 1;
#X obj 410 115 s \$0-apg-snr;
#X obj 490 94 clip 0 22050;
#X obj 490 115 s \$0-apf-snr;
#X obj 595 52 inlet;
#X obj 580 73 f;
#X obj 580 115 s \$0-nse-snr;
#X obj 580 94 clip 0 1;
#X obj 224 188 r \$0-frq-snr;
#X obj 310 161 r \$0-trg-snr;
#X obj 331 224 r \$0-frq-snr;
#X obj 417 148 r \$0-vel-snr;
#X msg 417 190 2 \$1;
#X obj 417 211 pow;
#X obj 331 246 *;
#X obj 670 242 r \$0-trg-snr;
#X obj 574 254 r \$0-vel-snr;
#X obj 60 31 inlet;
#X obj 60 52 moses 1;
#X obj 99 94 t b f;
#X obj 126 115 - 1;
#X obj 126 136 / 126;
#X obj 126 178 s \$0-vel-snr;
#X obj 99 262 s \$0-trg-snr;
#X obj 170 31 r \$0-trg-snr;
#X obj 330 31 r \$0-trg-snr;
#X obj 410 31 r \$0-trg-snr;
#X obj 490 31 r \$0-trg-snr;
#X obj 580 31 r \$0-trg-snr;
#X obj 390 270 r \$0-vel-snr;
#X obj 282 504 r \$0-apg-snr;
#X obj 268 406 r \$0-apf-snr;
#X obj 330 94 clip 0 1;
#X obj 476 275 sig~;
#X obj 476 254 r \$0-frq-snr;
#X obj 454 434 r \$0-dmp-snr;
#X obj 368 511 r \$0-frq-snr;
#X msg 454 476 2 \$1;
#X obj 454 497 pow;
#X obj 454 518 / 2;
#X obj 368 532 *;
#X obj 224 546 lop~;
#X msg 708 556 0 1;
#X obj 735 535 del 2;
#X msg 735 556 1 0;
#X obj 708 514 t b b;
#X obj 99 199 t b b;
#X obj 99 241 del 2;
#X obj 126 220 s \$0-trg-snr-0;
#X obj 708 493 r \$0-trg-snr-0;
#X obj 126 157 pipe 2;
#X obj 670 553 +~ 1;
#N canvas 956 222 369 509 lowpass~ 0;
#X obj 62 16 inlet;
#X obj 206 16 inlet;
#X obj 131 75 / 2;
#X obj 62 122 * 6.28319;
#X obj 62 143 /;
#X obj 131 12 loadbang;
#X obj 131 33 samplerate~;
#X obj 131 54 t f f;
#X obj 123 152 max 5.96046e-08;
#X obj 155 178 cos;
#X obj 137 320 pack f f f f f f;
#X obj 155 225 * -2;
#X obj 62 232 t f f;
#X msg 89 253 1 \$1;
#X obj 89 274 -;
#X obj 62 274 + 1;
#X obj 62 51 f;
#X obj 206 37 t b f;
#X obj 62 190 sin;
#X obj 62 211 /;
#X obj 123 197 * 2;
#X obj 62 164 t f f;
#X obj 155 199 t f f;
#X msg 137 341 \$2 \$3 \$4 \$5 \$6 \$1;
#X obj 137 362 unpack f f f f f f;
#X obj 137 414 /;
#X obj 167 414 /;
#X obj 197 414 /;
#X obj 227 414 /;
#X obj 257 414 /;
#X obj 137 440 pack f f f f f;
#X obj 137 388 * -1;
#X obj 167 388 * -1;
#X text 247 320 a0 a1 a2 b0 b1 b2;
#X obj 12 454 biquad~;
#X obj 289 419 inlet;
#X msg 289 440 clear;
#X obj 12 428 inlet~;
#X obj 12 475 outlet~;
#X msg 211 213 1 \$1;
#X obj 211 234 -;
#X obj 211 255 t f f;
#X obj 238 276 / 2;
#X obj 238 297 t f f;
#X obj 62 101 clip 20 22050;
#X connect 0 0 16 0;
#X connect 1 0 17 0;
#X connect 2 0 44 2;
#X connect 3 0 4 0;
#X connect 4 0 21 0;
#X connect 5 0 6 0;
#X connect 6 0 7 0;
#X connect 7 0 2 0;
#X connect 7 1 4 1;
#X connect 8 0 20 0;
#X connect 9 0 22 0;
#X connect 10 0 23 0;
#X connect 11 0 10 1;
#X connect 12 0 15 0;
#X connect 12 1 13 0;
#X connect 13 0 14 0;
#X connect 14 0 10 2;
#X connect 15 0 10 0;
#X connect 16 0 44 0;
#X connect 17 0 16 0;
#X connect 17 1 8 0;
#X connect 18 0 19 0;
#X connect 19 0 12 0;
#X connect 20 0 19 1;
#X connect 21 0 18 0;
#X connect 21 1 9 0;
#X connect 22 0 11 0;
#X connect 22 1 39 0;
#X connect 23 0 24 0;
#X connect 24 0 31 0;
#X connect 24 1 32 0;
#X connect 24 2 27 0;
#X connect 24 3 28 0;
#X connect 24 4 29 0;
#X connect 24 5 29 1;
#X connect 24 5 28 1;
#X connect 24 5 27 1;
#X connect 24 5 26 1;
#X connect 24 5 25 1;
#X connect 25 0 30 0;
#X connect 26 0 30 1;
#X connect 27 0 30 2;
#X connect 28 0 30 3;
#X connect 29 0 30 4;
#X connect 30 0 34 0;
#X connect 31 0 25 0;
#X connect 32 0 26 0;
#X connect 34 0 38 0;
#X connect 35 0 36 0;
#X connect 36 0 34 0;
#X connect 37 0 34 0;
#X connect 39 0 40 0;
#X connect 40 0 41 0;
#X connect 41 0 10 4;
#X connect 41 1 42 0;
#X connect 42 0 43 0;
#X connect 43 0 10 3;
#X connect 43 1 10 5;
#X connect 44 0 3 0;
#X restore 310 294 pd lowpass~;
#X obj 670 383 *~;
#X obj 362 252 loadbang;
#X obj 224 335 *~ 0.5;
#X obj 224 591 *~;
#X obj 708 577 line~;
#X obj 693 52 inlet;
#X obj 660 31 r \$0-trg-snr;
#X obj 660 73 spigot;
#X obj 660 94 s \$0-clr-snr;
#X obj 486 511 r \$0-clr-snr;
#X msg 486 532 clear;
#X obj 321 483 r \$0-clr-snr;
#X obj 720 327 r \$0-vel-snr;
#X obj 375 630 noise~;
#X obj 265 52 inlet;
#X obj 250 73 f;
#X obj 250 31 r \$0-trg-snr;
#X obj 250 115 s \$0-fbk-snr;
#X obj 461 387 *~;
#X obj 512 373 r \$0-fbk-snr;
#X obj 535 331 r \$0-clr-snr;
#X msg 535 352 clear;
#X obj 224 659 outlet~;
#X msg 310 182 seed 16;
#X obj 375 750 *~;
#X obj 407 736 r \$0-nse-snr;
#X obj 224 162 vline~;
#X obj 720 348 sqrt;
#X msg 362 273 0.4;
#X msg 670 263 1 \, 0 80;
#X obj 455 626 hip~ 100;
#X obj 670 327 pow~ 2;
#X obj 224 567 *~;
#X obj 455 647 env~;
#X obj 455 668 dbtorms;
#X obj 455 710 line~;
#X msg 455 689 \$1 1;
#X obj 253 455 sig~ 1000;
#X obj 253 476 /~;
#X obj 334 441 *~;
#X obj 334 462 *~;
#X obj 366 406 r \$0-vel-snr;
#X obj 268 427 sig~;
#X obj 461 366 hip~ 20;
#X obj 574 296 + 2;
#X obj 574 275 * 1;
#X obj 366 427 * 1;
#X obj 454 455 * 6;
#X obj 310 342 *~ 2;
#X obj 417 232 / 3;
#X obj 670 306 pow~ 10;
#X obj 417 169 * 3;
#X obj 366 448 + 1;
#X obj 390 333 * -24;
#X obj 720 369 * 0.7;
#X obj 224 633 +~;
#X obj 250 94 clip -1 1;
#X text 375 610 //Noise Layer;
#X text 476 234 //Frequency;
#X text 60 11 Velocity/Trigger;
#X text 170 11 Frequency;
#X text 250 11 Feedback;
#X text 330 11 Damping;
#X text 410 11 APF Gain;
#X text 490 11 APF Frequency;
#X text 580 11 Noise Level;
#X text 660 11 Clear;
#X text 124 314 Sine Impulse ->;
#X text 670 222 //Pitch Bend Env.;
#X text 708 463 //Amplitude Reset;
#X text 708 473 (prevents clicks);
#X text 174 525 APF ->;
#X text 534 434 <- Damping;
#X text 114 546 LPF (Damping) ->;
#X text 134 612 Distortion ->;
#X text 592 373 <- Feedback;
#X text 310 141 //Noise Impulse;
#X obj 310 389 *~;
#X obj 310 363 *~ 2;
#X msg 224 141 1 0.25 \, 0 0.25 \$1;
#X obj 99 73 clip 0 127;
#X obj 614 647 env~;
#X obj 614 668 change;
#X obj 614 689 sel 0;
#X msg 614 710 0;
#X msg 708 712 1;
#X obj 614 731 switch~ 1 1 1;
#X text 616 625 Turns DSP off at silence;
#X text 616 615 //Turns DSP on at trigger;
#X connect 0 0 1 0;
#X connect 1 0 8 0;
#X connect 1 0 172 0;
#X connect 2 0 92 0;
#X connect 3 0 141 0;
#X connect 4 0 136 0;
#X connect 6 0 7 0;
#X connect 7 0 4 0;
#X connect 8 0 9 0;
#X connect 9 0 10 0;
#X connect 10 0 11 0;
#X connect 11 0 95 0;
#X connect 12 0 81 0;
#X connect 13 0 12 0;
#X connect 14 0 13 0;
#X connect 15 0 16 0;
#X connect 16 0 146 0;
#X connect 17 0 18 0;
#X connect 18 0 14 1;
#X connect 18 0 170 1;
#X connect 19 0 117 0;
#X connect 20 0 28 0;
#X connect 21 0 20 0;
#X connect 22 0 123 0;
#X connect 22 0 148 0;
#X connect 23 0 13 1;
#X connect 24 0 14 0;
#X connect 25 0 143 0;
#X connect 26 0 27 0;
#X connect 27 0 7 1;
#X connect 28 0 19 0;
#X connect 29 0 30 1;
#X connect 30 0 38 0;
#X connect 31 0 32 1;
#X connect 32 0 72 0;
#X connect 34 0 35 1;
#X connect 35 0 40 0;
#X connect 36 0 37 1;
#X connect 37 0 42 0;
#X connect 38 0 39 0;
#X connect 40 0 41 0;
#X connect 42 0 43 0;
#X connect 44 0 45 1;
#X connect 45 0 47 0;
#X connect 47 0 46 0;
#X connect 48 0 0 0;
#X connect 49 0 116 0;
#X connect 49 0 92 3;
#X connect 50 0 54 0;
#X connect 51 0 144 0;
#X connect 52 0 53 0;
#X connect 53 0 142 0;
#X connect 54 0 92 1;
#X connect 55 0 122 0;
#X connect 56 0 138 0;
#X connect 57 0 58 0;
#X connect 58 1 173 0;
#X connect 59 0 86 0;
#X connect 59 1 60 0;
#X connect 60 0 61 0;
#X connect 61 0 90 0;
#X connect 64 0 30 0;
#X connect 65 0 32 0;
#X connect 66 0 35 0;
#X connect 67 0 37 0;
#X connect 68 0 45 0;
#X connect 69 0 15 0;
#X connect 70 0 12 2;
#X connect 71 0 135 0;
#X connect 72 0 33 0;
#X connect 73 0 7 1;
#X connect 73 0 26 0;
#X connect 74 0 73 0;
#X connect 75 0 140 0;
#X connect 76 0 80 0;
#X connect 77 0 78 0;
#X connect 78 0 79 0;
#X connect 79 0 80 1;
#X connect 80 0 81 1;
#X connect 81 0 125 0;
#X connect 82 0 97 0;
#X connect 83 0 84 0;
#X connect 84 0 97 0;
#X connect 85 0 82 0;
#X connect 85 1 83 0;
#X connect 86 0 87 0;
#X connect 86 1 88 0;
#X connect 87 0 63 0;
#X connect 89 0 85 0;
#X connect 89 0 178 0;
#X connect 90 0 62 0;
#X connect 91 0 125 1;
#X connect 92 0 3 0;
#X connect 93 0 91 0;
#X connect 94 0 121 0;
#X connect 95 0 24 0;
#X connect 96 0 22 0;
#X connect 97 0 96 1;
#X connect 98 0 100 1;
#X connect 99 0 100 0;
#X connect 100 0 101 0;
#X connect 102 0 103 0;
#X connect 103 0 5 0;
#X connect 103 0 81 0;
#X connect 104 0 12 3;
#X connect 105 0 120 0;
#X connect 106 0 20 0;
#X connect 106 0 21 0;
#X connect 107 0 108 1;
#X connect 108 0 149 0;
#X connect 109 0 108 0;
#X connect 111 0 23 0;
#X connect 112 0 111 1;
#X connect 113 0 114 0;
#X connect 114 0 136 0;
#X connect 116 0 2 0;
#X connect 117 0 148 1;
#X connect 118 0 117 1;
#X connect 119 0 3 1;
#X connect 120 0 147 0;
#X connect 121 0 92 2;
#X connect 122 0 25 0;
#X connect 123 0 126 0;
#X connect 124 0 93 0;
#X connect 124 0 132 1;
#X connect 125 0 5 0;
#X connect 125 0 96 0;
#X connect 126 0 127 0;
#X connect 127 0 129 0;
#X connect 128 0 19 1;
#X connect 129 0 128 0;
#X connect 130 0 131 0;
#X connect 131 0 12 1;
#X connect 132 0 133 0;
#X connect 133 0 131 1;
#X connect 134 0 139 0;
#X connect 135 0 131 1;
#X connect 135 0 132 0;
#X connect 136 0 111 0;
#X connect 137 0 27 1;
#X connect 138 0 137 0;
#X connect 139 0 145 0;
#X connect 140 0 77 0;
#X connect 141 0 24 1;
#X connect 141 0 171 0;
#X connect 142 0 54 1;
#X connect 143 0 26 1;
#X connect 143 0 124 0;
#X connect 144 0 52 0;
#X connect 145 0 133 1;
#X connect 146 0 17 0;
#X connect 147 0 93 1;
#X connect 148 0 115 0;
#X connect 148 0 174 0;
#X connect 149 0 110 0;
#X connect 170 0 96 0;
#X connect 171 0 170 0;
#X connect 172 0 119 0;
#X connect 173 0 59 0;
#X connect 174 0 175 0;
#X connect 175 0 176 0;
#X connect 176 0 177 0;
#X connect 177 0 179 0;
#X connect 178 0 179 0;
#X restore 351 678 pd engine;
#X f 59;
#X obj 405 403 hsl 128 15 70 500 1 1 empty empty FREQUENCY -2 -8 0 10 #fcfcfc #000000 #000000 6450 1;
#X obj 808 408 hsl 128 15 0 1 0 1 empty empty DAMPING -2 -8 0 10 #fcfcfc #000000 #000000 6350 1;
#X obj 993 409 hsl 128 15 -1 1 0 1 empty empty APF-GAIN -2 -8 0 10 #fcfcfc #000000 #000000 5300 1;
#X obj 1178 410 hsl 128 15 70 500 1 1 empty empty APF-FREQUENCY -2 -8 0 10 #fcfcfc #000000 #000000 12700 1;
#X obj 612 408 hsl 128 15 0.5 1 1 1 empty empty FEEDBACK -2 -8 0 10 #fcfcfc #000000 #000000 8612 1;
#X obj 1403 404 hsl 128 15 0.001 1 1 1 empty empty NOISE-LEVEL -2 -8 0 10 #fcfcfc #000000 #000000 6688 1;
#X floatatom 535 403 5 0 0 1 Hz - - 0;
#X floatatom 938 408 5 0 0 0 - - - 0;
#X floatatom 1308 410 5 0 0 1 Hz - - 0;
#X floatatom 742 408 5 0 0 1 - - - 0;
#X floatatom 1123 409 5 0 0 0 - - - 0;
#X floatatom 1533 404 5 0 0 0 - - - 0;
#X obj 145 887 outlet~;
#X obj 119 177 hsl 128 15 0 127 0 1 \$0-feedback-s \$0-feedback-r FEEDBACK 133 7 0 10 #fcfcfc #000000 #000000 12700 1;
#X obj 119 158 hsl 128 15 0 127 0 1 \$0-frequency-cv-s \$0-frequency-cv-r FREQ-/+ 133 7 0 10 #90d3b0 #000000 #000000 4500 1;
#X obj 119 143 hsl 128 15 0 127 0 1 \$0-frequency-s \$0-frequency-r FREQUENCY 133 7 0 10 #fcfcfc #000000 #000000 12700 1;
#X obj 119 192 hsl 128 15 0 127 0 1 \$0-feedback-cv-s \$0-feedback-cv-r FEED-/+ 133 7 0 10 #90d3b0 #000000 #000000 0 1;
#X obj 119 211 hsl 128 15 0 127 0 1 \$0-damping-s \$0-damping-r DAMPING 133 7 0 10 #fcfcfc #000000 #000000 12700 1;
#X obj 119 226 hsl 128 15 0 127 0 1 \$0-damping-cv-s \$0-damping-cv-r DAMP-/+ 133 7 0 10 #90d3b0 #000000 #000000 12700 1;
#X obj 119 245 hsl 128 15 0 127 0 1 \$0-adf-gain-s \$0-adf-gain-r ADF-GAIN 133 7 0 10 #fcfcfc #000000 #000000 5300 1;
#X obj 119 260 hsl 128 15 0 127 0 1 \$0-adf-gain-cv-s \$0-adf-gain-cv-r ADF-/+ 133 7 0 10 #90d3b0 #000000 #000000 0 1;
#X obj 119 279 hsl 128 15 0 127 0 1 \$0-APF-FREQUENCY-s \$0-APF-FREQUENCY-r APF-FREQ 133 7 0 10 #fcfcfc #000000 #000000 12700 1;
#X obj 119 294 hsl 128 15 0 127 0 1 \$0-apf-gain-cv-s \$0-apf-gain-cv-r APF-/+ 133 7 0 10 #90d3b0 #000000 #000000 11500 1;
#X obj 119 313 hsl 128 15 0 127 0 1 \$0-noise-s \$0-noise-r NOISE 133 7 0 10 #fcfcfc #000000 #000000 12700 1;
#X obj 119 328 hsl 128 15 0 127 0 1 \$0-noise-cv-s \$0-noise-cv-r NOISE-/+ 133 7 0 10 #90d3b0 #000000 #000000 0 1;
#N canvas 403 62 926 752 state-saving-multiple-instances 0;
#X obj 461 15 loadbang;
#X obj 451 449 textfile;
#X msg 813 259 rewind;
#X msg 770 259 bang;
#X obj 109 691 textfile;
#X obj 770 220 t b b;
#X obj 110 357 f;
#X obj 48 403 t b b b;
#X msg 163 529 clear;
#X obj 527 204 outlet;
#X text 523 224 INSTANCE NUMBER;
#X obj 454 139 f \$1;
#X obj 454 175 t f f f;
#X obj 48 378 bng 15 250 50 0 empty empty empty 17 7 0 10 #fcfcfc #000000 #000000;
#X obj 48 274 r SAVE-S;
#X obj 557 15 r \$0-reload!;
#X obj 147 100 r \$0-frequency-s;
#X obj 154 119 r \$0-frequency-cv-s;
#X obj 161 138 r \$0-feedback-s;
#X obj 170 157 r \$0-feedback-cv-s;
#X obj 180 178 r \$0-damping-s;
#X obj 188 200 r \$0-damping-cv-s;
#X obj 200 221 r \$0-adf-gain-s;
#X obj 212 242 r \$0-adf-gain-cv-s;
#X obj 231 262 r \$0-APF-FREQUENCY-s;
#X obj 242 282 r \$0-apf-gain-cv-s;
#X obj 254 305 r \$0-noise-s;
#X obj 268 327 r \$0-noise-cv-s;
#X obj 472 758 s \$0-frequency-cv-r;
#X obj 487 739 s \$0-feedback-r;
#X obj 502 720 s \$0-feedback-cv-r;
#X obj 516 700 s \$0-damping-r;
#X obj 542 662 s \$0-adf-gain-r;
#X obj 529 680 s \$0-damping-cv-r;
#X obj 621 569 s \$0-noise-cv-r;
#X obj 605 587 s \$0-noise-r;
#X obj 589 606 s \$0-apf-gain-cv-r;
#X obj 574 624 s \$0-APF-FREQUENCY-r;
#X obj 558 643 s \$0-adf-gain-cv-r;
#X obj 458 776 s \$0-frequency-r;
#X obj 510 299 r patch-path;
#X obj 465 318 pack f s;
#X obj 454 272 f;
#X obj 454 293 t b f;
#X obj 500 72 s update-path;
#X msg 454 358 read /Users/johannklug/Documents/Bass\ Dieter/2025/Diet/MODULAR_LIVE_\ PERFORMER/patch1/statesave/1-mymembrane-ss.txt;
#X obj 461 48 t b b b;
#X msg 465 337 set read \$2/statesave/\$1-mymembrane-ss.txt;
#X obj 172 562 r patch-path;
#X obj 127 581 pack f s;
#X obj 116 535 f;
#X obj 116 556 t b f;
#X msg 116 621 write /Users/johannklug/Documents/Bass\ Dieter/2025/Diet/MODULAR_LIVE_\ PERFORMER/patch1/statesave/37-mymembrane-ss.txt;
#X msg 127 600 set write \$2/statesave/\$1-mymembrane-ss.txt;
#X obj 411 8 bng 16 250 50 0 empty empty empty 0 -8 0 10 #fcfcfc #000000 #000000;
#X obj 110 400 pack f f f f f f f f f f f f f f;
#X msg 110 438 set \$1 \$2 \$3 \$4 \$5 \$6 \$7 \$8 \$9 \$10 \$11 \$12 \$13 \$14;
#X obj 451 468 unpack f f f f f f f f f f f f f f;
#X obj 283 347 r \$0-main-menu-s;
#X obj 299 366 r \$0-sub-menu-s;
#X obj 637 548 s \$0-main-menu-r;
#X obj 654 527 s \$0-sub-menu-r;
#X connect 0 0 46 0;
#X connect 1 0 57 0;
#X connect 2 0 1 0;
#X connect 3 0 1 0;
#X connect 5 0 3 0;
#X connect 5 1 2 0;
#X connect 6 0 55 0;
#X connect 7 0 50 0;
#X connect 7 1 6 0;
#X connect 7 2 8 0;
#X connect 8 0 4 0;
#X connect 11 0 12 0;
#X connect 12 0 50 1;
#X connect 12 1 42 0;
#X connect 12 2 9 0;
#X connect 13 0 7 0;
#X connect 14 0 13 0;
#X connect 15 0 46 0;
#X connect 16 0 6 1;
#X connect 17 0 55 1;
#X connect 18 0 55 2;
#X connect 19 0 55 3;
#X connect 20 0 55 4;
#X connect 21 0 55 5;
#X connect 22 0 55 6;
#X connect 23 0 55 7;
#X connect 24 0 55 8;
#X connect 25 0 55 9;
#X connect 26 0 55 10;
#X connect 27 0 55 11;
#X connect 40 0 41 1;
#X connect 41 0 47 0;
#X connect 42 0 43 0;
#X connect 43 0 45 0;
#X connect 43 1 41 0;
#X connect 45 0 1 0;
#X connect 46 0 5 0;
#X connect 46 1 11 0;
#X connect 46 2 44 0;
#X connect 47 0 45 0;
#X connect 48 0 49 1;
#X connect 49 0 53 0;
#X connect 50 0 51 0;
#X connect 51 0 52 0;
#X connect 51 1 49 0;
#X connect 52 0 4 0;
#X connect 53 0 52 0;
#X connect 54 0 46 0;
#X connect 55 0 56 0;
#X connect 56 0 4 0;
#X connect 57 0 39 0;
#X connect 57 1 28 0;
#X connect 57 2 29 0;
#X connect 57 3 30 0;
#X connect 57 4 31 0;
#X connect 57 5 33 0;
#X connect 57 6 32 0;
#X connect 57 7 38 0;
#X connect 57 8 37 0;
#X connect 57 9 36 0;
#X connect 57 10 35 0;
#X connect 57 11 34 0;
#X connect 57 12 60 0;
#X connect 57 13 61 0;
#X connect 58 0 55 12;
#X connect 59 0 55 13;
#X restore -174 190 pd state-saving-multiple-instances;
#X obj -174 262 s \$0-instance-num;
#X obj -174 214 makefilename %d;
#X msg -174 239 label \$1;
#N canvas 81 22 1117 745 state-saving-via-preset-manager-module 0;
#X obj 478 210 textfile;
#X msg 756 193 rewind;
#X msg 713 193 bang;
#X obj 243 690 textfile;
#X obj 713 154 t b b;
#X obj 116 230 f;
#X obj 257 579 f;
#X obj 190 474 t b b b;
#X msg 373 621 clear;
#X obj 116 54 delay 5;
#X obj 190 529 delay 10;
#X msg 62 188 bang;
#X obj 62 29 r STORE-S!;
#X obj 478 111 f;
#X obj 451 68 t b b;
#X obj 466 32 t b f;
#X obj 523 129 f \$1;
#X obj 478 156 pack f f;
#X obj 523 79 loadbang;
#X obj 257 609 pack f f;
#X obj 302 562 loadbang;
#X obj 302 584 f \$1;
#X obj 466 -32 r preset-manager-scan;
#X obj 272 540 r preset-manager-store-slot;
#X obj 466 -10 i;
#X msg 256 650 write statesave/\$1-\$2-kick-ss.txt;
#X msg 478 185 read statesave/\$1-\$2-kick-ss.txt;
#X obj 205 -8 r \$0-kick-pitch-s;
#X obj 213 15 r \$0-kick-decay-s;
#X obj 236 36 r \$0-kick-envmod-s;
#X obj 259 57 r \$0-kick-sweep-s;
#X obj 300 81 r \$0-kick-wform-s;
#X obj 308 104 r \$0-flam-s;
#X obj 321 128 r \$0-flam-prob-s;
#X obj 332 155 r \$0-acc-prob-s;
#X obj 345 183 r \$0-acc-level-s;
#X obj 362 211 r \$0-drive-s;
#X obj 360 248 r \$0-tone-s;
#X obj 385 278 r \$0-load-s;
#X msg 199 379 set \$1 \$2 \$3 \$4 \$5 \$6 \$7 \$8 \$9 \$10 \$11 \$12;
#X obj 199 341 pack f f f f f f f f f f f f;
#X obj 480 254 unpack f f f f f f f f f f f f;
#X obj 483 743 s \$0-basic-osc-pitch-r;
#N canvas 0 22 1069 747 morph-parameters 0;
#X obj 176 94 inlet;
#X obj 176 236 pack f f;
#X obj 176 261 line;
#X obj 209 117 r preset-manager-morph-s;
#X msg 72 244 stop;
#X obj 72 214 r STOP-MORPH!;
#X obj 209 206 spigot;
#X obj 398 137 t f f;
#X obj 455 154 == 0;
#X obj 221 176 f;
#X floatatom 455 222 5 0 0 0 - - - 0;
#X obj 398 159 t b f;
#X floatatom 425 192 5 0 0 0 - - - 0;
#X obj 209 139 t f f;
#X obj 398 102 r parameters-s;
#X obj 176 288 outlet;
#X connect 0 0 1 0;
#X connect 1 0 2 0;
#X connect 2 0 15 0;
#X connect 3 0 13 0;
#X connect 4 0 2 0;
#X connect 5 0 4 0;
#X connect 6 0 1 1;
#X connect 7 0 11 0;
#X connect 7 1 8 0;
#X connect 8 0 10 0;
#X connect 9 0 6 0;
#X connect 10 0 1 1;
#X connect 11 0 9 0;
#X connect 11 1 12 0;
#X connect 12 0 6 1;
#X connect 13 0 6 0;
#X connect 13 1 9 1;
#X connect 14 0 7 0;
#X restore 502 669 pd morph-parameters;
#N canvas 0 22 1069 747 morph-attenuators 0;
#X obj 176 94 inlet;
#X obj 176 236 pack f f;
#X obj 176 261 line;
#X obj 209 117 r preset-manager-morph-s;
#X msg 72 244 stop;
#X obj 72 214 r STOP-MORPH!;
#X obj 209 206 spigot;
#X obj 398 137 t f f;
#X obj 455 154 == 0;
#X obj 221 176 f;
#X floatatom 455 222 5 0 0 0 - - - 0;
#X obj 398 159 t b f;
#X floatatom 425 192 5 0 0 0 - - - 0;
#X obj 209 139 t f f;
#X obj 398 102 r attenuators-s;
#X obj 176 288 outlet;
#X connect 0 0 1 0;
#X connect 1 0 2 0;
#X connect 2 0 15 0;
#X connect 3 0 13 0;
#X connect 4 0 2 0;
#X connect 5 0 4 0;
#X connect 6 0 1 1;
#X connect 7 0 11 0;
#X connect 7 1 8 0;
#X connect 8 0 10 0;
#X connect 9 0 6 0;
#X connect 10 0 1 1;
#X connect 11 0 9 0;
#X connect 11 1 12 0;
#X connect 12 0 6 1;
#X connect 13 0 6 0;
#X connect 13 1 9 1;
#X connect 14 0 7 0;
#X restore 611 338 pd morph-attenuators;
#X obj 502 692 s \$0-kick-decay-r;
#N canvas 0 22 1069 747 morph-parameters 0;
#X obj 176 94 inlet;
#X obj 176 236 pack f f;
#X obj 176 261 line;
#X obj 209 117 r preset-manager-morph-s;
#X msg 72 244 stop;
#X obj 72 214 r STOP-MORPH!;
#X obj 209 206 spigot;
#X obj 398 137 t f f;
#X obj 455 154 == 0;
#X obj 221 176 f;
#X floatatom 455 222 5 0 0 0 - - - 0;
#X obj 398 159 t b f;
#X floatatom 425 192 5 0 0 0 - - - 0;
#X obj 209 139 t f f;
#X obj 398 102 r parameters-s;
#X obj 176 288 outlet;
#X connect 0 0 1 0;
#X connect 1 0 2 0;
#X connect 2 0 15 0;
#X connect 3 0 13 0;
#X connect 4 0 2 0;
#X connect 5 0 4 0;
#X connect 6 0 1 1;
#X connect 7 0 11 0;
#X connect 7 1 8 0;
#X connect 8 0 10 0;
#X connect 9 0 6 0;
#X connect 10 0 1 1;
#X connect 11 0 9 0;
#X connect 11 1 12 0;
#X connect 12 0 6 1;
#X connect 13 0 6 0;
#X connect 13 1 9 1;
#X connect 14 0 7 0;
#X restore 521 619 pd morph-parameters;
#X obj 521 642 s \$0-kick-envmod-r;
#N canvas 0 22 1069 747 morph-parameters 0;
#X obj 176 94 inlet;
#X obj 176 236 pack f f;
#X obj 176 261 line;
#X obj 209 117 r preset-manager-morph-s;
#X msg 72 244 stop;
#X obj 72 214 r STOP-MORPH!;
#X obj 209 206 spigot;
#X obj 398 137 t f f;
#X obj 455 154 == 0;
#X obj 221 176 f;
#X floatatom 455 222 5 0 0 0 - - - 0;
#X obj 398 159 t b f;
#X floatatom 425 192 5 0 0 0 - - - 0;
#X obj 209 139 t f f;
#X obj 398 102 r parameters-s;
#X obj 176 288 outlet;
#X connect 0 0 1 0;
#X connect 1 0 2 0;
#X connect 2 0 15 0;
#X connect 3 0 13 0;
#X connect 4 0 2 0;
#X connect 5 0 4 0;
#X connect 6 0 1 1;
#X connect 7 0 11 0;
#X connect 7 1 8 0;
#X connect 8 0 10 0;
#X connect 9 0 6 0;
#X connect 10 0 1 1;
#X connect 11 0 9 0;
#X connect 11 1 12 0;
#X connect 12 0 6 1;
#X connect 13 0 6 0;
#X connect 13 1 9 1;
#X connect 14 0 7 0;
#X restore 540 568 pd morph-parameters;
#X obj 540 591 s \$0-kick-sweep-r;
#N canvas 0 22 1069 747 morph-parameters 0;
#X obj 176 94 inlet;
#X obj 176 236 pack f f;
#X obj 176 261 line;
#X obj 209 117 r preset-manager-morph-s;
#X msg 72 244 stop;
#X obj 72 214 r STOP-MORPH!;
#X obj 209 206 spigot;
#X obj 398 137 t f f;
#X obj 455 154 == 0;
#X obj 221 176 f;
#X floatatom 455 222 5 0 0 0 - - - 0;
#X obj 398 159 t b f;
#X floatatom 425 192 5 0 0 0 - - - 0;
#X obj 209 139 t f f;
#X obj 398 102 r parameters-s;
#X obj 176 288 outlet;
#X connect 0 0 1 0;
#X connect 1 0 2 0;
#X connect 2 0 15 0;
#X connect 3 0 13 0;
#X connect 4 0 2 0;
#X connect 5 0 4 0;
#X connect 6 0 1 1;
#X connect 7 0 11 0;
#X connect 7 1 8 0;
#X connect 8 0 10 0;
#X connect 9 0 6 0;
#X connect 10 0 1 1;
#X connect 11 0 9 0;
#X connect 11 1 12 0;
#X connect 12 0 6 1;
#X connect 13 0 6 0;
#X connect 13 1 9 1;
#X connect 14 0 7 0;
#X restore 552 520 pd morph-parameters;
#X obj 552 543 s \$0-kick-wform-r;
#N canvas 0 22 1069 747 morph-frequencies 0;
#X obj 176 94 inlet;
#X obj 176 236 pack f f;
#X obj 176 261 line;
#X obj 209 117 r preset-manager-morph-s;
#X msg 72 244 stop;
#X obj 72 214 r STOP-MORPH!;
#X obj 398 102 r frequencies-s;
#X obj 209 206 spigot;
#X obj 398 137 t f f;
#X obj 455 154 == 0;
#X obj 221 176 f;
#X floatatom 455 222 5 0 0 0 - - - 0;
#X obj 398 159 t b f;
#X floatatom 425 192 5 0 0 0 - - - 0;
#X obj 209 139 t f f;
#X obj 176 283 outlet;
#X connect 0 0 1 0;
#X connect 1 0 2 0;
#X connect 2 0 15 0;
#X connect 3 0 14 0;
#X connect 4 0 2 0;
#X connect 5 0 4 0;
#X connect 6 0 8 0;
#X connect 7 0 1 1;
#X connect 8 0 12 0;
#X connect 8 1 9 0;
#X connect 9 0 11 0;
#X connect 10 0 7 0;
#X connect 11 0 1 1;
#X connect 12 0 10 0;
#X connect 12 1 13 0;
#X connect 13 0 7 1;
#X connect 14 0 7 0;
#X connect 14 1 10 1;
#X restore 483 720 pd morph-frequencies;
#N canvas 0 22 1069 747 morph-parameters 0;
#X obj 176 94 inlet;
#X obj 176 236 pack f f;
#X obj 176 261 line;
#X obj 209 117 r preset-manager-morph-s;
#X msg 72 244 stop;
#X obj 72 214 r STOP-MORPH!;
#X obj 209 206 spigot;
#X obj 398 137 t f f;
#X obj 455 154 == 0;
#X obj 221 176 f;
#X floatatom 455 222 5 0 0 0 - - - 0;
#X obj 398 159 t b f;
#X floatatom 425 192 5 0 0 0 - - - 0;
#X obj 209 139 t f f;
#X obj 398 102 r parameters-s;
#X obj 176 288 outlet;
#X connect 0 0 1 0;
#X connect 1 0 2 0;
#X connect 2 0 15 0;
#X connect 3 0 13 0;
#X connect 4 0 2 0;
#X connect 5 0 4 0;
#X connect 6 0 1 1;
#X connect 7 0 11 0;
#X connect 7 1 8 0;
#X connect 8 0 10 0;
#X connect 9 0 6 0;
#X connect 10 0 1 1;
#X connect 11 0 9 0;
#X connect 11 1 12 0;
#X connect 12 0 6 1;
#X connect 13 0 6 0;
#X connect 13 1 9 1;
#X connect 14 0 7 0;
#X restore 565 473 pd morph-parameters;
#X obj 565 496 s \$0-flam-r;
#N canvas 0 22 1069 747 morph-parameters 0;
#X obj 176 94 inlet;
#X obj 176 236 pack f f;
#X obj 176 261 line;
#X obj 209 117 r preset-manager-morph-s;
#X msg 72 244 stop;
#X obj 72 214 r STOP-MORPH!;
#X obj 209 206 spigot;
#X obj 398 137 t f f;
#X obj 455 154 == 0;
#X obj 221 176 f;
#X floatatom 455 222 5 0 0 0 - - - 0;
#X obj 398 159 t b f;
#X floatatom 425 192 5 0 0 0 - - - 0;
#X obj 209 139 t f f;
#X obj 398 102 r parameters-s;
#X obj 176 288 outlet;
#X connect 0 0 1 0;
#X connect 1 0 2 0;
#X connect 2 0 15 0;
#X connect 3 0 13 0;
#X connect 4 0 2 0;
#X connect 5 0 4 0;
#X connect 6 0 1 1;
#X connect 7 0 11 0;
#X connect 7 1 8 0;
#X connect 8 0 10 0;
#X connect 9 0 6 0;
#X connect 10 0 1 1;
#X connect 11 0 9 0;
#X connect 11 1 12 0;
#X connect 12 0 6 1;
#X connect 13 0 6 0;
#X connect 13 1 9 1;
#X connect 14 0 7 0;
#X restore 581 425 pd morph-parameters;
#X obj 581 448 s \$0-flam-prob-r;
#N canvas 0 22 1069 747 morph-parameters 0;
#X obj 176 94 inlet;
#X obj 176 236 pack f f;
#X obj 176 261 line;
#X obj 209 117 r preset-manager-morph-s;
#X msg 72 244 stop;
#X obj 72 214 r STOP-MORPH!;
#X obj 209 206 spigot;
#X obj 398 137 t f f;
#X obj 455 154 == 0;
#X obj 221 176 f;
#X floatatom 455 222 5 0 0 0 - - - 0;
#X obj 398 159 t b f;
#X floatatom 425 192 5 0 0 0 - - - 0;
#X obj 209 139 t f f;
#X obj 398 102 r parameters-s;
#X obj 176 288 outlet;
#X connect 0 0 1 0;
#X connect 1 0 2 0;
#X connect 2 0 15 0;
#X connect 3 0 13 0;
#X connect 4 0 2 0;
#X connect 5 0 4 0;
#X connect 6 0 1 1;
#X connect 7 0 11 0;
#X connect 7 1 8 0;
#X connect 8 0 10 0;
#X connect 9 0 6 0;
#X connect 10 0 1 1;
#X connect 11 0 9 0;
#X connect 11 1 12 0;
#X connect 12 0 6 1;
#X connect 13 0 6 0;
#X connect 13 1 9 1;
#X connect 14 0 7 0;
#X restore 597 380 pd morph-parameters;
#X obj 597 403 s \$0-acc-prob-r;
#X obj 611 359 s \$0-acc-level-r;
#N canvas 0 22 1069 747 morph-parameters 0;
#X obj 176 94 inlet;
#X obj 176 236 pack f f;
#X obj 176 261 line;
#X obj 209 117 r preset-manager-morph-s;
#X msg 72 244 stop;
#X obj 72 214 r STOP-MORPH!;
#X obj 209 206 spigot;
#X obj 398 137 t f f;
#X obj 455 154 == 0;
#X obj 221 176 f;
#X floatatom 455 222 5 0 0 0 - - - 0;
#X obj 398 159 t b f;
#X floatatom 425 192 5 0 0 0 - - - 0;
#X obj 209 139 t f f;
#X obj 398 102 r parameters-s;
#X obj 176 288 outlet;
#X connect 0 0 1 0;
#X connect 1 0 2 0;
#X connect 2 0 15 0;
#X connect 3 0 13 0;
#X connect 4 0 2 0;
#X connect 5 0 4 0;
#X connect 6 0 1 1;
#X connect 7 0 11 0;
#X connect 7 1 8 0;
#X connect 8 0 10 0;
#X connect 9 0 6 0;
#X connect 10 0 1 1;
#X connect 11 0 9 0;
#X connect 11 1 12 0;
#X connect 12 0 6 1;
#X connect 13 0 6 0;
#X connect 13 1 9 1;
#X connect 14 0 7 0;
#X restore 749 512 pd morph-parameters;
#X obj 749 535 s \$0-drive-r;
#N canvas 0 22 1069 747 morph-parameters 0;
#X obj 176 94 inlet;
#X obj 176 236 pack f f;
#X obj 176 261 line;
#X obj 209 117 r preset-manager-morph-s;
#X msg 72 244 stop;
#X obj 72 214 r STOP-MORPH!;
#X obj 209 206 spigot;
#X obj 398 137 t f f;
#X obj 455 154 == 0;
#X obj 221 176 f;
#X floatatom 455 222 5 0 0 0 - - - 0;
#X obj 398 159 t b f;
#X floatatom 425 192 5 0 0 0 - - - 0;
#X obj 209 139 t f f;
#X obj 398 102 r parameters-s;
#X obj 176 288 outlet;
#X connect 0 0 1 0;
#X connect 1 0 2 0;
#X connect 2 0 15 0;
#X connect 3 0 13 0;
#X connect 4 0 2 0;
#X connect 5 0 4 0;
#X connect 6 0 1 1;
#X connect 7 0 11 0;
#X connect 7 1 8 0;
#X connect 8 0 10 0;
#X connect 9 0 6 0;
#X connect 10 0 1 1;
#X connect 11 0 9 0;
#X connect 11 1 12 0;
#X connect 12 0 6 1;
#X connect 13 0 6 0;
#X connect 13 1 9 1;
#X connect 14 0 7 0;
#X restore 763 442 pd morph-parameters;
#X obj 763 465 s \$0-tone-r;
#X obj 802 379 s \$0-load-r;
#X connect 0 0 41 0;
#X connect 1 0 0 0;
#X connect 2 0 0 0;
#X connect 4 0 2 0;
#X connect 4 1 1 0;
#X connect 5 0 40 0;
#X connect 6 0 19 0;
#X connect 7 0 10 0;
#X connect 7 1 9 0;
#X connect 7 2 8 0;
#X connect 8 0 3 0;
#X connect 9 0 5 0;
#X connect 10 0 6 0;
#X connect 11 0 7 0;
#X connect 12 0 11 0;
#X connect 13 0 17 0;
#X connect 14 0 4 0;
#X connect 14 1 13 0;
#X connect 15 0 14 0;
#X connect 15 1 13 1;
#X connect 16 0 17 1;
#X connect 17 0 26 0;
#X connect 18 0 16 0;
#X connect 19 0 25 0;
#X connect 20 0 21 0;
#X connect 21 0 19 1;
#X connect 22 0 24 0;
#X connect 23 0 6 1;
#X connect 24 0 15 0;
#X connect 25 0 3 0;
#X connect 26 0 0 0;
#X connect 27 0 5 1;
#X connect 28 0 40 1;
#X connect 29 0 40 2;
#X connect 30 0 40 3;
#X connect 31 0 40 4;
#X connect 32 0 40 5;
#X connect 33 0 40 6;
#X connect 34 0 40 7;
#X connect 35 0 40 8;
#X connect 36 0 40 9;
#X connect 37 0 40 10;
#X connect 38 0 40 11;
#X connect 39 0 3 0;
#X connect 40 0 39 0;
#X connect 41 0 52 0;
#X connect 41 1 43 0;
#X connect 41 2 46 0;
#X connect 41 3 48 0;
#X connect 41 4 50 0;
#X connect 41 5 53 0;
#X connect 41 6 55 0;
#X connect 41 7 57 0;
#X connect 41 8 44 0;
#X connect 41 9 60 0;
#X connect 41 10 62 0;
#X connect 41 11 64 0;
#X connect 43 0 45 0;
#X connect 44 0 59 0;
#X connect 46 0 47 0;
#X connect 48 0 49 0;
#X connect 50 0 51 0;
#X connect 52 0 42 0;
#X connect 53 0 54 0;
#X connect 55 0 56 0;
#X connect 57 0 58 0;
#X connect 60 0 61 0;
#X connect 62 0 63 0;
#X restore -174 165 pd state-saving-via-preset-manager-module;
#N canvas 297 27 981 701 parameter-nudging-system 0;
#X obj 23 70 clip 0 127;
#X obj 182 67 clip 0 127;
#X obj 337 65 clip 0 127;
#N canvas 0 22 484 497 nudge-parameters 0;
#X obj 124 234 random;
#X obj 232 335 f;
#X obj 232 368 +;
#X obj 257 166 random 2;
#X obj 124 275 t f f;
#X obj 124 351 t b f;
#X obj 124 297 *;
#X obj 257 188 sel 0 1;
#X msg 257 280 -1;
#X msg 335 280 1;
#X obj 124 149 t b b b;
#X obj 124 74 r NUDGE!;
#X obj 157 193 r NUDGE-RANGE;
#X obj 247 308 inlet;
#X obj 232 397 outlet;
#X obj 124 96 spigot;
#X obj 185 79 r parameters2-s;
#X connect 0 0 4 0;
#X connect 1 0 2 0;
#X connect 2 0 14 0;
#X connect 3 0 7 0;
#X connect 4 0 6 0;
#X connect 5 0 2 0;
#X connect 5 1 2 1;
#X connect 6 0 5 0;
#X connect 7 0 8 0;
#X connect 7 1 9 0;
#X connect 8 0 6 1;
#X connect 9 0 6 1;
#X connect 10 0 0 0;
#X connect 10 1 1 0;
#X connect 10 2 3 0;
#X connect 11 0 15 0;
#X connect 12 0 0 1;
#X connect 13 0 1 1;
#X connect 15 0 10 0;
#X connect 16 0 15 1;
#X restore 182 45 pd nudge-parameters;
#X obj 23 22 r \$0-kick-pitch-s;
#X obj 23 102 s \$0-kick-pitch-r;
#X obj 182 22 r \$0-kick-decay-s;
#X obj 182 99 s \$0-kick-decay-r;
#X obj 337 20 r \$0-kick-envmod-s;
#X obj 337 97 s \$0-kick-envmod-r;
#X obj 27 193 clip 0 127;
#N canvas 0 22 484 497 nudge-parameters 0;
#X obj 124 234 random;
#X obj 232 335 f;
#X obj 232 368 +;
#X obj 257 166 random 2;
#X obj 124 275 t f f;
#X obj 124 351 t b f;
#X obj 124 297 *;
#X obj 257 188 sel 0 1;
#X msg 257 280 -1;
#X msg 335 280 1;
#X obj 124 149 t b b b;
#X obj 124 74 r NUDGE!;
#X obj 157 193 r NUDGE-RANGE;
#X obj 247 308 inlet;
#X obj 232 397 outlet;
#X obj 124 96 spigot;
#X obj 185 79 r parameters2-s;
#X connect 0 0 4 0;
#X connect 1 0 2 0;
#X connect 2 0 14 0;
#X connect 3 0 7 0;
#X connect 4 0 6 0;
#X connect 5 0 2 0;
#X connect 5 1 2 1;
#X connect 6 0 5 0;
#X connect 7 0 8 0;
#X connect 7 1 9 0;
#X connect 8 0 6 1;
#X connect 9 0 6 1;
#X connect 10 0 0 0;
#X connect 10 1 1 0;
#X connect 10 2 3 0;
#X connect 11 0 15 0;
#X connect 12 0 0 1;
#X connect 13 0 1 1;
#X connect 15 0 10 0;
#X connect 16 0 15 1;
#X restore 27 171 pd nudge-parameters;
#X obj 209 191 clip 0 127;
#N canvas 0 22 484 497 nudge-parameters 0;
#X obj 124 234 random;
#X obj 232 335 f;
#X obj 232 368 +;
#X obj 257 166 random 2;
#X obj 124 275 t f f;
#X obj 124 351 t b f;
#X obj 124 297 *;
#X obj 257 188 sel 0 1;
#X msg 257 280 -1;
#X msg 335 280 1;
#X obj 124 149 t b b b;
#X obj 124 74 r NUDGE!;
#X obj 157 193 r NUDGE-RANGE;
#X obj 247 308 inlet;
#X obj 232 397 outlet;
#X obj 124 96 spigot;
#X obj 185 79 r parameters2-s;
#X connect 0 0 4 0;
#X connect 1 0 2 0;
#X connect 2 0 14 0;
#X connect 3 0 7 0;
#X connect 4 0 6 0;
#X connect 5 0 2 0;
#X connect 5 1 2 1;
#X connect 6 0 5 0;
#X connect 7 0 8 0;
#X connect 7 1 9 0;
#X connect 8 0 6 1;
#X connect 9 0 6 1;
#X connect 10 0 0 0;
#X connect 10 1 1 0;
#X connect 10 2 3 0;
#X connect 11 0 15 0;
#X connect 12 0 0 1;
#X connect 13 0 1 1;
#X connect 15 0 10 0;
#X connect 16 0 15 1;
#X restore 209 169 pd nudge-parameters;
#X obj 350 191 clip 0 127;
#N canvas 0 22 484 497 nudge-parameters 0;
#X obj 124 234 random;
#X obj 232 335 f;
#X obj 232 368 +;
#X obj 257 166 random 2;
#X obj 124 275 t f f;
#X obj 124 351 t b f;
#X obj 124 297 *;
#X obj 257 188 sel 0 1;
#X msg 257 280 -1;
#X msg 335 280 1;
#X obj 124 149 t b b b;
#X obj 124 74 r NUDGE!;
#X obj 157 193 r NUDGE-RANGE;
#X obj 247 308 inlet;
#X obj 232 397 outlet;
#X obj 124 96 spigot;
#X obj 185 79 r parameters2-s;
#X connect 0 0 4 0;
#X connect 1 0 2 0;
#X connect 2 0 14 0;
#X connect 3 0 7 0;
#X connect 4 0 6 0;
#X connect 5 0 2 0;
#X connect 5 1 2 1;
#X connect 6 0 5 0;
#X connect 7 0 8 0;
#X connect 7 1 9 0;
#X connect 8 0 6 1;
#X connect 9 0 6 1;
#X connect 10 0 0 0;
#X connect 10 1 1 0;
#X connect 10 2 3 0;
#X connect 11 0 15 0;
#X connect 12 0 0 1;
#X connect 13 0 1 1;
#X connect 15 0 10 0;
#X connect 16 0 15 1;
#X restore 350 169 pd nudge-parameters;
#X obj 27 148 r \$0-kick-sweep-s;
#X obj 27 225 s \$0-kick-sweep-r;
#X obj 209 146 r \$0-kick-wform-s;
#X obj 209 223 s \$0-kick-wform-r;
#X obj 350 146 r \$0-flam-s;
#X obj 350 223 s \$0-flam-r;
#X obj 23 309 clip 0 127;
#N canvas 0 22 484 497 nudge-parameters 0;
#X obj 124 234 random;
#X obj 232 335 f;
#X obj 232 368 +;
#X obj 257 166 random 2;
#X obj 124 275 t f f;
#X obj 124 351 t b f;
#X obj 124 297 *;
#X obj 257 188 sel 0 1;
#X msg 257 280 -1;
#X msg 335 280 1;
#X obj 124 149 t b b b;
#X obj 124 74 r NUDGE!;
#X obj 157 193 r NUDGE-RANGE;
#X obj 247 308 inlet;
#X obj 232 397 outlet;
#X obj 124 96 spigot;
#X obj 185 79 r parameters2-s;
#X connect 0 0 4 0;
#X connect 1 0 2 0;
#X connect 2 0 14 0;
#X connect 3 0 7 0;
#X connect 4 0 6 0;
#X connect 5 0 2 0;
#X connect 5 1 2 1;
#X connect 6 0 5 0;
#X connect 7 0 8 0;
#X connect 7 1 9 0;
#X connect 8 0 6 1;
#X connect 9 0 6 1;
#X connect 10 0 0 0;
#X connect 10 1 1 0;
#X connect 10 2 3 0;
#X connect 11 0 15 0;
#X connect 12 0 0 1;
#X connect 13 0 1 1;
#X connect 15 0 10 0;
#X connect 16 0 15 1;
#X restore 23 287 pd nudge-parameters;
#X obj 205 307 clip 0 127;
#N canvas 0 22 484 497 nudge-parameters 0;
#X obj 124 234 random;
#X obj 232 335 f;
#X obj 232 368 +;
#X obj 257 166 random 2;
#X obj 124 275 t f f;
#X obj 124 351 t b f;
#X obj 124 297 *;
#X obj 257 188 sel 0 1;
#X msg 257 280 -1;
#X msg 335 280 1;
#X obj 124 149 t b b b;
#X obj 124 74 r NUDGE!;
#X obj 157 193 r NUDGE-RANGE;
#X obj 247 308 inlet;
#X obj 232 397 outlet;
#X obj 124 96 spigot;
#X obj 185 79 r parameters2-s;
#X connect 0 0 4 0;
#X connect 1 0 2 0;
#X connect 2 0 14 0;
#X connect 3 0 7 0;
#X connect 4 0 6 0;
#X connect 5 0 2 0;
#X connect 5 1 2 1;
#X connect 6 0 5 0;
#X connect 7 0 8 0;
#X connect 7 1 9 0;
#X connect 8 0 6 1;
#X connect 9 0 6 1;
#X connect 10 0 0 0;
#X connect 10 1 1 0;
#X connect 10 2 3 0;
#X connect 11 0 15 0;
#X connect 12 0 0 1;
#X connect 13 0 1 1;
#X connect 15 0 10 0;
#X connect 16 0 15 1;
#X restore 205 285 pd nudge-parameters;
#N canvas 0 22 484 497 nudge-attenuators 0;
#X obj 124 234 random;
#X obj 232 335 f;
#X obj 232 368 +;
#X obj 257 166 random 2;
#X obj 124 275 t f f;
#X obj 124 351 t b f;
#X obj 124 297 *;
#X obj 257 188 sel 0 1;
#X msg 257 280 -1;
#X msg 335 280 1;
#X obj 124 149 t b b b;
#X obj 124 71 r NUDGE!;
#X obj 157 193 r NUDGE-RANGE;
#X obj 247 308 inlet;
#X obj 232 397 outlet;
#X obj 124 93 spigot;
#X obj 201 76 r attenuators2-s;
#X connect 0 0 4 0;
#X connect 1 0 2 0;
#X connect 2 0 14 0;
#X connect 3 0 7 0;
#X connect 4 0 6 0;
#X connect 5 0 2 0;
#X connect 5 1 2 1;
#X connect 6 0 5 0;
#X connect 7 0 8 0;
#X connect 7 1 9 0;
#X connect 8 0 6 1;
#X connect 9 0 6 1;
#X connect 10 0 0 0;
#X connect 10 1 1 0;
#X connect 10 2 3 0;
#X connect 11 0 15 0;
#X connect 12 0 0 1;
#X connect 13 0 1 1;
#X connect 15 0 10 0;
#X connect 16 0 15 1;
#X restore 353 280 pd nudge-attenuators;
#N canvas 0 22 484 497 nudge-parameters 0;
#X obj 124 234 random;
#X obj 232 335 f;
#X obj 232 368 +;
#X obj 257 166 random 2;
#X obj 124 275 t f f;
#X obj 124 351 t b f;
#X obj 124 297 *;
#X obj 257 188 sel 0 1;
#X msg 257 280 -1;
#X msg 335 280 1;
#X obj 124 149 t b b b;
#X obj 124 74 r NUDGE!;
#X obj 157 193 r NUDGE-RANGE;
#X obj 247 308 inlet;
#X obj 232 397 outlet;
#X obj 124 96 spigot;
#X obj 185 79 r parameters2-s;
#X connect 0 0 4 0;
#X connect 1 0 2 0;
#X connect 2 0 14 0;
#X connect 3 0 7 0;
#X connect 4 0 6 0;
#X connect 5 0 2 0;
#X connect 5 1 2 1;
#X connect 6 0 5 0;
#X connect 7 0 8 0;
#X connect 7 1 9 0;
#X connect 8 0 6 1;
#X connect 9 0 6 1;
#X connect 10 0 0 0;
#X connect 10 1 1 0;
#X connect 10 2 3 0;
#X connect 11 0 15 0;
#X connect 12 0 0 1;
#X connect 13 0 1 1;
#X connect 15 0 10 0;
#X connect 16 0 15 1;
#X restore 337 41 pd nudge-parameters;
#X obj 354 305 clip 0 127;
#X obj 353 254 r \$0-acc-level-s;
#X obj 354 331 s \$0-acc-level-r;
#X obj 23 264 r \$0-flam-prob-s;
#X obj 23 341 s \$0-flam-prob-r;
#X obj 205 262 r \$0-acc-prob-s;
#X obj 205 339 s \$0-acc-prob-r;
#X obj 23 448 clip 0 127;
#N canvas 0 22 484 497 nudge-parameters 0;
#X obj 124 234 random;
#X obj 232 335 f;
#X obj 232 368 +;
#X obj 257 166 random 2;
#X obj 124 275 t f f;
#X obj 124 351 t b f;
#X obj 124 297 *;
#X obj 257 188 sel 0 1;
#X msg 257 280 -1;
#X msg 335 280 1;
#X obj 124 149 t b b b;
#X obj 124 74 r NUDGE!;
#X obj 157 193 r NUDGE-RANGE;
#X obj 247 308 inlet;
#X obj 232 397 outlet;
#X obj 124 96 spigot;
#X obj 185 79 r parameters2-s;
#X connect 0 0 4 0;
#X connect 1 0 2 0;
#X connect 2 0 14 0;
#X connect 3 0 7 0;
#X connect 4 0 6 0;
#X connect 5 0 2 0;
#X connect 5 1 2 1;
#X connect 6 0 5 0;
#X connect 7 0 8 0;
#X connect 7 1 9 0;
#X connect 8 0 6 1;
#X connect 9 0 6 1;
#X connect 10 0 0 0;
#X connect 10 1 1 0;
#X connect 10 2 3 0;
#X connect 11 0 15 0;
#X connect 12 0 0 1;
#X connect 13 0 1 1;
#X connect 15 0 10 0;
#X connect 16 0 15 1;
#X restore 23 426 pd nudge-parameters;
#X obj 205 446 clip 0 127;
#N canvas 0 22 484 497 nudge-parameters 0;
#X obj 124 234 random;
#X obj 232 335 f;
#X obj 232 368 +;
#X obj 257 166 random 2;
#X obj 124 275 t f f;
#X obj 124 351 t b f;
#X obj 124 297 *;
#X obj 257 188 sel 0 1;
#X msg 257 280 -1;
#X msg 335 280 1;
#X obj 124 149 t b b b;
#X obj 124 74 r NUDGE!;
#X obj 157 193 r NUDGE-RANGE;
#X obj 247 308 inlet;
#X obj 232 397 outlet;
#X obj 124 96 spigot;
#X obj 185 79 r parameters2-s;
#X connect 0 0 4 0;
#X connect 1 0 2 0;
#X connect 2 0 14 0;
#X connect 3 0 7 0;
#X connect 4 0 6 0;
#X connect 5 0 2 0;
#X connect 5 1 2 1;
#X connect 6 0 5 0;
#X connect 7 0 8 0;
#X connect 7 1 9 0;
#X connect 8 0 6 1;
#X connect 9 0 6 1;
#X connect 10 0 0 0;
#X connect 10 1 1 0;
#X connect 10 2 3 0;
#X connect 11 0 15 0;
#X connect 12 0 0 1;
#X connect 13 0 1 1;
#X connect 15 0 10 0;
#X connect 16 0 15 1;
#X restore 205 424 pd nudge-parameters;
#X obj 23 403 r \$0-drive-s;
#X obj 23 480 s \$0-drive-r;
#X obj 205 401 r \$0-tone-s;
#X obj 205 478 s \$0-tone-r;
#N canvas 0 22 484 497 nudge-freq 0;
#X obj 124 234 random;
#X obj 232 335 f;
#X obj 232 368 +;
#X obj 257 166 random 2;
#X obj 124 275 t f f;
#X obj 124 351 t b f;
#X obj 124 297 *;
#X obj 257 188 sel 0 1;
#X msg 257 280 -1;
#X msg 335 280 1;
#X obj 124 149 t b b b;
#X obj 124 51 r NUDGE!;
#X obj 157 193 r NUDGE-RANGE;
#X obj 247 308 inlet;
#X obj 232 397 outlet;
#X obj 124 73 spigot;
#X obj 185 56 r frequencies2-s;
#X connect 0 0 4 0;
#X connect 1 0 2 0;
#X connect 2 0 14 0;
#X connect 3 0 7 0;
#X connect 4 0 6 0;
#X connect 5 0 2 0;
#X connect 5 1 2 1;
#X connect 6 0 5 0;
#X connect 7 0 8 0;
#X connect 7 1 9 0;
#X connect 8 0 6 1;
#X connect 9 0 6 1;
#X connect 10 0 0 0;
#X connect 10 1 1 0;
#X connect 10 2 3 0;
#X connect 11 0 15 0;
#X connect 12 0 0 1;
#X connect 13 0 1 1;
#X connect 15 0 10 0;
#X connect 16 0 15 1;
#X restore 22 48 pd nudge-freq;
#X connect 0 0 5 0;
#X connect 1 0 7 0;
#X connect 2 0 9 0;
#X connect 3 0 1 0;
#X connect 4 0 43 0;
#X connect 6 0 3 0;
#X connect 8 0 27 0;
#X connect 10 0 17 0;
#X connect 11 0 10 0;
#X connect 12 0 19 0;
#X connect 13 0 12 0;
#X connect 14 0 21 0;
#X connect 15 0 14 0;
#X connect 16 0 11 0;
#X connect 18 0 13 0;
#X connect 20 0 15 0;
#X connect 22 0 32 0;
#X connect 23 0 22 0;
#X connect 24 0 34 0;
#X connect 25 0 24 0;
#X connect 26 0 28 0;
#X connect 27 0 2 0;
#X connect 28 0 30 0;
#X connect 29 0 26 0;
#X connect 31 0 23 0;
#X connect 33 0 25 0;
#X connect 35 0 40 0;
#X connect 36 0 35 0;
#X connect 37 0 42 0;
#X connect 38 0 37 0;
#X connect 39 0 36 0;
#X connect 41 0 38 0;
#X connect 43 0 0 0;
#X restore -174 141 pd parameter-nudging-system;
#N canvas 302 64 1008 752 savetest 0;
#X obj 290 212 pack f f;
#X obj 305 133 loadbang;
#X obj 305 155 f \$1;
#X obj 290 184 f;
#X obj 292 453 textfile;
#X msg 475 436 rewind;
#X obj 165 78 loadbang;
#X obj 19 174 delay 10;
#X text 59 52 WRITE;
#X obj 19 54 inlet;
#X obj 19 208 f;
#X obj 19 247 pack f f;
#X obj 165 126 t f f;
#X obj 165 104 f \$1;
#X msg -193 97 bang;
#X obj 91 611 textfile;
#X msg 97 236 clear;
#X obj 19 118 t b f b b;
#X obj 308 21 inlet;
#X text 353 19 LOAD;
#X msg 399 415 bang;
#X obj 412 375 t b b;
#X obj 308 43 t b f;
#X obj 290 90 t b b;
#X obj -412 344 f;
#N canvas 0 22 1084 659 unpack-values 0;
#X obj 182 32 inlet;
#X obj 181 578 s \$0-kick-pitch-r;
#X obj 194 557 s \$0-kick-decay-r;
#X obj 211 531 s \$0-kick-envmod-r;
#X obj 224 510 s \$0-kick-sweep-r;
#X obj 238 485 s \$0-kick-wform-r;
#X obj 251 464 s \$0-flam-r;
#X obj 268 438 s \$0-flam-prob-r;
#X obj 281 417 s \$0-acc-prob-r;
#X obj 298 394 s \$0-acc-level-r;
#X obj 311 373 s \$0-drive-r;
#X obj 337 317 s \$0-tone-r;
#X obj 182 59 unpack f f f f f f f f f f f;
#X connect 0 0 12 0;
#X connect 12 0 1 0;
#X connect 12 1 2 0;
#X connect 12 2 3 0;
#X connect 12 3 4 0;
#X connect 12 4 5 0;
#X connect 12 5 6 0;
#X connect 12 6 7 0;
#X connect 12 7 8 0;
#X connect 12 8 9 0;
#X connect 12 9 10 0;
#X connect 12 10 11 0;
#X restore 292 479 pd unpack-values;
#X obj 411 85 f;
#X obj 411 24 r SAVE-S;
#X msg 19 329 write statesave/\$1-kickpreset-\$2-ss.txt;
#X msg 291 297 read statesave/\$1-kickpreset-\$2-ss.txt;
#X obj -400 22 r \$0-kick-pitch-s;
#X obj -387 44 r \$0-kick-decay-s;
#X obj -371 64 r \$0-kick-envmod-s;
#X obj -355 84 r \$0-kick-sweep-s;
#X obj -337 103 r \$0-kick-wform-s;
#X obj -321 123 r \$0-flam-s;
#X obj -305 143 r \$0-flam-prob-s;
#X obj -284 166 r \$0-acc-prob-s;
#X obj -264 195 r \$0-acc-level-s;
#X obj -248 215 r \$0-drive-s;
#X obj -232 235 r \$0-tone-s;
#X obj 426 56 r \$0-load-s;
#X obj 411 107 s \$0-write-r;
#X msg -378 522 set \$1 \$2 \$3 \$4 \$5 \$6 \$7 \$8 \$9 \$10 \$11;
#X obj -377 481 pack f f f f f f f f f f f;
#X connect 0 0 29 0;
#X connect 1 0 2 0;
#X connect 2 0 3 1;
#X connect 3 0 0 0;
#X connect 4 0 25 0;
#X connect 5 0 4 0;
#X connect 6 0 13 0;
#X connect 7 0 10 0;
#X connect 9 0 17 0;
#X connect 10 0 11 0;
#X connect 11 0 28 0;
#X connect 12 0 10 1;
#X connect 13 0 12 0;
#X connect 14 0 24 0;
#X connect 16 0 15 0;
#X connect 17 0 7 0;
#X connect 17 1 11 1;
#X connect 17 2 14 0;
#X connect 17 3 16 0;
#X connect 18 0 22 0;
#X connect 20 0 4 0;
#X connect 21 0 20 0;
#X connect 21 1 5 0;
#X connect 22 0 23 0;
#X connect 22 1 0 1;
#X connect 23 0 21 0;
#X connect 23 1 3 0;
#X connect 24 0 44 0;
#X connect 26 0 42 0;
#X connect 27 0 26 0;
#X connect 28 0 15 0;
#X connect 29 0 4 0;
#X connect 30 0 24 1;
#X connect 31 0 44 1;
#X connect 32 0 44 2;
#X connect 33 0 44 3;
#X connect 34 0 44 4;
#X connect 35 0 44 5;
#X connect 36 0 44 6;
#X connect 37 0 44 7;
#X connect 38 0 44 8;
#X connect 39 0 44 9;
#X connect 40 0 44 10;
#X connect 41 0 26 1;
#X connect 43 0 15 0;
#X connect 44 0 43 0;
#X restore -174 341 pd savetest;
#X obj -174 289 r \$0-write-s;
#X obj -111 313 r \$0-load-s;
#N canvas 376 23 1280 809 external-messages 0;
#X floatatom -71 513 5 0 0 0 - - - 0;
#X obj 43 328 spigot;
#X obj 76 288 tgl 15 0 empty empty empty 17 7 0 10 #fcfcfc #000000 #000000 0 1;
#X obj 112 272 ==;
#X obj 127 248 f \$1;
#X obj 127 224 loadbang;
#X msg 43 202 \$1 \$2;
#X msg 43 156 symbol \$1;
#X obj 43 180 pack s f;
#X obj -71 492 f;
#X obj -71 440 t b f;
#X obj -71 463 spigot;
#X obj 43 62 unpack s f f;
#X symbolatom 43 94 10 0 0 0 - - - 0;
#X obj 76 308 t f f;
#X obj 103 332 s \$0-msg-spigot;
#X obj -23 447 r \$0-msg-spigot;
#X floatatom -45 657 5 0 0 0 - - - 0;
#X obj -45 636 f;
#X obj -45 584 t b f;
#X obj -45 607 spigot;
#X obj 3 591 r \$0-msg-spigot;
#X floatatom 106 549 5 0 0 0 - - - 0;
#X obj 106 528 f;
#X obj 106 476 t b f;
#X obj 106 499 spigot;
#X obj 154 483 r \$0-msg-spigot;
#X floatatom 145 687 5 0 0 0 - - - 0;
#X obj 145 666 f;
#X obj 145 614 t b f;
#X obj 145 637 spigot;
#X obj 193 621 r \$0-msg-spigot;
#X floatatom 270 523 5 0 0 0 - - - 0;
#X obj 270 502 f;
#X obj 270 450 t b f;
#X obj 270 473 spigot;
#X obj 318 457 r \$0-msg-spigot;
#X obj 43 14 r kick;
#X obj 43 380 route PITCH HOLD DECAY EG2 SWEEP WFORM FLAM FLAM-PROB ACC-PROB ACCENT DRIVE TONE;
#X floatatom 315 690 5 0 0 0 - - - 0;
#X obj 315 669 f;
#X obj 315 617 t b f;
#X obj 315 640 spigot;
#X obj 363 624 r \$0-msg-spigot;
#X floatatom 442 535 5 0 0 0 - - - 0;
#X obj 442 514 f;
#X obj 442 462 t b f;
#X obj 442 485 spigot;
#X obj 490 469 r \$0-msg-spigot;
#X floatatom 479 685 5 0 0 0 - - - 0;
#X obj 479 664 f;
#X obj 479 612 t b f;
#X obj 479 635 spigot;
#X obj 527 619 r \$0-msg-spigot;
#X floatatom 622 527 5 0 0 0 - - - 0;
#X obj 622 506 f;
#X obj 622 454 t b f;
#X obj 622 477 spigot;
#X obj 670 461 r \$0-msg-spigot;
#X floatatom 654 680 5 0 0 0 - - - 0;
#X obj 654 659 f;
#X obj 654 607 t b f;
#X obj 654 630 spigot;
#X obj 702 614 r \$0-msg-spigot;
#X floatatom 784 516 5 0 0 0 - - - 0;
#X obj 784 495 f;
#X obj 784 443 t b f;
#X obj 784 466 spigot;
#X obj 832 450 r \$0-msg-spigot;
#X floatatom 816 707 5 0 0 0 - - - 0;
#X obj 816 686 f;
#X obj 816 634 t b f;
#X obj 816 657 spigot;
#X obj 864 641 r \$0-msg-spigot;
#X obj -71 533 s \$0-kick-pitch-r;
#X obj -45 677 s \$0-kick-hold-r;
#X obj 106 569 s \$0-kick-decay-r;
#X obj 145 707 s \$0-kick-envmod-r;
#X obj 270 543 s \$0-kick-sweep-r;
#X obj 315 710 s \$0-kick-wform-r;
#X obj 442 555 s \$0-flam-r;
#X obj 479 705 s \$0-flam-prob-r;
#X obj 622 547 s \$0-acc-prob-r;
#X obj 654 700 s \$0-acc-level-r;
#X obj 784 536 s \$0-drive-r;
#X obj 816 727 s \$0-tone-r;
#X connect 0 0 74 0;
#X connect 1 0 38 0;
#X connect 2 0 14 0;
#X connect 3 0 2 0;
#X connect 4 0 3 1;
#X connect 5 0 4 0;
#X connect 6 0 1 0;
#X connect 7 0 8 0;
#X connect 8 0 6 0;
#X connect 9 0 0 0;
#X connect 10 0 11 0;
#X connect 10 1 9 1;
#X connect 11 0 9 0;
#X connect 12 0 13 0;
#X connect 12 1 8 1;
#X connect 12 2 3 0;
#X connect 13 0 7 0;
#X connect 14 0 1 1;
#X connect 14 1 15 0;
#X connect 16 0 11 1;
#X connect 17 0 75 0;
#X connect 18 0 17 0;
#X connect 19 0 20 0;
#X connect 19 1 18 1;
#X connect 20 0 18 0;
#X connect 21 0 20 1;
#X connect 22 0 76 0;
#X connect 23 0 22 0;
#X connect 24 0 25 0;
#X connect 24 1 23 1;
#X connect 25 0 23 0;
#X connect 26 0 25 1;
#X connect 27 0 77 0;
#X connect 28 0 27 0;
#X connect 29 0 30 0;
#X connect 29 1 28 1;
#X connect 30 0 28 0;
#X connect 31 0 30 1;
#X connect 32 0 78 0;
#X connect 33 0 32 0;
#X connect 34 0 35 0;
#X connect 34 1 33 1;
#X connect 35 0 33 0;
#X connect 36 0 35 1;
#X connect 37 0 12 0;
#X connect 38 0 10 0;
#X connect 38 1 19 0;
#X connect 38 2 24 0;
#X connect 38 3 29 0;
#X connect 38 4 34 0;
#X connect 38 5 41 0;
#X connect 38 6 46 0;
#X connect 38 7 51 0;
#X connect 38 8 56 0;
#X connect 38 9 61 0;
#X connect 38 10 66 0;
#X connect 38 11 71 0;
#X connect 39 0 79 0;
#X connect 40 0 39 0;
#X connect 41 0 42 0;
#X connect 41 1 40 1;
#X connect 42 0 40 0;
#X connect 43 0 42 1;
#X connect 44 0 80 0;
#X connect 45 0 44 0;
#X connect 46 0 47 0;
#X connect 46 1 45 1;
#X connect 47 0 45 0;
#X connect 48 0 47 1;
#X connect 49 0 81 0;
#X connect 50 0 49 0;
#X connect 51 0 52 0;
#X connect 51 1 50 1;
#X connect 52 0 50 0;
#X connect 53 0 52 1;
#X connect 54 0 82 0;
#X connect 55 0 54 0;
#X connect 56 0 57 0;
#X connect 56 1 55 1;
#X connect 57 0 55 0;
#X connect 58 0 57 1;
#X connect 59 0 83 0;
#X connect 60 0 59 0;
#X connect 61 0 62 0;
#X connect 61 1 60 1;
#X connect 62 0 60 0;
#X connect 63 0 62 1;
#X connect 64 0 84 0;
#X connect 65 0 64 0;
#X connect 66 0 67 0;
#X connect 66 1 65 1;
#X connect 67 0 65 0;
#X connect 68 0 67 1;
#X connect 69 0 85 0;
#X connect 70 0 69 0;
#X connect 71 0 72 0;
#X connect 71 1 70 1;
#X connect 72 0 70 0;
#X connect 73 0 72 1;
#X restore -175 117 pd external-messages;
#X obj 115 131 cnv 5 5 5 empty empty MYMEMBRANE-KICK 0 0 0 12 #fcfcfc #404040 0;
#X obj 225 131 cnv 5 5 5 empty \$0-instance-num 1 0 0 0 12 #fcfcfc #404040 0;
#X obj 103 109 cnv 5 5 5 empty empty IN 0 0 0 8 #fcfcfc #ff8300 0;
#X obj 402 96 / 127;
#X obj 402 143 pack 0 50;
#X obj 468 -87 / 127;
#X obj 468 10 pack 0 50;
#X obj 468 -21 t f f;
#X obj 402 73 r \$0-frequency-s;
#X obj 468 -109 r \$0-frequency-cv-s;
#X text 398 -208 FREQ CV-IN;
#X obj 403 -28 snapshot~;
#X obj 411 -73 tgl 15 0 empty empty empty 17 7 0 10 #fcfcfc #000000 #000000 0 1;
#X obj 403 -6 change;
#X obj 411 -55 metro 10;
#X obj 411 -147 env~;
#X obj 411 -125 > 0;
#X obj 411 -103 change;
#X obj 404 -178 inlet~;
#X obj 402 49 *;
#X obj 468 32 line;
#X obj 402 165 line;
#X obj 403 221 +;
#X floatatom 403 248 5 0 0 0 - - - 0;
#X obj 403 16 * 1;
#X obj 426 49 t b f;
#X floatatom 408 363 5 0 0 0 - - - 0;
#X obj 608 98 / 127;
#X obj 608 145 pack 0 50;
#X obj 674 -85 / 127;
#X obj 674 12 pack 0 50;
#X obj 674 -19 t f f;
#X obj 609 -26 snapshot~;
#X obj 617 -71 tgl 15 0 empty empty empty 17 7 0 10 #fcfcfc #000000 #000000 0 1;
#X obj 609 -4 change;
#X obj 617 -53 metro 10;
#X obj 617 -145 env~;
#X obj 617 -123 > 0;
#X obj 617 -101 change;
#X obj 610 -176 inlet~;
#X obj 608 51 *;
#X obj 674 34 line;
#X obj 608 167 line;
#X obj 609 223 +;
#X floatatom 609 250 5 0 0 0 - - - 0;
#X obj 609 18 * 1;
#X obj 632 51 t b f;
#X text 604 -206 FEEDBACK CV-IN;
#X obj 674 -107 r \$0-feedback-cv-s;
#X obj 609 291 + 0.5;
#X obj 608 75 r \$0-feedback-s;
#X obj 808 98 / 127;
#X obj 808 145 pack 0 50;
#X obj 874 -85 / 127;
#X obj 874 12 pack 0 50;
#X obj 874 -19 t f f;
#X obj 809 -26 snapshot~;
#X obj 817 -71 tgl 15 0 empty empty empty 17 7 0 10 #fcfcfc #000000 #000000 0 1;
#X obj 809 -4 change;
#X obj 817 -53 metro 10;
#X obj 817 -145 env~;
#X obj 817 -123 > 0;
#X obj 817 -101 change;
#X obj 810 -176 inlet~;
#X obj 808 51 *;
#X obj 874 34 line;
#X obj 808 167 line;
#X obj 809 223 +;
#X floatatom 809 250 5 0 0 0 - - - 0;
#X obj 809 18 * 1;
#X obj 832 51 t b f;
#X text 804 -206 DAMPING CV-IN;
#X obj 874 -107 r \$0-damping-cv-s;
#X obj 808 75 r \$0-damping-s;
#X obj 998 98 / 127;
#X obj 998 145 pack 0 50;
#X obj 1064 -85 / 127;
#X obj 1064 12 pack 0 50;
#X obj 1064 -19 t f f;
#X obj 999 -26 snapshot~;
#X obj 1007 -71 tgl 15 0 empty empty empty 17 7 0 10 #fcfcfc #000000 #000000 0 1;
#X obj 999 -4 change;
#X obj 1007 -53 metro 10;
#X obj 1007 -145 env~;
#X obj 1007 -123 > 0;
#X obj 1007 -101 change;
#X obj 1000 -176 inlet~;
#X obj 998 51 *;
#X obj 1064 34 line;
#X obj 998 167 line;
#X obj 999 223 +;
#X floatatom 999 250 5 0 0 0 - - - 0;
#X obj 999 18 * 1;
#X obj 1022 51 t b f;
#X text 994 -206 ADF CV-IN;
#X obj 998 75 r \$0-adf-gain-s;
#X obj 1064 -107 r \$0-adf-gain-cv-s;
#X obj 999 270 * 2;
#X obj 999 291 - 1;
#X obj 125 109 cnv 5 5 5 empty empty FREQ 0 0 0 8 #fcfcfc #404040 0;
#X obj 161 109 cnv 5 5 5 empty empty FEED 0 0 0 8 #fcfcfc #404040 0;
#X obj 201 109 cnv 5 5 5 empty empty DAMP 0 0 0 8 #fcfcfc #404040 0;
#X obj 240 109 cnv 5 5 5 empty empty ADF 0 0 0 8 #fcfcfc #404040 0;
#X obj 270 109 cnv 5 5 5 empty empty APF 0 0 0 8 #fcfcfc #404040 0;
#X obj 291 109 cnv 5 5 5 empty empty NOISE 0 0 0 8 #fcfcfc #404040 0;
#X obj 1198 98 / 127;
#X obj 1198 145 pack 0 50;
#X obj 1264 -85 / 127;
#X obj 1264 12 pack 0 50;
#X obj 1264 -19 t f f;
#X obj 1199 -26 snapshot~;
#X obj 1207 -71 tgl 15 0 empty empty empty 17 7 0 10 #fcfcfc #000000 #000000 0 1;
#X obj 1199 -4 change;
#X obj 1207 -53 metro 10;
#X obj 1207 -145 env~;
#X obj 1207 -123 > 0;
#X obj 1207 -101 change;
#X obj 1200 -176 inlet~;
#X obj 1198 51 *;
#X obj 1264 34 line;
#X obj 1198 167 line;
#X obj 1199 223 +;
#X floatatom 1199 250 5 0 0 0 - - - 0;
#X obj 1199 18 * 1;
#X obj 1222 51 t b f;
#X text 1194 -206 APF CV-IN;
#X obj 1388 98 / 127;
#X obj 1388 145 pack 0 50;
#X obj 1454 -85 / 127;
#X obj 1454 12 pack 0 50;
#X obj 1454 -19 t f f;
#X obj 1389 -26 snapshot~;
#X obj 1397 -71 tgl 15 0 empty empty empty 17 7 0 10 #fcfcfc #000000 #000000 0 1;
#X obj 1389 -4 change;
#X obj 1397 -53 metro 10;
#X obj 1397 -145 env~;
#X obj 1397 -123 > 0;
#X obj 1397 -101 change;
#X obj 1390 -176 inlet~;
#X obj 1388 51 *;
#X obj 1454 34 line;
#X obj 1388 167 line;
#X obj 1389 223 +;
#X floatatom 1389 250 5 0 0 0 - - - 0;
#X obj 1389 18 * 1;
#X obj 1412 51 t b f;
#X text 1384 -206 NOISE CV-IN;
#X obj 103 362 cnv 5 5 5 empty empty OUT 0 0 0 8 #fcfcfc #404040 0;
#X text 61 -174 TRIGGER IN;
#X obj 1198 75 r \$0-APF-FREQUENCY-s;
#X obj 1264 -107 r \$0-apf-gain-cv-s;
#X obj 1388 75 r \$0-noise-s;
#X obj 1454 -107 r \$0-noise-cv-s;
#X floatatom 1430 337 9 0 0 0 - - - 0;
#X obj 75 -94 unpack;
#X obj 75 -65 stripnote;
#X obj 75 -42 bng 16 250 50 0 empty empty empty 0 -8 0 10 #fcfcfc #000000 #000000;
#X obj 74 -146 inlet;
#N canvas 196 112 1244 616 push-controll 0;
#N canvas 490 58 1232 580 push-encoder 0;
#X obj 53 80 push-encoder-reader;
#X obj 53 -17 ctlin 71;
#X obj 298 75 push-encoder-reader;
#X obj 298 -22 ctlin 72;
#X obj 536 77 push-encoder-reader;
#X obj 781 72 push-encoder-reader;
#X obj 536 -20 ctlin 73;
#X obj 781 -25 ctlin 74;
#X obj 56 241 push-encoder-reader;
#X obj 301 236 push-encoder-reader;
#X obj 56 154 ctlin 75;
#X obj 301 149 ctlin 76;
#X obj 54 38 main-menu;
#X obj 105 20 r \$0-mm;
#N canvas 150 175 450 300 sm1 0;
#X obj 109 64 r \$0-sm;
#X obj 109 102 sel;
#X obj 75 170 outlet;
#X msg 108 123 1;
#X msg 135 123 0;
#X obj 75 149 spigot;
#X obj 75 37 inlet;
#X obj 124 83 r \$0-sm1;
#X connect 0 0 1 0;
#X connect 1 0 3 0;
#X connect 1 1 4 0;
#X connect 3 0 5 1;
#X connect 4 0 5 1;
#X connect 5 0 2 0;
#X connect 6 0 5 0;
#X connect 7 0 1 1;
#X restore 54 57 pd sm1;
#X obj 299 29 main-menu;
#X obj 350 11 r \$0-mm;
#N canvas 150 175 450 300 sm1 0;
#X obj 109 64 r \$0-sm;
#X obj 109 102 sel;
#X obj 75 170 outlet;
#X msg 108 123 1;
#X msg 135 123 0;
#X obj 75 149 spigot;
#X obj 75 37 inlet;
#X obj 124 83 r \$0-sm1;
#X connect 0 0 1 0;
#X connect 1 0 3 0;
#X connect 1 1 4 0;
#X connect 3 0 5 1;
#X connect 4 0 5 1;
#X connect 5 0 2 0;
#X connect 6 0 5 0;
#X connect 7 0 1 1;
#X restore 299 48 pd sm1;
#X obj 537 20 main-menu;
#X obj 588 2 r \$0-mm;
#N canvas 150 175 450 300 sm1 0;
#X obj 109 64 r \$0-sm;
#X obj 109 102 sel;
#X obj 75 170 outlet;
#X msg 108 123 1;
#X msg 135 123 0;
#X obj 75 149 spigot;
#X obj 75 37 inlet;
#X obj 124 83 r \$0-sm1;
#X connect 0 0 1 0;
#X connect 1 0 3 0;
#X connect 1 1 4 0;
#X connect 3 0 5 1;
#X connect 4 0 5 1;
#X connect 5 0 2 0;
#X connect 6 0 5 0;
#X connect 7 0 1 1;
#X restore 537 39 pd sm1;
#X obj 781 15 main-menu;
#X obj 832 -3 r \$0-mm;
#N canvas 150 175 450 300 sm1 0;
#X obj 109 64 r \$0-sm;
#X obj 109 102 sel;
#X obj 75 170 outlet;
#X msg 108 123 1;
#X msg 135 123 0;
#X obj 75 149 spigot;
#X obj 75 37 inlet;
#X obj 124 83 r \$0-sm1;
#X connect 0 0 1 0;
#X connect 1 0 3 0;
#X connect 1 1 4 0;
#X connect 3 0 5 1;
#X connect 4 0 5 1;
#X connect 5 0 2 0;
#X connect 6 0 5 0;
#X connect 7 0 1 1;
#X restore 781 34 pd sm1;
#X obj 57 194 main-menu;
#X obj 108 176 r \$0-mm;
#N canvas 150 175 450 300 sm1 0;
#X obj 109 64 r \$0-sm;
#X obj 109 102 sel;
#X obj 75 170 outlet;
#X msg 108 123 1;
#X msg 135 123 0;
#X obj 75 149 spigot;
#X obj 75 37 inlet;
#X obj 124 83 r \$0-sm1;
#X connect 0 0 1 0;
#X connect 1 0 3 0;
#X connect 1 1 4 0;
#X connect 3 0 5 1;
#X connect 4 0 5 1;
#X connect 5 0 2 0;
#X connect 6 0 5 0;
#X connect 7 0 1 1;
#X restore 57 213 pd sm1;
#X obj 309 185 main-menu;
#X obj 360 167 r \$0-mm;
#N canvas 150 175 450 300 sm1 0;
#X obj 109 64 r \$0-sm;
#X obj 109 102 sel;
#X obj 75 170 outlet;
#X msg 108 123 1;
#X msg 135 123 0;
#X obj 75 149 spigot;
#X obj 75 37 inlet;
#X obj 124 83 r \$0-sm1;
#X connect 0 0 1 0;
#X connect 1 0 3 0;
#X connect 1 1 4 0;
#X connect 3 0 5 1;
#X connect 4 0 5 1;
#X connect 5 0 2 0;
#X connect 6 0 5 0;
#X connect 7 0 1 1;
#X restore 309 204 pd sm1;
#X text 37 -47 Encoder to volume (submenu1);
#X obj 164 58 r \$0-frequency-s;
#X obj 53 99 s \$0-frequency-r;
#X obj 343 49 r \$0-feedback-s;
#X obj 298 96 s \$0-feedback-r;
#X obj 604 42 r \$0-damping-s;
#X obj 536 98 s \$0-damping-r;
#X obj 867 36 r \$0-adf-gain-s;
#X obj 781 93 s \$0-adf-gain-r;
#X obj 132 215 r \$0-APF-FREQUENCY-s;
#X obj 56 265 s \$0-APF-FREQUENCY-r;
#X obj 363 205 r \$0-noise-s;
#X obj 301 258 s \$0-noise-r;
#X connect 0 0 32 0;
#X connect 1 0 12 0;
#X connect 2 0 34 0;
#X connect 3 0 15 0;
#X connect 4 0 36 0;
#X connect 5 0 38 0;
#X connect 6 0 18 0;
#X connect 7 0 21 0;
#X connect 8 0 40 0;
#X connect 9 0 42 0;
#X connect 10 0 24 0;
#X connect 11 0 27 0;
#X connect 12 0 14 0;
#X connect 13 0 12 1;
#X connect 14 0 0 0;
#X connect 15 0 17 0;
#X connect 16 0 15 1;
#X connect 17 0 2 0;
#X connect 18 0 20 0;
#X connect 19 0 18 1;
#X connect 20 0 4 0;
#X connect 21 0 23 0;
#X connect 22 0 21 1;
#X connect 23 0 5 0;
#X connect 24 0 26 0;
#X connect 25 0 24 1;
#X connect 26 0 8 0;
#X connect 27 0 29 0;
#X connect 28 0 27 1;
#X connect 29 0 9 0;
#X connect 31 0 0 1;
#X connect 33 0 2 1;
#X connect 35 0 4 1;
#X connect 37 0 5 1;
#X connect 39 0 8 1;
#X connect 41 0 9 1;
#X restore 21 141 pd push-encoder;
#N canvas 332 83 1440 789 push-display 0;
#X obj 146 -216 t b;
#X obj 147 -3 push-mk1-display 24;
#X obj 146 -279 main-menu;
#X obj 172 -301 r \$0-mm;
#X obj 146 -328 r \$0-sm;
#X obj 433 0 push-mk1-display 25;
#X msg 433 -33 symbol :\$1;
#X msg 509 -31 symbol :\$1;
#X msg 585 -31 symbol :\$1;
#X obj 436 -75 f;
#X obj 507 -64 f;
#X obj 584 -82 f;
#X obj 436 -253 main-menu;
#X obj 462 -275 r \$0-mm;
#X obj 436 -302 r \$0-sm;
#X obj 436 -181 t b;
#X obj 664 -53 f;
#X obj 741 -60 f;
#X obj 821 -94 f;
#X msg 663 -29 symbol :\$1;
#X msg 742 -29 symbol :\$1;
#X msg 822 -27 symbol :\$1;
#N canvas 150 175 450 300 sm 0;
#X obj 109 64 r \$0-sm;
#X obj 109 102 sel;
#X obj 124 83 r \$0-sm1;
#X obj 75 170 outlet;
#X msg 108 123 1;
#X msg 135 123 0;
#X obj 75 149 spigot;
#X obj 75 37 inlet;
#X connect 0 0 1 0;
#X connect 1 0 4 0;
#X connect 1 1 5 0;
#X connect 2 0 1 1;
#X connect 4 0 6 1;
#X connect 5 0 6 1;
#X connect 6 0 3 0;
#X connect 7 0 6 0;
#X restore 436 -216 pd sm;
#N canvas 150 175 450 300 sm 0;
#X obj 109 64 r \$0-sm;
#X obj 109 102 sel;
#X obj 124 83 r \$0-sm1;
#X obj 75 170 outlet;
#X msg 108 123 1;
#X msg 135 123 0;
#X obj 75 149 spigot;
#X obj 75 37 inlet;
#X connect 0 0 1 0;
#X connect 1 0 4 0;
#X connect 1 1 5 0;
#X connect 2 0 1 1;
#X connect 4 0 6 1;
#X connect 5 0 6 1;
#X connect 6 0 3 0;
#X connect 7 0 6 0;
#X restore 146 -246 pd sm;
#X msg 147 -196 symbol FREQ;
#X msg 167 -174 symbol FEEDB;
#X msg 177 -146 symbol DAMPING;
#X msg 216 -96 symbol APF-FREQ;
#X msg 197 -124 symbol APF-GAIN;
#X msg 237 -74 symbol NOISE;
#X msg 247 -46 symbol;
#X msg 267 -24 symbol;
#X obj 436 -123 r \$0-frequency-s;
#X obj 497 -98 r \$0-feedback-s;
#X obj 585 -130 r \$0-damping-s;
#X obj 664 -101 r \$0-adf-gain-s;
#X obj 739 -121 r \$0-APF-FREQUENCY-s;
#X obj 821 -142 r \$0-noise-s;
#X msg 902 -29 symbol;
#X msg 982 -28 symbol;
#X connect 0 0 24 0;
#X connect 0 0 25 0;
#X connect 0 0 26 0;
#X connect 0 0 28 0;
#X connect 0 0 27 0;
#X connect 0 0 29 0;
#X connect 0 0 30 0;
#X connect 0 0 31 0;
#X connect 2 0 23 0;
#X connect 3 0 2 1;
#X connect 4 0 2 0;
#X connect 6 0 5 0;
#X connect 7 0 5 1;
#X connect 8 0 5 2;
#X connect 9 0 6 0;
#X connect 10 0 7 0;
#X connect 11 0 8 0;
#X connect 12 0 22 0;
#X connect 13 0 12 1;
#X connect 14 0 12 0;
#X connect 15 0 9 0;
#X connect 15 0 10 0;
#X connect 15 0 11 0;
#X connect 15 0 16 0;
#X connect 15 0 17 0;
#X connect 15 0 18 0;
#X connect 15 0 38 0;
#X connect 15 0 39 0;
#X connect 16 0 19 0;
#X connect 17 0 20 0;
#X connect 18 0 21 0;
#X connect 19 0 5 3;
#X connect 20 0 5 4;
#X connect 21 0 5 5;
#X connect 22 0 15 0;
#X connect 23 0 0 0;
#X connect 24 0 1 0;
#X connect 25 0 1 1;
#X connect 26 0 1 2;
#X connect 27 0 1 4;
#X connect 28 0 1 3;
#X connect 29 0 1 5;
#X connect 30 0 1 6;
#X connect 31 0 1 7;
#X connect 32 0 9 0;
#X connect 33 0 10 0;
#X connect 34 0 11 0;
#X connect 35 0 16 0;
#X connect 36 0 17 0;
#X connect 37 0 18 0;
#X connect 38 0 5 6;
#X connect 39 0 5 7;
#X restore 21 71 pd push-display;
#X obj 400 72 s \$0-mm;
#X obj 399 122 s \$0-sm1;
#X text 513 93 The Submenu number of the subpatch;
#X obj 399 144 loadbang;
#X msg 399 164 1;
#X obj 399 183 s \$0-sm2;
#X obj 231 97 hradio 16 1 0 8 empty empty empty 0 -8 0 10 #fcfcfc #000000 #000000 0;
#X obj 231 34 r all-menu;
#X obj 231 74 route;
#X obj 258 53 r \$0-mm;
#X obj 231 198 s \$0-sm;
#X obj 400 29 r \$0-main-menu-s;
#X obj 400 50 + 1;
#X obj 399 94 r \$0-sub-menu-s;
#X connect 5 0 6 0;
#X connect 6 0 7 0;
#X connect 8 0 12 0;
#X connect 9 0 10 0;
#X connect 10 0 8 0;
#X connect 11 0 10 1;
#X connect 13 0 14 0;
#X connect 14 0 2 0;
#X connect 15 0 3 0;
#X restore -166 452 pd push-controll;
#X msg -137 644 1;
#X msg -164 684 \; pd-\$1options vis \$2;
#X obj -164 644 f \$0;
#X obj -164 663 pack f f;
#X obj 239 350 bng 10 250 50 0 \$0-options-button \$0-options-button-r OPTIONS -45 5 0 10 #fcfcfc #000000 #000000;
#X obj -164 625 t b b;
#X obj -164 606 r \$0-options-button;
#N canvas 551 310 191 154 \$0options 0;
#X text 11 10 Ableton-Push-Interface:;
#X obj 15 50 hradio 16 1 0 8 \$0-main-menu-s \$0-main-menu-r Main-Menu 0 -8 0 10 #fcfcfc #000000 #000000 0;
#X obj 15 90 hradio 16 1 0 8 \$0-sub-menu-s \$0-sub-menu-r Sub-Menu 0 -8 0 10 #fcfcfc #000000 #000000 0;
#X restore -165 717 pd \$0options;
#X obj 402 297 * 120;
#X obj 809 291 + 0.2;
#X obj 809 270 * 0.3;
#X obj 609 270 * 0.3;
#X obj 1389 291 + 0.008;
#X obj 1389 270 * 0.03;
#X obj 1187 318 * 430;
#X obj 1187 339 + 270;
#X obj 402 318 + 70;
#X obj 401 449 clip 70 190;
#X connect 0 0 13 0;
#X connect 1 0 7 0;
#X connect 1 0 212 0;
#X connect 2 0 8 0;
#X connect 2 0 0 3;
#X connect 3 0 11 0;
#X connect 3 0 0 4;
#X connect 4 0 9 0;
#X connect 4 0 0 5;
#X connect 5 0 10 0;
#X connect 5 0 0 2;
#X connect 6 0 12 0;
#X connect 6 0 0 6;
#X connect 26 0 28 0;
#X connect 28 0 29 0;
#X connect 29 0 27 0;
#X connect 33 0 32 0;
#X connect 34 0 32 1;
#X connect 39 0 40 0;
#X connect 40 0 57 0;
#X connect 41 0 43 0;
#X connect 42 0 56 0;
#X connect 43 0 42 0;
#X connect 44 0 39 0;
#X connect 45 0 41 0;
#X connect 47 0 49 0;
#X connect 48 0 50 0;
#X connect 49 0 60 0;
#X connect 50 0 47 0;
#X connect 51 0 52 0;
#X connect 52 0 53 0;
#X connect 53 0 48 0;
#X connect 54 0 47 0;
#X connect 54 0 51 0;
#X connect 55 0 61 0;
#X connect 56 0 55 1;
#X connect 57 0 58 0;
#X connect 58 0 59 0;
#X connect 59 0 203 0;
#X connect 60 0 55 0;
#X connect 61 0 58 0;
#X connect 61 1 58 1;
#X connect 63 0 64 0;
#X connect 64 0 78 0;
#X connect 65 0 67 0;
#X connect 66 0 77 0;
#X connect 67 0 66 0;
#X connect 68 0 70 0;
#X connect 69 0 71 0;
#X connect 70 0 81 0;
#X connect 71 0 68 0;
#X connect 72 0 73 0;
#X connect 73 0 74 0;
#X connect 74 0 69 0;
#X connect 75 0 68 0;
#X connect 75 0 72 0;
#X connect 76 0 82 0;
#X connect 77 0 76 1;
#X connect 78 0 79 0;
#X connect 79 0 80 0;
#X connect 80 0 206 0;
#X connect 81 0 76 0;
#X connect 82 0 79 0;
#X connect 82 1 79 1;
#X connect 84 0 65 0;
#X connect 85 0 5 0;
#X connect 86 0 63 0;
#X connect 87 0 88 0;
#X connect 88 0 102 0;
#X connect 89 0 91 0;
#X connect 90 0 101 0;
#X connect 91 0 90 0;
#X connect 92 0 94 0;
#X connect 93 0 95 0;
#X connect 94 0 105 0;
#X connect 95 0 92 0;
#X connect 96 0 97 0;
#X connect 97 0 98 0;
#X connect 98 0 93 0;
#X connect 99 0 92 0;
#X connect 99 0 96 0;
#X connect 100 0 106 0;
#X connect 101 0 100 1;
#X connect 102 0 103 0;
#X connect 103 0 104 0;
#X connect 104 0 205 0;
#X connect 105 0 100 0;
#X connect 106 0 103 0;
#X connect 106 1 103 1;
#X connect 108 0 89 0;
#X connect 109 0 87 0;
#X connect 110 0 111 0;
#X connect 111 0 125 0;
#X connect 112 0 114 0;
#X connect 113 0 124 0;
#X connect 114 0 113 0;
#X connect 115 0 117 0;
#X connect 116 0 118 0;
#X connect 117 0 128 0;
#X connect 118 0 115 0;
#X connect 119 0 120 0;
#X connect 120 0 121 0;
#X connect 121 0 116 0;
#X connect 122 0 115 0;
#X connect 122 0 119 0;
#X connect 123 0 129 0;
#X connect 124 0 123 1;
#X connect 125 0 126 0;
#X connect 126 0 127 0;
#X connect 127 0 133 0;
#X connect 128 0 123 0;
#X connect 129 0 126 0;
#X connect 129 1 126 1;
#X connect 131 0 110 0;
#X connect 132 0 112 0;
#X connect 133 0 134 0;
#X connect 134 0 3 0;
#X connect 141 0 142 0;
#X connect 142 0 156 0;
#X connect 143 0 145 0;
#X connect 144 0 155 0;
#X connect 145 0 144 0;
#X connect 146 0 148 0;
#X connect 147 0 149 0;
#X connect 148 0 159 0;
#X connect 149 0 146 0;
#X connect 150 0 151 0;
#X connect 151 0 152 0;
#X connect 152 0 147 0;
#X connect 153 0 146 0;
#X connect 153 0 150 0;
#X connect 154 0 160 0;
#X connect 155 0 154 1;
#X connect 156 0 157 0;
#X connect 157 0 158 0;
#X connect 158 0 209 0;
#X connect 159 0 154 0;
#X connect 160 0 157 0;
#X connect 160 1 157 1;
#X connect 162 0 163 0;
#X connect 163 0 177 0;
#X connect 164 0 166 0;
#X connect 165 0 176 0;
#X connect 166 0 165 0;
#X connect 167 0 169 0;
#X connect 168 0 170 0;
#X connect 169 0 180 0;
#X connect 170 0 167 0;
#X connect 171 0 172 0;
#X connect 172 0 173 0;
#X connect 173 0 168 0;
#X connect 174 0 167 0;
#X connect 174 0 171 0;
#X connect 175 0 181 0;
#X connect 176 0 175 1;
#X connect 177 0 178 0;
#X connect 178 0 179 0;
#X connect 179 0 208 0;
#X connect 180 0 175 0;
#X connect 181 0 178 0;
#X connect 181 1 178 1;
#X connect 185 0 141 0;
#X connect 186 0 143 0;
#X connect 187 0 162 0;
#X connect 188 0 164 0;
#X connect 190 0 191 0;
#X connect 190 1 191 1;
#X connect 191 0 192 0;
#X connect 191 1 0 0;
#X connect 193 0 190 0;
#X connect 195 0 198 1;
#X connect 197 0 198 0;
#X connect 198 0 196 0;
#X connect 200 0 197 0;
#X connect 200 1 195 0;
#X connect 201 0 200 0;
#X connect 203 0 211 0;
#X connect 204 0 2 0;
#X connect 205 0 204 0;
#X connect 206 0 85 0;
#X connect 207 0 6 0;
#X connect 207 0 189 0;
#X connect 208 0 207 0;
#X connect 209 0 210 0;
#X connect 210 0 4 0;
#X connect 211 0 62 0;
#X connect 211 0 1 0;
#X connect 212 0 0 1;
#X coords 0 -1 1 1 220 270 2 100 100;
