#N canvas 713 40 1425 832 10;
#X obj 1101 353 outlet~;
#X obj 120 512 hsl 60 10 0 1 0 0 \$0-h \$0-rh gain -2 -7 0 10 #003880 #fcfcfc #001488 0 0;
#X obj 100 510 cnv 12 15 13 empty empty 7 1 6 0 12 #202020 #fcfcfc 0;
#N canvas 191 144 1287 763 bassdrum 0;
#X obj 476 628 vline~;
#X obj 419 644 *~;
#X obj 477 499 f;
#X obj 419 261 *~;
#X obj 419 151 f;
#X msg 419 200 1.4 \, 0 \$1;
#X obj 419 380 +~;
#X obj 400 108 delay 5;
#X msg 477 523 0 5 \, 1 3 5 \, 0 \$1 8;
#X obj 521 41 switch~;
#X msg 440 449 0.25;
#X msg 521 20 1;
#X obj 554 1 delay;
#X msg 554 20 0;
#X obj 145 698 *~;
#X obj 160 675 vline~;
#X obj 179 608 f;
#X obj 160 582 t b b b;
#X obj 404 715 +~;
#X obj 404 741 hip~ 10;
#X text 584 -138 decay;
#X text 217 547 noiz;
#X obj 404 824 *~;
#X obj 404 867 outlet~;
#X obj 404 783 lop~ 1000;
#X obj 419 220 vline~;
#N canvas 121 146 462 312 rh_scalelog 0;
#X obj 20 155 exp;
#X obj 20 107 *;
#X obj 20 130 +;
#X obj 98 87 log;
#X obj 194 84 log;
#X obj 123 123 t b f;
#X obj 123 145 -;
#X obj 20 183 outlet;
#X obj 20 19 inlet;
#X obj 98 23 inlet;
#X obj 194 24 inlet;
#X connect 0 0 7 0;
#X connect 1 0 2 0;
#X connect 2 0 0 0;
#X connect 3 0 2 1;
#X connect 3 0 5 0;
#X connect 4 0 6 0;
#X connect 5 0 6 0;
#X connect 5 1 6 1;
#X connect 6 0 1 1;
#X connect 8 0 1 0;
#X connect 9 0 3 0;
#X connect 10 0 4 0;
#X restore 604 807 pd rh_scalelog;
#N canvas 0 22 462 312 rh_scalelog 0;
#X obj 20 155 exp;
#X obj 20 107 *;
#X obj 20 130 +;
#X obj 98 87 log;
#X obj 194 84 log;
#X obj 123 123 t b f;
#X obj 123 145 -;
#X obj 20 183 outlet;
#X obj 20 19 inlet;
#X obj 98 23 inlet;
#X obj 194 24 inlet;
#X connect 0 0 7 0;
#X connect 1 0 2 0;
#X connect 2 0 0 0;
#X connect 3 0 2 1;
#X connect 3 0 5 0;
#X connect 4 0 6 0;
#X connect 5 0 6 0;
#X connect 5 1 6 1;
#X connect 6 0 1 1;
#X connect 8 0 1 0;
#X connect 9 0 3 0;
#X connect 10 0 4 0;
#X restore 603 707 pd rh_scalelog;
#X msg 650 683 100;
#X msg 696 683 10000;
#X obj 218 565 r \$0-noizelevel;
#N canvas 0 22 462 312 rh_scalelog 0;
#X obj 20 155 exp;
#X obj 20 107 *;
#X obj 20 130 +;
#X obj 98 87 log;
#X obj 194 84 log;
#X obj 123 123 t b f;
#X obj 123 145 -;
#X obj 20 183 outlet;
#X obj 20 19 inlet;
#X obj 98 23 inlet;
#X obj 194 24 inlet;
#X connect 0 0 7 0;
#X connect 1 0 2 0;
#X connect 2 0 0 0;
#X connect 3 0 2 1;
#X connect 3 0 5 0;
#X connect 4 0 6 0;
#X connect 5 0 6 0;
#X connect 5 1 6 1;
#X connect 6 0 1 1;
#X connect 8 0 1 0;
#X connect 9 0 3 0;
#X connect 10 0 4 0;
#X restore 581 -51 pd rh_scalelog;
#N canvas 121 146 462 312 rh_scalelog 0;
#X obj 20 155 exp;
#X obj 20 107 *;
#X obj 20 130 +;
#X obj 98 87 log;
#X obj 194 84 log;
#X obj 123 123 t b f;
#X obj 123 145 -;
#X obj 20 183 outlet;
#X obj 20 19 inlet;
#X obj 98 23 inlet;
#X obj 194 24 inlet;
#X connect 0 0 7 0;
#X connect 1 0 2 0;
#X connect 2 0 0 0;
#X connect 3 0 2 1;
#X connect 3 0 5 0;
#X connect 4 0 6 0;
#X connect 5 0 6 0;
#X connect 5 1 6 1;
#X connect 6 0 1 1;
#X connect 8 0 1 0;
#X connect 9 0 3 0;
#X connect 10 0 4 0;
#X restore 599 137 pd rh_scalelog;
#X obj 581 -122 r \$0-decay;
#X msg 625 -75 10;
#X obj 581 -19 + 10;
#X msg 554 -74 stop;
#N canvas 0 22 462 312 rh_scalelog 0;
#X obj 20 155 exp;
#X obj 20 107 *;
#X obj 20 130 +;
#X obj 98 87 log;
#X obj 194 84 log;
#X obj 123 123 t b f;
#X obj 123 145 -;
#X obj 20 183 outlet;
#X obj 20 19 inlet;
#X obj 98 23 inlet;
#X obj 194 24 inlet;
#X connect 0 0 7 0;
#X connect 1 0 2 0;
#X connect 2 0 0 0;
#X connect 3 0 2 1;
#X connect 3 0 5 0;
#X connect 4 0 6 0;
#X connect 5 0 6 0;
#X connect 5 1 6 1;
#X connect 6 0 1 1;
#X connect 8 0 1 0;
#X connect 9 0 3 0;
#X connect 10 0 4 0;
#X restore 599 245 pd rh_scalelog;
#N canvas 92 117 462 312 rh_scalelog 0;
#X obj 20 155 exp;
#X obj 20 107 *;
#X obj 20 130 +;
#X obj 98 87 log;
#X obj 194 84 log;
#X obj 123 123 t b f;
#X obj 123 145 -;
#X obj 20 183 outlet;
#X obj 20 19 inlet;
#X obj 98 23 inlet;
#X obj 194 24 inlet;
#X connect 0 0 7 0;
#X connect 1 0 2 0;
#X connect 2 0 0 0;
#X connect 3 0 2 1;
#X connect 3 0 5 0;
#X connect 4 0 6 0;
#X connect 5 0 6 0;
#X connect 5 1 6 1;
#X connect 6 0 1 1;
#X connect 8 0 1 0;
#X connect 9 0 3 0;
#X connect 10 0 4 0;
#X restore 611 344 pd rh_scalelog;
#X msg 639 116 1;
#X obj 603 636 r \$0-lowpass;
#N canvas 382 324 650 490 bd-makenoise 0;
#X msg 30 27 0 \, 0.582156 \, 0.967879 \, 0.967879 \, -0.846448 \, 0.939307 \, 0.896449 \, -0.890497 \, -0.814304 \, -0.900021 \, -0.928593 \, 0.157146 \, 0.642872 \, 0.214291 \, 0.100002 \, -0.014286 \, -0.100002 \, 0.014286 \, 0.128574 \, 0.242863 \, -0.014286 \, -0.771446 \, -0.75716 \, -0.0441568 \, -0.0961061 \, -0.148055 \, -0.200005 \, -0.257149 \, 0.857162 \, 0.914307 \, 1.01431 \, -0.278578 \, -0.214291 \, -0.150003 \, -0.0857162 \, 0 \, 0.0857162 \, 0.171432 \, 0.257149 \, 0.292864 \, 0.328579 \, -0.985737 \, -0.776208 \, -0.557156 \, -0.0714302 \, 0.0714302 \, 0.214291 \, -0.0714302 \, -0.957165 \, -0.714302 \, -0.600014 \, -0.557156 \, -0.292864 \, -0.114288 \, 0.0285721 \, 0.200005 \, 0.428581 \, 0.500011 \, 0.971451 \, 0.942879 \, 0.82859 \, 0.68573 \, 0.442867 \, -0.171432 \, -0.895259 \, -1.09526 \, -1.03812 \, -0.695254 \, -0.0428581 \, -0.185719 \, -0.328579 \, -0.471439 \, 0.014286 \, 0.128574 \, 0.100002 \, 0.559537 \, 0.688111 \, 1.05955 \, 1.08812 \, -0.673825 \, -0.82859 \, -0.357151 \, -0.0214291 \, -0.14286 \, -0.128574 \, 0.0809542 \, 0.290483 \, 0.500011 \, 0.742874 \, 0.557156 \, 0.371437 \, -0.214291 \, -0.290483 \, -0.366675 \, -0.442867 \, -0.400009 \, -0.414295 \, -0.442867 \, -0.54287 \, -0.628586 \,;
#X obj 30 300 t b f;
#X obj 31 323 f;
#X obj 59 322 + 1;
#X obj 31 347 pack 0 0;
#X obj 31 369 s \$0-bassnoise;
#X obj 220 331 table \$0-bassnoise 100;
#X msg 96 306 0;
#X obj 29 2 r \$0-loadbang;
#X connect 0 0 1 0;
#X connect 1 0 2 0;
#X connect 1 1 4 1;
#X connect 2 0 3 0;
#X connect 2 0 4 0;
#X connect 3 0 2 1;
#X connect 4 0 5 0;
#X connect 7 0 2 1;
#X connect 8 0 0 0;
#X restore 53 582 pd bd-makenoise;
#X obj 145 628 tabplay~ \$0-bassnoise;
#X msg 671 -76 2000;
#X obj 400 130 t b b b;
#X obj 401 -108 t b b b b;
#X obj 218 587 pow 4;
#X msg 160 651 0 1;
#X msg 697 782 10;
#X msg 651 784 0.1;
#X obj 611 363 + 10;
#X obj 401 -129 inlet;
#X obj 419 239 expr~ pow($v1 \, 5);
#X obj 419 477 osc~;
#X obj 419 505 *~ 1;
#X obj 603 409 r \$0-square;
#N canvas 0 22 462 312 rh_scalelog 0;
#X obj 20 155 exp;
#X obj 20 107 *;
#X obj 20 130 +;
#X obj 98 87 log;
#X obj 194 84 log;
#X obj 123 123 t b f;
#X obj 123 145 -;
#X obj 20 183 outlet;
#X obj 20 19 inlet;
#X obj 98 23 inlet;
#X obj 194 24 inlet;
#X connect 0 0 7 0;
#X connect 1 0 2 0;
#X connect 2 0 0 0;
#X connect 3 0 2 1;
#X connect 3 0 5 0;
#X connect 4 0 6 0;
#X connect 5 0 6 0;
#X connect 5 1 6 1;
#X connect 6 0 1 1;
#X connect 8 0 1 0;
#X connect 9 0 3 0;
#X connect 10 0 4 0;
#X restore 603 472 pd rh_scalelog;
#X msg 643 449 0.01;
#X obj 603 491 + 1;
#X obj 599 76 r \$0-curvetime;
#X obj 611 280 r \$0-freq1;
#X obj 599 170 r \$0-freq2;
#X msg 680 115 100;
#X msg 690 220 1000;
#X msg 643 222 1;
#X msg 692 321 150;
#X msg 651 322 20;
#X obj 651 299 r \$0-loadbang;
#X obj 642 194 r \$0-loadbang;
#X obj 639 94 r \$0-loadbang;
#X obj 625 -103 r \$0-loadbang;
#X obj 651 755 r \$0-loadbang;
#X obj 650 656 r \$0-loadbang;
#N canvas 990 474 450 300 tan 0;
#X obj 132 92 *~ -1;
#X obj 62 152 -~;
#X obj 63 182 /~;
#X obj 132 152 +~;
#X obj 62 32 inlet~;
#X obj 132 122 exp~;
#X obj 62 122 exp~;
#X obj 62 242 outlet~;
#X obj 62 62 clip~ -88 88;
#X connect 0 0 5 0;
#X connect 1 0 2 0;
#X connect 2 0 7 0;
#X connect 3 0 2 1;
#X connect 4 0 8 0;
#X connect 5 0 1 1;
#X connect 5 0 3 1;
#X connect 6 0 1 0;
#X connect 6 0 3 0;
#X connect 8 0 0 0;
#X connect 8 0 6 0;
#X restore 419 532 pd tan;
#N canvas 990 474 450 300 tan 0;
#X obj 132 92 *~ -1;
#X obj 62 152 -~;
#X obj 63 182 /~;
#X obj 132 152 +~;
#X obj 62 32 inlet~;
#X obj 132 122 exp~;
#X obj 62 122 exp~;
#X obj 62 242 outlet~;
#X obj 62 212 clip~ -1 1;
#X obj 62 62 clip~ -88 88;
#X connect 0 0 5 0;
#X connect 1 0 2 0;
#X connect 2 0 8 0;
#X connect 3 0 2 1;
#X connect 4 0 9 0;
#X connect 5 0 1 1;
#X connect 5 0 3 1;
#X connect 6 0 1 0;
#X connect 6 0 3 0;
#X connect 8 0 7 0;
#X connect 9 0 0 0;
#X connect 9 0 6 0;
#X restore 404 847 pd tan;
#X floatatom 799 337 5 0 0 0 - - - 0;
#X obj 419 665 *~;
#X obj 799 316 expr min(1 \, pow(60 / $f1 \, 0.5));
#X obj 841 131 noise~;
#X obj 419 407 +~;
#X obj 841 156 lop~ 0.03;
#X obj 841 186 *~ 20;
#X text 832 106 "analog" instability;
#N canvas 0 22 462 312 rh_scalelog 0;
#X obj 20 155 exp;
#X obj 20 107 *;
#X obj 20 130 +;
#X obj 98 87 log;
#X obj 194 84 log;
#X obj 123 123 t b f;
#X obj 123 145 -;
#X obj 20 183 outlet;
#X obj 20 19 inlet;
#X obj 98 23 inlet;
#X obj 194 24 inlet;
#X connect 0 0 7 0;
#X connect 1 0 2 0;
#X connect 2 0 0 0;
#X connect 3 0 2 1;
#X connect 3 0 5 0;
#X connect 4 0 6 0;
#X connect 5 0 6 0;
#X connect 5 1 6 1;
#X connect 6 0 1 1;
#X connect 8 0 1 0;
#X connect 9 0 3 0;
#X connect 10 0 4 0;
#X restore 749 473 pd rh_scalelog;
#X msg 789 450 1;
#X obj 749 492 + 0;
#X obj 419 588 *~;
#X obj 789 428 loadbang;
#X obj 643 427 loadbang;
#X text 858 427 Post-Distortion Gain Staging;
#X obj 419 558 biquad~ -1.55341 -0.622111 0.793881 1.58776 0.793881;
#X msg 684 450 8;
#N canvas 92 117 652 460 buchla-sine 0;
#X obj 58 118 phasor~;
#X obj 58 158 -~ 0.5;
#X obj 58 198 abs~;
#X obj 58 238 *~ 4;
#X obj 58 278 -~ 1;
#X obj 60 372 expr~ tanh($v1);
#X obj 60 433 outlet~;
#X obj 113 77 inlet;
#X obj 57 82 inlet~;
#X obj 59 342 +~ 0.02;
#X obj 60 403 hip~ 3;
#X obj 58 313 *~ 1.6;
#X connect 0 0 1 0;
#X connect 1 0 2 0;
#X connect 2 0 3 0;
#X connect 3 0 4 0;
#X connect 4 0 11 0;
#X connect 5 0 10 0;
#X connect 7 0 0 1;
#X connect 8 0 0 0;
#X connect 9 0 5 0;
#X connect 10 0 6 0;
#X connect 11 0 9 0;
#X restore 308 458 pd buchla-sine;
#X msg 830 451 0.7;
#X obj 536 681 loadbang;
#X msg 567 764 0.5;
#X floatatom 776 -8 5 0 0 0 - - - 0;
#X floatatom 565 318 5 0 0 0 - - - 0;
#X floatatom 677 378 5 0 0 0 - - - 0;
#X connect 0 0 1 1;
#X connect 1 0 76 0;
#X connect 2 0 8 0;
#X connect 3 0 6 0;
#X connect 4 0 5 0;
#X connect 5 0 25 0;
#X connect 6 0 79 0;
#X connect 7 0 44 0;
#X connect 8 0 0 0;
#X connect 10 0 53 1;
#X connect 10 0 92 1;
#X connect 11 0 9 0;
#X connect 12 0 13 0;
#X connect 13 0 9 0;
#X connect 14 0 18 0;
#X connect 15 0 14 1;
#X connect 16 0 15 0;
#X connect 17 0 47 0;
#X connect 17 1 16 0;
#X connect 17 2 42 0;
#X connect 18 0 19 0;
#X connect 19 0 24 0;
#X connect 22 0 74 0;
#X connect 24 0 22 0;
#X connect 25 0 52 0;
#X connect 26 0 22 1;
#X connect 27 0 24 1;
#X connect 28 0 27 1;
#X connect 29 0 27 2;
#X connect 30 0 46 0;
#X connect 31 0 2 1;
#X connect 31 0 35 0;
#X connect 32 0 4 1;
#X connect 33 0 31 0;
#X connect 33 0 96 0;
#X connect 34 0 31 1;
#X connect 35 0 12 1;
#X connect 36 0 12 0;
#X connect 37 0 3 1;
#X connect 38 0 50 0;
#X connect 38 0 98 0;
#X connect 39 0 32 1;
#X connect 40 0 27 0;
#X connect 42 0 14 0;
#X connect 43 0 31 2;
#X connect 44 0 17 0;
#X connect 44 1 4 0;
#X connect 44 2 10 0;
#X connect 45 0 12 0;
#X connect 45 0 7 0;
#X connect 45 2 11 0;
#X connect 45 2 36 0;
#X connect 45 3 2 0;
#X connect 46 0 16 1;
#X connect 47 0 15 0;
#X connect 48 0 26 2;
#X connect 49 0 26 1;
#X connect 50 0 6 1;
#X connect 50 0 77 0;
#X connect 51 0 45 0;
#X connect 52 0 3 0;
#X connect 54 0 73 0;
#X connect 55 0 56 0;
#X connect 55 0 83 0;
#X connect 56 0 58 0;
#X connect 57 0 56 1;
#X connect 58 0 54 1;
#X connect 59 0 32 0;
#X connect 60 0 38 0;
#X connect 60 0 97 0;
#X connect 61 0 37 0;
#X connect 62 0 32 2;
#X connect 63 0 37 2;
#X connect 64 0 37 1;
#X connect 65 0 38 2;
#X connect 66 0 38 1;
#X connect 67 0 66 0;
#X connect 67 0 65 0;
#X connect 68 0 64 0;
#X connect 68 0 63 0;
#X connect 69 0 39 0;
#X connect 69 0 62 0;
#X connect 70 0 34 0;
#X connect 70 0 43 0;
#X connect 71 0 49 0;
#X connect 71 0 48 0;
#X connect 72 0 28 0;
#X connect 72 0 29 0;
#X connect 73 0 90 0;
#X connect 74 0 23 0;
#X connect 75 0 76 1;
#X connect 76 0 18 1;
#X connect 77 0 75 0;
#X connect 78 0 80 0;
#X connect 79 0 92 0;
#X connect 79 0 53 0;
#X connect 80 0 81 0;
#X connect 81 0 79 1;
#X connect 83 0 85 0;
#X connect 84 0 83 1;
#X connect 85 0 86 1;
#X connect 86 0 1 0;
#X connect 87 0 84 0;
#X connect 87 0 93 0;
#X connect 88 0 57 0;
#X connect 88 0 91 0;
#X connect 90 0 86 0;
#X connect 91 0 56 2;
#X connect 92 0 54 0;
#X connect 93 0 83 2;
#X connect 94 0 95 0;
#X connect 95 0 26 0;
#X restore 1101 217 pd bassdrum;
#X obj 137 232 hsl 128 15 0 127 0 1 \$0-param-4-s \$0-param-4-r DIST 133 7 0 10 #db3e14 #000000 #000000 4900 1;
#X obj 137 170 hsl 128 15 0 127 0 1 \$0-param-2-s \$0-param-2-r FREQ2 133 7 0 10 #e86b0d #000000 #000000 7800 1;
#X obj 137 263 hsl 128 15 0 127 0 1 \$0-param-5-s \$0-param-5-r NOISE 133 7 0 10 #d22616 #000000 #000000 12700 1;
#X obj 137 139 hsl 128 15 0 127 0 1 \$0-param-1-s \$0-param-1-r FREQ1 133 7 0 10 #ed8008 #000000 #000000 12700 1;
#X obj 137 294 hsl 128 15 0 127 0 1 \$0-param-6-s \$0-param-6-r LOPASS 133 7 0 10 #c91917 #000000 #000000 12700 1;
#X obj 105 538 hsl 128 15 0 127 0 1 \$0-flam-prob-s \$0-flam-prob-r GAIN 133 7 0 10 #fcfcfc #000000 #000000 12700 1;
#X obj 137 325 hsl 128 15 0 127 0 1 \$0-param-7-s \$0-param-7-r DECAY 133 7 0 10 #c01718 #000000 #000000 7000 1;
#X obj 137 201 hsl 128 15 0 127 0 1 \$0-param-3-s \$0-param-3-r CURVE 133 7 0 10 #e25511 #000000 #000000 9500 1;
#X text 99 13 NOTE: This patch is a simple modification of the hardoff kick-patch. And part of the DIY2 collection of modules.;
#X text 1098 91 TRIGGER-INPUT;
#X obj 103 109 cnv 5 5 5 empty empty IN 0 0 0 8 #ffffff #ff8300 0;
#X obj 134 127 cnv 5 5 5 empty \$0-modul-name SYKCK 0 0 0 12 #fcfcfc #404040 0;
#X obj 176 127 cnv 5 5 5 empty \$0-instance-num 1 0 0 0 12 #fcfcfc #404040 0;
#X obj 103 362 cnv 5 5 5 empty empty OUT 0 0 0 8 #fcfcfc #000000 0;
#X obj 199 109 cnv 5 5 5 empty empty MOD1 0 0 0 8 #fcfcfc #404040 0;
#X obj 1101 111 inlet;
#X obj 1101 129 unpack;
#X obj 1101 147 stripnote;
#X obj 1101 165 bng 16 250 50 0 empty empty empty 0 -8 0 10 #fcfcfc #000000 #000000;
#X obj 1101 335 *~;
#X obj 1152 243 / 127;
#X obj 1152 279 line~;
#X obj 1152 261 pack 0 2;
#N canvas 692 325 668 386 original-patch-stuff 0;
#X obj 293 157 loadbang;
#X obj 344 20 inlet modulation-add;
#X obj 472 20 inlet modulation-multiply;
#X obj 166 22 r \$0-values;
#X obj 345 40 list prepend add;
#X obj 473 41 list prepend mul;
#X obj 55 27 inlet controls;
#X obj 54 61 s \$0-controls;
#N canvas 47 74 1072 591 modulate.oOo..oOo..oOo.. 0;
#X obj 101 271 +;
#X obj 101 250 t b f;
#X obj 82 82 route 0 1 2 3 4 5 6 7;
#X obj 244 216 route 0 1 2 3 4 5 6 7;
#X obj 138 271 +;
#X obj 138 250 t b f;
#X obj 175 271 +;
#X obj 175 250 t b f;
#X obj 212 271 +;
#X obj 212 250 t b f;
#X obj 248 271 +;
#X obj 248 250 t b f;
#X obj 286 271 +;
#X obj 286 250 t b f;
#X obj 323 271 +;
#X obj 323 250 t b f;
#X obj 360 271 +;
#X obj 360 250 t b f;
#X obj 61 8 inlet;
#X obj 99 490 outlet;
#X obj 155 486 outlet;
#X obj 208 489 outlet;
#X obj 264 489 outlet;
#X obj 318 486 outlet;
#X obj 370 486 outlet;
#X obj 425 485 outlet;
#X obj 492 484 outlet;
#X obj 78 409 clip 0 1;
#X obj 132 411 clip 0 1;
#X obj 186 412 clip 0 1;
#X obj 240 414 clip 0 1;
#X obj 294 416 clip 0 1;
#X obj 348 418 clip 0 1;
#X obj 402 419 clip 0 1;
#X obj 456 421 clip 0 1;
#X obj 418 177 route add mul;
#X obj 117 332 t b f;
#X obj 156 335 t b f;
#X obj 193 335 t b f;
#X obj 230 335 t b f;
#X obj 266 335 t b f;
#X obj 304 335 t b f;
#X obj 341 335 t b f;
#X obj 378 335 t b f;
#X obj 118 356 * 1;
#X obj 156 356 * 1;
#X obj 193 356 * 1;
#X obj 231 355 * 1;
#X obj 266 356 * 1;
#X obj 304 356 * 1;
#X obj 341 356 * 1;
#X obj 378 356 * 1;
#X obj 397 275 route 0 1 2 3 4 5 6 7;
#X obj 550 262 +;
#X obj 550 241 t b f;
#X obj 587 262 +;
#X obj 587 241 t b f;
#X obj 624 262 +;
#X obj 624 241 t b f;
#X obj 661 262 +;
#X obj 661 241 t b f;
#X obj 697 262 +;
#X obj 697 241 t b f;
#X obj 735 262 +;
#X obj 735 241 t b f;
#X obj 772 262 +;
#X obj 772 241 t b f;
#X obj 809 262 +;
#X obj 809 241 t b f;
#X obj 548 481 outlet;
#X obj 604 477 outlet;
#X obj 657 480 outlet;
#X obj 713 480 outlet;
#X obj 767 477 outlet;
#X obj 819 477 outlet;
#X obj 874 476 outlet;
#X obj 941 475 outlet;
#X obj 527 400 clip 0 1;
#X obj 581 402 clip 0 1;
#X obj 635 403 clip 0 1;
#X obj 689 405 clip 0 1;
#X obj 743 407 clip 0 1;
#X obj 797 409 clip 0 1;
#X obj 851 410 clip 0 1;
#X obj 905 412 clip 0 1;
#X obj 867 168 route add mul;
#X obj 566 323 t b f;
#X obj 605 326 t b f;
#X obj 642 326 t b f;
#X obj 679 326 t b f;
#X obj 715 326 t b f;
#X obj 753 326 t b f;
#X obj 790 326 t b f;
#X obj 827 326 t b f;
#X obj 567 347 * 1;
#X obj 605 347 * 1;
#X obj 642 347 * 1;
#X obj 680 346 * 1;
#X obj 715 347 * 1;
#X obj 753 347 * 1;
#X obj 790 347 * 1;
#X obj 827 347 * 1;
#X obj 693 206 route 8 9 10 11 12 13 14 5;
#X obj 846 266 route 8 9 10 11 12 13 14 15;
#X msg 79 110 \$1 20;
#X msg 92 130 \$1 20;
#X msg 120 111 \$1 20;
#X msg 133 131 \$1 20;
#X msg 161 110 \$1 20;
#X msg 174 130 \$1 20;
#X msg 202 111 \$1 20;
#X msg 215 131 \$1 20;
#X obj 92 171 line 0 1;
#X obj 109 194 line 0 1;
#X obj 149 166 line 0 1;
#X obj 166 189 line 0 1;
#X obj 207 163 line 0 1;
#X obj 224 186 line 0 1;
#X obj 264 158 line 0 1;
#X obj 281 181 line 0 1;
#X msg 501 51 \$1 20;
#X msg 514 71 \$1 20;
#X msg 542 52 \$1 20;
#X msg 555 72 \$1 20;
#X msg 583 51 \$1 20;
#X msg 596 71 \$1 20;
#X msg 624 52 \$1 20;
#X msg 637 72 \$1 20;
#X obj 512 111 line 0 1;
#X obj 571 107 line 0 1;
#X obj 588 130 line 0 1;
#X obj 629 104 line 0 1;
#X obj 646 127 line 0 1;
#X obj 686 99 line 0 1;
#X obj 703 122 line 0 1;
#X obj 504 22 route 8 9 10 11 12 13 14 15;
#X obj 530 132 line 0 1;
#X obj 845 94 list trim;
#X obj 849 72 inlet;
#X connect 0 0 44 0;
#X connect 1 0 0 0;
#X connect 1 1 0 1;
#X connect 2 0 104 0;
#X connect 2 1 105 0;
#X connect 2 2 106 0;
#X connect 2 3 107 0;
#X connect 2 4 108 0;
#X connect 2 5 109 0;
#X connect 2 6 110 0;
#X connect 2 7 111 0;
#X connect 3 0 0 0;
#X connect 3 1 4 0;
#X connect 3 2 6 0;
#X connect 3 3 8 0;
#X connect 3 4 10 0;
#X connect 3 5 12 0;
#X connect 3 6 14 0;
#X connect 3 7 16 0;
#X connect 4 0 45 0;
#X connect 5 0 4 0;
#X connect 5 1 4 1;
#X connect 6 0 46 0;
#X connect 7 0 6 0;
#X connect 7 1 6 1;
#X connect 8 0 47 0;
#X connect 9 0 8 0;
#X connect 9 1 8 1;
#X connect 10 0 48 0;
#X connect 11 0 10 0;
#X connect 11 1 10 1;
#X connect 12 0 49 0;
#X connect 13 0 12 0;
#X connect 13 1 12 1;
#X connect 14 0 50 0;
#X connect 15 0 14 0;
#X connect 15 1 14 1;
#X connect 16 0 51 0;
#X connect 17 0 16 0;
#X connect 17 1 16 1;
#X connect 18 0 2 0;
#X connect 18 0 135 0;
#X connect 27 0 19 0;
#X connect 28 0 20 0;
#X connect 29 0 21 0;
#X connect 30 0 22 0;
#X connect 31 0 23 0;
#X connect 32 0 24 0;
#X connect 33 0 25 0;
#X connect 34 0 26 0;
#X connect 35 0 3 0;
#X connect 35 1 52 0;
#X connect 36 0 44 0;
#X connect 36 1 44 1;
#X connect 37 0 45 0;
#X connect 37 1 45 1;
#X connect 38 0 46 0;
#X connect 38 1 46 1;
#X connect 39 0 47 0;
#X connect 39 1 47 1;
#X connect 40 0 48 0;
#X connect 40 1 48 1;
#X connect 41 0 49 0;
#X connect 41 1 49 1;
#X connect 42 0 50 0;
#X connect 42 1 50 1;
#X connect 43 0 51 0;
#X connect 43 1 51 1;
#X connect 44 0 27 0;
#X connect 45 0 28 0;
#X connect 46 0 29 0;
#X connect 47 0 30 0;
#X connect 48 0 31 0;
#X connect 49 0 32 0;
#X connect 50 0 33 0;
#X connect 51 0 34 0;
#X connect 52 0 36 0;
#X connect 52 1 37 0;
#X connect 52 2 38 0;
#X connect 52 3 39 0;
#X connect 52 4 40 0;
#X connect 52 5 41 0;
#X connect 52 6 42 0;
#X connect 52 7 43 0;
#X connect 53 0 94 0;
#X connect 54 0 53 0;
#X connect 54 1 53 1;
#X connect 55 0 95 0;
#X connect 56 0 55 0;
#X connect 56 1 55 1;
#X connect 57 0 96 0;
#X connect 58 0 57 0;
#X connect 58 1 57 1;
#X connect 59 0 97 0;
#X connect 60 0 59 0;
#X connect 60 1 59 1;
#X connect 61 0 98 0;
#X connect 62 0 61 0;
#X connect 62 1 61 1;
#X connect 63 0 99 0;
#X connect 64 0 63 0;
#X connect 64 1 63 1;
#X connect 65 0 100 0;
#X connect 66 0 65 0;
#X connect 66 1 65 1;
#X connect 67 0 101 0;
#X connect 68 0 67 0;
#X connect 68 1 67 1;
#X connect 77 0 69 0;
#X connect 78 0 70 0;
#X connect 79 0 71 0;
#X connect 80 0 72 0;
#X connect 81 0 73 0;
#X connect 82 0 74 0;
#X connect 83 0 75 0;
#X connect 84 0 76 0;
#X connect 85 0 102 0;
#X connect 85 1 103 0;
#X connect 86 0 94 0;
#X connect 86 1 94 1;
#X connect 87 0 95 0;
#X connect 87 1 95 1;
#X connect 88 0 96 0;
#X connect 88 1 96 1;
#X connect 89 0 97 0;
#X connect 89 1 97 1;
#X connect 90 0 98 0;
#X connect 90 1 98 1;
#X connect 91 0 99 0;
#X connect 91 1 99 1;
#X connect 92 0 100 0;
#X connect 92 1 100 1;
#X connect 93 0 101 0;
#X connect 93 1 101 1;
#X connect 94 0 77 0;
#X connect 95 0 78 0;
#X connect 96 0 79 0;
#X connect 97 0 80 0;
#X connect 98 0 81 0;
#X connect 99 0 82 0;
#X connect 100 0 83 0;
#X connect 101 0 84 0;
#X connect 102 0 53 0;
#X connect 102 1 55 0;
#X connect 102 2 57 0;
#X connect 102 3 59 0;
#X connect 102 4 61 0;
#X connect 102 5 63 0;
#X connect 102 6 65 0;
#X connect 102 7 67 0;
#X connect 103 0 86 0;
#X connect 103 1 87 0;
#X connect 103 2 88 0;
#X connect 103 3 89 0;
#X connect 103 4 90 0;
#X connect 103 5 91 0;
#X connect 103 6 92 0;
#X connect 103 7 93 0;
#X connect 104 0 112 0;
#X connect 105 0 113 0;
#X connect 106 0 114 0;
#X connect 107 0 115 0;
#X connect 108 0 116 0;
#X connect 109 0 117 0;
#X connect 110 0 118 0;
#X connect 111 0 119 0;
#X connect 112 0 1 0;
#X connect 113 0 5 0;
#X connect 114 0 7 0;
#X connect 115 0 9 0;
#X connect 116 0 11 0;
#X connect 117 0 13 0;
#X connect 118 0 15 0;
#X connect 119 0 17 0;
#X connect 120 0 128 0;
#X connect 121 0 136 0;
#X connect 122 0 129 0;
#X connect 123 0 130 0;
#X connect 124 0 131 0;
#X connect 125 0 132 0;
#X connect 126 0 133 0;
#X connect 127 0 134 0;
#X connect 128 0 54 0;
#X connect 129 0 58 0;
#X connect 130 0 60 0;
#X connect 131 0 62 0;
#X connect 132 0 64 0;
#X connect 133 0 66 0;
#X connect 134 0 68 0;
#X connect 135 0 120 0;
#X connect 135 1 121 0;
#X connect 135 2 122 0;
#X connect 135 3 123 0;
#X connect 135 4 124 0;
#X connect 135 5 125 0;
#X connect 135 6 126 0;
#X connect 135 7 127 0;
#X connect 136 0 56 0;
#X connect 137 0 35 0;
#X connect 137 0 85 0;
#X connect 138 0 137 0;
#X restore 333 71 pd modulate.oOo..oOo..oOo..;
#X msg 33 186 44;
#X msg 33 208 65;
#X msg 33 231 89;
#X msg 33 253 112;
#X obj 293 180 t b b;
#X obj 11 131 s \$0-freq1;
#X obj 79 131 s \$0-freq2;
#X obj 155 131 s \$0-curvetime;
#X obj 248 128 s \$0-square;
#X obj 420 126 s \$0-lowpass;
#X obj 499 126 s \$0-decay;
#X obj 567 125 s \$0-gain;
#X obj 324 127 s \$0-noizelevel;
#X msg 102 218 freq1 freq2 curvetime square noizelevel lowpass decay gain;
#X msg 218 259 0.4 0.4 0.4 0 0.7 0.7 0.49 0.49;
#N canvas 87 94 841 690 list-functions 0;
#N canvas 0 22 466 316 list-enumerate 0;
#X obj 107 63 t a b;
#N canvas 473 338 458 308 count 0;
#X obj 131 154 f 0;
#X obj 156 153 + 1;
#X msg 147 133 0;
#X obj 131 183 outlet;
#X obj 131 59 inlet;
#X obj 131 96 b;
#X obj 178 61 inlet;
#X obj 178 98 b;
#X connect 0 0 1 0;
#X connect 0 0 3 0;
#X connect 1 0 0 1;
#X connect 2 0 0 1;
#X connect 4 0 5 0;
#X connect 5 0 0 0;
#X connect 6 0 7 0;
#X connect 7 0 2 0;
#X restore 186 155 pd count;
#X obj 107 113 t a b;
#X obj 107 33 inlet;
#X obj 107 181 list prepend;
#X obj 107 209 outlet;
#X obj 165 209 outlet;
#N canvas 0 22 537 411 drip 0;
#X obj 64 206 list split 1;
#X obj 64 123 until;
#X obj 64 181 list append;
#X obj 194 206 bang;
#X text 146 90 First store list \, then start the loop;
#X text 163 118 "until" bangs its output until told to stop by a "bang" to its right inlet.;
#X text 182 160 Store the remaining list.;
#X text 239 205 third outlet of "split" tells us to stop.;
#X obj 64 243 outlet;
#X obj 64 57 inlet;
#X text 237 44 From list-help.pd;
#X obj 143 243 outlet;
#X obj 64 86 t b a;
#X connect 0 0 8 0;
#X connect 0 1 2 1;
#X connect 0 2 3 0;
#X connect 0 2 11 0;
#X connect 1 0 2 0;
#X connect 2 0 0 0;
#X connect 3 0 1 1;
#X connect 9 0 12 0;
#X connect 12 0 1 0;
#X connect 12 1 2 1;
#X restore 110 88 pd drip;
#X obj 76 154 list prepend label;
#X connect 0 0 7 0;
#X connect 0 1 1 1;
#X connect 1 0 4 1;
#X connect 2 0 8 0;
#X connect 2 1 1 0;
#X connect 3 0 0 0;
#X connect 4 0 5 0;
#X connect 7 0 2 0;
#X connect 7 1 6 0;
#X connect 8 0 4 0;
#X restore 37 184 pd list-enumerate;
#X obj 37 230 s \$0-controls;
#N canvas 0 22 482 332 list-enumerate 0;
#N canvas 473 338 458 308 count 0;
#X obj 131 154 f 0;
#X obj 156 153 + 1;
#X msg 147 133 0;
#X obj 131 183 outlet;
#X obj 131 59 inlet;
#X obj 131 96 b;
#X obj 178 61 inlet;
#X obj 178 98 b;
#X connect 0 0 1 0;
#X connect 0 0 3 0;
#X connect 1 0 0 1;
#X connect 2 0 0 1;
#X connect 4 0 5 0;
#X connect 5 0 0 0;
#X connect 6 0 7 0;
#X connect 7 0 2 0;
#X restore 186 155 pd count;
#X obj 107 113 t a b;
#X obj 107 33 inlet;
#X obj 107 181 list prepend;
#X obj 112 253 outlet;
#N canvas 0 22 541 415 drip 0;
#X obj 64 206 list split 1;
#X obj 64 123 until;
#X obj 64 181 list append;
#X obj 194 206 bang;
#X text 146 90 First store list \, then start the loop;
#X text 163 118 "until" bangs its output until told to stop by a "bang" to its right inlet.;
#X text 182 160 Store the remaining list.;
#X text 239 205 third outlet of "split" tells us to stop.;
#X obj 64 243 outlet;
#X obj 64 57 inlet;
#X text 237 44 From list-help.pd;
#X obj 143 243 outlet;
#X obj 64 86 t b a;
#X connect 0 0 8 0;
#X connect 0 1 2 1;
#X connect 0 2 3 0;
#X connect 0 2 11 0;
#X connect 1 0 2 0;
#X connect 2 0 0 0;
#X connect 3 0 1 1;
#X connect 9 0 12 0;
#X connect 12 0 1 0;
#X connect 12 1 2 1;
#X restore 110 88 pd drip;
#X obj 107 63 t a b;
#X connect 0 0 3 1;
#X connect 1 0 3 0;
#X connect 1 1 0 0;
#X connect 2 0 6 0;
#X connect 3 0 4 0;
#X connect 5 0 1 0;
#X connect 6 0 5 0;
#X connect 6 1 0 1;
#X restore 149 183 pd list-enumerate;
#N canvas 0 22 498 348 list-enumerate 0;
#N canvas 473 338 458 308 count 0;
#X obj 131 154 f 0;
#X obj 156 153 + 1;
#X msg 147 133 0;
#X obj 131 183 outlet;
#X obj 131 59 inlet;
#X obj 131 96 b;
#X obj 178 61 inlet;
#X obj 178 98 b;
#X connect 0 0 1 0;
#X connect 0 0 3 0;
#X connect 1 0 0 1;
#X connect 2 0 0 1;
#X connect 4 0 5 0;
#X connect 5 0 0 0;
#X connect 6 0 7 0;
#X connect 7 0 2 0;
#X restore 186 155 pd count;
#X obj 107 113 t a b;
#X obj 107 33 inlet;
#X obj 107 181 list prepend;
#X obj 112 253 outlet;
#N canvas 0 22 541 415 drip 0;
#X obj 64 206 list split 1;
#X obj 64 123 until;
#X obj 64 181 list append;
#X obj 194 206 bang;
#X text 146 90 First store list \, then start the loop;
#X text 163 118 "until" bangs its output until told to stop by a "bang" to its right inlet.;
#X text 182 160 Store the remaining list.;
#X text 239 205 third outlet of "split" tells us to stop.;
#X obj 64 243 outlet;
#X obj 64 57 inlet;
#X text 237 44 From list-help.pd;
#X obj 143 243 outlet;
#X obj 64 86 t b a;
#X connect 0 0 8 0;
#X connect 0 1 2 1;
#X connect 0 2 3 0;
#X connect 0 2 11 0;
#X connect 1 0 2 0;
#X connect 2 0 0 0;
#X connect 3 0 1 1;
#X connect 9 0 12 0;
#X connect 12 0 1 0;
#X connect 12 1 2 1;
#X restore 110 88 pd drip;
#X obj 194 215 t a;
#X obj 106 209 list prepend;
#X obj 107 63 t a b b;
#X connect 0 0 3 1;
#X connect 1 0 3 0;
#X connect 1 1 0 0;
#X connect 2 0 8 0;
#X connect 3 0 7 0;
#X connect 5 0 1 0;
#X connect 6 0 7 1;
#X connect 7 0 6 0;
#X connect 7 0 4 0;
#X connect 8 0 5 0;
#X connect 8 1 0 1;
#X connect 8 2 7 1;
#X restore 411 149 pd list-enumerate;
#X obj 104 251 r \$0-controls;
#X obj 272 98 r \$0-values;
#N canvas 283 65 551 703 replacelist 0;
#X obj 164 224 list;
#X obj 327 98 inlet;
#X obj 250 98 inlet;
#X text 331 72 orig;
#X text 256 74 pos;
#X text 77 70 list to insert;
#X obj 85 94 inlet;
#X obj 207 281 list split;
#X obj 85 526 list;
#X obj 85 598 outlet;
#X obj 85 317 list prepend;
#X obj 85 120 t a b a b;
#X obj 85 430 list prepend 0;
#X obj 250 125 t f f;
#X obj 207 524 list prepend;
#X obj 85 469 route 0 1;
#X obj 316 347 f;
#X obj 286 282 t a b;
#X obj 316 377 > 0;
#X obj 122 358 r \$0-init;
#X obj 122 377 0;
#X obj 300 524 r \$0-init;
#X obj 176 317 r \$0-init;
#X obj 118 527 r \$0-init;
#X obj 159 131 s \$0-init;
#X text 47 25 list-replace: Replace the list starting at position POS with a new list \, overwriting the old elements.;
#N canvas 0 22 458 308 length 0;
#X obj 171 164 + 1;
#X obj 92 127 b;
#X obj 126 204 f;
#X obj 158 138 1;
#X obj 142 166 f 1;
#X obj 216 168 0;
#X obj 136 59 t a b b;
#N canvas 0 22 537 411 drip 0;
#X obj 64 206 list split 1;
#X obj 64 123 until;
#X obj 64 181 list append;
#X obj 194 206 bang;
#X text 146 90 First store list \, then start the loop;
#X text 163 118 "until" bangs its output until told to stop by a "bang" to its right inlet.;
#X text 182 160 Store the remaining list.;
#X text 239 205 third outlet of "split" tells us to stop.;
#X obj 64 243 outlet;
#X obj 64 57 inlet;
#X text 237 44 From list-help.pd;
#X obj 143 243 outlet;
#X obj 64 86 t b a;
#X connect 0 0 8 0;
#X connect 0 1 2 1;
#X connect 0 2 3 0;
#X connect 0 2 11 0;
#X connect 1 0 2 0;
#X connect 2 0 0 0;
#X connect 3 0 1 1;
#X connect 9 0 12 0;
#X connect 12 0 1 0;
#X connect 12 1 2 1;
#X restore 92 104 pd drip;
#X obj 137 36 inlet;
#X obj 125 238 outlet;
#X connect 0 0 4 1;
#X connect 1 0 4 0;
#X connect 2 0 9 0;
#X connect 3 0 4 1;
#X connect 4 0 0 0;
#X connect 4 0 2 1;
#X connect 5 0 2 1;
#X connect 6 0 7 0;
#X connect 6 1 3 0;
#X connect 6 2 5 0;
#X connect 7 0 1 0;
#X connect 7 1 2 0;
#X connect 8 0 6 0;
#X restore 268 216 pd length;
#X obj 162 254 list split;
#X connect 0 0 27 0;
#X connect 1 0 0 1;
#X connect 2 0 13 0;
#X connect 6 0 11 0;
#X connect 7 1 8 1;
#X connect 7 1 14 1;
#X connect 8 0 9 0;
#X connect 10 0 12 0;
#X connect 11 0 10 0;
#X connect 11 1 0 0;
#X connect 11 2 26 0;
#X connect 11 3 24 0;
#X connect 12 0 15 0;
#X connect 13 0 27 1;
#X connect 13 1 16 1;
#X connect 14 0 9 0;
#X connect 15 0 8 0;
#X connect 15 1 14 0;
#X connect 16 0 18 0;
#X connect 17 0 14 1;
#X connect 17 0 8 1;
#X connect 17 1 16 0;
#X connect 18 0 12 1;
#X connect 19 0 20 0;
#X connect 20 0 12 1;
#X connect 21 0 14 1;
#X connect 22 0 10 1;
#X connect 23 0 8 1;
#X connect 26 0 7 1;
#X connect 27 0 10 1;
#X connect 27 1 7 0;
#X connect 27 2 17 0;
#X restore 289 199 pd replacelist;
#X obj 423 265 t a;
#X obj 272 130 swap;
#X obj 50 109 inlet;
#N canvas 0 22 545 419 drip2 0;
#X obj 64 123 until;
#X obj 64 181 list append;
#X obj 194 206 bang;
#X text 146 90 First store list \, then start the loop;
#X text 163 118 "until" bangs its output until told to stop by a "bang" to its right inlet.;
#X text 182 160 Store the remaining list.;
#X text 239 205 third outlet of "split" tells us to stop.;
#X obj 64 243 outlet;
#X obj 64 57 inlet;
#X text 237 44 From list-help.pd;
#X obj 143 243 outlet;
#X obj 64 86 t b a;
#X obj 64 206 list split 2;
#X connect 0 0 1 0;
#X connect 1 0 12 0;
#X connect 2 0 0 1;
#X connect 8 0 11 0;
#X connect 11 0 0 0;
#X connect 11 1 1 1;
#X connect 12 0 7 0;
#X connect 12 1 1 1;
#X connect 12 2 2 0;
#X connect 12 2 10 0;
#X restore 190 285 pd drip2;
#X obj 253 24 inlet;
#X obj 144 355 route 0 1 2 3 4 5 6 7 8 9 10 11 12 13 14 15;
#X obj 144 381 s \$0-ra;
#X obj 156 401 s \$0-rb;
#X obj 167 422 s \$0-rc;
#X obj 179 442 s \$0-rd;
#X obj 194 381 s \$0-re;
#X obj 206 401 s \$0-rf;
#X obj 217 422 s \$0-rg;
#X obj 229 442 s \$0-rh;
#X obj 250 383 s \$0-ri;
#X obj 262 403 s \$0-rj;
#X obj 273 424 s \$0-rk;
#X obj 285 444 s \$0-rl;
#X obj 299 383 s \$0-rm;
#X obj 312 403 s \$0-rn;
#X obj 323 424 s \$0-ro;
#X obj 335 444 s \$0-rp;
#X obj 35 505 r \$0-a;
#X msg 35 530 0 \$1;
#X obj 78 505 r \$0-b;
#X msg 77 529 1 \$1;
#X obj 121 505 r \$0-c;
#X obj 164 505 r \$0-d;
#X msg 121 530 2 \$1;
#X msg 163 529 3 \$1;
#X obj 208 503 r \$0-e;
#X obj 251 503 r \$0-f;
#X obj 294 503 r \$0-g;
#X obj 337 503 r \$0-h;
#X msg 208 528 4 \$1;
#X msg 250 526 5 \$1;
#X msg 294 527 6 \$1;
#X msg 336 527 7 \$1;
#X obj 383 503 r \$0-i;
#X obj 426 502 r \$0-j;
#X obj 468 503 r \$0-k;
#X obj 512 503 r \$0-l;
#X obj 556 501 r \$0-m;
#X obj 599 501 r \$0-o;
#X obj 642 501 r \$0-p;
#X obj 685 501 r \$0-q;
#X msg 383 528 8 \$1;
#X msg 425 527 9 \$1;
#X msg 469 528 10 \$1;
#X msg 511 527 11 \$1;
#X msg 556 526 12 \$1;
#X msg 598 524 13 \$1;
#X msg 641 525 14 \$1;
#X msg 684 525 15 \$1;
#X obj 683 559 s \$0-values;
#X obj 413 202 t a a;
#X obj 412 182 list;
#X obj 294 150 * 2;
#X obj 295 170 + 1;
#X obj 191 253 t a a;
#X obj 257 47 t a b a a;
#X connect 0 0 1 0;
#X connect 2 0 1 0;
#X connect 3 0 63 1;
#X connect 4 0 12 0;
#X connect 5 0 8 0;
#X connect 6 0 7 0;
#X connect 7 0 6 2;
#X connect 8 0 6 0;
#X connect 8 1 64 0;
#X connect 9 0 0 0;
#X connect 10 0 12 0;
#X connect 11 0 67 0;
#X connect 12 0 13 0;
#X connect 12 1 14 0;
#X connect 12 2 15 0;
#X connect 12 3 16 0;
#X connect 12 4 17 0;
#X connect 12 5 18 0;
#X connect 12 6 19 0;
#X connect 12 7 20 0;
#X connect 12 8 21 0;
#X connect 12 9 22 0;
#X connect 12 10 23 0;
#X connect 12 11 24 0;
#X connect 12 12 25 0;
#X connect 12 13 26 0;
#X connect 12 14 27 0;
#X connect 12 15 28 0;
#X connect 29 0 30 0;
#X connect 30 0 61 0;
#X connect 31 0 32 0;
#X connect 32 0 61 0;
#X connect 33 0 35 0;
#X connect 34 0 36 0;
#X connect 35 0 61 0;
#X connect 36 0 61 0;
#X connect 37 0 41 0;
#X connect 38 0 42 0;
#X connect 39 0 43 0;
#X connect 40 0 44 0;
#X connect 41 0 61 0;
#X connect 42 0 61 0;
#X connect 43 0 61 0;
#X connect 44 0 61 0;
#X connect 45 0 53 0;
#X connect 46 0 54 0;
#X connect 47 0 55 0;
#X connect 48 0 56 0;
#X connect 49 0 57 0;
#X connect 50 0 58 0;
#X connect 51 0 59 0;
#X connect 52 0 60 0;
#X connect 53 0 61 0;
#X connect 54 0 61 0;
#X connect 55 0 61 0;
#X connect 56 0 61 0;
#X connect 57 0 61 0;
#X connect 58 0 61 0;
#X connect 59 0 61 0;
#X connect 60 0 61 0;
#X connect 62 0 6 2;
#X connect 63 0 62 0;
#X connect 64 0 65 0;
#X connect 65 0 6 1;
#X connect 66 0 10 0;
#X connect 66 1 6 2;
#X connect 67 0 2 0;
#X connect 67 1 63 0;
#X connect 67 2 3 0;
#X restore 149 307 pd list-functions;
#X obj 338 185 s \$0-loadbang;
#X obj 494 225 vradio 15 1 0 2 \$0-steady \$0-steady-r empty 0 -6 0 10 #fcfcfc #000000 #000000 0;
#X text 512 222 steady;
#X text 515 240 jump;
#X text 552 229 ) on click;
#N canvas 342 134 608 504 jumponclick 0;
#X obj 144 355 route 0 1 2 3 4 5 6 7 8 9 10 11 12 13 14 15;
#X obj 144 381 s \$0-ra;
#X obj 156 401 s \$0-rb;
#X obj 167 422 s \$0-rc;
#X obj 179 442 s \$0-rd;
#X obj 194 381 s \$0-re;
#X obj 206 401 s \$0-rf;
#X obj 217 422 s \$0-rg;
#X obj 229 442 s \$0-rh;
#X obj 250 383 s \$0-ri;
#X obj 262 403 s \$0-rj;
#X obj 273 424 s \$0-rk;
#X obj 285 444 s \$0-rl;
#X obj 299 383 s \$0-rm;
#X obj 312 403 s \$0-rn;
#X obj 323 424 s \$0-ro;
#X obj 335 444 s \$0-rp;
#X obj 205 178 f;
#X obj 232 180 + 1;
#X obj 205 156 until;
#X msg 243 150 0;
#X obj 205 125 t f b;
#X msg 216 265 \$1 steady \$2;
#X msg 216 86 16;
#X obj 214 2 r \$0-steady;
#X obj 210 218 pack 0 0;
#X obj 214 65 t b f f;
#X msg 364 211 set \$1;
#X msg 390 253 1;
#X obj 418 205 loadbang;
#X msg 389 275 set \$1;
#X obj 388 298 s \$0-steady-r;
#X obj 285 156 - 1;
#X obj 286 176 abs;
#X connect 0 0 1 0;
#X connect 0 1 2 0;
#X connect 0 2 3 0;
#X connect 0 3 4 0;
#X connect 0 4 5 0;
#X connect 0 5 6 0;
#X connect 0 6 7 0;
#X connect 0 7 8 0;
#X connect 0 8 9 0;
#X connect 0 9 10 0;
#X connect 0 10 11 0;
#X connect 0 11 12 0;
#X connect 0 12 13 0;
#X connect 0 13 14 0;
#X connect 0 14 15 0;
#X connect 0 15 16 0;
#X connect 17 0 18 0;
#X connect 17 0 25 0;
#X connect 18 0 17 1;
#X connect 19 0 17 0;
#X connect 20 0 17 1;
#X connect 21 0 19 0;
#X connect 21 1 20 0;
#X connect 22 0 0 0;
#X connect 23 0 21 0;
#X connect 24 0 26 0;
#X connect 25 0 22 0;
#X connect 26 0 23 0;
#X connect 26 1 32 0;
#X connect 26 2 27 0;
#X connect 27 0 28 0;
#X connect 28 0 30 0;
#X connect 29 0 28 0;
#X connect 30 0 31 0;
#X connect 32 0 33 0;
#X connect 33 0 25 1;
#X restore 496 281 pd jumponclick;
#X connect 0 0 13 0;
#X connect 1 0 4 0;
#X connect 2 0 5 0;
#X connect 3 0 8 0;
#X connect 4 0 8 1;
#X connect 5 0 8 1;
#X connect 6 0 7 0;
#X connect 8 0 14 0;
#X connect 8 1 15 0;
#X connect 8 2 16 0;
#X connect 8 3 17 0;
#X connect 8 4 21 0;
#X connect 8 5 18 0;
#X connect 8 6 19 0;
#X connect 8 7 20 0;
#X connect 13 0 23 0;
#X connect 13 1 25 0;
#X connect 22 0 24 0;
#X connect 23 0 24 1;
#X restore 104 580 pd original-patch-stuff;
#X obj 308 358 bng 10 250 50 0 \$0-options-button \$0-options-button-r OPTIONS -45 5 0 10 #fcfcfc #000000 #000000;
#X text 105 471 Old Stuff:;
#X text 487 248 <--rename labels here;
#X text 487 268 <--modules values are saved here;
#X obj 337 118 text define -k \$0-modul-settings;
#A set SYKCK \; FREQ1 \; FREQ2 \; CURVE \; DIST \; NOISE \; LOPASS \; DECAY \; none \; SRC \; 7 \; #ed8008 \; #e86b0d \; #e25511 \; #db3e14 \; #d22616 \; #c91917 \; #c01718 \; #bf1b1b \;;
#N canvas 324 349 425 350 info 0;
#X text 23 12 This textfile contains all necessery names of the module and the names of the gui (faders etc.). This way its much easier to change the names of all elements simply by editing the text object.;
#X text 25 93 The Order of the file \; 0=Modul-Name \; 1=Name Param1 - write non if unused \; 2=Name Param2 \; 3=Name Param3 \; 4=Name Param4 \; 5=Name Param5 \; 6=Name Param6 \; 7=Name Param7 \; 8=Name Param8 \; 9=Type of Module (SRC \, MOD \, LFO \, EFX etc) \; 10=Number of used Parameters (1-8) \; 11=Color of Param1-Circle 12=Color of Param2-Circle \; 13=Color of Param3-Circle \; 14=Color of Param4-Circle \; 15=Color of Param5-Circle \; 16=Color of Param6-Circle \; 17=Color of Param7-Circle \; 18=Color of Param8-Circle \; ....;
#X restore 559 119 pd info;
#X text 537 118 ->;
#X text 335 98 Parameter-Values + Names + Colors:;
#X text 438 286 <--Opens the Options-Subpatch;
#X text 99 82 DESKTOP-GUI-INTERFACE:;
#X obj 339 532 s \$0-param-1-t;
#X msg 339 513 symbol \$1%;
#X obj 339 455 / 1.27;
#X floatatom 339 474 5 0 0 0 - - - 0;
#X obj 339 494 i;
#X obj 337 355 s \$0-a;
#X obj 391 355 s \$0-b;
#X obj 445 355 s \$0-c;
#X obj 500 355 s \$0-d;
#X obj 554 354 s \$0-e;
#X obj 609 354 s \$0-f;
#X obj 663 353 s \$0-g;
#X obj 718 353 s \$0-h;
#X text 763 353 <--these go to the dsp-object;
#X text 1156 173 Velocity;
#X text 1049 166 Trigger;
#X text 1153 354 <--SOUND-OUTLET;
#X text 437 206 <--receives encoder messages from mother.pd;
#X text 437 186 <--sends display info to mother.pd;
#X text 447 226 <--checks menu and if module is "active";
#X text 983 217 SOUND DSP-------->;
#X text 734 326 <--receives audio + message for mod;
#X obj 339 434 r \$0-param-1-s;
#X msg 435 513 symbol \$1%;
#X obj 435 455 / 1.27;
#X floatatom 435 474 5 0 0 0 - - - 0;
#X obj 435 494 i;
#X obj 435 434 r \$0-param-2-s;
#X obj 435 532 s \$0-param-2-t;
#X msg 533 512 symbol \$1%;
#X obj 533 454 / 1.27;
#X floatatom 533 473 5 0 0 0 - - - 0;
#X obj 533 493 i;
#X obj 533 433 r \$0-param-3-s;
#X obj 533 531 s \$0-param-3-t;
#X msg 633 512 symbol \$1%;
#X obj 633 454 / 1.27;
#X floatatom 633 473 5 0 0 0 - - - 0;
#X obj 633 493 i;
#X obj 633 433 r \$0-param-4-s;
#X obj 633 531 s \$0-param-4-t;
#X msg 339 653 symbol \$1%;
#X obj 339 595 / 1.27;
#X floatatom 339 614 5 0 0 0 - - - 0;
#X obj 339 634 i;
#X msg 435 653 symbol \$1%;
#X obj 435 595 / 1.27;
#X floatatom 435 614 5 0 0 0 - - - 0;
#X obj 435 634 i;
#X msg 533 652 symbol \$1%;
#X obj 533 594 / 1.27;
#X floatatom 533 613 5 0 0 0 - - - 0;
#X obj 533 633 i;
#X msg 633 652 symbol \$1%;
#X obj 633 594 / 1.27;
#X floatatom 633 613 5 0 0 0 - - - 0;
#X obj 633 633 i;
#X obj 339 574 r \$0-param-5-s;
#X obj 339 672 s \$0-param-5-t;
#X obj 435 574 r \$0-param-6-s;
#X obj 435 672 s \$0-param-6-t;
#X obj 533 573 r \$0-param-7-s;
#X obj 533 671 s \$0-param-7-t;
#X obj 633 573 r \$0-param-8-s;
#X obj 633 671 s \$0-param-8-t;
#X obj 137 154 hsl 61 8 0 127 0 1 \$0-param-9-s \$0-param-9-r empty 133 7 0 10 #606060 #000000 #000000 0 1;
#X obj 204 154 hsl 61 8 0 127 0 1 \$0-param-17-s \$0-param-17-r empty 133 7 0 10 #7c7c7c #000000 #000000 0 1;
#X obj 137 185 hsl 61 8 0 127 0 1 \$0-param-10-s \$0-param-10-r empty 133 7 0 10 #606060 #000000 #000000 945 1;
#X obj 204 185 hsl 61 8 0 127 0 1 \$0-param-18-s \$0-param-18-r empty 133 7 0 10 #7c7c7c #000000 #000000 627 1;
#X obj 137 216 hsl 61 8 0 127 0 1 \$0-param-11-s \$0-param-11-r empty 133 7 0 10 #606060 #000000 #000000 756 1;
#X obj 204 216 hsl 61 8 0 127 0 1 \$0-param-19-s \$0-param-19-r empty 133 7 0 10 #7c7c7c #000000 #000000 1181 1;
#X obj 137 247 hsl 61 8 0 127 0 1 \$0-param-12-s \$0-param-12-r empty 133 7 0 10 #606060 #000000 #000000 800 1;
#X obj 204 247 hsl 61 8 0 127 0 1 \$0-param-20-s \$0-param-20-r empty 133 7 0 10 #7c7c7c #000000 #000000 2300 1;
#X obj 137 278 hsl 61 8 0 127 0 1 \$0-param-13-s \$0-param-13-r empty 133 7 0 10 #606060 #000000 #000000 0 1;
#X obj 204 278 hsl 61 8 0 127 0 1 \$0-param-21-s \$0-param-21-r empty 133 7 0 10 #7c7c7c #000000 #000000 6000 1;
#X obj 137 309 hsl 61 8 0 127 0 1 \$0-param-14-s \$0-param-14-r empty 133 7 0 10 #606060 #000000 #000000 0 1;
#X obj 204 309 hsl 61 8 0 127 0 1 \$0-param-22-s \$0-param-22-r empty 133 7 0 10 #7c7c7c #000000 #000000 6000 1;
#X obj 137 340 hsl 61 8 0 127 0 1 \$0-param-15-s \$0-param-15-r empty 133 7 0 10 #606060 #000000 #000000 0 1;
#X obj 204 340 hsl 61 8 0 127 0 1 \$0-param-23-s \$0-param-23-r empty 133 7 0 10 #7c7c7c #000000 #000000 3200 1;
#X obj 1279 108 inlet~;
#X obj 1399 108 inlet~;
#X obj 298 108 cnv 5 5 5 empty empty MOD2 0 0 0 8 #fcfcfc #404040 0;
#X obj 1279 198 throw~ \$0-mod1;
#X obj 1399 197 throw~ \$0-mod2;
#X text 1277 91 MOD1;
#X text 1397 91 MOD2;
#X obj 337 186 core_display \$0;
#X obj 337 206 core_encoder \$0;
#X obj 337 227 core_main_menu \$0;
#X obj 337 248 core_module_settings \$0;
#X obj 337 327 core_modulation_receiver \$0, f 64;
#X obj 337 268 core_state_saving \$0 \$1;
#X obj 337 287 core_options \$0;
#X text 336 165 Modul Core:;
#X text 337 410 Value Display Representation:;
#X obj 337 307 core_mod_display \$0;
#X connect 3 0 23 0;
#X connect 19 0 20 0;
#X connect 20 0 21 0;
#X connect 20 1 21 1;
#X connect 21 0 22 0;
#X connect 21 1 24 0;
#X connect 22 0 3 0;
#X connect 23 0 0 0;
#X connect 24 0 26 0;
#X connect 25 0 23 1;
#X connect 26 0 25 0;
#X connect 39 0 38 0;
#X connect 40 0 41 0;
#X connect 41 0 42 0;
#X connect 42 0 39 0;
#X connect 60 0 40 0;
#X connect 61 0 66 0;
#X connect 62 0 63 0;
#X connect 63 0 64 0;
#X connect 64 0 61 0;
#X connect 65 0 62 0;
#X connect 67 0 72 0;
#X connect 68 0 69 0;
#X connect 69 0 70 0;
#X connect 70 0 67 0;
#X connect 71 0 68 0;
#X connect 73 0 78 0;
#X connect 74 0 75 0;
#X connect 75 0 76 0;
#X connect 76 0 73 0;
#X connect 77 0 74 0;
#X connect 79 0 96 0;
#X connect 80 0 81 0;
#X connect 81 0 82 0;
#X connect 82 0 79 0;
#X connect 83 0 98 0;
#X connect 84 0 85 0;
#X connect 85 0 86 0;
#X connect 86 0 83 0;
#X connect 87 0 100 0;
#X connect 88 0 89 0;
#X connect 89 0 90 0;
#X connect 90 0 87 0;
#X connect 91 0 102 0;
#X connect 92 0 93 0;
#X connect 93 0 94 0;
#X connect 94 0 91 0;
#X connect 95 0 80 0;
#X connect 97 0 84 0;
#X connect 99 0 88 0;
#X connect 101 0 92 0;
#X connect 117 0 120 0;
#X connect 118 0 121 0;
#X connect 128 0 43 0;
#X connect 128 1 44 0;
#X connect 128 2 45 0;
#X connect 128 3 46 0;
#X connect 128 4 47 0;
#X connect 128 5 48 0;
#X connect 128 6 49 0;
#X connect 128 7 50 0;
#X coords 0 -1 1 1 220 270 2 100 100;
