#N canvas 157 25 1283 612 10;
#X obj 409 -39 outlet~;
#X obj 628 243 hsl 60 10 0 1 0 0 \$0-a \$0-ra freq1 -2 -7 0 10 #003880 #fcfcfc #001488 0 0;
#X obj 999 247 hsl 60 10 0 1 0 0 \$0-c \$0-rc curvetime -2 -7 0 10 #003880 #fcfcfc #001488 0 0;
#X obj 800 247 hsl 60 10 0 1 0 0 \$0-b \$0-rb freq2 -2 -7 0 10 #003880 #fcfcfc #001488 0 0;
#X obj 1164 251 hsl 60 10 0 1 0 0 \$0-d \$0-rd square -2 -7 0 10 #003880 #fcfcfc #001488 0 0;
#X obj 1336 247 hsl 60 10 0 1 0 0 \$0-e \$0-re noizelevel -2 -7 0 10 #003880 #fcfcfc #001488 0 0;
#X obj 1717 246 hsl 60 10 0 1 0 0 \$0-g \$0-rg decay -2 -7 0 10 #003880 #fcfcfc #001488 0 0;
#X obj 1520 246 hsl 60 10 0 1 0 0 \$0-f \$0-rf lowpass -2 -7 0 10 #003880 #fcfcfc #001488 0 0;
#X obj 458 321 hsl 60 10 0 1 0 0 \$0-h \$0-rh gain -2 -7 0 10 #003880 #fcfcfc #001488 0 0;
#X obj 608 240 cnv 12 15 13 empty empty 0 1 6 0 12 #202020 #fcfcfc 0;
#X obj 979 244 cnv 12 15 13 empty empty 2 1 6 0 12 #202020 #fcfcfc 0;
#X obj 1316 244 cnv 12 15 13 empty empty 4 1 6 0 12 #202020 #fcfcfc 0;
#X obj 1697 243 cnv 12 15 13 empty empty 6 1 6 0 12 #202020 #fcfcfc 0;
#X obj 780 244 cnv 12 15 13 empty empty 1 1 6 0 12 #202020 #fcfcfc 0;
#X obj 1144 248 cnv 12 15 13 empty empty 3 1 6 0 12 #202020 #fcfcfc 0;
#X obj 1500 243 cnv 12 15 13 empty empty 5 1 6 0 12 #202020 #fcfcfc 0;
#X obj 438 318 cnv 12 15 13 empty empty 7 1 6 0 12 #202020 #fcfcfc 0;
#N canvas 38 25 1287 763 bassdrum 1;
#X obj 476 628 vline~;
#X obj 419 644 *~;
#X obj 477 499 f;
#X obj 419 261 *~;
#X obj 419 151 f;
#X msg 419 200 1.4 \, 0 \$1;
#X obj 419 380 +~;
#X obj 400 108 delay 5;
#X msg 477 523 0 5 \, 1 3 5 \, 0 \$1 8;
#X obj 521 41 switch~;
#X msg 440 449 0.25;
#X msg 521 20 1;
#X obj 554 1 delay;
#X msg 554 20 0;
#X obj 145 698 *~;
#X obj 160 675 vline~;
#X obj 179 608 f;
#X obj 160 582 t b b b;
#X obj 404 715 +~;
#X obj 404 741 hip~ 10;
#X text 584 -138 decay;
#X text 217 547 noiz;
#X obj 404 824 *~;
#X obj 404 867 outlet~;
#X obj 404 783 lop~ 1000;
#X obj 419 220 vline~;
#X obj 604 736 r \$0-gain;
#N canvas 121 146 462 312 rh_scalelog 0;
#X obj 20 155 exp;
#X obj 20 107 *;
#X obj 20 130 +;
#X obj 98 87 log;
#X obj 194 84 log;
#X obj 123 123 t b f;
#X obj 123 145 -;
#X obj 20 183 outlet;
#X obj 20 19 inlet;
#X obj 98 23 inlet;
#X obj 194 24 inlet;
#X connect 0 0 7 0;
#X connect 1 0 2 0;
#X connect 2 0 0 0;
#X connect 3 0 2 1;
#X connect 3 0 5 0;
#X connect 4 0 6 0;
#X connect 5 0 6 0;
#X connect 5 1 6 1;
#X connect 6 0 1 1;
#X connect 8 0 1 0;
#X connect 9 0 3 0;
#X connect 10 0 4 0;
#X restore 604 807 pd rh_scalelog;
#N canvas 0 22 462 312 rh_scalelog 0;
#X obj 20 155 exp;
#X obj 20 107 *;
#X obj 20 130 +;
#X obj 98 87 log;
#X obj 194 84 log;
#X obj 123 123 t b f;
#X obj 123 145 -;
#X obj 20 183 outlet;
#X obj 20 19 inlet;
#X obj 98 23 inlet;
#X obj 194 24 inlet;
#X connect 0 0 7 0;
#X connect 1 0 2 0;
#X connect 2 0 0 0;
#X connect 3 0 2 1;
#X connect 3 0 5 0;
#X connect 4 0 6 0;
#X connect 5 0 6 0;
#X connect 5 1 6 1;
#X connect 6 0 1 1;
#X connect 8 0 1 0;
#X connect 9 0 3 0;
#X connect 10 0 4 0;
#X restore 603 707 pd rh_scalelog;
#X msg 650 683 100;
#X msg 696 683 10000;
#X obj 218 565 r \$0-noizelevel;
#N canvas 0 22 462 312 rh_scalelog 0;
#X obj 20 155 exp;
#X obj 20 107 *;
#X obj 20 130 +;
#X obj 98 87 log;
#X obj 194 84 log;
#X obj 123 123 t b f;
#X obj 123 145 -;
#X obj 20 183 outlet;
#X obj 20 19 inlet;
#X obj 98 23 inlet;
#X obj 194 24 inlet;
#X connect 0 0 7 0;
#X connect 1 0 2 0;
#X connect 2 0 0 0;
#X connect 3 0 2 1;
#X connect 3 0 5 0;
#X connect 4 0 6 0;
#X connect 5 0 6 0;
#X connect 5 1 6 1;
#X connect 6 0 1 1;
#X connect 8 0 1 0;
#X connect 9 0 3 0;
#X connect 10 0 4 0;
#X restore 581 -51 pd rh_scalelog;
#N canvas 121 146 462 312 rh_scalelog 0;
#X obj 20 155 exp;
#X obj 20 107 *;
#X obj 20 130 +;
#X obj 98 87 log;
#X obj 194 84 log;
#X obj 123 123 t b f;
#X obj 123 145 -;
#X obj 20 183 outlet;
#X obj 20 19 inlet;
#X obj 98 23 inlet;
#X obj 194 24 inlet;
#X connect 0 0 7 0;
#X connect 1 0 2 0;
#X connect 2 0 0 0;
#X connect 3 0 2 1;
#X connect 3 0 5 0;
#X connect 4 0 6 0;
#X connect 5 0 6 0;
#X connect 5 1 6 1;
#X connect 6 0 1 1;
#X connect 8 0 1 0;
#X connect 9 0 3 0;
#X connect 10 0 4 0;
#X restore 599 137 pd rh_scalelog;
#X obj 581 -122 r \$0-decay;
#X msg 625 -75 10;
#X obj 581 -19 + 10;
#X msg 554 -74 stop;
#N canvas 0 22 462 312 rh_scalelog 0;
#X obj 20 155 exp;
#X obj 20 107 *;
#X obj 20 130 +;
#X obj 98 87 log;
#X obj 194 84 log;
#X obj 123 123 t b f;
#X obj 123 145 -;
#X obj 20 183 outlet;
#X obj 20 19 inlet;
#X obj 98 23 inlet;
#X obj 194 24 inlet;
#X connect 0 0 7 0;
#X connect 1 0 2 0;
#X connect 2 0 0 0;
#X connect 3 0 2 1;
#X connect 3 0 5 0;
#X connect 4 0 6 0;
#X connect 5 0 6 0;
#X connect 5 1 6 1;
#X connect 6 0 1 1;
#X connect 8 0 1 0;
#X connect 9 0 3 0;
#X connect 10 0 4 0;
#X restore 599 245 pd rh_scalelog;
#N canvas 92 117 462 312 rh_scalelog 0;
#X obj 20 155 exp;
#X obj 20 107 *;
#X obj 20 130 +;
#X obj 98 87 log;
#X obj 194 84 log;
#X obj 123 123 t b f;
#X obj 123 145 -;
#X obj 20 183 outlet;
#X obj 20 19 inlet;
#X obj 98 23 inlet;
#X obj 194 24 inlet;
#X connect 0 0 7 0;
#X connect 1 0 2 0;
#X connect 2 0 0 0;
#X connect 3 0 2 1;
#X connect 3 0 5 0;
#X connect 4 0 6 0;
#X connect 5 0 6 0;
#X connect 5 1 6 1;
#X connect 6 0 1 1;
#X connect 8 0 1 0;
#X connect 9 0 3 0;
#X connect 10 0 4 0;
#X restore 611 344 pd rh_scalelog;
#X msg 639 116 1;
#X obj 603 636 r \$0-lowpass;
#N canvas 382 324 650 490 bd-makenoise 0;
#X msg 30 27 0 \, 0.582156 \, 0.967879 \, 0.967879 \, -0.846448 \, 0.939307 \, 0.896449 \, -0.890497 \, -0.814304 \, -0.900021 \, -0.928593 \, 0.157146 \, 0.642872 \, 0.214291 \, 0.100002 \, -0.014286 \, -0.100002 \, 0.014286 \, 0.128574 \, 0.242863 \, -0.014286 \, -0.771446 \, -0.75716 \, -0.0441568 \, -0.0961061 \, -0.148055 \, -0.200005 \, -0.257149 \, 0.857162 \, 0.914307 \, 1.01431 \, -0.278578 \, -0.214291 \, -0.150003 \, -0.0857162 \, 0 \, 0.0857162 \, 0.171432 \, 0.257149 \, 0.292864 \, 0.328579 \, -0.985737 \, -0.776208 \, -0.557156 \, -0.0714302 \, 0.0714302 \, 0.214291 \, -0.0714302 \, -0.957165 \, -0.714302 \, -0.600014 \, -0.557156 \, -0.292864 \, -0.114288 \, 0.0285721 \, 0.200005 \, 0.428581 \, 0.500011 \, 0.971451 \, 0.942879 \, 0.82859 \, 0.68573 \, 0.442867 \, -0.171432 \, -0.895259 \, -1.09526 \, -1.03812 \, -0.695254 \, -0.0428581 \, -0.185719 \, -0.328579 \, -0.471439 \, 0.014286 \, 0.128574 \, 0.100002 \, 0.559537 \, 0.688111 \, 1.05955 \, 1.08812 \, -0.673825 \, -0.82859 \, -0.357151 \, -0.0214291 \, -0.14286 \, -0.128574 \, 0.0809542 \, 0.290483 \, 0.500011 \, 0.742874 \, 0.557156 \, 0.371437 \, -0.214291 \, -0.290483 \, -0.366675 \, -0.442867 \, -0.400009 \, -0.414295 \, -0.442867 \, -0.54287 \, -0.628586 \,;
#X obj 30 300 t b f;
#X obj 31 323 f;
#X obj 59 322 + 1;
#X obj 31 347 pack 0 0;
#X obj 31 369 s \$0-bassnoise;
#X obj 220 331 table \$0-bassnoise 100;
#X msg 96 306 0;
#X obj 29 2 r \$0-loadbang;
#X connect 0 0 1 0;
#X connect 1 0 2 0;
#X connect 1 1 4 1;
#X connect 2 0 3 0;
#X connect 2 0 4 0;
#X connect 3 0 2 1;
#X connect 4 0 5 0;
#X connect 7 0 2 1;
#X connect 8 0 0 0;
#X restore 53 582 pd bd-makenoise;
#X obj 145 628 tabplay~ \$0-bassnoise;
#X msg 671 -76 2000;
#X obj 400 130 t b b b;
#X obj 401 -108 t b b b b;
#X obj 218 587 pow 4;
#X msg 160 651 0 1;
#X msg 697 782 10;
#X msg 651 784 0.1;
#X obj 611 363 + 10;
#X obj 401 -129 inlet;
#X obj 419 239 expr~ pow($v1 \, 5);
#X obj 419 477 osc~;
#X obj 419 505 *~ 1;
#X obj 603 409 r \$0-square;
#N canvas 0 22 462 312 rh_scalelog 0;
#X obj 20 155 exp;
#X obj 20 107 *;
#X obj 20 130 +;
#X obj 98 87 log;
#X obj 194 84 log;
#X obj 123 123 t b f;
#X obj 123 145 -;
#X obj 20 183 outlet;
#X obj 20 19 inlet;
#X obj 98 23 inlet;
#X obj 194 24 inlet;
#X connect 0 0 7 0;
#X connect 1 0 2 0;
#X connect 2 0 0 0;
#X connect 3 0 2 1;
#X connect 3 0 5 0;
#X connect 4 0 6 0;
#X connect 5 0 6 0;
#X connect 5 1 6 1;
#X connect 6 0 1 1;
#X connect 8 0 1 0;
#X connect 9 0 3 0;
#X connect 10 0 4 0;
#X restore 603 472 pd rh_scalelog;
#X msg 643 449 0.01;
#X obj 603 491 + 1;
#X obj 599 76 r \$0-curvetime;
#X obj 611 280 r \$0-freq1;
#X obj 599 170 r \$0-freq2;
#X msg 680 115 100;
#X msg 690 220 1000;
#X msg 643 222 1;
#X msg 692 321 150;
#X msg 651 322 20;
#X obj 651 299 r \$0-loadbang;
#X obj 642 194 r \$0-loadbang;
#X obj 639 94 r \$0-loadbang;
#X obj 625 -103 r \$0-loadbang;
#X obj 651 755 r \$0-loadbang;
#X obj 650 656 r \$0-loadbang;
#N canvas 990 474 450 300 tan 0;
#X obj 132 92 *~ -1;
#X obj 62 152 -~;
#X obj 63 182 /~;
#X obj 132 152 +~;
#X obj 62 32 inlet~;
#X obj 132 122 exp~;
#X obj 62 122 exp~;
#X obj 62 242 outlet~;
#X obj 62 62 clip~ -88 88;
#X connect 0 0 5 0;
#X connect 1 0 2 0;
#X connect 2 0 7 0;
#X connect 3 0 2 1;
#X connect 4 0 8 0;
#X connect 5 0 1 1;
#X connect 5 0 3 1;
#X connect 6 0 1 0;
#X connect 6 0 3 0;
#X connect 8 0 0 0;
#X connect 8 0 6 0;
#X restore 419 532 pd tan;
#N canvas 990 474 450 300 tan 0;
#X obj 132 92 *~ -1;
#X obj 62 152 -~;
#X obj 63 182 /~;
#X obj 132 152 +~;
#X obj 62 32 inlet~;
#X obj 132 122 exp~;
#X obj 62 122 exp~;
#X obj 62 242 outlet~;
#X obj 62 212 clip~ -1 1;
#X obj 62 62 clip~ -88 88;
#X connect 0 0 5 0;
#X connect 1 0 2 0;
#X connect 2 0 8 0;
#X connect 3 0 2 1;
#X connect 4 0 9 0;
#X connect 5 0 1 1;
#X connect 5 0 3 1;
#X connect 6 0 1 0;
#X connect 6 0 3 0;
#X connect 8 0 7 0;
#X connect 9 0 0 0;
#X connect 9 0 6 0;
#X restore 404 847 pd tan;
#X floatatom 799 337 5 0 0 0 - - - 0;
#X obj 419 665 *~;
#X obj 799 316 expr min(1 \, pow(60 / $f1 \, 0.5));
#X obj 841 131 noise~;
#X obj 419 407 +~;
#X obj 841 156 lop~ 0.03;
#X obj 841 186 *~ 20;
#X text 832 106 "analog" instability;
#N canvas 0 22 462 312 rh_scalelog 0;
#X obj 20 155 exp;
#X obj 20 107 *;
#X obj 20 130 +;
#X obj 98 87 log;
#X obj 194 84 log;
#X obj 123 123 t b f;
#X obj 123 145 -;
#X obj 20 183 outlet;
#X obj 20 19 inlet;
#X obj 98 23 inlet;
#X obj 194 24 inlet;
#X connect 0 0 7 0;
#X connect 1 0 2 0;
#X connect 2 0 0 0;
#X connect 3 0 2 1;
#X connect 3 0 5 0;
#X connect 4 0 6 0;
#X connect 5 0 6 0;
#X connect 5 1 6 1;
#X connect 6 0 1 1;
#X connect 8 0 1 0;
#X connect 9 0 3 0;
#X connect 10 0 4 0;
#X restore 749 473 pd rh_scalelog;
#X msg 789 450 1;
#X obj 749 492 + 0;
#X obj 419 588 *~;
#X obj 789 428 loadbang;
#X obj 643 427 loadbang;
#X text 858 427 Post-Distortion Gain Staging;
#X obj 419 558 biquad~ -1.55341 -0.622111 0.793881 1.58776 0.793881;
#X msg 684 450 8;
#N canvas 92 117 652 460 buchla-sine 0;
#X obj 58 118 phasor~;
#X obj 58 158 -~ 0.5;
#X obj 58 198 abs~;
#X obj 58 238 *~ 4;
#X obj 58 278 -~ 1;
#X obj 60 372 expr~ tanh($v1);
#X obj 60 433 outlet~;
#X obj 113 77 inlet;
#X obj 57 82 inlet~;
#X obj 59 342 +~ 0.02;
#X obj 60 403 hip~ 3;
#X obj 58 313 *~ 1.6;
#X connect 0 0 1 0;
#X connect 1 0 2 0;
#X connect 2 0 3 0;
#X connect 3 0 4 0;
#X connect 4 0 11 0;
#X connect 5 0 10 0;
#X connect 7 0 0 1;
#X connect 8 0 0 0;
#X connect 9 0 5 0;
#X connect 10 0 6 0;
#X connect 11 0 9 0;
#X restore 308 458 pd buchla-sine;
#X msg 830 451 0.7;
#X connect 0 0 1 1;
#X connect 1 0 77 0;
#X connect 2 0 8 0;
#X connect 3 0 6 0;
#X connect 4 0 5 0;
#X connect 5 0 25 0;
#X connect 6 0 80 0;
#X connect 7 0 45 0;
#X connect 8 0 0 0;
#X connect 10 0 54 1;
#X connect 10 0 93 1;
#X connect 11 0 9 0;
#X connect 12 0 13 0;
#X connect 13 0 9 0;
#X connect 14 0 18 0;
#X connect 15 0 14 1;
#X connect 16 0 15 0;
#X connect 17 0 48 0;
#X connect 17 1 16 0;
#X connect 17 2 43 0;
#X connect 18 0 19 0;
#X connect 19 0 24 0;
#X connect 22 0 75 0;
#X connect 24 0 22 0;
#X connect 25 0 53 0;
#X connect 26 0 27 0;
#X connect 27 0 22 1;
#X connect 28 0 24 1;
#X connect 29 0 28 1;
#X connect 30 0 28 2;
#X connect 31 0 47 0;
#X connect 32 0 2 1;
#X connect 32 0 36 0;
#X connect 33 0 4 1;
#X connect 34 0 32 0;
#X connect 35 0 32 1;
#X connect 36 0 12 1;
#X connect 37 0 12 0;
#X connect 38 0 3 1;
#X connect 39 0 51 0;
#X connect 40 0 33 1;
#X connect 41 0 28 0;
#X connect 43 0 14 0;
#X connect 44 0 32 2;
#X connect 45 0 17 0;
#X connect 45 1 4 0;
#X connect 45 2 10 0;
#X connect 46 0 12 0;
#X connect 46 0 7 0;
#X connect 46 2 11 0;
#X connect 46 2 37 0;
#X connect 46 3 2 0;
#X connect 47 0 16 1;
#X connect 48 0 15 0;
#X connect 49 0 27 2;
#X connect 50 0 27 1;
#X connect 51 0 6 1;
#X connect 51 0 78 0;
#X connect 52 0 46 0;
#X connect 53 0 3 0;
#X connect 55 0 74 0;
#X connect 56 0 57 0;
#X connect 56 0 84 0;
#X connect 57 0 59 0;
#X connect 58 0 57 1;
#X connect 59 0 55 1;
#X connect 60 0 33 0;
#X connect 61 0 39 0;
#X connect 62 0 38 0;
#X connect 63 0 33 2;
#X connect 64 0 38 2;
#X connect 65 0 38 1;
#X connect 66 0 39 2;
#X connect 67 0 39 1;
#X connect 68 0 67 0;
#X connect 68 0 66 0;
#X connect 69 0 65 0;
#X connect 69 0 64 0;
#X connect 70 0 40 0;
#X connect 70 0 63 0;
#X connect 71 0 35 0;
#X connect 71 0 44 0;
#X connect 72 0 50 0;
#X connect 72 0 49 0;
#X connect 73 0 29 0;
#X connect 73 0 30 0;
#X connect 74 0 91 0;
#X connect 75 0 23 0;
#X connect 76 0 77 1;
#X connect 77 0 18 1;
#X connect 78 0 76 0;
#X connect 79 0 81 0;
#X connect 80 0 93 0;
#X connect 80 0 54 0;
#X connect 81 0 82 0;
#X connect 82 0 80 1;
#X connect 84 0 86 0;
#X connect 85 0 84 1;
#X connect 86 0 87 1;
#X connect 87 0 1 0;
#X connect 88 0 85 0;
#X connect 88 0 94 0;
#X connect 89 0 58 0;
#X connect 89 0 92 0;
#X connect 91 0 87 0;
#X connect 92 0 57 2;
#X connect 93 0 55 0;
#X connect 94 0 84 2;
#X restore 409 -144 pd bassdrum;
#X obj 116 228 hsl 128 15 0 127 0 1 \$0-square-s \$0-square-r SQUARE 133 7 0 10 #fcfcfc #000000 #000000 2400 1;
#X obj 116 168 hsl 128 15 0 127 0 1 \$0-freq2-s \$0-freq2-r FREQ2 133 7 0 10 #fcfcfc #000000 #000000 7900 1;
#X obj 116 258 hsl 128 15 0 127 0 1 \$0-noise-s \$0-noise-r NOISE 133 7 0 10 #fcfcfc #000000 #000000 12700 1;
#X obj 116 138 hsl 128 15 0 127 0 1 \$0-freq1-s \$0-freq1-r FREQ1 133 7 0 10 #fcfcfc #000000 #000000 3700 1;
#X obj 116 288 hsl 128 15 0 127 0 1 \$0-lowpass-s \$0-lowpass-r LOWPASS 133 7 0 10 #fcfcfc #000000 #000000 12000 1;
#X obj 444 344 hsl 128 15 0 127 0 1 \$0-flam-prob-s \$0-flam-prob-r GAIN 133 7 0 10 #fcfcfc #000000 #000000 12700 1;
#X obj 116 317 hsl 128 15 0 127 0 1 \$0-decay-s \$0-decay-r DECAY 133 7 0 10 #fcfcfc #000000 #000000 7500 1;
#X obj 116 198 hsl 128 15 0 127 0 1 \$0-curve-s \$0-curve-r CURVE-TIME 133 7 0 10 #fcfcfc #000000 #000000 10200 1;
#X text 635 335 NOTE: This patch is a simple modification of the hardoff kick-patch. And part of the DIY2 collection of modules.;
#X text 389 -315 TRIGGER-INPUT;
#X obj 103 109 cnv 5 5 5 empty empty IN 0 0 0 8 #ffffff #ff8300 0;
#N canvas 313 62 926 752 state-saving-multiple-instances 0;
#X obj 461 15 loadbang;
#X obj 481 369 textfile;
#X msg 813 259 rewind;
#X msg 770 259 bang;
#X obj 109 691 textfile;
#X obj 770 220 t b b;
#X obj 110 357 f;
#X obj 48 439 f;
#X obj 48 403 t b b b;
#X msg 201 660 clear;
#X obj 527 144 outlet;
#X text 523 224 INSTANCE NUMBER;
#X obj 488 79 f \$1;
#X obj 488 115 t f f f;
#X obj 48 378 bng 15 250 50 0 empty empty empty 17 7 0 10 #fcfcfc #000000 #000000;
#X obj 48 274 r SAVE-S;
#X obj 521 44 r \$0-reload!;
#X msg 48 461 write statesave/\$1-synth-kick-ss.txt;
#X msg 507 169 read statesave/\$1-synth-kick-ss.txt;
#X obj 116 1 r \$0-freq1-s;
#X obj 124 24 r \$0-freq1-cv-s;
#X obj 137 45 r \$0-freq2-s;
#X obj 150 66 r \$0-freq2-cv-s;
#X obj 162 85 r \$0-curve-s;
#X obj 179 113 r \$0-curve-cv-s;
#X obj 192 137 r \$0-square-s;
#X obj 203 164 r \$0-square-cv-s;
#X obj 216 192 r \$0-noise-s;
#X obj 233 220 r \$0-noise-cv-s;
#X obj 251 245 r \$0-lowpass-s;
#X obj 267 269 r \$0-lowpass-cv-s;
#X obj 276 290 r \$0-decay-s;
#X obj 290 311 r \$0-decay-cv-s;
#X obj 485 735 s \$0-freq1-r;
#X obj 493 717 s \$0-freq1-cv-r;
#X obj 500 697 s \$0-freq2-r;
#X obj 534 659 s \$0-curve-r;
#X obj 513 677 s \$0-freq2-cv-r;
#X obj 549 640 s \$0-curve-cv-r;
#X obj 563 622 s \$0-square-r;
#X obj 581 602 s \$0-square-cv-r;
#X obj 596 582 s \$0-noise-r;
#X obj 613 561 s \$0-noise-cv-r;
#X obj 626 541 s \$0-lowpass-r;
#X obj 640 523 s \$0-lowpass-cv-r;
#X obj 658 500 s \$0-decay-r;
#X obj 679 482 s \$0-decay-cv-r;
#X obj 540 243 r patch-path;
#X obj 495 262 pack f s;
#X obj 484 216 f;
#X obj 484 237 t b f;
#X msg 484 302 read /Users/johannklug/Documents/Bass\ Dieter/2025/Diet/MODULAR_LIVE_\ PERFORMER/patch1/statesave/31-synth-kick-ss.txt;
#X msg 495 281 set read \$2/statesave/\$1-synth-kick-ss.txt;
#X text 158 527 INSTANCE NUMBER;
#X obj 175 546 r patch-path;
#X obj 130 565 pack f s;
#X obj 119 519 f;
#X obj 119 540 t b f;
#X msg 119 605 write /Users/johannklug/Documents/Bass\ Dieter/2025/Diet/MODULAR_LIVE_\ PERFORMER/patch1/statesave/31-synth-kick-ss.txt;
#X msg 130 584 set write \$2/statesave/\$1-synth-kick-ss.txt;
#X obj 461 48 t b b b;
#X obj 526 79 s update-path;
#X obj 365 13 bng 16 250 50 0 empty empty empty 0 -8 0 10 #fcfcfc #000000 #000000;
#X msg 110 438 set \$1 \$2 \$3 \$4 \$5 \$6 \$7 \$8 \$9 \$10 \$11 \$12 \$13 \$14 \$15 \$16;
#X obj 110 400 pack f f f f f f f f f f f f f f f f;
#X obj 298 332 r \$0-main-menu-s;
#X obj 318 352 r \$0-sub-menu-s;
#X obj 481 388 unpack f f f f f f f f f f f f f f f f;
#X obj 692 463 s \$0-main-menu-r;
#X obj 706 443 s \$0-sub-menu-r;
#X connect 0 0 60 0;
#X connect 1 0 67 0;
#X connect 2 0 1 0;
#X connect 3 0 1 0;
#X connect 5 0 3 0;
#X connect 5 1 2 0;
#X connect 6 0 64 0;
#X connect 7 0 17 0;
#X connect 8 0 7 0;
#X connect 8 0 56 0;
#X connect 8 1 6 0;
#X connect 8 2 9 0;
#X connect 9 0 4 0;
#X connect 12 0 13 0;
#X connect 13 0 7 1;
#X connect 13 0 56 1;
#X connect 13 1 18 0;
#X connect 13 1 49 0;
#X connect 13 2 10 0;
#X connect 14 0 8 0;
#X connect 15 0 14 0;
#X connect 16 0 60 0;
#X connect 19 0 6 1;
#X connect 20 0 64 1;
#X connect 21 0 64 2;
#X connect 22 0 64 3;
#X connect 23 0 64 4;
#X connect 24 0 64 5;
#X connect 25 0 64 6;
#X connect 26 0 64 7;
#X connect 27 0 64 8;
#X connect 28 0 64 9;
#X connect 29 0 64 10;
#X connect 30 0 64 11;
#X connect 31 0 64 12;
#X connect 32 0 64 13;
#X connect 47 0 48 1;
#X connect 48 0 52 0;
#X connect 49 0 50 0;
#X connect 50 0 51 0;
#X connect 50 1 48 0;
#X connect 51 0 1 0;
#X connect 52 0 51 0;
#X connect 54 0 55 1;
#X connect 55 0 59 0;
#X connect 56 0 57 0;
#X connect 57 0 58 0;
#X connect 57 1 55 0;
#X connect 58 0 4 0;
#X connect 59 0 58 0;
#X connect 60 0 5 0;
#X connect 60 1 12 0;
#X connect 60 2 61 0;
#X connect 62 0 60 0;
#X connect 63 0 4 0;
#X connect 64 0 63 0;
#X connect 65 0 64 14;
#X connect 66 0 64 15;
#X connect 67 0 33 0;
#X connect 67 1 34 0;
#X connect 67 2 35 0;
#X connect 67 3 37 0;
#X connect 67 4 36 0;
#X connect 67 5 38 0;
#X connect 67 6 39 0;
#X connect 67 7 40 0;
#X connect 67 8 41 0;
#X connect 67 9 42 0;
#X connect 67 10 43 0;
#X connect 67 11 44 0;
#X connect 67 12 45 0;
#X connect 67 13 46 0;
#X connect 67 14 68 0;
#X connect 67 15 69 0;
#X restore -214 123 pd state-saving-multiple-instances;
#X obj -214 195 s \$0-instance-num;
#X obj -214 147 makefilename %d;
#X msg -214 172 label \$1;
#X obj 113 127 cnv 5 5 5 empty empty SYNTH-KICK 0 0 0 12 #fcfcfc #404040 0;
#X obj 189 127 cnv 5 5 5 empty \$0-instance-num 31 0 0 0 12 #fcfcfc #404040 0;
#N canvas 297 27 981 701 parameter-nudging-system 0;
#X obj 23 70 clip 0 127;
#X obj 182 67 clip 0 127;
#X obj 337 65 clip 0 127;
#N canvas 0 22 484 497 nudge-parameters 0;
#X obj 124 234 random;
#X obj 232 335 f;
#X obj 232 368 +;
#X obj 257 166 random 2;
#X obj 124 275 t f f;
#X obj 124 351 t b f;
#X obj 124 297 *;
#X obj 257 188 sel 0 1;
#X msg 257 280 -1;
#X msg 335 280 1;
#X obj 124 149 t b b b;
#X obj 124 74 r NUDGE!;
#X obj 157 193 r NUDGE-RANGE;
#X obj 247 308 inlet;
#X obj 232 397 outlet;
#X obj 124 96 spigot;
#X obj 185 79 r parameters2-s;
#X connect 0 0 4 0;
#X connect 1 0 2 0;
#X connect 2 0 14 0;
#X connect 3 0 7 0;
#X connect 4 0 6 0;
#X connect 5 0 2 0;
#X connect 5 1 2 1;
#X connect 6 0 5 0;
#X connect 7 0 8 0;
#X connect 7 1 9 0;
#X connect 8 0 6 1;
#X connect 9 0 6 1;
#X connect 10 0 0 0;
#X connect 10 1 1 0;
#X connect 10 2 3 0;
#X connect 11 0 15 0;
#X connect 12 0 0 1;
#X connect 13 0 1 1;
#X connect 15 0 10 0;
#X connect 16 0 15 1;
#X restore 182 45 pd nudge-parameters;
#X obj 23 22 r \$0-kick-pitch-s;
#X obj 23 102 s \$0-kick-pitch-r;
#X obj 182 22 r \$0-kick-decay-s;
#X obj 182 99 s \$0-kick-decay-r;
#X obj 337 20 r \$0-kick-envmod-s;
#X obj 337 97 s \$0-kick-envmod-r;
#X obj 27 193 clip 0 127;
#N canvas 0 22 484 497 nudge-parameters 0;
#X obj 124 234 random;
#X obj 232 335 f;
#X obj 232 368 +;
#X obj 257 166 random 2;
#X obj 124 275 t f f;
#X obj 124 351 t b f;
#X obj 124 297 *;
#X obj 257 188 sel 0 1;
#X msg 257 280 -1;
#X msg 335 280 1;
#X obj 124 149 t b b b;
#X obj 124 74 r NUDGE!;
#X obj 157 193 r NUDGE-RANGE;
#X obj 247 308 inlet;
#X obj 232 397 outlet;
#X obj 124 96 spigot;
#X obj 185 79 r parameters2-s;
#X connect 0 0 4 0;
#X connect 1 0 2 0;
#X connect 2 0 14 0;
#X connect 3 0 7 0;
#X connect 4 0 6 0;
#X connect 5 0 2 0;
#X connect 5 1 2 1;
#X connect 6 0 5 0;
#X connect 7 0 8 0;
#X connect 7 1 9 0;
#X connect 8 0 6 1;
#X connect 9 0 6 1;
#X connect 10 0 0 0;
#X connect 10 1 1 0;
#X connect 10 2 3 0;
#X connect 11 0 15 0;
#X connect 12 0 0 1;
#X connect 13 0 1 1;
#X connect 15 0 10 0;
#X connect 16 0 15 1;
#X restore 27 171 pd nudge-parameters;
#X obj 209 191 clip 0 127;
#N canvas 0 22 484 497 nudge-parameters 0;
#X obj 124 234 random;
#X obj 232 335 f;
#X obj 232 368 +;
#X obj 257 166 random 2;
#X obj 124 275 t f f;
#X obj 124 351 t b f;
#X obj 124 297 *;
#X obj 257 188 sel 0 1;
#X msg 257 280 -1;
#X msg 335 280 1;
#X obj 124 149 t b b b;
#X obj 124 74 r NUDGE!;
#X obj 157 193 r NUDGE-RANGE;
#X obj 247 308 inlet;
#X obj 232 397 outlet;
#X obj 124 96 spigot;
#X obj 185 79 r parameters2-s;
#X connect 0 0 4 0;
#X connect 1 0 2 0;
#X connect 2 0 14 0;
#X connect 3 0 7 0;
#X connect 4 0 6 0;
#X connect 5 0 2 0;
#X connect 5 1 2 1;
#X connect 6 0 5 0;
#X connect 7 0 8 0;
#X connect 7 1 9 0;
#X connect 8 0 6 1;
#X connect 9 0 6 1;
#X connect 10 0 0 0;
#X connect 10 1 1 0;
#X connect 10 2 3 0;
#X connect 11 0 15 0;
#X connect 12 0 0 1;
#X connect 13 0 1 1;
#X connect 15 0 10 0;
#X connect 16 0 15 1;
#X restore 209 169 pd nudge-parameters;
#X obj 350 191 clip 0 127;
#N canvas 0 22 484 497 nudge-parameters 0;
#X obj 124 234 random;
#X obj 232 335 f;
#X obj 232 368 +;
#X obj 257 166 random 2;
#X obj 124 275 t f f;
#X obj 124 351 t b f;
#X obj 124 297 *;
#X obj 257 188 sel 0 1;
#X msg 257 280 -1;
#X msg 335 280 1;
#X obj 124 149 t b b b;
#X obj 124 74 r NUDGE!;
#X obj 157 193 r NUDGE-RANGE;
#X obj 247 308 inlet;
#X obj 232 397 outlet;
#X obj 124 96 spigot;
#X obj 185 79 r parameters2-s;
#X connect 0 0 4 0;
#X connect 1 0 2 0;
#X connect 2 0 14 0;
#X connect 3 0 7 0;
#X connect 4 0 6 0;
#X connect 5 0 2 0;
#X connect 5 1 2 1;
#X connect 6 0 5 0;
#X connect 7 0 8 0;
#X connect 7 1 9 0;
#X connect 8 0 6 1;
#X connect 9 0 6 1;
#X connect 10 0 0 0;
#X connect 10 1 1 0;
#X connect 10 2 3 0;
#X connect 11 0 15 0;
#X connect 12 0 0 1;
#X connect 13 0 1 1;
#X connect 15 0 10 0;
#X connect 16 0 15 1;
#X restore 350 169 pd nudge-parameters;
#X obj 27 148 r \$0-kick-sweep-s;
#X obj 27 225 s \$0-kick-sweep-r;
#X obj 209 146 r \$0-kick-wform-s;
#X obj 209 223 s \$0-kick-wform-r;
#X obj 350 146 r \$0-flam-s;
#X obj 350 223 s \$0-flam-r;
#X obj 23 309 clip 0 127;
#N canvas 0 22 484 497 nudge-parameters 0;
#X obj 124 234 random;
#X obj 232 335 f;
#X obj 232 368 +;
#X obj 257 166 random 2;
#X obj 124 275 t f f;
#X obj 124 351 t b f;
#X obj 124 297 *;
#X obj 257 188 sel 0 1;
#X msg 257 280 -1;
#X msg 335 280 1;
#X obj 124 149 t b b b;
#X obj 124 74 r NUDGE!;
#X obj 157 193 r NUDGE-RANGE;
#X obj 247 308 inlet;
#X obj 232 397 outlet;
#X obj 124 96 spigot;
#X obj 185 79 r parameters2-s;
#X connect 0 0 4 0;
#X connect 1 0 2 0;
#X connect 2 0 14 0;
#X connect 3 0 7 0;
#X connect 4 0 6 0;
#X connect 5 0 2 0;
#X connect 5 1 2 1;
#X connect 6 0 5 0;
#X connect 7 0 8 0;
#X connect 7 1 9 0;
#X connect 8 0 6 1;
#X connect 9 0 6 1;
#X connect 10 0 0 0;
#X connect 10 1 1 0;
#X connect 10 2 3 0;
#X connect 11 0 15 0;
#X connect 12 0 0 1;
#X connect 13 0 1 1;
#X connect 15 0 10 0;
#X connect 16 0 15 1;
#X restore 23 287 pd nudge-parameters;
#X obj 205 307 clip 0 127;
#N canvas 0 22 484 497 nudge-parameters 0;
#X obj 124 234 random;
#X obj 232 335 f;
#X obj 232 368 +;
#X obj 257 166 random 2;
#X obj 124 275 t f f;
#X obj 124 351 t b f;
#X obj 124 297 *;
#X obj 257 188 sel 0 1;
#X msg 257 280 -1;
#X msg 335 280 1;
#X obj 124 149 t b b b;
#X obj 124 74 r NUDGE!;
#X obj 157 193 r NUDGE-RANGE;
#X obj 247 308 inlet;
#X obj 232 397 outlet;
#X obj 124 96 spigot;
#X obj 185 79 r parameters2-s;
#X connect 0 0 4 0;
#X connect 1 0 2 0;
#X connect 2 0 14 0;
#X connect 3 0 7 0;
#X connect 4 0 6 0;
#X connect 5 0 2 0;
#X connect 5 1 2 1;
#X connect 6 0 5 0;
#X connect 7 0 8 0;
#X connect 7 1 9 0;
#X connect 8 0 6 1;
#X connect 9 0 6 1;
#X connect 10 0 0 0;
#X connect 10 1 1 0;
#X connect 10 2 3 0;
#X connect 11 0 15 0;
#X connect 12 0 0 1;
#X connect 13 0 1 1;
#X connect 15 0 10 0;
#X connect 16 0 15 1;
#X restore 205 285 pd nudge-parameters;
#N canvas 0 22 484 497 nudge-attenuators 0;
#X obj 124 234 random;
#X obj 232 335 f;
#X obj 232 368 +;
#X obj 257 166 random 2;
#X obj 124 275 t f f;
#X obj 124 351 t b f;
#X obj 124 297 *;
#X obj 257 188 sel 0 1;
#X msg 257 280 -1;
#X msg 335 280 1;
#X obj 124 149 t b b b;
#X obj 124 71 r NUDGE!;
#X obj 157 193 r NUDGE-RANGE;
#X obj 247 308 inlet;
#X obj 232 397 outlet;
#X obj 124 93 spigot;
#X obj 201 76 r attenuators2-s;
#X connect 0 0 4 0;
#X connect 1 0 2 0;
#X connect 2 0 14 0;
#X connect 3 0 7 0;
#X connect 4 0 6 0;
#X connect 5 0 2 0;
#X connect 5 1 2 1;
#X connect 6 0 5 0;
#X connect 7 0 8 0;
#X connect 7 1 9 0;
#X connect 8 0 6 1;
#X connect 9 0 6 1;
#X connect 10 0 0 0;
#X connect 10 1 1 0;
#X connect 10 2 3 0;
#X connect 11 0 15 0;
#X connect 12 0 0 1;
#X connect 13 0 1 1;
#X connect 15 0 10 0;
#X connect 16 0 15 1;
#X restore 353 280 pd nudge-attenuators;
#N canvas 0 22 484 497 nudge-parameters 0;
#X obj 124 234 random;
#X obj 232 335 f;
#X obj 232 368 +;
#X obj 257 166 random 2;
#X obj 124 275 t f f;
#X obj 124 351 t b f;
#X obj 124 297 *;
#X obj 257 188 sel 0 1;
#X msg 257 280 -1;
#X msg 335 280 1;
#X obj 124 149 t b b b;
#X obj 124 74 r NUDGE!;
#X obj 157 193 r NUDGE-RANGE;
#X obj 247 308 inlet;
#X obj 232 397 outlet;
#X obj 124 96 spigot;
#X obj 185 79 r parameters2-s;
#X connect 0 0 4 0;
#X connect 1 0 2 0;
#X connect 2 0 14 0;
#X connect 3 0 7 0;
#X connect 4 0 6 0;
#X connect 5 0 2 0;
#X connect 5 1 2 1;
#X connect 6 0 5 0;
#X connect 7 0 8 0;
#X connect 7 1 9 0;
#X connect 8 0 6 1;
#X connect 9 0 6 1;
#X connect 10 0 0 0;
#X connect 10 1 1 0;
#X connect 10 2 3 0;
#X connect 11 0 15 0;
#X connect 12 0 0 1;
#X connect 13 0 1 1;
#X connect 15 0 10 0;
#X connect 16 0 15 1;
#X restore 337 41 pd nudge-parameters;
#X obj 354 305 clip 0 127;
#X obj 353 254 r \$0-acc-level-s;
#X obj 354 331 s \$0-acc-level-r;
#X obj 23 264 r \$0-flam-prob-s;
#X obj 23 341 s \$0-flam-prob-r;
#X obj 205 262 r \$0-acc-prob-s;
#X obj 205 339 s \$0-acc-prob-r;
#X obj 23 448 clip 0 127;
#N canvas 0 22 484 497 nudge-parameters 0;
#X obj 124 234 random;
#X obj 232 335 f;
#X obj 232 368 +;
#X obj 257 166 random 2;
#X obj 124 275 t f f;
#X obj 124 351 t b f;
#X obj 124 297 *;
#X obj 257 188 sel 0 1;
#X msg 257 280 -1;
#X msg 335 280 1;
#X obj 124 149 t b b b;
#X obj 124 74 r NUDGE!;
#X obj 157 193 r NUDGE-RANGE;
#X obj 247 308 inlet;
#X obj 232 397 outlet;
#X obj 124 96 spigot;
#X obj 185 79 r parameters2-s;
#X connect 0 0 4 0;
#X connect 1 0 2 0;
#X connect 2 0 14 0;
#X connect 3 0 7 0;
#X connect 4 0 6 0;
#X connect 5 0 2 0;
#X connect 5 1 2 1;
#X connect 6 0 5 0;
#X connect 7 0 8 0;
#X connect 7 1 9 0;
#X connect 8 0 6 1;
#X connect 9 0 6 1;
#X connect 10 0 0 0;
#X connect 10 1 1 0;
#X connect 10 2 3 0;
#X connect 11 0 15 0;
#X connect 12 0 0 1;
#X connect 13 0 1 1;
#X connect 15 0 10 0;
#X connect 16 0 15 1;
#X restore 23 426 pd nudge-parameters;
#X obj 205 446 clip 0 127;
#N canvas 0 22 484 497 nudge-parameters 0;
#X obj 124 234 random;
#X obj 232 335 f;
#X obj 232 368 +;
#X obj 257 166 random 2;
#X obj 124 275 t f f;
#X obj 124 351 t b f;
#X obj 124 297 *;
#X obj 257 188 sel 0 1;
#X msg 257 280 -1;
#X msg 335 280 1;
#X obj 124 149 t b b b;
#X obj 124 74 r NUDGE!;
#X obj 157 193 r NUDGE-RANGE;
#X obj 247 308 inlet;
#X obj 232 397 outlet;
#X obj 124 96 spigot;
#X obj 185 79 r parameters2-s;
#X connect 0 0 4 0;
#X connect 1 0 2 0;
#X connect 2 0 14 0;
#X connect 3 0 7 0;
#X connect 4 0 6 0;
#X connect 5 0 2 0;
#X connect 5 1 2 1;
#X connect 6 0 5 0;
#X connect 7 0 8 0;
#X connect 7 1 9 0;
#X connect 8 0 6 1;
#X connect 9 0 6 1;
#X connect 10 0 0 0;
#X connect 10 1 1 0;
#X connect 10 2 3 0;
#X connect 11 0 15 0;
#X connect 12 0 0 1;
#X connect 13 0 1 1;
#X connect 15 0 10 0;
#X connect 16 0 15 1;
#X restore 205 424 pd nudge-parameters;
#X obj 23 403 r \$0-drive-s;
#X obj 23 480 s \$0-drive-r;
#X obj 205 401 r \$0-tone-s;
#X obj 205 478 s \$0-tone-r;
#N canvas 0 22 484 497 nudge-freq 0;
#X obj 124 234 random;
#X obj 232 335 f;
#X obj 232 368 +;
#X obj 257 166 random 2;
#X obj 124 275 t f f;
#X obj 124 351 t b f;
#X obj 124 297 *;
#X obj 257 188 sel 0 1;
#X msg 257 280 -1;
#X msg 335 280 1;
#X obj 124 149 t b b b;
#X obj 124 51 r NUDGE!;
#X obj 157 193 r NUDGE-RANGE;
#X obj 247 308 inlet;
#X obj 232 397 outlet;
#X obj 124 73 spigot;
#X obj 185 56 r frequencies2-s;
#X connect 0 0 4 0;
#X connect 1 0 2 0;
#X connect 2 0 14 0;
#X connect 3 0 7 0;
#X connect 4 0 6 0;
#X connect 5 0 2 0;
#X connect 5 1 2 1;
#X connect 6 0 5 0;
#X connect 7 0 8 0;
#X connect 7 1 9 0;
#X connect 8 0 6 1;
#X connect 9 0 6 1;
#X connect 10 0 0 0;
#X connect 10 1 1 0;
#X connect 10 2 3 0;
#X connect 11 0 15 0;
#X connect 12 0 0 1;
#X connect 13 0 1 1;
#X connect 15 0 10 0;
#X connect 16 0 15 1;
#X restore 22 48 pd nudge-freq;
#X connect 0 0 5 0;
#X connect 1 0 7 0;
#X connect 2 0 9 0;
#X connect 3 0 1 0;
#X connect 4 0 43 0;
#X connect 6 0 3 0;
#X connect 8 0 27 0;
#X connect 10 0 17 0;
#X connect 11 0 10 0;
#X connect 12 0 19 0;
#X connect 13 0 12 0;
#X connect 14 0 21 0;
#X connect 15 0 14 0;
#X connect 16 0 11 0;
#X connect 18 0 13 0;
#X connect 20 0 15 0;
#X connect 22 0 32 0;
#X connect 23 0 22 0;
#X connect 24 0 34 0;
#X connect 25 0 24 0;
#X connect 26 0 28 0;
#X connect 27 0 2 0;
#X connect 28 0 30 0;
#X connect 29 0 26 0;
#X connect 31 0 23 0;
#X connect 33 0 25 0;
#X connect 35 0 40 0;
#X connect 36 0 35 0;
#X connect 37 0 42 0;
#X connect 38 0 37 0;
#X connect 39 0 36 0;
#X connect 41 0 38 0;
#X connect 43 0 0 0;
#X restore -214 74 pd parameter-nudging-system;
#N canvas 302 64 1008 752 savetest 0;
#X obj 290 212 pack f f;
#X obj 305 133 loadbang;
#X obj 305 155 f \$1;
#X obj 290 184 f;
#X obj 292 453 textfile;
#X msg 475 436 rewind;
#X obj 165 78 loadbang;
#X obj 19 174 delay 10;
#X text 59 52 WRITE;
#X obj 19 54 inlet;
#X obj 19 208 f;
#X obj 19 247 pack f f;
#X obj 165 126 t f f;
#X obj 165 104 f \$1;
#X msg -193 97 bang;
#X obj 91 611 textfile;
#X msg 97 236 clear;
#X obj 19 118 t b f b b;
#X obj 308 21 inlet;
#X text 353 19 LOAD;
#X msg 399 415 bang;
#X obj 412 375 t b b;
#X obj 308 43 t b f;
#X obj 290 90 t b b;
#X obj -412 344 f;
#N canvas 0 22 1084 659 unpack-values 0;
#X obj 182 32 inlet;
#X obj 181 578 s \$0-kick-pitch-r;
#X obj 194 557 s \$0-kick-decay-r;
#X obj 211 531 s \$0-kick-envmod-r;
#X obj 224 510 s \$0-kick-sweep-r;
#X obj 238 485 s \$0-kick-wform-r;
#X obj 251 464 s \$0-flam-r;
#X obj 268 438 s \$0-flam-prob-r;
#X obj 281 417 s \$0-acc-prob-r;
#X obj 298 394 s \$0-acc-level-r;
#X obj 311 373 s \$0-drive-r;
#X obj 337 317 s \$0-tone-r;
#X obj 182 59 unpack f f f f f f f f f f f;
#X connect 0 0 12 0;
#X connect 12 0 1 0;
#X connect 12 1 2 0;
#X connect 12 2 3 0;
#X connect 12 3 4 0;
#X connect 12 4 5 0;
#X connect 12 5 6 0;
#X connect 12 6 7 0;
#X connect 12 7 8 0;
#X connect 12 8 9 0;
#X connect 12 9 10 0;
#X connect 12 10 11 0;
#X restore 292 479 pd unpack-values;
#X obj 411 85 f;
#X obj 411 24 r SAVE-S;
#X msg 19 329 write statesave/\$1-kickpreset-\$2-ss.txt;
#X msg 291 297 read statesave/\$1-kickpreset-\$2-ss.txt;
#X obj -400 22 r \$0-kick-pitch-s;
#X obj -387 44 r \$0-kick-decay-s;
#X obj -371 64 r \$0-kick-envmod-s;
#X obj -355 84 r \$0-kick-sweep-s;
#X obj -337 103 r \$0-kick-wform-s;
#X obj -321 123 r \$0-flam-s;
#X obj -305 143 r \$0-flam-prob-s;
#X obj -284 166 r \$0-acc-prob-s;
#X obj -264 195 r \$0-acc-level-s;
#X obj -248 215 r \$0-drive-s;
#X obj -232 235 r \$0-tone-s;
#X obj 426 56 r \$0-load-s;
#X obj 411 107 s \$0-write-r;
#X msg -378 522 set \$1 \$2 \$3 \$4 \$5 \$6 \$7 \$8 \$9 \$10 \$11;
#X obj -377 481 pack f f f f f f f f f f f;
#X connect 0 0 29 0;
#X connect 1 0 2 0;
#X connect 2 0 3 1;
#X connect 3 0 0 0;
#X connect 4 0 25 0;
#X connect 5 0 4 0;
#X connect 6 0 13 0;
#X connect 7 0 10 0;
#X connect 9 0 17 0;
#X connect 10 0 11 0;
#X connect 11 0 28 0;
#X connect 12 0 10 1;
#X connect 13 0 12 0;
#X connect 14 0 24 0;
#X connect 16 0 15 0;
#X connect 17 0 7 0;
#X connect 17 1 11 1;
#X connect 17 2 14 0;
#X connect 17 3 16 0;
#X connect 18 0 22 0;
#X connect 20 0 4 0;
#X connect 21 0 20 0;
#X connect 21 1 5 0;
#X connect 22 0 23 0;
#X connect 22 1 0 1;
#X connect 23 0 21 0;
#X connect 23 1 3 0;
#X connect 24 0 44 0;
#X connect 26 0 42 0;
#X connect 27 0 26 0;
#X connect 28 0 15 0;
#X connect 29 0 4 0;
#X connect 30 0 24 1;
#X connect 31 0 44 1;
#X connect 32 0 44 2;
#X connect 33 0 44 3;
#X connect 34 0 44 4;
#X connect 35 0 44 5;
#X connect 36 0 44 6;
#X connect 37 0 44 7;
#X connect 38 0 44 8;
#X connect 39 0 44 9;
#X connect 40 0 44 10;
#X connect 41 0 26 1;
#X connect 43 0 15 0;
#X connect 44 0 43 0;
#X restore -214 274 pd savetest;
#X obj -214 222 r \$0-write-s;
#X obj -151 246 r \$0-load-s;
#N canvas 160 25 1280 789 external-messages 0;
#X floatatom -71 513 5 0 0 0 - - - 0;
#X obj 43 328 spigot;
#X obj 76 288 tgl 15 0 empty empty empty 17 7 0 10 #fcfcfc #000000 #000000 0 1;
#X obj 112 272 ==;
#X obj 127 248 f \$1;
#X obj 127 224 loadbang;
#X msg 43 202 \$1 \$2;
#X msg 43 156 symbol \$1;
#X obj 43 180 pack s f;
#X obj -71 492 f;
#X obj -71 440 t b f;
#X obj -71 463 spigot;
#X obj 43 62 unpack s f f;
#X symbolatom 43 94 10 0 0 0 - - - 0;
#X obj 76 308 t f f;
#X obj 103 332 s \$0-msg-spigot;
#X obj -23 447 r \$0-msg-spigot;
#X floatatom -45 657 5 0 0 0 - - - 0;
#X obj -45 636 f;
#X obj -45 584 t b f;
#X obj -45 607 spigot;
#X obj 3 591 r \$0-msg-spigot;
#X floatatom 106 549 5 0 0 0 - - - 0;
#X obj 106 528 f;
#X obj 106 476 t b f;
#X obj 106 499 spigot;
#X obj 154 483 r \$0-msg-spigot;
#X floatatom 145 687 5 0 0 0 - - - 0;
#X obj 145 666 f;
#X obj 145 614 t b f;
#X obj 145 637 spigot;
#X obj 193 621 r \$0-msg-spigot;
#X floatatom 270 523 5 0 0 0 - - - 0;
#X obj 270 502 f;
#X obj 270 450 t b f;
#X obj 270 473 spigot;
#X obj 318 457 r \$0-msg-spigot;
#X obj 43 14 r kick;
#X obj 43 380 route PITCH HOLD DECAY EG2 SWEEP WFORM FLAM FLAM-PROB ACC-PROB ACCENT DRIVE TONE;
#X floatatom 315 690 5 0 0 0 - - - 0;
#X obj 315 669 f;
#X obj 315 617 t b f;
#X obj 315 640 spigot;
#X obj 363 624 r \$0-msg-spigot;
#X floatatom 442 535 5 0 0 0 - - - 0;
#X obj 442 514 f;
#X obj 442 462 t b f;
#X obj 442 485 spigot;
#X obj 490 469 r \$0-msg-spigot;
#X floatatom 479 685 5 0 0 0 - - - 0;
#X obj 479 664 f;
#X obj 479 612 t b f;
#X obj 479 635 spigot;
#X obj 527 619 r \$0-msg-spigot;
#X floatatom 622 527 5 0 0 0 - - - 0;
#X obj 622 506 f;
#X obj 622 454 t b f;
#X obj 622 477 spigot;
#X obj 670 461 r \$0-msg-spigot;
#X floatatom 654 680 5 0 0 0 - - - 0;
#X obj 654 659 f;
#X obj 654 607 t b f;
#X obj 654 630 spigot;
#X obj 702 614 r \$0-msg-spigot;
#X floatatom 784 516 5 0 0 0 - - - 0;
#X obj 784 495 f;
#X obj 784 443 t b f;
#X obj 784 466 spigot;
#X obj 832 450 r \$0-msg-spigot;
#X floatatom 816 707 5 0 0 0 - - - 0;
#X obj 816 686 f;
#X obj 816 634 t b f;
#X obj 816 657 spigot;
#X obj 864 641 r \$0-msg-spigot;
#X obj -71 533 s \$0-kick-pitch-r;
#X obj -45 677 s \$0-kick-hold-r;
#X obj 106 569 s \$0-kick-decay-r;
#X obj 145 707 s \$0-kick-envmod-r;
#X obj 270 543 s \$0-kick-sweep-r;
#X obj 315 710 s \$0-kick-wform-r;
#X obj 442 555 s \$0-flam-r;
#X obj 479 705 s \$0-flam-prob-r;
#X obj 622 547 s \$0-acc-prob-r;
#X obj 654 700 s \$0-acc-level-r;
#X obj 784 536 s \$0-drive-r;
#X obj 816 727 s \$0-tone-r;
#X connect 0 0 74 0;
#X connect 1 0 38 0;
#X connect 2 0 14 0;
#X connect 3 0 2 0;
#X connect 4 0 3 1;
#X connect 5 0 4 0;
#X connect 6 0 1 0;
#X connect 7 0 8 0;
#X connect 8 0 6 0;
#X connect 9 0 0 0;
#X connect 10 0 11 0;
#X connect 10 1 9 1;
#X connect 11 0 9 0;
#X connect 12 0 13 0;
#X connect 12 1 8 1;
#X connect 12 2 3 0;
#X connect 13 0 7 0;
#X connect 14 0 1 1;
#X connect 14 1 15 0;
#X connect 16 0 11 1;
#X connect 17 0 75 0;
#X connect 18 0 17 0;
#X connect 19 0 20 0;
#X connect 19 1 18 1;
#X connect 20 0 18 0;
#X connect 21 0 20 1;
#X connect 22 0 76 0;
#X connect 23 0 22 0;
#X connect 24 0 25 0;
#X connect 24 1 23 1;
#X connect 25 0 23 0;
#X connect 26 0 25 1;
#X connect 27 0 77 0;
#X connect 28 0 27 0;
#X connect 29 0 30 0;
#X connect 29 1 28 1;
#X connect 30 0 28 0;
#X connect 31 0 30 1;
#X connect 32 0 78 0;
#X connect 33 0 32 0;
#X connect 34 0 35 0;
#X connect 34 1 33 1;
#X connect 35 0 33 0;
#X connect 36 0 35 1;
#X connect 37 0 12 0;
#X connect 38 0 10 0;
#X connect 38 1 19 0;
#X connect 38 2 24 0;
#X connect 38 3 29 0;
#X connect 38 4 34 0;
#X connect 38 5 41 0;
#X connect 38 6 46 0;
#X connect 38 7 51 0;
#X connect 38 8 56 0;
#X connect 38 9 61 0;
#X connect 38 10 66 0;
#X connect 38 11 71 0;
#X connect 39 0 79 0;
#X connect 40 0 39 0;
#X connect 41 0 42 0;
#X connect 41 1 40 1;
#X connect 42 0 40 0;
#X connect 43 0 42 1;
#X connect 44 0 80 0;
#X connect 45 0 44 0;
#X connect 46 0 47 0;
#X connect 46 1 45 1;
#X connect 47 0 45 0;
#X connect 48 0 47 1;
#X connect 49 0 81 0;
#X connect 50 0 49 0;
#X connect 51 0 52 0;
#X connect 51 1 50 1;
#X connect 52 0 50 0;
#X connect 53 0 52 1;
#X connect 54 0 82 0;
#X connect 55 0 54 0;
#X connect 56 0 57 0;
#X connect 56 1 55 1;
#X connect 57 0 55 0;
#X connect 58 0 57 1;
#X connect 59 0 83 0;
#X connect 60 0 59 0;
#X connect 61 0 62 0;
#X connect 61 1 60 1;
#X connect 62 0 60 0;
#X connect 63 0 62 1;
#X connect 64 0 84 0;
#X connect 65 0 64 0;
#X connect 66 0 67 0;
#X connect 66 1 65 1;
#X connect 67 0 65 0;
#X connect 68 0 67 1;
#X connect 69 0 85 0;
#X connect 70 0 69 0;
#X connect 71 0 72 0;
#X connect 71 1 70 1;
#X connect 72 0 70 0;
#X connect 73 0 72 1;
#X restore -215 50 pd external-messages;
#X obj 103 362 cnv 5 5 5 empty empty OUT 0 0 0 8 #fcfcfc #000000 0;
#X obj 622 -4 / 127;
#X obj 622 43 pack 0 50;
#X obj 688 -187 / 127;
#X obj 688 -90 pack 0 50;
#X obj 688 -121 t f f;
#X obj 623 -128 snapshot~;
#X obj 631 -173 tgl 15 0 empty empty empty 17 7 0 10 #fcfcfc #000000 #000000 0 1;
#X obj 623 -106 change;
#X obj 631 -155 metro 10;
#X obj 631 -247 env~;
#X obj 631 -225 > 0;
#X obj 631 -203 change;
#X obj 624 -278 inlet~;
#X obj 622 -51 *;
#X obj 688 -68 line;
#X obj 622 65 line;
#X obj 623 121 +;
#X obj 623 -84 * 1;
#X obj 646 -51 t b f;
#X text 624 -302 FREQ1-;
#X obj 116 153 hsl 128 15 0 127 0 1 \$0-freq1-cv-s \$0-freq1-cv-r FREQ1-/+ 133 7 0 10 #90d3b0 #000000 #000000 2400 1;
#X obj 622 -27 r \$0-freq1-s;
#X obj 688 -209 r \$0-freq1-cv-s;
#X floatatom 623 142 5 0 0 0 - - - 0;
#X obj 802 -4 / 127;
#X obj 802 43 pack 0 50;
#X obj 868 -187 / 127;
#X obj 868 -90 pack 0 50;
#X obj 868 -121 t f f;
#X obj 803 -128 snapshot~;
#X obj 811 -173 tgl 15 0 empty empty empty 17 7 0 10 #fcfcfc #000000 #000000 0 1;
#X obj 803 -106 change;
#X obj 811 -155 metro 10;
#X obj 811 -247 env~;
#X obj 811 -225 > 0;
#X obj 811 -203 change;
#X obj 804 -278 inlet~;
#X obj 802 -51 *;
#X obj 868 -68 line;
#X obj 802 65 line;
#X obj 803 121 +;
#X obj 803 -84 * 1;
#X obj 826 -51 t b f;
#X text 804 -302 FREQ1-;
#X floatatom 803 142 5 0 0 0 - - - 0;
#X obj 116 183 hsl 128 15 0 127 0 1 \$0-freq2-cv-s \$0-freq2-cv-r FREQ2-/+ 133 7 0 10 #90d3b0 #000000 #000000 0 1;
#X obj 802 -27 r \$0-freq2-s;
#X obj 868 -209 r \$0-freq2-cv-s;
#X obj 116 213 hsl 128 15 0 127 0 1 \$0-curve-cv-s \$0-curve-cv-r CURVE-/+ 133 7 0 10 #90d3b0 #000000 #000000 9200 1;
#X obj 116 243 hsl 128 15 0 127 0 1 \$0-square-cv-s \$0-square-cv-r SQUARE-/+ 133 7 0 10 #90d3b0 #000000 #000000 11500 1;
#X obj 992 -4 / 127;
#X obj 992 43 pack 0 50;
#X obj 1058 -187 / 127;
#X obj 1058 -90 pack 0 50;
#X obj 1058 -121 t f f;
#X obj 993 -128 snapshot~;
#X obj 1001 -173 tgl 15 0 empty empty empty 17 7 0 10 #fcfcfc #000000 #000000 0 1;
#X obj 993 -106 change;
#X obj 1001 -155 metro 10;
#X obj 1001 -247 env~;
#X obj 1001 -225 > 0;
#X obj 1001 -203 change;
#X obj 994 -278 inlet~;
#X obj 992 -51 *;
#X obj 1058 -68 line;
#X obj 992 65 line;
#X obj 993 121 +;
#X obj 993 -84 * 1;
#X obj 1016 -51 t b f;
#X floatatom 993 142 5 0 0 0 - - - 0;
#X text 994 -302 CURVE-TIME;
#X obj 992 -27 r \$0-curve-s;
#X obj 1058 -209 r \$0-curve-cv-s;
#X obj 1162 -4 / 127;
#X obj 1162 43 pack 0 50;
#X obj 1228 -187 / 127;
#X obj 1228 -90 pack 0 50;
#X obj 1228 -121 t f f;
#X obj 1163 -128 snapshot~;
#X obj 1171 -173 tgl 15 0 empty empty empty 17 7 0 10 #fcfcfc #000000 #000000 0 1;
#X obj 1163 -106 change;
#X obj 1171 -155 metro 10;
#X obj 1171 -247 env~;
#X obj 1171 -225 > 0;
#X obj 1171 -203 change;
#X obj 1164 -278 inlet~;
#X obj 1162 -51 *;
#X obj 1228 -68 line;
#X obj 1162 65 line;
#X obj 1163 121 +;
#X obj 1163 -84 * 1;
#X obj 1186 -51 t b f;
#X floatatom 1163 142 5 0 0 0 - - - 0;
#X obj 1228 -209 r \$0-square-cv-s;
#X obj 1162 -27 r \$0-square-s;
#X text 1164 -302 SQUARE-TIME;
#X obj 1342 -4 / 127;
#X obj 1342 43 pack 0 50;
#X obj 1408 -187 / 127;
#X obj 1408 -90 pack 0 50;
#X obj 1408 -121 t f f;
#X obj 1343 -128 snapshot~;
#X obj 1351 -173 tgl 15 0 empty empty empty 17 7 0 10 #fcfcfc #000000 #000000 0 1;
#X obj 1343 -106 change;
#X obj 1351 -155 metro 10;
#X obj 1351 -247 env~;
#X obj 1351 -225 > 0;
#X obj 1351 -203 change;
#X obj 1344 -278 inlet~;
#X obj 1342 -51 *;
#X obj 1408 -68 line;
#X obj 1342 65 line;
#X obj 1343 121 +;
#X obj 1343 -84 * 1;
#X obj 1366 -51 t b f;
#X floatatom 1343 142 5 0 0 0 - - - 0;
#X obj 1342 -27 r \$0-noise-s;
#X obj 1408 -209 r \$0-noise-cv-s;
#X obj 116 273 hsl 128 15 0 127 0 1 \$0-noise-cv-s \$0-noise-cv-r NOISE-/+ 133 7 0 10 #90d3b0 #000000 #000000 0 1;
#X obj 116 303 hsl 128 15 0 127 0 1 \$0-lowpass-cv-s \$0-lowpass-cv-r LOWP-/+ 133 7 0 10 #90d3b0 #000000 #000000 0 1;
#X obj 1522 -4 / 127;
#X obj 1522 43 pack 0 50;
#X obj 1588 -187 / 127;
#X obj 1588 -90 pack 0 50;
#X obj 1588 -121 t f f;
#X obj 1523 -128 snapshot~;
#X obj 1531 -173 tgl 15 0 empty empty empty 17 7 0 10 #fcfcfc #000000 #000000 0 1;
#X obj 1523 -106 change;
#X obj 1531 -155 metro 10;
#X obj 1531 -247 env~;
#X obj 1531 -225 > 0;
#X obj 1531 -203 change;
#X obj 1524 -278 inlet~;
#X obj 1522 -51 *;
#X obj 1588 -68 line;
#X obj 1522 65 line;
#X obj 1523 121 +;
#X obj 1523 -84 * 1;
#X obj 1546 -51 t b f;
#X floatatom 1523 142 5 0 0 0 - - - 0;
#X obj 1522 -27 r \$0-lowpass-s;
#X obj 1588 -209 r \$0-lowpass-cv-s;
#X text 1344 -302 Noise;
#X text 1524 -302 lowpass;
#X obj 116 332 hsl 128 15 0 127 0 1 \$0-decay-cv-s \$0-decay-cv-r DECAY-/+ 133 7 0 10 #90d3b0 #000000 #000000 10200 1;
#X obj 1712 -4 / 127;
#X obj 1712 43 pack 0 50;
#X obj 1778 -187 / 127;
#X obj 1778 -90 pack 0 50;
#X obj 1778 -121 t f f;
#X obj 1713 -128 snapshot~;
#X obj 1721 -173 tgl 15 0 empty empty empty 17 7 0 10 #fcfcfc #000000 #000000 0 1;
#X obj 1713 -106 change;
#X obj 1721 -155 metro 10;
#X obj 1721 -247 env~;
#X obj 1721 -225 > 0;
#X obj 1721 -203 change;
#X obj 1714 -278 inlet~;
#X obj 1712 -51 *;
#X obj 1778 -68 line;
#X obj 1712 65 line;
#X obj 1713 121 +;
#X obj 1713 -84 * 1;
#X obj 1736 -51 t b f;
#X floatatom 1713 142 5 0 0 0 - - - 0;
#X text 1714 -302 decay;
#X obj 1778 -209 r \$0-decay-cv-s;
#X obj 1712 -27 r \$0-decay-s;
#X obj 129 109 cnv 5 5 5 empty empty FQ1 0 0 0 8 #fcfcfc #404040 0;
#X obj 158 109 cnv 5 5 5 empty empty FQ2 0 0 0 8 #fcfcfc #404040 0;
#X obj 187 109 cnv 5 5 5 empty empty CRV 0 0 0 8 #fcfcfc #404040 0;
#X obj 216 109 cnv 5 5 5 empty empty SQR 0 0 0 8 #fcfcfc #404040 0;
#X obj 248 109 cnv 5 5 5 empty empty NSE 0 0 0 8 #fcfcfc #404040 0;
#X obj 280 109 cnv 5 5 5 empty empty LP 0 0 0 8 #fcfcfc #404040 0;
#X obj 305 109 cnv 5 5 5 empty empty DCY 0 0 0 8 #fcfcfc #404040 0;
#X obj 409 -291 inlet;
#X obj 409 -262 unpack;
#X obj 409 -233 stripnote;
#X obj 409 -210 bng 16 250 50 0 empty empty empty 0 -8 0 10 #fcfcfc #000000 #000000;
#X obj 409 -58 *~;
#X obj 460 -117 / 127;
#X obj 460 -83 line~;
#X obj 460 -100 pack 0 2;
#N canvas 692 325 668 386 original-patch-stuff 0;
#X obj 293 157 loadbang;
#X obj 344 20 inlet modulation-add;
#X obj 472 20 inlet modulation-multiply;
#X obj 166 22 r \$0-values;
#X obj 345 40 list prepend add;
#X obj 473 41 list prepend mul;
#X obj 55 27 inlet controls;
#X obj 54 61 s \$0-controls;
#N canvas 47 74 1072 591 modulate.oOo..oOo..oOo.. 0;
#X obj 101 271 +;
#X obj 101 250 t b f;
#X obj 82 82 route 0 1 2 3 4 5 6 7;
#X obj 244 216 route 0 1 2 3 4 5 6 7;
#X obj 138 271 +;
#X obj 138 250 t b f;
#X obj 175 271 +;
#X obj 175 250 t b f;
#X obj 212 271 +;
#X obj 212 250 t b f;
#X obj 248 271 +;
#X obj 248 250 t b f;
#X obj 286 271 +;
#X obj 286 250 t b f;
#X obj 323 271 +;
#X obj 323 250 t b f;
#X obj 360 271 +;
#X obj 360 250 t b f;
#X obj 61 8 inlet;
#X obj 99 490 outlet;
#X obj 155 486 outlet;
#X obj 208 489 outlet;
#X obj 264 489 outlet;
#X obj 318 486 outlet;
#X obj 370 486 outlet;
#X obj 425 485 outlet;
#X obj 492 484 outlet;
#X obj 78 409 clip 0 1;
#X obj 132 411 clip 0 1;
#X obj 186 412 clip 0 1;
#X obj 240 414 clip 0 1;
#X obj 294 416 clip 0 1;
#X obj 348 418 clip 0 1;
#X obj 402 419 clip 0 1;
#X obj 456 421 clip 0 1;
#X obj 418 177 route add mul;
#X obj 117 332 t b f;
#X obj 156 335 t b f;
#X obj 193 335 t b f;
#X obj 230 335 t b f;
#X obj 266 335 t b f;
#X obj 304 335 t b f;
#X obj 341 335 t b f;
#X obj 378 335 t b f;
#X obj 118 356 * 1;
#X obj 156 356 * 1;
#X obj 193 356 * 1;
#X obj 231 355 * 1;
#X obj 266 356 * 1;
#X obj 304 356 * 1;
#X obj 341 356 * 1;
#X obj 378 356 * 1;
#X obj 397 275 route 0 1 2 3 4 5 6 7;
#X obj 550 262 +;
#X obj 550 241 t b f;
#X obj 587 262 +;
#X obj 587 241 t b f;
#X obj 624 262 +;
#X obj 624 241 t b f;
#X obj 661 262 +;
#X obj 661 241 t b f;
#X obj 697 262 +;
#X obj 697 241 t b f;
#X obj 735 262 +;
#X obj 735 241 t b f;
#X obj 772 262 +;
#X obj 772 241 t b f;
#X obj 809 262 +;
#X obj 809 241 t b f;
#X obj 548 481 outlet;
#X obj 604 477 outlet;
#X obj 657 480 outlet;
#X obj 713 480 outlet;
#X obj 767 477 outlet;
#X obj 819 477 outlet;
#X obj 874 476 outlet;
#X obj 941 475 outlet;
#X obj 527 400 clip 0 1;
#X obj 581 402 clip 0 1;
#X obj 635 403 clip 0 1;
#X obj 689 405 clip 0 1;
#X obj 743 407 clip 0 1;
#X obj 797 409 clip 0 1;
#X obj 851 410 clip 0 1;
#X obj 905 412 clip 0 1;
#X obj 867 168 route add mul;
#X obj 566 323 t b f;
#X obj 605 326 t b f;
#X obj 642 326 t b f;
#X obj 679 326 t b f;
#X obj 715 326 t b f;
#X obj 753 326 t b f;
#X obj 790 326 t b f;
#X obj 827 326 t b f;
#X obj 567 347 * 1;
#X obj 605 347 * 1;
#X obj 642 347 * 1;
#X obj 680 346 * 1;
#X obj 715 347 * 1;
#X obj 753 347 * 1;
#X obj 790 347 * 1;
#X obj 827 347 * 1;
#X obj 693 206 route 8 9 10 11 12 13 14 5;
#X obj 846 266 route 8 9 10 11 12 13 14 15;
#X msg 79 110 \$1 20;
#X msg 92 130 \$1 20;
#X msg 120 111 \$1 20;
#X msg 133 131 \$1 20;
#X msg 161 110 \$1 20;
#X msg 174 130 \$1 20;
#X msg 202 111 \$1 20;
#X msg 215 131 \$1 20;
#X obj 92 171 line 0 1;
#X obj 109 194 line 0 1;
#X obj 149 166 line 0 1;
#X obj 166 189 line 0 1;
#X obj 207 163 line 0 1;
#X obj 224 186 line 0 1;
#X obj 264 158 line 0 1;
#X obj 281 181 line 0 1;
#X msg 501 51 \$1 20;
#X msg 514 71 \$1 20;
#X msg 542 52 \$1 20;
#X msg 555 72 \$1 20;
#X msg 583 51 \$1 20;
#X msg 596 71 \$1 20;
#X msg 624 52 \$1 20;
#X msg 637 72 \$1 20;
#X obj 512 111 line 0 1;
#X obj 571 107 line 0 1;
#X obj 588 130 line 0 1;
#X obj 629 104 line 0 1;
#X obj 646 127 line 0 1;
#X obj 686 99 line 0 1;
#X obj 703 122 line 0 1;
#X obj 504 22 route 8 9 10 11 12 13 14 15;
#X obj 530 132 line 0 1;
#X obj 845 94 list trim;
#X obj 849 72 inlet;
#X connect 0 0 44 0;
#X connect 1 0 0 0;
#X connect 1 1 0 1;
#X connect 2 0 104 0;
#X connect 2 1 105 0;
#X connect 2 2 106 0;
#X connect 2 3 107 0;
#X connect 2 4 108 0;
#X connect 2 5 109 0;
#X connect 2 6 110 0;
#X connect 2 7 111 0;
#X connect 3 0 0 0;
#X connect 3 1 4 0;
#X connect 3 2 6 0;
#X connect 3 3 8 0;
#X connect 3 4 10 0;
#X connect 3 5 12 0;
#X connect 3 6 14 0;
#X connect 3 7 16 0;
#X connect 4 0 45 0;
#X connect 5 0 4 0;
#X connect 5 1 4 1;
#X connect 6 0 46 0;
#X connect 7 0 6 0;
#X connect 7 1 6 1;
#X connect 8 0 47 0;
#X connect 9 0 8 0;
#X connect 9 1 8 1;
#X connect 10 0 48 0;
#X connect 11 0 10 0;
#X connect 11 1 10 1;
#X connect 12 0 49 0;
#X connect 13 0 12 0;
#X connect 13 1 12 1;
#X connect 14 0 50 0;
#X connect 15 0 14 0;
#X connect 15 1 14 1;
#X connect 16 0 51 0;
#X connect 17 0 16 0;
#X connect 17 1 16 1;
#X connect 18 0 2 0;
#X connect 18 0 135 0;
#X connect 27 0 19 0;
#X connect 28 0 20 0;
#X connect 29 0 21 0;
#X connect 30 0 22 0;
#X connect 31 0 23 0;
#X connect 32 0 24 0;
#X connect 33 0 25 0;
#X connect 34 0 26 0;
#X connect 35 0 3 0;
#X connect 35 1 52 0;
#X connect 36 0 44 0;
#X connect 36 1 44 1;
#X connect 37 0 45 0;
#X connect 37 1 45 1;
#X connect 38 0 46 0;
#X connect 38 1 46 1;
#X connect 39 0 47 0;
#X connect 39 1 47 1;
#X connect 40 0 48 0;
#X connect 40 1 48 1;
#X connect 41 0 49 0;
#X connect 41 1 49 1;
#X connect 42 0 50 0;
#X connect 42 1 50 1;
#X connect 43 0 51 0;
#X connect 43 1 51 1;
#X connect 44 0 27 0;
#X connect 45 0 28 0;
#X connect 46 0 29 0;
#X connect 47 0 30 0;
#X connect 48 0 31 0;
#X connect 49 0 32 0;
#X connect 50 0 33 0;
#X connect 51 0 34 0;
#X connect 52 0 36 0;
#X connect 52 1 37 0;
#X connect 52 2 38 0;
#X connect 52 3 39 0;
#X connect 52 4 40 0;
#X connect 52 5 41 0;
#X connect 52 6 42 0;
#X connect 52 7 43 0;
#X connect 53 0 94 0;
#X connect 54 0 53 0;
#X connect 54 1 53 1;
#X connect 55 0 95 0;
#X connect 56 0 55 0;
#X connect 56 1 55 1;
#X connect 57 0 96 0;
#X connect 58 0 57 0;
#X connect 58 1 57 1;
#X connect 59 0 97 0;
#X connect 60 0 59 0;
#X connect 60 1 59 1;
#X connect 61 0 98 0;
#X connect 62 0 61 0;
#X connect 62 1 61 1;
#X connect 63 0 99 0;
#X connect 64 0 63 0;
#X connect 64 1 63 1;
#X connect 65 0 100 0;
#X connect 66 0 65 0;
#X connect 66 1 65 1;
#X connect 67 0 101 0;
#X connect 68 0 67 0;
#X connect 68 1 67 1;
#X connect 77 0 69 0;
#X connect 78 0 70 0;
#X connect 79 0 71 0;
#X connect 80 0 72 0;
#X connect 81 0 73 0;
#X connect 82 0 74 0;
#X connect 83 0 75 0;
#X connect 84 0 76 0;
#X connect 85 0 102 0;
#X connect 85 1 103 0;
#X connect 86 0 94 0;
#X connect 86 1 94 1;
#X connect 87 0 95 0;
#X connect 87 1 95 1;
#X connect 88 0 96 0;
#X connect 88 1 96 1;
#X connect 89 0 97 0;
#X connect 89 1 97 1;
#X connect 90 0 98 0;
#X connect 90 1 98 1;
#X connect 91 0 99 0;
#X connect 91 1 99 1;
#X connect 92 0 100 0;
#X connect 92 1 100 1;
#X connect 93 0 101 0;
#X connect 93 1 101 1;
#X connect 94 0 77 0;
#X connect 95 0 78 0;
#X connect 96 0 79 0;
#X connect 97 0 80 0;
#X connect 98 0 81 0;
#X connect 99 0 82 0;
#X connect 100 0 83 0;
#X connect 101 0 84 0;
#X connect 102 0 53 0;
#X connect 102 1 55 0;
#X connect 102 2 57 0;
#X connect 102 3 59 0;
#X connect 102 4 61 0;
#X connect 102 5 63 0;
#X connect 102 6 65 0;
#X connect 102 7 67 0;
#X connect 103 0 86 0;
#X connect 103 1 87 0;
#X connect 103 2 88 0;
#X connect 103 3 89 0;
#X connect 103 4 90 0;
#X connect 103 5 91 0;
#X connect 103 6 92 0;
#X connect 103 7 93 0;
#X connect 104 0 112 0;
#X connect 105 0 113 0;
#X connect 106 0 114 0;
#X connect 107 0 115 0;
#X connect 108 0 116 0;
#X connect 109 0 117 0;
#X connect 110 0 118 0;
#X connect 111 0 119 0;
#X connect 112 0 1 0;
#X connect 113 0 5 0;
#X connect 114 0 7 0;
#X connect 115 0 9 0;
#X connect 116 0 11 0;
#X connect 117 0 13 0;
#X connect 118 0 15 0;
#X connect 119 0 17 0;
#X connect 120 0 128 0;
#X connect 121 0 136 0;
#X connect 122 0 129 0;
#X connect 123 0 130 0;
#X connect 124 0 131 0;
#X connect 125 0 132 0;
#X connect 126 0 133 0;
#X connect 127 0 134 0;
#X connect 128 0 54 0;
#X connect 129 0 58 0;
#X connect 130 0 60 0;
#X connect 131 0 62 0;
#X connect 132 0 64 0;
#X connect 133 0 66 0;
#X connect 134 0 68 0;
#X connect 135 0 120 0;
#X connect 135 1 121 0;
#X connect 135 2 122 0;
#X connect 135 3 123 0;
#X connect 135 4 124 0;
#X connect 135 5 125 0;
#X connect 135 6 126 0;
#X connect 135 7 127 0;
#X connect 136 0 56 0;
#X connect 137 0 35 0;
#X connect 137 0 85 0;
#X connect 138 0 137 0;
#X restore 333 71 pd modulate.oOo..oOo..oOo..;
#X msg 33 186 44;
#X msg 33 208 65;
#X msg 33 231 89;
#X msg 33 253 112;
#X obj 293 180 t b b;
#X obj 11 131 s \$0-freq1;
#X obj 79 131 s \$0-freq2;
#X obj 155 131 s \$0-curvetime;
#X obj 248 128 s \$0-square;
#X obj 420 126 s \$0-lowpass;
#X obj 499 126 s \$0-decay;
#X obj 567 125 s \$0-gain;
#X obj 324 127 s \$0-noizelevel;
#X msg 102 218 freq1 freq2 curvetime square noizelevel lowpass decay gain;
#X msg 218 259 0.4 0.4 0.4 0 0.7 0.7 0.49 0.49;
#N canvas 87 94 841 690 list-functions 0;
#N canvas 0 22 466 316 list-enumerate 0;
#X obj 107 63 t a b;
#N canvas 473 338 458 308 count 0;
#X obj 131 154 f 0;
#X obj 156 153 + 1;
#X msg 147 133 0;
#X obj 131 183 outlet;
#X obj 131 59 inlet;
#X obj 131 96 b;
#X obj 178 61 inlet;
#X obj 178 98 b;
#X connect 0 0 1 0;
#X connect 0 0 3 0;
#X connect 1 0 0 1;
#X connect 2 0 0 1;
#X connect 4 0 5 0;
#X connect 5 0 0 0;
#X connect 6 0 7 0;
#X connect 7 0 2 0;
#X restore 186 155 pd count;
#X obj 107 113 t a b;
#X obj 107 33 inlet;
#X obj 107 181 list prepend;
#X obj 107 209 outlet;
#X obj 165 209 outlet;
#N canvas 0 22 537 411 drip 0;
#X obj 64 206 list split 1;
#X obj 64 123 until;
#X obj 64 181 list append;
#X obj 194 206 bang;
#X text 146 90 First store list \, then start the loop;
#X text 163 118 "until" bangs its output until told to stop by a "bang" to its right inlet.;
#X text 182 160 Store the remaining list.;
#X text 239 205 third outlet of "split" tells us to stop.;
#X obj 64 243 outlet;
#X obj 64 57 inlet;
#X text 237 44 From list-help.pd;
#X obj 143 243 outlet;
#X obj 64 86 t b a;
#X connect 0 0 8 0;
#X connect 0 1 2 1;
#X connect 0 2 3 0;
#X connect 0 2 11 0;
#X connect 1 0 2 0;
#X connect 2 0 0 0;
#X connect 3 0 1 1;
#X connect 9 0 12 0;
#X connect 12 0 1 0;
#X connect 12 1 2 1;
#X restore 110 88 pd drip;
#X obj 76 154 list prepend label;
#X connect 0 0 7 0;
#X connect 0 1 1 1;
#X connect 1 0 4 1;
#X connect 2 0 8 0;
#X connect 2 1 1 0;
#X connect 3 0 0 0;
#X connect 4 0 5 0;
#X connect 7 0 2 0;
#X connect 7 1 6 0;
#X connect 8 0 4 0;
#X restore 37 184 pd list-enumerate;
#X obj 37 230 s \$0-controls;
#N canvas 0 22 482 332 list-enumerate 0;
#N canvas 473 338 458 308 count 0;
#X obj 131 154 f 0;
#X obj 156 153 + 1;
#X msg 147 133 0;
#X obj 131 183 outlet;
#X obj 131 59 inlet;
#X obj 131 96 b;
#X obj 178 61 inlet;
#X obj 178 98 b;
#X connect 0 0 1 0;
#X connect 0 0 3 0;
#X connect 1 0 0 1;
#X connect 2 0 0 1;
#X connect 4 0 5 0;
#X connect 5 0 0 0;
#X connect 6 0 7 0;
#X connect 7 0 2 0;
#X restore 186 155 pd count;
#X obj 107 113 t a b;
#X obj 107 33 inlet;
#X obj 107 181 list prepend;
#X obj 112 253 outlet;
#N canvas 0 22 541 415 drip 0;
#X obj 64 206 list split 1;
#X obj 64 123 until;
#X obj 64 181 list append;
#X obj 194 206 bang;
#X text 146 90 First store list \, then start the loop;
#X text 163 118 "until" bangs its output until told to stop by a "bang" to its right inlet.;
#X text 182 160 Store the remaining list.;
#X text 239 205 third outlet of "split" tells us to stop.;
#X obj 64 243 outlet;
#X obj 64 57 inlet;
#X text 237 44 From list-help.pd;
#X obj 143 243 outlet;
#X obj 64 86 t b a;
#X connect 0 0 8 0;
#X connect 0 1 2 1;
#X connect 0 2 3 0;
#X connect 0 2 11 0;
#X connect 1 0 2 0;
#X connect 2 0 0 0;
#X connect 3 0 1 1;
#X connect 9 0 12 0;
#X connect 12 0 1 0;
#X connect 12 1 2 1;
#X restore 110 88 pd drip;
#X obj 107 63 t a b;
#X connect 0 0 3 1;
#X connect 1 0 3 0;
#X connect 1 1 0 0;
#X connect 2 0 6 0;
#X connect 3 0 4 0;
#X connect 5 0 1 0;
#X connect 6 0 5 0;
#X connect 6 1 0 1;
#X restore 149 183 pd list-enumerate;
#N canvas 0 22 498 348 list-enumerate 0;
#N canvas 473 338 458 308 count 0;
#X obj 131 154 f 0;
#X obj 156 153 + 1;
#X msg 147 133 0;
#X obj 131 183 outlet;
#X obj 131 59 inlet;
#X obj 131 96 b;
#X obj 178 61 inlet;
#X obj 178 98 b;
#X connect 0 0 1 0;
#X connect 0 0 3 0;
#X connect 1 0 0 1;
#X connect 2 0 0 1;
#X connect 4 0 5 0;
#X connect 5 0 0 0;
#X connect 6 0 7 0;
#X connect 7 0 2 0;
#X restore 186 155 pd count;
#X obj 107 113 t a b;
#X obj 107 33 inlet;
#X obj 107 181 list prepend;
#X obj 112 253 outlet;
#N canvas 0 22 541 415 drip 0;
#X obj 64 206 list split 1;
#X obj 64 123 until;
#X obj 64 181 list append;
#X obj 194 206 bang;
#X text 146 90 First store list \, then start the loop;
#X text 163 118 "until" bangs its output until told to stop by a "bang" to its right inlet.;
#X text 182 160 Store the remaining list.;
#X text 239 205 third outlet of "split" tells us to stop.;
#X obj 64 243 outlet;
#X obj 64 57 inlet;
#X text 237 44 From list-help.pd;
#X obj 143 243 outlet;
#X obj 64 86 t b a;
#X connect 0 0 8 0;
#X connect 0 1 2 1;
#X connect 0 2 3 0;
#X connect 0 2 11 0;
#X connect 1 0 2 0;
#X connect 2 0 0 0;
#X connect 3 0 1 1;
#X connect 9 0 12 0;
#X connect 12 0 1 0;
#X connect 12 1 2 1;
#X restore 110 88 pd drip;
#X obj 194 215 t a;
#X obj 106 209 list prepend;
#X obj 107 63 t a b b;
#X connect 0 0 3 1;
#X connect 1 0 3 0;
#X connect 1 1 0 0;
#X connect 2 0 8 0;
#X connect 3 0 7 0;
#X connect 5 0 1 0;
#X connect 6 0 7 1;
#X connect 7 0 6 0;
#X connect 7 0 4 0;
#X connect 8 0 5 0;
#X connect 8 1 0 1;
#X connect 8 2 7 1;
#X restore 411 149 pd list-enumerate;
#X obj 104 251 r \$0-controls;
#X obj 272 98 r \$0-values;
#N canvas 283 65 551 703 replacelist 0;
#X obj 164 224 list;
#X obj 327 98 inlet;
#X obj 250 98 inlet;
#X text 331 72 orig;
#X text 256 74 pos;
#X text 77 70 list to insert;
#X obj 85 94 inlet;
#X obj 207 281 list split;
#X obj 85 526 list;
#X obj 85 598 outlet;
#X obj 85 317 list prepend;
#X obj 85 120 t a b a b;
#X obj 85 430 list prepend 0;
#X obj 250 125 t f f;
#X obj 207 524 list prepend;
#X obj 85 469 route 0 1;
#X obj 316 347 f;
#X obj 286 282 t a b;
#X obj 316 377 > 0;
#X obj 122 358 r \$0-init;
#X obj 122 377 0;
#X obj 300 524 r \$0-init;
#X obj 176 317 r \$0-init;
#X obj 118 527 r \$0-init;
#X obj 159 131 s \$0-init;
#X text 47 25 list-replace: Replace the list starting at position POS with a new list \, overwriting the old elements.;
#N canvas 0 22 458 308 length 0;
#X obj 171 164 + 1;
#X obj 92 127 b;
#X obj 126 204 f;
#X obj 158 138 1;
#X obj 142 166 f 1;
#X obj 216 168 0;
#X obj 136 59 t a b b;
#N canvas 0 22 537 411 drip 0;
#X obj 64 206 list split 1;
#X obj 64 123 until;
#X obj 64 181 list append;
#X obj 194 206 bang;
#X text 146 90 First store list \, then start the loop;
#X text 163 118 "until" bangs its output until told to stop by a "bang" to its right inlet.;
#X text 182 160 Store the remaining list.;
#X text 239 205 third outlet of "split" tells us to stop.;
#X obj 64 243 outlet;
#X obj 64 57 inlet;
#X text 237 44 From list-help.pd;
#X obj 143 243 outlet;
#X obj 64 86 t b a;
#X connect 0 0 8 0;
#X connect 0 1 2 1;
#X connect 0 2 3 0;
#X connect 0 2 11 0;
#X connect 1 0 2 0;
#X connect 2 0 0 0;
#X connect 3 0 1 1;
#X connect 9 0 12 0;
#X connect 12 0 1 0;
#X connect 12 1 2 1;
#X restore 92 104 pd drip;
#X obj 137 36 inlet;
#X obj 125 238 outlet;
#X connect 0 0 4 1;
#X connect 1 0 4 0;
#X connect 2 0 9 0;
#X connect 3 0 4 1;
#X connect 4 0 0 0;
#X connect 4 0 2 1;
#X connect 5 0 2 1;
#X connect 6 0 7 0;
#X connect 6 1 3 0;
#X connect 6 2 5 0;
#X connect 7 0 1 0;
#X connect 7 1 2 0;
#X connect 8 0 6 0;
#X restore 268 216 pd length;
#X obj 162 254 list split;
#X connect 0 0 27 0;
#X connect 1 0 0 1;
#X connect 2 0 13 0;
#X connect 6 0 11 0;
#X connect 7 1 8 1;
#X connect 7 1 14 1;
#X connect 8 0 9 0;
#X connect 10 0 12 0;
#X connect 11 0 10 0;
#X connect 11 1 0 0;
#X connect 11 2 26 0;
#X connect 11 3 24 0;
#X connect 12 0 15 0;
#X connect 13 0 27 1;
#X connect 13 1 16 1;
#X connect 14 0 9 0;
#X connect 15 0 8 0;
#X connect 15 1 14 0;
#X connect 16 0 18 0;
#X connect 17 0 14 1;
#X connect 17 0 8 1;
#X connect 17 1 16 0;
#X connect 18 0 12 1;
#X connect 19 0 20 0;
#X connect 20 0 12 1;
#X connect 21 0 14 1;
#X connect 22 0 10 1;
#X connect 23 0 8 1;
#X connect 26 0 7 1;
#X connect 27 0 10 1;
#X connect 27 1 7 0;
#X connect 27 2 17 0;
#X restore 289 199 pd replacelist;
#X obj 423 265 t a;
#X obj 272 130 swap;
#X obj 50 109 inlet;
#N canvas 0 22 545 419 drip2 0;
#X obj 64 123 until;
#X obj 64 181 list append;
#X obj 194 206 bang;
#X text 146 90 First store list \, then start the loop;
#X text 163 118 "until" bangs its output until told to stop by a "bang" to its right inlet.;
#X text 182 160 Store the remaining list.;
#X text 239 205 third outlet of "split" tells us to stop.;
#X obj 64 243 outlet;
#X obj 64 57 inlet;
#X text 237 44 From list-help.pd;
#X obj 143 243 outlet;
#X obj 64 86 t b a;
#X obj 64 206 list split 2;
#X connect 0 0 1 0;
#X connect 1 0 12 0;
#X connect 2 0 0 1;
#X connect 8 0 11 0;
#X connect 11 0 0 0;
#X connect 11 1 1 1;
#X connect 12 0 7 0;
#X connect 12 1 1 1;
#X connect 12 2 2 0;
#X connect 12 2 10 0;
#X restore 190 285 pd drip2;
#X obj 253 24 inlet;
#X obj 144 355 route 0 1 2 3 4 5 6 7 8 9 10 11 12 13 14 15;
#X obj 144 381 s \$0-ra;
#X obj 156 401 s \$0-rb;
#X obj 167 422 s \$0-rc;
#X obj 179 442 s \$0-rd;
#X obj 194 381 s \$0-re;
#X obj 206 401 s \$0-rf;
#X obj 217 422 s \$0-rg;
#X obj 229 442 s \$0-rh;
#X obj 250 383 s \$0-ri;
#X obj 262 403 s \$0-rj;
#X obj 273 424 s \$0-rk;
#X obj 285 444 s \$0-rl;
#X obj 299 383 s \$0-rm;
#X obj 312 403 s \$0-rn;
#X obj 323 424 s \$0-ro;
#X obj 335 444 s \$0-rp;
#X obj 35 505 r \$0-a;
#X msg 35 530 0 \$1;
#X obj 78 505 r \$0-b;
#X msg 77 529 1 \$1;
#X obj 121 505 r \$0-c;
#X obj 164 505 r \$0-d;
#X msg 121 530 2 \$1;
#X msg 163 529 3 \$1;
#X obj 208 503 r \$0-e;
#X obj 251 503 r \$0-f;
#X obj 294 503 r \$0-g;
#X obj 337 503 r \$0-h;
#X msg 208 528 4 \$1;
#X msg 250 526 5 \$1;
#X msg 294 527 6 \$1;
#X msg 336 527 7 \$1;
#X obj 383 503 r \$0-i;
#X obj 426 502 r \$0-j;
#X obj 468 503 r \$0-k;
#X obj 512 503 r \$0-l;
#X obj 556 501 r \$0-m;
#X obj 599 501 r \$0-o;
#X obj 642 501 r \$0-p;
#X obj 685 501 r \$0-q;
#X msg 383 528 8 \$1;
#X msg 425 527 9 \$1;
#X msg 469 528 10 \$1;
#X msg 511 527 11 \$1;
#X msg 556 526 12 \$1;
#X msg 598 524 13 \$1;
#X msg 641 525 14 \$1;
#X msg 684 525 15 \$1;
#X obj 683 559 s \$0-values;
#X obj 413 202 t a a;
#X obj 412 182 list;
#X obj 294 150 * 2;
#X obj 295 170 + 1;
#X obj 191 253 t a a;
#X obj 257 47 t a b a a;
#X connect 0 0 1 0;
#X connect 2 0 1 0;
#X connect 3 0 63 1;
#X connect 4 0 12 0;
#X connect 5 0 8 0;
#X connect 6 0 7 0;
#X connect 7 0 6 2;
#X connect 8 0 6 0;
#X connect 8 1 64 0;
#X connect 9 0 0 0;
#X connect 10 0 12 0;
#X connect 11 0 67 0;
#X connect 12 0 13 0;
#X connect 12 1 14 0;
#X connect 12 2 15 0;
#X connect 12 3 16 0;
#X connect 12 4 17 0;
#X connect 12 5 18 0;
#X connect 12 6 19 0;
#X connect 12 7 20 0;
#X connect 12 8 21 0;
#X connect 12 9 22 0;
#X connect 12 10 23 0;
#X connect 12 11 24 0;
#X connect 12 12 25 0;
#X connect 12 13 26 0;
#X connect 12 14 27 0;
#X connect 12 15 28 0;
#X connect 29 0 30 0;
#X connect 30 0 61 0;
#X connect 31 0 32 0;
#X connect 32 0 61 0;
#X connect 33 0 35 0;
#X connect 34 0 36 0;
#X connect 35 0 61 0;
#X connect 36 0 61 0;
#X connect 37 0 41 0;
#X connect 38 0 42 0;
#X connect 39 0 43 0;
#X connect 40 0 44 0;
#X connect 41 0 61 0;
#X connect 42 0 61 0;
#X connect 43 0 61 0;
#X connect 44 0 61 0;
#X connect 45 0 53 0;
#X connect 46 0 54 0;
#X connect 47 0 55 0;
#X connect 48 0 56 0;
#X connect 49 0 57 0;
#X connect 50 0 58 0;
#X connect 51 0 59 0;
#X connect 52 0 60 0;
#X connect 53 0 61 0;
#X connect 54 0 61 0;
#X connect 55 0 61 0;
#X connect 56 0 61 0;
#X connect 57 0 61 0;
#X connect 58 0 61 0;
#X connect 59 0 61 0;
#X connect 60 0 61 0;
#X connect 62 0 6 2;
#X connect 63 0 62 0;
#X connect 64 0 65 0;
#X connect 65 0 6 1;
#X connect 66 0 10 0;
#X connect 66 1 6 2;
#X connect 67 0 2 0;
#X connect 67 1 63 0;
#X connect 67 2 3 0;
#X restore 149 307 pd list-functions;
#X obj 338 185 s \$0-loadbang;
#X obj 494 225 vradio 15 1 0 2 \$0-steady \$0-steady-r empty 0 -6 0 10 #fcfcfc #000000 #000000 0;
#X text 512 222 steady;
#X text 515 240 jump;
#X text 552 229 ) on click;
#N canvas 342 134 608 504 jumponclick 0;
#X obj 144 355 route 0 1 2 3 4 5 6 7 8 9 10 11 12 13 14 15;
#X obj 144 381 s \$0-ra;
#X obj 156 401 s \$0-rb;
#X obj 167 422 s \$0-rc;
#X obj 179 442 s \$0-rd;
#X obj 194 381 s \$0-re;
#X obj 206 401 s \$0-rf;
#X obj 217 422 s \$0-rg;
#X obj 229 442 s \$0-rh;
#X obj 250 383 s \$0-ri;
#X obj 262 403 s \$0-rj;
#X obj 273 424 s \$0-rk;
#X obj 285 444 s \$0-rl;
#X obj 299 383 s \$0-rm;
#X obj 312 403 s \$0-rn;
#X obj 323 424 s \$0-ro;
#X obj 335 444 s \$0-rp;
#X obj 205 178 f;
#X obj 232 180 + 1;
#X obj 205 156 until;
#X msg 243 150 0;
#X obj 205 125 t f b;
#X msg 216 265 \$1 steady \$2;
#X msg 216 86 16;
#X obj 214 2 r \$0-steady;
#X obj 210 218 pack 0 0;
#X obj 214 65 t b f f;
#X msg 364 211 set \$1;
#X msg 390 253 1;
#X obj 418 205 loadbang;
#X msg 389 275 set \$1;
#X obj 388 298 s \$0-steady-r;
#X obj 285 156 - 1;
#X obj 286 176 abs;
#X connect 0 0 1 0;
#X connect 0 1 2 0;
#X connect 0 2 3 0;
#X connect 0 3 4 0;
#X connect 0 4 5 0;
#X connect 0 5 6 0;
#X connect 0 6 7 0;
#X connect 0 7 8 0;
#X connect 0 8 9 0;
#X connect 0 9 10 0;
#X connect 0 10 11 0;
#X connect 0 11 12 0;
#X connect 0 12 13 0;
#X connect 0 13 14 0;
#X connect 0 14 15 0;
#X connect 0 15 16 0;
#X connect 17 0 18 0;
#X connect 17 0 25 0;
#X connect 18 0 17 1;
#X connect 19 0 17 0;
#X connect 20 0 17 1;
#X connect 21 0 19 0;
#X connect 21 1 20 0;
#X connect 22 0 0 0;
#X connect 23 0 21 0;
#X connect 24 0 26 0;
#X connect 25 0 22 0;
#X connect 26 0 23 0;
#X connect 26 1 32 0;
#X connect 26 2 27 0;
#X connect 27 0 28 0;
#X connect 28 0 30 0;
#X connect 29 0 28 0;
#X connect 30 0 31 0;
#X connect 32 0 33 0;
#X connect 33 0 25 1;
#X restore 496 281 pd jumponclick;
#X connect 0 0 13 0;
#X connect 1 0 4 0;
#X connect 2 0 5 0;
#X connect 3 0 8 0;
#X connect 4 0 8 1;
#X connect 5 0 8 1;
#X connect 6 0 7 0;
#X connect 8 0 14 0;
#X connect 8 1 15 0;
#X connect 8 2 16 0;
#X connect 8 3 17 0;
#X connect 8 4 21 0;
#X connect 8 5 18 0;
#X connect 8 6 19 0;
#X connect 8 7 20 0;
#X connect 13 0 23 0;
#X connect 13 1 25 0;
#X connect 22 0 24 0;
#X connect 23 0 24 1;
#X restore 134 -1 pd original-patch-stuff;
#N canvas 196 112 1244 616 push-controll 0;
#N canvas 208 141 1232 580 push-encoder 0;
#X obj 53 80 push-encoder-reader;
#X obj 53 -17 ctlin 71;
#X obj 298 75 push-encoder-reader;
#X obj 298 -22 ctlin 72;
#X obj 536 77 push-encoder-reader;
#X obj 781 72 push-encoder-reader;
#X obj 536 -20 ctlin 73;
#X obj 781 -25 ctlin 74;
#X obj 56 241 push-encoder-reader;
#X obj 301 236 push-encoder-reader;
#X obj 539 238 push-encoder-reader;
#X obj 56 154 ctlin 75;
#X obj 301 149 ctlin 76;
#X obj 539 151 ctlin 77;
#X obj 54 38 main-menu;
#X obj 105 20 r \$0-mm;
#N canvas 150 175 450 300 sm1 0;
#X obj 109 64 r \$0-sm;
#X obj 109 102 sel;
#X obj 75 170 outlet;
#X msg 108 123 1;
#X msg 135 123 0;
#X obj 75 149 spigot;
#X obj 75 37 inlet;
#X obj 124 83 r \$0-sm1;
#X connect 0 0 1 0;
#X connect 1 0 3 0;
#X connect 1 1 4 0;
#X connect 3 0 5 1;
#X connect 4 0 5 1;
#X connect 5 0 2 0;
#X connect 6 0 5 0;
#X connect 7 0 1 1;
#X restore 54 57 pd sm1;
#X obj 299 29 main-menu;
#X obj 350 11 r \$0-mm;
#N canvas 150 175 450 300 sm1 0;
#X obj 109 64 r \$0-sm;
#X obj 109 102 sel;
#X obj 75 170 outlet;
#X msg 108 123 1;
#X msg 135 123 0;
#X obj 75 149 spigot;
#X obj 75 37 inlet;
#X obj 124 83 r \$0-sm1;
#X connect 0 0 1 0;
#X connect 1 0 3 0;
#X connect 1 1 4 0;
#X connect 3 0 5 1;
#X connect 4 0 5 1;
#X connect 5 0 2 0;
#X connect 6 0 5 0;
#X connect 7 0 1 1;
#X restore 299 48 pd sm1;
#X obj 537 20 main-menu;
#X obj 588 2 r \$0-mm;
#N canvas 150 175 450 300 sm1 0;
#X obj 109 64 r \$0-sm;
#X obj 109 102 sel;
#X obj 75 170 outlet;
#X msg 108 123 1;
#X msg 135 123 0;
#X obj 75 149 spigot;
#X obj 75 37 inlet;
#X obj 124 83 r \$0-sm1;
#X connect 0 0 1 0;
#X connect 1 0 3 0;
#X connect 1 1 4 0;
#X connect 3 0 5 1;
#X connect 4 0 5 1;
#X connect 5 0 2 0;
#X connect 6 0 5 0;
#X connect 7 0 1 1;
#X restore 537 39 pd sm1;
#X obj 781 15 main-menu;
#X obj 832 -3 r \$0-mm;
#N canvas 150 175 450 300 sm1 0;
#X obj 109 64 r \$0-sm;
#X obj 109 102 sel;
#X obj 75 170 outlet;
#X msg 108 123 1;
#X msg 135 123 0;
#X obj 75 149 spigot;
#X obj 75 37 inlet;
#X obj 124 83 r \$0-sm1;
#X connect 0 0 1 0;
#X connect 1 0 3 0;
#X connect 1 1 4 0;
#X connect 3 0 5 1;
#X connect 4 0 5 1;
#X connect 5 0 2 0;
#X connect 6 0 5 0;
#X connect 7 0 1 1;
#X restore 781 34 pd sm1;
#X obj 57 194 main-menu;
#X obj 108 176 r \$0-mm;
#N canvas 150 175 450 300 sm1 0;
#X obj 109 64 r \$0-sm;
#X obj 109 102 sel;
#X obj 75 170 outlet;
#X msg 108 123 1;
#X msg 135 123 0;
#X obj 75 149 spigot;
#X obj 75 37 inlet;
#X obj 124 83 r \$0-sm1;
#X connect 0 0 1 0;
#X connect 1 0 3 0;
#X connect 1 1 4 0;
#X connect 3 0 5 1;
#X connect 4 0 5 1;
#X connect 5 0 2 0;
#X connect 6 0 5 0;
#X connect 7 0 1 1;
#X restore 57 213 pd sm1;
#X obj 309 185 main-menu;
#X obj 360 167 r \$0-mm;
#N canvas 150 175 450 300 sm1 0;
#X obj 109 64 r \$0-sm;
#X obj 109 102 sel;
#X obj 75 170 outlet;
#X msg 108 123 1;
#X msg 135 123 0;
#X obj 75 149 spigot;
#X obj 75 37 inlet;
#X obj 124 83 r \$0-sm1;
#X connect 0 0 1 0;
#X connect 1 0 3 0;
#X connect 1 1 4 0;
#X connect 3 0 5 1;
#X connect 4 0 5 1;
#X connect 5 0 2 0;
#X connect 6 0 5 0;
#X connect 7 0 1 1;
#X restore 309 204 pd sm1;
#X obj 543 187 main-menu;
#X obj 594 169 r \$0-mm;
#N canvas 150 175 450 300 sm1 0;
#X obj 109 64 r \$0-sm;
#X obj 109 102 sel;
#X obj 75 170 outlet;
#X msg 108 123 1;
#X msg 135 123 0;
#X obj 75 149 spigot;
#X obj 75 37 inlet;
#X obj 124 83 r \$0-sm1;
#X connect 0 0 1 0;
#X connect 1 0 3 0;
#X connect 1 1 4 0;
#X connect 3 0 5 1;
#X connect 4 0 5 1;
#X connect 5 0 2 0;
#X connect 6 0 5 0;
#X connect 7 0 1 1;
#X restore 543 206 pd sm1;
#X obj 53 460 push-encoder-reader;
#X obj 53 363 ctlin 71;
#X obj 298 455 push-encoder-reader;
#X obj 298 358 ctlin 72;
#X obj 536 457 push-encoder-reader;
#X obj 781 452 push-encoder-reader;
#X obj 536 360 ctlin 73;
#X obj 781 355 ctlin 74;
#X obj 56 621 push-encoder-reader;
#X obj 301 616 push-encoder-reader;
#X obj 539 618 push-encoder-reader;
#X obj 784 613 push-encoder-reader;
#X obj 56 534 ctlin 75;
#X obj 301 529 ctlin 76;
#X obj 539 531 ctlin 77;
#X obj 784 526 ctlin 78;
#X obj 54 418 main-menu;
#X obj 105 400 r \$0-mm;
#X obj 299 409 main-menu;
#X obj 350 391 r \$0-mm;
#X obj 537 400 main-menu;
#X obj 588 382 r \$0-mm;
#X obj 781 395 main-menu;
#X obj 832 377 r \$0-mm;
#X obj 57 574 main-menu;
#X obj 108 556 r \$0-mm;
#X obj 309 565 main-menu;
#X obj 360 547 r \$0-mm;
#X obj 543 567 main-menu;
#X obj 594 549 r \$0-mm;
#X obj 793 562 main-menu;
#X obj 844 544 r \$0-mm;
#X text 37 -47 Encoder to volume (submenu1);
#X text 26 325 Encoder to hipass (submenu2);
#X obj 164 438 r \$0-maestro4-pan1-s;
#X obj 54 486 s \$0-maestro4-pan1-r;
#N canvas 150 175 450 300 sm2 0;
#X obj 109 64 r \$0-sm;
#X obj 109 102 sel;
#X obj 75 170 outlet;
#X msg 108 123 1;
#X msg 135 123 0;
#X obj 75 149 spigot;
#X obj 75 37 inlet;
#X obj 124 83 r \$0-sm2;
#X connect 0 0 1 0;
#X connect 1 0 3 0;
#X connect 1 1 4 0;
#X connect 3 0 5 1;
#X connect 4 0 5 1;
#X connect 5 0 2 0;
#X connect 6 0 5 0;
#X connect 7 0 1 1;
#X restore 54 437 pd sm2;
#N canvas 150 175 450 300 sm2 0;
#X obj 109 64 r \$0-sm;
#X obj 109 102 sel;
#X obj 75 170 outlet;
#X msg 108 123 1;
#X msg 135 123 0;
#X obj 75 149 spigot;
#X obj 75 37 inlet;
#X obj 124 83 r \$0-sm2;
#X connect 0 0 1 0;
#X connect 1 0 3 0;
#X connect 1 1 4 0;
#X connect 3 0 5 1;
#X connect 4 0 5 1;
#X connect 5 0 2 0;
#X connect 6 0 5 0;
#X connect 7 0 1 1;
#X restore 301 432 pd sm2;
#N canvas 150 175 450 300 sm2 0;
#X obj 109 64 r \$0-sm;
#X obj 109 102 sel;
#X obj 75 170 outlet;
#X msg 108 123 1;
#X msg 135 123 0;
#X obj 75 149 spigot;
#X obj 75 37 inlet;
#X obj 124 83 r \$0-sm2;
#X connect 0 0 1 0;
#X connect 1 0 3 0;
#X connect 1 1 4 0;
#X connect 3 0 5 1;
#X connect 4 0 5 1;
#X connect 5 0 2 0;
#X connect 6 0 5 0;
#X connect 7 0 1 1;
#X restore 537 427 pd sm2;
#N canvas 150 175 450 300 sm2 0;
#X obj 109 64 r \$0-sm;
#X obj 109 102 sel;
#X obj 75 170 outlet;
#X msg 108 123 1;
#X msg 135 123 0;
#X obj 75 149 spigot;
#X obj 75 37 inlet;
#X obj 124 83 r \$0-sm2;
#X connect 0 0 1 0;
#X connect 1 0 3 0;
#X connect 1 1 4 0;
#X connect 3 0 5 1;
#X connect 4 0 5 1;
#X connect 5 0 2 0;
#X connect 6 0 5 0;
#X connect 7 0 1 1;
#X restore 782 422 pd sm2;
#N canvas 150 175 450 300 sm2 0;
#X obj 109 64 r \$0-sm;
#X obj 109 102 sel;
#X obj 75 170 outlet;
#X msg 108 123 1;
#X msg 135 123 0;
#X obj 75 149 spigot;
#X obj 75 37 inlet;
#X obj 124 83 r \$0-sm2;
#X connect 0 0 1 0;
#X connect 1 0 3 0;
#X connect 1 1 4 0;
#X connect 3 0 5 1;
#X connect 4 0 5 1;
#X connect 5 0 2 0;
#X connect 6 0 5 0;
#X connect 7 0 1 1;
#X restore 58 598 pd sm2;
#N canvas 150 175 450 300 sm2 0;
#X obj 109 64 r \$0-sm;
#X obj 109 102 sel;
#X obj 75 170 outlet;
#X msg 108 123 1;
#X msg 135 123 0;
#X obj 75 149 spigot;
#X obj 75 37 inlet;
#X obj 124 83 r \$0-sm2;
#X connect 0 0 1 0;
#X connect 1 0 3 0;
#X connect 1 1 4 0;
#X connect 3 0 5 1;
#X connect 4 0 5 1;
#X connect 5 0 2 0;
#X connect 6 0 5 0;
#X connect 7 0 1 1;
#X restore 305 587 pd sm2;
#N canvas 150 175 450 300 sm2 0;
#X obj 109 64 r \$0-sm;
#X obj 109 102 sel;
#X obj 75 170 outlet;
#X msg 108 123 1;
#X msg 135 123 0;
#X obj 75 149 spigot;
#X obj 75 37 inlet;
#X obj 124 83 r \$0-sm2;
#X connect 0 0 1 0;
#X connect 1 0 3 0;
#X connect 1 1 4 0;
#X connect 3 0 5 1;
#X connect 4 0 5 1;
#X connect 5 0 2 0;
#X connect 6 0 5 0;
#X connect 7 0 1 1;
#X restore 557 593 pd sm2;
#N canvas 150 175 450 300 sm2 0;
#X obj 109 64 r \$0-sm;
#X obj 109 102 sel;
#X obj 75 170 outlet;
#X msg 108 123 1;
#X msg 135 123 0;
#X obj 75 149 spigot;
#X obj 75 37 inlet;
#X obj 124 83 r \$0-sm2;
#X connect 0 0 1 0;
#X connect 1 0 3 0;
#X connect 1 1 4 0;
#X connect 3 0 5 1;
#X connect 4 0 5 1;
#X connect 5 0 2 0;
#X connect 6 0 5 0;
#X connect 7 0 1 1;
#X restore 791 587 pd sm2;
#X obj 409 433 r \$0-maestro4-pan2-s;
#X obj 299 481 s \$0-maestro4-pan2-r;
#X obj 647 435 r \$0-maestro4-pan3-s;
#X obj 537 483 s \$0-maestro4-pan3-r;
#X obj 892 430 r \$0-maestro4-pan4-s;
#X obj 782 478 s \$0-maestro4-pan4-r;
#X obj 167 599 r \$0-maestro4-pan5-s;
#X obj 57 647 s \$0-maestro4-pan5-r;
#X obj 412 594 r \$0-maestro4-pan6-s;
#X obj 302 642 s \$0-maestro4-pan6-r;
#X obj 650 596 r \$0-maestro4-pan7-s;
#X obj 540 644 s \$0-maestro4-pan7-r;
#X obj 895 591 r \$0-maestro4-pan8-s;
#X obj 785 639 s \$0-maestro4-pan8-r;
#X obj 54 106 s \$0-freq1-r;
#X obj 164 58 r \$0-freq1-s;
#X obj 409 53 r \$0-freq2-s;
#X obj 299 101 s \$0-freq2-r;
#X obj 647 55 r \$0-curve-s;
#X obj 537 103 s \$0-curve-r;
#X obj 782 98 s \$0-square-r;
#X obj 892 50 r \$0-square-s;
#X obj 167 219 r \$0-noise-s;
#X obj 57 267 s \$0-noise-r;
#X obj 412 214 r \$0-lowpass-s;
#X obj 302 262 s \$0-lowpass-r;
#X obj 650 216 r \$0-decay-s;
#X obj 540 264 s \$0-decay-r;
#X floatatom 19 116 5 0 0 0 - - - 0;
#X connect 0 0 93 0;
#X connect 1 0 14 0;
#X connect 2 0 96 0;
#X connect 3 0 17 0;
#X connect 4 0 98 0;
#X connect 5 0 99 0;
#X connect 6 0 20 0;
#X connect 7 0 23 0;
#X connect 8 0 102 0;
#X connect 9 0 104 0;
#X connect 10 0 106 0;
#X connect 11 0 26 0;
#X connect 12 0 29 0;
#X connect 13 0 32 0;
#X connect 14 0 16 0;
#X connect 15 0 14 1;
#X connect 16 0 0 0;
#X connect 17 0 19 0;
#X connect 18 0 17 1;
#X connect 19 0 2 0;
#X connect 20 0 22 0;
#X connect 21 0 20 1;
#X connect 22 0 4 0;
#X connect 23 0 25 0;
#X connect 24 0 23 1;
#X connect 25 0 5 0;
#X connect 26 0 28 0;
#X connect 27 0 26 1;
#X connect 28 0 8 0;
#X connect 29 0 31 0;
#X connect 30 0 29 1;
#X connect 31 0 9 0;
#X connect 32 0 34 0;
#X connect 33 0 32 1;
#X connect 34 0 10 0;
#X connect 35 0 70 0;
#X connect 36 0 51 0;
#X connect 37 0 80 0;
#X connect 38 0 53 0;
#X connect 39 0 82 0;
#X connect 40 0 84 0;
#X connect 41 0 55 0;
#X connect 42 0 57 0;
#X connect 43 0 86 0;
#X connect 44 0 88 0;
#X connect 45 0 90 0;
#X connect 46 0 92 0;
#X connect 47 0 59 0;
#X connect 48 0 61 0;
#X connect 49 0 63 0;
#X connect 50 0 65 0;
#X connect 51 0 71 0;
#X connect 52 0 51 1;
#X connect 53 0 72 0;
#X connect 54 0 53 1;
#X connect 55 0 73 0;
#X connect 56 0 55 1;
#X connect 57 0 74 0;
#X connect 58 0 57 1;
#X connect 59 0 75 0;
#X connect 60 0 59 1;
#X connect 61 0 76 0;
#X connect 62 0 61 1;
#X connect 63 0 77 0;
#X connect 64 0 63 1;
#X connect 65 0 78 0;
#X connect 66 0 65 1;
#X connect 69 0 35 1;
#X connect 71 0 35 0;
#X connect 72 0 37 0;
#X connect 73 0 39 0;
#X connect 74 0 40 0;
#X connect 75 0 43 0;
#X connect 76 0 44 0;
#X connect 77 0 45 0;
#X connect 78 0 46 0;
#X connect 79 0 37 1;
#X connect 81 0 39 1;
#X connect 83 0 40 1;
#X connect 85 0 43 1;
#X connect 87 0 44 1;
#X connect 89 0 45 1;
#X connect 91 0 46 1;
#X connect 94 0 0 1;
#X connect 95 0 2 1;
#X connect 97 0 4 1;
#X connect 100 0 5 1;
#X connect 101 0 8 1;
#X connect 103 0 9 1;
#X connect 105 0 10 1;
#X restore 21 141 pd push-encoder;
#N canvas 0 25 1440 789 push-display 0;
#X text 139 37 METER to DISPLAY;
#X obj 146 -216 t b;
#X obj 147 -3 push-mk1-display 24;
#X obj 146 -279 main-menu;
#X obj 172 -301 r \$0-mm;
#X msg 147 -196 symbol FREQ;
#X msg 167 -174 symbol FREQ2;
#X msg 177 -146 symbol CURVE;
#X msg 197 -124 symbol SQUARE;
#X msg 217 -96 symbol NOISE;
#X msg 237 -74 symbol LOWPASS;
#X msg 247 -46 symbol DECAY;
#X msg 267 -24 symbol;
#X obj 146 -328 r \$0-sm;
#X msg 553 139 symbol;
#X obj 433 160 push-mk1-display 25;
#X obj 433 -176 r \$0-freq1-s;
#X msg 433 -33 symbol :\$1;
#X obj 453 -156 r \$0-freq2-s;
#X msg 449 -11 symbol :\$1;
#X obj 464 -136 r \$0-curve-s;
#X msg 465 17 symbol :\$1;
#X obj 433 -128 f;
#X obj 443 -108 f;
#X obj 463 -88 f;
#X obj 436 -253 main-menu;
#X obj 462 -275 r \$0-mm;
#X obj 436 -302 r \$0-sm;
#X obj 436 -200 t b;
#X obj 545 -134 f;
#X obj 555 -114 f;
#X obj 575 -94 f;
#X obj 545 -182 r \$0-square-s;
#X msg 483 39 symbol :\$1;
#X obj 565 -162 r \$0-noise-s;
#X msg 503 67 symbol :\$1;
#X obj 576 -142 r \$0-lowpass-s;
#X msg 523 89 symbol :\$1;
#X msg 533 117 symbol :\$1;
#X obj 614 -121 r \$0-decay-s;
#X obj 613 -79 f;
#N canvas 150 175 450 300 sm 0;
#X obj 109 64 r \$0-sm;
#X obj 109 102 sel;
#X obj 124 83 r \$0-sm1;
#X obj 75 170 outlet;
#X msg 108 123 1;
#X msg 135 123 0;
#X obj 75 149 spigot;
#X obj 75 37 inlet;
#X connect 0 0 1 0;
#X connect 1 0 4 0;
#X connect 1 1 5 0;
#X connect 2 0 1 1;
#X connect 4 0 6 1;
#X connect 5 0 6 1;
#X connect 6 0 3 0;
#X connect 7 0 6 0;
#X restore 145 -255 pd sm;
#N canvas 150 175 450 300 sm 0;
#X obj 109 64 r \$0-sm;
#X obj 109 102 sel;
#X obj 124 83 r \$0-sm1;
#X obj 75 170 outlet;
#X msg 108 123 1;
#X msg 135 123 0;
#X obj 75 149 spigot;
#X obj 75 37 inlet;
#X connect 0 0 1 0;
#X connect 1 0 4 0;
#X connect 1 1 5 0;
#X connect 2 0 1 1;
#X connect 4 0 6 1;
#X connect 5 0 6 1;
#X connect 6 0 3 0;
#X connect 7 0 6 0;
#X restore 439 -229 pd sm;
#X connect 1 0 5 0;
#X connect 1 0 6 0;
#X connect 1 0 7 0;
#X connect 1 0 8 0;
#X connect 1 0 9 0;
#X connect 1 0 10 0;
#X connect 1 0 11 0;
#X connect 1 0 12 0;
#X connect 3 0 41 0;
#X connect 4 0 3 1;
#X connect 5 0 2 0;
#X connect 6 0 2 1;
#X connect 7 0 2 2;
#X connect 8 0 2 3;
#X connect 9 0 2 4;
#X connect 10 0 2 5;
#X connect 11 0 2 6;
#X connect 12 0 2 7;
#X connect 13 0 3 0;
#X connect 14 0 15 7;
#X connect 16 0 22 0;
#X connect 17 0 15 0;
#X connect 18 0 23 0;
#X connect 19 0 15 1;
#X connect 20 0 24 0;
#X connect 21 0 15 2;
#X connect 22 0 17 0;
#X connect 23 0 19 0;
#X connect 24 0 21 0;
#X connect 25 0 42 0;
#X connect 26 0 25 1;
#X connect 27 0 25 0;
#X connect 28 0 22 0;
#X connect 28 0 23 0;
#X connect 28 0 24 0;
#X connect 28 0 29 0;
#X connect 28 0 30 0;
#X connect 28 0 31 0;
#X connect 28 0 40 0;
#X connect 29 0 33 0;
#X connect 30 0 35 0;
#X connect 31 0 37 0;
#X connect 32 0 29 0;
#X connect 33 0 15 3;
#X connect 34 0 30 0;
#X connect 35 0 15 4;
#X connect 36 0 31 0;
#X connect 37 0 15 5;
#X connect 38 0 15 6;
#X connect 39 0 40 0;
#X connect 40 0 38 0;
#X connect 41 0 1 0;
#X connect 42 0 28 0;
#X restore 21 71 pd push-display;
#X obj 818 148 s \$0-mm;
#X obj 818 27 loadbang;
#X obj 959 92 s \$0-sm1;
#X text 1023 93 The Submenu number of the subpatch;
#X obj 991 20 loadbang;
#X msg 991 40 0;
#X obj 959 127 loadbang;
#X msg 959 147 1;
#X obj 959 166 s \$0-sm2;
#X msg 789 72 2;
#X obj 231 97 hradio 16 1 0 8 empty empty empty 0 -8 0 10 #fcfcfc #000000 #000000 0;
#X obj 231 34 r all-menu;
#X obj 231 74 route;
#X obj 258 53 r \$0-mm;
#X obj 231 198 s \$0-sm;
#X obj 818 105 r \$0-main-menu-s;
#X obj 818 126 + 1;
#X obj 959 64 r \$0-sub-menu-s;
#X connect 3 0 11 0;
#X connect 6 0 7 0;
#X connect 8 0 9 0;
#X connect 9 0 10 0;
#X connect 12 0 16 0;
#X connect 13 0 14 0;
#X connect 14 0 12 0;
#X connect 15 0 14 1;
#X connect 17 0 18 0;
#X connect 18 0 2 0;
#X connect 19 0 4 0;
#X restore -215 29 pd push-controll;
#X msg 130 454 1;
#X msg 103 494 \; pd-\$1options vis \$2;
#X obj 103 454 f \$0;
#X obj 103 473 pack f f;
#X obj 235 353 bng 10 250 50 0 \$0-options-button \$0-options-button-r OPTIONS -45 5 0 10 #fcfcfc #000000 #000000;
#X obj 103 435 t b b;
#X obj 103 416 r \$0-options-button;
#X text 101 391 Opens the Options-Subpatch:;
#N canvas 551 310 191 154 \$0options 0;
#X text 11 10 Ableton-Push-Interface:;
#X obj 15 50 hradio 16 1 0 8 \$0-main-menu-s \$0-main-menu-r Main-Menu 0 -8 0 10 #fcfcfc #000000 #000000 0;
#X obj 15 90 hradio 16 1 0 8 \$0-sub-menu-s \$0-sub-menu-r Sub-Menu 0 -8 0 10 #fcfcfc #000000 #000000 0;
#X restore 102 527 pd \$0options;
#X connect 17 0 220 0;
#X connect 29 0 31 0;
#X connect 31 0 32 0;
#X connect 32 0 30 0;
#X connect 37 0 36 0;
#X connect 38 0 36 1;
#X connect 41 0 42 0;
#X connect 42 0 56 0;
#X connect 43 0 45 0;
#X connect 44 0 55 0;
#X connect 45 0 44 0;
#X connect 46 0 48 0;
#X connect 47 0 49 0;
#X connect 48 0 58 0;
#X connect 49 0 46 0;
#X connect 50 0 51 0;
#X connect 51 0 52 0;
#X connect 52 0 47 0;
#X connect 53 0 46 0;
#X connect 53 0 50 0;
#X connect 54 0 59 0;
#X connect 55 0 54 1;
#X connect 56 0 57 0;
#X connect 57 0 64 0;
#X connect 58 0 54 0;
#X connect 59 0 57 0;
#X connect 59 1 57 1;
#X connect 62 0 41 0;
#X connect 63 0 43 0;
#X connect 64 0 1 0;
#X connect 65 0 66 0;
#X connect 66 0 80 0;
#X connect 67 0 69 0;
#X connect 68 0 79 0;
#X connect 69 0 68 0;
#X connect 70 0 72 0;
#X connect 71 0 73 0;
#X connect 72 0 82 0;
#X connect 73 0 70 0;
#X connect 74 0 75 0;
#X connect 75 0 76 0;
#X connect 76 0 71 0;
#X connect 77 0 70 0;
#X connect 77 0 74 0;
#X connect 78 0 83 0;
#X connect 79 0 78 1;
#X connect 80 0 81 0;
#X connect 81 0 85 0;
#X connect 82 0 78 0;
#X connect 83 0 81 0;
#X connect 83 1 81 1;
#X connect 85 0 3 0;
#X connect 87 0 65 0;
#X connect 88 0 67 0;
#X connect 91 0 92 0;
#X connect 92 0 106 0;
#X connect 93 0 95 0;
#X connect 94 0 105 0;
#X connect 95 0 94 0;
#X connect 96 0 98 0;
#X connect 97 0 99 0;
#X connect 98 0 108 0;
#X connect 99 0 96 0;
#X connect 100 0 101 0;
#X connect 101 0 102 0;
#X connect 102 0 97 0;
#X connect 103 0 96 0;
#X connect 103 0 100 0;
#X connect 104 0 109 0;
#X connect 105 0 104 1;
#X connect 106 0 107 0;
#X connect 107 0 110 0;
#X connect 108 0 104 0;
#X connect 109 0 107 0;
#X connect 109 1 107 1;
#X connect 110 0 2 0;
#X connect 112 0 91 0;
#X connect 113 0 93 0;
#X connect 114 0 115 0;
#X connect 115 0 129 0;
#X connect 116 0 118 0;
#X connect 117 0 128 0;
#X connect 118 0 117 0;
#X connect 119 0 121 0;
#X connect 120 0 122 0;
#X connect 121 0 131 0;
#X connect 122 0 119 0;
#X connect 123 0 124 0;
#X connect 124 0 125 0;
#X connect 125 0 120 0;
#X connect 126 0 119 0;
#X connect 126 0 123 0;
#X connect 127 0 132 0;
#X connect 128 0 127 1;
#X connect 129 0 130 0;
#X connect 130 0 133 0;
#X connect 131 0 127 0;
#X connect 132 0 130 0;
#X connect 132 1 130 1;
#X connect 133 0 4 0;
#X connect 134 0 116 0;
#X connect 135 0 114 0;
#X connect 137 0 138 0;
#X connect 138 0 152 0;
#X connect 139 0 141 0;
#X connect 140 0 151 0;
#X connect 141 0 140 0;
#X connect 142 0 144 0;
#X connect 143 0 145 0;
#X connect 144 0 154 0;
#X connect 145 0 142 0;
#X connect 146 0 147 0;
#X connect 147 0 148 0;
#X connect 148 0 143 0;
#X connect 149 0 142 0;
#X connect 149 0 146 0;
#X connect 150 0 155 0;
#X connect 151 0 150 1;
#X connect 152 0 153 0;
#X connect 153 0 156 0;
#X connect 154 0 150 0;
#X connect 155 0 153 0;
#X connect 155 1 153 1;
#X connect 156 0 5 0;
#X connect 157 0 137 0;
#X connect 158 0 139 0;
#X connect 161 0 162 0;
#X connect 162 0 176 0;
#X connect 163 0 165 0;
#X connect 164 0 175 0;
#X connect 165 0 164 0;
#X connect 166 0 168 0;
#X connect 167 0 169 0;
#X connect 168 0 178 0;
#X connect 169 0 166 0;
#X connect 170 0 171 0;
#X connect 171 0 172 0;
#X connect 172 0 167 0;
#X connect 173 0 166 0;
#X connect 173 0 170 0;
#X connect 174 0 179 0;
#X connect 175 0 174 1;
#X connect 176 0 177 0;
#X connect 177 0 180 0;
#X connect 178 0 174 0;
#X connect 179 0 177 0;
#X connect 179 1 177 1;
#X connect 180 0 7 0;
#X connect 181 0 161 0;
#X connect 182 0 163 0;
#X connect 186 0 187 0;
#X connect 187 0 201 0;
#X connect 188 0 190 0;
#X connect 189 0 200 0;
#X connect 190 0 189 0;
#X connect 191 0 193 0;
#X connect 192 0 194 0;
#X connect 193 0 203 0;
#X connect 194 0 191 0;
#X connect 195 0 196 0;
#X connect 196 0 197 0;
#X connect 197 0 192 0;
#X connect 198 0 191 0;
#X connect 198 0 195 0;
#X connect 199 0 204 0;
#X connect 200 0 199 1;
#X connect 201 0 202 0;
#X connect 202 0 205 0;
#X connect 203 0 199 0;
#X connect 204 0 202 0;
#X connect 204 1 202 1;
#X connect 205 0 6 0;
#X connect 207 0 188 0;
#X connect 208 0 186 0;
#X connect 216 0 217 0;
#X connect 217 0 218 0;
#X connect 217 1 218 1;
#X connect 218 0 219 0;
#X connect 218 1 221 0;
#X connect 219 0 17 0;
#X connect 220 0 0 0;
#X connect 221 0 223 0;
#X connect 222 0 220 1;
#X connect 223 0 222 0;
#X connect 226 0 229 1;
#X connect 228 0 229 0;
#X connect 229 0 227 0;
#X connect 231 0 228 0;
#X connect 231 1 226 0;
#X connect 232 0 231 0;
#X coords 0 -1 1 1 220 270 2 100 100;
