#N canvas 217 99 879 605 10;
#X obj 49 -53 inlet~;
#X obj 50 542 outlet~;
#X obj 50 364 expr~ sin($v1 * abs($v1)) / (abs($v1) + 0.0001);
#X obj 50 331 *~;
#X obj 79 383 expr~ sin($v1);
#X obj 80 402 *~ 0.2;
#X obj 50 427 +~;
#X obj 50 520 clip~ -1 1;
#X obj 290 20 hsl 128 15 0.01 1 0 0 empty empty Gain -2 -6 0 10 #fcfcfc #000000 #000000 0 1;
#X obj 65 117 t f f;
#X obj 65 220 line~;
#X obj 50 448 *~;
#X obj 287 -51 inlet;
#X obj 287 -9 + 0.01;
#X obj 287 -29 / 128.2;
#X text 330 -53 fader-controll-input (1-127);
#X obj 287 59 line;
#X obj 287 39 pack f 50;
#X obj 174 133 t f b;
#X msg 175 167 1;
#X obj 175 191 /;
#X obj 175 233 line~;
#X obj 175 213 pack f 30;
#X obj 65 144 t f f f;
#X obj 65 163 *;
#X obj 65 182 *;
#X obj 65 201 pack f 30;
#X obj 61 487 biquad~ -1.55341 -0.622111 0.793881 1.58776 0.793881;
#X text 388 488 FREQ: 20k Q: 0.618;
#X connect 0 0 3 0;
#X connect 2 0 6 0;
#X connect 3 0 2 0;
#X connect 3 0 4 0;
#X connect 4 0 5 0;
#X connect 5 0 6 1;
#X connect 6 0 11 0;
#X connect 7 0 1 0;
#X connect 8 0 17 0;
#X connect 9 0 23 0;
#X connect 9 1 18 0;
#X connect 10 0 3 1;
#X connect 11 0 27 0;
#X connect 12 0 14 0;
#X connect 13 0 8 0;
#X connect 14 0 13 0;
#X connect 16 0 9 0;
#X connect 17 0 16 0;
#X connect 18 0 20 1;
#X connect 18 1 19 0;
#X connect 19 0 20 0;
#X connect 20 0 22 0;
#X connect 21 0 11 1;
#X connect 22 0 21 0;
#X connect 23 0 24 0;
#X connect 23 1 24 1;
#X connect 23 2 25 1;
#X connect 24 0 25 0;
#X connect 25 0 26 0;
#X connect 26 0 10 0;
#X connect 27 0 7 0;
