#N canvas 100 25 1340 769 10;
#X obj 108 183 hsl 128 15 0 127 0 1 \$0-sample-player-file-s \$0-sample-player-file-r FILE 133 7 0 10 #fcfcfc #000000 #000000 8000 1;
#X obj 108 213 hsl 128 15 0 127 0 1 \$0-sample-player-pitch-cv-att-s \$0-sample-player-pitch-cv-att-r P.CV 133 7 0 10 #9898dc #000000 #000000 0 1;
#X obj 700 113 s~ \$0-PITCH-CV;
#X obj 700 -50 inlet~ PITCH-CV-IN;
#X obj 105 18 inlet~;
#N canvas 22 53 785 564 select-sample 0;
#X obj 40 -56 r \$0-sample-player-file-s;
#X obj 40 -34 / 127;
#X obj 40 47 + 1;
#X obj 40 232 i;
#X floatatom 40 251 5 0 0 0 - - - 0;
#X obj 40 328 s \$0-select-table;
#X obj 40 122 +;
#X obj 200 15 r~ \$0-sampler-file-cv;
#X obj 200 61 snapshot~;
#X obj 200 105 t b f;
#X obj 347 126 tgl 15 0 empty empty empty 17 7 0 10 #fcfcfc #000000 #000000 0 1;
#X obj 347 168 spigot;
#X obj 347 31 env~;
#X obj 347 53 > 0;
#X obj 347 75 change;
#X obj 347 146 metro 1;
#X obj 347 97 t f f;
#X msg 477 144 0;
#X obj 477 122 sel 0 1;
#X obj 10 487 s \$0-sampler-symbol-gui-r;
#X obj 200 83 * 8;
#X obj 10 327 i;
#X obj 40 270 pack f;
#X floatatom 0 152 5 0 0 0 - - - 0;
#X listbox 10 465 20 0 0 0 - - - 0;
#X obj 45 400 text get sample-names;
#X obj 40 144 clip 1 10;
#X obj 40 -12 * 10;
#X obj 103 144 r \$0-sample-player-bank-s;
#X obj 40 207 +;
#X obj 103 162 / 127;
#X obj 103 180 * 10;
#X obj 103 246 t b f;
#X obj 103 201 i;
#X obj 103 222 * 10;
#X listbox 167 467 20 0 0 0 - - - 0;
#X obj 167 488 s \$0-sampler-symbol-bank-gui-r;
#X obj 45 421 unpack s s;
#X connect 0 0 1 0;
#X connect 1 0 27 0;
#X connect 2 0 6 0;
#X connect 2 0 23 0;
#X connect 3 0 4 0;
#X connect 4 0 22 0;
#X connect 4 0 21 0;
#X connect 6 0 26 0;
#X connect 7 0 8 0;
#X connect 7 0 12 0;
#X connect 8 0 20 0;
#X connect 9 0 6 0;
#X connect 9 1 6 1;
#X connect 10 0 15 0;
#X connect 11 0 8 0;
#X connect 12 0 13 0;
#X connect 13 0 14 0;
#X connect 14 0 16 0;
#X connect 14 0 18 0;
#X connect 15 0 11 0;
#X connect 16 0 10 0;
#X connect 16 1 11 1;
#X connect 18 0 17 0;
#X connect 20 0 9 0;
#X connect 21 0 25 0;
#X connect 22 0 5 0;
#X connect 24 0 19 0;
#X connect 25 0 37 0;
#X connect 26 0 29 0;
#X connect 27 0 2 0;
#X connect 28 0 30 0;
#X connect 29 0 3 0;
#X connect 30 0 31 0;
#X connect 31 0 33 0;
#X connect 32 0 29 0;
#X connect 32 1 29 1;
#X connect 33 0 34 0;
#X connect 34 0 32 0;
#X connect 35 0 36 0;
#X connect 37 0 24 0;
#X connect 37 1 35 0;
#X restore 320 -99 pd select-sample;
#X obj 105 115 bng 15 50 50 0 empty empty empty 17 7 0 10 #fcfcfc #dc4c90 #000000;
#X obj 132 719 vline~;
#X obj 105 40 threshold~ 0.9 0 0.9 0;
#X obj 135 124 cnv 5 5 5 empty empty DIET-SAMPLER 0 0 0 12 #fcfcfc #404040 0;
#X obj 147 109 cnv 5 5 5 empty empty PITCH 0 0 0 8 #fcfcfc #404040 0;
#X obj 104 109 cnv 5 5 5 empty empty TRIG 0 0 0 8 #fcfcfc #dc4c90 0;
#X obj 252 108 cnv 5 5 5 empty empty LOOP 0 0 0 8 #fcfcfc #dc4c90 0;
#X obj 223 124 cnv 5 5 5 empty \$0-instance-num 22 0 0 0 12 #fcfcfc #404040 0;
#X obj 938 -45 inlet~ FILE-CV;
#X obj 938 -23 s~ \$0-sampler-file-cv;
#X obj 207 109 cnv 5 5 5 empty empty FILE 0 0 0 8 #fcfcfc #404040 0;
#X symbolatom 140 153 16 0 0 0 FILE: \$0-sampler-symbol-gui-r - 0;
#N canvas 100 25 771 725 state-saving-multiple-instances 0;
#X obj 164 26 loadbang;
#X obj 290 479 textfile;
#X msg 571 462 rewind;
#X msg 528 462 bang;
#X obj 88 702 textfile;
#X obj 528 421 t b b;
#X obj 88 355 f;
#X obj 101 578 f;
#X obj 27 402 t b b b;
#X msg 163 573 clear;
#X obj 230 215 outlet;
#X text 272 217 INSTANCE NUMBER;
#X obj 191 180 t f f f;
#X obj 191 144 f \$1;
#X obj 164 59 t b b;
#X obj 27 378 bng 15 250 50 0 empty empty empty 17 7 0 10 #fcfcfc #000000 #000000;
#X obj 27 234 r SAVE-S;
#X msg 101 650 write statesave/\$1-sampler-ss.txt;
#X msg 290 454 read statesave/\$1-sampler-ss.txt;
#X obj 109 283 r \$0-sample-player-pitch-s;
#X obj 313 600 s \$0-sample-player-pitch-r;
#X obj 103 245 r \$0-sample-player-file-s;
#X obj 290 618 s \$0-sample-player-file-r;
#X obj 128 311 r \$0-sample-player-loop-s;
#X obj 336 582 s \$0-sample-player-loop-r;
#X obj 148 341 r \$0-sample-player-pitch-cv-att-s;
#X obj 359 564 s \$0-sample-player-pitch-cv-att-r;
#X obj 222 45 r \$0-reload!;
#X obj 88 398 pack f f f f f;
#X obj 170 365 r \$0-sample-player-bank-s;
#X msg 88 436 set \$1 \$2 \$3 \$4 \$5;
#X obj 290 501 unpack f f f f f;
#X obj 383 545 s \$0-sample-player-bank-r;
#X connect 0 0 14 0;
#X connect 1 0 31 0;
#X connect 2 0 1 0;
#X connect 3 0 1 0;
#X connect 5 0 3 0;
#X connect 5 1 2 0;
#X connect 6 0 28 0;
#X connect 7 0 17 0;
#X connect 8 0 7 0;
#X connect 8 1 6 0;
#X connect 8 2 9 0;
#X connect 9 0 4 0;
#X connect 12 0 7 1;
#X connect 12 1 18 0;
#X connect 12 2 10 0;
#X connect 13 0 12 0;
#X connect 14 0 5 0;
#X connect 14 1 13 0;
#X connect 15 0 8 0;
#X connect 16 0 15 0;
#X connect 17 0 4 0;
#X connect 18 0 1 0;
#X connect 19 0 28 1;
#X connect 21 0 6 1;
#X connect 23 0 28 2;
#X connect 25 0 28 3;
#X connect 27 0 14 0;
#X connect 28 0 30 0;
#X connect 29 0 28 4;
#X connect 30 0 4 0;
#X connect 31 0 22 0;
#X connect 31 1 20 0;
#X connect 31 2 24 0;
#X connect 31 3 26 0;
#X connect 31 4 32 0;
#X restore 319 73 pd state-saving-multiple-instances;
#X obj 319 146 s \$0-instance-num;
#X obj 319 98 makefilename %d;
#X msg 319 123 label \$1;
#N canvas 81 22 1117 745 state-saving-via-preset-manager-module 0;
#X obj 477 349 textfile;
#X msg 755 332 rewind;
#X msg 712 332 bang;
#X obj 243 690 textfile;
#X obj 712 293 t b b;
#X obj 244 356 f;
#X obj 257 579 f;
#X obj 190 474 t b b b;
#X msg 373 621 clear;
#X obj 244 180 delay 5;
#X obj 190 529 delay 10;
#X msg 190 314 bang;
#X obj 190 155 r STORE-S!;
#X obj 477 250 f;
#X obj 450 207 t b b;
#X obj 465 171 t b f;
#X obj 522 268 f \$1;
#X obj 477 295 pack f f;
#X obj 522 218 loadbang;
#X obj 257 609 pack f f;
#X obj 302 562 loadbang;
#X obj 302 584 f \$1;
#X obj 465 122 r preset-manager-scan;
#X obj 272 540 r preset-manager-store-slot;
#X obj 465 144 i;
#X msg 256 650 write statesave/\$1-\$2-sampler-ss.txt;
#X msg 477 324 read statesave/\$1-\$2-sampler-ss.txt;
#X obj 290 352 r \$0-sample-player-loop-s;
#X obj 531 518 s \$0-sample-player-loop-r;
#X obj 259 308 r \$0-sample-player-file-s;
#X obj 477 619 s \$0-sample-player-file-r;
#X obj 267 330 r \$0-sample-player-pitch-s;
#X obj 504 567 s \$0-sample-player-pitch-r;
#X obj 244 423 pack f f f f;
#X msg 243 490 set \$1 \$2 \$3 \$4;
#X obj 326 399 r \$0-sample-player-pitch-cv-att-s;
#X obj 477 371 unpack f f f f;
#X obj 558 491 s \$0-sample-player-pitch-cv-att-r;
#N canvas 0 22 1069 747 morph-attenuators 0;
#X obj 176 94 inlet;
#X obj 176 236 pack f f;
#X obj 176 261 line;
#X obj 209 117 r preset-manager-morph-s;
#X msg 72 244 stop;
#X obj 72 214 r STOP-MORPH!;
#X obj 209 206 spigot;
#X obj 398 137 t f f;
#X obj 455 154 == 0;
#X obj 221 176 f;
#X floatatom 455 222 5 0 0 0 - - - 0;
#X obj 398 159 t b f;
#X floatatom 425 192 5 0 0 0 - - - 0;
#X obj 209 139 t f f;
#X obj 398 102 r attenuators-s;
#X obj 176 288 outlet;
#X connect 0 0 1 0;
#X connect 1 0 2 0;
#X connect 2 0 15 0;
#X connect 3 0 13 0;
#X connect 4 0 2 0;
#X connect 5 0 4 0;
#X connect 6 0 1 1;
#X connect 7 0 11 0;
#X connect 7 1 8 0;
#X connect 8 0 10 0;
#X connect 9 0 6 0;
#X connect 10 0 1 1;
#X connect 11 0 9 0;
#X connect 11 1 12 0;
#X connect 12 0 6 1;
#X connect 13 0 6 0;
#X connect 13 1 9 1;
#X connect 14 0 7 0;
#X restore 558 468 pd morph-attenuators;
#N canvas 0 22 1069 747 morph-parameters 0;
#X obj 176 94 inlet;
#X obj 176 236 pack f f;
#X obj 176 261 line;
#X obj 209 117 r preset-manager-morph-s;
#X msg 72 244 stop;
#X obj 72 214 r STOP-MORPH!;
#X obj 209 206 spigot;
#X obj 398 137 t f f;
#X obj 455 154 == 0;
#X obj 221 176 f;
#X floatatom 455 222 5 0 0 0 - - - 0;
#X obj 398 159 t b f;
#X floatatom 425 192 5 0 0 0 - - - 0;
#X obj 209 139 t f f;
#X obj 398 102 r parameters-s;
#X obj 176 288 outlet;
#X connect 0 0 1 0;
#X connect 1 0 2 0;
#X connect 2 0 15 0;
#X connect 3 0 13 0;
#X connect 4 0 2 0;
#X connect 5 0 4 0;
#X connect 6 0 1 1;
#X connect 7 0 11 0;
#X connect 7 1 8 0;
#X connect 8 0 10 0;
#X connect 9 0 6 0;
#X connect 10 0 1 1;
#X connect 11 0 9 0;
#X connect 11 1 12 0;
#X connect 12 0 6 1;
#X connect 13 0 6 0;
#X connect 13 1 9 1;
#X connect 14 0 7 0;
#X restore 477 594 pd morph-parameters;
#N canvas 0 22 1069 747 morph-frequencies 0;
#X obj 176 94 inlet;
#X obj 176 236 pack f f;
#X obj 176 261 line;
#X obj 209 117 r preset-manager-morph-s;
#X msg 72 244 stop;
#X obj 72 214 r STOP-MORPH!;
#X obj 398 102 r frequencies-s;
#X obj 209 206 spigot;
#X obj 398 137 t f f;
#X obj 455 154 == 0;
#X obj 221 176 f;
#X floatatom 455 222 5 0 0 0 - - - 0;
#X obj 398 159 t b f;
#X floatatom 425 192 5 0 0 0 - - - 0;
#X obj 209 139 t f f;
#X obj 176 283 outlet;
#X connect 0 0 1 0;
#X connect 1 0 2 0;
#X connect 2 0 15 0;
#X connect 3 0 14 0;
#X connect 4 0 2 0;
#X connect 5 0 4 0;
#X connect 6 0 8 0;
#X connect 7 0 1 1;
#X connect 8 0 12 0;
#X connect 8 1 9 0;
#X connect 9 0 11 0;
#X connect 10 0 7 0;
#X connect 11 0 1 1;
#X connect 12 0 10 0;
#X connect 12 1 13 0;
#X connect 13 0 7 1;
#X connect 14 0 7 0;
#X connect 14 1 10 1;
#X restore 504 542 pd morph-frequencies;
#X connect 0 0 36 0;
#X connect 1 0 0 0;
#X connect 2 0 0 0;
#X connect 4 0 2 0;
#X connect 4 1 1 0;
#X connect 5 0 33 0;
#X connect 6 0 19 0;
#X connect 7 0 10 0;
#X connect 7 1 9 0;
#X connect 7 2 8 0;
#X connect 8 0 3 0;
#X connect 9 0 5 0;
#X connect 10 0 6 0;
#X connect 11 0 7 0;
#X connect 12 0 11 0;
#X connect 13 0 17 0;
#X connect 14 0 4 0;
#X connect 14 1 13 0;
#X connect 15 0 14 0;
#X connect 15 1 13 1;
#X connect 16 0 17 1;
#X connect 17 0 26 0;
#X connect 18 0 16 0;
#X connect 19 0 25 0;
#X connect 20 0 21 0;
#X connect 21 0 19 1;
#X connect 22 0 24 0;
#X connect 23 0 6 1;
#X connect 24 0 15 0;
#X connect 25 0 3 0;
#X connect 26 0 0 0;
#X connect 27 0 33 2;
#X connect 29 0 5 1;
#X connect 31 0 33 1;
#X connect 33 0 34 0;
#X connect 34 0 3 0;
#X connect 35 0 33 3;
#X connect 36 0 39 0;
#X connect 36 1 40 0;
#X connect 36 2 28 0;
#X connect 36 3 38 0;
#X connect 38 0 37 0;
#X connect 39 0 30 0;
#X connect 40 0 32 0;
#X restore 320 49 pd state-saving-via-preset-manager-module;
#N canvas 297 27 563 235 parameter-nudging-system 0;
#X obj 23 67 clip 0 127;
#X obj 182 67 clip 0 127;
#X obj 351 69 clip 0 127;
#X obj 23 22 r \$0-sample-player-file-s;
#X obj 23 95 s \$0-sample-player-file-r;
#X obj 182 22 r \$0-sample-player-pitch-s;
#X obj 182 95 s \$0-sample-player-pitch-r;
#X obj 351 22 r \$0-sample-player-loop-s;
#X obj 351 95 s \$0-sample-player-loop-r;
#N canvas 0 22 484 497 param-nudge 0;
#X obj 124 234 random;
#X obj 232 335 f;
#X obj 232 368 +;
#X obj 257 166 random 2;
#X obj 124 275 t f f;
#X obj 124 351 t b f;
#X obj 124 297 *;
#X obj 257 188 sel 0 1;
#X msg 257 280 -1;
#X msg 335 280 1;
#X obj 124 149 t b b b;
#X obj 124 123 r NUDGE!;
#X obj 157 193 r NUDGE-RANGE;
#X obj 247 308 inlet;
#X obj 232 397 outlet;
#X floatatom 316 396 5 0 0 0 - - - 0;
#X connect 0 0 4 0;
#X connect 1 0 2 0;
#X connect 2 0 14 0;
#X connect 2 0 15 0;
#X connect 3 0 7 0;
#X connect 4 0 6 0;
#X connect 5 0 2 0;
#X connect 5 1 2 1;
#X connect 6 0 5 0;
#X connect 7 0 8 0;
#X connect 7 1 9 0;
#X connect 8 0 6 1;
#X connect 9 0 6 1;
#X connect 10 0 0 0;
#X connect 10 1 1 0;
#X connect 10 2 3 0;
#X connect 11 0 10 0;
#X connect 12 0 0 1;
#X connect 13 0 1 1;
#X restore 23 144 pd param-nudge;
#X obj 23 166 clip 0 127;
#X obj 23 121 r \$0-sample-player-pitch-cv-att-s;
#X obj 23 194 s \$0-sample-player-pitch-cv-att-r;
#N canvas 0 22 484 497 nudge-freq 0;
#X obj 124 234 random;
#X obj 232 335 f;
#X obj 232 368 +;
#X obj 257 166 random 2;
#X obj 124 275 t f f;
#X obj 124 351 t b f;
#X obj 124 297 *;
#X obj 257 188 sel 0 1;
#X msg 257 280 -1;
#X msg 335 280 1;
#X obj 124 149 t b b b;
#X obj 124 51 r NUDGE!;
#X obj 157 193 r NUDGE-RANGE;
#X obj 247 308 inlet;
#X obj 232 397 outlet;
#X obj 124 73 spigot;
#X obj 185 56 r frequencies2-s;
#X connect 0 0 4 0;
#X connect 1 0 2 0;
#X connect 2 0 14 0;
#X connect 3 0 7 0;
#X connect 4 0 6 0;
#X connect 5 0 2 0;
#X connect 5 1 2 1;
#X connect 6 0 5 0;
#X connect 7 0 8 0;
#X connect 7 1 9 0;
#X connect 8 0 6 1;
#X connect 9 0 6 1;
#X connect 10 0 0 0;
#X connect 10 1 1 0;
#X connect 10 2 3 0;
#X connect 11 0 15 0;
#X connect 12 0 0 1;
#X connect 13 0 1 1;
#X connect 15 0 10 0;
#X connect 16 0 15 1;
#X restore 182 44 pd nudge-freq;
#N canvas 0 22 484 497 nudge-parameters 0;
#X obj 124 234 random;
#X obj 232 335 f;
#X obj 232 368 +;
#X obj 257 166 random 2;
#X obj 124 275 t f f;
#X obj 124 351 t b f;
#X obj 124 297 *;
#X obj 257 188 sel 0 1;
#X msg 257 280 -1;
#X msg 335 280 1;
#X obj 124 149 t b b b;
#X obj 124 74 r NUDGE!;
#X obj 157 193 r NUDGE-RANGE;
#X obj 247 308 inlet;
#X obj 232 397 outlet;
#X obj 124 96 spigot;
#X obj 185 79 r parameters2-s;
#X connect 0 0 4 0;
#X connect 1 0 2 0;
#X connect 2 0 14 0;
#X connect 3 0 7 0;
#X connect 4 0 6 0;
#X connect 5 0 2 0;
#X connect 5 1 2 1;
#X connect 6 0 5 0;
#X connect 7 0 8 0;
#X connect 7 1 9 0;
#X connect 8 0 6 1;
#X connect 9 0 6 1;
#X connect 10 0 0 0;
#X connect 10 1 1 0;
#X connect 10 2 3 0;
#X connect 11 0 15 0;
#X connect 12 0 0 1;
#X connect 13 0 1 1;
#X connect 15 0 10 0;
#X connect 16 0 15 1;
#X restore 23 44 pd nudge-parameters;
#N canvas 0 22 484 497 nudge-attenuators 0;
#X obj 124 234 random;
#X obj 232 335 f;
#X obj 232 368 +;
#X obj 257 166 random 2;
#X obj 124 275 t f f;
#X obj 124 351 t b f;
#X obj 124 297 *;
#X obj 257 188 sel 0 1;
#X msg 257 280 -1;
#X msg 335 280 1;
#X obj 124 149 t b b b;
#X obj 124 71 r NUDGE!;
#X obj 157 193 r NUDGE-RANGE;
#X obj 247 308 inlet;
#X obj 232 397 outlet;
#X obj 124 93 spigot;
#X obj 201 76 r attenuators2-s;
#X connect 0 0 4 0;
#X connect 1 0 2 0;
#X connect 2 0 14 0;
#X connect 3 0 7 0;
#X connect 4 0 6 0;
#X connect 5 0 2 0;
#X connect 5 1 2 1;
#X connect 6 0 5 0;
#X connect 7 0 8 0;
#X connect 7 1 9 0;
#X connect 8 0 6 1;
#X connect 9 0 6 1;
#X connect 10 0 0 0;
#X connect 10 1 1 0;
#X connect 10 2 3 0;
#X connect 11 0 15 0;
#X connect 12 0 0 1;
#X connect 13 0 1 1;
#X connect 15 0 10 0;
#X connect 16 0 15 1;
#X restore 351 45 pd nudge-attenuators;
#X connect 0 0 4 0;
#X connect 1 0 6 0;
#X connect 2 0 8 0;
#X connect 3 0 14 0;
#X connect 5 0 13 0;
#X connect 7 0 15 0;
#X connect 9 0 10 0;
#X connect 10 0 12 0;
#X connect 11 0 9 0;
#X connect 13 0 1 0;
#X connect 14 0 0 0;
#X connect 15 0 2 0;
#X restore 321 24 pd parameter-nudging-system;
#X obj 394 571 r \$0-select-table;
#X obj 379 631 tabread4~;
#X obj 147 447 / 127;
#X obj 132 636 f;
#X obj 318 358 f 1;
#X obj 318 376 /;
#X obj 318 331 t b f;
#X floatatom 318 420 20 0 0 0 - - - 0;
#X obj 147 469 *;
#X obj 318 439 t b f;
#X obj 318 398 * 2000;
#X obj 132 673 pack f f;
#X msg 147 404 127 \$1;
#X obj 147 426 -;
#X obj 147 375 r \$0-sample-player-pitch-s;
#X floatatom 466 458 5 0 0 0 - - - 0;
#X obj 451 479 *~;
#X obj 147 491 +;
#X obj 451 502 snapshot~;
#X obj 504 455 tgl 15 0 empty empty empty 17 7 0 10 #fcfcfc #000000 #000000 0 1;
#X obj 451 524 t b f;
#X obj 451 355 r~ \$0-PITCH-CV;
#X obj 451 433 *~ -1;
#X obj 504 428 loadbang;
#X obj 310 524 env~;
#X obj 310 546 == 0;
#X obj 310 568 sel 1;
#X msg 310 590 0;
#X obj 105 234 bng 15 250 50 0 \$0-sampler-original-s \$0-sampler-original-r RESET-PITCH 17 7 0 10 #fcfcfc #000000 #000000;
#X obj 320 -75 r \$0-sampler-original-s;
#X msg 320 -53 63.5;
#X obj 320 -31 s \$0-sample-player-pitch-r;
#X obj 380 749 outlet~ LEFT;
#X obj 103 268 cnv 5 5 5 empty empty LEFT 0 0 0 8 #fcfcfc #404040 0;
#X obj 380 730 *~;
#X obj 395 703 vline~;
#X msg 132 696 1 0 \, \$2 \$1 1;
#X msg 395 676 0 1 \, 0.5 10 1;
#X text 407 660 ANTI POP EG;
#X obj 108 198 hsl 128 15 0 127 0 1 \$0-sample-player-pitch-s \$0-sample-player-pitch-r PITCH 133 7 0 10 #90d4b0 #000000 #000000 6400 1;
#X obj 715 -21 r \$0-sample-player-pitch-cv-att-s;
#X obj 715 1 / 127;
#X obj 715 23 pack 0 50;
#X obj 715 45 line~;
#X obj 700 70 *~;
#N canvas 632 64 749 752 external-messages 0;
#X floatatom 43 604 5 0 0 0 - - - 0;
#X obj 185 328 spigot;
#X obj 218 288 tgl 15 0 empty empty empty 17 7 0 10 #fcfcfc #000000 #000000 0 1;
#X obj 254 272 ==;
#X obj 269 248 f \$1;
#X obj 269 224 loadbang;
#X msg 185 202 \$1 \$2;
#X msg 185 156 symbol \$1;
#X obj 185 180 pack s f;
#X obj 43 583 f;
#X obj 43 531 t b f;
#X obj 43 554 spigot;
#X obj 185 62 unpack s f f;
#X symbolatom 185 94 10 0 0 0 - - - 0;
#X obj 218 308 t f f;
#X obj 245 332 s \$0-msg-spigot;
#X obj 91 538 r \$0-msg-spigot;
#X floatatom 223 594 5 0 0 0 - - - 0;
#X obj 223 573 f;
#X obj 223 521 t b f;
#X obj 223 544 spigot;
#X obj 271 528 r \$0-msg-spigot;
#X floatatom 387 639 5 0 0 0 - - - 0;
#X obj 387 618 f;
#X obj 387 566 t b f;
#X obj 387 589 spigot;
#X obj 435 573 r \$0-msg-spigot;
#X floatatom 424 527 5 0 0 0 - - - 0;
#X obj 424 506 f;
#X obj 424 454 t b f;
#X obj 424 477 spigot;
#X obj 472 461 r \$0-msg-spigot;
#X floatatom 572 635 5 0 0 0 - - - 0;
#X obj 572 614 f;
#X obj 572 562 t b f;
#X obj 572 585 spigot;
#X obj 620 569 r \$0-msg-spigot;
#X obj 185 14 r sampler;
#X floatatom 588 486 5 0 0 0 - - - 0;
#X obj 588 465 f;
#X obj 588 413 t b f;
#X obj 588 436 spigot;
#X obj 636 420 r \$0-msg-spigot;
#X obj 43 624 s \$0-sample-player-file-r;
#X obj 223 614 s \$0-sample-player-pitch-r;
#X obj 387 659 s \$0-sample-player-pitch-cv-att-r;
#X obj 424 547 s \$0-sample-player-loop-r;
#X obj 185 380 route FILE PITCH P.CV LOOP ORIGINAL TRIG;
#X obj 572 655 s \$0-sampler-original-r;
#X obj 588 506 s \$0-sampler-triggui-r;
#X connect 0 0 43 0;
#X connect 1 0 47 0;
#X connect 2 0 14 0;
#X connect 3 0 2 0;
#X connect 4 0 3 1;
#X connect 5 0 4 0;
#X connect 6 0 1 0;
#X connect 7 0 8 0;
#X connect 8 0 6 0;
#X connect 9 0 0 0;
#X connect 10 0 11 0;
#X connect 10 1 9 1;
#X connect 11 0 9 0;
#X connect 12 0 13 0;
#X connect 12 1 8 1;
#X connect 12 2 3 0;
#X connect 13 0 7 0;
#X connect 14 0 1 1;
#X connect 14 1 15 0;
#X connect 16 0 11 1;
#X connect 17 0 44 0;
#X connect 18 0 17 0;
#X connect 19 0 20 0;
#X connect 19 1 18 1;
#X connect 20 0 18 0;
#X connect 21 0 20 1;
#X connect 22 0 45 0;
#X connect 23 0 22 0;
#X connect 24 0 25 0;
#X connect 24 1 23 1;
#X connect 25 0 23 0;
#X connect 26 0 25 1;
#X connect 27 0 46 0;
#X connect 28 0 27 0;
#X connect 29 0 30 0;
#X connect 29 1 28 1;
#X connect 30 0 28 0;
#X connect 31 0 30 1;
#X connect 32 0 48 0;
#X connect 33 0 32 0;
#X connect 34 0 35 0;
#X connect 34 1 33 1;
#X connect 35 0 33 0;
#X connect 36 0 35 1;
#X connect 37 0 12 0;
#X connect 38 0 49 0;
#X connect 39 0 38 0;
#X connect 40 0 41 0;
#X connect 40 1 39 1;
#X connect 41 0 39 0;
#X connect 42 0 41 1;
#X connect 47 0 10 0;
#X connect 47 1 19 0;
#X connect 47 2 24 0;
#X connect 47 3 29 0;
#X connect 47 4 34 0;
#X connect 47 5 40 0;
#X restore 321 -5 pd external-messages;
#X obj 38 71 bng 15 250 50 0 \$0-sampler-triggui-s \$0-sampler-triggui-r empty 17 7 0 10 #fcfcfc #000000 #000000;
#X obj 451 406 *~ 1;
#X obj 132 584 delay 1;
#X obj 504 475 metro 1;
#X obj 108 168 hsl 128 15 0 127 0 1 \$0-sample-player-bank-s \$0-sample-player-bank-r BANK 133 7 0 10 #fcfcfc #000000 #000000 3000 1;
#X msg 197 582 1;
#X obj 208 606 tabread info1;
#X msg 227 582 set info\$1;
#X floatatom 227 561 5 0 0 0 - - - 0;
#X obj 209 489 r \$0-select-table;
#X obj 209 510 t b f;
#X msg 379 609 set sample\$1;
#X obj 318 309 tabread info1;
#X msg 348 285 set info\$1;
#X floatatom 348 264 5 0 0 0 - - - 0;
#X obj 318 222 r \$0-select-table;
#X obj 318 243 t b f;
#X msg 318 285 2;
#X symbolatom 140 138 16 0 0 0 BANK: \$0-sampler-symbol-bank-gui-r - 0;
#X obj 105 62 t b b b b;
#X obj 379 590 f;
#X connect 3 0 68 0;
#X connect 4 0 8 0;
#X connect 7 0 25 0;
#X connect 8 0 89 0;
#X connect 14 0 15 0;
#X connect 18 0 20 0;
#X connect 20 0 21 0;
#X connect 21 0 19 0;
#X connect 24 0 90 1;
#X connect 25 0 58 0;
#X connect 26 0 32 0;
#X connect 27 0 35 0;
#X connect 28 0 29 0;
#X connect 29 0 34 0;
#X connect 30 0 28 0;
#X connect 30 1 29 1;
#X connect 31 0 33 0;
#X connect 32 0 39 0;
#X connect 32 0 41 0;
#X connect 33 0 32 0;
#X connect 33 1 32 1;
#X connect 34 0 31 0;
#X connect 35 0 60 0;
#X connect 36 0 37 0;
#X connect 37 0 26 0;
#X connect 38 0 36 0;
#X connect 39 0 40 1;
#X connect 40 0 42 0;
#X connect 41 0 27 1;
#X connect 42 0 44 0;
#X connect 43 0 73 0;
#X connect 44 0 41 0;
#X connect 44 1 41 1;
#X connect 45 0 48 0;
#X connect 45 0 71 0;
#X connect 46 0 40 0;
#X connect 47 0 43 0;
#X connect 48 0 49 0;
#X connect 49 0 50 0;
#X connect 50 0 51 0;
#X connect 51 0 41 1;
#X connect 53 0 54 0;
#X connect 54 0 55 0;
#X connect 58 0 56 0;
#X connect 59 0 58 1;
#X connect 60 0 7 0;
#X connect 61 0 59 0;
#X connect 64 0 65 0;
#X connect 65 0 66 0;
#X connect 66 0 67 0;
#X connect 67 0 68 1;
#X connect 68 0 2 0;
#X connect 70 0 6 0;
#X connect 70 0 89 0;
#X connect 71 0 46 0;
#X connect 72 0 27 0;
#X connect 73 0 42 0;
#X connect 75 0 76 0;
#X connect 76 0 35 1;
#X connect 77 0 76 0;
#X connect 78 0 77 0;
#X connect 79 0 80 0;
#X connect 80 0 75 0;
#X connect 80 1 78 0;
#X connect 81 0 25 0;
#X connect 82 0 30 0;
#X connect 83 0 82 0;
#X connect 84 0 83 0;
#X connect 85 0 86 0;
#X connect 86 0 87 0;
#X connect 86 1 84 0;
#X connect 87 0 82 0;
#X connect 89 0 6 0;
#X connect 89 1 72 0;
#X connect 89 2 90 0;
#X connect 89 3 61 0;
#X connect 90 0 81 0;
#X coords 0 -1 1 1 175 175 2 100 100;
