#N canvas 100 45 1340 769 10;
#X obj 108 141 hsl 128 15 0 127 0 1 \$0-sample-player-file-s \$0-sample-player-file-r FILE 133 7 0 10 #fcfcfc #000000 #000000 6500 1;
#X obj 846 107 hsl 128 15 0 127 0 1 \$0-sample-player-pitch-cv-att-s \$0-sample-player-pitch-cv-att-r P.CV 133 7 0 10 #9898dc #000000 #000000 6500 1;
#X obj 700 113 s~ \$0-PITCH-CV;
#X obj 700 -50 inlet~ PITCH-CV-IN;
#X obj 105 115 bng 15 50 50 0 empty empty empty 17 7 0 10 #fcfcfc #dc4c90 #000000;
#X obj 135 124 cnv 5 5 5 empty empty DIET-SAMPLER 0 0 0 12 #fcfcfc #404040 0;
#X obj 147 109 cnv 5 5 5 empty empty PITCH 0 0 0 8 #fcfcfc #404040 0;
#X obj 252 108 cnv 5 5 5 empty empty LOOP 0 0 0 8 #fcfcfc #dc4c90 0;
#X obj 223 124 cnv 5 5 5 empty \$0-instance-num 22 0 0 0 12 #fcfcfc #404040 0;
#X obj 938 -45 inlet~ FILE-CV;
#X obj 938 -23 s~ \$0-sampler-file-cv;
#X obj 207 109 cnv 5 5 5 empty empty FILE 0 0 0 8 #fcfcfc #404040 0;
#N canvas 100 25 771 725 state-saving-multiple-instances 0;
#X obj 164 26 loadbang;
#X obj 290 479 textfile;
#X msg 571 462 rewind;
#X msg 528 462 bang;
#X obj 88 702 textfile;
#X obj 528 421 t b b;
#X obj 88 355 f;
#X obj 101 578 f;
#X obj 27 402 t b b b;
#X msg 163 573 clear;
#X obj 230 215 outlet;
#X text 272 217 INSTANCE NUMBER;
#X obj 191 180 t f f f;
#X obj 191 144 f \$1;
#X obj 164 59 t b b;
#X obj 27 378 bng 15 250 50 0 empty empty empty 17 7 0 10 #fcfcfc #000000 #000000;
#X obj 27 234 r SAVE-S;
#X msg 101 650 write statesave/\$1-sampler-ss.txt;
#X msg 290 454 read statesave/\$1-sampler-ss.txt;
#X obj 109 283 r \$0-sample-player-pitch-s;
#X obj 313 600 s \$0-sample-player-pitch-r;
#X obj 103 245 r \$0-sample-player-file-s;
#X obj 290 618 s \$0-sample-player-file-r;
#X obj 128 311 r \$0-sample-player-loop-s;
#X obj 336 582 s \$0-sample-player-loop-r;
#X obj 148 341 r \$0-sample-player-pitch-cv-att-s;
#X obj 359 564 s \$0-sample-player-pitch-cv-att-r;
#X obj 222 45 r \$0-reload!;
#X obj 88 398 pack f f f f f;
#X obj 170 365 r \$0-sample-player-bank-s;
#X msg 88 436 set \$1 \$2 \$3 \$4 \$5;
#X obj 290 501 unpack f f f f f;
#X obj 383 545 s \$0-sample-player-bank-r;
#X connect 0 0 14 0;
#X connect 1 0 31 0;
#X connect 2 0 1 0;
#X connect 3 0 1 0;
#X connect 5 0 3 0;
#X connect 5 1 2 0;
#X connect 6 0 28 0;
#X connect 7 0 17 0;
#X connect 8 0 7 0;
#X connect 8 1 6 0;
#X connect 8 2 9 0;
#X connect 9 0 4 0;
#X connect 12 0 7 1;
#X connect 12 1 18 0;
#X connect 12 2 10 0;
#X connect 13 0 12 0;
#X connect 14 0 5 0;
#X connect 14 1 13 0;
#X connect 15 0 8 0;
#X connect 16 0 15 0;
#X connect 17 0 4 0;
#X connect 18 0 1 0;
#X connect 19 0 28 1;
#X connect 21 0 6 1;
#X connect 23 0 28 2;
#X connect 25 0 28 3;
#X connect 27 0 14 0;
#X connect 28 0 30 0;
#X connect 29 0 28 4;
#X connect 30 0 4 0;
#X connect 31 0 22 0;
#X connect 31 1 20 0;
#X connect 31 2 24 0;
#X connect 31 3 26 0;
#X connect 31 4 32 0;
#X restore 319 73 pd state-saving-multiple-instances;
#X obj 319 146 s \$0-instance-num;
#X obj 319 98 makefilename %d;
#X msg 319 123 label \$1;
#N canvas 81 22 1117 745 state-saving-via-preset-manager-module 0;
#X obj 477 349 textfile;
#X msg 755 332 rewind;
#X msg 712 332 bang;
#X obj 243 690 textfile;
#X obj 712 293 t b b;
#X obj 244 356 f;
#X obj 257 579 f;
#X obj 190 474 t b b b;
#X msg 373 621 clear;
#X obj 244 180 delay 5;
#X obj 190 529 delay 10;
#X msg 190 314 bang;
#X obj 190 155 r STORE-S!;
#X obj 477 250 f;
#X obj 450 207 t b b;
#X obj 465 171 t b f;
#X obj 522 268 f \$1;
#X obj 477 295 pack f f;
#X obj 522 218 loadbang;
#X obj 257 609 pack f f;
#X obj 302 562 loadbang;
#X obj 302 584 f \$1;
#X obj 465 122 r preset-manager-scan;
#X obj 272 540 r preset-manager-store-slot;
#X obj 465 144 i;
#X msg 256 650 write statesave/\$1-\$2-sampler-ss.txt;
#X msg 477 324 read statesave/\$1-\$2-sampler-ss.txt;
#X obj 290 352 r \$0-sample-player-loop-s;
#X obj 531 518 s \$0-sample-player-loop-r;
#X obj 259 308 r \$0-sample-player-file-s;
#X obj 477 619 s \$0-sample-player-file-r;
#X obj 267 330 r \$0-sample-player-pitch-s;
#X obj 504 567 s \$0-sample-player-pitch-r;
#X obj 244 423 pack f f f f;
#X msg 243 490 set \$1 \$2 \$3 \$4;
#X obj 326 399 r \$0-sample-player-pitch-cv-att-s;
#X obj 477 371 unpack f f f f;
#X obj 558 491 s \$0-sample-player-pitch-cv-att-r;
#N canvas 0 22 1069 747 morph-attenuators 0;
#X obj 176 94 inlet;
#X obj 176 236 pack f f;
#X obj 176 261 line;
#X obj 209 117 r preset-manager-morph-s;
#X msg 72 244 stop;
#X obj 72 214 r STOP-MORPH!;
#X obj 209 206 spigot;
#X obj 398 137 t f f;
#X obj 455 154 == 0;
#X obj 221 176 f;
#X floatatom 455 222 5 0 0 0 - - - 0;
#X obj 398 159 t b f;
#X floatatom 425 192 5 0 0 0 - - - 0;
#X obj 209 139 t f f;
#X obj 398 102 r attenuators-s;
#X obj 176 288 outlet;
#X connect 0 0 1 0;
#X connect 1 0 2 0;
#X connect 2 0 15 0;
#X connect 3 0 13 0;
#X connect 4 0 2 0;
#X connect 5 0 4 0;
#X connect 6 0 1 1;
#X connect 7 0 11 0;
#X connect 7 1 8 0;
#X connect 8 0 10 0;
#X connect 9 0 6 0;
#X connect 10 0 1 1;
#X connect 11 0 9 0;
#X connect 11 1 12 0;
#X connect 12 0 6 1;
#X connect 13 0 6 0;
#X connect 13 1 9 1;
#X connect 14 0 7 0;
#X restore 558 468 pd morph-attenuators;
#N canvas 0 22 1069 747 morph-parameters 0;
#X obj 176 94 inlet;
#X obj 176 236 pack f f;
#X obj 176 261 line;
#X obj 209 117 r preset-manager-morph-s;
#X msg 72 244 stop;
#X obj 72 214 r STOP-MORPH!;
#X obj 209 206 spigot;
#X obj 398 137 t f f;
#X obj 455 154 == 0;
#X obj 221 176 f;
#X floatatom 455 222 5 0 0 0 - - - 0;
#X obj 398 159 t b f;
#X floatatom 425 192 5 0 0 0 - - - 0;
#X obj 209 139 t f f;
#X obj 398 102 r parameters-s;
#X obj 176 288 outlet;
#X connect 0 0 1 0;
#X connect 1 0 2 0;
#X connect 2 0 15 0;
#X connect 3 0 13 0;
#X connect 4 0 2 0;
#X connect 5 0 4 0;
#X connect 6 0 1 1;
#X connect 7 0 11 0;
#X connect 7 1 8 0;
#X connect 8 0 10 0;
#X connect 9 0 6 0;
#X connect 10 0 1 1;
#X connect 11 0 9 0;
#X connect 11 1 12 0;
#X connect 12 0 6 1;
#X connect 13 0 6 0;
#X connect 13 1 9 1;
#X connect 14 0 7 0;
#X restore 477 594 pd morph-parameters;
#N canvas 0 22 1069 747 morph-frequencies 0;
#X obj 176 94 inlet;
#X obj 176 236 pack f f;
#X obj 176 261 line;
#X obj 209 117 r preset-manager-morph-s;
#X msg 72 244 stop;
#X obj 72 214 r STOP-MORPH!;
#X obj 398 102 r frequencies-s;
#X obj 209 206 spigot;
#X obj 398 137 t f f;
#X obj 455 154 == 0;
#X obj 221 176 f;
#X floatatom 455 222 5 0 0 0 - - - 0;
#X obj 398 159 t b f;
#X floatatom 425 192 5 0 0 0 - - - 0;
#X obj 209 139 t f f;
#X obj 176 283 outlet;
#X connect 0 0 1 0;
#X connect 1 0 2 0;
#X connect 2 0 15 0;
#X connect 3 0 14 0;
#X connect 4 0 2 0;
#X connect 5 0 4 0;
#X connect 6 0 8 0;
#X connect 7 0 1 1;
#X connect 8 0 12 0;
#X connect 8 1 9 0;
#X connect 9 0 11 0;
#X connect 10 0 7 0;
#X connect 11 0 1 1;
#X connect 12 0 10 0;
#X connect 12 1 13 0;
#X connect 13 0 7 1;
#X connect 14 0 7 0;
#X connect 14 1 10 1;
#X restore 504 542 pd morph-frequencies;
#X connect 0 0 36 0;
#X connect 1 0 0 0;
#X connect 2 0 0 0;
#X connect 4 0 2 0;
#X connect 4 1 1 0;
#X connect 5 0 33 0;
#X connect 6 0 19 0;
#X connect 7 0 10 0;
#X connect 7 1 9 0;
#X connect 7 2 8 0;
#X connect 8 0 3 0;
#X connect 9 0 5 0;
#X connect 10 0 6 0;
#X connect 11 0 7 0;
#X connect 12 0 11 0;
#X connect 13 0 17 0;
#X connect 14 0 4 0;
#X connect 14 1 13 0;
#X connect 15 0 14 0;
#X connect 15 1 13 1;
#X connect 16 0 17 1;
#X connect 17 0 26 0;
#X connect 18 0 16 0;
#X connect 19 0 25 0;
#X connect 20 0 21 0;
#X connect 21 0 19 1;
#X connect 22 0 24 0;
#X connect 23 0 6 1;
#X connect 24 0 15 0;
#X connect 25 0 3 0;
#X connect 26 0 0 0;
#X connect 27 0 33 2;
#X connect 29 0 5 1;
#X connect 31 0 33 1;
#X connect 33 0 34 0;
#X connect 34 0 3 0;
#X connect 35 0 33 3;
#X connect 36 0 39 0;
#X connect 36 1 40 0;
#X connect 36 2 28 0;
#X connect 36 3 38 0;
#X connect 38 0 37 0;
#X connect 39 0 30 0;
#X connect 40 0 32 0;
#X restore 320 49 pd state-saving-via-preset-manager-module;
#N canvas 297 27 563 235 parameter-nudging-system 0;
#X obj 23 67 clip 0 127;
#X obj 182 67 clip 0 127;
#X obj 351 69 clip 0 127;
#X obj 23 22 r \$0-sample-player-file-s;
#X obj 23 95 s \$0-sample-player-file-r;
#X obj 182 22 r \$0-sample-player-pitch-s;
#X obj 182 95 s \$0-sample-player-pitch-r;
#X obj 351 22 r \$0-sample-player-loop-s;
#X obj 351 95 s \$0-sample-player-loop-r;
#N canvas 0 22 484 497 param-nudge 0;
#X obj 124 234 random;
#X obj 232 335 f;
#X obj 232 368 +;
#X obj 257 166 random 2;
#X obj 124 275 t f f;
#X obj 124 351 t b f;
#X obj 124 297 *;
#X obj 257 188 sel 0 1;
#X msg 257 280 -1;
#X msg 335 280 1;
#X obj 124 149 t b b b;
#X obj 124 123 r NUDGE!;
#X obj 157 193 r NUDGE-RANGE;
#X obj 247 308 inlet;
#X obj 232 397 outlet;
#X floatatom 316 396 5 0 0 0 - - - 0;
#X connect 0 0 4 0;
#X connect 1 0 2 0;
#X connect 2 0 14 0;
#X connect 2 0 15 0;
#X connect 3 0 7 0;
#X connect 4 0 6 0;
#X connect 5 0 2 0;
#X connect 5 1 2 1;
#X connect 6 0 5 0;
#X connect 7 0 8 0;
#X connect 7 1 9 0;
#X connect 8 0 6 1;
#X connect 9 0 6 1;
#X connect 10 0 0 0;
#X connect 10 1 1 0;
#X connect 10 2 3 0;
#X connect 11 0 10 0;
#X connect 12 0 0 1;
#X connect 13 0 1 1;
#X restore 23 144 pd param-nudge;
#X obj 23 166 clip 0 127;
#X obj 23 121 r \$0-sample-player-pitch-cv-att-s;
#X obj 23 194 s \$0-sample-player-pitch-cv-att-r;
#N canvas 0 22 484 497 nudge-freq 0;
#X obj 124 234 random;
#X obj 232 335 f;
#X obj 232 368 +;
#X obj 257 166 random 2;
#X obj 124 275 t f f;
#X obj 124 351 t b f;
#X obj 124 297 *;
#X obj 257 188 sel 0 1;
#X msg 257 280 -1;
#X msg 335 280 1;
#X obj 124 149 t b b b;
#X obj 124 51 r NUDGE!;
#X obj 157 193 r NUDGE-RANGE;
#X obj 247 308 inlet;
#X obj 232 397 outlet;
#X obj 124 73 spigot;
#X obj 185 56 r frequencies2-s;
#X connect 0 0 4 0;
#X connect 1 0 2 0;
#X connect 2 0 14 0;
#X connect 3 0 7 0;
#X connect 4 0 6 0;
#X connect 5 0 2 0;
#X connect 5 1 2 1;
#X connect 6 0 5 0;
#X connect 7 0 8 0;
#X connect 7 1 9 0;
#X connect 8 0 6 1;
#X connect 9 0 6 1;
#X connect 10 0 0 0;
#X connect 10 1 1 0;
#X connect 10 2 3 0;
#X connect 11 0 15 0;
#X connect 12 0 0 1;
#X connect 13 0 1 1;
#X connect 15 0 10 0;
#X connect 16 0 15 1;
#X restore 182 44 pd nudge-freq;
#N canvas 0 22 484 497 nudge-parameters 0;
#X obj 124 234 random;
#X obj 232 335 f;
#X obj 232 368 +;
#X obj 257 166 random 2;
#X obj 124 275 t f f;
#X obj 124 351 t b f;
#X obj 124 297 *;
#X obj 257 188 sel 0 1;
#X msg 257 280 -1;
#X msg 335 280 1;
#X obj 124 149 t b b b;
#X obj 124 74 r NUDGE!;
#X obj 157 193 r NUDGE-RANGE;
#X obj 247 308 inlet;
#X obj 232 397 outlet;
#X obj 124 96 spigot;
#X obj 185 79 r parameters2-s;
#X connect 0 0 4 0;
#X connect 1 0 2 0;
#X connect 2 0 14 0;
#X connect 3 0 7 0;
#X connect 4 0 6 0;
#X connect 5 0 2 0;
#X connect 5 1 2 1;
#X connect 6 0 5 0;
#X connect 7 0 8 0;
#X connect 7 1 9 0;
#X connect 8 0 6 1;
#X connect 9 0 6 1;
#X connect 10 0 0 0;
#X connect 10 1 1 0;
#X connect 10 2 3 0;
#X connect 11 0 15 0;
#X connect 12 0 0 1;
#X connect 13 0 1 1;
#X connect 15 0 10 0;
#X connect 16 0 15 1;
#X restore 23 44 pd nudge-parameters;
#N canvas 0 22 484 497 nudge-attenuators 0;
#X obj 124 234 random;
#X obj 232 335 f;
#X obj 232 368 +;
#X obj 257 166 random 2;
#X obj 124 275 t f f;
#X obj 124 351 t b f;
#X obj 124 297 *;
#X obj 257 188 sel 0 1;
#X msg 257 280 -1;
#X msg 335 280 1;
#X obj 124 149 t b b b;
#X obj 124 71 r NUDGE!;
#X obj 157 193 r NUDGE-RANGE;
#X obj 247 308 inlet;
#X obj 232 397 outlet;
#X obj 124 93 spigot;
#X obj 201 76 r attenuators2-s;
#X connect 0 0 4 0;
#X connect 1 0 2 0;
#X connect 2 0 14 0;
#X connect 3 0 7 0;
#X connect 4 0 6 0;
#X connect 5 0 2 0;
#X connect 5 1 2 1;
#X connect 6 0 5 0;
#X connect 7 0 8 0;
#X connect 7 1 9 0;
#X connect 8 0 6 1;
#X connect 9 0 6 1;
#X connect 10 0 0 0;
#X connect 10 1 1 0;
#X connect 10 2 3 0;
#X connect 11 0 15 0;
#X connect 12 0 0 1;
#X connect 13 0 1 1;
#X connect 15 0 10 0;
#X connect 16 0 15 1;
#X restore 351 45 pd nudge-attenuators;
#X connect 0 0 4 0;
#X connect 1 0 6 0;
#X connect 2 0 8 0;
#X connect 3 0 14 0;
#X connect 5 0 13 0;
#X connect 7 0 15 0;
#X connect 9 0 10 0;
#X connect 10 0 12 0;
#X connect 11 0 9 0;
#X connect 13 0 1 0;
#X connect 14 0 0 0;
#X connect 15 0 2 0;
#X restore 321 24 pd parameter-nudging-system;
#X obj 105 234 bng 15 250 50 0 \$0-sampler-original-s \$0-sampler-original-r RESET-PITCH 17 7 0 10 #fcfcfc #000000 #000000;
#X obj 320 -75 r \$0-sampler-original-s;
#X msg 320 -53 63.5;
#X obj 320 -31 s \$0-sample-player-pitch-r;
#X obj 103 268 cnv 5 5 5 empty empty OUT 0 0 0 8 #fcfcfc #404040 0;
#X obj 846 92 hsl 128 15 0 127 0 1 \$0-sample-player-pitch-s \$0-sample-player-pitch-r PITCH 133 7 0 10 #90d4b0 #000000 #000000 6350 1;
#X obj 715 -21 r \$0-sample-player-pitch-cv-att-s;
#X obj 715 1 / 127;
#X obj 715 23 pack 0 50;
#X obj 715 45 line~;
#X obj 700 70 *~;
#N canvas 632 64 749 752 external-messages 0;
#X floatatom 43 604 5 0 0 0 - - - 0;
#X obj 185 328 spigot;
#X obj 218 288 tgl 15 0 empty empty empty 17 7 0 10 #fcfcfc #000000 #000000 0 1;
#X obj 254 272 ==;
#X obj 269 248 f \$1;
#X obj 269 224 loadbang;
#X msg 185 202 \$1 \$2;
#X msg 185 156 symbol \$1;
#X obj 185 180 pack s f;
#X obj 43 583 f;
#X obj 43 531 t b f;
#X obj 43 554 spigot;
#X obj 185 62 unpack s f f;
#X symbolatom 185 94 10 0 0 0 - - - 0;
#X obj 218 308 t f f;
#X obj 245 332 s \$0-msg-spigot;
#X obj 91 538 r \$0-msg-spigot;
#X floatatom 223 594 5 0 0 0 - - - 0;
#X obj 223 573 f;
#X obj 223 521 t b f;
#X obj 223 544 spigot;
#X obj 271 528 r \$0-msg-spigot;
#X floatatom 387 639 5 0 0 0 - - - 0;
#X obj 387 618 f;
#X obj 387 566 t b f;
#X obj 387 589 spigot;
#X obj 435 573 r \$0-msg-spigot;
#X floatatom 424 527 5 0 0 0 - - - 0;
#X obj 424 506 f;
#X obj 424 454 t b f;
#X obj 424 477 spigot;
#X obj 472 461 r \$0-msg-spigot;
#X floatatom 572 635 5 0 0 0 - - - 0;
#X obj 572 614 f;
#X obj 572 562 t b f;
#X obj 572 585 spigot;
#X obj 620 569 r \$0-msg-spigot;
#X obj 185 14 r sampler;
#X floatatom 588 486 5 0 0 0 - - - 0;
#X obj 588 465 f;
#X obj 588 413 t b f;
#X obj 588 436 spigot;
#X obj 636 420 r \$0-msg-spigot;
#X obj 43 624 s \$0-sample-player-file-r;
#X obj 223 614 s \$0-sample-player-pitch-r;
#X obj 387 659 s \$0-sample-player-pitch-cv-att-r;
#X obj 424 547 s \$0-sample-player-loop-r;
#X obj 185 380 route FILE PITCH P.CV LOOP ORIGINAL TRIG;
#X obj 572 655 s \$0-sampler-original-r;
#X obj 588 506 s \$0-sampler-triggui-r;
#X connect 0 0 43 0;
#X connect 1 0 47 0;
#X connect 2 0 14 0;
#X connect 3 0 2 0;
#X connect 4 0 3 1;
#X connect 5 0 4 0;
#X connect 6 0 1 0;
#X connect 7 0 8 0;
#X connect 8 0 6 0;
#X connect 9 0 0 0;
#X connect 10 0 11 0;
#X connect 10 1 9 1;
#X connect 11 0 9 0;
#X connect 12 0 13 0;
#X connect 12 1 8 1;
#X connect 12 2 3 0;
#X connect 13 0 7 0;
#X connect 14 0 1 1;
#X connect 14 1 15 0;
#X connect 16 0 11 1;
#X connect 17 0 44 0;
#X connect 18 0 17 0;
#X connect 19 0 20 0;
#X connect 19 1 18 1;
#X connect 20 0 18 0;
#X connect 21 0 20 1;
#X connect 22 0 45 0;
#X connect 23 0 22 0;
#X connect 24 0 25 0;
#X connect 24 1 23 1;
#X connect 25 0 23 0;
#X connect 26 0 25 1;
#X connect 27 0 46 0;
#X connect 28 0 27 0;
#X connect 29 0 30 0;
#X connect 29 1 28 1;
#X connect 30 0 28 0;
#X connect 31 0 30 1;
#X connect 32 0 48 0;
#X connect 33 0 32 0;
#X connect 34 0 35 0;
#X connect 34 1 33 1;
#X connect 35 0 33 0;
#X connect 36 0 35 1;
#X connect 37 0 12 0;
#X connect 38 0 49 0;
#X connect 39 0 38 0;
#X connect 40 0 41 0;
#X connect 40 1 39 1;
#X connect 41 0 39 0;
#X connect 42 0 41 1;
#X connect 47 0 10 0;
#X connect 47 1 19 0;
#X connect 47 2 24 0;
#X connect 47 3 29 0;
#X connect 47 4 34 0;
#X connect 47 5 40 0;
#X restore 321 -5 pd external-messages;
#X obj 102 19 bng 15 250 50 0 \$0-sampler-triggui-s \$0-sampler-triggui-r empty 17 7 0 10 #fcfcfc #000000 #000000;
#X obj 318 210 r \$0-select-table;
#X obj 105 62 t b b b b;
#X obj 102 -101 inlet;
#X obj 102 -79 stripnote;
#X obj 153 -57 / 127;
#X obj 709 304 line~;
#X obj 153 -34 pack 0 2;
#X obj 700 398 outlet~;
#X text 526 -102 Vers 2 - removed audio modulation - midi-compability;
#X obj 700 356 *~;
#X obj 103 109 cnv 5 5 5 empty empty IN 0 0 0 8 #fcfcfc #ff8300 0;
#X text 734 356 Velocity;
#X obj 519 152 text get library, f 22;
#X floatatom 684 193 5 0 0 0 - - - 0;
#X obj 519 174 unpack symbol f;
#X listbox 519 209 19 0 0 0 - - - 0;
#X msg 56 -175 64 100;
#X floatatom 231 -79 5 0 0 0 - - - 0;
#X msg 41 694 1;
#X floatatom 152 514 5 0 0 1 samp \$0-display \$0-window 0;
#X floatatom 247 514 4 1 1000 1 % \$0-speedpercent-r \$0-speedpercent 0;
#X floatatom 152 532 5 0 0 1 ms \$0-ms \$0-window-milliseconds 0;
#X obj 684 1014 *;
#X obj 699 990 r \$0-samplelength;
#X obj 37 600 s \$0-pos;
#X obj 683 965 r \$0-pos;
#X obj 685 1039 s \$0-newpos;
#X obj 860 1002 *;
#X obj 872 967 r \$0-samplelength;
#X obj 855 923 r \$0-duration;
#X obj 860 1029 s \$0-durational;
#X obj 856 946 expr pow($f1 \, 2);
#X obj 994 949 s \$0-speed;
#X obj 829 975 t b f;
#X obj 81 552 hsl 128 13 0 1 0 0 \$0-duration \$0-duration-r duration -2 -6 0 10 #fcfcfc #000000 #000000 0 1;
#X obj 985 380 s \$0-winsize-r;
#X obj 918 634 r \$0-winsize;
#X obj 918 719 s \$0-display;
#X obj 990 898 / 100;
#X obj 991 876 r \$0-speedpercent;
#X floatatom 247 532 4 1 1000 1 % \$0-pitchpercent-r \$0-pitchpercent 0;
#X text 214 514 speed;
#X text 215 532 pitch;
#X obj 844 725 / 44.1;
#X obj 840 703 r \$0-window;
#X obj 844 747 s \$0-ms;
#X obj 991 998 / 100;
#X obj 992 976 r \$0-pitchpercent;
#X obj 992 1018 s \$0-pitch;
#X obj 247 551 bng 12 250 50 0 \$0-reset rtiyirtueyiiiiiiiiiip reset -30 7 0 10 #fcfcfc #000000 #000000;
#X obj 679 837 r \$0-reset;
#X msg 679 862 100;
#X obj 678 886 t f f;
#X obj 703 912 s \$0-speedpercent-r;
#X obj 680 933 s \$0-pitchpercent-r;
#X msg 1077 356 bang;
#X obj 1081 380 s \$0-reset;
#X obj 1055 293 loadbang;
#X obj 1153 379 s \$0-duration-r;
#X obj 1251 379 s \$0-direction-r;
#X msg 1251 357 0;
#X obj 1057 312 t b b b b;
#X obj 40 430 clip 0 1;
#X obj 548 999 r \$0-samplelength;
#X obj 549 1019 / 44100;
#X floatatom 132 477 8 0 0 1 sec \$0-timesec ytiuyretiuytreiuyteriurrrrr 0;
#X obj 550 1041 s \$0-timesec;
#N canvas 466 73 715 587 audio-processing 0;
#X obj -17 285 +~ 1;
#X obj -17 314 +~;
#X obj 39 313 samphold~;
#X obj -17 213 samphold~;
#X obj -17 260 *~;
#X obj 392 82 t b f;
#X obj 381 106 /;
#X obj 172 304 -~ 0.5;
#X obj 172 328 *~ 0.5;
#X obj 172 351 cos~;
#X obj 381 130 phasor~;
#X obj 469 175 wrap~;
#X obj 234 278 +~ 1;
#X obj 234 307 +~;
#X obj 307 373 samphold~;
#X obj 234 206 samphold~;
#X obj 234 253 *~;
#X obj 394 321 -~ 0.5;
#X obj 394 345 *~ 0.5;
#X obj 394 368 cos~;
#X text 419 105 loop frequency;
#X text 522 25 second phase signal;
#X text 522 45 out of phase from;
#X text 521 66 first one;
#X text 69 123 copy 1;
#X text 289 91 copy 2;
#X obj 171 138 r~ \$0-phase;
#X obj 391 225 r~ \$0-phase2;
#X obj 391 199 s~ \$0-phase;
#X obj 77 56 * 0.001;
#X obj -18 188 r \$0-window;
#X obj 234 180 r \$0-window;
#X obj 392 57 r \$0-window-sec;
#X obj 77 81 s \$0-window-sec;
#X obj 381 27 r \$0-pitch;
#X obj 80 35 r \$0-window-milliseconds;
#X obj 469 201 s~ \$0-phase2;
#X obj 495 415 vline~;
#X obj 496 259 inlet;
#X obj 171 372 *~;
#X obj 395 389 *~;
#X obj 465 149 +~ 0.5;
#X obj 23 454 *~;
#X obj 23 431 tabread4~ \$0-sampleL;
#X obj 247 473 *~;
#X obj 249 449 tabread4~ \$0-sampleL;
#X obj 174 561 outlet~;
#X obj 174 536 *~;
#X obj 572 94 inlet;
#X obj 291 115 r~ \$0-phase2;
#X obj 311 186 +~;
#X obj 574 199 s~ \$0-force;
#X obj 310 139 r~ \$0-force;
#X obj 90 215 +~;
#X obj 89 168 r~ \$0-force;
#X obj 70 144 r~ \$0-phase;
#X obj 569 121 t b;
#X obj 573 174 vline~;
#X obj 39 266 vline~;
#X obj 39 243 inlet readpoint;
#X msg 571 146 1 \, 0 1;
#X msg 35 380 set \$1;
#X obj 35 357 r \$0-sample-name;
#X msg 273 420 set \$1;
#X obj 273 397 r \$0-sample-name;
#X connect 0 0 1 0;
#X connect 1 0 43 0;
#X connect 2 0 1 1;
#X connect 3 0 4 0;
#X connect 4 0 0 0;
#X connect 5 0 6 0;
#X connect 5 1 6 1;
#X connect 6 0 10 0;
#X connect 7 0 8 0;
#X connect 8 0 9 0;
#X connect 9 0 39 0;
#X connect 9 0 39 1;
#X connect 10 0 28 0;
#X connect 10 0 41 0;
#X connect 11 0 36 0;
#X connect 12 0 13 0;
#X connect 13 0 45 0;
#X connect 14 0 13 1;
#X connect 15 0 16 0;
#X connect 16 0 12 0;
#X connect 17 0 18 0;
#X connect 18 0 19 0;
#X connect 19 0 40 0;
#X connect 19 0 40 1;
#X connect 26 0 4 1;
#X connect 26 0 7 0;
#X connect 27 0 17 0;
#X connect 27 0 16 1;
#X connect 29 0 33 0;
#X connect 30 0 3 0;
#X connect 31 0 15 0;
#X connect 32 0 5 0;
#X connect 34 0 6 0;
#X connect 35 0 29 0;
#X connect 37 0 47 1;
#X connect 38 0 37 0;
#X connect 39 0 42 1;
#X connect 40 0 44 1;
#X connect 41 0 11 0;
#X connect 42 0 47 0;
#X connect 43 0 42 0;
#X connect 44 0 47 0;
#X connect 45 0 44 0;
#X connect 47 0 46 0;
#X connect 48 0 56 0;
#X connect 49 0 50 0;
#X connect 50 0 15 1;
#X connect 50 0 14 1;
#X connect 52 0 50 1;
#X connect 53 0 3 1;
#X connect 53 0 2 1;
#X connect 54 0 53 1;
#X connect 55 0 53 0;
#X connect 56 0 60 0;
#X connect 57 0 51 0;
#X connect 58 0 2 0;
#X connect 58 0 14 0;
#X connect 59 0 58 0;
#X connect 60 0 57 0;
#X connect 61 0 43 0;
#X connect 62 0 61 0;
#X connect 63 0 45 0;
#X connect 64 0 63 0;
#X restore 148 1001 pd audio-processing;
#X obj 261 715 t b f;
#X obj 261 741 *;
#X obj 250 648 r \$0-speed;
#X obj 262 669 r \$0-durational;
#X obj 261 693 / 44.1;
#X obj 151 754 r \$0-durational;
#X obj 139 822 +;
#X obj 51 652 r \$0-pos;
#X obj 51 725 *;
#X obj 109 691 r \$0-samplelength;
#X obj 53 869 pack 0 0 0;
#X obj 154 887 delay;
#X msg 153 867 \$3;
#X msg 154 909 0 5;
#X obj 81 527 hsl 60 11 0 1 0 0 \$0-winsize \$0-winsize-r window_size -2 -6 0 10 #fcfcfc #000000 #000000 0 1;
#X obj 988 921 expr 1/$f1;
#X obj 918 676 * 10000;
#X obj 918 656 expr pow($f1 \, 2);
#X msg 39 377 0;
#X msg 263 416 0.25;
#X obj 53 751 t f f f b b;
#X msg 304 418 0.5;
#X msg 336 421 0.625;
#X msg 380 423 0.75;
#X msg 414 422 0.875;
#X msg 1151 357 1;
#X msg 983 359 0;
#X obj 149 1073 outlet~;
#X msg 58 954 \$1 \, \$2 \$3 5;
#X obj 54 891 t a a b b;
#X msg 192 911 1 2;
#X obj 350 941 exp;
#X obj 350 893 *;
#X obj 350 916 +;
#X obj 428 873 log;
#X obj 524 870 log;
#X obj 453 909 t b f;
#X obj 453 931 -;
#X obj 429 844 f 0.1;
#X obj 525 845 f 10;
#X msg 351 966 \$1 5;
#X obj 348 866 r \$0-gain;
#X obj 439 700 loadbang;
#X obj 440 731 t b b;
#X msg 439 756 0.499;
#X obj 441 777 s \$0-gain-r;
#X obj 212 479 hsl 60 11 0 1 0 0 \$0-gain \$0-gain-r gain 2 5 0 10 #fcfcfc #000000 #000000 0 1;
#X obj 152 1032 *~;
#X obj 184 865 delay 5;
#X obj 54 816 pipe 5;
#X obj 152 1052 *~;
#X obj 257 931 vline~;
#X obj 350 989 vline~;
#X msg 250 887 0 5 \, 1 5 10;
#X obj 737 483 inlet;
#X obj 739 556 clip 0 1;
#X obj 794 556 clip 0 1000;
#X obj 868 554 clip 0 1000;
#X obj 946 554 clip 0 1;
#X obj 742 581 s \$0-duration-r;
#X obj 797 601 s \$0-speedpercent-r;
#X obj 922 598 s \$0-pitchpercent-r;
#X obj 948 575 s \$0-winsize-r;
#X obj 738 532 route duration speed pitch window gain;
#X obj 1000 529 clip 0 1;
#X obj 1002 550 s \$0-gain-r;
#X obj 919 697 + 10;
#X msg 275 832 0;
#X obj 222 807 loadbang;
#X obj 291 782 r \$0-samplelength;
#X obj 687 230 s \$0-samplelength;
#X msg 427 291 set \$1;
#X obj 429 329 print;
#X obj 527 363 s \$0-sample-name;
#X obj 427 268 r \$0-sample-name;
#X obj 525 305 symbol;
#X obj 108 162 hsl 128 15 0 127 0 1 empty empty SPEED 133 7 0 10 #fcfcfc #000000 #000000 10900 1;
#X obj 81 365 s \$0-speedpercent-r;
#X obj 81 311 - 63.5;
#X obj 81 332 * 2;
#X obj 212 308 - 63.5;
#X obj 212 329 * 2;
#X obj 108 188 hsl 128 15 0 127 0 1 empty empty PITCH 133 7 0 10 #fcfcfc #000000 #000000 9400 1;
#X obj 212 362 s \$0-pitchpercent-r;
#X obj 521 103 / 12.7;
#X obj 521 124 i;
#X floatatom 594 109 5 0 0 0 - - - 0;
#X obj 108 212 hsl 128 15 0 127 0 1 empty empty SIZE 133 7 0 10 #fcfcfc #000000 #000000 10900 1;
#X obj 327 266 / 127;
#X connect 0 0 183 0;
#X connect 3 0 28 0;
#X connect 9 0 10 0;
#X connect 12 0 14 0;
#X connect 14 0 15 0;
#X connect 15 0 13 0;
#X connect 19 0 20 0;
#X connect 20 0 21 0;
#X connect 24 0 25 0;
#X connect 25 0 26 0;
#X connect 26 0 27 0;
#X connect 27 0 28 1;
#X connect 28 0 2 0;
#X connect 30 0 4 0;
#X connect 30 0 32 0;
#X connect 32 0 4 0;
#X connect 32 0 117 0;
#X connect 32 3 174 0;
#X connect 33 0 34 0;
#X connect 34 0 30 0;
#X connect 34 1 35 0;
#X connect 34 1 48 0;
#X connect 35 0 37 0;
#X connect 36 0 40 1;
#X connect 37 0 36 0;
#X connect 40 0 38 0;
#X connect 43 0 45 0;
#X connect 44 0 169 0;
#X connect 45 0 46 0;
#X connect 45 1 44 0;
#X connect 46 0 174 0;
#X connect 47 0 34 0;
#X connect 53 0 57 0;
#X connect 54 0 53 1;
#X connect 56 0 53 0;
#X connect 58 0 61 0;
#X connect 59 0 58 0;
#X connect 60 0 62 0;
#X connect 62 0 64 0;
#X connect 64 0 58 0;
#X connect 64 1 58 1;
#X connect 67 0 116 0;
#X connect 69 0 114 0;
#X connect 70 0 69 0;
#X connect 74 0 76 0;
#X connect 75 0 74 0;
#X connect 77 0 79 0;
#X connect 78 0 77 0;
#X connect 81 0 82 0;
#X connect 82 0 83 0;
#X connect 83 0 85 0;
#X connect 83 1 84 0;
#X connect 86 0 87 0;
#X connect 88 0 92 0;
#X connect 91 0 90 0;
#X connect 92 0 125 0;
#X connect 92 1 86 0;
#X connect 92 2 124 0;
#X connect 92 3 91 0;
#X connect 93 0 55 0;
#X connect 94 0 95 0;
#X connect 95 0 97 0;
#X connect 98 0 146 0;
#X connect 99 0 100 0;
#X connect 99 1 100 1;
#X connect 100 0 109 2;
#X connect 101 0 100 0;
#X connect 102 0 103 0;
#X connect 103 0 99 0;
#X connect 104 0 105 1;
#X connect 105 0 109 1;
#X connect 106 0 107 0;
#X connect 107 0 119 0;
#X connect 108 0 107 1;
#X connect 109 0 128 0;
#X connect 110 0 112 0;
#X connect 111 0 110 0;
#X connect 112 0 98 1;
#X connect 114 0 63 0;
#X connect 115 0 165 0;
#X connect 116 0 115 0;
#X connect 117 0 93 0;
#X connect 118 0 93 0;
#X connect 119 0 148 0;
#X connect 119 1 105 0;
#X connect 119 4 152 0;
#X connect 120 0 93 0;
#X connect 121 0 93 0;
#X connect 122 0 93 0;
#X connect 123 0 93 0;
#X connect 124 0 89 0;
#X connect 125 0 66 0;
#X connect 127 0 98 0;
#X connect 128 0 127 0;
#X connect 128 1 111 0;
#X connect 128 2 147 0;
#X connect 129 0 98 1;
#X connect 130 0 139 0;
#X connect 131 0 132 0;
#X connect 132 0 130 0;
#X connect 133 0 132 1;
#X connect 133 0 135 0;
#X connect 134 0 136 0;
#X connect 135 0 136 0;
#X connect 135 1 136 1;
#X connect 136 0 131 1;
#X connect 137 0 133 0;
#X connect 138 0 134 0;
#X connect 139 0 151 0;
#X connect 140 0 131 0;
#X connect 141 0 142 0;
#X connect 142 0 143 0;
#X connect 142 1 137 0;
#X connect 142 1 138 0;
#X connect 143 0 144 0;
#X connect 146 0 149 0;
#X connect 147 0 129 0;
#X connect 147 0 98 2;
#X connect 148 0 109 0;
#X connect 149 0 126 0;
#X connect 150 0 149 1;
#X connect 151 0 146 1;
#X connect 152 0 150 0;
#X connect 153 0 162 0;
#X connect 154 0 158 0;
#X connect 155 0 159 0;
#X connect 156 0 160 0;
#X connect 157 0 161 0;
#X connect 162 0 154 0;
#X connect 162 1 155 0;
#X connect 162 2 156 0;
#X connect 162 3 157 0;
#X connect 162 4 163 0;
#X connect 163 0 164 0;
#X connect 165 0 68 0;
#X connect 166 0 150 0;
#X connect 167 0 166 0;
#X connect 168 0 166 0;
#X connect 170 0 171 0;
#X connect 173 0 170 0;
#X connect 174 0 172 0;
#X connect 175 0 177 0;
#X connect 177 0 178 0;
#X connect 178 0 176 0;
#X connect 179 0 180 0;
#X connect 180 0 182 0;
#X connect 181 0 179 0;
#X connect 183 0 184 0;
#X connect 184 0 43 0;
#X connect 184 0 185 0;
#X connect 186 0 187 0;
#X connect 187 0 113 0;
#X coords 0 -1 1 1 175 175 2 100 100;
