#N canvas 59 113 1297 706 10;
#X obj 1028 367 outlet~;
#X obj 125 135 cnv 5 5 5 empty empty FMPERC 0 0 0 12 #fcfcfc #404040 0;
#X obj 171 135 cnv 5 5 5 empty \$0-instance-num 0 0 0 0 12 #fcfcfc #404040 0;
#X obj 103 109 cnv 5 5 5 empty empty IN 0 0 0 8 #fcfcfc #ff8300 0;
#X text 1013 69 TRIGGER IN;
#X obj 1027 149 unpack;
#X obj 1027 178 stripnote;
#X obj 1027 201 bng 16 250 50 0 empty empty empty 0 -8 0 10 #fcfcfc #000000 #000000;
#X obj 1026 97 inlet;
#X obj 1028 332 *~;
#X obj 1079 273 / 127;
#X obj 1079 307 line~;
#X obj 1079 290 pack 0 2;
#X msg -137 644 1;
#X obj 307 357 bng 10 250 50 0 \$0-options-button \$0-options-button-r OPTIONS -45 5 0 10 #fcfcfc #000000 #000000;
#N canvas 63 88 1353 615 dsp 0;
#X obj 350 648 *~;
#X obj 669 203 r \$0-trigger;
#X msg 669 369 0.8 \, 0 \$1;
#X obj 877 187 hsl 128 15 0 1 0 0 empty empty Fmod -2 -8 0 10 #fcfcfc #000000 #000000 0 1;
#X obj 876 285 hsl 128 15 0 1 0 0 empty empty Indice -2 -8 0 10 #fcfcfc #000000 #000000 0 1;
#X obj 880 379 hsl 128 15 0 1 0 0 empty empty Crelease -2 -8 0 10 #fcfcfc #000000 #000000 0 1;
#X obj 690 258 * 2950;
#X obj 690 280 + 50;
#X obj 669 440 line~;
#X obj 669 334 i, f 4;
#X obj 241 394 mtof;
#X obj 363 238 > 0;
#X obj 363 260 sel 1;
#X obj 363 284 s \$0-trigger;
#N canvas 16 204 450 300 polySteal 0;
#X obj 124 19 inlet;
#X obj 225 22 inlet;
#X obj 136 226 outlet;
#X obj 283 227 outlet;
#X obj 210 121 > 0;
#X obj 210 143 sel 1;
#X obj 210 99 i;
#X obj 136 196 i;
#X obj 124 41 t b f;
#X obj 283 196 i;
#X connect 0 0 8 0;
#X connect 1 0 6 1;
#X connect 1 0 9 1;
#X connect 4 0 5 0;
#X connect 5 0 7 0;
#X connect 5 0 9 0;
#X connect 6 0 4 0;
#X connect 7 0 2 0;
#X connect 8 0 6 0;
#X connect 8 1 7 1;
#X connect 9 0 3 0;
#X restore 293 207 pd polySteal;
#X obj 460 388 mtof;
#X obj 460 363 +, f 5;
#X obj 459 261 * 36;
#X obj 582 232 > 0;
#X obj 582 254 sel 1;
#X obj 582 278 s \$0-trigger;
#X obj 459 305 t b f;
#X obj 460 337 i;
#X obj 459 283 + 12;
#X obj 351 495 *~;
#X obj 283 538 +~;
#X obj 282 582 osc~;
#X obj 373 458 osc~;
#X obj 473 461 * 5000;
#X obj 873 305 s \$0-indice;
#X obj 475 430 r \$0-indice;
#X obj 874 206 s \$0-fmod;
#X obj 459 239 r \$0-fmod;
#X obj 756 200 r \$0-trigger;
#X msg 756 366 0.8 \, 0 \$1;
#X obj 777 255 * 2950;
#X obj 777 277 + 50;
#X obj 756 437 line~;
#X obj 756 331 i, f 4;
#X obj 877 399 s \$0-Crelease;
#X obj 690 236 r \$0-Crelease;
#X obj 777 233 r \$0-Mrelease;
#X obj 874 494 s \$0-Mrelease;
#X obj 357 530 *~;
#X obj 877 473 hsl 128 15 0 1 0 0 empty empty Mrelease -2 -8 0 10 #fcfcfc #000000 #000000 0 1;
#X obj 233 172 unpack;
#X msg 233 151 \$1 100;
#X floatatom 253 25 5 0 0 0 - - - 0;
#X obj 873 111 / 127;
#X obj 874 241 / 127;
#X obj 863 343 / 127;
#X obj 853 434 / 127;
#X obj 243 65 f;
#X obj 349 783 outlet~;
#X obj 393 38 inlet;
#X obj 443 38 inlet;
#X obj 493 38 inlet;
#X obj 543 38 inlet;
#X obj 236 -3 inlet;
#X obj 348 40 inlet;
#X connect 0 0 53 0;
#X connect 1 0 9 0;
#X connect 2 0 8 0;
#X connect 3 0 31 0;
#X connect 4 0 29 0;
#X connect 5 0 39 0;
#X connect 6 0 7 0;
#X connect 7 0 9 1;
#X connect 8 0 0 1;
#X connect 9 0 2 0;
#X connect 10 0 25 0;
#X connect 11 0 12 0;
#X connect 12 0 13 0;
#X connect 14 0 10 0;
#X connect 14 0 22 0;
#X connect 14 1 11 0;
#X connect 14 1 18 0;
#X connect 15 0 27 0;
#X connect 16 0 15 0;
#X connect 17 0 23 0;
#X connect 18 0 19 0;
#X connect 19 0 20 0;
#X connect 21 0 22 0;
#X connect 21 1 16 1;
#X connect 22 0 16 0;
#X connect 23 0 21 0;
#X connect 24 0 43 0;
#X connect 25 0 26 0;
#X connect 26 0 0 0;
#X connect 27 0 24 0;
#X connect 28 0 24 1;
#X connect 30 0 28 0;
#X connect 32 0 17 0;
#X connect 33 0 38 0;
#X connect 34 0 37 0;
#X connect 35 0 36 0;
#X connect 36 0 38 1;
#X connect 37 0 43 1;
#X connect 38 0 34 0;
#X connect 40 0 6 0;
#X connect 41 0 35 0;
#X connect 43 0 25 1;
#X connect 44 0 42 0;
#X connect 45 0 14 0;
#X connect 45 1 14 1;
#X connect 46 0 45 0;
#X connect 47 0 52 1;
#X connect 48 0 3 0;
#X connect 49 0 4 0;
#X connect 50 0 5 0;
#X connect 51 0 44 0;
#X connect 52 0 46 0;
#X connect 54 0 48 0;
#X connect 55 0 49 0;
#X connect 56 0 50 0;
#X connect 57 0 51 0;
#X connect 58 0 52 0;
#X connect 59 0 47 0;
#X restore 1027 222 pd dsp;
#X f 22;
#X obj 342 118 text define -k \$0-modul-settings;
#A set FMPERC \; PITCH \; FMOD \; INDICE \; CRELEASE \; MRELEASE \; EMPTY \; EMPTY \; EMPTY \; SRC \; 8 \; #00c090 \; #00a078 \; #008068 \; #3a3a3a \; #505050 \; #2b2b2b \; #8c7a58 \; #b8a890 \;;
#N canvas 324 349 425 350 info 0;
#X text 23 12 This textfile contains all necessery names of the module and the names of the gui (faders etc.). This way its much easier to change the names of all elements simply by editing the text object.;
#X text 25 93 The Order of the file \; 0=Modul-Name \; 1=Name Param1 - write non if unused \; 2=Name Param2 \; 3=Name Param3 \; 4=Name Param4 \; 5=Name Param5 \; 6=Name Param6 \; 7=Name Param7 \; 8=Name Param8 \; 9=Type of Module (SRC \, MOD \, LFO \, EFX etc) \; 10=Number of used Parameters (1-8) \; 11=Color of Param1-Circle 12=Color of Param2-Circle \; 13=Color of Param3-Circle \; 14=Color of Param4-Circle \; 15=Color of Param5-Circle \; 16=Color of Param6-Circle \; 17=Color of Param7-Circle \; 18=Color of Param8-Circle \; ....;
#X restore 564 117 pd info;
#X text 542 117 ->;
#X text 340 97 Parameter-Values + Names + Colors:;
#X text 491 227 <--rename labels here;
#X text 491 247 <--modules values are saved here;
#X text 442 265 <--Opens the Options-Subpatch;
#X obj 341 512 s \$0-param-1-t;
#X msg 341 493 symbol \$1%;
#X obj 341 435 / 1.27;
#X floatatom 341 454 5 0 0 0 - - - 0;
#X obj 341 474 i;
#X obj 341 336 s \$0-a;
#X obj 395 336 s \$0-b;
#X obj 449 336 s \$0-c;
#X obj 504 336 s \$0-d;
#X obj 558 335 s \$0-e;
#X obj 613 335 s \$0-f;
#X obj 667 334 s \$0-g;
#X obj 722 334 s \$0-h;
#X text 767 334 <--these go to the dsp-object;
#X text 441 185 <--receives encoder messages from mother.pd;
#X text 441 165 <--sends display info to mother.pd;
#X text 451 205 <--checks menu and if module is "active";
#X text 738 307 <--receives audio + message for mod;
#X obj 341 414 r \$0-param-1-s;
#X msg 437 493 symbol \$1%;
#X obj 437 435 / 1.27;
#X floatatom 437 454 5 0 0 0 - - - 0;
#X obj 437 474 i;
#X obj 437 414 r \$0-param-2-s;
#X obj 437 512 s \$0-param-2-t;
#X msg 535 492 symbol \$1%;
#X obj 535 434 / 1.27;
#X floatatom 535 453 5 0 0 0 - - - 0;
#X obj 535 473 i;
#X obj 535 413 r \$0-param-3-s;
#X obj 535 511 s \$0-param-3-t;
#X msg 635 492 symbol \$1%;
#X obj 635 434 / 1.27;
#X floatatom 635 453 5 0 0 0 - - - 0;
#X obj 635 473 i;
#X obj 635 413 r \$0-param-4-s;
#X obj 635 511 s \$0-param-4-t;
#X msg 341 633 symbol \$1%;
#X obj 341 575 / 1.27;
#X floatatom 341 594 5 0 0 0 - - - 0;
#X obj 341 614 i;
#X msg 437 633 symbol \$1%;
#X obj 437 575 / 1.27;
#X floatatom 437 594 5 0 0 0 - - - 0;
#X obj 437 614 i;
#X msg 535 632 symbol \$1%;
#X obj 535 574 / 1.27;
#X floatatom 535 593 5 0 0 0 - - - 0;
#X obj 535 613 i;
#X msg 635 632 symbol \$1%;
#X obj 635 574 / 1.27;
#X floatatom 635 593 5 0 0 0 - - - 0;
#X obj 635 613 i;
#X obj 341 554 r \$0-param-5-s;
#X obj 341 652 s \$0-param-5-t;
#X obj 437 554 r \$0-param-6-s;
#X obj 437 652 s \$0-param-6-t;
#X obj 535 553 r \$0-param-7-s;
#X obj 535 651 s \$0-param-7-t;
#X obj 635 553 r \$0-param-8-s;
#X obj 635 651 s \$0-param-8-t;
#X obj 341 165 core_display \$0;
#X obj 341 185 core_encoder \$0;
#X obj 341 206 core_main_menu \$0;
#X obj 341 227 core_module_settings \$0;
#X obj 341 308 core_modulation_receiver \$0, f 64;
#X obj 341 247 core_state_saving \$0 \$1;
#X obj 341 266 core_options \$0;
#X text 340 144 Modul Core:;
#X text 339 390 Value Display Representation:;
#X obj 1080 96 r \$0-a;
#X obj 1124 96 r \$0-b;
#X obj 1168 97 r \$0-c;
#X obj 1210 97 r \$0-d;
#X obj 1210 116 * 127;
#X obj 1168 117 * 127;
#X obj 1124 115 * 127;
#X obj 1080 115 * 127;
#X obj 1253 116 * 127;
#X obj 1253 97 r \$0-e;
#X obj 127 236 hsl 128 15 0 127 0 1 \$0-param-4-s \$0-param-4-r CRELEASE 133 7 0 10 #3a3a3a #000000 #000000 0 1;
#X obj 127 174 hsl 128 15 0 127 0 1 \$0-param-2-s \$0-param-2-r FMOD 133 7 0 10 #00a078 #000000 #000000 9200 1;
#X obj 127 267 hsl 128 15 0 127 0 1 \$0-param-5-s \$0-param-5-r MRELEASE 133 7 0 10 #505050 #000000 #000000 0 1;
#X obj 127 143 hsl 128 15 0 127 0 1 \$0-param-1-s \$0-param-1-r PITCH 133 7 0 10 #00c090 #000000 #000000 6800 1;
#X obj 127 205 hsl 128 15 0 127 0 1 \$0-param-3-s \$0-param-3-r INDICE 133 7 0 10 #008068 #000000 #000000 1000 1;
#X obj 199 109 cnv 5 5 5 empty empty MOD1 0 0 0 8 #fcfcfc #404040 0;
#X obj 298 108 cnv 5 5 5 empty empty MOD2 0 0 0 8 #fcfcfc #404040 0;
#X obj 1322 98 inlet~;
#X obj 1442 98 inlet~;
#X obj 1322 188 throw~ \$0-mod1;
#X obj 1442 187 throw~ \$0-mod2;
#X text 1320 81 MOD1;
#X text 1440 81 MOD2;
#X obj 127 158 hsl 61 8 0 127 0 1 \$0-param-9-s \$0-param-9-r empty 133 7 0 10 #606060 #000000 #000000 2000 1;
#X obj 194 158 hsl 61 8 0 127 0 1 \$0-param-17-s \$0-param-17-r empty 133 7 0 10 #7c7c7c #000000 #000000 1512 1;
#X obj 127 189 hsl 61 8 0 127 0 1 \$0-param-10-s \$0-param-10-r empty 133 7 0 10 #606060 #000000 #000000 2900 1;
#X obj 194 189 hsl 61 8 0 127 0 1 \$0-param-18-s \$0-param-18-r empty 133 7 0 10 #7c7c7c #000000 #000000 0 1;
#X obj 127 220 hsl 61 8 0 127 0 1 \$0-param-11-s \$0-param-11-r empty 133 7 0 10 #606060 #000000 #000000 1300 1;
#X obj 194 220 hsl 61 8 0 127 0 1 \$0-param-19-s \$0-param-19-r empty 133 7 0 10 #7c7c7c #000000 #000000 2457 1;
#X obj 127 251 hsl 61 8 0 127 0 1 \$0-param-12-s \$0-param-12-r empty 133 7 0 10 #606060 #000000 #000000 0 1;
#X obj 194 251 hsl 61 8 0 127 0 1 \$0-param-20-s \$0-param-20-r empty 133 7 0 10 #7c7c7c #000000 #000000 0 1;
#X obj 127 282 hsl 61 8 0 127 0 1 \$0-param-13-s \$0-param-13-r empty 133 7 0 10 #606060 #000000 #000000 0 1;
#X obj 194 282 hsl 61 8 0 127 0 1 \$0-param-21-s \$0-param-21-r empty 133 7 0 10 #7c7c7c #000000 #000000 0 1;
#X obj 341 287 core_mod_display \$0;
#X connect 5 0 6 0;
#X connect 5 1 6 1;
#X connect 6 0 7 0;
#X connect 6 1 10 0;
#X connect 7 0 15 0;
#X connect 8 0 5 0;
#X connect 9 0 0 0;
#X connect 10 0 12 0;
#X connect 11 0 9 1;
#X connect 12 0 11 0;
#X connect 15 0 9 0;
#X connect 24 0 23 0;
#X connect 25 0 26 0;
#X connect 26 0 27 0;
#X connect 27 0 24 0;
#X connect 41 0 25 0;
#X connect 42 0 47 0;
#X connect 43 0 44 0;
#X connect 44 0 45 0;
#X connect 45 0 42 0;
#X connect 46 0 43 0;
#X connect 48 0 53 0;
#X connect 49 0 50 0;
#X connect 50 0 51 0;
#X connect 51 0 48 0;
#X connect 52 0 49 0;
#X connect 54 0 59 0;
#X connect 55 0 56 0;
#X connect 56 0 57 0;
#X connect 57 0 54 0;
#X connect 58 0 55 0;
#X connect 60 0 77 0;
#X connect 61 0 62 0;
#X connect 62 0 63 0;
#X connect 63 0 60 0;
#X connect 64 0 79 0;
#X connect 65 0 66 0;
#X connect 66 0 67 0;
#X connect 67 0 64 0;
#X connect 68 0 81 0;
#X connect 69 0 70 0;
#X connect 70 0 71 0;
#X connect 71 0 68 0;
#X connect 72 0 83 0;
#X connect 73 0 74 0;
#X connect 74 0 75 0;
#X connect 75 0 72 0;
#X connect 76 0 61 0;
#X connect 78 0 65 0;
#X connect 80 0 69 0;
#X connect 82 0 73 0;
#X connect 88 0 28 0;
#X connect 88 1 29 0;
#X connect 88 2 30 0;
#X connect 88 3 31 0;
#X connect 88 4 32 0;
#X connect 88 5 33 0;
#X connect 88 6 34 0;
#X connect 88 7 35 0;
#X connect 93 0 100 0;
#X connect 94 0 99 0;
#X connect 95 0 98 0;
#X connect 96 0 97 0;
#X connect 97 0 15 4;
#X connect 98 0 15 3;
#X connect 99 0 15 2;
#X connect 100 0 15 1;
#X connect 101 0 15 5;
#X connect 102 0 101 0;
#X connect 110 0 112 0;
#X connect 111 0 113 0;
#X coords 0 -1 1 1 220 270 2 100 100;
