#N canvas 59 113 902 689 10;
#X obj 159 877 *~;
#X obj 478 432 r \$0-trigger;
#X msg 478 598 0.8 \, 0 \$1;
#X obj 682 853 bng 25 250 50 0 empty empty empty 17 7 0 10 #fcfcfc #000000 #000000;
#X obj 682 923 s \$0-trigger;
#X obj 686 416 hsl 128 15 0 1 0 0 empty empty Fmod -2 -8 0 10 #fcfcfc #000000 #000000 0 1;
#X obj 685 514 hsl 128 15 0 1 0 0 empty empty Indice -2 -8 0 10 #fcfcfc #000000 #000000 0 1;
#X obj 689 608 hsl 128 15 0 1 0 0 empty empty Crelease -2 -8 0 10 #fcfcfc #000000 #000000 0 1;
#X obj 499 487 * 2950;
#X obj 499 509 + 50;
#X obj 478 669 line~;
#X obj 478 563 i, f 4;
#X obj 50 623 mtof;
#X obj 172 467 > 0;
#X obj 172 489 sel 1;
#X obj 172 513 s \$0-trigger;
#N canvas 16 204 450 300 polySteal 0;
#X obj 124 19 inlet;
#X obj 225 22 inlet;
#X obj 136 226 outlet;
#X obj 283 227 outlet;
#X obj 210 121 > 0;
#X obj 210 143 sel 1;
#X obj 210 99 i;
#X obj 136 196 i;
#X obj 124 41 t b f;
#X obj 283 196 i;
#X connect 0 0 8 0;
#X connect 1 0 6 1;
#X connect 1 0 9 1;
#X connect 4 0 5 0;
#X connect 5 0 7 0;
#X connect 5 0 9 0;
#X connect 6 0 4 0;
#X connect 7 0 2 0;
#X connect 8 0 6 0;
#X connect 8 1 7 1;
#X connect 9 0 3 0;
#X restore 102 436 pd polySteal;
#X obj 269 617 mtof;
#X obj 269 592 +, f 5;
#X obj 268 490 * 36;
#X obj 391 461 > 0;
#X obj 391 483 sel 1;
#X obj 391 507 s \$0-trigger;
#X obj 268 534 t b f;
#X obj 269 566 i;
#X obj 268 512 + 12;
#X obj 160 724 *~;
#X obj 92 767 +~;
#X obj 91 811 osc~;
#X obj 182 687 osc~;
#X obj 282 690 * 5000;
#X obj 682 534 s \$0-indice;
#X obj 284 659 r \$0-indice;
#X obj 683 435 s \$0-fmod;
#X obj 268 468 r \$0-fmod;
#X obj 565 429 r \$0-trigger;
#X msg 565 595 0.8 \, 0 \$1;
#X obj 586 484 * 2950;
#X obj 586 506 + 50;
#X obj 565 666 line~;
#X obj 565 560 i, f 4;
#X obj 686 628 s \$0-Crelease;
#X obj 499 465 r \$0-Crelease;
#X obj 586 462 r \$0-Mrelease;
#X obj 683 723 s \$0-Mrelease;
#X obj 166 759 *~;
#X obj 686 702 hsl 128 15 0 1 0 0 empty empty Mrelease -2 -8 0 10 #fcfcfc #000000 #000000 0 1;
#X obj 42 401 unpack;
#X msg 42 380 \$1 100;
#X floatatom 62 254 5 0 0 0 - - - 0;
#X obj 158 999 outlet~;
#X obj 120 166 hsl 128 15 0 127 0 1 \$0-2-s \$0-2-r FMOD 133 7 0 10 #fcfcfc #000000 #000000 4200 1;
#X obj 120 144 hsl 128 15 0 127 0 1 \$0-1-s \$0-1-r PITCH 133 7 0 10 #fcfcfc #000000 #000000 3000 1;
#X obj 120 188 hsl 128 15 0 127 0 1 \$0-3-s \$0-3-r INDICE 133 7 0 10 #fcfcfc #000000 #000000 900 1;
#X obj 120 210 hsl 128 15 0 127 0 1 \$0-4-s \$0-4-r CRELEASE 133 7 0 10 #fcfcfc #000000 #000000 200 1;
#X obj 120 232 hsl 128 15 0 127 0 1 \$0-5-s \$0-5-r MRELEASE 133 7 0 10 #fcfcfc #000000 #000000 4000 1;
#X obj 115 131 cnv 5 5 5 empty empty FMPERC 0 0 0 12 #fcfcfc #404040 0;
#X obj 161 131 cnv 5 5 5 empty \$0-instance-num 0 0 0 0 12 #fcfcfc #404040 0;
#X obj 103 109 cnv 5 5 5 empty empty IN 0 0 0 8 #fcfcfc #ff8300 0;
#X obj 125 109 cnv 5 5 5 empty empty FREQ 0 0 0 8 #fcfcfc #404040 0;
#X obj 161 109 cnv 5 5 5 empty empty FEED 0 0 0 8 #fcfcfc #404040 0;
#X obj 201 109 cnv 5 5 5 empty empty DAMP 0 0 0 8 #fcfcfc #404040 0;
#X obj 240 109 cnv 5 5 5 empty empty ADF 0 0 0 8 #fcfcfc #404040 0;
#X obj 270 109 cnv 5 5 5 empty empty APF 0 0 0 8 #fcfcfc #404040 0;
#X obj 291 109 cnv 5 5 5 empty empty NOISE 0 0 0 8 #fcfcfc #404040 0;
#X obj 682 340 / 127;
#X obj 683 470 / 127;
#X obj 672 572 / 127;
#X obj 662 663 / 127;
#X text 61 -174 TRIGGER IN;
#X obj 75 -94 unpack;
#X obj 75 -65 stripnote;
#X obj 75 -42 bng 16 250 50 0 empty empty empty 0 -8 0 10 #fcfcfc #000000 #000000;
#X obj 74 -146 inlet;
#X obj 52 294 f;
#X obj 158 964 *~;
#X obj 209 905 / 127;
#X obj 209 939 line~;
#X obj 209 922 pack 0 2;
#X msg -137 644 1;
#X msg -164 684 \; pd-\$1options vis \$2;
#X obj -164 644 f \$0;
#X obj -164 663 pack f f;
#X obj 239 317 bng 10 250 50 0 \$0-options-button \$0-options-button-r OPTIONS -45 5 0 10 #fcfcfc #000000 #000000;
#X obj -164 625 t b b;
#X obj -164 606 r \$0-options-button;
#N canvas 551 310 191 154 \$0options 0;
#X text 11 10 Ableton-Push-Interface:;
#X obj 15 50 hradio 16 1 0 8 \$0-main-menu-s \$0-main-menu-r Main-Menu 0 -8 0 10 #fcfcfc #000000 #000000 0;
#X obj 15 90 hradio 16 1 0 8 \$0-sub-menu-s \$0-sub-menu-r Sub-Menu 0 -8 0 10 #fcfcfc #000000 #000000 0;
#X restore -165 717 pd \$0options;
#N canvas 403 62 926 752 state-saving-multiple-instances 0;
#X obj 461 15 loadbang;
#X obj 451 449 textfile;
#X msg 813 259 rewind;
#X msg 770 259 bang;
#X obj 109 691 textfile;
#X obj 770 220 t b b;
#X obj 110 357 f;
#X obj 48 403 t b b b;
#X msg 163 529 clear;
#X obj 527 204 outlet;
#X text 523 224 INSTANCE NUMBER;
#X obj 454 139 f \$1;
#X obj 454 175 t f f f;
#X obj 48 378 bng 15 250 50 0 empty empty empty 17 7 0 10 #fcfcfc #000000 #000000;
#X obj 48 274 r SAVE-S;
#X obj 557 15 r \$0-reload!;
#X obj 510 299 r patch-path;
#X obj 465 318 pack f s;
#X obj 454 272 f;
#X obj 454 293 t b f;
#X obj 500 72 s update-path;
#X msg 454 358 read /Users/johannklug/Documents/Bass\ Dieter/2025/Diet/MODULAR_LIVE_\ PERFORMER/patch1/statesave/0-mymembrane-ss.txt;
#X obj 461 48 t b b b;
#X msg 465 337 set read \$2/statesave/\$1-mymembrane-ss.txt;
#X obj 172 562 r patch-path;
#X obj 127 581 pack f s;
#X obj 116 535 f;
#X obj 116 556 t b f;
#X msg 116 621 write /Users/johannklug/Documents/Bass\ Dieter/2025/Diet/MODULAR_LIVE_\ PERFORMER/patch2/statesave/0-mymembrane-ss.txt;
#X msg 127 600 set write \$2/statesave/\$1-mymembrane-ss.txt;
#X obj 411 8 bng 16 250 50 0 empty empty empty 0 -8 0 10 #fcfcfc #000000 #000000;
#X obj 110 400 pack f f f f f f f f f f f f f f;
#X msg 110 438 set \$1 \$2 \$3 \$4 \$5 \$6 \$7 \$8 \$9 \$10 \$11 \$12 \$13 \$14;
#X obj 451 468 unpack f f f f f f f f f f f f f f;
#X obj 637 548 s \$0-main-menu-r;
#X obj 654 527 s \$0-sub-menu-r;
#X obj 147 100 r \$0-1-s;
#X obj 154 119 r \$0-1-cv-s;
#X obj 161 138 r \$0-2-s;
#X obj 170 157 r \$0-2-cv-s;
#X obj 180 178 r \$0-3-s;
#X obj 188 200 r \$0-3-cv-s;
#X obj 200 221 r \$0-4-s;
#X obj 212 242 r \$0-4-cv-s;
#X obj 231 262 r \$0-5-s;
#X obj 242 282 r \$0-5-cv-s;
#X obj 283 347 r \$0-main-menu-s;
#X obj 299 366 r \$0-sub-menu-s;
#X obj 458 776 s \$0-1-r;
#X obj 472 758 s \$0-1-cv-r;
#X obj 487 739 s \$0-2-r;
#X obj 502 720 s \$0-2-cv-r;
#X obj 516 700 s \$0-3-r;
#X obj 529 680 s \$0-3-cv-r;
#X obj 542 662 s \$0-4-r;
#X obj 558 643 s \$0-4-cv-r;
#X obj 574 624 s \$0-5-r;
#X obj 589 606 s \$0-5-cv-r;
#X connect 0 0 22 0;
#X connect 1 0 33 0;
#X connect 2 0 1 0;
#X connect 3 0 1 0;
#X connect 5 0 3 0;
#X connect 5 1 2 0;
#X connect 6 0 31 0;
#X connect 7 0 26 0;
#X connect 7 1 6 0;
#X connect 7 2 8 0;
#X connect 8 0 4 0;
#X connect 11 0 12 0;
#X connect 12 0 26 1;
#X connect 12 1 18 0;
#X connect 12 2 9 0;
#X connect 13 0 7 0;
#X connect 14 0 13 0;
#X connect 15 0 22 0;
#X connect 16 0 17 1;
#X connect 17 0 23 0;
#X connect 18 0 19 0;
#X connect 19 0 21 0;
#X connect 19 1 17 0;
#X connect 21 0 1 0;
#X connect 22 0 5 0;
#X connect 22 1 11 0;
#X connect 22 2 20 0;
#X connect 23 0 21 0;
#X connect 24 0 25 1;
#X connect 25 0 29 0;
#X connect 26 0 27 0;
#X connect 27 0 28 0;
#X connect 27 1 25 0;
#X connect 28 0 4 0;
#X connect 29 0 28 0;
#X connect 30 0 22 0;
#X connect 31 0 32 0;
#X connect 32 0 4 0;
#X connect 33 0 48 0;
#X connect 33 1 49 0;
#X connect 33 2 50 0;
#X connect 33 3 51 0;
#X connect 33 4 52 0;
#X connect 33 5 53 0;
#X connect 33 6 54 0;
#X connect 33 7 55 0;
#X connect 33 8 56 0;
#X connect 33 9 57 0;
#X connect 33 12 34 0;
#X connect 33 13 35 0;
#X connect 36 0 6 1;
#X connect 37 0 31 1;
#X connect 38 0 31 2;
#X connect 39 0 31 3;
#X connect 40 0 31 4;
#X connect 41 0 31 5;
#X connect 42 0 31 6;
#X connect 43 0 31 7;
#X connect 44 0 31 8;
#X connect 45 0 31 9;
#X connect 46 0 31 12;
#X connect 47 0 31 13;
#X restore 391 51 pd state-saving-multiple-instances;
#X obj 391 123 s \$0-instance-num;
#X obj 391 75 makefilename %d;
#X msg 391 100 label \$1;
#N canvas 81 22 1117 745 state-saving-via-preset-manager-module 0;
#X obj 478 210 textfile;
#X msg 756 193 rewind;
#X msg 713 193 bang;
#X obj 243 690 textfile;
#X obj 713 154 t b b;
#X obj 116 230 f;
#X obj 257 579 f;
#X obj 190 474 t b b b;
#X msg 373 621 clear;
#X obj 116 54 delay 5;
#X obj 190 529 delay 10;
#X msg 62 188 bang;
#X obj 62 29 r STORE-S!;
#X obj 478 111 f;
#X obj 451 68 t b b;
#X obj 466 32 t b f;
#X obj 523 129 f \$1;
#X obj 478 156 pack f f;
#X obj 523 79 loadbang;
#X obj 257 609 pack f f;
#X obj 302 562 loadbang;
#X obj 302 584 f \$1;
#X obj 466 -32 r preset-manager-scan;
#X obj 272 540 r preset-manager-store-slot;
#X obj 466 -10 i;
#X msg 256 650 write statesave/\$1-\$2-kick-ss.txt;
#X msg 478 185 read statesave/\$1-\$2-kick-ss.txt;
#X obj 205 -8 r \$0-kick-pitch-s;
#X obj 213 15 r \$0-kick-decay-s;
#X obj 236 36 r \$0-kick-envmod-s;
#X obj 259 57 r \$0-kick-sweep-s;
#X obj 300 81 r \$0-kick-wform-s;
#X obj 308 104 r \$0-flam-s;
#X obj 321 128 r \$0-flam-prob-s;
#X obj 332 155 r \$0-acc-prob-s;
#X obj 345 183 r \$0-acc-level-s;
#X obj 362 211 r \$0-drive-s;
#X obj 360 248 r \$0-tone-s;
#X obj 385 278 r \$0-load-s;
#X msg 199 379 set \$1 \$2 \$3 \$4 \$5 \$6 \$7 \$8 \$9 \$10 \$11 \$12;
#X obj 199 341 pack f f f f f f f f f f f f;
#X obj 480 254 unpack f f f f f f f f f f f f;
#X obj 483 743 s \$0-basic-osc-pitch-r;
#N canvas 0 22 1069 747 morph-parameters 0;
#X obj 176 94 inlet;
#X obj 176 236 pack f f;
#X obj 176 261 line;
#X obj 209 117 r preset-manager-morph-s;
#X msg 72 244 stop;
#X obj 72 214 r STOP-MORPH!;
#X obj 209 206 spigot;
#X obj 398 137 t f f;
#X obj 455 154 == 0;
#X obj 221 176 f;
#X floatatom 455 222 5 0 0 0 - - - 0;
#X obj 398 159 t b f;
#X floatatom 425 192 5 0 0 0 - - - 0;
#X obj 209 139 t f f;
#X obj 398 102 r parameters-s;
#X obj 176 288 outlet;
#X connect 0 0 1 0;
#X connect 1 0 2 0;
#X connect 2 0 15 0;
#X connect 3 0 13 0;
#X connect 4 0 2 0;
#X connect 5 0 4 0;
#X connect 6 0 1 1;
#X connect 7 0 11 0;
#X connect 7 1 8 0;
#X connect 8 0 10 0;
#X connect 9 0 6 0;
#X connect 10 0 1 1;
#X connect 11 0 9 0;
#X connect 11 1 12 0;
#X connect 12 0 6 1;
#X connect 13 0 6 0;
#X connect 13 1 9 1;
#X connect 14 0 7 0;
#X restore 502 669 pd morph-parameters;
#N canvas 0 22 1069 747 morph-attenuators 0;
#X obj 176 94 inlet;
#X obj 176 236 pack f f;
#X obj 176 261 line;
#X obj 209 117 r preset-manager-morph-s;
#X msg 72 244 stop;
#X obj 72 214 r STOP-MORPH!;
#X obj 209 206 spigot;
#X obj 398 137 t f f;
#X obj 455 154 == 0;
#X obj 221 176 f;
#X floatatom 455 222 5 0 0 0 - - - 0;
#X obj 398 159 t b f;
#X floatatom 425 192 5 0 0 0 - - - 0;
#X obj 209 139 t f f;
#X obj 398 102 r attenuators-s;
#X obj 176 288 outlet;
#X connect 0 0 1 0;
#X connect 1 0 2 0;
#X connect 2 0 15 0;
#X connect 3 0 13 0;
#X connect 4 0 2 0;
#X connect 5 0 4 0;
#X connect 6 0 1 1;
#X connect 7 0 11 0;
#X connect 7 1 8 0;
#X connect 8 0 10 0;
#X connect 9 0 6 0;
#X connect 10 0 1 1;
#X connect 11 0 9 0;
#X connect 11 1 12 0;
#X connect 12 0 6 1;
#X connect 13 0 6 0;
#X connect 13 1 9 1;
#X connect 14 0 7 0;
#X restore 611 338 pd morph-attenuators;
#X obj 502 692 s \$0-kick-decay-r;
#N canvas 0 22 1069 747 morph-parameters 0;
#X obj 176 94 inlet;
#X obj 176 236 pack f f;
#X obj 176 261 line;
#X obj 209 117 r preset-manager-morph-s;
#X msg 72 244 stop;
#X obj 72 214 r STOP-MORPH!;
#X obj 209 206 spigot;
#X obj 398 137 t f f;
#X obj 455 154 == 0;
#X obj 221 176 f;
#X floatatom 455 222 5 0 0 0 - - - 0;
#X obj 398 159 t b f;
#X floatatom 425 192 5 0 0 0 - - - 0;
#X obj 209 139 t f f;
#X obj 398 102 r parameters-s;
#X obj 176 288 outlet;
#X connect 0 0 1 0;
#X connect 1 0 2 0;
#X connect 2 0 15 0;
#X connect 3 0 13 0;
#X connect 4 0 2 0;
#X connect 5 0 4 0;
#X connect 6 0 1 1;
#X connect 7 0 11 0;
#X connect 7 1 8 0;
#X connect 8 0 10 0;
#X connect 9 0 6 0;
#X connect 10 0 1 1;
#X connect 11 0 9 0;
#X connect 11 1 12 0;
#X connect 12 0 6 1;
#X connect 13 0 6 0;
#X connect 13 1 9 1;
#X connect 14 0 7 0;
#X restore 521 619 pd morph-parameters;
#X obj 521 642 s \$0-kick-envmod-r;
#N canvas 0 22 1069 747 morph-parameters 0;
#X obj 176 94 inlet;
#X obj 176 236 pack f f;
#X obj 176 261 line;
#X obj 209 117 r preset-manager-morph-s;
#X msg 72 244 stop;
#X obj 72 214 r STOP-MORPH!;
#X obj 209 206 spigot;
#X obj 398 137 t f f;
#X obj 455 154 == 0;
#X obj 221 176 f;
#X floatatom 455 222 5 0 0 0 - - - 0;
#X obj 398 159 t b f;
#X floatatom 425 192 5 0 0 0 - - - 0;
#X obj 209 139 t f f;
#X obj 398 102 r parameters-s;
#X obj 176 288 outlet;
#X connect 0 0 1 0;
#X connect 1 0 2 0;
#X connect 2 0 15 0;
#X connect 3 0 13 0;
#X connect 4 0 2 0;
#X connect 5 0 4 0;
#X connect 6 0 1 1;
#X connect 7 0 11 0;
#X connect 7 1 8 0;
#X connect 8 0 10 0;
#X connect 9 0 6 0;
#X connect 10 0 1 1;
#X connect 11 0 9 0;
#X connect 11 1 12 0;
#X connect 12 0 6 1;
#X connect 13 0 6 0;
#X connect 13 1 9 1;
#X connect 14 0 7 0;
#X restore 540 568 pd morph-parameters;
#X obj 540 591 s \$0-kick-sweep-r;
#N canvas 0 22 1069 747 morph-parameters 0;
#X obj 176 94 inlet;
#X obj 176 236 pack f f;
#X obj 176 261 line;
#X obj 209 117 r preset-manager-morph-s;
#X msg 72 244 stop;
#X obj 72 214 r STOP-MORPH!;
#X obj 209 206 spigot;
#X obj 398 137 t f f;
#X obj 455 154 == 0;
#X obj 221 176 f;
#X floatatom 455 222 5 0 0 0 - - - 0;
#X obj 398 159 t b f;
#X floatatom 425 192 5 0 0 0 - - - 0;
#X obj 209 139 t f f;
#X obj 398 102 r parameters-s;
#X obj 176 288 outlet;
#X connect 0 0 1 0;
#X connect 1 0 2 0;
#X connect 2 0 15 0;
#X connect 3 0 13 0;
#X connect 4 0 2 0;
#X connect 5 0 4 0;
#X connect 6 0 1 1;
#X connect 7 0 11 0;
#X connect 7 1 8 0;
#X connect 8 0 10 0;
#X connect 9 0 6 0;
#X connect 10 0 1 1;
#X connect 11 0 9 0;
#X connect 11 1 12 0;
#X connect 12 0 6 1;
#X connect 13 0 6 0;
#X connect 13 1 9 1;
#X connect 14 0 7 0;
#X restore 552 520 pd morph-parameters;
#X obj 552 543 s \$0-kick-wform-r;
#N canvas 0 22 1069 747 morph-frequencies 0;
#X obj 176 94 inlet;
#X obj 176 236 pack f f;
#X obj 176 261 line;
#X obj 209 117 r preset-manager-morph-s;
#X msg 72 244 stop;
#X obj 72 214 r STOP-MORPH!;
#X obj 398 102 r frequencies-s;
#X obj 209 206 spigot;
#X obj 398 137 t f f;
#X obj 455 154 == 0;
#X obj 221 176 f;
#X floatatom 455 222 5 0 0 0 - - - 0;
#X obj 398 159 t b f;
#X floatatom 425 192 5 0 0 0 - - - 0;
#X obj 209 139 t f f;
#X obj 176 283 outlet;
#X connect 0 0 1 0;
#X connect 1 0 2 0;
#X connect 2 0 15 0;
#X connect 3 0 14 0;
#X connect 4 0 2 0;
#X connect 5 0 4 0;
#X connect 6 0 8 0;
#X connect 7 0 1 1;
#X connect 8 0 12 0;
#X connect 8 1 9 0;
#X connect 9 0 11 0;
#X connect 10 0 7 0;
#X connect 11 0 1 1;
#X connect 12 0 10 0;
#X connect 12 1 13 0;
#X connect 13 0 7 1;
#X connect 14 0 7 0;
#X connect 14 1 10 1;
#X restore 483 720 pd morph-frequencies;
#N canvas 0 22 1069 747 morph-parameters 0;
#X obj 176 94 inlet;
#X obj 176 236 pack f f;
#X obj 176 261 line;
#X obj 209 117 r preset-manager-morph-s;
#X msg 72 244 stop;
#X obj 72 214 r STOP-MORPH!;
#X obj 209 206 spigot;
#X obj 398 137 t f f;
#X obj 455 154 == 0;
#X obj 221 176 f;
#X floatatom 455 222 5 0 0 0 - - - 0;
#X obj 398 159 t b f;
#X floatatom 425 192 5 0 0 0 - - - 0;
#X obj 209 139 t f f;
#X obj 398 102 r parameters-s;
#X obj 176 288 outlet;
#X connect 0 0 1 0;
#X connect 1 0 2 0;
#X connect 2 0 15 0;
#X connect 3 0 13 0;
#X connect 4 0 2 0;
#X connect 5 0 4 0;
#X connect 6 0 1 1;
#X connect 7 0 11 0;
#X connect 7 1 8 0;
#X connect 8 0 10 0;
#X connect 9 0 6 0;
#X connect 10 0 1 1;
#X connect 11 0 9 0;
#X connect 11 1 12 0;
#X connect 12 0 6 1;
#X connect 13 0 6 0;
#X connect 13 1 9 1;
#X connect 14 0 7 0;
#X restore 565 473 pd morph-parameters;
#X obj 565 496 s \$0-flam-r;
#N canvas 0 22 1069 747 morph-parameters 0;
#X obj 176 94 inlet;
#X obj 176 236 pack f f;
#X obj 176 261 line;
#X obj 209 117 r preset-manager-morph-s;
#X msg 72 244 stop;
#X obj 72 214 r STOP-MORPH!;
#X obj 209 206 spigot;
#X obj 398 137 t f f;
#X obj 455 154 == 0;
#X obj 221 176 f;
#X floatatom 455 222 5 0 0 0 - - - 0;
#X obj 398 159 t b f;
#X floatatom 425 192 5 0 0 0 - - - 0;
#X obj 209 139 t f f;
#X obj 398 102 r parameters-s;
#X obj 176 288 outlet;
#X connect 0 0 1 0;
#X connect 1 0 2 0;
#X connect 2 0 15 0;
#X connect 3 0 13 0;
#X connect 4 0 2 0;
#X connect 5 0 4 0;
#X connect 6 0 1 1;
#X connect 7 0 11 0;
#X connect 7 1 8 0;
#X connect 8 0 10 0;
#X connect 9 0 6 0;
#X connect 10 0 1 1;
#X connect 11 0 9 0;
#X connect 11 1 12 0;
#X connect 12 0 6 1;
#X connect 13 0 6 0;
#X connect 13 1 9 1;
#X connect 14 0 7 0;
#X restore 581 425 pd morph-parameters;
#X obj 581 448 s \$0-flam-prob-r;
#N canvas 0 22 1069 747 morph-parameters 0;
#X obj 176 94 inlet;
#X obj 176 236 pack f f;
#X obj 176 261 line;
#X obj 209 117 r preset-manager-morph-s;
#X msg 72 244 stop;
#X obj 72 214 r STOP-MORPH!;
#X obj 209 206 spigot;
#X obj 398 137 t f f;
#X obj 455 154 == 0;
#X obj 221 176 f;
#X floatatom 455 222 5 0 0 0 - - - 0;
#X obj 398 159 t b f;
#X floatatom 425 192 5 0 0 0 - - - 0;
#X obj 209 139 t f f;
#X obj 398 102 r parameters-s;
#X obj 176 288 outlet;
#X connect 0 0 1 0;
#X connect 1 0 2 0;
#X connect 2 0 15 0;
#X connect 3 0 13 0;
#X connect 4 0 2 0;
#X connect 5 0 4 0;
#X connect 6 0 1 1;
#X connect 7 0 11 0;
#X connect 7 1 8 0;
#X connect 8 0 10 0;
#X connect 9 0 6 0;
#X connect 10 0 1 1;
#X connect 11 0 9 0;
#X connect 11 1 12 0;
#X connect 12 0 6 1;
#X connect 13 0 6 0;
#X connect 13 1 9 1;
#X connect 14 0 7 0;
#X restore 597 380 pd morph-parameters;
#X obj 597 403 s \$0-acc-prob-r;
#X obj 611 359 s \$0-acc-level-r;
#N canvas 0 22 1069 747 morph-parameters 0;
#X obj 176 94 inlet;
#X obj 176 236 pack f f;
#X obj 176 261 line;
#X obj 209 117 r preset-manager-morph-s;
#X msg 72 244 stop;
#X obj 72 214 r STOP-MORPH!;
#X obj 209 206 spigot;
#X obj 398 137 t f f;
#X obj 455 154 == 0;
#X obj 221 176 f;
#X floatatom 455 222 5 0 0 0 - - - 0;
#X obj 398 159 t b f;
#X floatatom 425 192 5 0 0 0 - - - 0;
#X obj 209 139 t f f;
#X obj 398 102 r parameters-s;
#X obj 176 288 outlet;
#X connect 0 0 1 0;
#X connect 1 0 2 0;
#X connect 2 0 15 0;
#X connect 3 0 13 0;
#X connect 4 0 2 0;
#X connect 5 0 4 0;
#X connect 6 0 1 1;
#X connect 7 0 11 0;
#X connect 7 1 8 0;
#X connect 8 0 10 0;
#X connect 9 0 6 0;
#X connect 10 0 1 1;
#X connect 11 0 9 0;
#X connect 11 1 12 0;
#X connect 12 0 6 1;
#X connect 13 0 6 0;
#X connect 13 1 9 1;
#X connect 14 0 7 0;
#X restore 749 512 pd morph-parameters;
#X obj 749 535 s \$0-drive-r;
#N canvas 0 22 1069 747 morph-parameters 0;
#X obj 176 94 inlet;
#X obj 176 236 pack f f;
#X obj 176 261 line;
#X obj 209 117 r preset-manager-morph-s;
#X msg 72 244 stop;
#X obj 72 214 r STOP-MORPH!;
#X obj 209 206 spigot;
#X obj 398 137 t f f;
#X obj 455 154 == 0;
#X obj 221 176 f;
#X floatatom 455 222 5 0 0 0 - - - 0;
#X obj 398 159 t b f;
#X floatatom 425 192 5 0 0 0 - - - 0;
#X obj 209 139 t f f;
#X obj 398 102 r parameters-s;
#X obj 176 288 outlet;
#X connect 0 0 1 0;
#X connect 1 0 2 0;
#X connect 2 0 15 0;
#X connect 3 0 13 0;
#X connect 4 0 2 0;
#X connect 5 0 4 0;
#X connect 6 0 1 1;
#X connect 7 0 11 0;
#X connect 7 1 8 0;
#X connect 8 0 10 0;
#X connect 9 0 6 0;
#X connect 10 0 1 1;
#X connect 11 0 9 0;
#X connect 11 1 12 0;
#X connect 12 0 6 1;
#X connect 13 0 6 0;
#X connect 13 1 9 1;
#X connect 14 0 7 0;
#X restore 763 442 pd morph-parameters;
#X obj 763 465 s \$0-tone-r;
#X obj 802 379 s \$0-load-r;
#X connect 0 0 41 0;
#X connect 1 0 0 0;
#X connect 2 0 0 0;
#X connect 4 0 2 0;
#X connect 4 1 1 0;
#X connect 5 0 40 0;
#X connect 6 0 19 0;
#X connect 7 0 10 0;
#X connect 7 1 9 0;
#X connect 7 2 8 0;
#X connect 8 0 3 0;
#X connect 9 0 5 0;
#X connect 10 0 6 0;
#X connect 11 0 7 0;
#X connect 12 0 11 0;
#X connect 13 0 17 0;
#X connect 14 0 4 0;
#X connect 14 1 13 0;
#X connect 15 0 14 0;
#X connect 15 1 13 1;
#X connect 16 0 17 1;
#X connect 17 0 26 0;
#X connect 18 0 16 0;
#X connect 19 0 25 0;
#X connect 20 0 21 0;
#X connect 21 0 19 1;
#X connect 22 0 24 0;
#X connect 23 0 6 1;
#X connect 24 0 15 0;
#X connect 25 0 3 0;
#X connect 26 0 0 0;
#X connect 27 0 5 1;
#X connect 28 0 40 1;
#X connect 29 0 40 2;
#X connect 30 0 40 3;
#X connect 31 0 40 4;
#X connect 32 0 40 5;
#X connect 33 0 40 6;
#X connect 34 0 40 7;
#X connect 35 0 40 8;
#X connect 36 0 40 9;
#X connect 37 0 40 10;
#X connect 38 0 40 11;
#X connect 39 0 3 0;
#X connect 40 0 39 0;
#X connect 41 0 52 0;
#X connect 41 1 43 0;
#X connect 41 2 46 0;
#X connect 41 3 48 0;
#X connect 41 4 50 0;
#X connect 41 5 53 0;
#X connect 41 6 55 0;
#X connect 41 7 57 0;
#X connect 41 8 44 0;
#X connect 41 9 60 0;
#X connect 41 10 62 0;
#X connect 41 11 64 0;
#X connect 43 0 45 0;
#X connect 44 0 59 0;
#X connect 46 0 47 0;
#X connect 48 0 49 0;
#X connect 50 0 51 0;
#X connect 52 0 42 0;
#X connect 53 0 54 0;
#X connect 55 0 56 0;
#X connect 57 0 58 0;
#X connect 60 0 61 0;
#X connect 62 0 63 0;
#X restore 391 26 pd state-saving-via-preset-manager-module;
#N canvas 297 27 981 701 parameter-nudging-system 0;
#X obj 23 70 clip 0 127;
#X obj 182 67 clip 0 127;
#X obj 337 65 clip 0 127;
#N canvas 0 22 484 497 nudge-parameters 0;
#X obj 124 234 random;
#X obj 232 335 f;
#X obj 232 368 +;
#X obj 257 166 random 2;
#X obj 124 275 t f f;
#X obj 124 351 t b f;
#X obj 124 297 *;
#X obj 257 188 sel 0 1;
#X msg 257 280 -1;
#X msg 335 280 1;
#X obj 124 149 t b b b;
#X obj 124 74 r NUDGE!;
#X obj 157 193 r NUDGE-RANGE;
#X obj 247 308 inlet;
#X obj 232 397 outlet;
#X obj 124 96 spigot;
#X obj 185 79 r parameters2-s;
#X connect 0 0 4 0;
#X connect 1 0 2 0;
#X connect 2 0 14 0;
#X connect 3 0 7 0;
#X connect 4 0 6 0;
#X connect 5 0 2 0;
#X connect 5 1 2 1;
#X connect 6 0 5 0;
#X connect 7 0 8 0;
#X connect 7 1 9 0;
#X connect 8 0 6 1;
#X connect 9 0 6 1;
#X connect 10 0 0 0;
#X connect 10 1 1 0;
#X connect 10 2 3 0;
#X connect 11 0 15 0;
#X connect 12 0 0 1;
#X connect 13 0 1 1;
#X connect 15 0 10 0;
#X connect 16 0 15 1;
#X restore 182 45 pd nudge-parameters;
#X obj 23 22 r \$0-kick-pitch-s;
#X obj 23 102 s \$0-kick-pitch-r;
#X obj 182 22 r \$0-kick-decay-s;
#X obj 182 99 s \$0-kick-decay-r;
#X obj 337 20 r \$0-kick-envmod-s;
#X obj 337 97 s \$0-kick-envmod-r;
#X obj 27 193 clip 0 127;
#N canvas 0 22 484 497 nudge-parameters 0;
#X obj 124 234 random;
#X obj 232 335 f;
#X obj 232 368 +;
#X obj 257 166 random 2;
#X obj 124 275 t f f;
#X obj 124 351 t b f;
#X obj 124 297 *;
#X obj 257 188 sel 0 1;
#X msg 257 280 -1;
#X msg 335 280 1;
#X obj 124 149 t b b b;
#X obj 124 74 r NUDGE!;
#X obj 157 193 r NUDGE-RANGE;
#X obj 247 308 inlet;
#X obj 232 397 outlet;
#X obj 124 96 spigot;
#X obj 185 79 r parameters2-s;
#X connect 0 0 4 0;
#X connect 1 0 2 0;
#X connect 2 0 14 0;
#X connect 3 0 7 0;
#X connect 4 0 6 0;
#X connect 5 0 2 0;
#X connect 5 1 2 1;
#X connect 6 0 5 0;
#X connect 7 0 8 0;
#X connect 7 1 9 0;
#X connect 8 0 6 1;
#X connect 9 0 6 1;
#X connect 10 0 0 0;
#X connect 10 1 1 0;
#X connect 10 2 3 0;
#X connect 11 0 15 0;
#X connect 12 0 0 1;
#X connect 13 0 1 1;
#X connect 15 0 10 0;
#X connect 16 0 15 1;
#X restore 27 171 pd nudge-parameters;
#X obj 209 191 clip 0 127;
#N canvas 0 22 484 497 nudge-parameters 0;
#X obj 124 234 random;
#X obj 232 335 f;
#X obj 232 368 +;
#X obj 257 166 random 2;
#X obj 124 275 t f f;
#X obj 124 351 t b f;
#X obj 124 297 *;
#X obj 257 188 sel 0 1;
#X msg 257 280 -1;
#X msg 335 280 1;
#X obj 124 149 t b b b;
#X obj 124 74 r NUDGE!;
#X obj 157 193 r NUDGE-RANGE;
#X obj 247 308 inlet;
#X obj 232 397 outlet;
#X obj 124 96 spigot;
#X obj 185 79 r parameters2-s;
#X connect 0 0 4 0;
#X connect 1 0 2 0;
#X connect 2 0 14 0;
#X connect 3 0 7 0;
#X connect 4 0 6 0;
#X connect 5 0 2 0;
#X connect 5 1 2 1;
#X connect 6 0 5 0;
#X connect 7 0 8 0;
#X connect 7 1 9 0;
#X connect 8 0 6 1;
#X connect 9 0 6 1;
#X connect 10 0 0 0;
#X connect 10 1 1 0;
#X connect 10 2 3 0;
#X connect 11 0 15 0;
#X connect 12 0 0 1;
#X connect 13 0 1 1;
#X connect 15 0 10 0;
#X connect 16 0 15 1;
#X restore 209 169 pd nudge-parameters;
#X obj 350 191 clip 0 127;
#N canvas 0 22 484 497 nudge-parameters 0;
#X obj 124 234 random;
#X obj 232 335 f;
#X obj 232 368 +;
#X obj 257 166 random 2;
#X obj 124 275 t f f;
#X obj 124 351 t b f;
#X obj 124 297 *;
#X obj 257 188 sel 0 1;
#X msg 257 280 -1;
#X msg 335 280 1;
#X obj 124 149 t b b b;
#X obj 124 74 r NUDGE!;
#X obj 157 193 r NUDGE-RANGE;
#X obj 247 308 inlet;
#X obj 232 397 outlet;
#X obj 124 96 spigot;
#X obj 185 79 r parameters2-s;
#X connect 0 0 4 0;
#X connect 1 0 2 0;
#X connect 2 0 14 0;
#X connect 3 0 7 0;
#X connect 4 0 6 0;
#X connect 5 0 2 0;
#X connect 5 1 2 1;
#X connect 6 0 5 0;
#X connect 7 0 8 0;
#X connect 7 1 9 0;
#X connect 8 0 6 1;
#X connect 9 0 6 1;
#X connect 10 0 0 0;
#X connect 10 1 1 0;
#X connect 10 2 3 0;
#X connect 11 0 15 0;
#X connect 12 0 0 1;
#X connect 13 0 1 1;
#X connect 15 0 10 0;
#X connect 16 0 15 1;
#X restore 350 169 pd nudge-parameters;
#X obj 27 148 r \$0-kick-sweep-s;
#X obj 27 225 s \$0-kick-sweep-r;
#X obj 209 146 r \$0-kick-wform-s;
#X obj 209 223 s \$0-kick-wform-r;
#X obj 350 146 r \$0-flam-s;
#X obj 350 223 s \$0-flam-r;
#X obj 23 309 clip 0 127;
#N canvas 0 22 484 497 nudge-parameters 0;
#X obj 124 234 random;
#X obj 232 335 f;
#X obj 232 368 +;
#X obj 257 166 random 2;
#X obj 124 275 t f f;
#X obj 124 351 t b f;
#X obj 124 297 *;
#X obj 257 188 sel 0 1;
#X msg 257 280 -1;
#X msg 335 280 1;
#X obj 124 149 t b b b;
#X obj 124 74 r NUDGE!;
#X obj 157 193 r NUDGE-RANGE;
#X obj 247 308 inlet;
#X obj 232 397 outlet;
#X obj 124 96 spigot;
#X obj 185 79 r parameters2-s;
#X connect 0 0 4 0;
#X connect 1 0 2 0;
#X connect 2 0 14 0;
#X connect 3 0 7 0;
#X connect 4 0 6 0;
#X connect 5 0 2 0;
#X connect 5 1 2 1;
#X connect 6 0 5 0;
#X connect 7 0 8 0;
#X connect 7 1 9 0;
#X connect 8 0 6 1;
#X connect 9 0 6 1;
#X connect 10 0 0 0;
#X connect 10 1 1 0;
#X connect 10 2 3 0;
#X connect 11 0 15 0;
#X connect 12 0 0 1;
#X connect 13 0 1 1;
#X connect 15 0 10 0;
#X connect 16 0 15 1;
#X restore 23 287 pd nudge-parameters;
#X obj 205 307 clip 0 127;
#N canvas 0 22 484 497 nudge-parameters 0;
#X obj 124 234 random;
#X obj 232 335 f;
#X obj 232 368 +;
#X obj 257 166 random 2;
#X obj 124 275 t f f;
#X obj 124 351 t b f;
#X obj 124 297 *;
#X obj 257 188 sel 0 1;
#X msg 257 280 -1;
#X msg 335 280 1;
#X obj 124 149 t b b b;
#X obj 124 74 r NUDGE!;
#X obj 157 193 r NUDGE-RANGE;
#X obj 247 308 inlet;
#X obj 232 397 outlet;
#X obj 124 96 spigot;
#X obj 185 79 r parameters2-s;
#X connect 0 0 4 0;
#X connect 1 0 2 0;
#X connect 2 0 14 0;
#X connect 3 0 7 0;
#X connect 4 0 6 0;
#X connect 5 0 2 0;
#X connect 5 1 2 1;
#X connect 6 0 5 0;
#X connect 7 0 8 0;
#X connect 7 1 9 0;
#X connect 8 0 6 1;
#X connect 9 0 6 1;
#X connect 10 0 0 0;
#X connect 10 1 1 0;
#X connect 10 2 3 0;
#X connect 11 0 15 0;
#X connect 12 0 0 1;
#X connect 13 0 1 1;
#X connect 15 0 10 0;
#X connect 16 0 15 1;
#X restore 205 285 pd nudge-parameters;
#N canvas 0 22 484 497 nudge-attenuators 0;
#X obj 124 234 random;
#X obj 232 335 f;
#X obj 232 368 +;
#X obj 257 166 random 2;
#X obj 124 275 t f f;
#X obj 124 351 t b f;
#X obj 124 297 *;
#X obj 257 188 sel 0 1;
#X msg 257 280 -1;
#X msg 335 280 1;
#X obj 124 149 t b b b;
#X obj 124 71 r NUDGE!;
#X obj 157 193 r NUDGE-RANGE;
#X obj 247 308 inlet;
#X obj 232 397 outlet;
#X obj 124 93 spigot;
#X obj 201 76 r attenuators2-s;
#X connect 0 0 4 0;
#X connect 1 0 2 0;
#X connect 2 0 14 0;
#X connect 3 0 7 0;
#X connect 4 0 6 0;
#X connect 5 0 2 0;
#X connect 5 1 2 1;
#X connect 6 0 5 0;
#X connect 7 0 8 0;
#X connect 7 1 9 0;
#X connect 8 0 6 1;
#X connect 9 0 6 1;
#X connect 10 0 0 0;
#X connect 10 1 1 0;
#X connect 10 2 3 0;
#X connect 11 0 15 0;
#X connect 12 0 0 1;
#X connect 13 0 1 1;
#X connect 15 0 10 0;
#X connect 16 0 15 1;
#X restore 353 280 pd nudge-attenuators;
#N canvas 0 22 484 497 nudge-parameters 0;
#X obj 124 234 random;
#X obj 232 335 f;
#X obj 232 368 +;
#X obj 257 166 random 2;
#X obj 124 275 t f f;
#X obj 124 351 t b f;
#X obj 124 297 *;
#X obj 257 188 sel 0 1;
#X msg 257 280 -1;
#X msg 335 280 1;
#X obj 124 149 t b b b;
#X obj 124 74 r NUDGE!;
#X obj 157 193 r NUDGE-RANGE;
#X obj 247 308 inlet;
#X obj 232 397 outlet;
#X obj 124 96 spigot;
#X obj 185 79 r parameters2-s;
#X connect 0 0 4 0;
#X connect 1 0 2 0;
#X connect 2 0 14 0;
#X connect 3 0 7 0;
#X connect 4 0 6 0;
#X connect 5 0 2 0;
#X connect 5 1 2 1;
#X connect 6 0 5 0;
#X connect 7 0 8 0;
#X connect 7 1 9 0;
#X connect 8 0 6 1;
#X connect 9 0 6 1;
#X connect 10 0 0 0;
#X connect 10 1 1 0;
#X connect 10 2 3 0;
#X connect 11 0 15 0;
#X connect 12 0 0 1;
#X connect 13 0 1 1;
#X connect 15 0 10 0;
#X connect 16 0 15 1;
#X restore 337 41 pd nudge-parameters;
#X obj 354 305 clip 0 127;
#X obj 353 254 r \$0-acc-level-s;
#X obj 354 331 s \$0-acc-level-r;
#X obj 23 264 r \$0-flam-prob-s;
#X obj 23 341 s \$0-flam-prob-r;
#X obj 205 262 r \$0-acc-prob-s;
#X obj 205 339 s \$0-acc-prob-r;
#X obj 23 448 clip 0 127;
#N canvas 0 22 484 497 nudge-parameters 0;
#X obj 124 234 random;
#X obj 232 335 f;
#X obj 232 368 +;
#X obj 257 166 random 2;
#X obj 124 275 t f f;
#X obj 124 351 t b f;
#X obj 124 297 *;
#X obj 257 188 sel 0 1;
#X msg 257 280 -1;
#X msg 335 280 1;
#X obj 124 149 t b b b;
#X obj 124 74 r NUDGE!;
#X obj 157 193 r NUDGE-RANGE;
#X obj 247 308 inlet;
#X obj 232 397 outlet;
#X obj 124 96 spigot;
#X obj 185 79 r parameters2-s;
#X connect 0 0 4 0;
#X connect 1 0 2 0;
#X connect 2 0 14 0;
#X connect 3 0 7 0;
#X connect 4 0 6 0;
#X connect 5 0 2 0;
#X connect 5 1 2 1;
#X connect 6 0 5 0;
#X connect 7 0 8 0;
#X connect 7 1 9 0;
#X connect 8 0 6 1;
#X connect 9 0 6 1;
#X connect 10 0 0 0;
#X connect 10 1 1 0;
#X connect 10 2 3 0;
#X connect 11 0 15 0;
#X connect 12 0 0 1;
#X connect 13 0 1 1;
#X connect 15 0 10 0;
#X connect 16 0 15 1;
#X restore 23 426 pd nudge-parameters;
#X obj 205 446 clip 0 127;
#N canvas 0 22 484 497 nudge-parameters 0;
#X obj 124 234 random;
#X obj 232 335 f;
#X obj 232 368 +;
#X obj 257 166 random 2;
#X obj 124 275 t f f;
#X obj 124 351 t b f;
#X obj 124 297 *;
#X obj 257 188 sel 0 1;
#X msg 257 280 -1;
#X msg 335 280 1;
#X obj 124 149 t b b b;
#X obj 124 74 r NUDGE!;
#X obj 157 193 r NUDGE-RANGE;
#X obj 247 308 inlet;
#X obj 232 397 outlet;
#X obj 124 96 spigot;
#X obj 185 79 r parameters2-s;
#X connect 0 0 4 0;
#X connect 1 0 2 0;
#X connect 2 0 14 0;
#X connect 3 0 7 0;
#X connect 4 0 6 0;
#X connect 5 0 2 0;
#X connect 5 1 2 1;
#X connect 6 0 5 0;
#X connect 7 0 8 0;
#X connect 7 1 9 0;
#X connect 8 0 6 1;
#X connect 9 0 6 1;
#X connect 10 0 0 0;
#X connect 10 1 1 0;
#X connect 10 2 3 0;
#X connect 11 0 15 0;
#X connect 12 0 0 1;
#X connect 13 0 1 1;
#X connect 15 0 10 0;
#X connect 16 0 15 1;
#X restore 205 424 pd nudge-parameters;
#X obj 23 403 r \$0-drive-s;
#X obj 23 480 s \$0-drive-r;
#X obj 205 401 r \$0-tone-s;
#X obj 205 478 s \$0-tone-r;
#N canvas 0 22 484 497 nudge-freq 0;
#X obj 124 234 random;
#X obj 232 335 f;
#X obj 232 368 +;
#X obj 257 166 random 2;
#X obj 124 275 t f f;
#X obj 124 351 t b f;
#X obj 124 297 *;
#X obj 257 188 sel 0 1;
#X msg 257 280 -1;
#X msg 335 280 1;
#X obj 124 149 t b b b;
#X obj 124 51 r NUDGE!;
#X obj 157 193 r NUDGE-RANGE;
#X obj 247 308 inlet;
#X obj 232 397 outlet;
#X obj 124 73 spigot;
#X obj 185 56 r frequencies2-s;
#X connect 0 0 4 0;
#X connect 1 0 2 0;
#X connect 2 0 14 0;
#X connect 3 0 7 0;
#X connect 4 0 6 0;
#X connect 5 0 2 0;
#X connect 5 1 2 1;
#X connect 6 0 5 0;
#X connect 7 0 8 0;
#X connect 7 1 9 0;
#X connect 8 0 6 1;
#X connect 9 0 6 1;
#X connect 10 0 0 0;
#X connect 10 1 1 0;
#X connect 10 2 3 0;
#X connect 11 0 15 0;
#X connect 12 0 0 1;
#X connect 13 0 1 1;
#X connect 15 0 10 0;
#X connect 16 0 15 1;
#X restore 22 48 pd nudge-freq;
#X connect 0 0 5 0;
#X connect 1 0 7 0;
#X connect 2 0 9 0;
#X connect 3 0 1 0;
#X connect 4 0 43 0;
#X connect 6 0 3 0;
#X connect 8 0 27 0;
#X connect 10 0 17 0;
#X connect 11 0 10 0;
#X connect 12 0 19 0;
#X connect 13 0 12 0;
#X connect 14 0 21 0;
#X connect 15 0 14 0;
#X connect 16 0 11 0;
#X connect 18 0 13 0;
#X connect 20 0 15 0;
#X connect 22 0 32 0;
#X connect 23 0 22 0;
#X connect 24 0 34 0;
#X connect 25 0 24 0;
#X connect 26 0 28 0;
#X connect 27 0 2 0;
#X connect 28 0 30 0;
#X connect 29 0 26 0;
#X connect 31 0 23 0;
#X connect 33 0 25 0;
#X connect 35 0 40 0;
#X connect 36 0 35 0;
#X connect 37 0 42 0;
#X connect 38 0 37 0;
#X connect 39 0 36 0;
#X connect 41 0 38 0;
#X connect 43 0 0 0;
#X restore 391 2 pd parameter-nudging-system;
#N canvas 302 64 1008 752 savetest 0;
#X obj 290 212 pack f f;
#X obj 305 133 loadbang;
#X obj 305 155 f \$1;
#X obj 290 184 f;
#X obj 292 453 textfile;
#X msg 475 436 rewind;
#X obj 165 78 loadbang;
#X obj 19 174 delay 10;
#X text 59 52 WRITE;
#X obj 19 54 inlet;
#X obj 19 208 f;
#X obj 19 247 pack f f;
#X obj 165 126 t f f;
#X obj 165 104 f \$1;
#X msg -193 97 bang;
#X obj 91 611 textfile;
#X msg 97 236 clear;
#X obj 19 118 t b f b b;
#X obj 308 21 inlet;
#X text 353 19 LOAD;
#X msg 399 415 bang;
#X obj 412 375 t b b;
#X obj 308 43 t b f;
#X obj 290 90 t b b;
#X obj -412 344 f;
#N canvas 0 22 1084 659 unpack-values 0;
#X obj 182 32 inlet;
#X obj 181 578 s \$0-kick-pitch-r;
#X obj 194 557 s \$0-kick-decay-r;
#X obj 211 531 s \$0-kick-envmod-r;
#X obj 224 510 s \$0-kick-sweep-r;
#X obj 238 485 s \$0-kick-wform-r;
#X obj 251 464 s \$0-flam-r;
#X obj 268 438 s \$0-flam-prob-r;
#X obj 281 417 s \$0-acc-prob-r;
#X obj 298 394 s \$0-acc-level-r;
#X obj 311 373 s \$0-drive-r;
#X obj 337 317 s \$0-tone-r;
#X obj 182 59 unpack f f f f f f f f f f f;
#X connect 0 0 12 0;
#X connect 12 0 1 0;
#X connect 12 1 2 0;
#X connect 12 2 3 0;
#X connect 12 3 4 0;
#X connect 12 4 5 0;
#X connect 12 5 6 0;
#X connect 12 6 7 0;
#X connect 12 7 8 0;
#X connect 12 8 9 0;
#X connect 12 9 10 0;
#X connect 12 10 11 0;
#X restore 292 479 pd unpack-values;
#X obj 411 85 f;
#X obj 411 24 r SAVE-S;
#X msg 19 329 write statesave/\$1-kickpreset-\$2-ss.txt;
#X msg 291 297 read statesave/\$1-kickpreset-\$2-ss.txt;
#X obj -400 22 r \$0-kick-pitch-s;
#X obj -387 44 r \$0-kick-decay-s;
#X obj -371 64 r \$0-kick-envmod-s;
#X obj -355 84 r \$0-kick-sweep-s;
#X obj -337 103 r \$0-kick-wform-s;
#X obj -321 123 r \$0-flam-s;
#X obj -305 143 r \$0-flam-prob-s;
#X obj -284 166 r \$0-acc-prob-s;
#X obj -264 195 r \$0-acc-level-s;
#X obj -248 215 r \$0-drive-s;
#X obj -232 235 r \$0-tone-s;
#X obj 426 56 r \$0-load-s;
#X obj 411 107 s \$0-write-r;
#X msg -378 522 set \$1 \$2 \$3 \$4 \$5 \$6 \$7 \$8 \$9 \$10 \$11;
#X obj -377 481 pack f f f f f f f f f f f;
#X connect 0 0 29 0;
#X connect 1 0 2 0;
#X connect 2 0 3 1;
#X connect 3 0 0 0;
#X connect 4 0 25 0;
#X connect 5 0 4 0;
#X connect 6 0 13 0;
#X connect 7 0 10 0;
#X connect 9 0 17 0;
#X connect 10 0 11 0;
#X connect 11 0 28 0;
#X connect 12 0 10 1;
#X connect 13 0 12 0;
#X connect 14 0 24 0;
#X connect 16 0 15 0;
#X connect 17 0 7 0;
#X connect 17 1 11 1;
#X connect 17 2 14 0;
#X connect 17 3 16 0;
#X connect 18 0 22 0;
#X connect 20 0 4 0;
#X connect 21 0 20 0;
#X connect 21 1 5 0;
#X connect 22 0 23 0;
#X connect 22 1 0 1;
#X connect 23 0 21 0;
#X connect 23 1 3 0;
#X connect 24 0 44 0;
#X connect 26 0 42 0;
#X connect 27 0 26 0;
#X connect 28 0 15 0;
#X connect 29 0 4 0;
#X connect 30 0 24 1;
#X connect 31 0 44 1;
#X connect 32 0 44 2;
#X connect 33 0 44 3;
#X connect 34 0 44 4;
#X connect 35 0 44 5;
#X connect 36 0 44 6;
#X connect 37 0 44 7;
#X connect 38 0 44 8;
#X connect 39 0 44 9;
#X connect 40 0 44 10;
#X connect 41 0 26 1;
#X connect 43 0 15 0;
#X connect 44 0 43 0;
#X restore 391 202 pd savetest;
#X obj 391 150 r \$0-write-s;
#X obj 454 174 r \$0-load-s;
#N canvas 376 23 1280 809 external-messages 0;
#X floatatom -71 513 5 0 0 0 - - - 0;
#X obj 43 328 spigot;
#X obj 76 288 tgl 15 0 empty empty empty 17 7 0 10 #fcfcfc #000000 #000000 0 1;
#X obj 112 272 ==;
#X obj 127 248 f \$1;
#X obj 127 224 loadbang;
#X msg 43 202 \$1 \$2;
#X msg 43 156 symbol \$1;
#X obj 43 180 pack s f;
#X obj -71 492 f;
#X obj -71 440 t b f;
#X obj -71 463 spigot;
#X obj 43 62 unpack s f f;
#X symbolatom 43 94 10 0 0 0 - - - 0;
#X obj 76 308 t f f;
#X obj 103 332 s \$0-msg-spigot;
#X obj -23 447 r \$0-msg-spigot;
#X floatatom -45 657 5 0 0 0 - - - 0;
#X obj -45 636 f;
#X obj -45 584 t b f;
#X obj -45 607 spigot;
#X obj 3 591 r \$0-msg-spigot;
#X floatatom 106 549 5 0 0 0 - - - 0;
#X obj 106 528 f;
#X obj 106 476 t b f;
#X obj 106 499 spigot;
#X obj 154 483 r \$0-msg-spigot;
#X floatatom 145 687 5 0 0 0 - - - 0;
#X obj 145 666 f;
#X obj 145 614 t b f;
#X obj 145 637 spigot;
#X obj 193 621 r \$0-msg-spigot;
#X floatatom 270 523 5 0 0 0 - - - 0;
#X obj 270 502 f;
#X obj 270 450 t b f;
#X obj 270 473 spigot;
#X obj 318 457 r \$0-msg-spigot;
#X obj 43 14 r kick;
#X obj 43 380 route PITCH HOLD DECAY EG2 SWEEP WFORM FLAM FLAM-PROB ACC-PROB ACCENT DRIVE TONE;
#X floatatom 315 690 5 0 0 0 - - - 0;
#X obj 315 669 f;
#X obj 315 617 t b f;
#X obj 315 640 spigot;
#X obj 363 624 r \$0-msg-spigot;
#X floatatom 442 535 5 0 0 0 - - - 0;
#X obj 442 514 f;
#X obj 442 462 t b f;
#X obj 442 485 spigot;
#X obj 490 469 r \$0-msg-spigot;
#X floatatom 479 685 5 0 0 0 - - - 0;
#X obj 479 664 f;
#X obj 479 612 t b f;
#X obj 479 635 spigot;
#X obj 527 619 r \$0-msg-spigot;
#X floatatom 622 527 5 0 0 0 - - - 0;
#X obj 622 506 f;
#X obj 622 454 t b f;
#X obj 622 477 spigot;
#X obj 670 461 r \$0-msg-spigot;
#X floatatom 654 680 5 0 0 0 - - - 0;
#X obj 654 659 f;
#X obj 654 607 t b f;
#X obj 654 630 spigot;
#X obj 702 614 r \$0-msg-spigot;
#X floatatom 784 516 5 0 0 0 - - - 0;
#X obj 784 495 f;
#X obj 784 443 t b f;
#X obj 784 466 spigot;
#X obj 832 450 r \$0-msg-spigot;
#X floatatom 816 707 5 0 0 0 - - - 0;
#X obj 816 686 f;
#X obj 816 634 t b f;
#X obj 816 657 spigot;
#X obj 864 641 r \$0-msg-spigot;
#X obj -71 533 s \$0-kick-pitch-r;
#X obj -45 677 s \$0-kick-hold-r;
#X obj 106 569 s \$0-kick-decay-r;
#X obj 145 707 s \$0-kick-envmod-r;
#X obj 270 543 s \$0-kick-sweep-r;
#X obj 315 710 s \$0-kick-wform-r;
#X obj 442 555 s \$0-flam-r;
#X obj 479 705 s \$0-flam-prob-r;
#X obj 622 547 s \$0-acc-prob-r;
#X obj 654 700 s \$0-acc-level-r;
#X obj 784 536 s \$0-drive-r;
#X obj 816 727 s \$0-tone-r;
#X connect 0 0 74 0;
#X connect 1 0 38 0;
#X connect 2 0 14 0;
#X connect 3 0 2 0;
#X connect 4 0 3 1;
#X connect 5 0 4 0;
#X connect 6 0 1 0;
#X connect 7 0 8 0;
#X connect 8 0 6 0;
#X connect 9 0 0 0;
#X connect 10 0 11 0;
#X connect 10 1 9 1;
#X connect 11 0 9 0;
#X connect 12 0 13 0;
#X connect 12 1 8 1;
#X connect 12 2 3 0;
#X connect 13 0 7 0;
#X connect 14 0 1 1;
#X connect 14 1 15 0;
#X connect 16 0 11 1;
#X connect 17 0 75 0;
#X connect 18 0 17 0;
#X connect 19 0 20 0;
#X connect 19 1 18 1;
#X connect 20 0 18 0;
#X connect 21 0 20 1;
#X connect 22 0 76 0;
#X connect 23 0 22 0;
#X connect 24 0 25 0;
#X connect 24 1 23 1;
#X connect 25 0 23 0;
#X connect 26 0 25 1;
#X connect 27 0 77 0;
#X connect 28 0 27 0;
#X connect 29 0 30 0;
#X connect 29 1 28 1;
#X connect 30 0 28 0;
#X connect 31 0 30 1;
#X connect 32 0 78 0;
#X connect 33 0 32 0;
#X connect 34 0 35 0;
#X connect 34 1 33 1;
#X connect 35 0 33 0;
#X connect 36 0 35 1;
#X connect 37 0 12 0;
#X connect 38 0 10 0;
#X connect 38 1 19 0;
#X connect 38 2 24 0;
#X connect 38 3 29 0;
#X connect 38 4 34 0;
#X connect 38 5 41 0;
#X connect 38 6 46 0;
#X connect 38 7 51 0;
#X connect 38 8 56 0;
#X connect 38 9 61 0;
#X connect 38 10 66 0;
#X connect 38 11 71 0;
#X connect 39 0 79 0;
#X connect 40 0 39 0;
#X connect 41 0 42 0;
#X connect 41 1 40 1;
#X connect 42 0 40 0;
#X connect 43 0 42 1;
#X connect 44 0 80 0;
#X connect 45 0 44 0;
#X connect 46 0 47 0;
#X connect 46 1 45 1;
#X connect 47 0 45 0;
#X connect 48 0 47 1;
#X connect 49 0 81 0;
#X connect 50 0 49 0;
#X connect 51 0 52 0;
#X connect 51 1 50 1;
#X connect 52 0 50 0;
#X connect 53 0 52 1;
#X connect 54 0 82 0;
#X connect 55 0 54 0;
#X connect 56 0 57 0;
#X connect 56 1 55 1;
#X connect 57 0 55 0;
#X connect 58 0 57 1;
#X connect 59 0 83 0;
#X connect 60 0 59 0;
#X connect 61 0 62 0;
#X connect 61 1 60 1;
#X connect 62 0 60 0;
#X connect 63 0 62 1;
#X connect 64 0 84 0;
#X connect 65 0 64 0;
#X connect 66 0 67 0;
#X connect 66 1 65 1;
#X connect 67 0 65 0;
#X connect 68 0 67 1;
#X connect 69 0 85 0;
#X connect 70 0 69 0;
#X connect 71 0 72 0;
#X connect 71 1 70 1;
#X connect 72 0 70 0;
#X connect 73 0 72 1;
#X restore 390 -22 pd external-messages;
#N canvas 196 112 1244 616 push-controll 0;
#N canvas 208 58 1232 580 push-encoder 0;
#X obj 53 80 push-encoder-reader;
#X obj 53 -17 ctlin 71;
#X obj 298 75 push-encoder-reader;
#X obj 298 -22 ctlin 72;
#X obj 536 77 push-encoder-reader;
#X obj 781 72 push-encoder-reader;
#X obj 536 -20 ctlin 73;
#X obj 781 -25 ctlin 74;
#X obj 56 241 push-encoder-reader;
#X obj 56 154 ctlin 75;
#X obj 54 38 main-menu;
#X obj 105 20 r \$0-mm;
#N canvas 150 175 450 300 sm1 0;
#X obj 109 64 r \$0-sm;
#X obj 109 102 sel;
#X obj 75 170 outlet;
#X msg 108 123 1;
#X msg 135 123 0;
#X obj 75 149 spigot;
#X obj 75 37 inlet;
#X obj 124 83 r \$0-sm1;
#X connect 0 0 1 0;
#X connect 1 0 3 0;
#X connect 1 1 4 0;
#X connect 3 0 5 1;
#X connect 4 0 5 1;
#X connect 5 0 2 0;
#X connect 6 0 5 0;
#X connect 7 0 1 1;
#X restore 54 57 pd sm1;
#X obj 299 29 main-menu;
#X obj 350 11 r \$0-mm;
#N canvas 150 175 450 300 sm1 0;
#X obj 109 64 r \$0-sm;
#X obj 109 102 sel;
#X obj 75 170 outlet;
#X msg 108 123 1;
#X msg 135 123 0;
#X obj 75 149 spigot;
#X obj 75 37 inlet;
#X obj 124 83 r \$0-sm1;
#X connect 0 0 1 0;
#X connect 1 0 3 0;
#X connect 1 1 4 0;
#X connect 3 0 5 1;
#X connect 4 0 5 1;
#X connect 5 0 2 0;
#X connect 6 0 5 0;
#X connect 7 0 1 1;
#X restore 299 48 pd sm1;
#X obj 537 20 main-menu;
#X obj 588 2 r \$0-mm;
#N canvas 150 175 450 300 sm1 0;
#X obj 109 64 r \$0-sm;
#X obj 109 102 sel;
#X obj 75 170 outlet;
#X msg 108 123 1;
#X msg 135 123 0;
#X obj 75 149 spigot;
#X obj 75 37 inlet;
#X obj 124 83 r \$0-sm1;
#X connect 0 0 1 0;
#X connect 1 0 3 0;
#X connect 1 1 4 0;
#X connect 3 0 5 1;
#X connect 4 0 5 1;
#X connect 5 0 2 0;
#X connect 6 0 5 0;
#X connect 7 0 1 1;
#X restore 537 39 pd sm1;
#X obj 781 15 main-menu;
#X obj 832 -3 r \$0-mm;
#N canvas 150 175 450 300 sm1 0;
#X obj 109 64 r \$0-sm;
#X obj 109 102 sel;
#X obj 75 170 outlet;
#X msg 108 123 1;
#X msg 135 123 0;
#X obj 75 149 spigot;
#X obj 75 37 inlet;
#X obj 124 83 r \$0-sm1;
#X connect 0 0 1 0;
#X connect 1 0 3 0;
#X connect 1 1 4 0;
#X connect 3 0 5 1;
#X connect 4 0 5 1;
#X connect 5 0 2 0;
#X connect 6 0 5 0;
#X connect 7 0 1 1;
#X restore 781 34 pd sm1;
#X obj 57 194 main-menu;
#X obj 108 176 r \$0-mm;
#N canvas 150 175 450 300 sm1 0;
#X obj 109 64 r \$0-sm;
#X obj 109 102 sel;
#X obj 75 170 outlet;
#X msg 108 123 1;
#X msg 135 123 0;
#X obj 75 149 spigot;
#X obj 75 37 inlet;
#X obj 124 83 r \$0-sm1;
#X connect 0 0 1 0;
#X connect 1 0 3 0;
#X connect 1 1 4 0;
#X connect 3 0 5 1;
#X connect 4 0 5 1;
#X connect 5 0 2 0;
#X connect 6 0 5 0;
#X connect 7 0 1 1;
#X restore 57 213 pd sm1;
#X text 37 -47 Encoder to volume (submenu1);
#X obj 164 58 r \$0-1-s;
#X obj 53 99 s \$0-1-r;
#X obj 343 49 r \$0-2-s;
#X obj 298 96 s \$0-2-r;
#X obj 604 42 r \$0-3-s;
#X obj 536 98 s \$0-3-r;
#X obj 867 36 r \$0-4-s;
#X obj 781 93 s \$0-4-r;
#X obj 132 215 r \$0-5-s;
#X obj 56 265 s \$0-5-r;
#X connect 0 0 27 0;
#X connect 1 0 10 0;
#X connect 2 0 29 0;
#X connect 3 0 13 0;
#X connect 4 0 31 0;
#X connect 5 0 33 0;
#X connect 6 0 16 0;
#X connect 7 0 19 0;
#X connect 8 0 35 0;
#X connect 9 0 22 0;
#X connect 10 0 12 0;
#X connect 11 0 10 1;
#X connect 12 0 0 0;
#X connect 13 0 15 0;
#X connect 14 0 13 1;
#X connect 15 0 2 0;
#X connect 16 0 18 0;
#X connect 17 0 16 1;
#X connect 18 0 4 0;
#X connect 19 0 21 0;
#X connect 20 0 19 1;
#X connect 21 0 5 0;
#X connect 22 0 24 0;
#X connect 23 0 22 1;
#X connect 24 0 8 0;
#X connect 26 0 0 1;
#X connect 28 0 2 1;
#X connect 30 0 4 1;
#X connect 32 0 5 1;
#X connect 34 0 8 1;
#X restore 21 141 pd push-encoder;
#N canvas 454 25 1440 789 push-display 0;
#X obj 146 -216 t b;
#X obj 147 -3 push-mk1-display 24;
#X obj 146 -279 main-menu;
#X obj 172 -301 r \$0-mm;
#X obj 146 -328 r \$0-sm;
#X obj 433 0 push-mk1-display 25;
#X msg 433 -33 symbol :\$1;
#X msg 509 -31 symbol :\$1;
#X msg 585 -31 symbol :\$1;
#X obj 436 -75 f;
#X obj 507 -64 f;
#X obj 584 -82 f;
#X obj 436 -253 main-menu;
#X obj 462 -275 r \$0-mm;
#X obj 436 -302 r \$0-sm;
#X obj 436 -181 t b;
#X obj 664 -53 f;
#X obj 741 -60 f;
#X msg 663 -29 symbol :\$1;
#X msg 742 -29 symbol :\$1;
#N canvas 150 175 450 300 sm 0;
#X obj 109 64 r \$0-sm;
#X obj 109 102 sel;
#X obj 124 83 r \$0-sm1;
#X obj 75 170 outlet;
#X msg 108 123 1;
#X msg 135 123 0;
#X obj 75 149 spigot;
#X obj 75 37 inlet;
#X connect 0 0 1 0;
#X connect 1 0 4 0;
#X connect 1 1 5 0;
#X connect 2 0 1 1;
#X connect 4 0 6 1;
#X connect 5 0 6 1;
#X connect 6 0 3 0;
#X connect 7 0 6 0;
#X restore 436 -216 pd sm;
#N canvas 150 175 450 300 sm 0;
#X obj 109 64 r \$0-sm;
#X obj 109 102 sel;
#X obj 124 83 r \$0-sm1;
#X obj 75 170 outlet;
#X msg 108 123 1;
#X msg 135 123 0;
#X obj 75 149 spigot;
#X obj 75 37 inlet;
#X connect 0 0 1 0;
#X connect 1 0 4 0;
#X connect 1 1 5 0;
#X connect 2 0 1 1;
#X connect 4 0 6 1;
#X connect 5 0 6 1;
#X connect 6 0 3 0;
#X connect 7 0 6 0;
#X restore 146 -246 pd sm;
#X msg 247 -46 symbol;
#X msg 267 -24 symbol;
#X msg 902 -29 symbol;
#X msg 982 -28 symbol;
#X obj 436 -123 r \$0-1-s;
#X obj 497 -98 r \$0-2-s;
#X obj 585 -130 r \$0-3-s;
#X obj 664 -101 r \$0-4-s;
#X obj 739 -121 r \$0-5-s;
#X msg 822 -27 symbol;
#X msg 147 -196 symbol PITCH;
#X msg 167 -174 symbol FMOD;
#X msg 177 -146 symbol INDICE;
#X msg 197 -124 symbol CRELEASE;
#X msg 216 -96 symbol MRELEASE;
#X msg 237 -74 symbol;
#X connect 0 0 32 0;
#X connect 0 0 33 0;
#X connect 0 0 34 0;
#X connect 0 0 35 0;
#X connect 0 0 36 0;
#X connect 0 0 37 0;
#X connect 0 0 22 0;
#X connect 0 0 23 0;
#X connect 2 0 21 0;
#X connect 3 0 2 1;
#X connect 4 0 2 0;
#X connect 6 0 5 0;
#X connect 7 0 5 1;
#X connect 8 0 5 2;
#X connect 9 0 6 0;
#X connect 10 0 7 0;
#X connect 11 0 8 0;
#X connect 12 0 20 0;
#X connect 13 0 12 1;
#X connect 14 0 12 0;
#X connect 15 0 9 0;
#X connect 15 0 10 0;
#X connect 15 0 11 0;
#X connect 15 0 16 0;
#X connect 15 0 17 0;
#X connect 15 0 24 0;
#X connect 15 0 25 0;
#X connect 15 0 31 0;
#X connect 16 0 18 0;
#X connect 17 0 19 0;
#X connect 18 0 5 3;
#X connect 19 0 5 4;
#X connect 20 0 15 0;
#X connect 21 0 0 0;
#X connect 22 0 1 6;
#X connect 23 0 1 7;
#X connect 24 0 5 6;
#X connect 25 0 5 7;
#X connect 26 0 9 0;
#X connect 27 0 10 0;
#X connect 28 0 11 0;
#X connect 29 0 16 0;
#X connect 30 0 17 0;
#X connect 31 0 5 5;
#X connect 32 0 1 0;
#X connect 33 0 1 1;
#X connect 34 0 1 2;
#X connect 35 0 1 3;
#X connect 36 0 1 4;
#X connect 37 0 1 5;
#X restore 21 71 pd push-display;
#X obj 400 72 s \$0-mm;
#X obj 399 122 s \$0-sm1;
#X text 513 93 The Submenu number of the subpatch;
#X obj 399 144 loadbang;
#X msg 399 164 1;
#X obj 399 183 s \$0-sm2;
#X obj 231 97 hradio 16 1 0 8 empty empty empty 0 -8 0 10 #fcfcfc #000000 #000000 0;
#X obj 231 34 r all-menu;
#X obj 231 74 route;
#X obj 258 53 r \$0-mm;
#X obj 231 198 s \$0-sm;
#X obj 400 29 r \$0-main-menu-s;
#X obj 400 50 + 1;
#X obj 399 94 r \$0-sub-menu-s;
#X connect 5 0 6 0;
#X connect 6 0 7 0;
#X connect 8 0 12 0;
#X connect 9 0 10 0;
#X connect 10 0 8 0;
#X connect 11 0 10 1;
#X connect 13 0 14 0;
#X connect 14 0 2 0;
#X connect 15 0 3 0;
#X restore 399 313 pd push-controll;
#X connect 0 0 75 0;
#X connect 1 0 11 0;
#X connect 2 0 10 0;
#X connect 3 0 4 0;
#X connect 5 0 33 0;
#X connect 6 0 31 0;
#X connect 7 0 41 0;
#X connect 8 0 9 0;
#X connect 9 0 11 1;
#X connect 10 0 0 1;
#X connect 11 0 2 0;
#X connect 12 0 27 0;
#X connect 13 0 14 0;
#X connect 14 0 15 0;
#X connect 16 0 12 0;
#X connect 16 0 24 0;
#X connect 16 1 13 0;
#X connect 16 1 20 0;
#X connect 17 0 29 0;
#X connect 18 0 17 0;
#X connect 19 0 25 0;
#X connect 20 0 21 0;
#X connect 21 0 22 0;
#X connect 23 0 24 0;
#X connect 23 1 18 1;
#X connect 24 0 18 0;
#X connect 25 0 23 0;
#X connect 26 0 45 0;
#X connect 27 0 28 0;
#X connect 28 0 0 0;
#X connect 29 0 26 0;
#X connect 30 0 26 1;
#X connect 32 0 30 0;
#X connect 34 0 19 0;
#X connect 35 0 40 0;
#X connect 36 0 39 0;
#X connect 37 0 38 0;
#X connect 38 0 40 1;
#X connect 39 0 45 1;
#X connect 40 0 36 0;
#X connect 42 0 8 0;
#X connect 43 0 37 0;
#X connect 45 0 27 1;
#X connect 46 0 44 0;
#X connect 47 0 16 0;
#X connect 47 1 16 1;
#X connect 48 0 47 0;
#X connect 49 0 74 1;
#X connect 51 0 65 0;
#X connect 52 0 49 0;
#X connect 53 0 66 0;
#X connect 54 0 67 0;
#X connect 55 0 68 0;
#X connect 65 0 5 0;
#X connect 66 0 6 0;
#X connect 67 0 7 0;
#X connect 68 0 46 0;
#X connect 70 0 71 0;
#X connect 70 1 71 1;
#X connect 71 0 72 0;
#X connect 71 1 76 0;
#X connect 72 0 74 0;
#X connect 73 0 70 0;
#X connect 74 0 48 0;
#X connect 75 0 50 0;
#X connect 76 0 78 0;
#X connect 77 0 75 1;
#X connect 78 0 77 0;
#X connect 79 0 82 1;
#X connect 81 0 82 0;
#X connect 82 0 80 0;
#X connect 84 0 81 0;
#X connect 84 1 79 0;
#X connect 85 0 84 0;
#X connect 87 0 89 0;
#X connect 89 0 90 0;
#X connect 90 0 88 0;
#X connect 94 0 93 0;
#X connect 95 0 93 1;
#X coords 0 -1 1 1 220 270 2 100 100;
