#N canvas 183 25 1257 752 10;
#N canvas 67 328 928 507 dsp 0;
#X obj 391 13 inlet~;
#N canvas 170 51 450 300 reverberator-1 0;
#X obj 134 108 inlet~;
#X obj 204 109 inlet~;
#X obj 134 153 +~;
#X obj 189 152 -~;
#X obj 134 204 outlet~;
#X obj 186 223 outlet~;
#X obj 189 174 delwrite~ \$0-echo1 5.43216;
#X obj 186 201 delread~ \$0-echo1 5.43216;
#X connect 0 0 2 0;
#X connect 0 0 3 0;
#X connect 1 0 3 1;
#X connect 1 0 2 1;
#X connect 2 0 4 0;
#X connect 3 0 6 0;
#X connect 7 0 5 0;
#X restore 391 46 pd reverberator-1;
#N canvas 0 22 450 300 reverberator-2 0;
#X obj 134 108 inlet~;
#X obj 204 109 inlet~;
#X obj 134 153 +~;
#X obj 189 152 -~;
#X obj 134 204 outlet~;
#X obj 186 223 outlet~;
#X obj 186 201 delread~ \$0-echo2 8.45346;
#X obj 189 174 delwrite~ \$0-echo2 8.45346;
#X connect 0 0 2 0;
#X connect 0 0 3 0;
#X connect 1 0 3 1;
#X connect 1 0 2 1;
#X connect 2 0 4 0;
#X connect 3 0 7 0;
#X connect 6 0 5 0;
#X restore 391 82 pd reverberator-2;
#N canvas 0 22 450 300 reverberator-3 0;
#X obj 134 108 inlet~;
#X obj 204 109 inlet~;
#X obj 134 153 +~;
#X obj 189 152 -~;
#X obj 134 204 outlet~;
#X obj 186 223 outlet~;
#X obj 186 201 delread~ \$0-echo3 13.4367;
#X obj 189 174 delwrite~ \$0-echo3 13.4367;
#X connect 0 0 2 0;
#X connect 0 0 3 0;
#X connect 1 0 3 1;
#X connect 1 0 2 1;
#X connect 2 0 4 0;
#X connect 3 0 7 0;
#X connect 6 0 5 0;
#X restore 391 113 pd reverberator-3;
#N canvas 0 22 450 300 reverberator-4 0;
#X obj 134 108 inlet~;
#X obj 204 109 inlet~;
#X obj 134 153 +~;
#X obj 189 152 -~;
#X obj 134 204 outlet~;
#X obj 186 223 outlet~;
#X obj 189 174 delwrite~ \$0-echo4 21.5463;
#X obj 186 200 delread~ \$0-echo4 21.5463;
#X connect 0 0 2 0;
#X connect 0 0 3 0;
#X connect 1 0 3 1;
#X connect 1 0 2 1;
#X connect 2 0 4 0;
#X connect 3 0 6 0;
#X connect 7 0 5 0;
#X restore 391 145 pd reverberator-4;
#N canvas 0 22 450 300 reverberator-5 0;
#X obj 134 108 inlet~;
#X obj 204 109 inlet~;
#X obj 134 153 +~;
#X obj 189 152 -~;
#X obj 134 204 outlet~;
#X obj 186 223 outlet~;
#X obj 189 174 delwrite~ \$0-echo5 34.3876;
#X obj 186 201 delread~ \$0-echo5 34.3876;
#X connect 0 0 2 0;
#X connect 0 0 3 0;
#X connect 1 0 3 1;
#X connect 1 0 2 1;
#X connect 2 0 4 0;
#X connect 3 0 6 0;
#X connect 7 0 5 0;
#X restore 391 174 pd reverberator-5;
#N canvas 0 22 450 300 reverberator-6 0;
#X obj 134 108 inlet~;
#X obj 204 109 inlet~;
#X obj 134 153 +~;
#X obj 189 152 -~;
#X obj 134 204 outlet~;
#X obj 186 223 outlet~;
#X obj 189 174 delwrite~ \$0-echo6 55.5437;
#X obj 186 200 delread~ \$0-echo6 55.5437;
#X connect 0 0 2 0;
#X connect 0 0 3 0;
#X connect 1 0 3 1;
#X connect 1 0 2 1;
#X connect 2 0 4 0;
#X connect 3 0 6 0;
#X connect 7 0 5 0;
#X restore 391 206 pd reverberator-6;
#X obj 391 329 +~;
#X obj 490 329 +~;
#X obj 391 410 +~;
#X obj 435 410 -~;
#X obj 490 410 +~;
#X obj 507 448 -~;
#X obj 391 448 +~;
#X obj 435 448 +~;
#X obj 522 410 -~;
#X obj 475 448 -~;
#X obj 435 496 *~;
#X obj 391 496 *~;
#X obj 507 496 *~;
#X obj 475 496 *~;
#X obj 131 120 hsl 128 15 0 127 0 1 \$0-millerverb-reverb-s \$0-millerverb-reverb-r REVERB 133 7 0 10 #fcfcfc #000000 #000000 2200 1;
#X obj 391 634 delwrite~ \$0-loop1 60;
#X obj 435 611 delwrite~ \$0-loop2 71.9345;
#X obj 517 136 delread~ \$0-loop1 60;
#X obj 524 168 delread~ \$0-loop2 71.9345;
#X obj 475 584 delwrite~ \$0-loop3 86.754;
#X obj 507 554 delwrite~ \$0-loop4 95.945;
#X obj 578 283 delread~ \$0-loop3 86.754;
#X obj 541 250 delread~ \$0-loop4 95.945;
#X obj 611 342 / 127;
#X obj 247 393 lop~;
#X obj 247 423 lop~;
#X obj 314 393 lop~;
#X obj 314 423 lop~;
#X obj 131 136 hsl 128 15 0 127 0 1 \$0-millerverb-lowpass-s \$0-millerverb-lowpass-r LOWPASS 133 7 0 10 #fcfcfc #000000 #000000 7900 1;
#X obj 157 192 / 127;
#X obj 157 236 * 4950;
#X obj 157 258 + 50;
#X obj 157 280 pack 0 50;
#X obj 157 302 line;
#X obj 157 324 t f f f f;
#X obj 247 346 *~ 0.033;
#X obj 314 346 *~ 0.033;
#X obj 131 113 cnv 5 5 5 empty empty MILLERVERB 0 0 0 12 #fcfcfc #404040 0;
#X obj 284 196 cnv 5 5 5 empty empty RIGHT 0 0 0 8 #fcfcfc #404040 0;
#X obj 282 100 cnv 5 5 5 empty empty LPASS 0 0 0 8 #fcfcfc #404040 0;
#X obj 129 195 cnv 5 5 5 empty empty LEFT 0 0 0 8 #fcfcfc #404040 0;
#X obj 131 150 hsl 128 15 0 127 0 1 \$0-millerverb-drywet-s \$0-millerverb-drywet-r DRY/WET 133 7 0 10 #fcfcfc #000000 #000000 12700 1;
#X obj 196 484 *~;
#X text 160 484 DRY;
#X obj 29 298 / 127;
#X msg 29 251 127 \$1;
#X obj 29 273 -;
#X obj 29 323 pack 0 50;
#X obj 29 345 line~;
#X obj 90 285 / 127;
#X obj 90 309 pack 0 50;
#X obj 90 331 line~;
#X obj 247 462 *~;
#X obj 314 461 *~;
#X obj 29 210 t f f;
#X obj 611 391 pack 0 50;
#X obj 611 413 line~;
#X obj 611 435 +~;
#X obj 157 214 +;
#X obj 611 479 max~ -0.452;
#X obj 128 100 cnv 5 5 5 empty empty IN 0 0 0 8 #fcfcfc #404040 0;
#X obj 203 100 cnv 5 5 5 empty empty REVERB 0 0 0 8 #fcfcfc #404040 0;
#N canvas 100 22 593 735 state-saving-multiple-instances 0;
#X obj 164 26 loadbang;
#X obj 210 479 textfile;
#X msg 491 462 rewind;
#X msg 448 462 bang;
#X obj 88 707 textfile;
#X obj 448 421 t b b;
#X obj 88 355 f;
#X obj 101 578 f;
#X obj 27 402 t b b b;
#X msg 163 573 clear;
#X obj 230 235 outlet;
#X text 272 237 INSTANCE NUMBER;
#X obj 100 258 r \$0-millerverb-reverb-s;
#X obj 113 296 r \$0-millerverb-lowpass-s;
#X obj 142 324 r \$0-millerverb-drywet-s;
#X obj 210 650 s \$0-millerverb-reverb-r;
#X obj 279 602 s \$0-millerverb-drywet-r;
#X obj 191 200 t f f f;
#X obj 191 164 f \$1;
#X msg 101 682 write statesave/\$1-millerverb-ss.txt;
#X msg 210 454 read statesave/\$1-millerverb-ss.txt;
#X obj 164 59 t b b;
#X obj 27 378 bng 15 250 50 0 empty empty empty 17 7 0 10 #fcfcfc #000000 #000000;
#X obj 244 624 s \$0-millerverb-lowpass-r;
#X obj 27 234 r SAVE-S;
#X msg 88 436 set \$1 \$2 \$3 \$4;
#X obj 88 398 pack f f f f;
#X obj 172 360 r \$0-millerverb-gain-s;
#X obj 210 501 unpack f f f f;
#X obj 302 558 s \$0-millerverb-gain-r;
#X connect 0 0 21 0;
#X connect 1 0 28 0;
#X connect 2 0 1 0;
#X connect 3 0 1 0;
#X connect 5 0 3 0;
#X connect 5 1 2 0;
#X connect 6 0 26 0;
#X connect 7 0 19 0;
#X connect 8 0 7 0;
#X connect 8 1 6 0;
#X connect 8 2 9 0;
#X connect 9 0 4 0;
#X connect 12 0 6 1;
#X connect 13 0 26 1;
#X connect 14 0 26 2;
#X connect 17 0 7 1;
#X connect 17 1 20 0;
#X connect 17 2 10 0;
#X connect 18 0 17 0;
#X connect 19 0 4 0;
#X connect 20 0 1 0;
#X connect 21 0 5 0;
#X connect 21 1 18 0;
#X connect 22 0 8 0;
#X connect 24 0 22 0;
#X connect 25 0 4 0;
#X connect 26 0 25 0;
#X connect 27 0 26 3;
#X connect 28 0 15 0;
#X connect 28 1 23 0;
#X connect 28 2 16 0;
#X connect 28 3 29 0;
#X restore 807 319 pd state-saving-multiple-instances;
#X obj 247 599 *~ 0.5;
#X obj 313 624 *~;
#X obj 246 624 *~;
#X obj 313 664 clip~ -1 1;
#X obj 247 702 outlet~;
#X obj 313 702 outlet~;
#X obj 131 165 hsl 128 15 0 127 0 1 \$0-millerverb-gain-s \$0-millerverb-gain-r GAIN 133 7 0 10 #fcfcfc #000000 #000000 12700 1;
#X obj 46 504 r \$0-millerverb-gain-s;
#X obj 46 526 / 127;
#X obj 46 613 pack 0 50;
#X obj 46 635 line~;
#X obj 46 570 + 1;
#X obj 46 548 * 4;
#X obj 315 589 *~ 0.5;
#X obj 807 396 s \$0-instance-num;
#X obj 807 348 makefilename %d;
#X obj 205 113 cnv 5 5 5 empty \$0-instance-num 3 0 0 0 12 #fcfcfc #404040 0;
#X msg 807 373 label \$1;
#X obj 246 651 clip~ -1 1;
#N canvas 81 22 1117 745 state-saving-via-preset-manager-module 0;
#X obj 477 349 textfile;
#X msg 766 332 rewind;
#X msg 723 332 bang;
#X obj 243 690 textfile;
#X obj 723 293 t b b;
#X obj 244 356 f;
#X obj 257 579 f;
#X obj 190 474 t b b b;
#X msg 373 621 clear;
#X obj 244 180 delay 5;
#X obj 190 529 delay 10;
#X msg 190 314 bang;
#X obj 190 155 r STORE-S!;
#X obj 477 250 f;
#X obj 450 207 t b b;
#X obj 465 171 t b f;
#X obj 522 268 f \$1;
#X obj 477 295 pack f f;
#X obj 522 218 loadbang;
#X obj 257 609 pack f f;
#X obj 302 562 loadbang;
#X obj 302 584 f \$1;
#X obj 465 148 r preset-manager-scan;
#X obj 272 540 r preset-manager-store-slot;
#X msg 243 490 set \$1 \$2 \$3 \$4;
#X obj 244 423 pack f f f f;
#X obj 477 371 unpack f f f f;
#X msg 256 650 write statesave/\$1-\$2-millerverb-ss.txt;
#X msg 477 324 read statesave/\$1-\$2-millerverb-ss.txt;
#X obj 259 308 r \$0-millerverb-reverb-s;
#X obj 477 563 s \$0-millerverb-reverb-r;
#X obj 267 330 r \$0-millerverb-lowpass-s;
#X obj 504 511 s \$0-millerverb-lowpass-r;
#X obj 290 352 r \$0-millerverb-drywet-s;
#X obj 531 462 s \$0-millerverb-drywet-r;
#X obj 313 374 r \$0-millerverb-gain-s;
#X obj 581 413 s \$0-millerverb-gain-r;
#N canvas 0 22 1069 747 morph-parameters 0;
#X obj 176 94 inlet;
#X obj 176 236 pack f f;
#X obj 176 261 line;
#X obj 209 117 r preset-manager-morph-s;
#X msg 72 244 stop;
#X obj 72 214 r STOP-MORPH!;
#X obj 209 206 spigot;
#X obj 398 137 t f f;
#X obj 455 154 == 0;
#X obj 221 176 f;
#X floatatom 455 222 5 0 0 0 - - - 0;
#X obj 398 159 t b f;
#X floatatom 425 192 5 0 0 0 - - - 0;
#X obj 209 139 t f f;
#X obj 398 102 r parameters-s;
#X obj 176 288 outlet;
#X connect 0 0 1 0;
#X connect 1 0 2 0;
#X connect 2 0 15 0;
#X connect 3 0 13 0;
#X connect 4 0 2 0;
#X connect 5 0 4 0;
#X connect 6 0 1 1;
#X connect 7 0 11 0;
#X connect 7 1 8 0;
#X connect 8 0 10 0;
#X connect 9 0 6 0;
#X connect 10 0 1 1;
#X connect 11 0 9 0;
#X connect 11 1 12 0;
#X connect 12 0 6 1;
#X connect 13 0 6 0;
#X connect 13 1 9 1;
#X connect 14 0 7 0;
#X restore 504 487 pd morph-parameters;
#N canvas 0 22 1069 747 morph-parameters 0;
#X obj 176 94 inlet;
#X obj 176 236 pack f f;
#X obj 176 261 line;
#X obj 209 117 r preset-manager-morph-s;
#X msg 72 244 stop;
#X obj 72 214 r STOP-MORPH!;
#X obj 209 206 spigot;
#X obj 398 137 t f f;
#X obj 455 154 == 0;
#X obj 221 176 f;
#X floatatom 455 222 5 0 0 0 - - - 0;
#X obj 398 159 t b f;
#X floatatom 425 192 5 0 0 0 - - - 0;
#X obj 209 139 t f f;
#X obj 398 102 r parameters-s;
#X obj 176 288 outlet;
#X connect 0 0 1 0;
#X connect 1 0 2 0;
#X connect 2 0 15 0;
#X connect 3 0 13 0;
#X connect 4 0 2 0;
#X connect 5 0 4 0;
#X connect 6 0 1 1;
#X connect 7 0 11 0;
#X connect 7 1 8 0;
#X connect 8 0 10 0;
#X connect 9 0 6 0;
#X connect 10 0 1 1;
#X connect 11 0 9 0;
#X connect 11 1 12 0;
#X connect 12 0 6 1;
#X connect 13 0 6 0;
#X connect 13 1 9 1;
#X connect 14 0 7 0;
#X restore 477 538 pd morph-parameters;
#N canvas 0 22 1069 747 morph-parameters 0;
#X obj 176 94 inlet;
#X obj 176 236 pack f f;
#X obj 176 261 line;
#X obj 209 117 r preset-manager-morph-s;
#X msg 72 244 stop;
#X obj 72 214 r STOP-MORPH!;
#X obj 209 206 spigot;
#X obj 398 137 t f f;
#X obj 455 154 == 0;
#X obj 221 176 f;
#X floatatom 455 222 5 0 0 0 - - - 0;
#X obj 398 159 t b f;
#X floatatom 425 192 5 0 0 0 - - - 0;
#X obj 209 139 t f f;
#X obj 398 102 r parameters-s;
#X obj 176 288 outlet;
#X connect 0 0 1 0;
#X connect 1 0 2 0;
#X connect 2 0 15 0;
#X connect 3 0 13 0;
#X connect 4 0 2 0;
#X connect 5 0 4 0;
#X connect 6 0 1 1;
#X connect 7 0 11 0;
#X connect 7 1 8 0;
#X connect 8 0 10 0;
#X connect 9 0 6 0;
#X connect 10 0 1 1;
#X connect 11 0 9 0;
#X connect 11 1 12 0;
#X connect 12 0 6 1;
#X connect 13 0 6 0;
#X connect 13 1 9 1;
#X connect 14 0 7 0;
#X restore 531 437 pd morph-parameters;
#N canvas 0 22 1069 747 morph-parameters 0;
#X obj 176 94 inlet;
#X obj 176 236 pack f f;
#X obj 176 261 line;
#X obj 209 117 r preset-manager-morph-s;
#X msg 72 244 stop;
#X obj 72 214 r STOP-MORPH!;
#X obj 209 206 spigot;
#X obj 398 137 t f f;
#X obj 455 154 == 0;
#X obj 221 176 f;
#X floatatom 455 222 5 0 0 0 - - - 0;
#X obj 398 159 t b f;
#X floatatom 425 192 5 0 0 0 - - - 0;
#X obj 209 139 t f f;
#X obj 398 102 r parameters-s;
#X obj 176 288 outlet;
#X connect 0 0 1 0;
#X connect 1 0 2 0;
#X connect 2 0 15 0;
#X connect 3 0 13 0;
#X connect 4 0 2 0;
#X connect 5 0 4 0;
#X connect 6 0 1 1;
#X connect 7 0 11 0;
#X connect 7 1 8 0;
#X connect 8 0 10 0;
#X connect 9 0 6 0;
#X connect 10 0 1 1;
#X connect 11 0 9 0;
#X connect 11 1 12 0;
#X connect 12 0 6 1;
#X connect 13 0 6 0;
#X connect 13 1 9 1;
#X connect 14 0 7 0;
#X restore 581 388 pd morph-parameters;
#X connect 0 0 26 0;
#X connect 1 0 0 0;
#X connect 2 0 0 0;
#X connect 4 0 2 0;
#X connect 4 1 1 0;
#X connect 5 0 25 0;
#X connect 6 0 19 0;
#X connect 7 0 10 0;
#X connect 7 1 9 0;
#X connect 7 2 8 0;
#X connect 8 0 3 0;
#X connect 9 0 5 0;
#X connect 10 0 6 0;
#X connect 11 0 7 0;
#X connect 12 0 11 0;
#X connect 13 0 17 0;
#X connect 14 0 4 0;
#X connect 14 1 13 0;
#X connect 15 0 14 0;
#X connect 15 1 13 1;
#X connect 16 0 17 1;
#X connect 17 0 28 0;
#X connect 18 0 16 0;
#X connect 19 0 27 0;
#X connect 20 0 21 0;
#X connect 21 0 19 1;
#X connect 22 0 15 0;
#X connect 23 0 6 1;
#X connect 24 0 3 0;
#X connect 25 0 24 0;
#X connect 26 0 38 0;
#X connect 26 1 37 0;
#X connect 26 2 39 0;
#X connect 26 3 40 0;
#X connect 27 0 3 0;
#X connect 28 0 0 0;
#X connect 29 0 5 1;
#X connect 31 0 25 1;
#X connect 33 0 25 2;
#X connect 35 0 25 3;
#X connect 37 0 32 0;
#X connect 38 0 30 0;
#X connect 39 0 34 0;
#X connect 40 0 36 0;
#X restore 807 293 pd state-saving-via-preset-manager-module;
#N canvas 297 27 518 295 parameter-nudging-system 0;
#X obj 21 171 clip 0 127;
#X obj 23 67 clip 0 127;
#X obj 188 67 clip 0 127;
#X obj 359 68 clip 0 127;
#X obj 23 22 r \$0-millerverb-reverb-s;
#X obj 23 95 s \$0-millerverb-reverb-r;
#X obj 188 22 r \$0-millerverb-lowpass-s;
#X obj 188 95 s \$0-millerverb-lowpass-r;
#X obj 359 21 r \$0-millerverb-drywet-s;
#X obj 359 94 s \$0-millerverb-drywet-r;
#X obj 21 126 r \$0-millerverb-gain-s;
#X obj 21 198 s \$0-millerverb-gain-r;
#N canvas 0 22 484 497 nudge-parameters 0;
#X obj 124 234 random;
#X obj 232 335 f;
#X obj 232 368 +;
#X obj 257 166 random 2;
#X obj 124 275 t f f;
#X obj 124 351 t b f;
#X obj 124 297 *;
#X obj 257 188 sel 0 1;
#X msg 257 280 -1;
#X msg 335 280 1;
#X obj 124 149 t b b b;
#X obj 124 74 r NUDGE!;
#X obj 157 193 r NUDGE-RANGE;
#X obj 247 308 inlet;
#X obj 232 397 outlet;
#X obj 124 96 spigot;
#X obj 185 79 r parameters2-s;
#X connect 0 0 4 0;
#X connect 1 0 2 0;
#X connect 2 0 14 0;
#X connect 3 0 7 0;
#X connect 4 0 6 0;
#X connect 5 0 2 0;
#X connect 5 1 2 1;
#X connect 6 0 5 0;
#X connect 7 0 8 0;
#X connect 7 1 9 0;
#X connect 8 0 6 1;
#X connect 9 0 6 1;
#X connect 10 0 0 0;
#X connect 10 1 1 0;
#X connect 10 2 3 0;
#X connect 11 0 15 0;
#X connect 12 0 0 1;
#X connect 13 0 1 1;
#X connect 15 0 10 0;
#X connect 16 0 15 1;
#X restore 358 41 pd nudge-parameters;
#N canvas 0 22 484 497 nudge-parameters 0;
#X obj 124 234 random;
#X obj 232 335 f;
#X obj 232 368 +;
#X obj 257 166 random 2;
#X obj 124 275 t f f;
#X obj 124 351 t b f;
#X obj 124 297 *;
#X obj 257 188 sel 0 1;
#X msg 257 280 -1;
#X msg 335 280 1;
#X obj 124 149 t b b b;
#X obj 124 74 r NUDGE!;
#X obj 157 193 r NUDGE-RANGE;
#X obj 247 308 inlet;
#X obj 232 397 outlet;
#X obj 124 96 spigot;
#X obj 185 79 r parameters2-s;
#X connect 0 0 4 0;
#X connect 1 0 2 0;
#X connect 2 0 14 0;
#X connect 3 0 7 0;
#X connect 4 0 6 0;
#X connect 5 0 2 0;
#X connect 5 1 2 1;
#X connect 6 0 5 0;
#X connect 7 0 8 0;
#X connect 7 1 9 0;
#X connect 8 0 6 1;
#X connect 9 0 6 1;
#X connect 10 0 0 0;
#X connect 10 1 1 0;
#X connect 10 2 3 0;
#X connect 11 0 15 0;
#X connect 12 0 0 1;
#X connect 13 0 1 1;
#X connect 15 0 10 0;
#X connect 16 0 15 1;
#X restore 21 149 pd nudge-parameters;
#N canvas 0 22 484 497 nudge-parameters 0;
#X obj 124 234 random;
#X obj 232 335 f;
#X obj 232 368 +;
#X obj 257 166 random 2;
#X obj 124 275 t f f;
#X obj 124 351 t b f;
#X obj 124 297 *;
#X obj 257 188 sel 0 1;
#X msg 257 280 -1;
#X msg 335 280 1;
#X obj 124 149 t b b b;
#X obj 124 74 r NUDGE!;
#X obj 157 193 r NUDGE-RANGE;
#X obj 247 308 inlet;
#X obj 232 397 outlet;
#X obj 124 96 spigot;
#X obj 185 79 r parameters2-s;
#X connect 0 0 4 0;
#X connect 1 0 2 0;
#X connect 2 0 14 0;
#X connect 3 0 7 0;
#X connect 4 0 6 0;
#X connect 5 0 2 0;
#X connect 5 1 2 1;
#X connect 6 0 5 0;
#X connect 7 0 8 0;
#X connect 7 1 9 0;
#X connect 8 0 6 1;
#X connect 9 0 6 1;
#X connect 10 0 0 0;
#X connect 10 1 1 0;
#X connect 10 2 3 0;
#X connect 11 0 15 0;
#X connect 12 0 0 1;
#X connect 13 0 1 1;
#X connect 15 0 10 0;
#X connect 16 0 15 1;
#X restore 187 43 pd nudge-parameters;
#N canvas 0 22 484 497 nudge-parameters 0;
#X obj 124 234 random;
#X obj 232 335 f;
#X obj 232 368 +;
#X obj 257 166 random 2;
#X obj 124 275 t f f;
#X obj 124 351 t b f;
#X obj 124 297 *;
#X obj 257 188 sel 0 1;
#X msg 257 280 -1;
#X msg 335 280 1;
#X obj 124 149 t b b b;
#X obj 124 74 r NUDGE!;
#X obj 157 193 r NUDGE-RANGE;
#X obj 247 308 inlet;
#X obj 232 397 outlet;
#X obj 124 96 spigot;
#X obj 185 79 r parameters2-s;
#X connect 0 0 4 0;
#X connect 1 0 2 0;
#X connect 2 0 14 0;
#X connect 3 0 7 0;
#X connect 4 0 6 0;
#X connect 5 0 2 0;
#X connect 5 1 2 1;
#X connect 6 0 5 0;
#X connect 7 0 8 0;
#X connect 7 1 9 0;
#X connect 8 0 6 1;
#X connect 9 0 6 1;
#X connect 10 0 0 0;
#X connect 10 1 1 0;
#X connect 10 2 3 0;
#X connect 11 0 15 0;
#X connect 12 0 0 1;
#X connect 13 0 1 1;
#X connect 15 0 10 0;
#X connect 16 0 15 1;
#X restore 21 44 pd nudge-parameters;
#X connect 0 0 11 0;
#X connect 1 0 5 0;
#X connect 2 0 7 0;
#X connect 3 0 9 0;
#X connect 4 0 15 0;
#X connect 6 0 14 0;
#X connect 8 0 12 0;
#X connect 10 0 13 0;
#X connect 12 0 3 0;
#X connect 13 0 0 0;
#X connect 14 0 2 0;
#X connect 15 0 1 0;
#X restore 807 268 pd parameter-nudging-system;
#X obj 611 366 * 0.5;
#X obj 611 457 min~ 0.452;
#N canvas 632 73 749 752 external-messages 0;
#X floatatom 186 706 5 0 0 0 - - - 0;
#X obj 185 328 spigot;
#X obj 218 288 tgl 15 0 empty empty empty 17 7 0 10 #fcfcfc #000000 #000000 0 1;
#X obj 254 272 ==;
#X obj 269 248 f \$1;
#X obj 269 224 loadbang;
#X msg 185 202 \$1 \$2;
#X msg 185 156 symbol \$1;
#X obj 185 180 pack s f;
#X obj 186 685 f;
#X obj 186 633 t b f;
#X obj 186 656 spigot;
#X obj 185 62 unpack s f f;
#X symbolatom 185 94 10 0 0 0 - - - 0;
#X obj 218 308 t f f;
#X obj 245 332 s \$0-msg-spigot;
#X obj 234 640 r \$0-msg-spigot;
#X floatatom 223 594 5 0 0 0 - - - 0;
#X obj 223 573 f;
#X obj 223 521 t b f;
#X obj 223 544 spigot;
#X obj 271 528 r \$0-msg-spigot;
#X floatatom 387 639 5 0 0 0 - - - 0;
#X obj 387 618 f;
#X obj 387 566 t b f;
#X obj 387 589 spigot;
#X obj 435 573 r \$0-msg-spigot;
#X floatatom 424 527 5 0 0 0 - - - 0;
#X obj 424 506 f;
#X obj 424 454 t b f;
#X obj 424 477 spigot;
#X obj 472 461 r \$0-msg-spigot;
#X obj 185 14 r millerverb;
#X obj 185 380 route REVERB LOWPASS DRY/WET GAIN;
#X obj 186 726 s \$0-millerverb-reverb-r;
#X obj 223 614 s \$0-millerverb-lowpass-r;
#X obj 387 659 s \$0-millerverb-drywet-r;
#X obj 424 547 s \$0-millerverb-gain-r;
#X connect 0 0 34 0;
#X connect 1 0 33 0;
#X connect 2 0 14 0;
#X connect 3 0 2 0;
#X connect 4 0 3 1;
#X connect 5 0 4 0;
#X connect 6 0 1 0;
#X connect 7 0 8 0;
#X connect 8 0 6 0;
#X connect 9 0 0 0;
#X connect 10 0 11 0;
#X connect 10 1 9 1;
#X connect 11 0 9 0;
#X connect 12 0 13 0;
#X connect 12 1 8 1;
#X connect 12 2 3 0;
#X connect 13 0 7 0;
#X connect 14 0 1 1;
#X connect 14 1 15 0;
#X connect 16 0 11 1;
#X connect 17 0 35 0;
#X connect 18 0 17 0;
#X connect 19 0 20 0;
#X connect 19 1 18 1;
#X connect 20 0 18 0;
#X connect 21 0 20 1;
#X connect 22 0 36 0;
#X connect 23 0 22 0;
#X connect 24 0 25 0;
#X connect 24 1 23 1;
#X connect 25 0 23 0;
#X connect 26 0 25 1;
#X connect 27 0 37 0;
#X connect 28 0 27 0;
#X connect 29 0 30 0;
#X connect 29 1 28 1;
#X connect 30 0 28 0;
#X connect 31 0 30 1;
#X connect 32 0 12 0;
#X connect 33 0 10 0;
#X connect 33 1 19 0;
#X connect 33 2 24 0;
#X connect 33 3 29 0;
#X restore 805 241 pd external-messages;
#X obj 572 10 inlet;
#X obj 624 12 inlet;
#X obj 676 14 inlet;
#X obj 728 16 inlet;
#X connect 0 0 1 0;
#X connect 0 0 49 0;
#X connect 1 0 2 0;
#X connect 1 1 2 1;
#X connect 2 0 3 0;
#X connect 2 1 3 1;
#X connect 3 0 4 0;
#X connect 3 1 4 1;
#X connect 4 0 5 0;
#X connect 4 1 5 1;
#X connect 5 0 6 0;
#X connect 5 1 6 1;
#X connect 6 0 7 0;
#X connect 6 1 8 0;
#X connect 7 0 9 0;
#X connect 7 0 10 0;
#X connect 7 0 42 0;
#X connect 8 0 9 1;
#X connect 8 0 10 1;
#X connect 8 0 43 0;
#X connect 9 0 13 0;
#X connect 9 0 16 0;
#X connect 10 0 14 0;
#X connect 10 0 12 0;
#X connect 11 0 13 1;
#X connect 11 0 16 1;
#X connect 12 0 19 0;
#X connect 13 0 18 0;
#X connect 14 0 17 0;
#X connect 15 0 12 1;
#X connect 15 0 14 1;
#X connect 16 0 20 0;
#X connect 17 0 23 0;
#X connect 18 0 22 0;
#X connect 19 0 27 0;
#X connect 20 0 26 0;
#X connect 21 0 30 0;
#X connect 24 0 7 1;
#X connect 25 0 8 1;
#X connect 28 0 11 0;
#X connect 28 0 15 0;
#X connect 29 0 11 1;
#X connect 29 0 15 1;
#X connect 30 0 91 0;
#X connect 31 0 32 0;
#X connect 32 0 59 0;
#X connect 33 0 34 0;
#X connect 34 0 60 0;
#X connect 35 0 36 0;
#X connect 36 0 65 0;
#X connect 37 0 38 0;
#X connect 38 0 39 0;
#X connect 39 0 40 0;
#X connect 40 0 41 0;
#X connect 41 0 31 1;
#X connect 41 1 32 1;
#X connect 41 2 33 1;
#X connect 41 3 34 1;
#X connect 42 0 31 0;
#X connect 43 0 33 0;
#X connect 48 0 61 0;
#X connect 49 0 70 0;
#X connect 49 0 83 0;
#X connect 51 0 54 0;
#X connect 52 0 53 0;
#X connect 53 0 51 0;
#X connect 54 0 55 0;
#X connect 55 0 49 1;
#X connect 56 0 57 0;
#X connect 57 0 58 0;
#X connect 58 0 59 1;
#X connect 58 0 60 1;
#X connect 59 0 70 0;
#X connect 60 0 83 0;
#X connect 61 0 52 0;
#X connect 61 1 56 0;
#X connect 62 0 63 0;
#X connect 63 0 64 0;
#X connect 64 0 92 0;
#X connect 65 0 37 0;
#X connect 66 0 19 1;
#X connect 66 0 20 1;
#X connect 66 0 17 1;
#X connect 66 0 18 1;
#X connect 69 0 85 0;
#X connect 70 0 72 0;
#X connect 71 0 73 0;
#X connect 72 0 88 0;
#X connect 73 0 75 0;
#X connect 77 0 78 0;
#X connect 78 0 82 0;
#X connect 79 0 80 0;
#X connect 80 0 72 1;
#X connect 80 0 71 1;
#X connect 81 0 79 0;
#X connect 82 0 81 0;
#X connect 83 0 71 0;
#X connect 85 0 87 0;
#X connect 87 0 84 0;
#X connect 88 0 74 0;
#X connect 91 0 62 0;
#X connect 92 0 66 0;
#X connect 94 0 21 0;
#X connect 95 0 35 0;
#X connect 96 0 48 0;
#X connect 97 0 76 0;
#X restore 1000 545 pd dsp;
#X f 21;
#X obj 137 232 hsl 128 15 0 127 0 1 \$0-param-4-s \$0-param-4-r GAIN 133 7 0 10 #6b4bbd #000000 #000000 12700 1;
#X obj 137 170 hsl 128 15 0 127 0 1 \$0-param-2-s \$0-param-2-r LPASS 133 7 0 10 #1f6f8b #000000 #000000 7700 1;
#X obj 137 263 hsl 128 15 0 127 0 1 \$0-param-5-s \$0-param-5-r - 133 7 0 10 #9a5fd6 #000000 #000000 0 1;
#X obj 137 139 hsl 128 15 0 127 0 1 \$0-param-1-s \$0-param-1-r REVERB 133 7 0 10 #2aa6a6 #000000 #000000 2000 1;
#X obj 137 294 hsl 128 15 0 127 0 1 \$0-param-6-s \$0-param-6-r - 133 7 0 10 #ff9f1c #000000 #000000 0 1;
#X obj 137 325 hsl 128 15 0 127 0 1 \$0-param-7-s \$0-param-7-r - 133 7 0 10 #2b2b2b #000000 #000000 0 1;
#X obj 137 201 hsl 128 15 0 127 0 1 \$0-param-3-s \$0-param-3-r DR/WT 133 7 0 10 #3a3f9e #000000 #000000 12700 1;
#X obj 134 127 cnv 5 5 5 empty \$0-modul-name MILLVERB 0 0 0 12 #fcfcfc #404040 0;
#X obj 196 127 cnv 5 5 5 empty \$0-instance-num 3 0 0 0 12 #fcfcfc #404040 0;
#X obj 199 109 cnv 5 5 5 empty empty MOD1 0 0 0 8 #fcfcfc #404040 0;
#X obj 308 358 bng 10 250 50 0 \$0-options-button \$0-options-button-r OPTIONS -45 5 0 10 #fcfcfc #000000 #000000;
#X text 487 248 <--rename labels here;
#X text 487 268 <--modules values are saved here;
#X obj 337 118 text define -k \$0-modul-settings;
#A set MILLVERB \; REVERB \; LPASS \; DR/WT \; GAIN \; - \; - \; - \; - \; SRC \; 7 \; #2aa6a6 \; #1f6f8b \; #3a3f9e \; #6b4bbd \; #9a5fd6 \; #ff9f1c \; #2b2b2b \; #bfc6c9 \;;
#N canvas 324 349 425 350 info 0;
#X text 23 12 This textfile contains all necessery names of the module and the names of the gui (faders etc.). This way its much easier to change the names of all elements simply by editing the text object.;
#X text 25 93 The Order of the file \; 0=Modul-Name \; 1=Name Param1 - write non if unused \; 2=Name Param2 \; 3=Name Param3 \; 4=Name Param4 \; 5=Name Param5 \; 6=Name Param6 \; 7=Name Param7 \; 8=Name Param8 \; 9=Type of Module (SRC \, MOD \, LFO \, EFX etc) \; 10=Number of used Parameters (1-8) \; 11=Color of Param1-Circle 12=Color of Param2-Circle \; 13=Color of Param3-Circle \; 14=Color of Param4-Circle \; 15=Color of Param5-Circle \; 16=Color of Param6-Circle \; 17=Color of Param7-Circle \; 18=Color of Param8-Circle \; ....;
#X restore 559 119 pd info;
#X text 537 118 ->;
#X text 335 98 Parameter-Values + Names + Colors:;
#X text 438 286 <--Opens the Options-Subpatch;
#X text 99 82 DESKTOP-GUI-INTERFACE:;
#X obj 339 502 s \$0-param-1-t;
#X msg 339 483 symbol \$1%;
#X obj 339 425 / 1.27;
#X floatatom 339 444 5 0 0 0 - - - 0;
#X obj 339 464 i;
#X obj 337 334 s \$0-a;
#X obj 391 334 s \$0-b;
#X obj 445 334 s \$0-c;
#X obj 500 334 s \$0-d;
#X obj 554 333 s \$0-e;
#X obj 609 333 s \$0-f;
#X obj 663 332 s \$0-g;
#X obj 718 332 s \$0-h;
#X text 437 206 <--receives encoder messages from mother.pd;
#X text 437 186 <--sends display info to mother.pd;
#X text 447 226 <--checks menu and if module is "active";
#X obj 339 404 r \$0-param-1-s;
#X msg 435 483 symbol \$1%;
#X obj 435 425 / 1.27;
#X floatatom 435 444 5 0 0 0 - - - 0;
#X obj 435 464 i;
#X obj 435 404 r \$0-param-2-s;
#X obj 435 502 s \$0-param-2-t;
#X msg 533 482 symbol \$1%;
#X obj 533 424 / 1.27;
#X floatatom 533 443 5 0 0 0 - - - 0;
#X obj 533 463 i;
#X obj 533 403 r \$0-param-3-s;
#X obj 533 501 s \$0-param-3-t;
#X msg 633 482 symbol \$1%;
#X obj 633 424 / 1.27;
#X floatatom 633 443 5 0 0 0 - - - 0;
#X obj 633 463 i;
#X obj 633 403 r \$0-param-4-s;
#X obj 633 501 s \$0-param-4-t;
#X msg 339 623 symbol \$1%;
#X obj 339 565 / 1.27;
#X floatatom 339 584 5 0 0 0 - - - 0;
#X obj 339 604 i;
#X msg 435 623 symbol \$1%;
#X obj 435 565 / 1.27;
#X floatatom 435 584 5 0 0 0 - - - 0;
#X obj 435 604 i;
#X msg 533 622 symbol \$1%;
#X obj 533 564 / 1.27;
#X floatatom 533 583 5 0 0 0 - - - 0;
#X obj 533 603 i;
#X msg 633 622 symbol \$1%;
#X obj 633 564 / 1.27;
#X floatatom 633 583 5 0 0 0 - - - 0;
#X obj 633 603 i;
#X obj 339 544 r \$0-param-5-s;
#X obj 339 642 s \$0-param-5-t;
#X obj 435 544 r \$0-param-6-s;
#X obj 435 642 s \$0-param-6-t;
#X obj 533 543 r \$0-param-7-s;
#X obj 533 641 s \$0-param-7-t;
#X obj 633 543 r \$0-param-8-s;
#X obj 633 641 s \$0-param-8-t;
#X obj 137 154 hsl 61 8 0 127 0 1 \$0-param-9-s \$0-param-9-r empty 133 7 0 10 #606060 #000000 #000000 0 1;
#X obj 204 154 hsl 61 8 0 127 0 1 \$0-param-17-s \$0-param-17-r empty 133 7 0 10 #7c7c7c #000000 #000000 0 1;
#X obj 137 185 hsl 61 8 0 127 0 1 \$0-param-10-s \$0-param-10-r empty 133 7 0 10 #606060 #000000 #000000 0 1;
#X obj 204 185 hsl 61 8 0 127 0 1 \$0-param-18-s \$0-param-18-r empty 133 7 0 10 #7c7c7c #000000 #000000 0 1;
#X obj 137 216 hsl 61 8 0 127 0 1 \$0-param-11-s \$0-param-11-r empty 133 7 0 10 #606060 #000000 #000000 0 1;
#X obj 204 216 hsl 61 8 0 127 0 1 \$0-param-19-s \$0-param-19-r empty 133 7 0 10 #7c7c7c #000000 #000000 0 1;
#X obj 137 247 hsl 61 8 0 127 0 1 \$0-param-12-s \$0-param-12-r empty 133 7 0 10 #606060 #000000 #000000 0 1;
#X obj 204 247 hsl 61 8 0 127 0 1 \$0-param-20-s \$0-param-20-r empty 133 7 0 10 #7c7c7c #000000 #000000 0 1;
#X obj 137 278 hsl 61 8 0 127 0 1 \$0-param-13-s \$0-param-13-r empty 133 7 0 10 #606060 #000000 #000000 0 1;
#X obj 204 278 hsl 61 8 0 127 0 1 \$0-param-21-s \$0-param-21-r empty 133 7 0 10 #7c7c7c #000000 #000000 0 1;
#X obj 137 309 hsl 61 8 0 127 0 1 \$0-param-14-s \$0-param-14-r empty 133 7 0 10 #606060 #000000 #000000 0 1;
#X obj 204 309 hsl 61 8 0 127 0 1 \$0-param-22-s \$0-param-22-r empty 133 7 0 10 #7c7c7c #000000 #000000 0 1;
#X obj 137 340 hsl 61 8 0 127 0 1 \$0-param-15-s \$0-param-15-r empty 133 7 0 10 #606060 #000000 #000000 0 1;
#X obj 204 340 hsl 61 8 0 127 0 1 \$0-param-23-s \$0-param-23-r empty 133 7 0 10 #7c7c7c #000000 #000000 0 1;
#X obj 298 108 cnv 5 5 5 empty empty MOD2 0 0 0 8 #fcfcfc #404040 0;
#X obj 337 186 core_display \$0;
#X obj 337 206 core_encoder \$0;
#X obj 337 227 core_main_menu \$0;
#X obj 337 248 core_module_settings \$0;
#X obj 337 306 core_modulation_receiver \$0, f 64;
#X obj 337 268 core_state_saving \$0 \$1;
#X obj 337 287 core_options \$0;
#X text 336 165 Modul Core:;
#X text 337 380 Value Display Representation:;
#X msg 339 783 symbol \$1%;
#X obj 339 725 / 1.27;
#X floatatom 339 744 5 0 0 0 - - - 0;
#X obj 339 764 i;
#X msg 435 783 symbol \$1%;
#X obj 435 725 / 1.27;
#X floatatom 435 744 5 0 0 0 - - - 0;
#X obj 435 764 i;
#X msg 533 782 symbol \$1%;
#X obj 533 724 / 1.27;
#X floatatom 533 743 5 0 0 0 - - - 0;
#X obj 533 763 i;
#X msg 633 782 symbol \$1%;
#X obj 633 724 / 1.27;
#X floatatom 633 743 5 0 0 0 - - - 0;
#X obj 633 763 i;
#X msg 339 1053 symbol \$1%;
#X obj 339 995 / 1.27;
#X floatatom 339 1014 5 0 0 0 - - - 0;
#X obj 339 1034 i;
#X msg 435 1053 symbol \$1%;
#X obj 435 995 / 1.27;
#X floatatom 435 1014 5 0 0 0 - - - 0;
#X obj 435 1034 i;
#X msg 533 1052 symbol \$1%;
#X obj 533 994 / 1.27;
#X floatatom 533 1013 5 0 0 0 - - - 0;
#X obj 533 1033 i;
#X msg 633 1052 symbol \$1%;
#X obj 633 994 / 1.27;
#X floatatom 633 1013 5 0 0 0 - - - 0;
#X obj 633 1033 i;
#X obj 339 704 r \$0-param-9-s;
#X obj 339 802 s \$0-param-9-t;
#X obj 339 974 r \$0-param-17-s;
#X obj 339 1072 s \$0-param-17-t;
#X obj 435 704 r \$0-param-10-s;
#X obj 435 802 s \$0-param-10-t;
#X obj 533 703 r \$0-param-11-s;
#X obj 533 801 s \$0-param-11-t;
#X obj 633 703 r \$0-param-12-s;
#X obj 633 801 s \$0-param-12-t;
#X msg 339 903 symbol \$1%;
#X obj 339 845 / 1.27;
#X floatatom 339 864 5 0 0 0 - - - 0;
#X obj 339 884 i;
#X msg 435 903 symbol \$1%;
#X obj 435 845 / 1.27;
#X floatatom 435 864 5 0 0 0 - - - 0;
#X obj 435 884 i;
#X msg 533 902 symbol \$1%;
#X obj 533 844 / 1.27;
#X floatatom 533 863 5 0 0 0 - - - 0;
#X obj 533 883 i;
#X msg 633 902 symbol \$1%;
#X obj 633 844 / 1.27;
#X floatatom 633 863 5 0 0 0 - - - 0;
#X obj 633 883 i;
#X obj 339 824 r \$0-param-13-s;
#X obj 339 922 s \$0-param-13-t;
#X obj 435 824 r \$0-param-14-s;
#X obj 435 922 s \$0-param-14-t;
#X obj 533 823 r \$0-param-15-s;
#X obj 533 921 s \$0-param-15-t;
#X obj 633 823 r \$0-param-16-s;
#X obj 633 921 s \$0-param-16-t;
#X text 342 683 mod 1;
#X text 339 955 mod 1;
#X msg 339 1183 symbol \$1%;
#X obj 339 1125 / 1.27;
#X floatatom 339 1144 5 0 0 0 - - - 0;
#X obj 339 1164 i;
#X msg 435 1183 symbol \$1%;
#X obj 435 1125 / 1.27;
#X floatatom 435 1144 5 0 0 0 - - - 0;
#X obj 435 1164 i;
#X msg 533 1182 symbol \$1%;
#X obj 533 1124 / 1.27;
#X floatatom 533 1143 5 0 0 0 - - - 0;
#X obj 533 1163 i;
#X msg 633 1182 symbol \$1%;
#X obj 633 1124 / 1.27;
#X floatatom 633 1143 5 0 0 0 - - - 0;
#X obj 633 1163 i;
#X obj 435 974 r \$0-param-18-s;
#X obj 435 1072 s \$0-param-18-t;
#X obj 533 973 r \$0-param-19-s;
#X obj 533 1071 s \$0-param-19-t;
#X obj 633 973 r \$0-param-20-s;
#X obj 633 1071 s \$0-param-20-t;
#X obj 339 1104 r \$0-param-21-s;
#X obj 339 1202 s \$0-param-21-t;
#X obj 435 1104 r \$0-param-22-s;
#X obj 435 1202 s \$0-param-22-t;
#X obj 533 1103 r \$0-param-23-s;
#X obj 533 1201 s \$0-param-23-t;
#X obj 633 1103 r \$0-param-24-s;
#X obj 633 1201 s \$0-param-24-t;
#X obj 1022 416 r \$0-a;
#X obj 1076 416 r \$0-b;
#X obj 1130 416 r \$0-c;
#X obj 1185 416 r \$0-d;
#X obj 1077 440 * 127;
#X obj 1028 443 * 127;
#X obj 1182 440 * 127;
#X obj 1133 443 * 127;
#X obj 1000 566 outlet~;
#X obj 1123 564 outlet~;
#X obj 993 107 inlet~;
#X obj 1279 108 inlet~;
#X obj 1399 108 inlet~;
#X obj 1279 198 throw~ \$0-mod1;
#X obj 1399 197 throw~ \$0-mod2;
#X text 1277 91 MOD1;
#X text 1397 91 MOD2;
#X connect 0 0 209 0;
#X connect 0 1 210 0;
#X connect 21 0 20 0;
#X connect 22 0 23 0;
#X connect 23 0 24 0;
#X connect 24 0 21 0;
#X connect 36 0 22 0;
#X connect 37 0 42 0;
#X connect 38 0 39 0;
#X connect 39 0 40 0;
#X connect 40 0 37 0;
#X connect 41 0 38 0;
#X connect 43 0 48 0;
#X connect 44 0 45 0;
#X connect 45 0 46 0;
#X connect 46 0 43 0;
#X connect 47 0 44 0;
#X connect 49 0 54 0;
#X connect 50 0 51 0;
#X connect 51 0 52 0;
#X connect 52 0 49 0;
#X connect 53 0 50 0;
#X connect 55 0 72 0;
#X connect 56 0 57 0;
#X connect 57 0 58 0;
#X connect 58 0 55 0;
#X connect 59 0 74 0;
#X connect 60 0 61 0;
#X connect 61 0 62 0;
#X connect 62 0 59 0;
#X connect 63 0 76 0;
#X connect 64 0 65 0;
#X connect 65 0 66 0;
#X connect 66 0 63 0;
#X connect 67 0 78 0;
#X connect 68 0 69 0;
#X connect 69 0 70 0;
#X connect 70 0 67 0;
#X connect 71 0 56 0;
#X connect 73 0 60 0;
#X connect 75 0 64 0;
#X connect 77 0 68 0;
#X connect 98 0 25 0;
#X connect 98 1 26 0;
#X connect 98 2 27 0;
#X connect 98 3 28 0;
#X connect 98 4 29 0;
#X connect 98 5 30 0;
#X connect 98 6 31 0;
#X connect 98 7 32 0;
#X connect 103 0 136 0;
#X connect 104 0 105 0;
#X connect 105 0 106 0;
#X connect 106 0 103 0;
#X connect 107 0 140 0;
#X connect 108 0 109 0;
#X connect 109 0 110 0;
#X connect 110 0 107 0;
#X connect 111 0 142 0;
#X connect 112 0 113 0;
#X connect 113 0 114 0;
#X connect 114 0 111 0;
#X connect 115 0 144 0;
#X connect 116 0 117 0;
#X connect 117 0 118 0;
#X connect 118 0 115 0;
#X connect 119 0 138 0;
#X connect 120 0 121 0;
#X connect 121 0 122 0;
#X connect 122 0 119 0;
#X connect 123 0 188 0;
#X connect 124 0 125 0;
#X connect 125 0 126 0;
#X connect 126 0 123 0;
#X connect 127 0 190 0;
#X connect 128 0 129 0;
#X connect 129 0 130 0;
#X connect 130 0 127 0;
#X connect 131 0 192 0;
#X connect 132 0 133 0;
#X connect 133 0 134 0;
#X connect 134 0 131 0;
#X connect 135 0 104 0;
#X connect 137 0 120 0;
#X connect 139 0 108 0;
#X connect 141 0 112 0;
#X connect 143 0 116 0;
#X connect 145 0 162 0;
#X connect 146 0 147 0;
#X connect 147 0 148 0;
#X connect 148 0 145 0;
#X connect 149 0 164 0;
#X connect 150 0 151 0;
#X connect 151 0 152 0;
#X connect 152 0 149 0;
#X connect 153 0 166 0;
#X connect 154 0 155 0;
#X connect 155 0 156 0;
#X connect 156 0 153 0;
#X connect 157 0 168 0;
#X connect 158 0 159 0;
#X connect 159 0 160 0;
#X connect 160 0 157 0;
#X connect 161 0 146 0;
#X connect 163 0 150 0;
#X connect 165 0 154 0;
#X connect 167 0 158 0;
#X connect 171 0 194 0;
#X connect 172 0 173 0;
#X connect 173 0 174 0;
#X connect 174 0 171 0;
#X connect 175 0 196 0;
#X connect 176 0 177 0;
#X connect 177 0 178 0;
#X connect 178 0 175 0;
#X connect 179 0 198 0;
#X connect 180 0 181 0;
#X connect 181 0 182 0;
#X connect 182 0 179 0;
#X connect 183 0 200 0;
#X connect 184 0 185 0;
#X connect 185 0 186 0;
#X connect 186 0 183 0;
#X connect 187 0 124 0;
#X connect 189 0 128 0;
#X connect 191 0 132 0;
#X connect 193 0 172 0;
#X connect 195 0 176 0;
#X connect 197 0 180 0;
#X connect 199 0 184 0;
#X connect 201 0 206 0;
#X connect 202 0 205 0;
#X connect 203 0 208 0;
#X connect 204 0 207 0;
#X connect 205 0 0 2;
#X connect 206 0 0 1;
#X connect 207 0 0 4;
#X connect 208 0 0 3;
#X connect 211 0 0 0;
#X connect 212 0 214 0;
#X connect 213 0 215 0;
#X coords 0 -1 1 1 220 270 2 100 100;
