#N canvas 56 25 1349 791 10;
#X obj 336 474 *~;
#X obj 489 477 *~;
#X obj 299 475 *~;
#X obj 450 477 *~;
#X floatatom 376 288 5 0 1 0 drywet - - 0;
#X obj 468 501 +~;
#X obj 313 503 +~;
#X obj 377 421 - 1;
#X obj 376 442 * -1;
#X obj 205 37 mtof;
#X floatatom 253 54 7 0 0 0 - - - 0;
#X obj 204 68 mtof;
#X floatatom 253 77 7 0 0 0 - - - 0;
#X obj 205 102 mtof;
#X floatatom 253 99 7 0 0 0 - - - 0;
#X obj 205 136 mtof;
#X floatatom 252 133 7 0 0 0 - - - 0;
#X floatatom 254 167 7 0 0 0 - - - 0;
#X obj 312 -82 inlet~;
#X obj 314 544 outlet~;
#X obj 466 542 outlet~;
#X obj 376 268 * 0.01;
#X obj 221 270 * 0.03;
#N canvas 92 117 1010 648 spacestion 0;
#X obj 27 167 delwrite~ \$0-main 500;
#X obj 495 273 delread~ \$0-main 60;
#X obj 701 273 delread~ \$0-main 77;
#X obj 531 312 delread~ \$0-main 137;
#X obj 737 313 delread~ \$0-main 112;
#X obj 567 352 delread~ \$0-main 175;
#X obj 773 352 delread~ \$0-main 160;
#X obj 603 391 delread~ \$0-main 190;
#X obj 809 392 delread~ \$0-main 212;
#X obj 27 276 vd~ \$0-main;
#X floatatom 27 235 5 0 0 0 - - - 0;
#X obj 27 255 +~;
#X obj 65 236 *~ 4;
#X msg 27 215 47;
#X obj 64 212 osc~ 0.666;
#X obj 26 190 loadbang;
#X obj 26 298 throw~ \$0-fbsum;
#X obj 170 71 catch~ \$0-fbsum;
#X obj 135 276 vd~ \$0-main;
#X floatatom 135 235 5 0 0 0 - - - 0;
#X obj 135 255 +~;
#X obj 173 236 *~ 4;
#X obj 172 212 osc~ 0.666;
#X obj 134 190 loadbang;
#X obj 134 298 throw~ \$0-fbsum;
#X obj 241 277 vd~ \$0-main;
#X floatatom 241 236 5 0 0 0 - - - 0;
#X obj 241 256 +~;
#X obj 279 237 *~ 4;
#X obj 240 191 loadbang;
#X obj 240 299 throw~ \$0-fbsum;
#X obj 347 277 vd~ \$0-main;
#X floatatom 347 236 5 0 0 0 - - - 0;
#X obj 347 256 +~;
#X obj 385 237 *~ 4;
#X obj 346 191 loadbang;
#X obj 346 299 throw~ \$0-fbsum;
#X obj 32 405 vd~ \$0-main;
#X floatatom 32 364 5 0 0 0 - - - 0;
#X obj 32 384 +~;
#X obj 70 365 *~ 4;
#X obj 31 319 loadbang;
#X obj 31 427 throw~ \$0-fbsum;
#X obj 140 405 vd~ \$0-main;
#X floatatom 140 364 5 0 0 0 - - - 0;
#X obj 140 384 +~;
#X obj 178 365 *~ 4;
#X obj 139 319 loadbang;
#X obj 139 427 throw~ \$0-fbsum;
#X obj 246 406 vd~ \$0-main;
#X floatatom 246 365 5 0 0 0 - - - 0;
#X obj 246 385 +~;
#X obj 284 366 *~ 4;
#X obj 245 320 loadbang;
#X obj 245 428 throw~ \$0-fbsum;
#X obj 352 406 vd~ \$0-main;
#X floatatom 352 365 5 0 0 0 - - - 0;
#X obj 352 385 +~;
#X obj 390 366 *~ 4;
#X obj 351 320 loadbang;
#X obj 351 428 throw~ \$0-fbsum;
#X obj 35 535 vd~ \$0-main;
#X floatatom 35 494 5 0 0 0 - - - 0;
#X obj 35 514 +~;
#X obj 73 495 *~ 4;
#X obj 34 449 loadbang;
#X obj 34 557 throw~ \$0-fbsum;
#X obj 143 535 vd~ \$0-main;
#X floatatom 143 494 5 0 0 0 - - - 0;
#X obj 143 514 +~;
#X obj 181 495 *~ 4;
#X obj 142 449 loadbang;
#X obj 142 557 throw~ \$0-fbsum;
#X obj 249 536 vd~ \$0-main;
#X floatatom 249 495 5 0 0 0 - - - 0;
#X obj 249 515 +~;
#X obj 287 496 *~ 4;
#X obj 248 450 loadbang;
#X obj 248 558 throw~ \$0-fbsum;
#X obj 355 536 vd~ \$0-main;
#X floatatom 355 495 5 0 0 0 - - - 0;
#X obj 355 515 +~;
#X obj 393 496 *~ 4;
#X obj 354 450 loadbang;
#X obj 354 558 throw~ \$0-fbsum;
#X obj 38 664 vd~ \$0-main;
#X floatatom 38 623 5 0 0 0 - - - 0;
#X obj 38 643 +~;
#X obj 76 624 *~ 4;
#X obj 37 578 loadbang;
#X obj 37 686 throw~ \$0-fbsum;
#X obj 146 664 vd~ \$0-main;
#X floatatom 146 623 5 0 0 0 - - - 0;
#X obj 146 643 +~;
#X obj 184 624 *~ 4;
#X obj 145 578 loadbang;
#X obj 145 686 throw~ \$0-fbsum;
#X obj 252 665 vd~ \$0-main;
#X floatatom 252 624 5 0 0 0 - - - 0;
#X obj 252 644 +~;
#X obj 290 625 *~ 4;
#X obj 251 579 loadbang;
#X obj 251 687 throw~ \$0-fbsum;
#X obj 358 665 vd~ \$0-main;
#X floatatom 358 624 5 0 0 0 - - - 0;
#X obj 358 644 +~;
#X obj 396 625 *~ 4;
#X obj 357 579 loadbang;
#X obj 357 687 throw~ \$0-fbsum;
#X msg 135 215 120;
#X msg 241 216 134;
#X msg 347 216 146;
#X msg 32 344 158;
#X msg 140 344 169;
#X msg 246 345 180;
#X msg 352 345 190;
#X msg 35 474 200;
#X msg 143 474 209;
#X msg 249 475 217;
#X msg 355 475 225;
#X msg 38 603 233;
#X msg 146 603 240;
#X msg 252 605 244;
#X msg 358 604 247;
#X obj 278 213 osc~ 0.625;
#X obj 384 213 osc~ 0.625;
#X obj 69 341 osc~ 0.555;
#X obj 177 341 osc~ 0.555;
#X obj 283 342 osc~ 0.476;
#X obj 389 342 osc~ 0.476;
#X obj 72 471 osc~ 0.435;
#X obj 180 471 osc~ 0.435;
#X obj 286 472 osc~ 0.303;
#X obj 392 472 osc~ 0.303;
#X obj 75 600 osc~ 0.181;
#X obj 183 600 osc~ 0.181;
#X obj 289 601 osc~ 0.122;
#X obj 395 601 osc~ 0.122;
#X obj 171 96 *~ 0.0625;
#X obj 171 120 lop~ 2000;
#X obj 171 141 hip~ 20;
#X floatatom 195 45 5 0 0 0 fblp - - 0;
#X floatatom 260 46 5 0 0 0 fbhp - - 0;
#X floatatom 340 46 5 0 0 0 fbgain - - 0;
#X obj 25 94 hip~ 20;
#X obj 27 13 inlet~;
#X obj 26 65 lop~ 20000;
#X obj 82 14 inlet;
#X obj 25 140 +~;
#X floatatom 83 40 5 0 0 0 lp - - 0;
#X obj 131 15 inlet;
#X floatatom 131 41 5 0 0 0 hp - - 0;
#X obj 194 17 inlet;
#X obj 260 19 inlet;
#X obj 339 18 inlet;
#X obj 172 165 *~ 0.1;
#X obj 495 338 +~;
#X obj 553 390 +~;
#X obj 588 428 +~;
#X obj 587 468 *~ 0.25;
#X obj 708 331 +~;
#X obj 745 372 +~;
#X obj 782 427 +~;
#X obj 785 469 *~ 0.25;
#X obj 589 513 outlet~;
#X obj 785 512 outlet~;
#X obj 526 195 pack f;
#X floatatom 547 130 5 0 0 0 - - - 0;
#X obj 692 157 pack f;
#X floatatom 713 92 5 0 0 0 - - - 0;
#X connect 1 0 156 0;
#X connect 2 0 160 0;
#X connect 3 0 156 1;
#X connect 4 0 160 1;
#X connect 5 0 157 1;
#X connect 6 0 161 1;
#X connect 7 0 158 1;
#X connect 8 0 162 1;
#X connect 9 0 16 0;
#X connect 10 0 11 0;
#X connect 11 0 9 0;
#X connect 12 0 11 1;
#X connect 13 0 10 0;
#X connect 14 0 12 0;
#X connect 15 0 13 0;
#X connect 17 0 138 0;
#X connect 18 0 24 0;
#X connect 19 0 20 0;
#X connect 20 0 18 0;
#X connect 21 0 20 1;
#X connect 22 0 21 0;
#X connect 23 0 109 0;
#X connect 25 0 30 0;
#X connect 26 0 27 0;
#X connect 27 0 25 0;
#X connect 28 0 27 1;
#X connect 29 0 110 0;
#X connect 31 0 36 0;
#X connect 32 0 33 0;
#X connect 33 0 31 0;
#X connect 34 0 33 1;
#X connect 35 0 111 0;
#X connect 37 0 42 0;
#X connect 38 0 39 0;
#X connect 39 0 37 0;
#X connect 40 0 39 1;
#X connect 41 0 112 0;
#X connect 43 0 48 0;
#X connect 44 0 45 0;
#X connect 45 0 43 0;
#X connect 46 0 45 1;
#X connect 47 0 113 0;
#X connect 49 0 54 0;
#X connect 50 0 51 0;
#X connect 51 0 49 0;
#X connect 52 0 51 1;
#X connect 53 0 114 0;
#X connect 55 0 60 0;
#X connect 56 0 57 0;
#X connect 57 0 55 0;
#X connect 58 0 57 1;
#X connect 59 0 115 0;
#X connect 61 0 66 0;
#X connect 62 0 63 0;
#X connect 63 0 61 0;
#X connect 64 0 63 1;
#X connect 65 0 116 0;
#X connect 67 0 72 0;
#X connect 68 0 69 0;
#X connect 69 0 67 0;
#X connect 70 0 69 1;
#X connect 71 0 117 0;
#X connect 73 0 78 0;
#X connect 74 0 75 0;
#X connect 75 0 73 0;
#X connect 76 0 75 1;
#X connect 77 0 118 0;
#X connect 79 0 84 0;
#X connect 80 0 81 0;
#X connect 81 0 79 0;
#X connect 82 0 81 1;
#X connect 83 0 119 0;
#X connect 85 0 90 0;
#X connect 86 0 87 0;
#X connect 87 0 85 0;
#X connect 88 0 87 1;
#X connect 89 0 120 0;
#X connect 91 0 96 0;
#X connect 92 0 93 0;
#X connect 93 0 91 0;
#X connect 94 0 93 1;
#X connect 95 0 121 0;
#X connect 97 0 102 0;
#X connect 98 0 99 0;
#X connect 99 0 97 0;
#X connect 100 0 99 1;
#X connect 101 0 122 0;
#X connect 103 0 108 0;
#X connect 104 0 105 0;
#X connect 105 0 103 0;
#X connect 106 0 105 1;
#X connect 107 0 123 0;
#X connect 109 0 19 0;
#X connect 110 0 26 0;
#X connect 111 0 32 0;
#X connect 112 0 38 0;
#X connect 113 0 44 0;
#X connect 114 0 50 0;
#X connect 115 0 56 0;
#X connect 116 0 62 0;
#X connect 117 0 68 0;
#X connect 118 0 74 0;
#X connect 119 0 80 0;
#X connect 120 0 86 0;
#X connect 121 0 92 0;
#X connect 122 0 98 0;
#X connect 123 0 104 0;
#X connect 124 0 28 0;
#X connect 125 0 34 0;
#X connect 126 0 40 0;
#X connect 127 0 46 0;
#X connect 128 0 52 0;
#X connect 129 0 58 0;
#X connect 130 0 64 0;
#X connect 131 0 70 0;
#X connect 132 0 76 0;
#X connect 133 0 82 0;
#X connect 134 0 88 0;
#X connect 135 0 94 0;
#X connect 136 0 100 0;
#X connect 137 0 106 0;
#X connect 138 0 139 0;
#X connect 139 0 140 0;
#X connect 140 0 155 0;
#X connect 141 0 139 1;
#X connect 142 0 140 1;
#X connect 143 0 155 1;
#X connect 144 0 148 0;
#X connect 145 0 146 0;
#X connect 146 0 144 0;
#X connect 147 0 149 0;
#X connect 148 0 0 0;
#X connect 149 0 146 1;
#X connect 150 0 151 0;
#X connect 151 0 144 1;
#X connect 152 0 141 0;
#X connect 153 0 142 0;
#X connect 154 0 143 0;
#X connect 155 0 148 1;
#X connect 156 0 157 0;
#X connect 157 0 158 0;
#X connect 158 0 159 0;
#X connect 159 0 164 0;
#X connect 160 0 161 0;
#X connect 161 0 162 0;
#X connect 162 0 163 0;
#X connect 163 0 165 0;
#X connect 166 0 1 0;
#X connect 167 0 166 0;
#X connect 168 0 2 0;
#X connect 169 0 168 0;
#X restore 79 276 pd spacestion;
#N canvas 617 41 777 751 state-saving-multiple-instances 0;
#X obj 137 29 loadbang;
#X obj 364 452 textfile;
#X msg 646 435 rewind;
#X msg 603 435 bang;
#X obj 42 721 textfile;
#X obj 603 396 t b b;
#X obj 43 357 f;
#X obj 56 610 f;
#X obj -16 401 t b b b;
#X msg 119 610 clear;
#X obj 204 217 outlet;
#X text 246 221 INSTANCE NUMBER;
#X obj 165 153 f \$1;
#X obj 165 189 t f f f;
#X obj 138 62 t b b;
#X obj -16 378 bng 15 250 50 0 empty empty empty 17 7 0 10 #fcfcfc #000000 #000000;
#X obj -16 234 r SAVE-S;
#X msg 364 427 read statesave/\$1-spacestation-ss.txt;
#X msg 55 681 write statesave/\$1-spacestation-ss.txt;
#X obj 58 254 r \$0-spacestation-inlp-s;
#X obj 364 697 s \$0-spacestation-inlp-r;
#X obj 66 277 r \$0-spacestation-inhp-s;
#X obj 385 673 s \$0-spacestation-inhp-r;
#X obj 80 298 r \$0-spacestation-fblp-s;
#X obj 118 348 r \$0-spacestation-fbgain-s;
#X obj 135 368 r \$0-spacestation-mix-s;
#X obj 406 649 s \$0-spacestation-fblp-r;
#X obj 98 323 r \$0-spacestation-fbhp-s;
#X obj 448 599 s \$0-spacestation-fbgain-r;
#X obj 427 625 s \$0-spacestation-fbhp-r;
#X obj 469 572 s \$0-spacestation-mix-r;
#X obj 43 440 pack f f f f f f f f;
#X msg 43 468 set \$1 \$2 \$3 \$4 \$5 \$6 \$7 \$8;
#X obj 364 474 unpack f f f f f f f f;
#X obj 145 390 r \$0-spacestation-fbgain-cv-s;
#X obj 158 412 r \$0-spacestation-mix-cv-s;
#X obj 478 549 s \$0-spacestation-fbgain-cv-r;
#X obj 499 522 s \$0-spacestation-mix-cv-r;
#X connect 0 0 14 0;
#X connect 1 0 33 0;
#X connect 2 0 1 0;
#X connect 3 0 1 0;
#X connect 5 0 3 0;
#X connect 5 1 2 0;
#X connect 6 0 31 0;
#X connect 7 0 18 0;
#X connect 8 0 7 0;
#X connect 8 1 6 0;
#X connect 8 2 9 0;
#X connect 9 0 4 0;
#X connect 12 0 13 0;
#X connect 13 0 7 1;
#X connect 13 1 17 0;
#X connect 13 2 10 0;
#X connect 14 0 5 0;
#X connect 14 1 12 0;
#X connect 15 0 8 0;
#X connect 16 0 15 0;
#X connect 17 0 1 0;
#X connect 18 0 4 0;
#X connect 19 0 6 1;
#X connect 21 0 31 1;
#X connect 23 0 31 2;
#X connect 24 0 31 4;
#X connect 25 0 31 5;
#X connect 27 0 31 3;
#X connect 31 0 32 0;
#X connect 32 0 4 0;
#X connect 33 0 20 0;
#X connect 33 1 22 0;
#X connect 33 2 26 0;
#X connect 33 3 29 0;
#X connect 33 4 28 0;
#X connect 33 5 30 0;
#X connect 33 6 36 0;
#X connect 33 7 37 0;
#X connect 34 0 31 6;
#X connect 35 0 31 7;
#X restore 1188 48 pd state-saving-multiple-instances;
#X obj 1188 122 s \$0-instance-num;
#X obj 1188 74 makefilename %d;
#X msg 1188 99 label \$1;
#N canvas 81 22 1117 745 state-saving-via-preset-manager-module 0;
#X obj 340 227 textfile;
#X msg 719 210 rewind;
#X msg 676 210 bang;
#X obj 106 568 textfile;
#X obj 676 171 t b b;
#X obj 107 234 f;
#X obj 120 457 f;
#X obj 53 352 t b b b;
#X msg 236 499 clear;
#X obj 107 56 delay 5;
#X obj 53 407 delay 10;
#X msg 53 192 bang;
#X obj 53 26 r STORE-S!;
#X obj 340 128 f;
#X obj 313 85 t b b;
#X obj 328 49 t b f;
#X obj 385 146 f \$1;
#X obj 340 173 pack f f;
#X obj 385 96 loadbang;
#X obj 120 487 pack f f;
#X obj 165 440 loadbang;
#X obj 165 462 f \$1;
#X obj 328 26 r preset-manager-scan;
#X obj 135 418 r preset-manager-store-slot;
#X msg 106 368 set \$1 \$2 \$3 \$4 \$5;
#X obj 107 301 pack f f f f f;
#X obj 340 249 unpack f f f f f;
#X msg 119 528 write statesave/\$1-\$2-stereo-delay-ss.txt;
#X msg 340 202 read statesave/\$1-\$2-stereo-delay-ss.txt;
#X obj 123 78 r \$0-stereo-delay-rate-left-s;
#X obj 345 714 s \$0-stereo-delay-rate-left-r;
#X obj 136 107 r \$0-stereo-delay-rate-right-s;
#X obj 366 616 s \$0-stereo-delay-rate-right-r;
#X obj 146 146 r \$0-stereo-delay-feedback-s;
#X obj 384 517 s \$0-stereo-delay-feedback-r;
#X obj 169 173 r \$0-stereo-delay-lowpass-s;
#X obj 561 697 s \$0-stereo-delay-lowpass-r;
#X obj 183 196 r \$0-stereo-delay-dry/wet-s;
#X obj 616 596 s \$0-stereo-delay-dry/wet-r;
#N canvas 0 22 1069 747 morph-parameters 0;
#X obj 176 94 inlet;
#X obj 176 236 pack f f;
#X obj 176 261 line;
#X obj 209 117 r preset-manager-morph-s;
#X msg 72 244 stop;
#X obj 72 214 r STOP-MORPH!;
#X obj 209 206 spigot;
#X obj 398 137 t f f;
#X obj 455 154 == 0;
#X obj 221 176 f;
#X floatatom 455 222 5 0 0 0 - - - 0;
#X obj 398 159 t b f;
#X floatatom 425 192 5 0 0 0 - - - 0;
#X obj 209 139 t f f;
#X obj 398 102 r parameters-s;
#X obj 176 288 outlet;
#X connect 0 0 1 0;
#X connect 1 0 2 0;
#X connect 2 0 15 0;
#X connect 3 0 13 0;
#X connect 4 0 2 0;
#X connect 5 0 4 0;
#X connect 6 0 1 1;
#X connect 7 0 11 0;
#X connect 7 1 8 0;
#X connect 8 0 10 0;
#X connect 9 0 6 0;
#X connect 10 0 1 1;
#X connect 11 0 9 0;
#X connect 11 1 12 0;
#X connect 12 0 6 1;
#X connect 13 0 6 0;
#X connect 13 1 9 1;
#X connect 14 0 7 0;
#X restore 384 493 pd morph-parameters;
#N canvas 0 22 1069 747 morph-parameters 0;
#X obj 176 94 inlet;
#X obj 176 236 pack f f;
#X obj 176 261 line;
#X obj 209 117 r preset-manager-morph-s;
#X msg 72 244 stop;
#X obj 72 214 r STOP-MORPH!;
#X obj 209 206 spigot;
#X obj 398 137 t f f;
#X obj 455 154 == 0;
#X obj 221 176 f;
#X floatatom 455 222 5 0 0 0 - - - 0;
#X obj 398 159 t b f;
#X floatatom 425 192 5 0 0 0 - - - 0;
#X obj 209 139 t f f;
#X obj 398 102 r parameters-s;
#X obj 176 288 outlet;
#X connect 0 0 1 0;
#X connect 1 0 2 0;
#X connect 2 0 15 0;
#X connect 3 0 13 0;
#X connect 4 0 2 0;
#X connect 5 0 4 0;
#X connect 6 0 1 1;
#X connect 7 0 11 0;
#X connect 7 1 8 0;
#X connect 8 0 10 0;
#X connect 9 0 6 0;
#X connect 10 0 1 1;
#X connect 11 0 9 0;
#X connect 11 1 12 0;
#X connect 12 0 6 1;
#X connect 13 0 6 0;
#X connect 13 1 9 1;
#X connect 14 0 7 0;
#X restore 345 684 pd morph-parameters;
#N canvas 0 22 1069 747 morph-parameters 0;
#X obj 176 94 inlet;
#X obj 176 236 pack f f;
#X obj 176 261 line;
#X obj 209 117 r preset-manager-morph-s;
#X msg 72 244 stop;
#X obj 72 214 r STOP-MORPH!;
#X obj 209 206 spigot;
#X obj 398 137 t f f;
#X obj 455 154 == 0;
#X obj 221 176 f;
#X floatatom 455 222 5 0 0 0 - - - 0;
#X obj 398 159 t b f;
#X floatatom 425 192 5 0 0 0 - - - 0;
#X obj 209 139 t f f;
#X obj 398 102 r parameters-s;
#X obj 176 288 outlet;
#X connect 0 0 1 0;
#X connect 1 0 2 0;
#X connect 2 0 15 0;
#X connect 3 0 13 0;
#X connect 4 0 2 0;
#X connect 5 0 4 0;
#X connect 6 0 1 1;
#X connect 7 0 11 0;
#X connect 7 1 8 0;
#X connect 8 0 10 0;
#X connect 9 0 6 0;
#X connect 10 0 1 1;
#X connect 11 0 9 0;
#X connect 11 1 12 0;
#X connect 12 0 6 1;
#X connect 13 0 6 0;
#X connect 13 1 9 1;
#X connect 14 0 7 0;
#X restore 366 590 pd morph-parameters;
#N canvas 0 22 1069 747 morph-parameters 0;
#X obj 176 94 inlet;
#X obj 176 236 pack f f;
#X obj 176 261 line;
#X obj 209 117 r preset-manager-morph-s;
#X msg 72 244 stop;
#X obj 72 214 r STOP-MORPH!;
#X obj 209 206 spigot;
#X obj 398 137 t f f;
#X obj 455 154 == 0;
#X obj 221 176 f;
#X floatatom 455 222 5 0 0 0 - - - 0;
#X obj 398 159 t b f;
#X floatatom 425 192 5 0 0 0 - - - 0;
#X obj 209 139 t f f;
#X obj 398 102 r parameters-s;
#X obj 176 288 outlet;
#X connect 0 0 1 0;
#X connect 1 0 2 0;
#X connect 2 0 15 0;
#X connect 3 0 13 0;
#X connect 4 0 2 0;
#X connect 5 0 4 0;
#X connect 6 0 1 1;
#X connect 7 0 11 0;
#X connect 7 1 8 0;
#X connect 8 0 10 0;
#X connect 9 0 6 0;
#X connect 10 0 1 1;
#X connect 11 0 9 0;
#X connect 11 1 12 0;
#X connect 12 0 6 1;
#X connect 13 0 6 0;
#X connect 13 1 9 1;
#X connect 14 0 7 0;
#X restore 561 671 pd morph-parameters;
#N canvas 0 22 1069 747 morph-parameters 0;
#X obj 176 94 inlet;
#X obj 176 236 pack f f;
#X obj 176 261 line;
#X obj 209 117 r preset-manager-morph-s;
#X msg 72 244 stop;
#X obj 72 214 r STOP-MORPH!;
#X obj 209 206 spigot;
#X obj 398 137 t f f;
#X obj 455 154 == 0;
#X obj 221 176 f;
#X floatatom 455 222 5 0 0 0 - - - 0;
#X obj 398 159 t b f;
#X floatatom 425 192 5 0 0 0 - - - 0;
#X obj 209 139 t f f;
#X obj 398 102 r parameters-s;
#X obj 176 288 outlet;
#X connect 0 0 1 0;
#X connect 1 0 2 0;
#X connect 2 0 15 0;
#X connect 3 0 13 0;
#X connect 4 0 2 0;
#X connect 5 0 4 0;
#X connect 6 0 1 1;
#X connect 7 0 11 0;
#X connect 7 1 8 0;
#X connect 8 0 10 0;
#X connect 9 0 6 0;
#X connect 10 0 1 1;
#X connect 11 0 9 0;
#X connect 11 1 12 0;
#X connect 12 0 6 1;
#X connect 13 0 6 0;
#X connect 13 1 9 1;
#X connect 14 0 7 0;
#X restore 616 570 pd morph-parameters;
#X connect 0 0 26 0;
#X connect 1 0 0 0;
#X connect 2 0 0 0;
#X connect 4 0 2 0;
#X connect 4 1 1 0;
#X connect 5 0 25 0;
#X connect 6 0 19 0;
#X connect 7 0 10 0;
#X connect 7 1 9 0;
#X connect 7 2 8 0;
#X connect 8 0 3 0;
#X connect 9 0 5 0;
#X connect 10 0 6 0;
#X connect 11 0 7 0;
#X connect 12 0 11 0;
#X connect 13 0 17 0;
#X connect 14 0 4 0;
#X connect 14 1 13 0;
#X connect 15 0 14 0;
#X connect 15 1 13 1;
#X connect 16 0 17 1;
#X connect 17 0 28 0;
#X connect 18 0 16 0;
#X connect 19 0 27 0;
#X connect 20 0 21 0;
#X connect 21 0 19 1;
#X connect 22 0 15 0;
#X connect 23 0 6 1;
#X connect 24 0 3 0;
#X connect 25 0 24 0;
#X connect 26 0 40 0;
#X connect 26 1 41 0;
#X connect 26 2 39 0;
#X connect 26 3 42 0;
#X connect 26 4 43 0;
#X connect 27 0 3 0;
#X connect 28 0 0 0;
#X connect 29 0 5 1;
#X connect 31 0 25 1;
#X connect 33 0 25 2;
#X connect 35 0 25 3;
#X connect 37 0 25 4;
#X connect 39 0 34 0;
#X connect 40 0 30 0;
#X connect 41 0 32 0;
#X connect 42 0 36 0;
#X connect 43 0 38 0;
#X restore 1188 26 pd state-saving-via-preset-manager-module;
#N canvas 297 27 648 297 parameter-nudging-system 0;
#X obj 21 171 clip 0 127;
#X obj 213 173 clip 0 127;
#X obj 23 67 clip 0 127;
#X obj 214 69 clip 0 127;
#X obj 407 71 clip 0 127;
#X obj 23 22 r \$0-stereo-delay-rate-left-s;
#X obj 23 95 s \$0-stereo-delay-rate-left-r;
#X obj 214 24 r \$0-stereo-delay-rate-right-s;
#X obj 214 97 s \$0-stereo-delay-rate-right-r;
#X obj 407 24 r \$0-stereo-delay-feedback-s;
#X obj 407 97 s \$0-stereo-delay-feedback-r;
#X obj 21 126 r \$0-stereo-delay-lowpass-s;
#X obj 21 198 s \$0-stereo-delay-lowpass-r;
#X obj 213 128 r \$0-stereo-delay-dry/wet-s;
#X obj 213 199 s \$0-stereo-delay-dry/wet-r;
#N canvas 0 22 484 497 nudge-parameters 0;
#X obj 124 234 random;
#X obj 232 335 f;
#X obj 232 368 +;
#X obj 257 166 random 2;
#X obj 124 275 t f f;
#X obj 124 351 t b f;
#X obj 124 297 *;
#X obj 257 188 sel 0 1;
#X msg 257 280 -1;
#X msg 335 280 1;
#X obj 124 149 t b b b;
#X obj 124 74 r NUDGE!;
#X obj 157 193 r NUDGE-RANGE;
#X obj 247 308 inlet;
#X obj 232 397 outlet;
#X obj 124 96 spigot;
#X obj 185 79 r parameters2-s;
#X connect 0 0 4 0;
#X connect 1 0 2 0;
#X connect 2 0 14 0;
#X connect 3 0 7 0;
#X connect 4 0 6 0;
#X connect 5 0 2 0;
#X connect 5 1 2 1;
#X connect 6 0 5 0;
#X connect 7 0 8 0;
#X connect 7 1 9 0;
#X connect 8 0 6 1;
#X connect 9 0 6 1;
#X connect 10 0 0 0;
#X connect 10 1 1 0;
#X connect 10 2 3 0;
#X connect 11 0 15 0;
#X connect 12 0 0 1;
#X connect 13 0 1 1;
#X connect 15 0 10 0;
#X connect 16 0 15 1;
#X restore 395 45 pd nudge-parameters;
#N canvas 0 22 484 497 nudge-parameters 0;
#X obj 124 234 random;
#X obj 232 335 f;
#X obj 232 368 +;
#X obj 257 166 random 2;
#X obj 124 275 t f f;
#X obj 124 351 t b f;
#X obj 124 297 *;
#X obj 257 188 sel 0 1;
#X msg 257 280 -1;
#X msg 335 280 1;
#X obj 124 149 t b b b;
#X obj 124 74 r NUDGE!;
#X obj 157 193 r NUDGE-RANGE;
#X obj 247 308 inlet;
#X obj 232 397 outlet;
#X obj 124 96 spigot;
#X obj 185 79 r parameters2-s;
#X connect 0 0 4 0;
#X connect 1 0 2 0;
#X connect 2 0 14 0;
#X connect 3 0 7 0;
#X connect 4 0 6 0;
#X connect 5 0 2 0;
#X connect 5 1 2 1;
#X connect 6 0 5 0;
#X connect 7 0 8 0;
#X connect 7 1 9 0;
#X connect 8 0 6 1;
#X connect 9 0 6 1;
#X connect 10 0 0 0;
#X connect 10 1 1 0;
#X connect 10 2 3 0;
#X connect 11 0 15 0;
#X connect 12 0 0 1;
#X connect 13 0 1 1;
#X connect 15 0 10 0;
#X connect 16 0 15 1;
#X restore 22 45 pd nudge-parameters;
#N canvas 0 22 484 497 nudge-parameters 0;
#X obj 124 234 random;
#X obj 232 335 f;
#X obj 232 368 +;
#X obj 257 166 random 2;
#X obj 124 275 t f f;
#X obj 124 351 t b f;
#X obj 124 297 *;
#X obj 257 188 sel 0 1;
#X msg 257 280 -1;
#X msg 335 280 1;
#X obj 124 149 t b b b;
#X obj 124 74 r NUDGE!;
#X obj 157 193 r NUDGE-RANGE;
#X obj 247 308 inlet;
#X obj 232 397 outlet;
#X obj 124 96 spigot;
#X obj 185 79 r parameters2-s;
#X connect 0 0 4 0;
#X connect 1 0 2 0;
#X connect 2 0 14 0;
#X connect 3 0 7 0;
#X connect 4 0 6 0;
#X connect 5 0 2 0;
#X connect 5 1 2 1;
#X connect 6 0 5 0;
#X connect 7 0 8 0;
#X connect 7 1 9 0;
#X connect 8 0 6 1;
#X connect 9 0 6 1;
#X connect 10 0 0 0;
#X connect 10 1 1 0;
#X connect 10 2 3 0;
#X connect 11 0 15 0;
#X connect 12 0 0 1;
#X connect 13 0 1 1;
#X connect 15 0 10 0;
#X connect 16 0 15 1;
#X restore 206 46 pd nudge-parameters;
#N canvas 0 22 484 497 nudge-parameters 0;
#X obj 124 234 random;
#X obj 232 335 f;
#X obj 232 368 +;
#X obj 257 166 random 2;
#X obj 124 275 t f f;
#X obj 124 351 t b f;
#X obj 124 297 *;
#X obj 257 188 sel 0 1;
#X msg 257 280 -1;
#X msg 335 280 1;
#X obj 124 149 t b b b;
#X obj 124 74 r NUDGE!;
#X obj 157 193 r NUDGE-RANGE;
#X obj 247 308 inlet;
#X obj 232 397 outlet;
#X obj 124 96 spigot;
#X obj 185 79 r parameters2-s;
#X connect 0 0 4 0;
#X connect 1 0 2 0;
#X connect 2 0 14 0;
#X connect 3 0 7 0;
#X connect 4 0 6 0;
#X connect 5 0 2 0;
#X connect 5 1 2 1;
#X connect 6 0 5 0;
#X connect 7 0 8 0;
#X connect 7 1 9 0;
#X connect 8 0 6 1;
#X connect 9 0 6 1;
#X connect 10 0 0 0;
#X connect 10 1 1 0;
#X connect 10 2 3 0;
#X connect 11 0 15 0;
#X connect 12 0 0 1;
#X connect 13 0 1 1;
#X connect 15 0 10 0;
#X connect 16 0 15 1;
#X restore 26 148 pd nudge-parameters;
#N canvas 0 22 484 497 nudge-parameters 0;
#X obj 124 234 random;
#X obj 232 335 f;
#X obj 232 368 +;
#X obj 257 166 random 2;
#X obj 124 275 t f f;
#X obj 124 351 t b f;
#X obj 124 297 *;
#X obj 257 188 sel 0 1;
#X msg 257 280 -1;
#X msg 335 280 1;
#X obj 124 149 t b b b;
#X obj 124 74 r NUDGE!;
#X obj 157 193 r NUDGE-RANGE;
#X obj 247 308 inlet;
#X obj 232 397 outlet;
#X obj 124 96 spigot;
#X obj 185 79 r parameters2-s;
#X connect 0 0 4 0;
#X connect 1 0 2 0;
#X connect 2 0 14 0;
#X connect 3 0 7 0;
#X connect 4 0 6 0;
#X connect 5 0 2 0;
#X connect 5 1 2 1;
#X connect 6 0 5 0;
#X connect 7 0 8 0;
#X connect 7 1 9 0;
#X connect 8 0 6 1;
#X connect 9 0 6 1;
#X connect 10 0 0 0;
#X connect 10 1 1 0;
#X connect 10 2 3 0;
#X connect 11 0 15 0;
#X connect 12 0 0 1;
#X connect 13 0 1 1;
#X connect 15 0 10 0;
#X connect 16 0 15 1;
#X restore 210 149 pd nudge-parameters;
#X connect 0 0 12 0;
#X connect 1 0 14 0;
#X connect 2 0 6 0;
#X connect 3 0 8 0;
#X connect 4 0 10 0;
#X connect 5 0 16 0;
#X connect 7 0 17 0;
#X connect 9 0 15 0;
#X connect 11 0 18 0;
#X connect 13 0 19 0;
#X connect 15 0 4 0;
#X connect 16 0 2 0;
#X connect 17 0 3 0;
#X connect 18 0 0 0;
#X connect 19 0 1 0;
#X restore 1188 4 pd parameter-nudging-system;
#N canvas 632 64 749 752 external-messages 0;
#X floatatom 186 706 5 0 0 0 - - - 0;
#X obj 185 328 spigot;
#X obj 218 288 tgl 15 0 empty empty empty 17 7 0 10 #fcfcfc #000000 #000000 0 1;
#X obj 254 272 ==;
#X obj 269 248 f \$1;
#X obj 269 224 loadbang;
#X msg 185 202 \$1 \$2;
#X msg 185 156 symbol \$1;
#X obj 185 180 pack s f;
#X obj 186 685 f;
#X obj 186 633 t b f;
#X obj 186 656 spigot;
#X obj 185 62 unpack s f f;
#X symbolatom 185 94 10 0 0 0 - - - 0;
#X obj 218 308 t f f;
#X obj 245 332 s \$0-msg-spigot;
#X obj 234 640 r \$0-msg-spigot;
#X floatatom 223 594 5 0 0 0 - - - 0;
#X obj 223 573 f;
#X obj 223 521 t b f;
#X obj 223 544 spigot;
#X obj 271 528 r \$0-msg-spigot;
#X floatatom 387 639 5 0 0 0 - - - 0;
#X obj 387 618 f;
#X obj 387 566 t b f;
#X obj 387 589 spigot;
#X obj 435 573 r \$0-msg-spigot;
#X floatatom 424 527 5 0 0 0 - - - 0;
#X obj 424 506 f;
#X obj 424 454 t b f;
#X obj 424 477 spigot;
#X obj 472 461 r \$0-msg-spigot;
#X floatatom 608 537 5 0 0 0 - - - 0;
#X obj 608 516 f;
#X obj 608 464 t b f;
#X obj 608 487 spigot;
#X obj 656 471 r \$0-msg-spigot;
#X obj 185 379 route RATE-LEFT RATE-RIGHT FEEDBACK LOWPASS DRY/WET;
#X obj 186 726 s \$0-stereo-delay-rate-left-r;
#X obj 223 614 s \$0-stereo-delay-rate-right-r;
#X obj 387 659 s \$0-stereo-delay-feedback-r;
#X obj 424 547 s \$0-stereo-delay-lowpass-r;
#X obj 608 557 s \$0-stereo-delay-dry/wet-r;
#X obj 185 14 r spacestation;
#X connect 0 0 38 0;
#X connect 1 0 37 0;
#X connect 2 0 14 0;
#X connect 3 0 2 0;
#X connect 4 0 3 1;
#X connect 5 0 4 0;
#X connect 6 0 1 0;
#X connect 7 0 8 0;
#X connect 8 0 6 0;
#X connect 9 0 0 0;
#X connect 10 0 11 0;
#X connect 10 1 9 1;
#X connect 11 0 9 0;
#X connect 12 0 13 0;
#X connect 12 1 8 1;
#X connect 12 2 3 0;
#X connect 13 0 7 0;
#X connect 14 0 1 1;
#X connect 14 1 15 0;
#X connect 16 0 11 1;
#X connect 17 0 39 0;
#X connect 18 0 17 0;
#X connect 19 0 20 0;
#X connect 19 1 18 1;
#X connect 20 0 18 0;
#X connect 21 0 20 1;
#X connect 22 0 40 0;
#X connect 23 0 22 0;
#X connect 24 0 25 0;
#X connect 24 1 23 1;
#X connect 25 0 23 0;
#X connect 26 0 25 1;
#X connect 27 0 41 0;
#X connect 28 0 27 0;
#X connect 29 0 30 0;
#X connect 29 1 28 1;
#X connect 30 0 28 0;
#X connect 31 0 30 1;
#X connect 32 0 42 0;
#X connect 33 0 32 0;
#X connect 34 0 35 0;
#X connect 34 1 33 1;
#X connect 35 0 33 0;
#X connect 36 0 35 1;
#X connect 37 0 10 0;
#X connect 37 1 19 0;
#X connect 37 2 24 0;
#X connect 37 3 29 0;
#X connect 37 4 34 0;
#X connect 43 0 12 0;
#X restore 1187 -23 pd external-messages;
#X obj 9 34 hsl 128 15 0 127 0 1 \$0-spacestation-inlp-s \$0-spacestation-inlp-r IN-LP 133 7 0 10 #fcfcfc #000000 #000000 12700 1;
#X obj 9 49 hsl 128 15 0 127 0 1 \$0-spacestation-inhp-s \$0-spacestation-inhp-r IN-HP 133 7 0 10 #fcfcfc #000000 #000000 4700 1;
#X obj 9 73 hsl 128 15 0 127 0 1 \$0-spacestation-fblp-s \$0-spacestation-fblp-r FB-LP 133 7 0 10 #fcfcfc #000000 #000000 10300 1;
#X obj 9 88 hsl 128 15 0 127 0 1 \$0-spacestation-fbhp-s \$0-spacestation-fbhp-r FB-HP 133 7 0 10 #fcfcfc #000000 #000000 2700 1;
#X obj 9 109 hsl 128 15 0 127 0 1 \$0-spacestation-fbgain-s \$0-spacestation-fbgain-r FEEDBACK 133 7 0 10 #fcfcfc #000000 #000000 10000 1;
#X obj 9 145 hsl 128 15 0 127 0 1 \$0-spacestation-mix-s \$0-spacestation-mix-r DRY/WET 133 7 0 10 #fcfcfc #000000 #000000 4300 1;
#X obj 451 132 / 1.27;
#X floatatom 451 153 5 0 0 0 - - - 0;
#X obj 83 6 cnv 5 5 5 empty empty FEEDBACK 0 0 0 8 #fcfcfc #404040 0;
#X obj 6 21 cnv 5 5 5 empty empty SPACESTATION 0 0 0 12 #fcfcfc #404040 0;
#X obj 3 7 cnv 5 5 5 empty empty IN 0 0 0 8 #fcfcfc #404040 0;
#X obj 96 21 cnv 5 5 5 empty \$0-instance-num 0 0 0 0 12 #fcfcfc #404040 0;
#X obj 162 7 cnv 5 5 5 empty empty DRY/WET 0 0 0 8 #fcfcfc #404040 0;
#X obj 4 193 cnv 5 5 5 empty empty LEFT 0 0 0 8 #fcfcfc #404040 0;
#X obj 173 193 cnv 5 5 5 empty empty RIGHT 0 0 0 8 #fcfcfc #404040 0;
#X obj 9 124 hsl 128 15 0 127 0 1 \$0-vca-cv-att-s \$0-vca-cv-att-r CV 133 7 0 10 #9898dc #000000 #000000 12700 1;
#X obj 9 160 hsl 128 15 0 127 0 1 \$0-vca-cv-att-s \$0-vca-cv-att-r CV 133 7 0 10 #9898dc #000000 #000000 12700 1;
#X floatatom 221 249 5 0 0 0 - - - 0;
#X obj 221 198 / 1.27;
#X obj 610 72 snapshot~;
#X obj 679 37 tgl 15 0 empty empty empty 17 7 0 10 #fcfcfc #000000 #000000 0 1;
#X obj 610 94 change;
#X obj 679 -37 env~;
#X obj 679 -15 > 0;
#X obj 679 7 change;
#X floatatom 610 136 5 0 0 0 - - - 0;
#X obj 611 -78 inlet~;
#X text 609 -105 FEEDBACK - MODULATION-IN;
#X text 300 -105 AUDIO-IN;
#X obj 610 186 *;
#X obj 625 162 / 127;
#X floatatom 610 216 5 0 0 0 - - - 0;
#X obj 614 286 +;
#X obj 630 248 t b f;
#X obj 610 116 * 100;
#X obj 679 55 metro 10;
#X obj 940 82 snapshot~;
#X obj 1009 47 tgl 15 0 empty empty empty 17 7 0 10 #fcfcfc #000000 #000000 0 1;
#X obj 940 104 change;
#X obj 1009 -27 env~;
#X obj 1009 -5 > 0;
#X obj 1009 17 change;
#X floatatom 940 146 5 0 0 0 - - - 0;
#X obj 941 -68 inlet~;
#X obj 940 126 * 100;
#X text 939 -95 DRY/WETT - MODULATION-IN;
#X obj 221 291 min 3;
#X obj 940 206 *;
#X obj 955 182 / 127;
#X floatatom 940 236 5 0 0 0 - - - 0;
#X obj 934 326 +;
#X obj 950 288 t b f;
#X obj 387 343 vline~;
#X obj 376 482 vline~;
#X obj 1009 65 metro 10;
#X obj 376 462 pack \$1 5;
#X obj 387 323 pack \$1 5;
#X connect 0 0 6 1;
#X connect 1 0 5 1;
#X connect 2 0 6 0;
#X connect 3 0 5 0;
#X connect 4 0 7 0;
#X connect 4 0 87 0;
#X connect 5 0 20 0;
#X connect 6 0 19 0;
#X connect 7 0 8 0;
#X connect 8 0 86 0;
#X connect 9 0 10 0;
#X connect 9 0 23 1;
#X connect 11 0 12 0;
#X connect 11 0 23 2;
#X connect 13 0 14 0;
#X connect 13 0 23 3;
#X connect 15 0 16 0;
#X connect 15 0 23 4;
#X connect 18 0 3 1;
#X connect 18 0 2 1;
#X connect 18 0 23 0;
#X connect 21 0 4 0;
#X connect 22 0 17 0;
#X connect 22 0 77 0;
#X connect 23 0 0 1;
#X connect 23 1 1 1;
#X connect 24 0 26 0;
#X connect 26 0 27 0;
#X connect 27 0 25 0;
#X connect 31 0 9 0;
#X connect 32 0 11 0;
#X connect 33 0 13 0;
#X connect 34 0 15 0;
#X connect 35 0 49 0;
#X connect 36 0 37 0;
#X connect 37 0 38 0;
#X connect 38 0 81 0;
#X connect 46 0 61 0;
#X connect 47 0 79 0;
#X connect 48 0 22 0;
#X connect 49 0 63 0;
#X connect 50 0 52 0;
#X connect 51 0 66 0;
#X connect 52 0 65 0;
#X connect 53 0 54 0;
#X connect 54 0 55 0;
#X connect 55 0 51 0;
#X connect 56 0 60 0;
#X connect 57 0 50 0;
#X connect 57 0 53 0;
#X connect 60 0 62 0;
#X connect 61 0 60 1;
#X connect 62 0 64 0;
#X connect 63 0 48 0;
#X connect 64 0 63 0;
#X connect 64 1 63 1;
#X connect 65 0 56 0;
#X connect 66 0 50 0;
#X connect 67 0 69 0;
#X connect 68 0 85 0;
#X connect 69 0 75 0;
#X connect 70 0 71 0;
#X connect 71 0 72 0;
#X connect 72 0 68 0;
#X connect 73 0 78 0;
#X connect 74 0 67 0;
#X connect 74 0 70 0;
#X connect 75 0 73 0;
#X connect 77 0 23 5;
#X connect 78 0 80 0;
#X connect 79 0 78 1;
#X connect 80 0 82 0;
#X connect 81 0 21 0;
#X connect 82 0 81 0;
#X connect 82 1 81 1;
#X connect 83 0 1 0;
#X connect 83 0 0 0;
#X connect 84 0 3 0;
#X connect 84 0 2 0;
#X connect 85 0 67 0;
#X connect 86 0 84 0;
#X connect 87 0 83 0;
#X coords 0 -1 1 1 200 200 2 0 0;
