#N canvas 0 25 1440 847 10;
#X obj 103 287 +;
#X obj 883 208 t b;
#X obj 850 264 spigot;
#X msg 883 227 0;
#X obj 919 209 del 5;
#X msg 919 228 1;
#X text 830 144 writing param to scene;
#X text 95 146 reading param from array to gui;
#X obj 573 305 tabread \$1-presets;
#X obj 573 210 * 16;
#X obj 573 265 +;
#X obj 573 187 t f b;
#X text 567 144 reading param from array to scene B;
#X obj 573 167 r b-scene;
#X obj 573 286 f;
#X obj 599 286 t b;
#X obj 113 -127 inlet;
#X obj 103 507 outlet;
#X obj 348 -122 inlet;
#X obj 328 502 outlet;
#X obj 574 500 outlet;
#X obj 103 437 tabread scene1;
#X obj 960 237 +;
#X obj 849 371 tabwrite scene1;
#X obj 103 197 t f b;
#X floatatom 783 253 5 0 0 0 - - - 0;
#X obj 115 256 t b f b;
#X obj 967 216 t b f;
#X obj 133 220 s \$0-wait;
#X obj 603 210 s \$0-wait;
#X obj 883 188 r \$0-wait;
#X floatatom 1007 132 5 0 0 0 - - - 0;
#X obj 959 69 r \$1-modul-id;
#X floatatom 60 234 5 0 0 0 - - - 0;
#X obj 103 170 r \$1-modul-id;
#X obj 323 287 +;
#X obj 323 359 tabread scene1;
#X obj 323 197 t f b;
#X obj 335 256 t b f b;
#X obj 353 220 s \$0-wait;
#X floatatom 280 234 5 0 0 0 - - - 0;
#X obj 323 170 r \$1-modul-id;
#X obj 323 308 + 1600;
#X text 323 144 reading sce from array to scene A;
#X obj 157 309 r scene-tester;
#X obj 157 330 * 1600;
#X obj 103 397 +;
#X floatatom 51 515 5 0 0 0 - - - 0;
#X obj 157 351 t b f b;
#X obj 153 276 s \$0-wait;
#X obj 373 276 s \$0-wait;
#X obj 197 380 s \$0-wait;
#X floatatom 290 414 5 0 0 0 - - - 0;
#X floatatom 46 442 5 0 0 0 - - - 0;
#X obj 986 271 r scene-tester;
#X obj 986 292 * 1600;
#X obj 939 318 +;
#X obj 986 313 t b f;
#X connect 0 0 46 0;
#X connect 1 0 3 0;
#X connect 1 0 4 0;
#X connect 2 0 23 0;
#X connect 2 0 25 0;
#X connect 3 0 2 1;
#X connect 4 0 5 0;
#X connect 5 0 2 1;
#X connect 9 0 10 0;
#X connect 10 0 14 0;
#X connect 11 0 9 0;
#X connect 11 1 29 0;
#X connect 13 0 11 0;
#X connect 14 0 8 0;
#X connect 15 0 14 0;
#X connect 16 0 10 1;
#X connect 16 0 26 0;
#X connect 16 0 27 0;
#X connect 18 0 15 0;
#X connect 18 0 2 0;
#X connect 18 0 19 0;
#X connect 18 0 52 0;
#X connect 21 0 17 0;
#X connect 21 0 20 0;
#X connect 21 0 47 0;
#X connect 22 0 56 0;
#X connect 24 0 0 0;
#X connect 24 1 28 0;
#X connect 25 0 23 0;
#X connect 26 0 0 0;
#X connect 26 1 0 1;
#X connect 26 2 49 0;
#X connect 27 0 22 0;
#X connect 27 1 22 1;
#X connect 30 0 1 0;
#X connect 32 0 22 0;
#X connect 32 0 31 0;
#X connect 34 0 24 0;
#X connect 34 0 33 0;
#X connect 35 0 42 0;
#X connect 37 0 35 0;
#X connect 37 1 39 0;
#X connect 38 0 35 0;
#X connect 38 1 35 1;
#X connect 38 2 50 0;
#X connect 41 0 37 0;
#X connect 41 0 40 0;
#X connect 42 0 36 0;
#X connect 44 0 45 0;
#X connect 45 0 48 0;
#X connect 46 0 21 0;
#X connect 46 0 53 0;
#X connect 48 0 46 0;
#X connect 48 1 46 1;
#X connect 48 2 51 0;
#X connect 54 0 55 0;
#X connect 55 0 57 0;
#X connect 56 0 23 1;
#X connect 57 0 56 0;
#X connect 57 1 56 1;
#X coords 0 847 1 846 220 120 0;
