#N canvas 0 25 1440 847 10;
#X obj 1150 369 hsl 60 10 0 1 0 0 \$0-a \$0-ra base -2 -7 0 10 #2c0060 #fcfcfc #001488 0 1;
#X obj 1150 392 hsl 60 10 0 1 0 0 \$0-c \$0-rc fmAmount -2 -7 0 10 #2c0060 #fcfcfc #001488 0 1;
#X obj 1237 369 hsl 60 10 0 1 0 0 \$0-b \$0-rb feedback -2 -7 0 10 #2c0060 #fcfcfc #001488 0 1;
#X obj 1237 392 hsl 60 10 0 1 0 0 \$0-d \$0-rd mod1 -2 -7 0 10 #2c0060 #fcfcfc #001488 0 1;
#X obj 1150 415 hsl 60 10 0 1 0 0 \$0-e \$0-re mod2 -2 -7 0 10 #2c0060 #fcfcfc #001488 0 1;
#X obj 1150 438 hsl 60 10 0 1 0 0 \$0-g \$0-rg env -2 -7 0 10 #2c0060 #fcfcfc #001488 0 1;
#X obj 1237 415 hsl 60 10 0 1 0 0 \$0-f \$0-rf decay -2 -7 0 10 #2c0060 #fcfcfc #001488 0 1;
#X obj 1237 438 hsl 60 10 0 1 0 0 \$0-h \$0-rh gain -2 -7 0 10 #2c0060 #fcfcfc #001488 0 1;
#X obj 1130 366 cnv 12 15 13 empty empty 0 1 6 0 12 #202020 #fcfcfc 0;
#X obj 1130 389 cnv 12 15 13 empty empty 2 1 6 0 12 #202020 #fcfcfc 0;
#X obj 1130 412 cnv 12 15 13 empty empty 4 1 6 0 12 #202020 #fcfcfc 0;
#X obj 1130 435 cnv 12 15 13 empty empty 6 1 6 0 12 #202020 #fcfcfc 0;
#X obj 1217 366 cnv 12 15 13 empty empty 1 1 6 0 12 #202020 #fcfcfc 0;
#X obj 1217 389 cnv 12 15 13 empty empty 3 1 6 0 12 #202020 #fcfcfc 0;
#X obj 1217 412 cnv 12 15 13 empty empty 5 1 6 0 12 #202020 #fcfcfc 0;
#X obj 1217 435 cnv 12 15 13 empty empty 7 1 6 0 12 #202020 #fcfcfc 0;
#X obj 2048 6 inlet modulation-add;
#X obj 2176 6 inlet modulation-multiply;
#X obj 1870 8 r \$0-values;
#X obj 2049 26 list prepend add;
#X obj 2177 27 list prepend mul;
#X text 1068 201 outlet audio~;
#X obj 1759 13 inlet controls;
#X obj 1758 47 s \$0-controls;
#N canvas 47 74 1068 587 modulate.oOo..oOo..oOo.. 0;
#X obj 101 271 +;
#X obj 101 250 t b f;
#X obj 82 82 route 0 1 2 3 4 5 6 7;
#X obj 244 216 route 0 1 2 3 4 5 6 7;
#X obj 138 271 +;
#X obj 138 250 t b f;
#X obj 175 271 +;
#X obj 175 250 t b f;
#X obj 212 271 +;
#X obj 212 250 t b f;
#X obj 248 271 +;
#X obj 248 250 t b f;
#X obj 286 271 +;
#X obj 286 250 t b f;
#X obj 323 271 +;
#X obj 323 250 t b f;
#X obj 360 271 +;
#X obj 360 250 t b f;
#X obj 61 8 inlet;
#X obj 99 490 outlet;
#X obj 155 486 outlet;
#X obj 208 489 outlet;
#X obj 264 489 outlet;
#X obj 318 486 outlet;
#X obj 370 486 outlet;
#X obj 425 485 outlet;
#X obj 492 484 outlet;
#X obj 78 409 clip 0 1;
#X obj 132 411 clip 0 1;
#X obj 186 412 clip 0 1;
#X obj 240 414 clip 0 1;
#X obj 294 416 clip 0 1;
#X obj 348 418 clip 0 1;
#X obj 402 419 clip 0 1;
#X obj 456 421 clip 0 1;
#X obj 418 177 route add mul;
#X obj 117 332 t b f;
#X obj 156 335 t b f;
#X obj 193 335 t b f;
#X obj 230 335 t b f;
#X obj 266 335 t b f;
#X obj 304 335 t b f;
#X obj 341 335 t b f;
#X obj 378 335 t b f;
#X obj 118 356 * 1;
#X obj 156 356 * 1;
#X obj 193 356 * 1;
#X obj 231 355 * 1;
#X obj 266 356 * 1;
#X obj 304 356 * 1;
#X obj 341 356 * 1;
#X obj 378 356 * 1;
#X obj 397 275 route 0 1 2 3 4 5 6 7;
#X obj 550 262 +;
#X obj 550 241 t b f;
#X obj 587 262 +;
#X obj 587 241 t b f;
#X obj 624 262 +;
#X obj 624 241 t b f;
#X obj 661 262 +;
#X obj 661 241 t b f;
#X obj 697 262 +;
#X obj 697 241 t b f;
#X obj 735 262 +;
#X obj 735 241 t b f;
#X obj 772 262 +;
#X obj 772 241 t b f;
#X obj 809 262 +;
#X obj 809 241 t b f;
#X obj 548 481 outlet;
#X obj 604 477 outlet;
#X obj 657 480 outlet;
#X obj 713 480 outlet;
#X obj 767 477 outlet;
#X obj 819 477 outlet;
#X obj 874 476 outlet;
#X obj 941 475 outlet;
#X obj 527 400 clip 0 1;
#X obj 581 402 clip 0 1;
#X obj 635 403 clip 0 1;
#X obj 689 405 clip 0 1;
#X obj 743 407 clip 0 1;
#X obj 797 409 clip 0 1;
#X obj 851 410 clip 0 1;
#X obj 905 412 clip 0 1;
#X obj 867 168 route add mul;
#X obj 566 323 t b f;
#X obj 605 326 t b f;
#X obj 642 326 t b f;
#X obj 679 326 t b f;
#X obj 715 326 t b f;
#X obj 753 326 t b f;
#X obj 790 326 t b f;
#X obj 827 326 t b f;
#X obj 567 347 * 1;
#X obj 605 347 * 1;
#X obj 642 347 * 1;
#X obj 680 346 * 1;
#X obj 715 347 * 1;
#X obj 753 347 * 1;
#X obj 790 347 * 1;
#X obj 827 347 * 1;
#X obj 693 206 route 8 9 10 11 12 13 14 5;
#X obj 846 266 route 8 9 10 11 12 13 14 15;
#X msg 79 110 \$1 20;
#X msg 92 130 \$1 20;
#X msg 120 111 \$1 20;
#X msg 133 131 \$1 20;
#X msg 161 110 \$1 20;
#X msg 174 130 \$1 20;
#X msg 202 111 \$1 20;
#X msg 215 131 \$1 20;
#X obj 92 171 line 0 1;
#X obj 109 194 line 0 1;
#X obj 149 166 line 0 1;
#X obj 166 189 line 0 1;
#X obj 207 163 line 0 1;
#X obj 224 186 line 0 1;
#X obj 264 158 line 0 1;
#X obj 281 181 line 0 1;
#X msg 501 51 \$1 20;
#X msg 514 71 \$1 20;
#X msg 542 52 \$1 20;
#X msg 555 72 \$1 20;
#X msg 583 51 \$1 20;
#X msg 596 71 \$1 20;
#X msg 624 52 \$1 20;
#X msg 637 72 \$1 20;
#X obj 512 111 line 0 1;
#X obj 571 107 line 0 1;
#X obj 588 130 line 0 1;
#X obj 629 104 line 0 1;
#X obj 646 127 line 0 1;
#X obj 686 99 line 0 1;
#X obj 703 122 line 0 1;
#X obj 504 22 route 8 9 10 11 12 13 14 15;
#X obj 530 132 line 0 1;
#X obj 845 94 list trim;
#X obj 849 72 inlet;
#X connect 0 0 44 0;
#X connect 1 0 0 0;
#X connect 1 1 0 1;
#X connect 2 0 104 0;
#X connect 2 1 105 0;
#X connect 2 2 106 0;
#X connect 2 3 107 0;
#X connect 2 4 108 0;
#X connect 2 5 109 0;
#X connect 2 6 110 0;
#X connect 2 7 111 0;
#X connect 3 0 0 0;
#X connect 3 1 4 0;
#X connect 3 2 6 0;
#X connect 3 3 8 0;
#X connect 3 4 10 0;
#X connect 3 5 12 0;
#X connect 3 6 14 0;
#X connect 3 7 16 0;
#X connect 4 0 45 0;
#X connect 5 0 4 0;
#X connect 5 1 4 1;
#X connect 6 0 46 0;
#X connect 7 0 6 0;
#X connect 7 1 6 1;
#X connect 8 0 47 0;
#X connect 9 0 8 0;
#X connect 9 1 8 1;
#X connect 10 0 48 0;
#X connect 11 0 10 0;
#X connect 11 1 10 1;
#X connect 12 0 49 0;
#X connect 13 0 12 0;
#X connect 13 1 12 1;
#X connect 14 0 50 0;
#X connect 15 0 14 0;
#X connect 15 1 14 1;
#X connect 16 0 51 0;
#X connect 17 0 16 0;
#X connect 17 1 16 1;
#X connect 18 0 2 0;
#X connect 18 0 135 0;
#X connect 27 0 19 0;
#X connect 28 0 20 0;
#X connect 29 0 21 0;
#X connect 30 0 22 0;
#X connect 31 0 23 0;
#X connect 32 0 24 0;
#X connect 33 0 25 0;
#X connect 34 0 26 0;
#X connect 35 0 3 0;
#X connect 35 1 52 0;
#X connect 36 0 44 0;
#X connect 36 1 44 1;
#X connect 37 0 45 0;
#X connect 37 1 45 1;
#X connect 38 0 46 0;
#X connect 38 1 46 1;
#X connect 39 0 47 0;
#X connect 39 1 47 1;
#X connect 40 0 48 0;
#X connect 40 1 48 1;
#X connect 41 0 49 0;
#X connect 41 1 49 1;
#X connect 42 0 50 0;
#X connect 42 1 50 1;
#X connect 43 0 51 0;
#X connect 43 1 51 1;
#X connect 44 0 27 0;
#X connect 45 0 28 0;
#X connect 46 0 29 0;
#X connect 47 0 30 0;
#X connect 48 0 31 0;
#X connect 49 0 32 0;
#X connect 50 0 33 0;
#X connect 51 0 34 0;
#X connect 52 0 36 0;
#X connect 52 1 37 0;
#X connect 52 2 38 0;
#X connect 52 3 39 0;
#X connect 52 4 40 0;
#X connect 52 5 41 0;
#X connect 52 6 42 0;
#X connect 52 7 43 0;
#X connect 53 0 94 0;
#X connect 54 0 53 0;
#X connect 54 1 53 1;
#X connect 55 0 95 0;
#X connect 56 0 55 0;
#X connect 56 1 55 1;
#X connect 57 0 96 0;
#X connect 58 0 57 0;
#X connect 58 1 57 1;
#X connect 59 0 97 0;
#X connect 60 0 59 0;
#X connect 60 1 59 1;
#X connect 61 0 98 0;
#X connect 62 0 61 0;
#X connect 62 1 61 1;
#X connect 63 0 99 0;
#X connect 64 0 63 0;
#X connect 64 1 63 1;
#X connect 65 0 100 0;
#X connect 66 0 65 0;
#X connect 66 1 65 1;
#X connect 67 0 101 0;
#X connect 68 0 67 0;
#X connect 68 1 67 1;
#X connect 77 0 69 0;
#X connect 78 0 70 0;
#X connect 79 0 71 0;
#X connect 80 0 72 0;
#X connect 81 0 73 0;
#X connect 82 0 74 0;
#X connect 83 0 75 0;
#X connect 84 0 76 0;
#X connect 85 0 102 0;
#X connect 85 1 103 0;
#X connect 86 0 94 0;
#X connect 86 1 94 1;
#X connect 87 0 95 0;
#X connect 87 1 95 1;
#X connect 88 0 96 0;
#X connect 88 1 96 1;
#X connect 89 0 97 0;
#X connect 89 1 97 1;
#X connect 90 0 98 0;
#X connect 90 1 98 1;
#X connect 91 0 99 0;
#X connect 91 1 99 1;
#X connect 92 0 100 0;
#X connect 92 1 100 1;
#X connect 93 0 101 0;
#X connect 93 1 101 1;
#X connect 94 0 77 0;
#X connect 95 0 78 0;
#X connect 96 0 79 0;
#X connect 97 0 80 0;
#X connect 98 0 81 0;
#X connect 99 0 82 0;
#X connect 100 0 83 0;
#X connect 101 0 84 0;
#X connect 102 0 53 0;
#X connect 102 1 55 0;
#X connect 102 2 57 0;
#X connect 102 3 59 0;
#X connect 102 4 61 0;
#X connect 102 5 63 0;
#X connect 102 6 65 0;
#X connect 102 7 67 0;
#X connect 103 0 86 0;
#X connect 103 1 87 0;
#X connect 103 2 88 0;
#X connect 103 3 89 0;
#X connect 103 4 90 0;
#X connect 103 5 91 0;
#X connect 103 6 92 0;
#X connect 103 7 93 0;
#X connect 104 0 112 0;
#X connect 105 0 113 0;
#X connect 106 0 114 0;
#X connect 107 0 115 0;
#X connect 108 0 116 0;
#X connect 109 0 117 0;
#X connect 110 0 118 0;
#X connect 111 0 119 0;
#X connect 112 0 1 0;
#X connect 113 0 5 0;
#X connect 114 0 7 0;
#X connect 115 0 9 0;
#X connect 116 0 11 0;
#X connect 117 0 13 0;
#X connect 118 0 15 0;
#X connect 119 0 17 0;
#X connect 120 0 128 0;
#X connect 121 0 136 0;
#X connect 122 0 129 0;
#X connect 123 0 130 0;
#X connect 124 0 131 0;
#X connect 125 0 132 0;
#X connect 126 0 133 0;
#X connect 127 0 134 0;
#X connect 128 0 54 0;
#X connect 129 0 58 0;
#X connect 130 0 60 0;
#X connect 131 0 62 0;
#X connect 132 0 64 0;
#X connect 133 0 66 0;
#X connect 134 0 68 0;
#X connect 135 0 120 0;
#X connect 135 1 121 0;
#X connect 135 2 122 0;
#X connect 135 3 123 0;
#X connect 135 4 124 0;
#X connect 135 5 125 0;
#X connect 135 6 126 0;
#X connect 135 7 127 0;
#X connect 136 0 56 0;
#X connect 137 0 35 0;
#X connect 137 0 85 0;
#X connect 138 0 137 0;
#X restore 1872 68 pd modulate.oOo..oOo..oOo..;
#X text 1062 187 inlets trigger \, control \, add \, multiply;
#N canvas 310 88 659 655 andy-hat~ 0;
#X obj 363 444 r \$0-gain;
#N canvas 0 22 466 316 rh_scalelog 0;
#X obj 20 155 exp;
#X obj 20 107 *;
#X obj 20 130 +;
#X obj 98 87 log;
#X obj 194 84 log;
#X obj 123 123 t b f;
#X obj 123 145 -;
#X obj 20 183 outlet;
#X obj 20 19 inlet;
#X obj 98 23 inlet;
#X obj 194 24 inlet;
#X connect 0 0 7 0;
#X connect 1 0 2 0;
#X connect 2 0 0 0;
#X connect 3 0 2 1;
#X connect 3 0 5 0;
#X connect 4 0 6 0;
#X connect 5 0 6 0;
#X connect 5 1 6 1;
#X connect 6 0 1 1;
#X connect 8 0 1 0;
#X connect 9 0 3 0;
#X connect 10 0 4 0;
#X restore 363 514 pd rh_scalelog;
#X msg 410 490 0.1;
#X msg 456 490 10;
#X obj 291 606 outlet~;
#X obj 246 260 *~;
#X obj 230 428 +~;
#X obj 231 489 osc~;
#X obj 247 375 *~;
#X obj 229 399 sig~;
#X obj 202 203 osc~;
#X obj 239 201 osc~;
#X obj 205 260 +~;
#N canvas 0 22 458 308 xf 0;
#X obj 107 37 inlet~;
#X obj 158 37 inlet~;
#X obj 123 135 *~;
#X obj 152 134 *~;
#X obj 134 178 outlet~;
#X obj 171 87 sig~ 1;
#X obj 169 108 -~;
#X obj 227 37 inlet~ xfade;
#X connect 0 0 2 0;
#X connect 1 0 3 0;
#X connect 2 0 4 0;
#X connect 3 0 4 0;
#X connect 5 0 6 0;
#X connect 6 0 3 1;
#X connect 7 0 6 1;
#X connect 7 0 2 1;
#X restore 206 300 pd xf;
#X text 304 258 2 ringmod;
#X obj 275 260 *~;
#X obj 176 540 s~ \$0-fb;
#X obj 260 431 r~ \$0-fb;
#X obj 231 465 +~;
#X text 205 486 fbfm;
#X obj 177 516 *~ 600;
#X obj 147 170 * 5000;
#X obj 210 170 * 5000;
#X obj 353 334 * 5000;
#X obj 125 441 * 1000;
#X obj 124 463 + 100;
#X obj 276 200 vline~;
#X obj 276 121 f;
#X obj 282 532 *~;
#X obj 299 493 *~;
#X obj 298 467 *~ 1;
#X obj 125 414 r \$0-feedback;
#X obj 147 144 r \$0-mod1;
#X obj 209 144 r \$0-mod2;
#X obj 393 -2 r \$0-decay;
#X obj 293 587 *~;
#X obj 306 227 r \$0-env;
#N canvas 0 22 466 316 rh_scalelog 0;
#X obj 20 155 exp;
#X obj 20 107 *;
#X obj 20 130 +;
#X obj 98 87 log;
#X obj 194 84 log;
#X obj 123 123 t b f;
#X obj 123 145 -;
#X obj 20 183 outlet;
#X obj 20 19 inlet;
#X obj 98 23 inlet;
#X obj 194 24 inlet;
#X connect 0 0 7 0;
#X connect 1 0 2 0;
#X connect 2 0 0 0;
#X connect 3 0 2 1;
#X connect 3 0 5 0;
#X connect 4 0 6 0;
#X connect 5 0 6 0;
#X connect 5 1 6 1;
#X connect 6 0 1 1;
#X connect 8 0 1 0;
#X connect 9 0 3 0;
#X connect 10 0 4 0;
#X restore 391 77 pd rh_scalelog;
#X msg 439 53 10;
#X msg 484 53 10000;
#X obj 62 229 r \$0-base;
#X obj 65 290 + 100;
#X obj 64 267 * 15000;
#X obj 276 29 inlet;
#X obj 276 58 t b;
#X obj 356 306 r \$0-fmAmount;
#X msg 272 162 1 0 1 \, 0 \$1 1;
#X obj 282 556 *~ 0.3;
#X msg 296 82 0.25;
#X obj 411 464 r \$0-loadbang;
#X obj 439 27 r \$0-loadbang;
#X connect 0 0 1 0;
#X connect 1 0 35 1;
#X connect 2 0 1 1;
#X connect 3 0 1 2;
#X connect 5 0 13 1;
#X connect 6 0 18 0;
#X connect 7 0 20 0;
#X connect 7 0 28 0;
#X connect 8 0 6 1;
#X connect 9 0 6 0;
#X connect 10 0 5 0;
#X connect 10 0 12 0;
#X connect 11 0 5 1;
#X connect 11 0 12 1;
#X connect 12 0 13 0;
#X connect 13 0 8 0;
#X connect 15 0 13 2;
#X connect 17 0 18 1;
#X connect 18 0 7 0;
#X connect 20 0 16 0;
#X connect 21 0 10 0;
#X connect 22 0 11 0;
#X connect 23 0 8 1;
#X connect 24 0 25 0;
#X connect 25 0 20 1;
#X connect 26 0 15 0;
#X connect 26 0 30 0;
#X connect 27 0 46 0;
#X connect 28 0 47 0;
#X connect 29 0 28 1;
#X connect 30 0 29 0;
#X connect 30 0 29 1;
#X connect 31 0 24 0;
#X connect 32 0 21 0;
#X connect 33 0 22 0;
#X connect 34 0 37 0;
#X connect 35 0 4 0;
#X connect 36 0 15 1;
#X connect 37 0 27 1;
#X connect 38 0 37 1;
#X connect 39 0 37 2;
#X connect 40 0 42 0;
#X connect 41 0 9 0;
#X connect 42 0 41 0;
#X connect 43 0 44 0;
#X connect 44 0 27 0;
#X connect 44 0 48 0;
#X connect 45 0 23 0;
#X connect 46 0 26 0;
#X connect 47 0 35 0;
#X connect 48 0 10 1;
#X connect 48 0 11 1;
#X connect 48 0 7 1;
#X connect 49 0 2 0;
#X connect 49 0 3 0;
#X connect 50 0 38 0;
#X connect 50 0 39 0;
#X restore 956 188 pd andy-hat~;
#X obj 1746 161 s \$0-base;
#X obj 1812 160 s \$0-feedback;
#X obj 1897 159 s \$0-fmAmount;
#X obj 1984 160 s \$0-mod1;
#X obj 2046 160 s \$0-mod2;
#X obj 2111 160 s \$0-decay;
#X obj 2183 161 s \$0-env;
#X obj 2239 159 s \$0-gain;
#X msg 1854 203 base feedback fmAmount mod1 mod2 decay env gain;
#X text 1531 299 fm hihat \, again care of obiwannabe.;
#X text 1549 316 use the source.;
#X msg 1953 267 0.7 0.8 0.85 0.46 0.481 0.45 0.4 0.4;
#X text 1537 334 www.obiwannabe.co.uk;
#N canvas 361 43 829 678 list-functions 0;
#N canvas 0 22 462 312 list-enumerate 0;
#X obj 107 63 t a b;
#N canvas 473 338 454 304 count 0;
#X obj 131 154 f 0;
#X obj 156 153 + 1;
#X msg 147 133 0;
#X obj 131 183 outlet;
#X obj 131 59 inlet;
#X obj 131 96 b;
#X obj 178 61 inlet;
#X obj 178 98 b;
#X connect 0 0 1 0;
#X connect 0 0 3 0;
#X connect 1 0 0 1;
#X connect 2 0 0 1;
#X connect 4 0 5 0;
#X connect 5 0 0 0;
#X connect 6 0 7 0;
#X connect 7 0 2 0;
#X restore 186 155 pd count;
#X obj 107 113 t a b;
#X obj 107 33 inlet;
#X obj 107 181 list prepend;
#X obj 107 209 outlet;
#X obj 165 209 outlet;
#N canvas 0 22 537 411 drip 0;
#X obj 64 206 list split 1;
#X obj 64 123 until;
#X obj 64 181 list append;
#X obj 194 206 bang;
#X text 146 90 First store list \, then start the loop;
#X text 163 118 "until" bangs its output until told to stop by a "bang" to its right inlet.;
#X text 182 160 Store the remaining list.;
#X text 239 205 third outlet of "split" tells us to stop.;
#X obj 64 243 outlet;
#X obj 64 57 inlet;
#X text 237 44 From list-help.pd;
#X obj 143 243 outlet;
#X obj 64 86 t b a;
#X connect 0 0 8 0;
#X connect 0 1 2 1;
#X connect 0 2 3 0;
#X connect 0 2 11 0;
#X connect 1 0 2 0;
#X connect 2 0 0 0;
#X connect 3 0 1 1;
#X connect 9 0 12 0;
#X connect 12 0 1 0;
#X connect 12 1 2 1;
#X restore 110 88 pd drip;
#X obj 76 154 list prepend label;
#X connect 0 0 7 0;
#X connect 0 1 1 1;
#X connect 1 0 4 1;
#X connect 2 0 8 0;
#X connect 2 1 1 0;
#X connect 3 0 0 0;
#X connect 4 0 5 0;
#X connect 7 0 2 0;
#X connect 7 1 6 0;
#X connect 8 0 4 0;
#X restore 37 184 pd list-enumerate;
#X obj 37 230 s \$0-controls;
#N canvas 0 22 482 332 list-enumerate 0;
#N canvas 473 338 458 308 count 0;
#X obj 131 154 f 0;
#X obj 156 153 + 1;
#X msg 147 133 0;
#X obj 131 183 outlet;
#X obj 131 59 inlet;
#X obj 131 96 b;
#X obj 178 61 inlet;
#X obj 178 98 b;
#X connect 0 0 1 0;
#X connect 0 0 3 0;
#X connect 1 0 0 1;
#X connect 2 0 0 1;
#X connect 4 0 5 0;
#X connect 5 0 0 0;
#X connect 6 0 7 0;
#X connect 7 0 2 0;
#X restore 186 155 pd count;
#X obj 107 113 t a b;
#X obj 107 33 inlet;
#X obj 107 181 list prepend;
#X obj 112 253 outlet;
#N canvas 0 22 541 415 drip 0;
#X obj 64 206 list split 1;
#X obj 64 123 until;
#X obj 64 181 list append;
#X obj 194 206 bang;
#X text 146 90 First store list \, then start the loop;
#X text 163 118 "until" bangs its output until told to stop by a "bang" to its right inlet.;
#X text 182 160 Store the remaining list.;
#X text 239 205 third outlet of "split" tells us to stop.;
#X obj 64 243 outlet;
#X obj 64 57 inlet;
#X text 237 44 From list-help.pd;
#X obj 143 243 outlet;
#X obj 64 86 t b a;
#X connect 0 0 8 0;
#X connect 0 1 2 1;
#X connect 0 2 3 0;
#X connect 0 2 11 0;
#X connect 1 0 2 0;
#X connect 2 0 0 0;
#X connect 3 0 1 1;
#X connect 9 0 12 0;
#X connect 12 0 1 0;
#X connect 12 1 2 1;
#X restore 110 88 pd drip;
#X obj 107 63 t a b;
#X connect 0 0 3 1;
#X connect 1 0 3 0;
#X connect 1 1 0 0;
#X connect 2 0 6 0;
#X connect 3 0 4 0;
#X connect 5 0 1 0;
#X connect 6 0 5 0;
#X connect 6 1 0 1;
#X restore 149 183 pd list-enumerate;
#X obj 190 231 808_state \$1/controls;
#N canvas 0 22 498 348 list-enumerate 0;
#N canvas 473 338 458 308 count 0;
#X obj 131 154 f 0;
#X obj 156 153 + 1;
#X msg 147 133 0;
#X obj 131 183 outlet;
#X obj 131 59 inlet;
#X obj 131 96 b;
#X obj 178 61 inlet;
#X obj 178 98 b;
#X connect 0 0 1 0;
#X connect 0 0 3 0;
#X connect 1 0 0 1;
#X connect 2 0 0 1;
#X connect 4 0 5 0;
#X connect 5 0 0 0;
#X connect 6 0 7 0;
#X connect 7 0 2 0;
#X restore 186 155 pd count;
#X obj 107 113 t a b;
#X obj 107 33 inlet;
#X obj 107 181 list prepend;
#X obj 112 253 outlet;
#N canvas 0 22 541 415 drip 0;
#X obj 64 206 list split 1;
#X obj 64 123 until;
#X obj 64 181 list append;
#X obj 194 206 bang;
#X text 146 90 First store list \, then start the loop;
#X text 163 118 "until" bangs its output until told to stop by a "bang" to its right inlet.;
#X text 182 160 Store the remaining list.;
#X text 239 205 third outlet of "split" tells us to stop.;
#X obj 64 243 outlet;
#X obj 64 57 inlet;
#X text 237 44 From list-help.pd;
#X obj 143 243 outlet;
#X obj 64 86 t b a;
#X connect 0 0 8 0;
#X connect 0 1 2 1;
#X connect 0 2 3 0;
#X connect 0 2 11 0;
#X connect 1 0 2 0;
#X connect 2 0 0 0;
#X connect 3 0 1 1;
#X connect 9 0 12 0;
#X connect 12 0 1 0;
#X connect 12 1 2 1;
#X restore 110 88 pd drip;
#X obj 194 215 t a;
#X obj 106 209 list prepend;
#X obj 107 63 t a b b;
#X connect 0 0 3 1;
#X connect 1 0 3 0;
#X connect 1 1 0 0;
#X connect 2 0 8 0;
#X connect 3 0 7 0;
#X connect 5 0 1 0;
#X connect 6 0 7 1;
#X connect 7 0 6 0;
#X connect 7 0 4 0;
#X connect 8 0 5 0;
#X connect 8 1 0 1;
#X connect 8 2 7 1;
#X restore 411 149 pd list-enumerate;
#X obj 104 251 r \$0-controls;
#X obj 272 98 r \$0-values;
#N canvas 283 65 551 703 replacelist 0;
#X obj 164 224 list;
#X obj 327 98 inlet;
#X obj 250 98 inlet;
#X text 331 72 orig;
#X text 256 74 pos;
#X text 77 70 list to insert;
#X obj 85 94 inlet;
#X obj 207 281 list split;
#X obj 85 526 list;
#X obj 85 598 outlet;
#X obj 85 317 list prepend;
#X obj 85 120 t a b a b;
#X obj 85 430 list prepend 0;
#X obj 250 125 t f f;
#X obj 207 524 list prepend;
#X obj 85 469 route 0 1;
#X obj 316 347 f;
#X obj 286 282 t a b;
#X obj 316 377 > 0;
#X obj 122 358 r \$0-init;
#X obj 122 377 0;
#X obj 300 524 r \$0-init;
#X obj 176 317 r \$0-init;
#X obj 118 527 r \$0-init;
#X obj 159 131 s \$0-init;
#X text 47 25 list-replace: Replace the list starting at position POS with a new list \, overwriting the old elements.;
#N canvas 0 22 458 308 length 0;
#X obj 171 164 + 1;
#X obj 92 127 b;
#X obj 126 204 f;
#X obj 158 138 1;
#X obj 142 166 f 1;
#X obj 216 168 0;
#X obj 136 59 t a b b;
#N canvas 0 22 537 411 drip 0;
#X obj 64 206 list split 1;
#X obj 64 123 until;
#X obj 64 181 list append;
#X obj 194 206 bang;
#X text 146 90 First store list \, then start the loop;
#X text 163 118 "until" bangs its output until told to stop by a "bang" to its right inlet.;
#X text 182 160 Store the remaining list.;
#X text 239 205 third outlet of "split" tells us to stop.;
#X obj 64 243 outlet;
#X obj 64 57 inlet;
#X text 237 44 From list-help.pd;
#X obj 143 243 outlet;
#X obj 64 86 t b a;
#X connect 0 0 8 0;
#X connect 0 1 2 1;
#X connect 0 2 3 0;
#X connect 0 2 11 0;
#X connect 1 0 2 0;
#X connect 2 0 0 0;
#X connect 3 0 1 1;
#X connect 9 0 12 0;
#X connect 12 0 1 0;
#X connect 12 1 2 1;
#X restore 92 104 pd drip;
#X obj 137 36 inlet;
#X obj 125 238 outlet;
#X connect 0 0 4 1;
#X connect 1 0 4 0;
#X connect 2 0 9 0;
#X connect 3 0 4 1;
#X connect 4 0 0 0;
#X connect 4 0 2 1;
#X connect 5 0 2 1;
#X connect 6 0 7 0;
#X connect 6 1 3 0;
#X connect 6 2 5 0;
#X connect 7 0 1 0;
#X connect 7 1 2 0;
#X connect 8 0 6 0;
#X restore 268 216 pd length;
#X obj 162 254 list split;
#X connect 0 0 27 0;
#X connect 1 0 0 1;
#X connect 2 0 13 0;
#X connect 6 0 11 0;
#X connect 7 1 8 1;
#X connect 7 1 14 1;
#X connect 8 0 9 0;
#X connect 10 0 12 0;
#X connect 11 0 10 0;
#X connect 11 1 0 0;
#X connect 11 2 26 0;
#X connect 11 3 24 0;
#X connect 12 0 15 0;
#X connect 13 0 27 1;
#X connect 13 1 16 1;
#X connect 14 0 9 0;
#X connect 15 0 8 0;
#X connect 15 1 14 0;
#X connect 16 0 18 0;
#X connect 17 0 14 1;
#X connect 17 0 8 1;
#X connect 17 1 16 0;
#X connect 18 0 12 1;
#X connect 19 0 20 0;
#X connect 20 0 12 1;
#X connect 21 0 14 1;
#X connect 22 0 10 1;
#X connect 23 0 8 1;
#X connect 26 0 7 1;
#X connect 27 0 10 1;
#X connect 27 1 7 0;
#X connect 27 2 17 0;
#X restore 289 199 pd replacelist;
#X obj 423 265 t a;
#X obj 272 130 swap;
#X obj 50 109 inlet;
#N canvas 0 22 545 419 drip2 0;
#X obj 64 123 until;
#X obj 64 181 list append;
#X obj 194 206 bang;
#X text 146 90 First store list \, then start the loop;
#X text 163 118 "until" bangs its output until told to stop by a "bang" to its right inlet.;
#X text 182 160 Store the remaining list.;
#X text 239 205 third outlet of "split" tells us to stop.;
#X obj 64 243 outlet;
#X obj 64 57 inlet;
#X text 237 44 From list-help.pd;
#X obj 143 243 outlet;
#X obj 64 86 t b a;
#X obj 64 206 list split 2;
#X connect 0 0 1 0;
#X connect 1 0 12 0;
#X connect 2 0 0 1;
#X connect 8 0 11 0;
#X connect 11 0 0 0;
#X connect 11 1 1 1;
#X connect 12 0 7 0;
#X connect 12 1 1 1;
#X connect 12 2 2 0;
#X connect 12 2 10 0;
#X restore 190 285 pd drip2;
#X obj 253 24 inlet;
#X obj 144 355 route 0 1 2 3 4 5 6 7 8 9 10 11 12 13 14 15;
#X obj 144 381 s \$0-ra;
#X obj 156 401 s \$0-rb;
#X obj 167 422 s \$0-rc;
#X obj 179 442 s \$0-rd;
#X obj 194 381 s \$0-re;
#X obj 206 401 s \$0-rf;
#X obj 217 422 s \$0-rg;
#X obj 229 442 s \$0-rh;
#X obj 250 383 s \$0-ri;
#X obj 262 403 s \$0-rj;
#X obj 273 424 s \$0-rk;
#X obj 285 444 s \$0-rl;
#X obj 299 383 s \$0-rm;
#X obj 312 403 s \$0-rn;
#X obj 323 424 s \$0-ro;
#X obj 335 444 s \$0-rp;
#X obj 35 505 r \$0-a;
#X msg 35 530 0 \$1;
#X obj 78 505 r \$0-b;
#X msg 77 529 1 \$1;
#X obj 121 505 r \$0-c;
#X obj 164 505 r \$0-d;
#X msg 121 530 2 \$1;
#X msg 163 529 3 \$1;
#X obj 208 503 r \$0-e;
#X obj 251 503 r \$0-f;
#X obj 294 503 r \$0-g;
#X obj 337 503 r \$0-h;
#X msg 208 528 4 \$1;
#X msg 250 526 5 \$1;
#X msg 294 527 6 \$1;
#X msg 336 527 7 \$1;
#X obj 383 503 r \$0-i;
#X obj 426 502 r \$0-j;
#X obj 468 503 r \$0-k;
#X obj 512 503 r \$0-l;
#X obj 556 501 r \$0-m;
#X obj 599 501 r \$0-o;
#X obj 642 501 r \$0-p;
#X obj 685 501 r \$0-q;
#X msg 383 528 8 \$1;
#X msg 425 527 9 \$1;
#X msg 469 528 10 \$1;
#X msg 511 527 11 \$1;
#X msg 556 526 12 \$1;
#X msg 598 524 13 \$1;
#X msg 641 525 14 \$1;
#X msg 684 525 15 \$1;
#X obj 683 559 s \$0-values;
#X obj 413 202 t a a;
#X obj 412 182 list;
#X obj 257 47 t a b a;
#X obj 294 150 * 2;
#X obj 295 170 + 1;
#X obj 191 253 t a a;
#X connect 0 0 1 0;
#X connect 2 0 1 0;
#X connect 3 0 68 0;
#X connect 4 0 64 1;
#X connect 5 0 13 0;
#X connect 6 0 9 0;
#X connect 7 0 8 0;
#X connect 7 0 3 1;
#X connect 8 0 7 2;
#X connect 9 0 7 0;
#X connect 9 1 66 0;
#X connect 10 0 0 0;
#X connect 11 0 13 0;
#X connect 12 0 65 0;
#X connect 13 0 14 0;
#X connect 13 1 15 0;
#X connect 13 2 16 0;
#X connect 13 3 17 0;
#X connect 13 4 18 0;
#X connect 13 5 19 0;
#X connect 13 6 20 0;
#X connect 13 7 21 0;
#X connect 13 8 22 0;
#X connect 13 9 23 0;
#X connect 13 10 24 0;
#X connect 13 11 25 0;
#X connect 13 12 26 0;
#X connect 13 13 27 0;
#X connect 13 14 28 0;
#X connect 13 15 29 0;
#X connect 30 0 31 0;
#X connect 31 0 62 0;
#X connect 32 0 33 0;
#X connect 33 0 62 0;
#X connect 34 0 36 0;
#X connect 35 0 37 0;
#X connect 36 0 62 0;
#X connect 37 0 62 0;
#X connect 38 0 42 0;
#X connect 39 0 43 0;
#X connect 40 0 44 0;
#X connect 41 0 45 0;
#X connect 42 0 62 0;
#X connect 43 0 62 0;
#X connect 44 0 62 0;
#X connect 45 0 62 0;
#X connect 46 0 54 0;
#X connect 47 0 55 0;
#X connect 48 0 56 0;
#X connect 49 0 57 0;
#X connect 50 0 58 0;
#X connect 51 0 59 0;
#X connect 52 0 60 0;
#X connect 53 0 61 0;
#X connect 54 0 62 0;
#X connect 55 0 62 0;
#X connect 56 0 62 0;
#X connect 57 0 62 0;
#X connect 58 0 62 0;
#X connect 59 0 62 0;
#X connect 60 0 62 0;
#X connect 61 0 62 0;
#X connect 63 0 7 2;
#X connect 63 1 3 1;
#X connect 64 0 63 0;
#X connect 65 0 2 0;
#X connect 65 1 64 0;
#X connect 65 2 4 0;
#X connect 66 0 67 0;
#X connect 67 0 7 1;
#X connect 68 0 11 0;
#X connect 68 1 7 2;
#X restore 1853 293 pd list-functions;
#X obj 1955 244 t b b;
#X obj 1996 312 s \$0-loadbang;
#X obj 1124 268 bng 16 250 50 0 empty empty empty 0 -8 0 10 #fcfcfc #000000 #000000;
#X text 1078 211 outlet audio~;
#X obj 1020 389 outlet~;
#X obj 1013 100 unpack;
#X obj 1013 129 stripnote;
#X obj 1013 152 bng 16 250 50 0 empty empty empty 0 -8 0 10 #fcfcfc #000000 #000000;
#X obj 1012 48 inlet;
#X obj 1014 283 *~;
#X obj 1065 224 / 127;
#X obj 1064 269 line~;
#X obj 1065 241 pack 0 2;
#X msg 1125 236 100;
#X obj 125 135 cnv 5 5 5 empty empty FMPERC 0 0 0 12 #fcfcfc #404040 0;
#X obj 171 135 cnv 5 5 5 empty \$0-instance-num 0 0 0 0 12 #fcfcfc #404040 0;
#X obj 103 109 cnv 5 5 5 empty empty IN 0 0 0 8 #fcfcfc #ff8300 0;
#X text 1013 69 TRIGGER IN;
#X msg -137 644 1;
#X obj 307 357 bng 10 250 50 0 \$0-options-button \$0-options-button-r OPTIONS -45 5 0 10 #fcfcfc #000000 #000000;
#X obj 342 118 text define -k \$0-modul-settings;
#A set PERK \; PITCH \; FMOD \; INDICE \; CRELEASE \; MRELEASE \; EMPTY \; EMPTY \; EMPTY \; SRC \; 8 \; #00c090 \; #00a078 \; #008068 \; #3a3a3a \; #505050 \; #2b2b2b \; #8c7a58 \; #b8a890 \;;
#N canvas 324 349 425 350 info 0;
#X text 23 12 This textfile contains all necessery names of the module and the names of the gui (faders etc.). This way its much easier to change the names of all elements simply by editing the text object.;
#X text 25 93 The Order of the file \; 0=Modul-Name \; 1=Name Param1 - write non if unused \; 2=Name Param2 \; 3=Name Param3 \; 4=Name Param4 \; 5=Name Param5 \; 6=Name Param6 \; 7=Name Param7 \; 8=Name Param8 \; 9=Type of Module (SRC \, MOD \, LFO \, EFX etc) \; 10=Number of used Parameters (1-8) \; 11=Color of Param1-Circle 12=Color of Param2-Circle \; 13=Color of Param3-Circle \; 14=Color of Param4-Circle \; 15=Color of Param5-Circle \; 16=Color of Param6-Circle \; 17=Color of Param7-Circle \; 18=Color of Param8-Circle \; ....;
#X restore 564 117 pd info;
#X text 542 117 ->;
#X text 340 97 Parameter-Values + Names + Colors:;
#X text 491 227 <--rename labels here;
#X text 491 247 <--modules values are saved here;
#X text 442 265 <--Opens the Options-Subpatch;
#X obj 341 512 s \$0-param-1-t;
#X msg 341 493 symbol \$1%;
#X obj 341 435 / 1.27;
#X floatatom 341 454 5 0 0 0 - - - 0;
#X obj 341 474 i;
#X obj 341 336 s \$0-a;
#X obj 395 336 s \$0-b;
#X obj 449 336 s \$0-c;
#X obj 504 336 s \$0-d;
#X obj 558 335 s \$0-e;
#X obj 613 335 s \$0-f;
#X obj 667 334 s \$0-g;
#X obj 722 334 s \$0-h;
#X text 767 334 <--these go to the dsp-object;
#X text 441 185 <--receives encoder messages from mother.pd;
#X text 441 165 <--sends display info to mother.pd;
#X text 451 205 <--checks menu and if module is "active";
#X text 738 307 <--receives audio + message for mod;
#X obj 341 414 r \$0-param-1-s;
#X msg 437 493 symbol \$1%;
#X obj 437 435 / 1.27;
#X floatatom 437 454 5 0 0 0 - - - 0;
#X obj 437 474 i;
#X obj 437 414 r \$0-param-2-s;
#X obj 437 512 s \$0-param-2-t;
#X msg 535 492 symbol \$1%;
#X obj 535 434 / 1.27;
#X floatatom 535 453 5 0 0 0 - - - 0;
#X obj 535 473 i;
#X obj 535 413 r \$0-param-3-s;
#X obj 535 511 s \$0-param-3-t;
#X msg 635 492 symbol \$1%;
#X obj 635 434 / 1.27;
#X floatatom 635 453 5 0 0 0 - - - 0;
#X obj 635 473 i;
#X obj 635 413 r \$0-param-4-s;
#X obj 635 511 s \$0-param-4-t;
#X msg 341 633 symbol \$1%;
#X obj 341 575 / 1.27;
#X floatatom 341 594 5 0 0 0 - - - 0;
#X obj 341 614 i;
#X msg 437 633 symbol \$1%;
#X obj 437 575 / 1.27;
#X floatatom 437 594 5 0 0 0 - - - 0;
#X obj 437 614 i;
#X msg 535 632 symbol \$1%;
#X obj 535 574 / 1.27;
#X floatatom 535 593 5 0 0 0 - - - 0;
#X obj 535 613 i;
#X msg 635 632 symbol \$1%;
#X obj 635 574 / 1.27;
#X floatatom 635 593 5 0 0 0 - - - 0;
#X obj 635 613 i;
#X obj 341 554 r \$0-param-5-s;
#X obj 341 652 s \$0-param-5-t;
#X obj 437 554 r \$0-param-6-s;
#X obj 437 652 s \$0-param-6-t;
#X obj 535 553 r \$0-param-7-s;
#X obj 535 651 s \$0-param-7-t;
#X obj 635 553 r \$0-param-8-s;
#X obj 635 651 s \$0-param-8-t;
#X obj 341 165 core_display \$0;
#X obj 341 185 core_encoder \$0;
#X obj 341 206 core_main_menu \$0;
#X obj 341 227 core_module_settings \$0;
#X obj 341 308 core_modulation_receiver \$0, f 64;
#X obj 341 247 core_state_saving \$0 \$1;
#X obj 341 266 core_options \$0;
#X text 340 144 Modul Core:;
#X text 339 390 Value Display Representation:;
#X obj 1080 96 r \$0-a;
#X obj 1124 96 r \$0-b;
#X obj 1303 193 r \$0-c;
#X obj 1184 95 r \$0-d;
#X obj 1253 97 r \$0-e;
#X obj 127 236 hsl 128 15 0 127 0 1 \$0-param-4-s \$0-param-4-r CRELEASE 133 7 0 10 #3a3a3a #000000 #000000 7000 1;
#X obj 127 174 hsl 128 15 0 127 0 1 \$0-param-2-s \$0-param-2-r FMOD 133 7 0 10 #00a078 #000000 #000000 1900 1;
#X obj 127 267 hsl 128 15 0 127 0 1 \$0-param-5-s \$0-param-5-r MRELEASE 133 7 0 10 #505050 #000000 #000000 12700 1;
#X obj 127 143 hsl 128 15 0 127 0 1 \$0-param-1-s \$0-param-1-r PITCH 133 7 0 10 #00c090 #000000 #000000 6400 1;
#X obj 127 205 hsl 128 15 0 127 0 1 \$0-param-3-s \$0-param-3-r INDICE 133 7 0 10 #008068 #000000 #000000 3600 1;
#X obj 199 109 cnv 5 5 5 empty empty MOD1 0 0 0 8 #fcfcfc #404040 0;
#X obj 298 108 cnv 5 5 5 empty empty MOD2 0 0 0 8 #fcfcfc #404040 0;
#X obj 1356 46 inlet~;
#X obj 1445 43 inlet~;
#X obj 1356 136 throw~ \$0-mod1;
#X obj 1445 132 throw~ \$0-mod2;
#X text 1354 29 MOD1;
#X text 1443 26 MOD2;
#X obj 127 158 hsl 61 8 0 127 0 1 \$0-param-9-s \$0-param-9-r empty 133 7 0 10 #606060 #000000 #000000 1400 1;
#X obj 194 158 hsl 61 8 0 127 0 1 \$0-param-17-s \$0-param-17-r empty 133 7 0 10 #7c7c7c #000000 #000000 0 1;
#X obj 127 189 hsl 61 8 0 127 0 1 \$0-param-10-s \$0-param-10-r empty 133 7 0 10 #606060 #000000 #000000 0 1;
#X obj 194 189 hsl 61 8 0 127 0 1 \$0-param-18-s \$0-param-18-r empty 133 7 0 10 #7c7c7c #000000 #000000 0 1;
#X obj 127 220 hsl 61 8 0 127 0 1 \$0-param-11-s \$0-param-11-r empty 133 7 0 10 #606060 #000000 #000000 0 1;
#X obj 194 220 hsl 61 8 0 127 0 1 \$0-param-19-s \$0-param-19-r empty 133 7 0 10 #7c7c7c #000000 #000000 0 1;
#X obj 127 251 hsl 61 8 0 127 0 1 \$0-param-12-s \$0-param-12-r empty 133 7 0 10 #606060 #000000 #000000 0 1;
#X obj 194 251 hsl 61 8 0 127 0 1 \$0-param-20-s \$0-param-20-r empty 133 7 0 10 #7c7c7c #000000 #000000 0 1;
#X obj 127 282 hsl 61 8 0 127 0 1 \$0-param-13-s \$0-param-13-r empty 133 7 0 10 #606060 #000000 #000000 0 1;
#X obj 194 282 hsl 61 8 0 127 0 1 \$0-param-21-s \$0-param-21-r empty 133 7 0 10 #7c7c7c #000000 #000000 0 1;
#X obj 341 287 core_mod_display \$0;
#X connect 0 0 42 0;
#X connect 17 0 20 0;
#X connect 47 0 48 0;
#X connect 50 0 47 0;
#X connect 51 0 46 0;
#X connect 52 0 54 0;
#X connect 53 0 51 1;
#X connect 54 0 53 0;
#X connect 70 0 69 0;
#X connect 71 0 72 0;
#X connect 72 0 73 0;
#X connect 87 0 71 0;
#X connect 88 0 93 0;
#X connect 89 0 90 0;
#X connect 91 0 88 0;
#X connect 94 0 99 0;
#X connect 95 0 96 0;
#X connect 97 0 94 0;
#X connect 100 0 105 0;
#X connect 101 0 102 0;
#X connect 103 0 100 0;
#X connect 107 0 108 0;
#X connect 108 0 109 0;
#X connect 109 0 106 0;
#X connect 111 0 112 0;
#X connect 112 0 113 0;
#X connect 113 0 110 0;
#X connect 115 0 116 0;
#X connect 116 0 117 0;
#X connect 117 0 114 0;
#X connect 119 0 120 0;
#X connect 121 0 118 0;
#X connect 139 0 1 0;
#X connect 141 0 2 0;
#X connect 142 0 4 0;
#X connect 143 0 5 0;
#X connect 151 0 153 0;
#X coords 0 -1 1 1 220 270 1 100 100;
