#N canvas 203 231 846 347 10;
#X obj 107 122 cnv 5 5 5 empty empty CLIPPER 0 0 0 12 #fcfcfc #404040 0;
#X obj 190 122 cnv 5 5 5 empty \$0-instance-num 3 0 0 0 12 #fcfcfc #404040 0;
#X obj 105 109 cnv 5 5 5 empty empty IN 0 0 0 8 #fcfcfc #404040 0;
#N canvas 1 50 450 300 hardclip 0;
#X obj 104 77 inlet~;
#X obj 104 100 clip~ -1 1;
#X obj 104 123 outlet~;
#X obj 247 120 switch~;
#X obj 247 68 r \$0-clipper-type-s;
#X obj 247 97 == 4;
#X connect 0 0 1 0;
#X connect 1 0 2 0;
#X connect 4 0 5 0;
#X connect 5 0 3 0;
#X restore 614 156 pd hardclip;
#N canvas 1 50 659 468 algebraic 0;
#X obj 104 86 inlet~;
#X obj 103 221 outlet~;
#X obj 131 122 pow~ 2;
#X obj 131 145 +~ 1;
#X obj 131 168 sqrt~;
#X obj 103 192 /~;
#X obj 282 150 switch~;
#X obj 282 98 r \$0-clipper-type-s;
#X obj 282 127 == 2;
#X text 237 245 from Audiolab phillip schmalfuß;
#X connect 0 0 2 0;
#X connect 0 0 5 0;
#X connect 2 0 3 0;
#X connect 3 0 4 0;
#X connect 4 0 5 1;
#X connect 5 0 1 0;
#X connect 7 0 8 0;
#X connect 8 0 6 0;
#X restore 458 156 pd algebraic;
#N canvas 1 50 515 299 logistic 0;
#X obj 104 79 inlet~;
#X obj 106 197 outlet~;
#X obj 131 116 abs~;
#X obj 105 163 /~;
#X obj 131 139 +~ 1;
#X obj 267 156 switch~;
#X obj 267 104 r \$0-clipper-type-s;
#X obj 267 133 == 3;
#X text 222 214 from Audiolab phillip schmalfuß;
#X connect 0 0 2 0;
#X connect 0 0 3 0;
#X connect 2 0 4 0;
#X connect 3 0 1 0;
#X connect 4 0 3 1;
#X connect 6 0 7 0;
#X connect 7 0 5 0;
#X restore 538 156 pd logistic;
#N canvas 1 50 644 393 tanh 0;
#X obj 117 43 inlet~;
#X obj 97 249 outlet~;
#X text 104 76 eulerische zahl;
#X obj 203 114 *~ -1;
#X obj 181 135 pow~;
#X obj 96 125 pow~;
#X obj 96 93 sig~ 2.71828;
#X obj 165 175 +~;
#X obj 96 175 -~;
#X obj 96 220 /~;
#X obj 403 149 switch~;
#X obj 403 97 r \$0-clipper-type-s;
#X obj 403 126 == 1;
#X text 295 284 from Audiolab phillip schmalfuß;
#X connect 0 0 5 1;
#X connect 0 0 3 0;
#X connect 3 0 4 1;
#X connect 4 0 7 1;
#X connect 4 0 8 1;
#X connect 5 0 8 0;
#X connect 5 0 7 0;
#X connect 6 0 5 0;
#X connect 6 0 4 0;
#X connect 7 0 9 1;
#X connect 8 0 9 0;
#X connect 9 0 1 0;
#X connect 11 0 12 0;
#X connect 12 0 10 0;
#X restore 405 156 pd tanh;
#X obj 506 70 inlet~;
#X obj 512 246 outlet~;
#N canvas 293 37 700 734 state-saving-multiple-instances 0;
#X obj 188 29 loadbang;
#X obj 332 423 textfile;
#X msg 614 406 rewind;
#X msg 571 406 bang;
#X obj 93 691 textfile;
#X obj 571 367 t b b;
#X obj 94 357 f;
#X obj 107 580 f;
#X obj 35 401 t b b b;
#X msg 170 580 clear;
#X obj 255 217 outlet;
#X text 297 221 INSTANCE NUMBER;
#X obj 216 153 f \$1;
#X obj 216 189 t f f f;
#X obj 189 62 t b b;
#X obj 35 378 bng 15 250 50 0 empty empty empty 17 7 0 10 #fcfcfc #000000 #000000;
#X obj 35 234 r SAVE-S;
#X obj 95 400 pack f;
#X msg 96 438 set \$1;
#X msg 106 651 write statesave/\$1-clipper-ss.txt;
#X msg 332 397 read statesave/\$1-clipper-ss.txt;
#X obj 332 446 unpack f;
#X obj 330 474 s \$0-cliper-type-r;
#X obj 111 327 r \$0-clipper-type-s;
#X connect 0 0 14 0;
#X connect 1 0 21 0;
#X connect 2 0 1 0;
#X connect 3 0 1 0;
#X connect 5 0 3 0;
#X connect 5 1 2 0;
#X connect 6 0 17 0;
#X connect 7 0 19 0;
#X connect 8 0 7 0;
#X connect 8 1 6 0;
#X connect 8 2 9 0;
#X connect 9 0 4 0;
#X connect 12 0 13 0;
#X connect 13 0 7 1;
#X connect 13 1 20 0;
#X connect 13 2 10 0;
#X connect 14 0 5 0;
#X connect 14 1 12 0;
#X connect 15 0 8 0;
#X connect 16 0 15 0;
#X connect 17 0 18 0;
#X connect 18 0 4 0;
#X connect 19 0 4 0;
#X connect 20 0 1 0;
#X connect 21 0 22 0;
#X connect 23 0 6 1;
#X restore 100 181 pd state-saving-multiple-instances;
#X obj 100 255 s \$0-instance-num;
#X obj 100 207 makefilename %d;
#X msg 100 232 label \$1;
#N canvas 0 22 555 442 anaclip 0;
#X obj 44 95 *~;
#X obj 95 125 *~ 9;
#X obj 42 182 /~;
#X obj 43 148 +~ 27;
#X obj 26 240 outlet~;
#X obj 26 210 *~;
#X text 99 193 x * ( 27 + x * x ) / ( 27 + 9 * x * x );
#X obj 94 148 +~ 27;
#X text 89 238 stolen from musicdsp.org via frank barknecht;
#X text 115 58 nice analogue clipping \, assuming input is between -3 and 3;
#X obj 27 47 clip~ -3 3;
#X obj 27 16 inlet~;
#X text 107 174 approximate inverse tan;
#X text 346 285 part of dlib;
#X text 135 351 released under the GNU General Public License v3+;
#X text 253 312 copyright damian stewart 2008;
#X text 224 326 damian@frey.co.nz | www.frey.co.nz;
#X obj 403 149 switch~;
#X obj 403 126 == 0;
#X obj 403 97 r \$0-clipper-type-s;
#X connect 0 0 3 0;
#X connect 0 0 1 0;
#X connect 1 0 7 0;
#X connect 2 0 5 1;
#X connect 3 0 2 0;
#X connect 5 0 4 0;
#X connect 7 0 2 1;
#X connect 10 0 0 0;
#X connect 10 0 0 1;
#X connect 10 0 5 0;
#X connect 11 0 10 0;
#X connect 18 0 17 0;
#X connect 19 0 18 0;
#X restore 336 156 pd anaclip;
#N canvas 44 297 754 507 clipper-gui 0;
#X obj 68 354 makefilename %s;
#X msg 68 378 label \$1;
#X obj 384 173 t b b;
#X obj 252 173 t b b;
#X obj 155 173 t b b;
#X obj 69 39 r \$0-clipper-type-s;
#X obj 492 173 t b b;
#X msg 254 201 symbol ALGEBRAIC;
#X msg 380 201 symbol LOGISTIC;
#X msg 150 201 symbol TANH;
#X msg 494 201 symbol HARDCLIP;
#X obj 68 400 s \$0-clipper-type-gui-s;
#X obj 609 173 t b b;
#X msg 611 201 symbol BYPASS;
#X obj 19 173 t b b;
#X obj 69 61 sel 0 1 2 3 4 5;
#X msg 21 201 symbol ANALOG-CLIP;
#X connect 0 0 1 0;
#X connect 1 0 11 0;
#X connect 2 1 8 0;
#X connect 3 1 7 0;
#X connect 4 1 9 0;
#X connect 5 0 15 0;
#X connect 6 1 10 0;
#X connect 7 0 0 0;
#X connect 8 0 0 0;
#X connect 9 0 0 0;
#X connect 10 0 0 0;
#X connect 12 1 13 0;
#X connect 13 0 0 0;
#X connect 14 1 16 0;
#X connect 15 0 14 0;
#X connect 15 1 4 0;
#X connect 15 2 3 0;
#X connect 15 3 2 0;
#X connect 15 4 6 0;
#X connect 15 5 12 0;
#X connect 16 0 0 0;
#X restore 102 73 pd clipper-gui;
#X obj 107 130 hradio 15 1 1 6 \$0-clipper-type-s \$0-clipper-type-r empty 67 7 0 10 #fcfcfc #9ce404 #000000 0;
#X obj 107 145 cnv 3 90 15 empty empty empty 20 12 0 14 #000000 #404040 0;
#X obj 108 146 cnv 3 88 13 empty empty empty 20 12 0 14 #9ce404 #404040 0;
#X obj 113 153 cnv 4 5 5 empty \$0-clipper-type-gui-s ANALOG-CLIP 0 0 0 10 #9ce404 #404040 0;
#N canvas 0 22 450 300 bypass 0;
#X obj 46 59 inlet~;
#X obj 47 105 outlet~;
#X obj 247 120 switch~;
#X obj 247 68 r \$0-clipper-type-s;
#X obj 247 97 == 5;
#X connect 0 0 1 0;
#X connect 3 0 4 0;
#X connect 4 0 2 0;
#X restore 691 156 pd bypass;
#X connect 3 0 8 0;
#X connect 4 0 8 0;
#X connect 5 0 8 0;
#X connect 6 0 8 0;
#X connect 7 0 13 0;
#X connect 7 0 6 0;
#X connect 7 0 4 0;
#X connect 7 0 5 0;
#X connect 7 0 3 0;
#X connect 7 0 19 0;
#X connect 9 0 11 0;
#X connect 11 0 12 0;
#X connect 12 0 10 0;
#X connect 13 0 8 0;
#X connect 19 0 8 0;
#X coords 0 -1 1 1 104 68 2 100 100;
