#N canvas 62 26 1378 788 10;
#X obj 28 889 clip~ -1 1;
#X obj 28 907 hip~ 3;
#X obj 27 546 i;
#X obj 63 413 vsl 17 127 1 127 0 1 empty empty VELOCITY 0 -9 0 10 #fcfcfc #000000 #000000 12600 1;
#X obj 63 548 nbx 3 17 1 127 0 0 empty empty empty 0 -8 0 10 #fcfcfc #000000 #000000 0 256;
#X obj 395 424 hsl 128 17 0 127 0 1 \$0-attack empty ATTACK -2 -8 0 10 #fcfcfc #000000 #000000 0 1;
#X obj 525 424 nbx 3 17 0 127 0 0 empty \$0-attack empty 0 -8 0 10 #fcfcfc #000000 #000000 0 256;
#X obj 51 596 r \$0-attack;
#X msg 51 618 attack \$1;
#X obj 81 640 r \$0-decay;
#X msg 81 662 decay \$1;
#X obj 101 684 r \$0-noise;
#X msg 101 706 noise \$1;
#X msg 131 750 highpass \$1;
#X obj 131 728 r \$0-highpass;
#X obj 395 459 hsl 128 17 0 127 0 1 \$0-decay empty DECAY -2 -8 0 10 #fcfcfc #000000 #000000 9200 1;
#X obj 525 459 nbx 3 17 0 127 0 0 empty \$0-decay empty 0 -8 0 10 #fcfcfc #000000 #000000 0 256;
#X obj 395 494 hsl 128 17 0 127 0 1 \$0-noise empty NOISE -2 -8 0 10 #fcfcfc #000000 #000000 12700 1;
#X obj 525 494 nbx 3 17 0 127 0 0 empty \$0-noise empty 0 -8 0 10 #fcfcfc #000000 #000000 0 256;
#X obj 395 529 hsl 128 17 0 127 0 1 \$0-highpass empty HIGHPASS -2 -8 0 10 #fcfcfc #000000 #000000 0 1;
#X obj 525 529 nbx 3 17 0 127 0 0 empty \$0-highpass empty 0 -8 0 10 #fcfcfc #000000 #000000 0 256;
#X text 745 253 INLET 1: Trigger / Velocity;
#X text 755 321 - DECAY: controls the decay for the noise env;
#X text 745 406 INLET 3: Tuning;
#X text 755 421 A list of 6 numbers to tune each comb filter (in Hz).;
#X text 755 436 Default: 210.2 320.09 379.973 539.95 549.5 799.957;
#X text 755 381 Default: 0 120 64 64;
#X msg 299 664 210.2 320.09 379.973 539.95 549.5 799.957;
#X text 755 268 Trigger the cymbal by sending a number from 1 to 127;
#X text 755 366 - HIGHPASS: Controls de cutoff freq.;
#X text 755 351 - NOISE: controls the amount of noise.;
#X text 755 336 and comb feedback.;
#X text 755 305 - ATTACK: controls the attack for the burst env.;
#X obj 301 760 t a;
#X obj 299 620 hradio 17 1 1 4 empty empty TUNING 0 -8 0 10 #fcfcfc #000000 #000000 0;
#X obj 299 642 sel 0 1 2 3;
#X msg 330 708 205.3 369.6 304.3 522.7 1149.9 627.2;
#X msg 346 730 489.8 620.2 325.53 317.14 853.2 567.3;
#X text 754 488 Miguel Moreno 2018;
#X text 754 503 Email: mianmogra94@gmail.com;
#X text 754 518 GitHub: github.com/MikeMorenoAudio;
#X text 754 543 Facebook: fb.com/MikeMorenoAudio;
#X text 754 573 WordPress: mikemorenoaudio.wordpress.com;
#X text 754 588 PatchStorage: patchstorage.com/author/mianmogra;
#X text 754 468 COMB CYMBAL v1;
#X text 391 388 PARAMETERS;
#X text 745 193 COMB CYMBAL;
#X text 755 208 A Cymbal consisting of 6 comb filters with high feedback;
#X text 755 223 and a noise impulse with velocity response.;
#X msg 314 686 420.2 250.7 317.8 475.9 521.43 745.321;
#X text 745 289 INLET 2: Parameters (0-127);
#X text 754 558 Youtube: youtube.com/c/mikemorenoaudio;
#N canvas 121 146 1210 553 cmbcym 0;
#X obj 455 445 /;
#X obj 166 327 +~;
#X obj 166 305 *~ 0.9;
#X obj 223 305 *~ 0.1;
#X obj 223 283 pow~ 1.85;
#X obj 166 283 pow~ 6.7;
#X obj 353 167 noise~;
#X obj 151 455 *~;
#X obj 515 445 /;
#X obj 575 445 /;
#X obj 635 445 /;
#X obj 695 445 /;
#X obj 755 446 /;
#X obj 295 240 r \$0-vel-cym;
#X msg 295 262 1 \$1;
#X obj 295 284 -;
#X obj 295 350 + 100;
#X obj 295 372 dbtorms;
#X msg 295 394 \$1 1;
#X obj 295 416 line~;
#X obj 166 46 r \$0-trg-cym;
#N canvas 0 22 241 126 lowpass 0;
#X obj 12 93 outlet~;
#N canvas 674 187 405 205 @hv_obj 0;
#X obj 62 12 inlet~ b0;
#X obj 132 12 inlet~ b1;
#X obj 202 12 inlet~ b2;
#X obj 272 12 inlet~ a1;
#X obj 332 12 inlet~ a2;
#X obj 12 12 inlet~;
#N canvas 677 380 306 397 zeros 0;
#X obj 12 282 czero~;
#X obj 12 329 czero~;
#X obj 12 356 outlet~;
#X obj 75 356 outlet~;
#X obj 62 12 inlet~ b0;
#X obj 132 12 inlet~ b1;
#X obj 202 12 inlet~ b2;
#X obj 12 12 inlet~;
#X obj 47 89 *~ -1;
#X obj 47 111 *~ 0.5;
#X obj 132 117 *~;
#X obj 132 155 -~;
#X obj 187 138 *~ 4;
#X obj 187 116 *~;
#X obj 228 172 abs~;
#X obj 228 216 *~ 0.5;
#X obj 228 238 /~;
#N canvas 773 235 262 212 location 0;
#X obj 12 12 inlet~;
#X obj 62 12 inlet~;
#X obj 207 12 inlet~;
#X obj 12 174 outlet~;
#X obj 72 174 outlet~;
#X obj 132 174 outlet~;
#X obj 192 174 outlet~;
#N canvas 725 189 180 137 gte 0;
#X obj 117 12 inlet~;
#X obj 12 12 inlet~;
#X obj 12 100 outlet~;
#N canvas 758 270 144 76 @hv_obj 0;
#X obj 62 12 inlet~;
#X obj 12 12 inlet~;
#X obj 12 34 outlet~;
#X connect 1 0 2 0;
#X restore 12 78 pd @hv_obj __and~f;
#X obj 117 56 sig~ 1;
#N canvas 945 362 136 178 @hv_obj 0;
#X obj 12 56 -~;
#X obj 12 78 clip~ -1e-37 0;
#X obj 12 12 inlet~;
#X obj 62 12 inlet~;
#X obj 12 144 outlet~;
#X obj 12 122 *~ 1e+37;
#X obj 12 34 min~;
#X obj 12 100 +~ 1e-37;
#X connect 0 0 1 0;
#X connect 1 0 7 0;
#X connect 2 0 6 0;
#X connect 3 0 6 1;
#X connect 3 0 0 1;
#X connect 5 0 4 0;
#X connect 6 0 0 0;
#X connect 7 0 5 0;
#X restore 12 34 pd @hv_obj __gte~f;
#X connect 0 0 5 1;
#X connect 1 0 5 0;
#X connect 3 0 2 0;
#X connect 4 0 3 1;
#X connect 5 0 3 0;
#X restore 62 49 pd gte;
#N canvas 845 375 187 138 lte 0;
#X obj 117 12 inlet~;
#X obj 12 12 inlet~;
#X obj 12 100 outlet~;
#N canvas 467 216 140 82 @hv_obj 0;
#X obj 72 12 inlet~;
#X obj 12 12 inlet~;
#X obj 12 39 outlet~;
#X connect 1 0 2 0;
#X restore 12 78 pd @hv_obj __and~f;
#X obj 117 56 sig~ 1;
#N canvas 715 101 137 184 @hv_obj 0;
#X obj 12 56 -~;
#X obj 12 78 clip~ -1e-37 0;
#X obj 12 12 inlet~;
#X obj 62 12 inlet~;
#X obj 12 144 outlet~;
#X obj 12 122 *~ 1e+37;
#X obj 12 34 min~;
#X obj 12 100 +~ 1e-37;
#X connect 0 0 1 0;
#X connect 1 0 7 0;
#X connect 2 0 6 0;
#X connect 2 0 0 1;
#X connect 3 0 6 1;
#X connect 5 0 4 0;
#X connect 6 0 0 0;
#X connect 7 0 5 0;
#X restore 12 34 pd @hv_obj __lte~f;
#X connect 0 0 5 1;
#X connect 1 0 5 0;
#X connect 3 0 2 0;
#X connect 4 0 3 1;
#X connect 5 0 3 0;
#X restore 127 49 pd lte;
#X obj 12 152 +~;
#X obj 160 22 sig~ 0;
#X obj 147 125 *~;
#X obj 192 125 *~;
#X obj 132 152 -~;
#X obj 192 152 *~ -1;
#X connect 0 0 9 0;
#X connect 0 0 13 0;
#X connect 1 0 7 0;
#X connect 1 0 8 0;
#X connect 2 0 11 1;
#X connect 2 0 12 1;
#X connect 7 0 11 0;
#X connect 8 0 12 0;
#X connect 9 0 3 0;
#X connect 10 0 7 1;
#X connect 10 0 8 1;
#X connect 11 0 9 1;
#X connect 11 0 13 1;
#X connect 12 0 4 0;
#X connect 12 0 14 0;
#X connect 13 0 5 0;
#X connect 14 0 6 0;
#X restore 34 255 pd location;
#X obj 228 194 sqrt~;
#X obj 47 133 /~;
#X connect 0 0 1 0;
#X connect 0 1 1 1;
#X connect 1 0 2 0;
#X connect 1 1 3 0;
#X connect 4 0 13 0;
#X connect 4 0 16 1;
#X connect 4 0 19 1;
#X connect 5 0 8 0;
#X connect 5 0 10 1;
#X connect 5 0 10 0;
#X connect 6 0 13 1;
#X connect 7 0 0 0;
#X connect 8 0 9 0;
#X connect 9 0 19 0;
#X connect 10 0 11 0;
#X connect 11 0 14 0;
#X connect 11 0 17 1;
#X connect 12 0 11 1;
#X connect 13 0 12 0;
#X connect 14 0 18 0;
#X connect 15 0 16 0;
#X connect 16 0 17 2;
#X connect 17 0 0 2;
#X connect 17 1 0 3;
#X connect 17 2 1 2;
#X connect 17 3 1 3;
#X connect 18 0 15 0;
#X connect 19 0 17 0;
#X restore 12 86 pd zeros;
#X obj 12 49 *~;
#N canvas 744 202 254 278 poles 0;
#X obj 12 170 cpole~;
#X obj 12 217 cpole~;
#X obj 12 244 outlet~;
#X obj 12 12 inlet~;
#X obj 62 12 inlet~;
#X obj 112 12 inlet~ a1;
#X obj 182 12 inlet~ a2;
#N canvas 739 258 279 198 location 0;
#X obj 12 12 inlet~;
#X obj 127 12 inlet~;
#X obj 222 49 inlet~;
#X obj 12 155 outlet~;
#X obj 62 155 outlet~;
#X obj 112 155 outlet~;
#X obj 172 155 outlet~;
#N canvas 796 341 183 142 gte 0;
#X obj 117 12 inlet~;
#X obj 12 12 inlet~;
#X obj 12 100 outlet~;
#N canvas 679 326 140 75 @hv_obj 0;
#X obj 72 12 inlet~;
#X obj 12 12 inlet~;
#X obj 12 34 outlet~;
#X connect 1 0 2 0;
#X restore 12 78 pd @hv_obj __and~f;
#X obj 117 56 sig~ 1;
#N canvas 754 439 132 184 @hv_obj 0;
#X obj 12 56 -~;
#X obj 12 78 clip~ -1e-37 0;
#X obj 12 12 inlet~;
#X obj 62 12 inlet~;
#X obj 12 144 outlet~;
#X obj 12 122 *~ 1e+37;
#X obj 12 34 min~;
#X obj 12 100 +~ 1e-37;
#X connect 0 0 1 0;
#X connect 1 0 7 0;
#X connect 2 0 6 0;
#X connect 3 0 6 1;
#X connect 3 0 0 1;
#X connect 5 0 4 0;
#X connect 6 0 0 0;
#X connect 7 0 5 0;
#X restore 12 34 pd @hv_obj __gte~f;
#X connect 0 0 5 1;
#X connect 1 0 5 0;
#X connect 3 0 2 0;
#X connect 4 0 3 1;
#X connect 5 0 3 0;
#X restore 127 39 pd gte;
#N canvas 816 493 187 138 lte 0;
#X obj 117 12 inlet~;
#X obj 12 12 inlet~;
#X obj 12 100 outlet~;
#N canvas 467 216 142 76 @hv_obj 0;
#X obj 72 12 inlet~;
#X obj 12 12 inlet~;
#X obj 12 34 outlet~;
#X connect 1 0 2 0;
#X restore 12 78 pd @hv_obj __and~f;
#X obj 117 56 sig~ 1;
#N canvas 715 101 131 178 @hv_obj 0;
#X obj 12 56 -~;
#X obj 12 78 clip~ -1e-37 0;
#X obj 12 12 inlet~;
#X obj 62 12 inlet~;
#X obj 12 144 outlet~;
#X obj 12 122 *~ 1e+37;
#X obj 12 34 min~;
#X obj 12 100 +~ 1e-37;
#X connect 0 0 1 0;
#X connect 1 0 7 0;
#X connect 2 0 6 0;
#X connect 2 0 0 1;
#X connect 3 0 6 1;
#X connect 5 0 4 0;
#X connect 6 0 0 0;
#X connect 7 0 5 0;
#X restore 12 34 pd @hv_obj __lte~f;
#X connect 0 0 5 1;
#X connect 1 0 5 0;
#X connect 3 0 2 0;
#X connect 4 0 3 1;
#X connect 5 0 3 0;
#X restore 172 39 pd lte;
#X obj 12 83 +~;
#X obj 205 12 sig~ 0;
#X obj 127 66 *~;
#X obj 172 66 *~;
#X obj 112 133 -~;
#X obj 172 133 *~ -1;
#X connect 0 0 9 0;
#X connect 0 0 13 0;
#X connect 1 0 7 0;
#X connect 1 0 8 0;
#X connect 2 0 11 1;
#X connect 2 0 12 1;
#X connect 7 0 11 0;
#X connect 8 0 12 0;
#X connect 9 0 3 0;
#X connect 10 0 7 1;
#X connect 10 0 8 1;
#X connect 11 0 9 1;
#X connect 11 0 13 1;
#X connect 12 0 4 0;
#X connect 12 0 14 0;
#X connect 13 0 5 0;
#X connect 14 0 6 0;
#X restore 34 144 pd location;
#X obj 54 77 *~ 0.5;
#X obj 112 39 *~;
#X obj 112 61 +~;
#X obj 182 44 *~ 4;
#X obj 112 83 abs~;
#X obj 112 127 *~ 0.5;
#X obj 112 105 sqrt~;
#X connect 0 0 1 0;
#X connect 0 1 1 1;
#X connect 1 0 2 0;
#X connect 3 0 0 0;
#X connect 4 0 0 1;
#X connect 5 0 8 0;
#X connect 5 0 9 0;
#X connect 5 0 9 1;
#X connect 6 0 11 0;
#X connect 7 0 0 2;
#X connect 7 1 0 3;
#X connect 7 2 1 2;
#X connect 7 3 1 3;
#X connect 8 0 7 0;
#X connect 9 0 10 0;
#X connect 10 0 7 1;
#X connect 10 0 12 0;
#X connect 11 0 10 1;
#X connect 12 0 14 0;
#X connect 13 0 7 2;
#X connect 14 0 13 0;
#X restore 12 133 pd poles;
#X obj 12 160 outlet~;
#X obj 272 116 *~ -1;
#X obj 332 116 *~ -1;
#X connect 0 0 6 1;
#X connect 0 0 7 1;
#X connect 1 0 6 2;
#X connect 2 0 6 3;
#X connect 3 0 10 0;
#X connect 4 0 11 0;
#X connect 5 0 7 0;
#X connect 6 0 8 0;
#X connect 6 1 8 1;
#X connect 7 0 6 0;
#X connect 8 0 9 0;
#X connect 10 0 8 2;
#X connect 11 0 8 3;
#X restore 12 71 pd @hv_obj biquad;
#X obj 62 12 inlet~ freq;
#X obj 161 12 inlet~ q;
#N canvas 533 23 706 367 lowpass.coeffs 0;
#X obj 137 12 inlet~ freq;
#X obj 298 50 inlet~ q;
#N canvas 78 244 261 257 hz2rad 0;
#X obj 27 56 samplerate~;
#X obj 27 34 loadbang;
#X obj 27 122 atan;
#X msg 27 100 1;
#X obj 27 144 * 8;
#X obj 27 78 t b a;
#X obj 27 166 / 44100;
#X obj 12 188 *~;
#X obj 12 210 outlet~ w(rad);
#X obj 12 12 inlet~ freq(Hz);
#X text 77 166 // 2 * pi / SR;
#X text 107 56 // w = 2 * pi * f / SR;
#X connect 0 0 5 0;
#X connect 1 0 0 0;
#X connect 2 0 4 0;
#X connect 3 0 2 0;
#X connect 4 0 6 0;
#X connect 5 0 3 0;
#X connect 5 1 6 1;
#X connect 6 0 7 1;
#X connect 7 0 8 0;
#X connect 9 0 7 0;
#X restore 137 55 pd hz2rad;
#X obj 137 34 clip~ 20 20000;
#X obj 137 77 /~ 6.28319;
#X obj 137 121 cos~;
#X obj 298 72 clip~ 0.1 100;
#X obj 283 94 sig~ 1;
#X obj 283 116 /~;
#X obj 207 121 cos~;
#X obj 283 138 *~;
#X obj 283 160 *~ 0.5;
#X obj 12 258 sig~ 1;
#X obj 12 280 /~;
#X obj 122 297 *~;
#X obj 137 275 *~ 0.5;
#X obj 122 319 outlet~ b0;
#X obj 192 297 *~;
#X obj 192 319 outlet~ b1;
#X obj 262 297 *~;
#X obj 262 319 outlet~ b2;
#X obj 347 297 *~;
#X obj 362 231 *~ -2;
#X obj 347 319 outlet~ a1;
#X obj 432 231 sig~ 1;
#X obj 432 253 -~;
#X obj 417 297 *~;
#X obj 417 319 outlet~ a2;
#X obj 57 263 +~ 1;
#X text 363 162 w0 = 2*pi*f0*Fs;
#X text 363 182 alpha = sin(w0)/(2*Q);
#X text 527 237 a2 = 1 - alpha;
#X text 527 217 a1 = -2*cos(w0);
#X text 392 72 H(z) = -----------------------------------------;
#X text 392 32 Audio-Cookbook:;
#X text 392 112 http://musicdsp.org/files/Audio-EQ-Cookbook.txt;
#X obj 137 231 sig~ 1;
#X obj 137 253 -~;
#X obj 207 231 sig~ 1;
#X obj 207 253 -~;
#X obj 277 275 *~ 0.5;
#X obj 277 231 sig~ 1;
#X obj 277 253 -~;
#X text 434 87 1 + (a1/a0)*z^(-1) + (a2/a0)*z^(-2);
#X text 434 57 (b0/a0) + (b1/a0)*z^(-1) + (b2/a0)*z^(-2);
#X text 527 197 a0 = 1 + alpha;
#X text 527 257 b0 = (1 - cos(w0))/2;
#X text 527 277 b1 = (1 - cos(w0));
#X text 527 297 b2 = (1 - cos(w0))/2;
#X text 517 177 LPF:;
#X obj 207 99 -~ 0.25;
#X connect 0 0 3 0;
#X connect 1 0 6 0;
#X connect 2 0 4 0;
#X connect 3 0 2 0;
#X connect 4 0 5 0;
#X connect 4 0 50 0;
#X connect 5 0 37 1;
#X connect 5 0 39 1;
#X connect 5 0 42 1;
#X connect 5 0 22 0;
#X connect 6 0 8 1;
#X connect 7 0 8 0;
#X connect 8 0 10 0;
#X connect 9 0 10 1;
#X connect 10 0 11 0;
#X connect 11 0 25 1;
#X connect 11 0 28 0;
#X connect 12 0 13 0;
#X connect 13 0 14 0;
#X connect 13 0 17 0;
#X connect 13 0 19 0;
#X connect 13 0 21 0;
#X connect 13 0 26 0;
#X connect 14 0 16 0;
#X connect 15 0 14 1;
#X connect 17 0 18 0;
#X connect 19 0 20 0;
#X connect 21 0 23 0;
#X connect 22 0 21 1;
#X connect 24 0 25 0;
#X connect 25 0 26 1;
#X connect 26 0 27 0;
#X connect 28 0 13 1;
#X connect 36 0 37 0;
#X connect 37 0 15 0;
#X connect 38 0 39 0;
#X connect 39 0 17 1;
#X connect 40 0 19 1;
#X connect 41 0 42 0;
#X connect 42 0 40 0;
#X connect 50 0 9 0;
#X restore 62 34 pd lowpass.coeffs;
#X obj 12 12 inlet~;
#X connect 1 0 0 0;
#X connect 2 0 4 0;
#X connect 3 0 4 1;
#X connect 4 0 1 1;
#X connect 4 1 1 2;
#X connect 4 2 1 3;
#X connect 4 3 1 4;
#X connect 4 4 1 5;
#X connect 5 0 1 0;
#X restore 12 438 pd lowpass;
#X obj 80 267 r \$0-vel-cym;
#X obj 80 355 pow;
#X msg 80 333 2 \$1;
#X obj 80 377 * 40;
#X msg 80 399 \$1 1;
#X obj 80 421 line~;
#X msg 120 311 1 \$1;
#X obj 120 333 -;
#X msg 120 399 \$1 1;
#X obj 120 421 line~;
#X obj 166 433 *~;
#X obj 295 328 * -9;
#X obj 295 306 pow 2;
#X obj 419 305 +~;
#X obj 419 283 *~ 0.9;
#X obj 476 283 *~ 0.1;
#X obj 476 261 pow~ 1.85;
#X obj 419 261 pow~ 6.7;
#X obj 419 349 *~;
#X obj 351 366 *~;
#X obj 166 349 pow~;
#X obj 268 332 + 1;
#X obj 268 310 * 3;
#X obj 544 156 r \$0-vel-cym;
#X msg 544 178 1 \$1;
#X obj 544 200 -;
#X obj 544 266 + 100;
#X obj 544 288 dbtorms;
#X msg 544 310 \$1 1;
#X obj 544 332 line~;
#X obj 80 289 * 4;
#X obj 80 311 + 5;
#X obj 351 344 hip~ 1000;
#X obj 353 444 clip~ -1 1;
#X obj 12 184 bp~ 3462 0.3;
#X obj 12 394 hip~ 1000;
#X obj 12 416 hip~ 1000;
#X obj 351 388 *~;
#N canvas 92 117 273 194 comb 0;
#X obj 12 11 inlet~;
#X obj 12 119 -~;
#X obj 12 146 outlet~;
#X obj 62 92 *~;
#X obj 148 75 clip~ 0 0.999;
#X obj 148 53 inlet~ feedback;
#X obj 148 26 block~ 1;
#X obj 62 65 vd~ \$0-del-1;
#X obj 62 11 inlet~ delay;
#X obj 78 136 delwrite~ \$0-del-1 100;
#X obj 62 38 min~ 100;
#X connect 0 0 1 0;
#X connect 1 0 2 0;
#X connect 1 0 9 0;
#X connect 3 0 1 1;
#X connect 4 0 3 1;
#X connect 5 0 4 0;
#X connect 7 0 3 0;
#X connect 8 0 10 0;
#X connect 10 0 7 0;
#X restore 436 489 pd comb;
#X obj 455 467 sig~;
#N canvas 0 22 273 194 comb 0;
#X obj 12 11 inlet~;
#X obj 12 119 -~;
#X obj 12 146 outlet~;
#X obj 62 92 *~;
#X obj 148 75 clip~ 0 0.999;
#X obj 148 53 inlet~ feedback;
#X obj 148 26 block~ 1;
#X obj 62 11 inlet~ delay;
#X obj 62 38 min~ 100;
#X obj 78 136 delwrite~ \$0-del-2 100;
#X obj 62 65 vd~ \$0-del-2;
#X connect 0 0 1 0;
#X connect 1 0 2 0;
#X connect 1 0 9 0;
#X connect 3 0 1 1;
#X connect 4 0 3 1;
#X connect 5 0 4 0;
#X connect 7 0 8 0;
#X connect 8 0 10 0;
#X connect 10 0 3 0;
#X restore 496 489 pd comb;
#X obj 515 467 sig~;
#N canvas 0 22 273 194 comb 0;
#X obj 12 11 inlet~;
#X obj 12 119 -~;
#X obj 12 146 outlet~;
#X obj 62 92 *~;
#X obj 148 75 clip~ 0 0.999;
#X obj 148 53 inlet~ feedback;
#X obj 148 26 block~ 1;
#X obj 62 11 inlet~ delay;
#X obj 62 38 min~ 100;
#X obj 78 136 delwrite~ \$0-del-3 100;
#X obj 62 65 vd~ \$0-del-3;
#X connect 0 0 1 0;
#X connect 1 0 2 0;
#X connect 1 0 9 0;
#X connect 3 0 1 1;
#X connect 4 0 3 1;
#X connect 5 0 4 0;
#X connect 7 0 8 0;
#X connect 8 0 10 0;
#X connect 10 0 3 0;
#X restore 556 489 pd comb;
#X obj 575 467 sig~;
#N canvas 0 22 273 194 comb 0;
#X obj 12 11 inlet~;
#X obj 12 119 -~;
#X obj 12 146 outlet~;
#X obj 62 92 *~;
#X obj 148 75 clip~ 0 0.999;
#X obj 148 53 inlet~ feedback;
#X obj 148 26 block~ 1;
#X obj 62 11 inlet~ delay;
#X obj 62 38 min~ 100;
#X obj 78 136 delwrite~ \$0-del-4 100;
#X obj 62 65 vd~ \$0-del-4;
#X connect 0 0 1 0;
#X connect 1 0 2 0;
#X connect 1 0 9 0;
#X connect 3 0 1 1;
#X connect 4 0 3 1;
#X connect 5 0 4 0;
#X connect 7 0 8 0;
#X connect 8 0 10 0;
#X connect 10 0 3 0;
#X restore 616 489 pd comb;
#X obj 635 467 sig~;
#N canvas 0 22 273 194 comb 0;
#X obj 12 11 inlet~;
#X obj 12 119 -~;
#X obj 12 146 outlet~;
#X obj 62 92 *~;
#X obj 148 75 clip~ 0 0.999;
#X obj 148 53 inlet~ feedback;
#X obj 148 26 block~ 1;
#X obj 62 11 inlet~ delay;
#X obj 62 38 min~ 100;
#X obj 78 136 delwrite~ \$0-del-5 100;
#X obj 62 65 vd~ \$0-del-5;
#X connect 0 0 1 0;
#X connect 1 0 2 0;
#X connect 1 0 9 0;
#X connect 3 0 1 1;
#X connect 4 0 3 1;
#X connect 5 0 4 0;
#X connect 7 0 8 0;
#X connect 8 0 10 0;
#X connect 10 0 3 0;
#X restore 676 489 pd comb;
#X obj 695 467 sig~;
#N canvas 0 22 273 194 comb 0;
#X obj 12 11 inlet~;
#X obj 12 119 -~;
#X obj 12 146 outlet~;
#X obj 62 92 *~;
#X obj 148 75 clip~ 0 0.999;
#X obj 148 53 inlet~ feedback;
#X obj 148 26 block~ 1;
#X obj 62 11 inlet~ delay;
#X obj 62 38 min~ 100;
#X obj 78 136 delwrite~ \$0-del-6 100;
#X obj 62 65 vd~ \$0-del-6;
#X connect 0 0 1 0;
#X connect 1 0 2 0;
#X connect 1 0 9 0;
#X connect 3 0 1 1;
#X connect 4 0 3 1;
#X connect 5 0 4 0;
#X connect 7 0 8 0;
#X connect 8 0 10 0;
#X connect 10 0 3 0;
#X restore 736 490 pd comb;
#X obj 736 512 /~ 6;
#X obj 755 468 sig~;
#X msg 807 450 \$1 20;
#X obj 807 472 line~;
#X obj 600 261 / 127;
#X obj 600 283 pow 0.125;
#X obj 600 327 dbtorms;
#X obj 600 371 line~;
#X msg 600 349 \$1 10;
#X obj 600 305 * 91;
#X obj 807 362 / 127;
#X obj 807 406 * 0.099;
#X obj 807 428 + 0.9;
#X obj 807 384 sqrt;
#X obj 351 322 pow~ 8;
#X obj 36 239 / 127;
#X msg 36 283 2 \$1;
#X obj 36 305 pow;
#X obj 36 327 * 500;
#X obj 36 261 * 4;
#X obj 223 90 / 127;
#X obj 223 156 pow;
#X obj 223 68 r \$0-snd-cym-0;
#X msg 223 134 10 \$1;
#X obj 223 112 * 3;
#N canvas 633 38 388 273 hv.vline 0;
#X obj 12 12 inlet;
#X obj 69 116 unpack f f f;
#X obj 69 67 t a b;
#X msg 87 91 0;
#X text 120 92 Default to zero delay if 2 args supplied;
#X obj 12 225 outlet~;
#X obj 12 34 route stop;
#X msg 12 126 stop;
#X obj 12 56 t b b;
#X msg 25 94 clear;
#N canvas 274 138 360 214 dbl-pipe 0;
#X obj 65 42 inlet;
#X obj 125 42 inlet;
#X obj 185 42 inlet;
#X obj 65 84 pipe 0;
#X obj 125 84 pipe 0;
#X obj 65 106 outlet;
#X obj 125 106 outlet;
#X connect 0 0 3 0;
#X connect 0 0 4 0;
#X connect 1 0 4 0;
#X connect 2 0 3 1;
#X connect 2 0 4 1;
#X connect 3 0 5 0;
#X connect 4 0 6 0;
#X restore 69 144 pd dbl-pipe;
#X obj 69 168 pack f f;
#X obj 12 203 line~;
#X connect 0 0 6 0;
#X connect 1 0 10 0;
#X connect 1 1 10 1;
#X connect 1 2 10 2;
#X connect 2 0 1 0;
#X connect 2 1 3 0;
#X connect 3 0 10 2;
#X connect 6 0 8 0;
#X connect 6 1 2 0;
#X connect 7 0 12 0;
#X connect 8 0 7 0;
#X connect 8 1 9 0;
#X connect 9 0 10 0;
#X connect 9 0 10 1;
#X connect 10 0 11 0;
#X connect 10 1 11 1;
#X connect 11 0 12 0;
#X connect 12 0 5 0;
#X restore 166 261 pd hv.vline;
#X obj 223 178 + 2;
#X msg 166 239 1 \$2 \, 0 50 \$3;
#X obj 807 340 r \$0-snd-cym-1;
#X obj 36 217 r \$0-snd-cym-3;
#X obj 600 239 r \$0-snd-cym-2;
#X obj 316 73 / 127;
#X msg 316 139 2 \$1;
#X obj 316 161 pow;
#X obj 316 183 * 20;
#X obj 316 117 + 3;
#X obj 316 95 * 5;
#X obj 316 51 r \$0-snd-cym-1;
#N canvas 633 38 388 273 hv.vline 0;
#X obj 12 12 inlet;
#X obj 69 116 unpack f f f;
#X obj 69 67 t a b;
#X msg 87 91 0;
#X text 120 92 Default to zero delay if 2 args supplied;
#X obj 12 225 outlet~;
#X obj 12 34 route stop;
#X msg 12 126 stop;
#X obj 12 56 t b b;
#X msg 25 94 clear;
#N canvas 274 138 360 214 dbl-pipe 0;
#X obj 65 42 inlet;
#X obj 125 42 inlet;
#X obj 185 42 inlet;
#X obj 65 84 pipe 0;
#X obj 125 84 pipe 0;
#X obj 65 106 outlet;
#X obj 125 106 outlet;
#X connect 0 0 3 0;
#X connect 0 0 4 0;
#X connect 1 0 4 0;
#X connect 2 0 3 1;
#X connect 2 0 4 1;
#X connect 3 0 5 0;
#X connect 4 0 6 0;
#X restore 69 144 pd dbl-pipe;
#X obj 69 168 pack f f;
#X obj 12 203 line~;
#X connect 0 0 6 0;
#X connect 1 0 10 0;
#X connect 1 1 10 1;
#X connect 1 2 10 2;
#X connect 2 0 1 0;
#X connect 2 1 3 0;
#X connect 3 0 10 2;
#X connect 6 0 8 0;
#X connect 6 1 2 0;
#X connect 7 0 12 0;
#X connect 8 0 7 0;
#X connect 8 1 9 0;
#X connect 9 0 10 0;
#X connect 9 0 10 1;
#X connect 10 0 11 0;
#X connect 10 1 11 1;
#X connect 11 0 12 0;
#X connect 12 0 5 0;
#X restore 419 239 pd hv.vline;
#X obj 166 200 pack f f f f;
#X msg 419 217 1 \$2 \, 0 \$4 \$3;
#X msg 863 384 210.2 320.09 379.973 539.95 549.5 799.957;
#X obj 459 595 *~ 0.5;
#X obj 544 244 * -15;
#X obj 544 222 sqrt;
#X obj 120 355 * 3.5;
#X obj 863 406 unpack f f f f f f;
#X obj 863 367 loadbang;
#X msg 455 423 1000 \$1;
#X msg 515 423 1000 \$1;
#X msg 575 423 1000 \$1;
#X msg 635 423 1000 \$1;
#X msg 695 423 1000 \$1;
#X msg 755 424 1000 \$1;
#X obj 616 511 /~ 6;
#X obj 676 511 /~ 6;
#X obj 436 511 /~ 12;
#X obj 556 511 /~ 6;
#X obj 496 511 /~ 6;
#X obj 459 634 outlet~;
#X obj 12 73 sel 0;
#X obj 12 95 t b f;
#X obj 12 117 s \$0-trg-cym;
#X obj 93 112 - 1;
#X obj 93 134 / 126;
#X obj 695 163 route attack decay noise highpass;
#X obj 695 317 clip 0 127;
#X obj 695 339 s \$0-snd-cym-0;
#X obj 743 273 clip 0 127;
#X obj 792 229 clip 0 127;
#X obj 743 295 s \$0-snd-cym-1;
#X obj 792 251 s \$0-snd-cym-2;
#X obj 841 185 clip 0 127;
#X obj 841 207 s \$0-snd-cym-3;
#X obj 925 357 inlet tuning;
#X obj 12 29 inlet trigger/velocity;
#X obj 695 141 inlet parameters;
#X text 455 403 //Hz to ms;
#X text 243 38 //ATTACK;
#X text 80 237 //LPF VEL;
#X text 419 197 //NOISE ENV;
#X text 600 209 //NOISE AMP;
#X text 12 458 //RESONANT LPF;
#X text 346 489 //COMB FILTERS;
#X text 807 320 //DECAY-FEEDBACK;
#X text 448 65 Miguel Moreno 2018;
#X text 12 9 //INLET 1: Trigger/Velocity;
#X text 695 121 //INLET 2: Parameters;
#X text 925 337 //INLET 3: Tuning;
#X text 448 80 Email: mianmogra94@gmail.com;
#X text 544 136 //AMP VEL -15–0 dB;
#X text 316 31 //DECAY 160–5120 ms;
#X text 243 53 //1–1000 ms;
#X text 176 219 //BURST ENV;
#X text 36 201 //HIGHPASS 500–8k Hz;
#X text 80 252 //1280–20k Hz;
#X text 295 220 //AMP VEL -9–0 dB;
#X text 600 224 //-100–-9 dB;
#X text 448 95 GitHub: github.com/MikeMorenoAudio;
#X text 678 50 Facebook: fb.com/MikeMorenoAudio;
#X text 678 65 Youtube: youtube.com/user/Lehjiot;
#X text 678 80 WordPress: mikemorenoaudio.wordpress.com;
#X text 678 95 PatchStorage: patchstorage.com/author/mianmogra;
#X text 448 45 COMB CYMBAL v1;
#X obj 907 124 loadbang;
#X msg 907 146 0 120 64 64;
#X obj 907 168 unpack f f f f;
#X obj 93 156 s \$0-vel-cym;
#X obj 12 51 clip 0 127;
#X connect 0 0 61 0;
#X connect 1 0 42 0;
#X connect 2 0 1 0;
#X connect 3 0 1 1;
#X connect 4 0 3 0;
#X connect 5 0 2 0;
#X connect 6 0 56 0;
#X connect 6 0 85 0;
#X connect 7 0 55 0;
#X connect 8 0 63 0;
#X connect 9 0 65 0;
#X connect 10 0 67 0;
#X connect 11 0 69 0;
#X connect 12 0 72 0;
#X connect 13 0 14 0;
#X connect 14 0 15 0;
#X connect 15 0 34 0;
#X connect 15 0 44 0;
#X connect 16 0 17 0;
#X connect 17 0 18 0;
#X connect 18 0 19 0;
#X connect 19 0 32 1;
#X connect 20 0 110 0;
#X connect 21 0 7 0;
#X connect 22 0 28 0;
#X connect 22 0 52 0;
#X connect 23 0 25 0;
#X connect 24 0 23 0;
#X connect 25 0 26 0;
#X connect 26 0 27 0;
#X connect 27 0 21 1;
#X connect 28 0 29 0;
#X connect 29 0 116 0;
#X connect 30 0 31 0;
#X connect 31 0 21 2;
#X connect 32 0 7 1;
#X connect 33 0 16 0;
#X connect 34 0 33 0;
#X connect 35 0 40 0;
#X connect 36 0 35 0;
#X connect 37 0 35 1;
#X connect 38 0 37 0;
#X connect 39 0 36 0;
#X connect 40 0 41 1;
#X connect 41 0 59 0;
#X connect 42 0 32 0;
#X connect 43 0 42 1;
#X connect 44 0 43 0;
#X connect 45 0 46 0;
#X connect 46 0 47 0;
#X connect 47 0 115 0;
#X connect 48 0 49 0;
#X connect 49 0 50 0;
#X connect 50 0 51 0;
#X connect 51 0 40 1;
#X connect 52 0 53 0;
#X connect 53 0 24 0;
#X connect 54 0 41 0;
#X connect 55 0 60 0;
#X connect 55 0 62 0;
#X connect 55 0 64 0;
#X connect 55 0 66 0;
#X connect 55 0 68 0;
#X connect 55 0 70 0;
#X connect 56 0 57 0;
#X connect 57 0 58 0;
#X connect 58 0 21 0;
#X connect 59 0 55 0;
#X connect 60 0 127 0;
#X connect 61 0 60 1;
#X connect 62 0 129 0;
#X connect 63 0 62 1;
#X connect 64 0 128 0;
#X connect 65 0 64 1;
#X connect 66 0 125 0;
#X connect 67 0 66 1;
#X connect 68 0 126 0;
#X connect 69 0 68 1;
#X connect 70 0 71 0;
#X connect 71 0 113 0;
#X connect 72 0 70 1;
#X connect 73 0 74 0;
#X connect 74 0 70 2;
#X connect 74 0 68 2;
#X connect 74 0 66 2;
#X connect 74 0 64 2;
#X connect 74 0 62 2;
#X connect 74 0 60 2;
#X connect 75 0 76 0;
#X connect 76 0 80 0;
#X connect 77 0 79 0;
#X connect 78 0 59 1;
#X connect 79 0 78 0;
#X connect 80 0 77 0;
#X connect 81 0 84 0;
#X connect 82 0 83 0;
#X connect 83 0 73 0;
#X connect 84 0 82 0;
#X connect 85 0 54 0;
#X connect 86 0 90 0;
#X connect 87 0 88 0;
#X connect 88 0 89 0;
#X connect 89 0 57 1;
#X connect 89 0 54 1;
#X connect 89 0 58 1;
#X connect 90 0 87 0;
#X connect 91 0 95 0;
#X connect 92 0 97 0;
#X connect 92 0 110 1;
#X connect 93 0 91 0;
#X connect 94 0 92 0;
#X connect 95 0 94 0;
#X connect 96 0 5 0;
#X connect 96 0 4 0;
#X connect 97 0 110 2;
#X connect 98 0 96 0;
#X connect 99 0 81 0;
#X connect 100 0 86 0;
#X connect 101 0 75 0;
#X connect 102 0 107 0;
#X connect 103 0 104 0;
#X connect 104 0 105 0;
#X connect 105 0 110 3;
#X connect 106 0 103 0;
#X connect 107 0 106 0;
#X connect 108 0 102 0;
#X connect 109 0 39 0;
#X connect 109 0 38 0;
#X connect 110 0 98 0;
#X connect 110 0 111 0;
#X connect 111 0 109 0;
#X connect 112 0 117 0;
#X connect 113 0 130 0;
#X connect 114 0 48 0;
#X connect 115 0 114 0;
#X connect 116 0 30 0;
#X connect 117 0 119 0;
#X connect 117 1 120 0;
#X connect 117 2 121 0;
#X connect 117 3 122 0;
#X connect 117 4 123 0;
#X connect 117 5 124 0;
#X connect 118 0 112 0;
#X connect 119 0 0 0;
#X connect 120 0 8 0;
#X connect 121 0 9 0;
#X connect 122 0 10 0;
#X connect 123 0 11 0;
#X connect 124 0 12 0;
#X connect 125 0 113 0;
#X connect 126 0 113 0;
#X connect 127 0 113 0;
#X connect 128 0 113 0;
#X connect 129 0 113 0;
#X connect 131 1 132 0;
#X connect 132 0 133 0;
#X connect 132 1 134 0;
#X connect 134 0 135 0;
#X connect 135 0 178 0;
#X connect 136 0 137 0;
#X connect 136 1 139 0;
#X connect 136 2 140 0;
#X connect 136 3 143 0;
#X connect 137 0 138 0;
#X connect 139 0 141 0;
#X connect 140 0 142 0;
#X connect 143 0 144 0;
#X connect 145 0 117 0;
#X connect 146 0 179 0;
#X connect 147 0 136 0;
#X connect 175 0 176 0;
#X connect 176 0 177 0;
#X connect 177 0 137 0;
#X connect 177 1 139 0;
#X connect 177 2 140 0;
#X connect 177 3 143 0;
#X connect 177 3 143 1;
#X connect 179 0 131 0;
#X restore 29 813 pd cmbcym;
#X obj 28 923 outlet~;
#N canvas 313 62 926 752 state-saving-multiple-instances 0;
#X obj 469 -15 loadbang;
#X obj 501 416 textfile;
#X msg 813 259 rewind;
#X msg 770 259 bang;
#X obj 109 691 textfile;
#X obj 770 220 t b b;
#X obj 110 357 f;
#X obj 123 470 f;
#X obj 48 403 t b b b;
#X msg 41 579 clear;
#X obj 527 204 outlet;
#X text 523 224 INSTANCE NUMBER;
#X obj 488 139 f \$1;
#X obj 488 175 t f f f;
#X obj 48 378 bng 15 250 50 0 empty empty empty 17 7 0 10 #fcfcfc #000000 #000000;
#X obj 48 274 r SAVE-S;
#X msg 110 438 set \$1 \$2 \$3 \$4 \$5 \$6 \$7 \$8 \$9 \$10 \$11 \$12;
#X obj 110 400 pack f f f f f f f f f f f f;
#X obj 501 438 unpack f f f f f f f f f f f f;
#X obj 523 -14 r \$0-reload!;
#X obj 106 51 r \$0-attack-s;
#X obj 124 74 r \$0-attack-cv-s;
#X obj 147 95 r \$0-decay-s;
#X obj 170 116 r \$0-decay-cv-s;
#X obj 192 139 r \$0-noise-s;
#X obj 209 163 r \$0-noise-cv-s;
#X obj 222 187 r \$0-hpass-s;
#X obj 233 214 r \$0-hpass-cv-s;
#X obj 501 652 s \$0-attack-r;
#X obj 516 633 s \$0-attack-cv-r;
#X obj 532 613 s \$0-decay-r;
#X obj 549 593 s \$0-decay-cv-r;
#X obj 566 575 s \$0-noise-r;
#X obj 582 556 s \$0-noise-cv-r;
#X obj 597 538 s \$0-hpass-r;
#X obj 614 518 s \$0-hpass-cv-r;
#X msg 122 651 write statesave/\$1-CMBCYM-ss.txt;
#X obj 557 300 r patch-path;
#X obj 512 319 pack f s;
#X obj 501 273 f;
#X obj 501 294 t b f;
#X obj 469 18 t b b b;
#X obj 508 45 s update-path;
#X msg 501 359 read /Users/johannklug/Documents/Bass\ Dieter/2025/Diet/MODULAR_LIVE_\ PERFORMER/patch1/statesave/0-cymbcym-ss.txt;
#X obj 387 37 bng 16 250 50 0 empty empty empty 0 -8 0 10 #fcfcfc #000000 #000000;
#X msg 512 338 set read \$2/statesave/\$1-cymbcym-ss.txt;
#X obj 180 525 r patch-path;
#X obj 135 544 pack f s;
#X obj 124 498 f;
#X obj 124 519 t b f;
#X msg 124 584 write /Users/johannklug/Documents/Bass\ Dieter/2025/Diet/MODULAR_LIVE_\ PERFORMER/patch1/statesave/0-cymbcym-ss.txt;
#X msg 135 563 set write \$2/statesave/\$1-cymbcym-ss.txt;
#X obj 246 243 r \$0-main-menu-s;
#X obj 256 273 r \$0-sub-menu-s;
#X obj 628 496 s \$0-main-menu-s;
#X obj 645 473 s \$0-sub-menu-s;
#X connect 0 0 41 0;
#X connect 1 0 18 0;
#X connect 2 0 1 0;
#X connect 3 0 1 0;
#X connect 5 0 3 0;
#X connect 5 1 2 0;
#X connect 6 0 17 0;
#X connect 8 0 7 0;
#X connect 8 0 48 0;
#X connect 8 1 6 0;
#X connect 8 2 9 0;
#X connect 9 0 4 0;
#X connect 12 0 13 0;
#X connect 13 0 7 1;
#X connect 13 0 48 1;
#X connect 13 1 39 0;
#X connect 13 2 10 0;
#X connect 14 0 8 0;
#X connect 15 0 14 0;
#X connect 16 0 4 0;
#X connect 17 0 16 0;
#X connect 18 0 28 0;
#X connect 18 1 29 0;
#X connect 18 2 30 0;
#X connect 18 3 31 0;
#X connect 18 4 32 0;
#X connect 18 5 33 0;
#X connect 18 6 34 0;
#X connect 18 7 35 0;
#X connect 18 8 54 0;
#X connect 18 9 55 0;
#X connect 19 0 41 0;
#X connect 20 0 6 1;
#X connect 21 0 17 1;
#X connect 22 0 17 2;
#X connect 23 0 17 3;
#X connect 24 0 17 4;
#X connect 25 0 17 5;
#X connect 26 0 17 6;
#X connect 27 0 17 7;
#X connect 36 0 4 0;
#X connect 37 0 38 1;
#X connect 38 0 45 0;
#X connect 39 0 40 0;
#X connect 40 0 43 0;
#X connect 40 1 38 0;
#X connect 41 0 5 0;
#X connect 41 1 12 0;
#X connect 41 2 42 0;
#X connect 43 0 1 0;
#X connect 44 0 41 0;
#X connect 45 0 43 0;
#X connect 46 0 47 1;
#X connect 47 0 51 0;
#X connect 48 0 49 0;
#X connect 49 0 50 0;
#X connect 49 1 47 0;
#X connect 50 0 4 0;
#X connect 51 0 50 0;
#X connect 52 0 17 8;
#X connect 53 0 17 9;
#X restore 388 174 pd state-saving-multiple-instances;
#X obj 388 246 s \$0-instance-num;
#X obj 388 198 makefilename %d;
#X msg 388 223 label \$1;
#N canvas 81 22 1117 745 state-saving-via-preset-manager-module 0;
#X obj 478 210 textfile;
#X msg 756 193 rewind;
#X msg 713 193 bang;
#X obj 243 690 textfile;
#X obj 713 154 t b b;
#X obj 116 230 f;
#X obj 257 579 f;
#X obj 190 474 t b b b;
#X msg 373 621 clear;
#X obj 116 54 delay 5;
#X obj 190 529 delay 10;
#X msg 62 188 bang;
#X obj 62 29 r STORE-S!;
#X obj 478 111 f;
#X obj 451 68 t b b;
#X obj 466 32 t b f;
#X obj 523 129 f \$1;
#X obj 478 156 pack f f;
#X obj 523 79 loadbang;
#X obj 257 609 pack f f;
#X obj 302 562 loadbang;
#X obj 302 584 f \$1;
#X obj 466 -32 r preset-manager-scan;
#X obj 272 540 r preset-manager-store-slot;
#X obj 466 -10 i;
#X msg 256 650 write statesave/\$1-\$2-kick-ss.txt;
#X msg 478 185 read statesave/\$1-\$2-kick-ss.txt;
#X obj 205 -8 r \$0-kick-pitch-s;
#X obj 213 15 r \$0-kick-decay-s;
#X obj 236 36 r \$0-kick-envmod-s;
#X obj 259 57 r \$0-kick-sweep-s;
#X obj 300 81 r \$0-kick-wform-s;
#X obj 308 104 r \$0-flam-s;
#X obj 321 128 r \$0-flam-prob-s;
#X obj 332 155 r \$0-acc-prob-s;
#X obj 345 183 r \$0-acc-level-s;
#X obj 362 211 r \$0-drive-s;
#X obj 360 248 r \$0-tone-s;
#X obj 385 278 r \$0-load-s;
#X msg 199 379 set \$1 \$2 \$3 \$4 \$5 \$6 \$7 \$8 \$9 \$10 \$11 \$12;
#X obj 199 341 pack f f f f f f f f f f f f;
#X obj 480 254 unpack f f f f f f f f f f f f;
#X obj 483 743 s \$0-basic-osc-pitch-r;
#N canvas 0 22 1069 747 morph-parameters 0;
#X obj 176 94 inlet;
#X obj 176 236 pack f f;
#X obj 176 261 line;
#X obj 209 117 r preset-manager-morph-s;
#X msg 72 244 stop;
#X obj 72 214 r STOP-MORPH!;
#X obj 209 206 spigot;
#X obj 398 137 t f f;
#X obj 455 154 == 0;
#X obj 221 176 f;
#X floatatom 455 222 5 0 0 0 - - - 0;
#X obj 398 159 t b f;
#X floatatom 425 192 5 0 0 0 - - - 0;
#X obj 209 139 t f f;
#X obj 398 102 r parameters-s;
#X obj 176 288 outlet;
#X connect 0 0 1 0;
#X connect 1 0 2 0;
#X connect 2 0 15 0;
#X connect 3 0 13 0;
#X connect 4 0 2 0;
#X connect 5 0 4 0;
#X connect 6 0 1 1;
#X connect 7 0 11 0;
#X connect 7 1 8 0;
#X connect 8 0 10 0;
#X connect 9 0 6 0;
#X connect 10 0 1 1;
#X connect 11 0 9 0;
#X connect 11 1 12 0;
#X connect 12 0 6 1;
#X connect 13 0 6 0;
#X connect 13 1 9 1;
#X connect 14 0 7 0;
#X restore 502 669 pd morph-parameters;
#N canvas 0 22 1069 747 morph-attenuators 0;
#X obj 176 94 inlet;
#X obj 176 236 pack f f;
#X obj 176 261 line;
#X obj 209 117 r preset-manager-morph-s;
#X msg 72 244 stop;
#X obj 72 214 r STOP-MORPH!;
#X obj 209 206 spigot;
#X obj 398 137 t f f;
#X obj 455 154 == 0;
#X obj 221 176 f;
#X floatatom 455 222 5 0 0 0 - - - 0;
#X obj 398 159 t b f;
#X floatatom 425 192 5 0 0 0 - - - 0;
#X obj 209 139 t f f;
#X obj 398 102 r attenuators-s;
#X obj 176 288 outlet;
#X connect 0 0 1 0;
#X connect 1 0 2 0;
#X connect 2 0 15 0;
#X connect 3 0 13 0;
#X connect 4 0 2 0;
#X connect 5 0 4 0;
#X connect 6 0 1 1;
#X connect 7 0 11 0;
#X connect 7 1 8 0;
#X connect 8 0 10 0;
#X connect 9 0 6 0;
#X connect 10 0 1 1;
#X connect 11 0 9 0;
#X connect 11 1 12 0;
#X connect 12 0 6 1;
#X connect 13 0 6 0;
#X connect 13 1 9 1;
#X connect 14 0 7 0;
#X restore 611 338 pd morph-attenuators;
#X obj 502 692 s \$0-kick-decay-r;
#N canvas 0 22 1069 747 morph-parameters 0;
#X obj 176 94 inlet;
#X obj 176 236 pack f f;
#X obj 176 261 line;
#X obj 209 117 r preset-manager-morph-s;
#X msg 72 244 stop;
#X obj 72 214 r STOP-MORPH!;
#X obj 209 206 spigot;
#X obj 398 137 t f f;
#X obj 455 154 == 0;
#X obj 221 176 f;
#X floatatom 455 222 5 0 0 0 - - - 0;
#X obj 398 159 t b f;
#X floatatom 425 192 5 0 0 0 - - - 0;
#X obj 209 139 t f f;
#X obj 398 102 r parameters-s;
#X obj 176 288 outlet;
#X connect 0 0 1 0;
#X connect 1 0 2 0;
#X connect 2 0 15 0;
#X connect 3 0 13 0;
#X connect 4 0 2 0;
#X connect 5 0 4 0;
#X connect 6 0 1 1;
#X connect 7 0 11 0;
#X connect 7 1 8 0;
#X connect 8 0 10 0;
#X connect 9 0 6 0;
#X connect 10 0 1 1;
#X connect 11 0 9 0;
#X connect 11 1 12 0;
#X connect 12 0 6 1;
#X connect 13 0 6 0;
#X connect 13 1 9 1;
#X connect 14 0 7 0;
#X restore 521 619 pd morph-parameters;
#X obj 521 642 s \$0-kick-envmod-r;
#N canvas 0 22 1069 747 morph-parameters 0;
#X obj 176 94 inlet;
#X obj 176 236 pack f f;
#X obj 176 261 line;
#X obj 209 117 r preset-manager-morph-s;
#X msg 72 244 stop;
#X obj 72 214 r STOP-MORPH!;
#X obj 209 206 spigot;
#X obj 398 137 t f f;
#X obj 455 154 == 0;
#X obj 221 176 f;
#X floatatom 455 222 5 0 0 0 - - - 0;
#X obj 398 159 t b f;
#X floatatom 425 192 5 0 0 0 - - - 0;
#X obj 209 139 t f f;
#X obj 398 102 r parameters-s;
#X obj 176 288 outlet;
#X connect 0 0 1 0;
#X connect 1 0 2 0;
#X connect 2 0 15 0;
#X connect 3 0 13 0;
#X connect 4 0 2 0;
#X connect 5 0 4 0;
#X connect 6 0 1 1;
#X connect 7 0 11 0;
#X connect 7 1 8 0;
#X connect 8 0 10 0;
#X connect 9 0 6 0;
#X connect 10 0 1 1;
#X connect 11 0 9 0;
#X connect 11 1 12 0;
#X connect 12 0 6 1;
#X connect 13 0 6 0;
#X connect 13 1 9 1;
#X connect 14 0 7 0;
#X restore 540 568 pd morph-parameters;
#X obj 540 591 s \$0-kick-sweep-r;
#N canvas 0 22 1069 747 morph-parameters 0;
#X obj 176 94 inlet;
#X obj 176 236 pack f f;
#X obj 176 261 line;
#X obj 209 117 r preset-manager-morph-s;
#X msg 72 244 stop;
#X obj 72 214 r STOP-MORPH!;
#X obj 209 206 spigot;
#X obj 398 137 t f f;
#X obj 455 154 == 0;
#X obj 221 176 f;
#X floatatom 455 222 5 0 0 0 - - - 0;
#X obj 398 159 t b f;
#X floatatom 425 192 5 0 0 0 - - - 0;
#X obj 209 139 t f f;
#X obj 398 102 r parameters-s;
#X obj 176 288 outlet;
#X connect 0 0 1 0;
#X connect 1 0 2 0;
#X connect 2 0 15 0;
#X connect 3 0 13 0;
#X connect 4 0 2 0;
#X connect 5 0 4 0;
#X connect 6 0 1 1;
#X connect 7 0 11 0;
#X connect 7 1 8 0;
#X connect 8 0 10 0;
#X connect 9 0 6 0;
#X connect 10 0 1 1;
#X connect 11 0 9 0;
#X connect 11 1 12 0;
#X connect 12 0 6 1;
#X connect 13 0 6 0;
#X connect 13 1 9 1;
#X connect 14 0 7 0;
#X restore 552 520 pd morph-parameters;
#X obj 552 543 s \$0-kick-wform-r;
#N canvas 0 22 1069 747 morph-frequencies 0;
#X obj 176 94 inlet;
#X obj 176 236 pack f f;
#X obj 176 261 line;
#X obj 209 117 r preset-manager-morph-s;
#X msg 72 244 stop;
#X obj 72 214 r STOP-MORPH!;
#X obj 398 102 r frequencies-s;
#X obj 209 206 spigot;
#X obj 398 137 t f f;
#X obj 455 154 == 0;
#X obj 221 176 f;
#X floatatom 455 222 5 0 0 0 - - - 0;
#X obj 398 159 t b f;
#X floatatom 425 192 5 0 0 0 - - - 0;
#X obj 209 139 t f f;
#X obj 176 283 outlet;
#X connect 0 0 1 0;
#X connect 1 0 2 0;
#X connect 2 0 15 0;
#X connect 3 0 14 0;
#X connect 4 0 2 0;
#X connect 5 0 4 0;
#X connect 6 0 8 0;
#X connect 7 0 1 1;
#X connect 8 0 12 0;
#X connect 8 1 9 0;
#X connect 9 0 11 0;
#X connect 10 0 7 0;
#X connect 11 0 1 1;
#X connect 12 0 10 0;
#X connect 12 1 13 0;
#X connect 13 0 7 1;
#X connect 14 0 7 0;
#X connect 14 1 10 1;
#X restore 483 720 pd morph-frequencies;
#N canvas 0 22 1069 747 morph-parameters 0;
#X obj 176 94 inlet;
#X obj 176 236 pack f f;
#X obj 176 261 line;
#X obj 209 117 r preset-manager-morph-s;
#X msg 72 244 stop;
#X obj 72 214 r STOP-MORPH!;
#X obj 209 206 spigot;
#X obj 398 137 t f f;
#X obj 455 154 == 0;
#X obj 221 176 f;
#X floatatom 455 222 5 0 0 0 - - - 0;
#X obj 398 159 t b f;
#X floatatom 425 192 5 0 0 0 - - - 0;
#X obj 209 139 t f f;
#X obj 398 102 r parameters-s;
#X obj 176 288 outlet;
#X connect 0 0 1 0;
#X connect 1 0 2 0;
#X connect 2 0 15 0;
#X connect 3 0 13 0;
#X connect 4 0 2 0;
#X connect 5 0 4 0;
#X connect 6 0 1 1;
#X connect 7 0 11 0;
#X connect 7 1 8 0;
#X connect 8 0 10 0;
#X connect 9 0 6 0;
#X connect 10 0 1 1;
#X connect 11 0 9 0;
#X connect 11 1 12 0;
#X connect 12 0 6 1;
#X connect 13 0 6 0;
#X connect 13 1 9 1;
#X connect 14 0 7 0;
#X restore 565 473 pd morph-parameters;
#X obj 565 496 s \$0-flam-r;
#N canvas 0 22 1069 747 morph-parameters 0;
#X obj 176 94 inlet;
#X obj 176 236 pack f f;
#X obj 176 261 line;
#X obj 209 117 r preset-manager-morph-s;
#X msg 72 244 stop;
#X obj 72 214 r STOP-MORPH!;
#X obj 209 206 spigot;
#X obj 398 137 t f f;
#X obj 455 154 == 0;
#X obj 221 176 f;
#X floatatom 455 222 5 0 0 0 - - - 0;
#X obj 398 159 t b f;
#X floatatom 425 192 5 0 0 0 - - - 0;
#X obj 209 139 t f f;
#X obj 398 102 r parameters-s;
#X obj 176 288 outlet;
#X connect 0 0 1 0;
#X connect 1 0 2 0;
#X connect 2 0 15 0;
#X connect 3 0 13 0;
#X connect 4 0 2 0;
#X connect 5 0 4 0;
#X connect 6 0 1 1;
#X connect 7 0 11 0;
#X connect 7 1 8 0;
#X connect 8 0 10 0;
#X connect 9 0 6 0;
#X connect 10 0 1 1;
#X connect 11 0 9 0;
#X connect 11 1 12 0;
#X connect 12 0 6 1;
#X connect 13 0 6 0;
#X connect 13 1 9 1;
#X connect 14 0 7 0;
#X restore 581 425 pd morph-parameters;
#X obj 581 448 s \$0-flam-prob-r;
#N canvas 0 22 1069 747 morph-parameters 0;
#X obj 176 94 inlet;
#X obj 176 236 pack f f;
#X obj 176 261 line;
#X obj 209 117 r preset-manager-morph-s;
#X msg 72 244 stop;
#X obj 72 214 r STOP-MORPH!;
#X obj 209 206 spigot;
#X obj 398 137 t f f;
#X obj 455 154 == 0;
#X obj 221 176 f;
#X floatatom 455 222 5 0 0 0 - - - 0;
#X obj 398 159 t b f;
#X floatatom 425 192 5 0 0 0 - - - 0;
#X obj 209 139 t f f;
#X obj 398 102 r parameters-s;
#X obj 176 288 outlet;
#X connect 0 0 1 0;
#X connect 1 0 2 0;
#X connect 2 0 15 0;
#X connect 3 0 13 0;
#X connect 4 0 2 0;
#X connect 5 0 4 0;
#X connect 6 0 1 1;
#X connect 7 0 11 0;
#X connect 7 1 8 0;
#X connect 8 0 10 0;
#X connect 9 0 6 0;
#X connect 10 0 1 1;
#X connect 11 0 9 0;
#X connect 11 1 12 0;
#X connect 12 0 6 1;
#X connect 13 0 6 0;
#X connect 13 1 9 1;
#X connect 14 0 7 0;
#X restore 597 380 pd morph-parameters;
#X obj 597 403 s \$0-acc-prob-r;
#X obj 611 359 s \$0-acc-level-r;
#N canvas 0 22 1069 747 morph-parameters 0;
#X obj 176 94 inlet;
#X obj 176 236 pack f f;
#X obj 176 261 line;
#X obj 209 117 r preset-manager-morph-s;
#X msg 72 244 stop;
#X obj 72 214 r STOP-MORPH!;
#X obj 209 206 spigot;
#X obj 398 137 t f f;
#X obj 455 154 == 0;
#X obj 221 176 f;
#X floatatom 455 222 5 0 0 0 - - - 0;
#X obj 398 159 t b f;
#X floatatom 425 192 5 0 0 0 - - - 0;
#X obj 209 139 t f f;
#X obj 398 102 r parameters-s;
#X obj 176 288 outlet;
#X connect 0 0 1 0;
#X connect 1 0 2 0;
#X connect 2 0 15 0;
#X connect 3 0 13 0;
#X connect 4 0 2 0;
#X connect 5 0 4 0;
#X connect 6 0 1 1;
#X connect 7 0 11 0;
#X connect 7 1 8 0;
#X connect 8 0 10 0;
#X connect 9 0 6 0;
#X connect 10 0 1 1;
#X connect 11 0 9 0;
#X connect 11 1 12 0;
#X connect 12 0 6 1;
#X connect 13 0 6 0;
#X connect 13 1 9 1;
#X connect 14 0 7 0;
#X restore 749 512 pd morph-parameters;
#X obj 749 535 s \$0-drive-r;
#N canvas 0 22 1069 747 morph-parameters 0;
#X obj 176 94 inlet;
#X obj 176 236 pack f f;
#X obj 176 261 line;
#X obj 209 117 r preset-manager-morph-s;
#X msg 72 244 stop;
#X obj 72 214 r STOP-MORPH!;
#X obj 209 206 spigot;
#X obj 398 137 t f f;
#X obj 455 154 == 0;
#X obj 221 176 f;
#X floatatom 455 222 5 0 0 0 - - - 0;
#X obj 398 159 t b f;
#X floatatom 425 192 5 0 0 0 - - - 0;
#X obj 209 139 t f f;
#X obj 398 102 r parameters-s;
#X obj 176 288 outlet;
#X connect 0 0 1 0;
#X connect 1 0 2 0;
#X connect 2 0 15 0;
#X connect 3 0 13 0;
#X connect 4 0 2 0;
#X connect 5 0 4 0;
#X connect 6 0 1 1;
#X connect 7 0 11 0;
#X connect 7 1 8 0;
#X connect 8 0 10 0;
#X connect 9 0 6 0;
#X connect 10 0 1 1;
#X connect 11 0 9 0;
#X connect 11 1 12 0;
#X connect 12 0 6 1;
#X connect 13 0 6 0;
#X connect 13 1 9 1;
#X connect 14 0 7 0;
#X restore 763 442 pd morph-parameters;
#X obj 763 465 s \$0-tone-r;
#X obj 802 379 s \$0-load-r;
#X connect 0 0 41 0;
#X connect 1 0 0 0;
#X connect 2 0 0 0;
#X connect 4 0 2 0;
#X connect 4 1 1 0;
#X connect 5 0 40 0;
#X connect 6 0 19 0;
#X connect 7 0 10 0;
#X connect 7 1 9 0;
#X connect 7 2 8 0;
#X connect 8 0 3 0;
#X connect 9 0 5 0;
#X connect 10 0 6 0;
#X connect 11 0 7 0;
#X connect 12 0 11 0;
#X connect 13 0 17 0;
#X connect 14 0 4 0;
#X connect 14 1 13 0;
#X connect 15 0 14 0;
#X connect 15 1 13 1;
#X connect 16 0 17 1;
#X connect 17 0 26 0;
#X connect 18 0 16 0;
#X connect 19 0 25 0;
#X connect 20 0 21 0;
#X connect 21 0 19 1;
#X connect 22 0 24 0;
#X connect 23 0 6 1;
#X connect 24 0 15 0;
#X connect 25 0 3 0;
#X connect 26 0 0 0;
#X connect 27 0 5 1;
#X connect 28 0 40 1;
#X connect 29 0 40 2;
#X connect 30 0 40 3;
#X connect 31 0 40 4;
#X connect 32 0 40 5;
#X connect 33 0 40 6;
#X connect 34 0 40 7;
#X connect 35 0 40 8;
#X connect 36 0 40 9;
#X connect 37 0 40 10;
#X connect 38 0 40 11;
#X connect 39 0 3 0;
#X connect 40 0 39 0;
#X connect 41 0 52 0;
#X connect 41 1 43 0;
#X connect 41 2 46 0;
#X connect 41 3 48 0;
#X connect 41 4 50 0;
#X connect 41 5 53 0;
#X connect 41 6 55 0;
#X connect 41 7 57 0;
#X connect 41 8 44 0;
#X connect 41 9 60 0;
#X connect 41 10 62 0;
#X connect 41 11 64 0;
#X connect 43 0 45 0;
#X connect 44 0 59 0;
#X connect 46 0 47 0;
#X connect 48 0 49 0;
#X connect 50 0 51 0;
#X connect 52 0 42 0;
#X connect 53 0 54 0;
#X connect 55 0 56 0;
#X connect 57 0 58 0;
#X connect 60 0 61 0;
#X connect 62 0 63 0;
#X restore 388 149 pd state-saving-via-preset-manager-module;
#N canvas 297 27 981 701 parameter-nudging-system 0;
#X obj 23 70 clip 0 127;
#X obj 182 67 clip 0 127;
#X obj 337 65 clip 0 127;
#N canvas 0 22 484 497 nudge-parameters 0;
#X obj 124 234 random;
#X obj 232 335 f;
#X obj 232 368 +;
#X obj 257 166 random 2;
#X obj 124 275 t f f;
#X obj 124 351 t b f;
#X obj 124 297 *;
#X obj 257 188 sel 0 1;
#X msg 257 280 -1;
#X msg 335 280 1;
#X obj 124 149 t b b b;
#X obj 124 74 r NUDGE!;
#X obj 157 193 r NUDGE-RANGE;
#X obj 247 308 inlet;
#X obj 232 397 outlet;
#X obj 124 96 spigot;
#X obj 185 79 r parameters2-s;
#X connect 0 0 4 0;
#X connect 1 0 2 0;
#X connect 2 0 14 0;
#X connect 3 0 7 0;
#X connect 4 0 6 0;
#X connect 5 0 2 0;
#X connect 5 1 2 1;
#X connect 6 0 5 0;
#X connect 7 0 8 0;
#X connect 7 1 9 0;
#X connect 8 0 6 1;
#X connect 9 0 6 1;
#X connect 10 0 0 0;
#X connect 10 1 1 0;
#X connect 10 2 3 0;
#X connect 11 0 15 0;
#X connect 12 0 0 1;
#X connect 13 0 1 1;
#X connect 15 0 10 0;
#X connect 16 0 15 1;
#X restore 182 45 pd nudge-parameters;
#X obj 23 22 r \$0-kick-pitch-s;
#X obj 23 102 s \$0-kick-pitch-r;
#X obj 182 22 r \$0-kick-decay-s;
#X obj 182 99 s \$0-kick-decay-r;
#X obj 337 20 r \$0-kick-envmod-s;
#X obj 337 97 s \$0-kick-envmod-r;
#X obj 27 193 clip 0 127;
#N canvas 0 22 484 497 nudge-parameters 0;
#X obj 124 234 random;
#X obj 232 335 f;
#X obj 232 368 +;
#X obj 257 166 random 2;
#X obj 124 275 t f f;
#X obj 124 351 t b f;
#X obj 124 297 *;
#X obj 257 188 sel 0 1;
#X msg 257 280 -1;
#X msg 335 280 1;
#X obj 124 149 t b b b;
#X obj 124 74 r NUDGE!;
#X obj 157 193 r NUDGE-RANGE;
#X obj 247 308 inlet;
#X obj 232 397 outlet;
#X obj 124 96 spigot;
#X obj 185 79 r parameters2-s;
#X connect 0 0 4 0;
#X connect 1 0 2 0;
#X connect 2 0 14 0;
#X connect 3 0 7 0;
#X connect 4 0 6 0;
#X connect 5 0 2 0;
#X connect 5 1 2 1;
#X connect 6 0 5 0;
#X connect 7 0 8 0;
#X connect 7 1 9 0;
#X connect 8 0 6 1;
#X connect 9 0 6 1;
#X connect 10 0 0 0;
#X connect 10 1 1 0;
#X connect 10 2 3 0;
#X connect 11 0 15 0;
#X connect 12 0 0 1;
#X connect 13 0 1 1;
#X connect 15 0 10 0;
#X connect 16 0 15 1;
#X restore 27 171 pd nudge-parameters;
#X obj 209 191 clip 0 127;
#N canvas 0 22 484 497 nudge-parameters 0;
#X obj 124 234 random;
#X obj 232 335 f;
#X obj 232 368 +;
#X obj 257 166 random 2;
#X obj 124 275 t f f;
#X obj 124 351 t b f;
#X obj 124 297 *;
#X obj 257 188 sel 0 1;
#X msg 257 280 -1;
#X msg 335 280 1;
#X obj 124 149 t b b b;
#X obj 124 74 r NUDGE!;
#X obj 157 193 r NUDGE-RANGE;
#X obj 247 308 inlet;
#X obj 232 397 outlet;
#X obj 124 96 spigot;
#X obj 185 79 r parameters2-s;
#X connect 0 0 4 0;
#X connect 1 0 2 0;
#X connect 2 0 14 0;
#X connect 3 0 7 0;
#X connect 4 0 6 0;
#X connect 5 0 2 0;
#X connect 5 1 2 1;
#X connect 6 0 5 0;
#X connect 7 0 8 0;
#X connect 7 1 9 0;
#X connect 8 0 6 1;
#X connect 9 0 6 1;
#X connect 10 0 0 0;
#X connect 10 1 1 0;
#X connect 10 2 3 0;
#X connect 11 0 15 0;
#X connect 12 0 0 1;
#X connect 13 0 1 1;
#X connect 15 0 10 0;
#X connect 16 0 15 1;
#X restore 209 169 pd nudge-parameters;
#X obj 350 191 clip 0 127;
#N canvas 0 22 484 497 nudge-parameters 0;
#X obj 124 234 random;
#X obj 232 335 f;
#X obj 232 368 +;
#X obj 257 166 random 2;
#X obj 124 275 t f f;
#X obj 124 351 t b f;
#X obj 124 297 *;
#X obj 257 188 sel 0 1;
#X msg 257 280 -1;
#X msg 335 280 1;
#X obj 124 149 t b b b;
#X obj 124 74 r NUDGE!;
#X obj 157 193 r NUDGE-RANGE;
#X obj 247 308 inlet;
#X obj 232 397 outlet;
#X obj 124 96 spigot;
#X obj 185 79 r parameters2-s;
#X connect 0 0 4 0;
#X connect 1 0 2 0;
#X connect 2 0 14 0;
#X connect 3 0 7 0;
#X connect 4 0 6 0;
#X connect 5 0 2 0;
#X connect 5 1 2 1;
#X connect 6 0 5 0;
#X connect 7 0 8 0;
#X connect 7 1 9 0;
#X connect 8 0 6 1;
#X connect 9 0 6 1;
#X connect 10 0 0 0;
#X connect 10 1 1 0;
#X connect 10 2 3 0;
#X connect 11 0 15 0;
#X connect 12 0 0 1;
#X connect 13 0 1 1;
#X connect 15 0 10 0;
#X connect 16 0 15 1;
#X restore 350 169 pd nudge-parameters;
#X obj 27 148 r \$0-kick-sweep-s;
#X obj 27 225 s \$0-kick-sweep-r;
#X obj 209 146 r \$0-kick-wform-s;
#X obj 209 223 s \$0-kick-wform-r;
#X obj 350 146 r \$0-flam-s;
#X obj 350 223 s \$0-flam-r;
#X obj 23 309 clip 0 127;
#N canvas 0 22 484 497 nudge-parameters 0;
#X obj 124 234 random;
#X obj 232 335 f;
#X obj 232 368 +;
#X obj 257 166 random 2;
#X obj 124 275 t f f;
#X obj 124 351 t b f;
#X obj 124 297 *;
#X obj 257 188 sel 0 1;
#X msg 257 280 -1;
#X msg 335 280 1;
#X obj 124 149 t b b b;
#X obj 124 74 r NUDGE!;
#X obj 157 193 r NUDGE-RANGE;
#X obj 247 308 inlet;
#X obj 232 397 outlet;
#X obj 124 96 spigot;
#X obj 185 79 r parameters2-s;
#X connect 0 0 4 0;
#X connect 1 0 2 0;
#X connect 2 0 14 0;
#X connect 3 0 7 0;
#X connect 4 0 6 0;
#X connect 5 0 2 0;
#X connect 5 1 2 1;
#X connect 6 0 5 0;
#X connect 7 0 8 0;
#X connect 7 1 9 0;
#X connect 8 0 6 1;
#X connect 9 0 6 1;
#X connect 10 0 0 0;
#X connect 10 1 1 0;
#X connect 10 2 3 0;
#X connect 11 0 15 0;
#X connect 12 0 0 1;
#X connect 13 0 1 1;
#X connect 15 0 10 0;
#X connect 16 0 15 1;
#X restore 23 287 pd nudge-parameters;
#X obj 205 307 clip 0 127;
#N canvas 0 22 484 497 nudge-parameters 0;
#X obj 124 234 random;
#X obj 232 335 f;
#X obj 232 368 +;
#X obj 257 166 random 2;
#X obj 124 275 t f f;
#X obj 124 351 t b f;
#X obj 124 297 *;
#X obj 257 188 sel 0 1;
#X msg 257 280 -1;
#X msg 335 280 1;
#X obj 124 149 t b b b;
#X obj 124 74 r NUDGE!;
#X obj 157 193 r NUDGE-RANGE;
#X obj 247 308 inlet;
#X obj 232 397 outlet;
#X obj 124 96 spigot;
#X obj 185 79 r parameters2-s;
#X connect 0 0 4 0;
#X connect 1 0 2 0;
#X connect 2 0 14 0;
#X connect 3 0 7 0;
#X connect 4 0 6 0;
#X connect 5 0 2 0;
#X connect 5 1 2 1;
#X connect 6 0 5 0;
#X connect 7 0 8 0;
#X connect 7 1 9 0;
#X connect 8 0 6 1;
#X connect 9 0 6 1;
#X connect 10 0 0 0;
#X connect 10 1 1 0;
#X connect 10 2 3 0;
#X connect 11 0 15 0;
#X connect 12 0 0 1;
#X connect 13 0 1 1;
#X connect 15 0 10 0;
#X connect 16 0 15 1;
#X restore 205 285 pd nudge-parameters;
#N canvas 0 22 484 497 nudge-attenuators 0;
#X obj 124 234 random;
#X obj 232 335 f;
#X obj 232 368 +;
#X obj 257 166 random 2;
#X obj 124 275 t f f;
#X obj 124 351 t b f;
#X obj 124 297 *;
#X obj 257 188 sel 0 1;
#X msg 257 280 -1;
#X msg 335 280 1;
#X obj 124 149 t b b b;
#X obj 124 71 r NUDGE!;
#X obj 157 193 r NUDGE-RANGE;
#X obj 247 308 inlet;
#X obj 232 397 outlet;
#X obj 124 93 spigot;
#X obj 201 76 r attenuators2-s;
#X connect 0 0 4 0;
#X connect 1 0 2 0;
#X connect 2 0 14 0;
#X connect 3 0 7 0;
#X connect 4 0 6 0;
#X connect 5 0 2 0;
#X connect 5 1 2 1;
#X connect 6 0 5 0;
#X connect 7 0 8 0;
#X connect 7 1 9 0;
#X connect 8 0 6 1;
#X connect 9 0 6 1;
#X connect 10 0 0 0;
#X connect 10 1 1 0;
#X connect 10 2 3 0;
#X connect 11 0 15 0;
#X connect 12 0 0 1;
#X connect 13 0 1 1;
#X connect 15 0 10 0;
#X connect 16 0 15 1;
#X restore 353 280 pd nudge-attenuators;
#N canvas 0 22 484 497 nudge-parameters 0;
#X obj 124 234 random;
#X obj 232 335 f;
#X obj 232 368 +;
#X obj 257 166 random 2;
#X obj 124 275 t f f;
#X obj 124 351 t b f;
#X obj 124 297 *;
#X obj 257 188 sel 0 1;
#X msg 257 280 -1;
#X msg 335 280 1;
#X obj 124 149 t b b b;
#X obj 124 74 r NUDGE!;
#X obj 157 193 r NUDGE-RANGE;
#X obj 247 308 inlet;
#X obj 232 397 outlet;
#X obj 124 96 spigot;
#X obj 185 79 r parameters2-s;
#X connect 0 0 4 0;
#X connect 1 0 2 0;
#X connect 2 0 14 0;
#X connect 3 0 7 0;
#X connect 4 0 6 0;
#X connect 5 0 2 0;
#X connect 5 1 2 1;
#X connect 6 0 5 0;
#X connect 7 0 8 0;
#X connect 7 1 9 0;
#X connect 8 0 6 1;
#X connect 9 0 6 1;
#X connect 10 0 0 0;
#X connect 10 1 1 0;
#X connect 10 2 3 0;
#X connect 11 0 15 0;
#X connect 12 0 0 1;
#X connect 13 0 1 1;
#X connect 15 0 10 0;
#X connect 16 0 15 1;
#X restore 337 41 pd nudge-parameters;
#X obj 354 305 clip 0 127;
#X obj 353 254 r \$0-acc-level-s;
#X obj 354 331 s \$0-acc-level-r;
#X obj 23 264 r \$0-flam-prob-s;
#X obj 23 341 s \$0-flam-prob-r;
#X obj 205 262 r \$0-acc-prob-s;
#X obj 205 339 s \$0-acc-prob-r;
#X obj 23 448 clip 0 127;
#N canvas 0 22 484 497 nudge-parameters 0;
#X obj 124 234 random;
#X obj 232 335 f;
#X obj 232 368 +;
#X obj 257 166 random 2;
#X obj 124 275 t f f;
#X obj 124 351 t b f;
#X obj 124 297 *;
#X obj 257 188 sel 0 1;
#X msg 257 280 -1;
#X msg 335 280 1;
#X obj 124 149 t b b b;
#X obj 124 74 r NUDGE!;
#X obj 157 193 r NUDGE-RANGE;
#X obj 247 308 inlet;
#X obj 232 397 outlet;
#X obj 124 96 spigot;
#X obj 185 79 r parameters2-s;
#X connect 0 0 4 0;
#X connect 1 0 2 0;
#X connect 2 0 14 0;
#X connect 3 0 7 0;
#X connect 4 0 6 0;
#X connect 5 0 2 0;
#X connect 5 1 2 1;
#X connect 6 0 5 0;
#X connect 7 0 8 0;
#X connect 7 1 9 0;
#X connect 8 0 6 1;
#X connect 9 0 6 1;
#X connect 10 0 0 0;
#X connect 10 1 1 0;
#X connect 10 2 3 0;
#X connect 11 0 15 0;
#X connect 12 0 0 1;
#X connect 13 0 1 1;
#X connect 15 0 10 0;
#X connect 16 0 15 1;
#X restore 23 426 pd nudge-parameters;
#X obj 205 446 clip 0 127;
#N canvas 0 22 484 497 nudge-parameters 0;
#X obj 124 234 random;
#X obj 232 335 f;
#X obj 232 368 +;
#X obj 257 166 random 2;
#X obj 124 275 t f f;
#X obj 124 351 t b f;
#X obj 124 297 *;
#X obj 257 188 sel 0 1;
#X msg 257 280 -1;
#X msg 335 280 1;
#X obj 124 149 t b b b;
#X obj 124 74 r NUDGE!;
#X obj 157 193 r NUDGE-RANGE;
#X obj 247 308 inlet;
#X obj 232 397 outlet;
#X obj 124 96 spigot;
#X obj 185 79 r parameters2-s;
#X connect 0 0 4 0;
#X connect 1 0 2 0;
#X connect 2 0 14 0;
#X connect 3 0 7 0;
#X connect 4 0 6 0;
#X connect 5 0 2 0;
#X connect 5 1 2 1;
#X connect 6 0 5 0;
#X connect 7 0 8 0;
#X connect 7 1 9 0;
#X connect 8 0 6 1;
#X connect 9 0 6 1;
#X connect 10 0 0 0;
#X connect 10 1 1 0;
#X connect 10 2 3 0;
#X connect 11 0 15 0;
#X connect 12 0 0 1;
#X connect 13 0 1 1;
#X connect 15 0 10 0;
#X connect 16 0 15 1;
#X restore 205 424 pd nudge-parameters;
#X obj 23 403 r \$0-drive-s;
#X obj 23 480 s \$0-drive-r;
#X obj 205 401 r \$0-tone-s;
#X obj 205 478 s \$0-tone-r;
#N canvas 0 22 484 497 nudge-freq 0;
#X obj 124 234 random;
#X obj 232 335 f;
#X obj 232 368 +;
#X obj 257 166 random 2;
#X obj 124 275 t f f;
#X obj 124 351 t b f;
#X obj 124 297 *;
#X obj 257 188 sel 0 1;
#X msg 257 280 -1;
#X msg 335 280 1;
#X obj 124 149 t b b b;
#X obj 124 51 r NUDGE!;
#X obj 157 193 r NUDGE-RANGE;
#X obj 247 308 inlet;
#X obj 232 397 outlet;
#X obj 124 73 spigot;
#X obj 185 56 r frequencies2-s;
#X connect 0 0 4 0;
#X connect 1 0 2 0;
#X connect 2 0 14 0;
#X connect 3 0 7 0;
#X connect 4 0 6 0;
#X connect 5 0 2 0;
#X connect 5 1 2 1;
#X connect 6 0 5 0;
#X connect 7 0 8 0;
#X connect 7 1 9 0;
#X connect 8 0 6 1;
#X connect 9 0 6 1;
#X connect 10 0 0 0;
#X connect 10 1 1 0;
#X connect 10 2 3 0;
#X connect 11 0 15 0;
#X connect 12 0 0 1;
#X connect 13 0 1 1;
#X connect 15 0 10 0;
#X connect 16 0 15 1;
#X restore 22 48 pd nudge-freq;
#X connect 0 0 5 0;
#X connect 1 0 7 0;
#X connect 2 0 9 0;
#X connect 3 0 1 0;
#X connect 4 0 43 0;
#X connect 6 0 3 0;
#X connect 8 0 27 0;
#X connect 10 0 17 0;
#X connect 11 0 10 0;
#X connect 12 0 19 0;
#X connect 13 0 12 0;
#X connect 14 0 21 0;
#X connect 15 0 14 0;
#X connect 16 0 11 0;
#X connect 18 0 13 0;
#X connect 20 0 15 0;
#X connect 22 0 32 0;
#X connect 23 0 22 0;
#X connect 24 0 34 0;
#X connect 25 0 24 0;
#X connect 26 0 28 0;
#X connect 27 0 2 0;
#X connect 28 0 30 0;
#X connect 29 0 26 0;
#X connect 31 0 23 0;
#X connect 33 0 25 0;
#X connect 35 0 40 0;
#X connect 36 0 35 0;
#X connect 37 0 42 0;
#X connect 38 0 37 0;
#X connect 39 0 36 0;
#X connect 41 0 38 0;
#X connect 43 0 0 0;
#X restore 388 125 pd parameter-nudging-system;
#N canvas 302 64 1008 752 savetest 0;
#X obj 290 212 pack f f;
#X obj 305 133 loadbang;
#X obj 305 155 f \$1;
#X obj 290 184 f;
#X obj 292 453 textfile;
#X msg 475 436 rewind;
#X obj 165 78 loadbang;
#X obj 19 174 delay 10;
#X text 59 52 WRITE;
#X obj 19 54 inlet;
#X obj 19 208 f;
#X obj 19 247 pack f f;
#X obj 165 126 t f f;
#X obj 165 104 f \$1;
#X msg -193 97 bang;
#X obj 91 611 textfile;
#X msg 97 236 clear;
#X obj 19 118 t b f b b;
#X obj 308 21 inlet;
#X text 353 19 LOAD;
#X msg 399 415 bang;
#X obj 412 375 t b b;
#X obj 308 43 t b f;
#X obj 290 90 t b b;
#X obj -412 344 f;
#N canvas 0 22 1084 659 unpack-values 0;
#X obj 182 32 inlet;
#X obj 181 578 s \$0-kick-pitch-r;
#X obj 194 557 s \$0-kick-decay-r;
#X obj 211 531 s \$0-kick-envmod-r;
#X obj 224 510 s \$0-kick-sweep-r;
#X obj 238 485 s \$0-kick-wform-r;
#X obj 251 464 s \$0-flam-r;
#X obj 268 438 s \$0-flam-prob-r;
#X obj 281 417 s \$0-acc-prob-r;
#X obj 298 394 s \$0-acc-level-r;
#X obj 311 373 s \$0-drive-r;
#X obj 337 317 s \$0-tone-r;
#X obj 182 59 unpack f f f f f f f f f f f;
#X connect 0 0 12 0;
#X connect 12 0 1 0;
#X connect 12 1 2 0;
#X connect 12 2 3 0;
#X connect 12 3 4 0;
#X connect 12 4 5 0;
#X connect 12 5 6 0;
#X connect 12 6 7 0;
#X connect 12 7 8 0;
#X connect 12 8 9 0;
#X connect 12 9 10 0;
#X connect 12 10 11 0;
#X restore 292 479 pd unpack-values;
#X obj 411 85 f;
#X obj 411 24 r SAVE-S;
#X msg 19 329 write statesave/\$1-kickpreset-\$2-ss.txt;
#X msg 291 297 read statesave/\$1-kickpreset-\$2-ss.txt;
#X obj -400 22 r \$0-kick-pitch-s;
#X obj -387 44 r \$0-kick-decay-s;
#X obj -371 64 r \$0-kick-envmod-s;
#X obj -355 84 r \$0-kick-sweep-s;
#X obj -337 103 r \$0-kick-wform-s;
#X obj -321 123 r \$0-flam-s;
#X obj -305 143 r \$0-flam-prob-s;
#X obj -284 166 r \$0-acc-prob-s;
#X obj -264 195 r \$0-acc-level-s;
#X obj -248 215 r \$0-drive-s;
#X obj -232 235 r \$0-tone-s;
#X obj 426 56 r \$0-load-s;
#X obj 411 107 s \$0-write-r;
#X msg -378 522 set \$1 \$2 \$3 \$4 \$5 \$6 \$7 \$8 \$9 \$10 \$11;
#X obj -377 481 pack f f f f f f f f f f f;
#X connect 0 0 29 0;
#X connect 1 0 2 0;
#X connect 2 0 3 1;
#X connect 3 0 0 0;
#X connect 4 0 25 0;
#X connect 5 0 4 0;
#X connect 6 0 13 0;
#X connect 7 0 10 0;
#X connect 9 0 17 0;
#X connect 10 0 11 0;
#X connect 11 0 28 0;
#X connect 12 0 10 1;
#X connect 13 0 12 0;
#X connect 14 0 24 0;
#X connect 16 0 15 0;
#X connect 17 0 7 0;
#X connect 17 1 11 1;
#X connect 17 2 14 0;
#X connect 17 3 16 0;
#X connect 18 0 22 0;
#X connect 20 0 4 0;
#X connect 21 0 20 0;
#X connect 21 1 5 0;
#X connect 22 0 23 0;
#X connect 22 1 0 1;
#X connect 23 0 21 0;
#X connect 23 1 3 0;
#X connect 24 0 44 0;
#X connect 26 0 42 0;
#X connect 27 0 26 0;
#X connect 28 0 15 0;
#X connect 29 0 4 0;
#X connect 30 0 24 1;
#X connect 31 0 44 1;
#X connect 32 0 44 2;
#X connect 33 0 44 3;
#X connect 34 0 44 4;
#X connect 35 0 44 5;
#X connect 36 0 44 6;
#X connect 37 0 44 7;
#X connect 38 0 44 8;
#X connect 39 0 44 9;
#X connect 40 0 44 10;
#X connect 41 0 26 1;
#X connect 43 0 15 0;
#X connect 44 0 43 0;
#X restore 388 325 pd savetest;
#X obj 388 273 r \$0-write-s;
#X obj 451 297 r \$0-load-s;
#N canvas 376 23 1280 809 external-messages 0;
#X floatatom -71 513 5 0 0 0 - - - 0;
#X obj 43 328 spigot;
#X obj 76 288 tgl 15 0 empty empty empty 17 7 0 10 #fcfcfc #000000 #000000 0 1;
#X obj 112 272 ==;
#X obj 127 248 f \$1;
#X obj 127 224 loadbang;
#X msg 43 202 \$1 \$2;
#X msg 43 156 symbol \$1;
#X obj 43 180 pack s f;
#X obj -71 492 f;
#X obj -71 440 t b f;
#X obj -71 463 spigot;
#X obj 43 62 unpack s f f;
#X symbolatom 43 94 10 0 0 0 - - - 0;
#X obj 76 308 t f f;
#X obj 103 332 s \$0-msg-spigot;
#X obj -23 447 r \$0-msg-spigot;
#X floatatom -45 657 5 0 0 0 - - - 0;
#X obj -45 636 f;
#X obj -45 584 t b f;
#X obj -45 607 spigot;
#X obj 3 591 r \$0-msg-spigot;
#X floatatom 106 549 5 0 0 0 - - - 0;
#X obj 106 528 f;
#X obj 106 476 t b f;
#X obj 106 499 spigot;
#X obj 154 483 r \$0-msg-spigot;
#X floatatom 145 687 5 0 0 0 - - - 0;
#X obj 145 666 f;
#X obj 145 614 t b f;
#X obj 145 637 spigot;
#X obj 193 621 r \$0-msg-spigot;
#X floatatom 270 523 5 0 0 0 - - - 0;
#X obj 270 502 f;
#X obj 270 450 t b f;
#X obj 270 473 spigot;
#X obj 318 457 r \$0-msg-spigot;
#X obj 43 14 r kick;
#X obj 43 380 route PITCH HOLD DECAY EG2 SWEEP WFORM FLAM FLAM-PROB ACC-PROB ACCENT DRIVE TONE;
#X floatatom 315 690 5 0 0 0 - - - 0;
#X obj 315 669 f;
#X obj 315 617 t b f;
#X obj 315 640 spigot;
#X obj 363 624 r \$0-msg-spigot;
#X floatatom 442 535 5 0 0 0 - - - 0;
#X obj 442 514 f;
#X obj 442 462 t b f;
#X obj 442 485 spigot;
#X obj 490 469 r \$0-msg-spigot;
#X floatatom 479 685 5 0 0 0 - - - 0;
#X obj 479 664 f;
#X obj 479 612 t b f;
#X obj 479 635 spigot;
#X obj 527 619 r \$0-msg-spigot;
#X floatatom 622 527 5 0 0 0 - - - 0;
#X obj 622 506 f;
#X obj 622 454 t b f;
#X obj 622 477 spigot;
#X obj 670 461 r \$0-msg-spigot;
#X floatatom 654 680 5 0 0 0 - - - 0;
#X obj 654 659 f;
#X obj 654 607 t b f;
#X obj 654 630 spigot;
#X obj 702 614 r \$0-msg-spigot;
#X floatatom 784 516 5 0 0 0 - - - 0;
#X obj 784 495 f;
#X obj 784 443 t b f;
#X obj 784 466 spigot;
#X obj 832 450 r \$0-msg-spigot;
#X floatatom 816 707 5 0 0 0 - - - 0;
#X obj 816 686 f;
#X obj 816 634 t b f;
#X obj 816 657 spigot;
#X obj 864 641 r \$0-msg-spigot;
#X obj -71 533 s \$0-kick-pitch-r;
#X obj -45 677 s \$0-kick-hold-r;
#X obj 106 569 s \$0-kick-decay-r;
#X obj 145 707 s \$0-kick-envmod-r;
#X obj 270 543 s \$0-kick-sweep-r;
#X obj 315 710 s \$0-kick-wform-r;
#X obj 442 555 s \$0-flam-r;
#X obj 479 705 s \$0-flam-prob-r;
#X obj 622 547 s \$0-acc-prob-r;
#X obj 654 700 s \$0-acc-level-r;
#X obj 784 536 s \$0-drive-r;
#X obj 816 727 s \$0-tone-r;
#X connect 0 0 74 0;
#X connect 1 0 38 0;
#X connect 2 0 14 0;
#X connect 3 0 2 0;
#X connect 4 0 3 1;
#X connect 5 0 4 0;
#X connect 6 0 1 0;
#X connect 7 0 8 0;
#X connect 8 0 6 0;
#X connect 9 0 0 0;
#X connect 10 0 11 0;
#X connect 10 1 9 1;
#X connect 11 0 9 0;
#X connect 12 0 13 0;
#X connect 12 1 8 1;
#X connect 12 2 3 0;
#X connect 13 0 7 0;
#X connect 14 0 1 1;
#X connect 14 1 15 0;
#X connect 16 0 11 1;
#X connect 17 0 75 0;
#X connect 18 0 17 0;
#X connect 19 0 20 0;
#X connect 19 1 18 1;
#X connect 20 0 18 0;
#X connect 21 0 20 1;
#X connect 22 0 76 0;
#X connect 23 0 22 0;
#X connect 24 0 25 0;
#X connect 24 1 23 1;
#X connect 25 0 23 0;
#X connect 26 0 25 1;
#X connect 27 0 77 0;
#X connect 28 0 27 0;
#X connect 29 0 30 0;
#X connect 29 1 28 1;
#X connect 30 0 28 0;
#X connect 31 0 30 1;
#X connect 32 0 78 0;
#X connect 33 0 32 0;
#X connect 34 0 35 0;
#X connect 34 1 33 1;
#X connect 35 0 33 0;
#X connect 36 0 35 1;
#X connect 37 0 12 0;
#X connect 38 0 10 0;
#X connect 38 1 19 0;
#X connect 38 2 24 0;
#X connect 38 3 29 0;
#X connect 38 4 34 0;
#X connect 38 5 41 0;
#X connect 38 6 46 0;
#X connect 38 7 51 0;
#X connect 38 8 56 0;
#X connect 38 9 61 0;
#X connect 38 10 66 0;
#X connect 38 11 71 0;
#X connect 39 0 79 0;
#X connect 40 0 39 0;
#X connect 41 0 42 0;
#X connect 41 1 40 1;
#X connect 42 0 40 0;
#X connect 43 0 42 1;
#X connect 44 0 80 0;
#X connect 45 0 44 0;
#X connect 46 0 47 0;
#X connect 46 1 45 1;
#X connect 47 0 45 0;
#X connect 48 0 47 1;
#X connect 49 0 81 0;
#X connect 50 0 49 0;
#X connect 51 0 52 0;
#X connect 51 1 50 1;
#X connect 52 0 50 0;
#X connect 53 0 52 1;
#X connect 54 0 82 0;
#X connect 55 0 54 0;
#X connect 56 0 57 0;
#X connect 56 1 55 1;
#X connect 57 0 55 0;
#X connect 58 0 57 1;
#X connect 59 0 83 0;
#X connect 60 0 59 0;
#X connect 61 0 62 0;
#X connect 61 1 60 1;
#X connect 62 0 60 0;
#X connect 63 0 62 1;
#X connect 64 0 84 0;
#X connect 65 0 64 0;
#X connect 66 0 67 0;
#X connect 66 1 65 1;
#X connect 67 0 65 0;
#X connect 68 0 67 1;
#X connect 69 0 85 0;
#X connect 70 0 69 0;
#X connect 71 0 72 0;
#X connect 71 1 70 1;
#X connect 72 0 70 0;
#X connect 73 0 72 1;
#X restore 387 101 pd external-messages;
#X obj 129 152 hsl 128 15 0 127 0 1 \$0-attack-s \$0-attack-r ATTACK 133 7 0 10 #fcfcfc #000000 #000000 0 1;
#X obj 129 167 hsl 128 15 0 127 0 1 \$0-attack-cv-s \$0-attack-cv-r ATT-/+ 133 7 0 10 #90d3b0 #000000 #000000 9500 1;
#X obj 129 192 hsl 128 15 0 127 0 1 \$0-decay-s \$0-decay-r DECAY 133 7 0 10 #fcfcfc #000000 #000000 9200 1;
#X obj 129 232 hsl 128 15 0 127 0 1 \$0-noise-s \$0-noise-r NOISE 133 7 0 10 #fcfcfc #000000 #000000 12700 1;
#X obj 129 272 hsl 128 15 0 127 0 1 \$0-hpass-s \$0-hpass-r HPASS 133 7 0 10 #fcfcfc #000000 #000000 0 1;
#X obj 129 207 hsl 128 15 0 127 0 1 \$0-decay-cv-s \$0-decay-cv-r DC-/+ 133 7 0 10 #90d3b0 #000000 #000000 3500 1;
#X obj 129 247 hsl 128 15 0 127 0 1 \$0-noise-cv-s \$0-noise-cv-r NS-/+ 133 7 0 10 #90d3b0 #000000 #000000 4600 1;
#X obj 129 287 hsl 128 15 0 127 0 1 \$0-hpass-cv-s \$0-hpass-cv-r HPASS-/+ 133 7 0 10 #90d3b0 #000000 #000000 6600 1;
#X obj 126 137 cnv 5 5 5 empty empty CMBCYM 0 0 0 12 #fcfcfc #404040 0;
#X obj 103 362 cnv 5 5 5 empty empty OUT 0 0 0 8 #fcfcfc #404040 0;
#X obj 173 137 cnv 5 5 5 empty \$0-instance-num 0 0 0 0 12 #fcfcfc #404040 0;
#X obj 14 135 unpack;
#X obj 14 164 stripnote;
#X obj 14 187 bng 16 250 50 0 empty empty empty 0 -8 0 10 #fcfcfc #000000 #000000;
#X obj 13 83 inlet;
#X obj 103 109 cnv 5 5 5 empty empty IN 0 0 0 8 #fcfcfc #ff8300 0;
#X obj 759 781 pack f f f f f f;
#X obj 758 634 hsl 136 16 0 127 0 0 empty empty empty -2 -8 0 10 #fcfcfc #000000 #000000 0 1;
#X obj 755 655 * 10;
#X obj 790 656 hsl 136 16 0 127 0 0 empty empty empty -2 -8 0 10 #fcfcfc #000000 #000000 0 1;
#X obj 787 677 * 10;
#X obj 824 678 hsl 136 16 0 127 0 0 empty empty empty -2 -8 0 10 #fcfcfc #000000 #000000 0 1;
#X obj 821 699 * 10;
#X obj 856 700 hsl 136 16 0 127 0 0 empty empty empty -2 -8 0 10 #fcfcfc #000000 #000000 0 1;
#X obj 853 721 * 10;
#X obj 890 722 hsl 136 16 0 127 0 0 empty empty empty -2 -8 0 10 #fcfcfc #000000 #000000 0 1;
#X obj 887 743 * 10;
#X obj 922 744 hsl 136 16 0 127 0 0 empty empty empty -2 -8 0 10 #fcfcfc #000000 #000000 0 1;
#X obj 919 765 * 10;
#X obj 786 897 t b;
#N canvas 196 112 1244 616 push-controll 0;
#N canvas 208 84 1232 580 push-encoder 0;
#X obj 53 80 push-encoder-reader;
#X obj 53 -17 ctlin 71;
#X obj 298 75 push-encoder-reader;
#X obj 298 -22 ctlin 72;
#X obj 536 77 push-encoder-reader;
#X obj 781 72 push-encoder-reader;
#X obj 536 -20 ctlin 73;
#X obj 781 -25 ctlin 74;
#X obj 54 38 main-menu;
#X obj 105 20 r \$0-mm;
#N canvas 150 175 450 300 sm1 0;
#X obj 109 64 r \$0-sm;
#X obj 109 102 sel;
#X obj 75 170 outlet;
#X msg 108 123 1;
#X msg 135 123 0;
#X obj 75 149 spigot;
#X obj 75 37 inlet;
#X obj 124 83 r \$0-sm1;
#X connect 0 0 1 0;
#X connect 1 0 3 0;
#X connect 1 1 4 0;
#X connect 3 0 5 1;
#X connect 4 0 5 1;
#X connect 5 0 2 0;
#X connect 6 0 5 0;
#X connect 7 0 1 1;
#X restore 54 57 pd sm1;
#X obj 299 29 main-menu;
#X obj 350 11 r \$0-mm;
#N canvas 150 175 450 300 sm1 0;
#X obj 109 64 r \$0-sm;
#X obj 109 102 sel;
#X obj 75 170 outlet;
#X msg 108 123 1;
#X msg 135 123 0;
#X obj 75 149 spigot;
#X obj 75 37 inlet;
#X obj 124 83 r \$0-sm1;
#X connect 0 0 1 0;
#X connect 1 0 3 0;
#X connect 1 1 4 0;
#X connect 3 0 5 1;
#X connect 4 0 5 1;
#X connect 5 0 2 0;
#X connect 6 0 5 0;
#X connect 7 0 1 1;
#X restore 299 48 pd sm1;
#X obj 537 20 main-menu;
#X obj 588 2 r \$0-mm;
#N canvas 150 175 450 300 sm1 0;
#X obj 109 64 r \$0-sm;
#X obj 109 102 sel;
#X obj 75 170 outlet;
#X msg 108 123 1;
#X msg 135 123 0;
#X obj 75 149 spigot;
#X obj 75 37 inlet;
#X obj 124 83 r \$0-sm1;
#X connect 0 0 1 0;
#X connect 1 0 3 0;
#X connect 1 1 4 0;
#X connect 3 0 5 1;
#X connect 4 0 5 1;
#X connect 5 0 2 0;
#X connect 6 0 5 0;
#X connect 7 0 1 1;
#X restore 537 39 pd sm1;
#X obj 781 15 main-menu;
#X obj 832 -3 r \$0-mm;
#N canvas 150 175 450 300 sm1 0;
#X obj 109 64 r \$0-sm;
#X obj 109 102 sel;
#X obj 75 170 outlet;
#X msg 108 123 1;
#X msg 135 123 0;
#X obj 75 149 spigot;
#X obj 75 37 inlet;
#X obj 124 83 r \$0-sm1;
#X connect 0 0 1 0;
#X connect 1 0 3 0;
#X connect 1 1 4 0;
#X connect 3 0 5 1;
#X connect 4 0 5 1;
#X connect 5 0 2 0;
#X connect 6 0 5 0;
#X connect 7 0 1 1;
#X restore 781 34 pd sm1;
#X text 37 -47 Encoder to volume (submenu1);
#X obj 131 53 r \$0-attack-s;
#X obj 364 49 r \$0-decay-s;
#X obj 596 53 r \$0-noise-s;
#X obj 847 37 r \$0-hpass-s;
#X obj 53 105 s \$0-attack-r;
#X obj 298 103 s \$0-decay-r;
#X obj 537 100 s \$0-noise-r;
#X obj 781 98 s \$0-hpass-r;
#X connect 0 0 25 0;
#X connect 1 0 8 0;
#X connect 2 0 26 0;
#X connect 3 0 11 0;
#X connect 4 0 27 0;
#X connect 5 0 28 0;
#X connect 6 0 14 0;
#X connect 7 0 17 0;
#X connect 8 0 10 0;
#X connect 9 0 8 1;
#X connect 10 0 0 0;
#X connect 11 0 13 0;
#X connect 12 0 11 1;
#X connect 13 0 2 0;
#X connect 14 0 16 0;
#X connect 15 0 14 1;
#X connect 16 0 4 0;
#X connect 17 0 19 0;
#X connect 18 0 17 1;
#X connect 19 0 5 0;
#X connect 21 0 0 1;
#X connect 22 0 2 1;
#X connect 23 0 4 1;
#X connect 24 0 5 1;
#X restore 21 141 pd push-encoder;
#N canvas 0 25 1440 789 push-display 0;
#X obj 146 -216 t b;
#X obj 147 -3 push-mk1-display 24;
#X obj 146 -279 main-menu;
#X obj 172 -301 r \$0-mm;
#X obj 146 -328 r \$0-sm;
#X obj 433 0 push-mk1-display 25;
#X msg 433 -33 symbol :\$1;
#X msg 509 -31 symbol :\$1;
#X msg 585 -31 symbol :\$1;
#X obj 436 -75 f;
#X obj 507 -64 f;
#X obj 584 -82 f;
#X obj 436 -253 main-menu;
#X obj 462 -275 r \$0-mm;
#X obj 436 -302 r \$0-sm;
#X obj 436 -181 t b;
#X obj 664 -53 f;
#X msg 663 -29 symbol :\$1;
#N canvas 150 175 450 300 sm 0;
#X obj 109 64 r \$0-sm;
#X obj 109 102 sel;
#X obj 124 83 r \$0-sm1;
#X obj 75 170 outlet;
#X msg 108 123 1;
#X msg 135 123 0;
#X obj 75 149 spigot;
#X obj 75 37 inlet;
#X connect 0 0 1 0;
#X connect 1 0 4 0;
#X connect 1 1 5 0;
#X connect 2 0 1 1;
#X connect 4 0 6 1;
#X connect 5 0 6 1;
#X connect 6 0 3 0;
#X connect 7 0 6 0;
#X restore 436 -216 pd sm;
#N canvas 150 175 450 300 sm 0;
#X obj 109 64 r \$0-sm;
#X obj 109 102 sel;
#X obj 124 83 r \$0-sm1;
#X obj 75 170 outlet;
#X msg 108 123 1;
#X msg 135 123 0;
#X obj 75 149 spigot;
#X obj 75 37 inlet;
#X connect 0 0 1 0;
#X connect 1 0 4 0;
#X connect 1 1 5 0;
#X connect 2 0 1 1;
#X connect 4 0 6 1;
#X connect 5 0 6 1;
#X connect 6 0 3 0;
#X connect 7 0 6 0;
#X restore 146 -246 pd sm;
#X msg 147 -196 symbol ATTACK;
#X msg 167 -174 symbol DECAY;
#X msg 177 -146 symbol NOISE;
#X msg 237 -74 symbol;
#X msg 247 -46 symbol;
#X msg 267 -24 symbol;
#X obj 436 -123 r \$0-attack-s;
#X obj 497 -98 r \$0-decay-s;
#X obj 585 -130 r \$0-noise-s;
#X obj 664 -101 r \$0-hpass-s;
#X msg 197 -124 symbol HPASS;
#X msg 217 -96 symbol;
#X msg 742 -29 symbol;
#X msg 822 -27 symbol;
#X msg 902 -29 symbol;
#X msg 982 -28 symbol;
#X connect 0 0 20 0;
#X connect 0 0 21 0;
#X connect 0 0 22 0;
#X connect 0 0 30 0;
#X connect 0 0 31 0;
#X connect 0 0 23 0;
#X connect 0 0 24 0;
#X connect 0 0 25 0;
#X connect 2 0 19 0;
#X connect 3 0 2 1;
#X connect 4 0 2 0;
#X connect 6 0 5 0;
#X connect 7 0 5 1;
#X connect 8 0 5 2;
#X connect 9 0 6 0;
#X connect 10 0 7 0;
#X connect 11 0 8 0;
#X connect 12 0 18 0;
#X connect 13 0 12 1;
#X connect 14 0 12 0;
#X connect 15 0 9 0;
#X connect 15 0 10 0;
#X connect 15 0 11 0;
#X connect 15 0 16 0;
#X connect 15 0 32 0;
#X connect 15 0 33 0;
#X connect 15 0 34 0;
#X connect 15 0 35 0;
#X connect 16 0 17 0;
#X connect 17 0 5 3;
#X connect 18 0 15 0;
#X connect 19 0 0 0;
#X connect 20 0 1 0;
#X connect 21 0 1 1;
#X connect 22 0 1 2;
#X connect 23 0 1 5;
#X connect 24 0 1 6;
#X connect 25 0 1 7;
#X connect 26 0 9 0;
#X connect 27 0 10 0;
#X connect 28 0 11 0;
#X connect 29 0 16 0;
#X connect 30 0 1 3;
#X connect 31 0 1 4;
#X connect 32 0 5 4;
#X connect 33 0 5 5;
#X connect 34 0 5 6;
#X connect 35 0 5 7;
#X restore 21 71 pd push-display;
#X obj 400 72 s \$0-mm;
#X obj 399 122 s \$0-sm1;
#X text 513 93 The Submenu number of the subpatch;
#X obj 399 144 loadbang;
#X msg 399 164 1;
#X obj 399 183 s \$0-sm2;
#X obj 231 97 hradio 16 1 0 8 empty empty empty 0 -8 0 10 #fcfcfc #000000 #000000 0;
#X obj 231 34 r all-menu;
#X obj 231 74 route;
#X obj 258 53 r \$0-mm;
#X obj 231 198 s \$0-sm;
#X obj 400 29 r \$0-main-menu-s;
#X obj 400 50 + 1;
#X obj 399 94 r \$0-sub-menu-s;
#X connect 5 0 6 0;
#X connect 6 0 7 0;
#X connect 8 0 12 0;
#X connect 9 0 10 0;
#X connect 10 0 8 0;
#X connect 11 0 10 1;
#X connect 13 0 14 0;
#X connect 14 0 2 0;
#X connect 15 0 3 0;
#X restore 387 78 pd push-controll;
#X msg 776 84 1;
#X msg 749 124 \; pd-\$1options vis \$2;
#X obj 749 84 f \$0;
#X obj 749 103 pack f f;
#X obj 249 309 bng 10 250 50 0 \$0-options-button \$0-options-button-r OPTIONS -45 5 0 10 #fcfcfc #000000 #000000;
#X obj 749 65 t b b;
#X obj 749 46 r \$0-options-button;
#X text 747 21 Opens the Options-Subpatch:;
#N canvas 551 310 191 154 \$0options 0;
#X text 11 10 Ableton-Push-Interface:;
#X obj 15 50 hradio 16 1 0 8 \$0-main-menu-s \$0-main-menu-r Main-Menu 0 -8 0 10 #fcfcfc #000000 #000000 0;
#X obj 15 90 hradio 16 1 0 8 \$0-sub-menu-s \$0-sub-menu-r Sub-Menu 0 -8 0 10 #fcfcfc #000000 #000000 0;
#X restore 748 157 pd \$0options;
#X obj 69 850 *~;
#N canvas 0 22 462 312 rh_scalelog 0;
#X obj 20 155 exp;
#X obj 20 107 *;
#X obj 20 130 +;
#X obj 98 87 log;
#X obj 194 84 log;
#X obj 123 123 t b f;
#X obj 123 145 -;
#X obj 20 183 outlet;
#X obj 20 19 inlet;
#X obj 98 23 inlet;
#X obj 194 24 inlet;
#X connect 0 0 7 0;
#X connect 1 0 2 0;
#X connect 2 0 0 0;
#X connect 3 0 2 1;
#X connect 3 0 5 0;
#X connect 4 0 6 0;
#X connect 5 0 6 0;
#X connect 5 1 6 1;
#X connect 6 0 1 1;
#X connect 8 0 1 0;
#X connect 9 0 3 0;
#X connect 10 0 4 0;
#X restore 258 852 pd rh_scalelog;
#X msg 298 829 1;
#X obj 298 807 loadbang;
#X obj 224 591 / 127;
#X msg 339 830 0.6;
#X connect 0 0 1 0;
#X connect 1 0 53 0;
#X connect 2 0 52 0;
#X connect 3 0 4 0;
#X connect 4 0 2 1;
#X connect 7 0 8 0;
#X connect 8 0 52 1;
#X connect 9 0 10 0;
#X connect 10 0 52 1;
#X connect 11 0 12 0;
#X connect 12 0 52 1;
#X connect 13 0 52 1;
#X connect 14 0 13 0;
#X connect 27 0 33 0;
#X connect 33 0 52 2;
#X connect 34 0 35 0;
#X connect 35 0 27 0;
#X connect 35 1 49 0;
#X connect 35 2 36 0;
#X connect 35 3 37 0;
#X connect 36 0 33 0;
#X connect 37 0 33 0;
#X connect 49 0 33 0;
#X connect 52 0 104 0;
#X connect 54 0 56 0;
#X connect 56 0 57 0;
#X connect 57 0 55 0;
#X connect 61 0 60 0;
#X connect 62 0 60 1;
#X connect 64 0 5 0;
#X connect 66 0 15 0;
#X connect 66 0 108 0;
#X connect 67 0 17 0;
#X connect 68 0 19 0;
#X connect 75 0 76 0;
#X connect 75 1 76 1;
#X connect 76 0 77 0;
#X connect 76 1 2 0;
#X connect 78 0 75 0;
#X connect 80 0 33 0;
#X connect 81 0 82 0;
#X connect 82 0 80 0;
#X connect 83 0 84 0;
#X connect 84 0 80 1;
#X connect 84 0 93 0;
#X connect 85 0 86 0;
#X connect 86 0 80 2;
#X connect 86 0 93 0;
#X connect 87 0 88 0;
#X connect 88 0 80 3;
#X connect 88 0 93 0;
#X connect 89 0 90 0;
#X connect 90 0 80 4;
#X connect 90 0 93 0;
#X connect 91 0 92 0;
#X connect 92 0 80 5;
#X connect 92 0 93 0;
#X connect 93 0 80 0;
#X connect 95 0 98 1;
#X connect 97 0 98 0;
#X connect 98 0 96 0;
#X connect 100 0 97 0;
#X connect 100 1 95 0;
#X connect 101 0 100 0;
#X connect 104 0 0 0;
#X connect 105 0 104 1;
#X connect 106 0 105 1;
#X connect 107 0 106 0;
#X connect 107 0 109 0;
#X connect 108 0 105 0;
#X connect 109 0 105 2;
#X coords 0 -1 1 1 220 270 2 100 100;
