#N canvas 132 127 1160 686 10;
#X obj 13 638 outlet~;
#X obj 535 890 loadbang;
#X obj 740 552 hsl 60 10 0 1 0 0 \$0-a \$0-ra pitch -2 -7 0 10 #007c8c #fcfcfc #001488 0 1;
#X obj 269 465 hsl 60 10 0 1 0 0 \$0-b \$0-rb gain -2 -7 0 10 #007c8c #fcfcfc #001488 0 1;
#X obj 162 462 cnv 12 15 13 empty empty 0 1 6 0 12 #202020 #fcfcfc 0;
#X obj 249 462 cnv 12 15 13 empty empty 1 1 6 0 12 #202020 #fcfcfc 0;
#X obj 435 770 r \$0-values;
#X obj 511 791 list prepend add;
#X obj 639 792 list prepend mul;
#X text 118 40 outlet audio~;
#N canvas 47 74 1068 587 modulate.oOo..oOo..oOo.. 0;
#X obj 101 271 +;
#X obj 101 250 t b f;
#X obj 82 82 route 0 1 2 3 4 5 6 7;
#X obj 244 216 route 0 1 2 3 4 5 6 7;
#X obj 138 271 +;
#X obj 138 250 t b f;
#X obj 175 271 +;
#X obj 175 250 t b f;
#X obj 212 271 +;
#X obj 212 250 t b f;
#X obj 248 271 +;
#X obj 248 250 t b f;
#X obj 286 271 +;
#X obj 286 250 t b f;
#X obj 323 271 +;
#X obj 323 250 t b f;
#X obj 360 271 +;
#X obj 360 250 t b f;
#X obj 61 8 inlet;
#X obj 99 490 outlet;
#X obj 155 486 outlet;
#X obj 208 489 outlet;
#X obj 264 489 outlet;
#X obj 318 486 outlet;
#X obj 370 486 outlet;
#X obj 425 485 outlet;
#X obj 492 484 outlet;
#X obj 78 409 clip 0 1;
#X obj 132 411 clip 0 1;
#X obj 186 412 clip 0 1;
#X obj 240 414 clip 0 1;
#X obj 294 416 clip 0 1;
#X obj 348 418 clip 0 1;
#X obj 402 419 clip 0 1;
#X obj 456 421 clip 0 1;
#X obj 418 177 route add mul;
#X obj 117 332 t b f;
#X obj 156 335 t b f;
#X obj 193 335 t b f;
#X obj 230 335 t b f;
#X obj 266 335 t b f;
#X obj 304 335 t b f;
#X obj 341 335 t b f;
#X obj 378 335 t b f;
#X obj 118 356 * 1;
#X obj 156 356 * 1;
#X obj 193 356 * 1;
#X obj 231 355 * 1;
#X obj 266 356 * 1;
#X obj 304 356 * 1;
#X obj 341 356 * 1;
#X obj 378 356 * 1;
#X obj 397 275 route 0 1 2 3 4 5 6 7;
#X obj 550 262 +;
#X obj 550 241 t b f;
#X obj 587 262 +;
#X obj 587 241 t b f;
#X obj 624 262 +;
#X obj 624 241 t b f;
#X obj 661 262 +;
#X obj 661 241 t b f;
#X obj 697 262 +;
#X obj 697 241 t b f;
#X obj 735 262 +;
#X obj 735 241 t b f;
#X obj 772 262 +;
#X obj 772 241 t b f;
#X obj 809 262 +;
#X obj 809 241 t b f;
#X obj 548 481 outlet;
#X obj 604 477 outlet;
#X obj 657 480 outlet;
#X obj 713 480 outlet;
#X obj 767 477 outlet;
#X obj 819 477 outlet;
#X obj 874 476 outlet;
#X obj 941 475 outlet;
#X obj 527 400 clip 0 1;
#X obj 581 402 clip 0 1;
#X obj 635 403 clip 0 1;
#X obj 689 405 clip 0 1;
#X obj 743 407 clip 0 1;
#X obj 797 409 clip 0 1;
#X obj 851 410 clip 0 1;
#X obj 905 412 clip 0 1;
#X obj 867 168 route add mul;
#X obj 566 323 t b f;
#X obj 605 326 t b f;
#X obj 642 326 t b f;
#X obj 679 326 t b f;
#X obj 715 326 t b f;
#X obj 753 326 t b f;
#X obj 790 326 t b f;
#X obj 827 326 t b f;
#X obj 567 347 * 1;
#X obj 605 347 * 1;
#X obj 642 347 * 1;
#X obj 680 346 * 1;
#X obj 715 347 * 1;
#X obj 753 347 * 1;
#X obj 790 347 * 1;
#X obj 827 347 * 1;
#X obj 693 206 route 8 9 10 11 12 13 14 5;
#X obj 846 266 route 8 9 10 11 12 13 14 15;
#X msg 79 110 \$1 20;
#X msg 92 130 \$1 20;
#X msg 120 111 \$1 20;
#X msg 133 131 \$1 20;
#X msg 161 110 \$1 20;
#X msg 174 130 \$1 20;
#X msg 202 111 \$1 20;
#X msg 215 131 \$1 20;
#X obj 92 171 line 0 1;
#X obj 109 194 line 0 1;
#X obj 149 166 line 0 1;
#X obj 166 189 line 0 1;
#X obj 207 163 line 0 1;
#X obj 224 186 line 0 1;
#X obj 264 158 line 0 1;
#X obj 281 181 line 0 1;
#X msg 501 51 \$1 20;
#X msg 514 71 \$1 20;
#X msg 542 52 \$1 20;
#X msg 555 72 \$1 20;
#X msg 583 51 \$1 20;
#X msg 596 71 \$1 20;
#X msg 624 52 \$1 20;
#X msg 637 72 \$1 20;
#X obj 512 111 line 0 1;
#X obj 571 107 line 0 1;
#X obj 588 130 line 0 1;
#X obj 629 104 line 0 1;
#X obj 646 127 line 0 1;
#X obj 686 99 line 0 1;
#X obj 703 122 line 0 1;
#X obj 504 22 route 8 9 10 11 12 13 14 15;
#X obj 530 132 line 0 1;
#X obj 845 94 list trim;
#X obj 849 72 inlet;
#X connect 0 0 44 0;
#X connect 1 0 0 0;
#X connect 1 1 0 1;
#X connect 2 0 104 0;
#X connect 2 1 105 0;
#X connect 2 2 106 0;
#X connect 2 3 107 0;
#X connect 2 4 108 0;
#X connect 2 5 109 0;
#X connect 2 6 110 0;
#X connect 2 7 111 0;
#X connect 3 0 0 0;
#X connect 3 1 4 0;
#X connect 3 2 6 0;
#X connect 3 3 8 0;
#X connect 3 4 10 0;
#X connect 3 5 12 0;
#X connect 3 6 14 0;
#X connect 3 7 16 0;
#X connect 4 0 45 0;
#X connect 5 0 4 0;
#X connect 5 1 4 1;
#X connect 6 0 46 0;
#X connect 7 0 6 0;
#X connect 7 1 6 1;
#X connect 8 0 47 0;
#X connect 9 0 8 0;
#X connect 9 1 8 1;
#X connect 10 0 48 0;
#X connect 11 0 10 0;
#X connect 11 1 10 1;
#X connect 12 0 49 0;
#X connect 13 0 12 0;
#X connect 13 1 12 1;
#X connect 14 0 50 0;
#X connect 15 0 14 0;
#X connect 15 1 14 1;
#X connect 16 0 51 0;
#X connect 17 0 16 0;
#X connect 17 1 16 1;
#X connect 18 0 2 0;
#X connect 18 0 135 0;
#X connect 27 0 19 0;
#X connect 28 0 20 0;
#X connect 29 0 21 0;
#X connect 30 0 22 0;
#X connect 31 0 23 0;
#X connect 32 0 24 0;
#X connect 33 0 25 0;
#X connect 34 0 26 0;
#X connect 35 0 3 0;
#X connect 35 1 52 0;
#X connect 36 0 44 0;
#X connect 36 1 44 1;
#X connect 37 0 45 0;
#X connect 37 1 45 1;
#X connect 38 0 46 0;
#X connect 38 1 46 1;
#X connect 39 0 47 0;
#X connect 39 1 47 1;
#X connect 40 0 48 0;
#X connect 40 1 48 1;
#X connect 41 0 49 0;
#X connect 41 1 49 1;
#X connect 42 0 50 0;
#X connect 42 1 50 1;
#X connect 43 0 51 0;
#X connect 43 1 51 1;
#X connect 44 0 27 0;
#X connect 45 0 28 0;
#X connect 46 0 29 0;
#X connect 47 0 30 0;
#X connect 48 0 31 0;
#X connect 49 0 32 0;
#X connect 50 0 33 0;
#X connect 51 0 34 0;
#X connect 52 0 36 0;
#X connect 52 1 37 0;
#X connect 52 2 38 0;
#X connect 52 3 39 0;
#X connect 52 4 40 0;
#X connect 52 5 41 0;
#X connect 52 6 42 0;
#X connect 52 7 43 0;
#X connect 53 0 94 0;
#X connect 54 0 53 0;
#X connect 54 1 53 1;
#X connect 55 0 95 0;
#X connect 56 0 55 0;
#X connect 56 1 55 1;
#X connect 57 0 96 0;
#X connect 58 0 57 0;
#X connect 58 1 57 1;
#X connect 59 0 97 0;
#X connect 60 0 59 0;
#X connect 60 1 59 1;
#X connect 61 0 98 0;
#X connect 62 0 61 0;
#X connect 62 1 61 1;
#X connect 63 0 99 0;
#X connect 64 0 63 0;
#X connect 64 1 63 1;
#X connect 65 0 100 0;
#X connect 66 0 65 0;
#X connect 66 1 65 1;
#X connect 67 0 101 0;
#X connect 68 0 67 0;
#X connect 68 1 67 1;
#X connect 77 0 69 0;
#X connect 78 0 70 0;
#X connect 79 0 71 0;
#X connect 80 0 72 0;
#X connect 81 0 73 0;
#X connect 82 0 74 0;
#X connect 83 0 75 0;
#X connect 84 0 76 0;
#X connect 85 0 102 0;
#X connect 85 1 103 0;
#X connect 86 0 94 0;
#X connect 86 1 94 1;
#X connect 87 0 95 0;
#X connect 87 1 95 1;
#X connect 88 0 96 0;
#X connect 88 1 96 1;
#X connect 89 0 97 0;
#X connect 89 1 97 1;
#X connect 90 0 98 0;
#X connect 90 1 98 1;
#X connect 91 0 99 0;
#X connect 91 1 99 1;
#X connect 92 0 100 0;
#X connect 92 1 100 1;
#X connect 93 0 101 0;
#X connect 93 1 101 1;
#X connect 94 0 77 0;
#X connect 95 0 78 0;
#X connect 96 0 79 0;
#X connect 97 0 80 0;
#X connect 98 0 81 0;
#X connect 99 0 82 0;
#X connect 100 0 83 0;
#X connect 101 0 84 0;
#X connect 102 0 53 0;
#X connect 102 1 55 0;
#X connect 102 2 57 0;
#X connect 102 3 59 0;
#X connect 102 4 61 0;
#X connect 102 5 63 0;
#X connect 102 6 65 0;
#X connect 102 7 67 0;
#X connect 103 0 86 0;
#X connect 103 1 87 0;
#X connect 103 2 88 0;
#X connect 103 3 89 0;
#X connect 103 4 90 0;
#X connect 103 5 91 0;
#X connect 103 6 92 0;
#X connect 103 7 93 0;
#X connect 104 0 112 0;
#X connect 105 0 113 0;
#X connect 106 0 114 0;
#X connect 107 0 115 0;
#X connect 108 0 116 0;
#X connect 109 0 117 0;
#X connect 110 0 118 0;
#X connect 111 0 119 0;
#X connect 112 0 1 0;
#X connect 113 0 5 0;
#X connect 114 0 7 0;
#X connect 115 0 9 0;
#X connect 116 0 11 0;
#X connect 117 0 13 0;
#X connect 118 0 15 0;
#X connect 119 0 17 0;
#X connect 120 0 128 0;
#X connect 121 0 136 0;
#X connect 122 0 129 0;
#X connect 123 0 130 0;
#X connect 124 0 131 0;
#X connect 125 0 132 0;
#X connect 126 0 133 0;
#X connect 127 0 134 0;
#X connect 128 0 54 0;
#X connect 129 0 58 0;
#X connect 130 0 60 0;
#X connect 131 0 62 0;
#X connect 132 0 64 0;
#X connect 133 0 66 0;
#X connect 134 0 68 0;
#X connect 135 0 120 0;
#X connect 135 1 121 0;
#X connect 135 2 122 0;
#X connect 135 3 123 0;
#X connect 135 4 124 0;
#X connect 135 5 125 0;
#X connect 135 6 126 0;
#X connect 135 7 127 0;
#X connect 136 0 56 0;
#X connect 137 0 35 0;
#X connect 137 0 85 0;
#X connect 138 0 137 0;
#X restore 437 830 pd modulate.oOo..oOo..oOo..;
#X obj 17 -1 inlet;
#X text 112 26 inlets trigger \, control \, add \, multiply;
#N canvas 144 40 898 721 workings 0;
#X obj 242 19 vline~;
#X obj 242 40 *~;
#X obj 178 81 +~ 140;
#X obj 221 81 +~ 275;
#X obj 263 81 +~ 455;
#X obj 404 108 *~;
#X obj 382 -42 t b b;
#X obj 311 259 *~ 30;
#X obj 272 259 *~ 40;
#X obj 361 259 *~ 10;
#X obj 281 178 vcf~ 75;
#X obj 342 178 vcf~ 64;
#X obj 390 178 vcf~ 55;
#X obj 213 176 vcf~ 150;
#X obj 228 259 *~ 300;
#X obj 458 24 vline~;
#X obj 458 45 *~;
#X obj 471 70 *~;
#X obj 406 78 lop~ 1200;
#X obj 305 81 +~ 645;
#X obj 347 81 +~ 1155;
#X obj 409 259 *~ 7;
#X obj 438 178 vcf~ 45;
#X msg 241 -3 6 1 0 \, 0 100 1;
#X obj 332 479 outlet~;
#X obj 361 -136 inlet bang;
#X obj 556 140 switch~;
#X msg 551 75 1;
#X msg 582 75 0;
#X obj 641 71 sel 0;
#X obj 362 -78 t b b b;
#N canvas 0 22 741 549 noise 0;
#X obj 260 259 +~;
#X obj 261 281 wrap~;
#X obj 260 342 -~ 0.5;
#X obj 260 322 wrap~;
#X msg 327 146 0;
#X obj 258 166 phasor~ 0.01;
#X obj 292 217 *~ 6789;
#X obj 261 302 *~ 98765;
#X obj 260 399 outlet~;
#X obj 329 122 inlet;
#X obj 261 364 *~ 2;
#X obj 258 186 *~ 10000;
#X connect 0 0 1 0;
#X connect 1 0 7 0;
#X connect 2 0 10 0;
#X connect 3 0 2 0;
#X connect 4 0 5 1;
#X connect 5 0 11 0;
#X connect 6 0 0 1;
#X connect 7 0 3 0;
#X connect 9 0 4 0;
#X connect 10 0 8 0;
#X connect 11 0 0 0;
#X connect 11 0 6 0;
#X restore 363 11 pd noise;
#X obj 366 33 *~ 9.99999e+06;
#X obj 360 56 clip~ -0.5 0.5;
#X obj 323 343 *~;
#X msg 406 304 1 5;
#X obj 406 327 vline~;
#X obj 640 36 line 1 150;
#X obj 642 94 del 5;
#X msg 611 183 0 4;
#X obj 27 -44 * 140;
#X obj 68 -38 * 275;
#X obj 106 -28 * 455;
#X obj 148 -15 * 645;
#X obj 197 -9 * 1155;
#X obj 87 -147 r \$0-pitch;
#X obj 413 361 r \$0-gain;
#N canvas 0 22 462 312 rh_scalelog 0;
#X obj 20 155 exp;
#X obj 20 107 *;
#X obj 20 130 +;
#X obj 98 87 log;
#X obj 194 84 log;
#X obj 123 123 t b f;
#X obj 123 145 -;
#X obj 20 183 outlet;
#X obj 20 19 inlet;
#X obj 98 23 inlet;
#X obj 194 24 inlet;
#X connect 0 0 7 0;
#X connect 1 0 2 0;
#X connect 2 0 0 0;
#X connect 3 0 2 1;
#X connect 3 0 5 0;
#X connect 4 0 6 0;
#X connect 5 0 6 0;
#X connect 5 1 6 1;
#X connect 6 0 1 1;
#X connect 8 0 1 0;
#X connect 9 0 3 0;
#X connect 10 0 4 0;
#X restore 413 431 pd rh_scalelog;
#X msg 460 407 0.1;
#X msg 506 407 10;
#X obj 334 440 *~;
#X obj 89 -96 + 0.4;
#X obj 87 -120 * 0.6;
#X obj 307 315 *~ 1;
#X obj 460 379 r \$0-loadbang;
#X obj 491 -137 inlet;
#X obj 649 -137 inlet;
#X msg 641 14 1 0 \, 0 \$1;
#X obj 638 -25 f;
#X obj 289 -105 bng 16 250 50 0 empty empty empty 0 -8 0 10 #fcfcfc #000000 #000000;
#X msg 457 2 1 0 0 \, 0 \$1 1;
#X obj 471 -27 f;
#X floatatom 22 42 5 0 0 0 - - - 0;
#X obj 649 -115 * 10;
#X obj 491 -115 * 1;
#X connect 0 0 1 0;
#X connect 0 0 1 1;
#X connect 1 0 2 0;
#X connect 1 0 3 0;
#X connect 1 0 4 0;
#X connect 1 0 19 0;
#X connect 1 0 20 0;
#X connect 2 0 13 1;
#X connect 3 0 10 1;
#X connect 4 0 11 1;
#X connect 5 0 10 0;
#X connect 5 0 11 0;
#X connect 5 0 12 0;
#X connect 5 0 13 0;
#X connect 5 0 22 0;
#X connect 6 0 61 0;
#X connect 6 1 23 0;
#X connect 7 0 53 0;
#X connect 8 0 53 0;
#X connect 9 0 53 0;
#X connect 10 0 8 0;
#X connect 11 0 7 0;
#X connect 12 0 9 0;
#X connect 13 0 14 0;
#X connect 14 0 53 0;
#X connect 15 0 16 0;
#X connect 15 0 16 1;
#X connect 16 0 17 0;
#X connect 16 0 17 1;
#X connect 17 0 5 0;
#X connect 18 0 5 1;
#X connect 19 0 12 1;
#X connect 20 0 22 1;
#X connect 21 0 53 0;
#X connect 22 0 21 0;
#X connect 23 0 0 0;
#X connect 25 0 30 0;
#X connect 27 0 26 0;
#X connect 28 0 26 0;
#X connect 29 0 38 0;
#X connect 29 0 39 0;
#X connect 30 0 31 0;
#X connect 30 0 35 0;
#X connect 30 0 58 0;
#X connect 30 1 6 0;
#X connect 30 2 27 0;
#X connect 31 0 32 0;
#X connect 32 0 33 0;
#X connect 33 0 18 0;
#X connect 34 0 50 0;
#X connect 35 0 36 0;
#X connect 36 0 34 1;
#X connect 37 0 29 0;
#X connect 38 0 28 0;
#X connect 39 0 36 0;
#X connect 40 0 2 1;
#X connect 41 0 3 1;
#X connect 42 0 4 1;
#X connect 43 0 19 1;
#X connect 44 0 20 1;
#X connect 45 0 52 0;
#X connect 46 0 47 0;
#X connect 47 0 50 1;
#X connect 48 0 47 1;
#X connect 49 0 47 2;
#X connect 50 0 24 0;
#X connect 51 0 40 0;
#X connect 51 0 41 0;
#X connect 51 0 42 0;
#X connect 51 0 43 0;
#X connect 51 0 44 0;
#X connect 51 0 62 0;
#X connect 52 0 51 0;
#X connect 53 0 34 0;
#X connect 54 0 48 0;
#X connect 54 0 49 0;
#X connect 55 0 64 0;
#X connect 56 0 63 0;
#X connect 57 0 37 0;
#X connect 58 0 57 0;
#X connect 59 0 30 0;
#X connect 60 0 15 0;
#X connect 61 0 60 0;
#X connect 63 0 58 1;
#X connect 64 0 61 1;
#X restore 15 531 pd workings;
#X obj 510 873 s \$0-gain;
#X msg 451 949 pitch gain;
#X obj 438 873 s \$0-pitch;
#X msg 541 962 0.49 0.49;
#X text 1032 234 ichabod@gmail.com;
#X text 1021 193 originally;
#N canvas 361 43 829 678 list-functions 0;
#N canvas 0 22 462 312 list-enumerate 0;
#X obj 107 63 t a b;
#N canvas 473 338 454 304 count 0;
#X obj 131 154 f 0;
#X obj 156 153 + 1;
#X msg 147 133 0;
#X obj 131 183 outlet;
#X obj 131 59 inlet;
#X obj 131 96 b;
#X obj 178 61 inlet;
#X obj 178 98 b;
#X connect 0 0 1 0;
#X connect 0 0 3 0;
#X connect 1 0 0 1;
#X connect 2 0 0 1;
#X connect 4 0 5 0;
#X connect 5 0 0 0;
#X connect 6 0 7 0;
#X connect 7 0 2 0;
#X restore 186 155 pd count;
#X obj 107 113 t a b;
#X obj 107 33 inlet;
#X obj 107 181 list prepend;
#X obj 107 209 outlet;
#X obj 165 209 outlet;
#N canvas 0 22 537 411 drip 0;
#X obj 64 206 list split 1;
#X obj 64 123 until;
#X obj 64 181 list append;
#X obj 194 206 bang;
#X text 146 90 First store list \, then start the loop;
#X text 163 118 "until" bangs its output until told to stop by a "bang" to its right inlet.;
#X text 182 160 Store the remaining list.;
#X text 239 205 third outlet of "split" tells us to stop.;
#X obj 64 243 outlet;
#X obj 64 57 inlet;
#X text 237 44 From list-help.pd;
#X obj 143 243 outlet;
#X obj 64 86 t b a;
#X connect 0 0 8 0;
#X connect 0 1 2 1;
#X connect 0 2 3 0;
#X connect 0 2 11 0;
#X connect 1 0 2 0;
#X connect 2 0 0 0;
#X connect 3 0 1 1;
#X connect 9 0 12 0;
#X connect 12 0 1 0;
#X connect 12 1 2 1;
#X restore 110 88 pd drip;
#X obj 76 154 list prepend label;
#X connect 0 0 7 0;
#X connect 0 1 1 1;
#X connect 1 0 4 1;
#X connect 2 0 8 0;
#X connect 2 1 1 0;
#X connect 3 0 0 0;
#X connect 4 0 5 0;
#X connect 7 0 2 0;
#X connect 7 1 6 0;
#X connect 8 0 4 0;
#X restore 37 184 pd list-enumerate;
#X obj 37 230 s \$0-controls;
#N canvas 0 22 482 332 list-enumerate 0;
#N canvas 473 338 458 308 count 0;
#X obj 131 154 f 0;
#X obj 156 153 + 1;
#X msg 147 133 0;
#X obj 131 183 outlet;
#X obj 131 59 inlet;
#X obj 131 96 b;
#X obj 178 61 inlet;
#X obj 178 98 b;
#X connect 0 0 1 0;
#X connect 0 0 3 0;
#X connect 1 0 0 1;
#X connect 2 0 0 1;
#X connect 4 0 5 0;
#X connect 5 0 0 0;
#X connect 6 0 7 0;
#X connect 7 0 2 0;
#X restore 186 155 pd count;
#X obj 107 113 t a b;
#X obj 107 33 inlet;
#X obj 107 181 list prepend;
#X obj 112 253 outlet;
#N canvas 0 22 541 415 drip 0;
#X obj 64 206 list split 1;
#X obj 64 123 until;
#X obj 64 181 list append;
#X obj 194 206 bang;
#X text 146 90 First store list \, then start the loop;
#X text 163 118 "until" bangs its output until told to stop by a "bang" to its right inlet.;
#X text 182 160 Store the remaining list.;
#X text 239 205 third outlet of "split" tells us to stop.;
#X obj 64 243 outlet;
#X obj 64 57 inlet;
#X text 237 44 From list-help.pd;
#X obj 143 243 outlet;
#X obj 64 86 t b a;
#X connect 0 0 8 0;
#X connect 0 1 2 1;
#X connect 0 2 3 0;
#X connect 0 2 11 0;
#X connect 1 0 2 0;
#X connect 2 0 0 0;
#X connect 3 0 1 1;
#X connect 9 0 12 0;
#X connect 12 0 1 0;
#X connect 12 1 2 1;
#X restore 110 88 pd drip;
#X obj 107 63 t a b;
#X connect 0 0 3 1;
#X connect 1 0 3 0;
#X connect 1 1 0 0;
#X connect 2 0 6 0;
#X connect 3 0 4 0;
#X connect 5 0 1 0;
#X connect 6 0 5 0;
#X connect 6 1 0 1;
#X restore 149 183 pd list-enumerate;
#N canvas 0 22 498 348 list-enumerate 0;
#N canvas 473 338 458 308 count 0;
#X obj 131 154 f 0;
#X obj 156 153 + 1;
#X msg 147 133 0;
#X obj 131 183 outlet;
#X obj 131 59 inlet;
#X obj 131 96 b;
#X obj 178 61 inlet;
#X obj 178 98 b;
#X connect 0 0 1 0;
#X connect 0 0 3 0;
#X connect 1 0 0 1;
#X connect 2 0 0 1;
#X connect 4 0 5 0;
#X connect 5 0 0 0;
#X connect 6 0 7 0;
#X connect 7 0 2 0;
#X restore 186 155 pd count;
#X obj 107 113 t a b;
#X obj 107 33 inlet;
#X obj 107 181 list prepend;
#X obj 112 253 outlet;
#N canvas 0 22 541 415 drip 0;
#X obj 64 206 list split 1;
#X obj 64 123 until;
#X obj 64 181 list append;
#X obj 194 206 bang;
#X text 146 90 First store list \, then start the loop;
#X text 163 118 "until" bangs its output until told to stop by a "bang" to its right inlet.;
#X text 182 160 Store the remaining list.;
#X text 239 205 third outlet of "split" tells us to stop.;
#X obj 64 243 outlet;
#X obj 64 57 inlet;
#X text 237 44 From list-help.pd;
#X obj 143 243 outlet;
#X obj 64 86 t b a;
#X connect 0 0 8 0;
#X connect 0 1 2 1;
#X connect 0 2 3 0;
#X connect 0 2 11 0;
#X connect 1 0 2 0;
#X connect 2 0 0 0;
#X connect 3 0 1 1;
#X connect 9 0 12 0;
#X connect 12 0 1 0;
#X connect 12 1 2 1;
#X restore 110 88 pd drip;
#X obj 194 215 t a;
#X obj 106 209 list prepend;
#X obj 107 63 t a b b;
#X connect 0 0 3 1;
#X connect 1 0 3 0;
#X connect 1 1 0 0;
#X connect 2 0 8 0;
#X connect 3 0 7 0;
#X connect 5 0 1 0;
#X connect 6 0 7 1;
#X connect 7 0 6 0;
#X connect 7 0 4 0;
#X connect 8 0 5 0;
#X connect 8 1 0 1;
#X connect 8 2 7 1;
#X restore 411 149 pd list-enumerate;
#X obj 104 251 r \$0-controls;
#X obj 272 98 r \$0-values;
#N canvas 283 65 551 703 replacelist 0;
#X obj 164 224 list;
#X obj 327 98 inlet;
#X obj 250 98 inlet;
#X text 331 72 orig;
#X text 256 74 pos;
#X text 77 70 list to insert;
#X obj 85 94 inlet;
#X obj 207 281 list split;
#X obj 85 526 list;
#X obj 85 598 outlet;
#X obj 85 317 list prepend;
#X obj 85 120 t a b a b;
#X obj 85 430 list prepend 0;
#X obj 250 125 t f f;
#X obj 207 524 list prepend;
#X obj 85 469 route 0 1;
#X obj 316 347 f;
#X obj 286 282 t a b;
#X obj 316 377 > 0;
#X obj 122 358 r \$0-init;
#X obj 122 377 0;
#X obj 300 524 r \$0-init;
#X obj 176 317 r \$0-init;
#X obj 118 527 r \$0-init;
#X obj 159 131 s \$0-init;
#X text 47 25 list-replace: Replace the list starting at position POS with a new list \, overwriting the old elements.;
#N canvas 0 22 458 308 length 0;
#X obj 171 164 + 1;
#X obj 92 127 b;
#X obj 126 204 f;
#X obj 158 138 1;
#X obj 142 166 f 1;
#X obj 216 168 0;
#X obj 136 59 t a b b;
#N canvas 0 22 537 411 drip 0;
#X obj 64 206 list split 1;
#X obj 64 123 until;
#X obj 64 181 list append;
#X obj 194 206 bang;
#X text 146 90 First store list \, then start the loop;
#X text 163 118 "until" bangs its output until told to stop by a "bang" to its right inlet.;
#X text 182 160 Store the remaining list.;
#X text 239 205 third outlet of "split" tells us to stop.;
#X obj 64 243 outlet;
#X obj 64 57 inlet;
#X text 237 44 From list-help.pd;
#X obj 143 243 outlet;
#X obj 64 86 t b a;
#X connect 0 0 8 0;
#X connect 0 1 2 1;
#X connect 0 2 3 0;
#X connect 0 2 11 0;
#X connect 1 0 2 0;
#X connect 2 0 0 0;
#X connect 3 0 1 1;
#X connect 9 0 12 0;
#X connect 12 0 1 0;
#X connect 12 1 2 1;
#X restore 92 104 pd drip;
#X obj 137 36 inlet;
#X obj 125 238 outlet;
#X connect 0 0 4 1;
#X connect 1 0 4 0;
#X connect 2 0 9 0;
#X connect 3 0 4 1;
#X connect 4 0 0 0;
#X connect 4 0 2 1;
#X connect 5 0 2 1;
#X connect 6 0 7 0;
#X connect 6 1 3 0;
#X connect 6 2 5 0;
#X connect 7 0 1 0;
#X connect 7 1 2 0;
#X connect 8 0 6 0;
#X restore 268 216 pd length;
#X obj 162 254 list split;
#X connect 0 0 27 0;
#X connect 1 0 0 1;
#X connect 2 0 13 0;
#X connect 6 0 11 0;
#X connect 7 1 8 1;
#X connect 7 1 14 1;
#X connect 8 0 9 0;
#X connect 10 0 12 0;
#X connect 11 0 10 0;
#X connect 11 1 0 0;
#X connect 11 2 26 0;
#X connect 11 3 24 0;
#X connect 12 0 15 0;
#X connect 13 0 27 1;
#X connect 13 1 16 1;
#X connect 14 0 9 0;
#X connect 15 0 8 0;
#X connect 15 1 14 0;
#X connect 16 0 18 0;
#X connect 17 0 14 1;
#X connect 17 0 8 1;
#X connect 17 1 16 0;
#X connect 18 0 12 1;
#X connect 19 0 20 0;
#X connect 20 0 12 1;
#X connect 21 0 14 1;
#X connect 22 0 10 1;
#X connect 23 0 8 1;
#X connect 26 0 7 1;
#X connect 27 0 10 1;
#X connect 27 1 7 0;
#X connect 27 2 17 0;
#X restore 289 199 pd replacelist;
#X obj 423 265 t a;
#X obj 272 130 swap;
#X obj 50 109 inlet;
#N canvas 0 22 545 419 drip2 0;
#X obj 64 123 until;
#X obj 64 181 list append;
#X obj 194 206 bang;
#X text 146 90 First store list \, then start the loop;
#X text 163 118 "until" bangs its output until told to stop by a "bang" to its right inlet.;
#X text 182 160 Store the remaining list.;
#X text 239 205 third outlet of "split" tells us to stop.;
#X obj 64 243 outlet;
#X obj 64 57 inlet;
#X text 237 44 From list-help.pd;
#X obj 143 243 outlet;
#X obj 64 86 t b a;
#X obj 64 206 list split 2;
#X connect 0 0 1 0;
#X connect 1 0 12 0;
#X connect 2 0 0 1;
#X connect 8 0 11 0;
#X connect 11 0 0 0;
#X connect 11 1 1 1;
#X connect 12 0 7 0;
#X connect 12 1 1 1;
#X connect 12 2 2 0;
#X connect 12 2 10 0;
#X restore 190 285 pd drip2;
#X obj 253 24 inlet;
#X obj 144 355 route 0 1 2 3 4 5 6 7 8 9 10 11 12 13 14 15;
#X obj 144 381 s \$0-ra;
#X obj 156 401 s \$0-rb;
#X obj 167 422 s \$0-rc;
#X obj 179 442 s \$0-rd;
#X obj 194 381 s \$0-re;
#X obj 206 401 s \$0-rf;
#X obj 217 422 s \$0-rg;
#X obj 229 442 s \$0-rh;
#X obj 250 383 s \$0-ri;
#X obj 262 403 s \$0-rj;
#X obj 273 424 s \$0-rk;
#X obj 285 444 s \$0-rl;
#X obj 299 383 s \$0-rm;
#X obj 312 403 s \$0-rn;
#X obj 323 424 s \$0-ro;
#X obj 335 444 s \$0-rp;
#X obj 35 505 r \$0-a;
#X msg 35 530 0 \$1;
#X obj 78 505 r \$0-b;
#X msg 77 529 1 \$1;
#X obj 121 505 r \$0-c;
#X obj 164 505 r \$0-d;
#X msg 121 530 2 \$1;
#X msg 163 529 3 \$1;
#X obj 208 503 r \$0-e;
#X obj 251 503 r \$0-f;
#X obj 294 503 r \$0-g;
#X obj 337 503 r \$0-h;
#X msg 208 528 4 \$1;
#X msg 250 526 5 \$1;
#X msg 294 527 6 \$1;
#X msg 336 527 7 \$1;
#X obj 383 503 r \$0-i;
#X obj 426 502 r \$0-j;
#X obj 468 503 r \$0-k;
#X obj 512 503 r \$0-l;
#X obj 556 501 r \$0-m;
#X obj 599 501 r \$0-o;
#X obj 642 501 r \$0-p;
#X obj 685 501 r \$0-q;
#X msg 383 528 8 \$1;
#X msg 425 527 9 \$1;
#X msg 469 528 10 \$1;
#X msg 511 527 11 \$1;
#X msg 556 526 12 \$1;
#X msg 598 524 13 \$1;
#X msg 641 525 14 \$1;
#X msg 684 525 15 \$1;
#X obj 683 559 s \$0-values;
#X obj 413 202 t a a;
#X obj 412 182 list;
#X obj 257 47 t a b a;
#X obj 294 150 * 2;
#X obj 295 170 + 1;
#X obj 191 253 t a a;
#X connect 0 0 1 0;
#X connect 2 0 1 0;
#X connect 3 0 63 1;
#X connect 4 0 12 0;
#X connect 5 0 8 0;
#X connect 6 0 7 0;
#X connect 7 0 6 2;
#X connect 8 0 6 0;
#X connect 8 1 65 0;
#X connect 9 0 0 0;
#X connect 10 0 12 0;
#X connect 11 0 64 0;
#X connect 12 0 13 0;
#X connect 12 1 14 0;
#X connect 12 2 15 0;
#X connect 12 3 16 0;
#X connect 12 4 17 0;
#X connect 12 5 18 0;
#X connect 12 6 19 0;
#X connect 12 7 20 0;
#X connect 12 8 21 0;
#X connect 12 9 22 0;
#X connect 12 10 23 0;
#X connect 12 11 24 0;
#X connect 12 12 25 0;
#X connect 12 13 26 0;
#X connect 12 14 27 0;
#X connect 12 15 28 0;
#X connect 29 0 30 0;
#X connect 30 0 61 0;
#X connect 31 0 32 0;
#X connect 32 0 61 0;
#X connect 33 0 35 0;
#X connect 34 0 36 0;
#X connect 35 0 61 0;
#X connect 36 0 61 0;
#X connect 37 0 41 0;
#X connect 38 0 42 0;
#X connect 39 0 43 0;
#X connect 40 0 44 0;
#X connect 41 0 61 0;
#X connect 42 0 61 0;
#X connect 43 0 61 0;
#X connect 44 0 61 0;
#X connect 45 0 53 0;
#X connect 46 0 54 0;
#X connect 47 0 55 0;
#X connect 48 0 56 0;
#X connect 49 0 57 0;
#X connect 50 0 58 0;
#X connect 51 0 59 0;
#X connect 52 0 60 0;
#X connect 53 0 61 0;
#X connect 54 0 61 0;
#X connect 55 0 61 0;
#X connect 56 0 61 0;
#X connect 57 0 61 0;
#X connect 58 0 61 0;
#X connect 59 0 61 0;
#X connect 60 0 61 0;
#X connect 62 0 6 2;
#X connect 63 0 62 0;
#X connect 64 0 2 0;
#X connect 64 1 63 0;
#X connect 64 2 3 0;
#X connect 65 0 66 0;
#X connect 66 0 6 1;
#X connect 67 0 10 0;
#X connect 67 1 6 2;
#X restore 452 982 pd list-functions;
#X text 1013 211 by stefan "ichabod";
#X obj 538 912 t b b;
#X obj 564 938 s \$0-loadbang;
#X obj 129 130 hsl 128 15 0 127 0 1 \$0-decay1-s \$0-decay1-r DECAY1 133 7 0 10 #fcfcfc #000000 #000000 1300 1;
#X obj 132 158 hsl 128 15 0 127 0 1 \$0-decay2-s \$0-decay2-r DECAY2 133 7 0 10 #ffffff #000000 #000000 6100 1;
#N canvas 514 62 926 752 state-saving-multiple-instances 0;
#X obj 469 -15 loadbang;
#X obj 501 416 textfile;
#X msg 813 259 rewind;
#X msg 770 259 bang;
#X obj 109 691 textfile;
#X obj 770 220 t b b;
#X obj 110 357 f;
#X obj 123 470 f;
#X obj 48 403 t b b b;
#X msg 41 579 clear;
#X obj 527 204 outlet;
#X text 523 224 INSTANCE NUMBER;
#X obj 488 139 f \$1;
#X obj 488 175 t f f f;
#X obj 48 378 bng 15 250 50 0 empty empty empty 17 7 0 10 #fcfcfc #000000 #000000;
#X obj 48 274 r SAVE-S;
#X msg 110 438 set \$1 \$2 \$3 \$4 \$5 \$6 \$7 \$8 \$9 \$10 \$11 \$12;
#X obj 110 400 pack f f f f f f f f f f f f;
#X obj 501 438 unpack f f f f f f f f f f f f;
#X obj 523 -14 r \$0-reload!;
#X obj 170 116 r \$0-decay-cv-s;
#X obj 192 139 r \$0-noise-s;
#X obj 209 163 r \$0-noise-cv-s;
#X obj 222 187 r \$0-hpass-s;
#X obj 233 214 r \$0-hpass-cv-s;
#X obj 549 593 s \$0-decay-cv-r;
#X obj 566 575 s \$0-noise-r;
#X obj 582 556 s \$0-noise-cv-r;
#X obj 597 538 s \$0-hpass-r;
#X obj 614 518 s \$0-hpass-cv-r;
#X msg 122 651 write statesave/\$1-CMBCYM-ss.txt;
#X obj 557 300 r patch-path;
#X obj 512 319 pack f s;
#X obj 501 273 f;
#X obj 501 294 t b f;
#X obj 469 18 t b b b;
#X obj 508 45 s update-path;
#X msg 501 359 read /Users/johannklug/Documents/Bass\ Dieter/2025/Diet/MODULAR_LIVE_\ PERFORMER/preset_projects/MOLIPE_DRUMS/statesave/0-tom-ss.txt;
#X obj 387 37 bng 16 250 50 0 empty empty empty 0 -8 0 10 #fcfcfc #000000 #000000;
#X obj 180 525 r patch-path;
#X obj 135 544 pack f s;
#X obj 124 498 f;
#X obj 124 519 t b f;
#X msg 124 584 write /Users/johannklug/Documents/Bass\ Dieter/2025/Diet/MODULAR_LIVE_\ PERFORMER/patch1/statesave/0-tom-ss.txt;
#X obj 105 51 r \$0-decay1-s;
#X obj 147 95 r \$0-pitch-s;
#X obj 501 652 s \$0-decay1-r;
#X obj 516 633 s \$0-decay2-r;
#X obj 532 613 s \$0-pitch-r;
#X msg 135 563 set write \$2/statesave/\$1-tom-ss.txt;
#X msg 512 338 set read \$2/statesave/\$1-tom-ss.txt;
#X obj 124 74 r \$0-decay2-s;
#X obj 247 247 r \$0-main-menu-s;
#X obj 259 274 r \$0-sub-menu-s;
#X obj 629 497 s \$0-main-menu-r;
#X obj 644 473 s \$0-sub-menu-r;
#X connect 0 0 35 0;
#X connect 1 0 18 0;
#X connect 2 0 1 0;
#X connect 3 0 1 0;
#X connect 5 0 3 0;
#X connect 5 1 2 0;
#X connect 6 0 17 0;
#X connect 8 0 7 0;
#X connect 8 0 41 0;
#X connect 8 1 6 0;
#X connect 8 2 9 0;
#X connect 9 0 4 0;
#X connect 12 0 13 0;
#X connect 13 0 7 1;
#X connect 13 0 41 1;
#X connect 13 1 33 0;
#X connect 13 2 10 0;
#X connect 14 0 8 0;
#X connect 15 0 14 0;
#X connect 16 0 4 0;
#X connect 17 0 16 0;
#X connect 18 0 46 0;
#X connect 18 1 47 0;
#X connect 18 2 48 0;
#X connect 18 3 25 0;
#X connect 18 4 26 0;
#X connect 18 5 27 0;
#X connect 18 6 28 0;
#X connect 18 7 29 0;
#X connect 18 8 54 0;
#X connect 18 9 55 0;
#X connect 19 0 35 0;
#X connect 20 0 17 3;
#X connect 21 0 17 4;
#X connect 22 0 17 5;
#X connect 23 0 17 6;
#X connect 24 0 17 7;
#X connect 30 0 4 0;
#X connect 31 0 32 1;
#X connect 32 0 50 0;
#X connect 33 0 34 0;
#X connect 34 0 37 0;
#X connect 34 1 32 0;
#X connect 35 0 5 0;
#X connect 35 1 12 0;
#X connect 35 2 36 0;
#X connect 37 0 1 0;
#X connect 38 0 35 0;
#X connect 39 0 40 1;
#X connect 40 0 49 0;
#X connect 41 0 42 0;
#X connect 42 0 43 0;
#X connect 42 1 40 0;
#X connect 43 0 4 0;
#X connect 44 0 6 1;
#X connect 45 0 17 2;
#X connect 49 0 43 0;
#X connect 50 0 37 0;
#X connect 51 0 17 1;
#X connect 52 0 17 8;
#X connect 53 0 17 9;
#X restore 363 154 pd state-saving-multiple-instances;
#X obj 363 226 s \$0-instance-num;
#X obj 363 178 makefilename %d;
#X msg 363 203 label \$1;
#N canvas 81 25 1117 745 state-saving-via-preset-manager-module 1;
#X obj 478 210 textfile;
#X msg 756 193 rewind;
#X msg 713 193 bang;
#X obj 243 690 textfile;
#X obj 713 154 t b b;
#X obj 116 230 f;
#X obj 257 579 f;
#X obj 190 474 t b b b;
#X msg 373 621 clear;
#X obj 116 54 delay 5;
#X obj 190 529 delay 10;
#X msg 62 188 bang;
#X obj 62 29 r STORE-S!;
#X obj 478 111 f;
#X obj 451 68 t b b;
#X obj 466 32 t b f;
#X obj 523 129 f \$1;
#X obj 478 156 pack f f;
#X obj 523 79 loadbang;
#X obj 257 609 pack f f;
#X obj 302 562 loadbang;
#X obj 302 584 f \$1;
#X obj 466 -32 r preset-manager-scan;
#X obj 272 540 r preset-manager-store-slot;
#X obj 466 -10 i;
#X msg 256 650 write statesave/\$1-\$2-kick-ss.txt;
#X msg 478 185 read statesave/\$1-\$2-kick-ss.txt;
#X obj 205 -8 r \$0-kick-pitch-s;
#X obj 213 15 r \$0-kick-decay-s;
#X obj 236 36 r \$0-kick-envmod-s;
#X obj 259 57 r \$0-kick-sweep-s;
#X obj 300 81 r \$0-kick-wform-s;
#X obj 308 104 r \$0-flam-s;
#X obj 321 128 r \$0-flam-prob-s;
#X obj 332 155 r \$0-acc-prob-s;
#X obj 345 183 r \$0-acc-level-s;
#X obj 362 211 r \$0-drive-s;
#X obj 360 248 r \$0-tone-s;
#X obj 385 278 r \$0-load-s;
#X msg 199 379 set \$1 \$2 \$3 \$4 \$5 \$6 \$7 \$8 \$9 \$10 \$11 \$12;
#X obj 199 341 pack f f f f f f f f f f f f;
#X obj 480 254 unpack f f f f f f f f f f f f;
#X obj 483 743 s \$0-basic-osc-pitch-r;
#N canvas 0 22 1069 747 morph-parameters 0;
#X obj 176 94 inlet;
#X obj 176 236 pack f f;
#X obj 176 261 line;
#X obj 209 117 r preset-manager-morph-s;
#X msg 72 244 stop;
#X obj 72 214 r STOP-MORPH!;
#X obj 209 206 spigot;
#X obj 398 137 t f f;
#X obj 455 154 == 0;
#X obj 221 176 f;
#X floatatom 455 222 5 0 0 0 - - - 0;
#X obj 398 159 t b f;
#X floatatom 425 192 5 0 0 0 - - - 0;
#X obj 209 139 t f f;
#X obj 398 102 r parameters-s;
#X obj 176 288 outlet;
#X connect 0 0 1 0;
#X connect 1 0 2 0;
#X connect 2 0 15 0;
#X connect 3 0 13 0;
#X connect 4 0 2 0;
#X connect 5 0 4 0;
#X connect 6 0 1 1;
#X connect 7 0 11 0;
#X connect 7 1 8 0;
#X connect 8 0 10 0;
#X connect 9 0 6 0;
#X connect 10 0 1 1;
#X connect 11 0 9 0;
#X connect 11 1 12 0;
#X connect 12 0 6 1;
#X connect 13 0 6 0;
#X connect 13 1 9 1;
#X connect 14 0 7 0;
#X restore 502 669 pd morph-parameters;
#N canvas 0 22 1069 747 morph-attenuators 0;
#X obj 176 94 inlet;
#X obj 176 236 pack f f;
#X obj 176 261 line;
#X obj 209 117 r preset-manager-morph-s;
#X msg 72 244 stop;
#X obj 72 214 r STOP-MORPH!;
#X obj 209 206 spigot;
#X obj 398 137 t f f;
#X obj 455 154 == 0;
#X obj 221 176 f;
#X floatatom 455 222 5 0 0 0 - - - 0;
#X obj 398 159 t b f;
#X floatatom 425 192 5 0 0 0 - - - 0;
#X obj 209 139 t f f;
#X obj 398 102 r attenuators-s;
#X obj 176 288 outlet;
#X connect 0 0 1 0;
#X connect 1 0 2 0;
#X connect 2 0 15 0;
#X connect 3 0 13 0;
#X connect 4 0 2 0;
#X connect 5 0 4 0;
#X connect 6 0 1 1;
#X connect 7 0 11 0;
#X connect 7 1 8 0;
#X connect 8 0 10 0;
#X connect 9 0 6 0;
#X connect 10 0 1 1;
#X connect 11 0 9 0;
#X connect 11 1 12 0;
#X connect 12 0 6 1;
#X connect 13 0 6 0;
#X connect 13 1 9 1;
#X connect 14 0 7 0;
#X restore 611 338 pd morph-attenuators;
#X obj 502 692 s \$0-kick-decay-r;
#N canvas 0 22 1069 747 morph-parameters 0;
#X obj 176 94 inlet;
#X obj 176 236 pack f f;
#X obj 176 261 line;
#X obj 209 117 r preset-manager-morph-s;
#X msg 72 244 stop;
#X obj 72 214 r STOP-MORPH!;
#X obj 209 206 spigot;
#X obj 398 137 t f f;
#X obj 455 154 == 0;
#X obj 221 176 f;
#X floatatom 455 222 5 0 0 0 - - - 0;
#X obj 398 159 t b f;
#X floatatom 425 192 5 0 0 0 - - - 0;
#X obj 209 139 t f f;
#X obj 398 102 r parameters-s;
#X obj 176 288 outlet;
#X connect 0 0 1 0;
#X connect 1 0 2 0;
#X connect 2 0 15 0;
#X connect 3 0 13 0;
#X connect 4 0 2 0;
#X connect 5 0 4 0;
#X connect 6 0 1 1;
#X connect 7 0 11 0;
#X connect 7 1 8 0;
#X connect 8 0 10 0;
#X connect 9 0 6 0;
#X connect 10 0 1 1;
#X connect 11 0 9 0;
#X connect 11 1 12 0;
#X connect 12 0 6 1;
#X connect 13 0 6 0;
#X connect 13 1 9 1;
#X connect 14 0 7 0;
#X restore 521 619 pd morph-parameters;
#X obj 521 642 s \$0-kick-envmod-r;
#N canvas 0 22 1069 747 morph-parameters 0;
#X obj 176 94 inlet;
#X obj 176 236 pack f f;
#X obj 176 261 line;
#X obj 209 117 r preset-manager-morph-s;
#X msg 72 244 stop;
#X obj 72 214 r STOP-MORPH!;
#X obj 209 206 spigot;
#X obj 398 137 t f f;
#X obj 455 154 == 0;
#X obj 221 176 f;
#X floatatom 455 222 5 0 0 0 - - - 0;
#X obj 398 159 t b f;
#X floatatom 425 192 5 0 0 0 - - - 0;
#X obj 209 139 t f f;
#X obj 398 102 r parameters-s;
#X obj 176 288 outlet;
#X connect 0 0 1 0;
#X connect 1 0 2 0;
#X connect 2 0 15 0;
#X connect 3 0 13 0;
#X connect 4 0 2 0;
#X connect 5 0 4 0;
#X connect 6 0 1 1;
#X connect 7 0 11 0;
#X connect 7 1 8 0;
#X connect 8 0 10 0;
#X connect 9 0 6 0;
#X connect 10 0 1 1;
#X connect 11 0 9 0;
#X connect 11 1 12 0;
#X connect 12 0 6 1;
#X connect 13 0 6 0;
#X connect 13 1 9 1;
#X connect 14 0 7 0;
#X restore 540 568 pd morph-parameters;
#X obj 540 591 s \$0-kick-sweep-r;
#N canvas 0 22 1069 747 morph-parameters 0;
#X obj 176 94 inlet;
#X obj 176 236 pack f f;
#X obj 176 261 line;
#X obj 209 117 r preset-manager-morph-s;
#X msg 72 244 stop;
#X obj 72 214 r STOP-MORPH!;
#X obj 209 206 spigot;
#X obj 398 137 t f f;
#X obj 455 154 == 0;
#X obj 221 176 f;
#X floatatom 455 222 5 0 0 0 - - - 0;
#X obj 398 159 t b f;
#X floatatom 425 192 5 0 0 0 - - - 0;
#X obj 209 139 t f f;
#X obj 398 102 r parameters-s;
#X obj 176 288 outlet;
#X connect 0 0 1 0;
#X connect 1 0 2 0;
#X connect 2 0 15 0;
#X connect 3 0 13 0;
#X connect 4 0 2 0;
#X connect 5 0 4 0;
#X connect 6 0 1 1;
#X connect 7 0 11 0;
#X connect 7 1 8 0;
#X connect 8 0 10 0;
#X connect 9 0 6 0;
#X connect 10 0 1 1;
#X connect 11 0 9 0;
#X connect 11 1 12 0;
#X connect 12 0 6 1;
#X connect 13 0 6 0;
#X connect 13 1 9 1;
#X connect 14 0 7 0;
#X restore 552 520 pd morph-parameters;
#X obj 552 543 s \$0-kick-wform-r;
#N canvas 0 22 1069 747 morph-frequencies 0;
#X obj 176 94 inlet;
#X obj 176 236 pack f f;
#X obj 176 261 line;
#X obj 209 117 r preset-manager-morph-s;
#X msg 72 244 stop;
#X obj 72 214 r STOP-MORPH!;
#X obj 398 102 r frequencies-s;
#X obj 209 206 spigot;
#X obj 398 137 t f f;
#X obj 455 154 == 0;
#X obj 221 176 f;
#X floatatom 455 222 5 0 0 0 - - - 0;
#X obj 398 159 t b f;
#X floatatom 425 192 5 0 0 0 - - - 0;
#X obj 209 139 t f f;
#X obj 176 283 outlet;
#X connect 0 0 1 0;
#X connect 1 0 2 0;
#X connect 2 0 15 0;
#X connect 3 0 14 0;
#X connect 4 0 2 0;
#X connect 5 0 4 0;
#X connect 6 0 8 0;
#X connect 7 0 1 1;
#X connect 8 0 12 0;
#X connect 8 1 9 0;
#X connect 9 0 11 0;
#X connect 10 0 7 0;
#X connect 11 0 1 1;
#X connect 12 0 10 0;
#X connect 12 1 13 0;
#X connect 13 0 7 1;
#X connect 14 0 7 0;
#X connect 14 1 10 1;
#X restore 483 720 pd morph-frequencies;
#N canvas 0 22 1069 747 morph-parameters 0;
#X obj 176 94 inlet;
#X obj 176 236 pack f f;
#X obj 176 261 line;
#X obj 209 117 r preset-manager-morph-s;
#X msg 72 244 stop;
#X obj 72 214 r STOP-MORPH!;
#X obj 209 206 spigot;
#X obj 398 137 t f f;
#X obj 455 154 == 0;
#X obj 221 176 f;
#X floatatom 455 222 5 0 0 0 - - - 0;
#X obj 398 159 t b f;
#X floatatom 425 192 5 0 0 0 - - - 0;
#X obj 209 139 t f f;
#X obj 398 102 r parameters-s;
#X obj 176 288 outlet;
#X connect 0 0 1 0;
#X connect 1 0 2 0;
#X connect 2 0 15 0;
#X connect 3 0 13 0;
#X connect 4 0 2 0;
#X connect 5 0 4 0;
#X connect 6 0 1 1;
#X connect 7 0 11 0;
#X connect 7 1 8 0;
#X connect 8 0 10 0;
#X connect 9 0 6 0;
#X connect 10 0 1 1;
#X connect 11 0 9 0;
#X connect 11 1 12 0;
#X connect 12 0 6 1;
#X connect 13 0 6 0;
#X connect 13 1 9 1;
#X connect 14 0 7 0;
#X restore 565 473 pd morph-parameters;
#X obj 565 496 s \$0-flam-r;
#N canvas 0 22 1069 747 morph-parameters 0;
#X obj 176 94 inlet;
#X obj 176 236 pack f f;
#X obj 176 261 line;
#X obj 209 117 r preset-manager-morph-s;
#X msg 72 244 stop;
#X obj 72 214 r STOP-MORPH!;
#X obj 209 206 spigot;
#X obj 398 137 t f f;
#X obj 455 154 == 0;
#X obj 221 176 f;
#X floatatom 455 222 5 0 0 0 - - - 0;
#X obj 398 159 t b f;
#X floatatom 425 192 5 0 0 0 - - - 0;
#X obj 209 139 t f f;
#X obj 398 102 r parameters-s;
#X obj 176 288 outlet;
#X connect 0 0 1 0;
#X connect 1 0 2 0;
#X connect 2 0 15 0;
#X connect 3 0 13 0;
#X connect 4 0 2 0;
#X connect 5 0 4 0;
#X connect 6 0 1 1;
#X connect 7 0 11 0;
#X connect 7 1 8 0;
#X connect 8 0 10 0;
#X connect 9 0 6 0;
#X connect 10 0 1 1;
#X connect 11 0 9 0;
#X connect 11 1 12 0;
#X connect 12 0 6 1;
#X connect 13 0 6 0;
#X connect 13 1 9 1;
#X connect 14 0 7 0;
#X restore 581 425 pd morph-parameters;
#X obj 581 448 s \$0-flam-prob-r;
#N canvas 0 22 1069 747 morph-parameters 0;
#X obj 176 94 inlet;
#X obj 176 236 pack f f;
#X obj 176 261 line;
#X obj 209 117 r preset-manager-morph-s;
#X msg 72 244 stop;
#X obj 72 214 r STOP-MORPH!;
#X obj 209 206 spigot;
#X obj 398 137 t f f;
#X obj 455 154 == 0;
#X obj 221 176 f;
#X floatatom 455 222 5 0 0 0 - - - 0;
#X obj 398 159 t b f;
#X floatatom 425 192 5 0 0 0 - - - 0;
#X obj 209 139 t f f;
#X obj 398 102 r parameters-s;
#X obj 176 288 outlet;
#X connect 0 0 1 0;
#X connect 1 0 2 0;
#X connect 2 0 15 0;
#X connect 3 0 13 0;
#X connect 4 0 2 0;
#X connect 5 0 4 0;
#X connect 6 0 1 1;
#X connect 7 0 11 0;
#X connect 7 1 8 0;
#X connect 8 0 10 0;
#X connect 9 0 6 0;
#X connect 10 0 1 1;
#X connect 11 0 9 0;
#X connect 11 1 12 0;
#X connect 12 0 6 1;
#X connect 13 0 6 0;
#X connect 13 1 9 1;
#X connect 14 0 7 0;
#X restore 597 380 pd morph-parameters;
#X obj 597 403 s \$0-acc-prob-r;
#X obj 611 359 s \$0-acc-level-r;
#N canvas 0 22 1069 747 morph-parameters 0;
#X obj 176 94 inlet;
#X obj 176 236 pack f f;
#X obj 176 261 line;
#X obj 209 117 r preset-manager-morph-s;
#X msg 72 244 stop;
#X obj 72 214 r STOP-MORPH!;
#X obj 209 206 spigot;
#X obj 398 137 t f f;
#X obj 455 154 == 0;
#X obj 221 176 f;
#X floatatom 455 222 5 0 0 0 - - - 0;
#X obj 398 159 t b f;
#X floatatom 425 192 5 0 0 0 - - - 0;
#X obj 209 139 t f f;
#X obj 398 102 r parameters-s;
#X obj 176 288 outlet;
#X connect 0 0 1 0;
#X connect 1 0 2 0;
#X connect 2 0 15 0;
#X connect 3 0 13 0;
#X connect 4 0 2 0;
#X connect 5 0 4 0;
#X connect 6 0 1 1;
#X connect 7 0 11 0;
#X connect 7 1 8 0;
#X connect 8 0 10 0;
#X connect 9 0 6 0;
#X connect 10 0 1 1;
#X connect 11 0 9 0;
#X connect 11 1 12 0;
#X connect 12 0 6 1;
#X connect 13 0 6 0;
#X connect 13 1 9 1;
#X connect 14 0 7 0;
#X restore 749 512 pd morph-parameters;
#X obj 749 535 s \$0-drive-r;
#N canvas 0 22 1069 747 morph-parameters 0;
#X obj 176 94 inlet;
#X obj 176 236 pack f f;
#X obj 176 261 line;
#X obj 209 117 r preset-manager-morph-s;
#X msg 72 244 stop;
#X obj 72 214 r STOP-MORPH!;
#X obj 209 206 spigot;
#X obj 398 137 t f f;
#X obj 455 154 == 0;
#X obj 221 176 f;
#X floatatom 455 222 5 0 0 0 - - - 0;
#X obj 398 159 t b f;
#X floatatom 425 192 5 0 0 0 - - - 0;
#X obj 209 139 t f f;
#X obj 398 102 r parameters-s;
#X obj 176 288 outlet;
#X connect 0 0 1 0;
#X connect 1 0 2 0;
#X connect 2 0 15 0;
#X connect 3 0 13 0;
#X connect 4 0 2 0;
#X connect 5 0 4 0;
#X connect 6 0 1 1;
#X connect 7 0 11 0;
#X connect 7 1 8 0;
#X connect 8 0 10 0;
#X connect 9 0 6 0;
#X connect 10 0 1 1;
#X connect 11 0 9 0;
#X connect 11 1 12 0;
#X connect 12 0 6 1;
#X connect 13 0 6 0;
#X connect 13 1 9 1;
#X connect 14 0 7 0;
#X restore 763 442 pd morph-parameters;
#X obj 763 465 s \$0-tone-r;
#X obj 802 379 s \$0-load-r;
#X connect 0 0 41 0;
#X connect 1 0 0 0;
#X connect 2 0 0 0;
#X connect 4 0 2 0;
#X connect 4 1 1 0;
#X connect 5 0 40 0;
#X connect 6 0 19 0;
#X connect 7 0 10 0;
#X connect 7 1 9 0;
#X connect 7 2 8 0;
#X connect 8 0 3 0;
#X connect 9 0 5 0;
#X connect 10 0 6 0;
#X connect 11 0 7 0;
#X connect 12 0 11 0;
#X connect 13 0 17 0;
#X connect 14 0 4 0;
#X connect 14 1 13 0;
#X connect 15 0 14 0;
#X connect 15 1 13 1;
#X connect 16 0 17 1;
#X connect 17 0 26 0;
#X connect 18 0 16 0;
#X connect 19 0 25 0;
#X connect 20 0 21 0;
#X connect 21 0 19 1;
#X connect 22 0 24 0;
#X connect 23 0 6 1;
#X connect 24 0 15 0;
#X connect 25 0 3 0;
#X connect 26 0 0 0;
#X connect 27 0 5 1;
#X connect 28 0 40 1;
#X connect 29 0 40 2;
#X connect 30 0 40 3;
#X connect 31 0 40 4;
#X connect 32 0 40 5;
#X connect 33 0 40 6;
#X connect 34 0 40 7;
#X connect 35 0 40 8;
#X connect 36 0 40 9;
#X connect 37 0 40 10;
#X connect 38 0 40 11;
#X connect 39 0 3 0;
#X connect 40 0 39 0;
#X connect 41 0 52 0;
#X connect 41 1 43 0;
#X connect 41 2 46 0;
#X connect 41 3 48 0;
#X connect 41 4 50 0;
#X connect 41 5 53 0;
#X connect 41 6 55 0;
#X connect 41 7 57 0;
#X connect 41 8 44 0;
#X connect 41 9 60 0;
#X connect 41 10 62 0;
#X connect 41 11 64 0;
#X connect 43 0 45 0;
#X connect 44 0 59 0;
#X connect 46 0 47 0;
#X connect 48 0 49 0;
#X connect 50 0 51 0;
#X connect 52 0 42 0;
#X connect 53 0 54 0;
#X connect 55 0 56 0;
#X connect 57 0 58 0;
#X connect 60 0 61 0;
#X connect 62 0 63 0;
#X restore 363 129 pd state-saving-via-preset-manager-module;
#N canvas 297 27 981 701 parameter-nudging-system 0;
#X obj 23 70 clip 0 127;
#X obj 182 67 clip 0 127;
#X obj 337 65 clip 0 127;
#N canvas 0 22 484 497 nudge-parameters 0;
#X obj 124 234 random;
#X obj 232 335 f;
#X obj 232 368 +;
#X obj 257 166 random 2;
#X obj 124 275 t f f;
#X obj 124 351 t b f;
#X obj 124 297 *;
#X obj 257 188 sel 0 1;
#X msg 257 280 -1;
#X msg 335 280 1;
#X obj 124 149 t b b b;
#X obj 124 74 r NUDGE!;
#X obj 157 193 r NUDGE-RANGE;
#X obj 247 308 inlet;
#X obj 232 397 outlet;
#X obj 124 96 spigot;
#X obj 185 79 r parameters2-s;
#X connect 0 0 4 0;
#X connect 1 0 2 0;
#X connect 2 0 14 0;
#X connect 3 0 7 0;
#X connect 4 0 6 0;
#X connect 5 0 2 0;
#X connect 5 1 2 1;
#X connect 6 0 5 0;
#X connect 7 0 8 0;
#X connect 7 1 9 0;
#X connect 8 0 6 1;
#X connect 9 0 6 1;
#X connect 10 0 0 0;
#X connect 10 1 1 0;
#X connect 10 2 3 0;
#X connect 11 0 15 0;
#X connect 12 0 0 1;
#X connect 13 0 1 1;
#X connect 15 0 10 0;
#X connect 16 0 15 1;
#X restore 182 45 pd nudge-parameters;
#X obj 23 22 r \$0-kick-pitch-s;
#X obj 23 102 s \$0-kick-pitch-r;
#X obj 182 22 r \$0-kick-decay-s;
#X obj 182 99 s \$0-kick-decay-r;
#X obj 337 20 r \$0-kick-envmod-s;
#X obj 337 97 s \$0-kick-envmod-r;
#X obj 27 193 clip 0 127;
#N canvas 0 22 484 497 nudge-parameters 0;
#X obj 124 234 random;
#X obj 232 335 f;
#X obj 232 368 +;
#X obj 257 166 random 2;
#X obj 124 275 t f f;
#X obj 124 351 t b f;
#X obj 124 297 *;
#X obj 257 188 sel 0 1;
#X msg 257 280 -1;
#X msg 335 280 1;
#X obj 124 149 t b b b;
#X obj 124 74 r NUDGE!;
#X obj 157 193 r NUDGE-RANGE;
#X obj 247 308 inlet;
#X obj 232 397 outlet;
#X obj 124 96 spigot;
#X obj 185 79 r parameters2-s;
#X connect 0 0 4 0;
#X connect 1 0 2 0;
#X connect 2 0 14 0;
#X connect 3 0 7 0;
#X connect 4 0 6 0;
#X connect 5 0 2 0;
#X connect 5 1 2 1;
#X connect 6 0 5 0;
#X connect 7 0 8 0;
#X connect 7 1 9 0;
#X connect 8 0 6 1;
#X connect 9 0 6 1;
#X connect 10 0 0 0;
#X connect 10 1 1 0;
#X connect 10 2 3 0;
#X connect 11 0 15 0;
#X connect 12 0 0 1;
#X connect 13 0 1 1;
#X connect 15 0 10 0;
#X connect 16 0 15 1;
#X restore 27 171 pd nudge-parameters;
#X obj 209 191 clip 0 127;
#N canvas 0 22 484 497 nudge-parameters 0;
#X obj 124 234 random;
#X obj 232 335 f;
#X obj 232 368 +;
#X obj 257 166 random 2;
#X obj 124 275 t f f;
#X obj 124 351 t b f;
#X obj 124 297 *;
#X obj 257 188 sel 0 1;
#X msg 257 280 -1;
#X msg 335 280 1;
#X obj 124 149 t b b b;
#X obj 124 74 r NUDGE!;
#X obj 157 193 r NUDGE-RANGE;
#X obj 247 308 inlet;
#X obj 232 397 outlet;
#X obj 124 96 spigot;
#X obj 185 79 r parameters2-s;
#X connect 0 0 4 0;
#X connect 1 0 2 0;
#X connect 2 0 14 0;
#X connect 3 0 7 0;
#X connect 4 0 6 0;
#X connect 5 0 2 0;
#X connect 5 1 2 1;
#X connect 6 0 5 0;
#X connect 7 0 8 0;
#X connect 7 1 9 0;
#X connect 8 0 6 1;
#X connect 9 0 6 1;
#X connect 10 0 0 0;
#X connect 10 1 1 0;
#X connect 10 2 3 0;
#X connect 11 0 15 0;
#X connect 12 0 0 1;
#X connect 13 0 1 1;
#X connect 15 0 10 0;
#X connect 16 0 15 1;
#X restore 209 169 pd nudge-parameters;
#X obj 350 191 clip 0 127;
#N canvas 0 22 484 497 nudge-parameters 0;
#X obj 124 234 random;
#X obj 232 335 f;
#X obj 232 368 +;
#X obj 257 166 random 2;
#X obj 124 275 t f f;
#X obj 124 351 t b f;
#X obj 124 297 *;
#X obj 257 188 sel 0 1;
#X msg 257 280 -1;
#X msg 335 280 1;
#X obj 124 149 t b b b;
#X obj 124 74 r NUDGE!;
#X obj 157 193 r NUDGE-RANGE;
#X obj 247 308 inlet;
#X obj 232 397 outlet;
#X obj 124 96 spigot;
#X obj 185 79 r parameters2-s;
#X connect 0 0 4 0;
#X connect 1 0 2 0;
#X connect 2 0 14 0;
#X connect 3 0 7 0;
#X connect 4 0 6 0;
#X connect 5 0 2 0;
#X connect 5 1 2 1;
#X connect 6 0 5 0;
#X connect 7 0 8 0;
#X connect 7 1 9 0;
#X connect 8 0 6 1;
#X connect 9 0 6 1;
#X connect 10 0 0 0;
#X connect 10 1 1 0;
#X connect 10 2 3 0;
#X connect 11 0 15 0;
#X connect 12 0 0 1;
#X connect 13 0 1 1;
#X connect 15 0 10 0;
#X connect 16 0 15 1;
#X restore 350 169 pd nudge-parameters;
#X obj 27 148 r \$0-kick-sweep-s;
#X obj 27 225 s \$0-kick-sweep-r;
#X obj 209 146 r \$0-kick-wform-s;
#X obj 209 223 s \$0-kick-wform-r;
#X obj 350 146 r \$0-flam-s;
#X obj 350 223 s \$0-flam-r;
#X obj 23 309 clip 0 127;
#N canvas 0 22 484 497 nudge-parameters 0;
#X obj 124 234 random;
#X obj 232 335 f;
#X obj 232 368 +;
#X obj 257 166 random 2;
#X obj 124 275 t f f;
#X obj 124 351 t b f;
#X obj 124 297 *;
#X obj 257 188 sel 0 1;
#X msg 257 280 -1;
#X msg 335 280 1;
#X obj 124 149 t b b b;
#X obj 124 74 r NUDGE!;
#X obj 157 193 r NUDGE-RANGE;
#X obj 247 308 inlet;
#X obj 232 397 outlet;
#X obj 124 96 spigot;
#X obj 185 79 r parameters2-s;
#X connect 0 0 4 0;
#X connect 1 0 2 0;
#X connect 2 0 14 0;
#X connect 3 0 7 0;
#X connect 4 0 6 0;
#X connect 5 0 2 0;
#X connect 5 1 2 1;
#X connect 6 0 5 0;
#X connect 7 0 8 0;
#X connect 7 1 9 0;
#X connect 8 0 6 1;
#X connect 9 0 6 1;
#X connect 10 0 0 0;
#X connect 10 1 1 0;
#X connect 10 2 3 0;
#X connect 11 0 15 0;
#X connect 12 0 0 1;
#X connect 13 0 1 1;
#X connect 15 0 10 0;
#X connect 16 0 15 1;
#X restore 23 287 pd nudge-parameters;
#X obj 205 307 clip 0 127;
#N canvas 0 22 484 497 nudge-parameters 0;
#X obj 124 234 random;
#X obj 232 335 f;
#X obj 232 368 +;
#X obj 257 166 random 2;
#X obj 124 275 t f f;
#X obj 124 351 t b f;
#X obj 124 297 *;
#X obj 257 188 sel 0 1;
#X msg 257 280 -1;
#X msg 335 280 1;
#X obj 124 149 t b b b;
#X obj 124 74 r NUDGE!;
#X obj 157 193 r NUDGE-RANGE;
#X obj 247 308 inlet;
#X obj 232 397 outlet;
#X obj 124 96 spigot;
#X obj 185 79 r parameters2-s;
#X connect 0 0 4 0;
#X connect 1 0 2 0;
#X connect 2 0 14 0;
#X connect 3 0 7 0;
#X connect 4 0 6 0;
#X connect 5 0 2 0;
#X connect 5 1 2 1;
#X connect 6 0 5 0;
#X connect 7 0 8 0;
#X connect 7 1 9 0;
#X connect 8 0 6 1;
#X connect 9 0 6 1;
#X connect 10 0 0 0;
#X connect 10 1 1 0;
#X connect 10 2 3 0;
#X connect 11 0 15 0;
#X connect 12 0 0 1;
#X connect 13 0 1 1;
#X connect 15 0 10 0;
#X connect 16 0 15 1;
#X restore 205 285 pd nudge-parameters;
#N canvas 0 22 484 497 nudge-attenuators 0;
#X obj 124 234 random;
#X obj 232 335 f;
#X obj 232 368 +;
#X obj 257 166 random 2;
#X obj 124 275 t f f;
#X obj 124 351 t b f;
#X obj 124 297 *;
#X obj 257 188 sel 0 1;
#X msg 257 280 -1;
#X msg 335 280 1;
#X obj 124 149 t b b b;
#X obj 124 71 r NUDGE!;
#X obj 157 193 r NUDGE-RANGE;
#X obj 247 308 inlet;
#X obj 232 397 outlet;
#X obj 124 93 spigot;
#X obj 201 76 r attenuators2-s;
#X connect 0 0 4 0;
#X connect 1 0 2 0;
#X connect 2 0 14 0;
#X connect 3 0 7 0;
#X connect 4 0 6 0;
#X connect 5 0 2 0;
#X connect 5 1 2 1;
#X connect 6 0 5 0;
#X connect 7 0 8 0;
#X connect 7 1 9 0;
#X connect 8 0 6 1;
#X connect 9 0 6 1;
#X connect 10 0 0 0;
#X connect 10 1 1 0;
#X connect 10 2 3 0;
#X connect 11 0 15 0;
#X connect 12 0 0 1;
#X connect 13 0 1 1;
#X connect 15 0 10 0;
#X connect 16 0 15 1;
#X restore 353 280 pd nudge-attenuators;
#N canvas 0 22 484 497 nudge-parameters 0;
#X obj 124 234 random;
#X obj 232 335 f;
#X obj 232 368 +;
#X obj 257 166 random 2;
#X obj 124 275 t f f;
#X obj 124 351 t b f;
#X obj 124 297 *;
#X obj 257 188 sel 0 1;
#X msg 257 280 -1;
#X msg 335 280 1;
#X obj 124 149 t b b b;
#X obj 124 74 r NUDGE!;
#X obj 157 193 r NUDGE-RANGE;
#X obj 247 308 inlet;
#X obj 232 397 outlet;
#X obj 124 96 spigot;
#X obj 185 79 r parameters2-s;
#X connect 0 0 4 0;
#X connect 1 0 2 0;
#X connect 2 0 14 0;
#X connect 3 0 7 0;
#X connect 4 0 6 0;
#X connect 5 0 2 0;
#X connect 5 1 2 1;
#X connect 6 0 5 0;
#X connect 7 0 8 0;
#X connect 7 1 9 0;
#X connect 8 0 6 1;
#X connect 9 0 6 1;
#X connect 10 0 0 0;
#X connect 10 1 1 0;
#X connect 10 2 3 0;
#X connect 11 0 15 0;
#X connect 12 0 0 1;
#X connect 13 0 1 1;
#X connect 15 0 10 0;
#X connect 16 0 15 1;
#X restore 337 41 pd nudge-parameters;
#X obj 354 305 clip 0 127;
#X obj 353 254 r \$0-acc-level-s;
#X obj 354 331 s \$0-acc-level-r;
#X obj 23 264 r \$0-flam-prob-s;
#X obj 23 341 s \$0-flam-prob-r;
#X obj 205 262 r \$0-acc-prob-s;
#X obj 205 339 s \$0-acc-prob-r;
#X obj 23 448 clip 0 127;
#N canvas 0 22 484 497 nudge-parameters 0;
#X obj 124 234 random;
#X obj 232 335 f;
#X obj 232 368 +;
#X obj 257 166 random 2;
#X obj 124 275 t f f;
#X obj 124 351 t b f;
#X obj 124 297 *;
#X obj 257 188 sel 0 1;
#X msg 257 280 -1;
#X msg 335 280 1;
#X obj 124 149 t b b b;
#X obj 124 74 r NUDGE!;
#X obj 157 193 r NUDGE-RANGE;
#X obj 247 308 inlet;
#X obj 232 397 outlet;
#X obj 124 96 spigot;
#X obj 185 79 r parameters2-s;
#X connect 0 0 4 0;
#X connect 1 0 2 0;
#X connect 2 0 14 0;
#X connect 3 0 7 0;
#X connect 4 0 6 0;
#X connect 5 0 2 0;
#X connect 5 1 2 1;
#X connect 6 0 5 0;
#X connect 7 0 8 0;
#X connect 7 1 9 0;
#X connect 8 0 6 1;
#X connect 9 0 6 1;
#X connect 10 0 0 0;
#X connect 10 1 1 0;
#X connect 10 2 3 0;
#X connect 11 0 15 0;
#X connect 12 0 0 1;
#X connect 13 0 1 1;
#X connect 15 0 10 0;
#X connect 16 0 15 1;
#X restore 23 426 pd nudge-parameters;
#X obj 205 446 clip 0 127;
#N canvas 0 22 484 497 nudge-parameters 0;
#X obj 124 234 random;
#X obj 232 335 f;
#X obj 232 368 +;
#X obj 257 166 random 2;
#X obj 124 275 t f f;
#X obj 124 351 t b f;
#X obj 124 297 *;
#X obj 257 188 sel 0 1;
#X msg 257 280 -1;
#X msg 335 280 1;
#X obj 124 149 t b b b;
#X obj 124 74 r NUDGE!;
#X obj 157 193 r NUDGE-RANGE;
#X obj 247 308 inlet;
#X obj 232 397 outlet;
#X obj 124 96 spigot;
#X obj 185 79 r parameters2-s;
#X connect 0 0 4 0;
#X connect 1 0 2 0;
#X connect 2 0 14 0;
#X connect 3 0 7 0;
#X connect 4 0 6 0;
#X connect 5 0 2 0;
#X connect 5 1 2 1;
#X connect 6 0 5 0;
#X connect 7 0 8 0;
#X connect 7 1 9 0;
#X connect 8 0 6 1;
#X connect 9 0 6 1;
#X connect 10 0 0 0;
#X connect 10 1 1 0;
#X connect 10 2 3 0;
#X connect 11 0 15 0;
#X connect 12 0 0 1;
#X connect 13 0 1 1;
#X connect 15 0 10 0;
#X connect 16 0 15 1;
#X restore 205 424 pd nudge-parameters;
#X obj 23 403 r \$0-drive-s;
#X obj 23 480 s \$0-drive-r;
#X obj 205 401 r \$0-tone-s;
#X obj 205 478 s \$0-tone-r;
#N canvas 0 22 484 497 nudge-freq 0;
#X obj 124 234 random;
#X obj 232 335 f;
#X obj 232 368 +;
#X obj 257 166 random 2;
#X obj 124 275 t f f;
#X obj 124 351 t b f;
#X obj 124 297 *;
#X obj 257 188 sel 0 1;
#X msg 257 280 -1;
#X msg 335 280 1;
#X obj 124 149 t b b b;
#X obj 124 51 r NUDGE!;
#X obj 157 193 r NUDGE-RANGE;
#X obj 247 308 inlet;
#X obj 232 397 outlet;
#X obj 124 73 spigot;
#X obj 185 56 r frequencies2-s;
#X connect 0 0 4 0;
#X connect 1 0 2 0;
#X connect 2 0 14 0;
#X connect 3 0 7 0;
#X connect 4 0 6 0;
#X connect 5 0 2 0;
#X connect 5 1 2 1;
#X connect 6 0 5 0;
#X connect 7 0 8 0;
#X connect 7 1 9 0;
#X connect 8 0 6 1;
#X connect 9 0 6 1;
#X connect 10 0 0 0;
#X connect 10 1 1 0;
#X connect 10 2 3 0;
#X connect 11 0 15 0;
#X connect 12 0 0 1;
#X connect 13 0 1 1;
#X connect 15 0 10 0;
#X connect 16 0 15 1;
#X restore 22 48 pd nudge-freq;
#X connect 0 0 5 0;
#X connect 1 0 7 0;
#X connect 2 0 9 0;
#X connect 3 0 1 0;
#X connect 4 0 43 0;
#X connect 6 0 3 0;
#X connect 8 0 27 0;
#X connect 10 0 17 0;
#X connect 11 0 10 0;
#X connect 12 0 19 0;
#X connect 13 0 12 0;
#X connect 14 0 21 0;
#X connect 15 0 14 0;
#X connect 16 0 11 0;
#X connect 18 0 13 0;
#X connect 20 0 15 0;
#X connect 22 0 32 0;
#X connect 23 0 22 0;
#X connect 24 0 34 0;
#X connect 25 0 24 0;
#X connect 26 0 28 0;
#X connect 27 0 2 0;
#X connect 28 0 30 0;
#X connect 29 0 26 0;
#X connect 31 0 23 0;
#X connect 33 0 25 0;
#X connect 35 0 40 0;
#X connect 36 0 35 0;
#X connect 37 0 42 0;
#X connect 38 0 37 0;
#X connect 39 0 36 0;
#X connect 41 0 38 0;
#X connect 43 0 0 0;
#X restore 363 105 pd parameter-nudging-system;
#N canvas 302 64 1008 752 savetest 0;
#X obj 290 212 pack f f;
#X obj 305 133 loadbang;
#X obj 305 155 f \$1;
#X obj 290 184 f;
#X obj 292 453 textfile;
#X msg 475 436 rewind;
#X obj 165 78 loadbang;
#X obj 19 174 delay 10;
#X text 59 52 WRITE;
#X obj 19 54 inlet;
#X obj 19 208 f;
#X obj 19 247 pack f f;
#X obj 165 126 t f f;
#X obj 165 104 f \$1;
#X msg -193 97 bang;
#X obj 91 611 textfile;
#X msg 97 236 clear;
#X obj 19 118 t b f b b;
#X obj 308 21 inlet;
#X text 353 19 LOAD;
#X msg 399 415 bang;
#X obj 412 375 t b b;
#X obj 308 43 t b f;
#X obj 290 90 t b b;
#X obj -412 344 f;
#N canvas 0 22 1084 659 unpack-values 0;
#X obj 182 32 inlet;
#X obj 181 578 s \$0-kick-pitch-r;
#X obj 194 557 s \$0-kick-decay-r;
#X obj 211 531 s \$0-kick-envmod-r;
#X obj 224 510 s \$0-kick-sweep-r;
#X obj 238 485 s \$0-kick-wform-r;
#X obj 251 464 s \$0-flam-r;
#X obj 268 438 s \$0-flam-prob-r;
#X obj 281 417 s \$0-acc-prob-r;
#X obj 298 394 s \$0-acc-level-r;
#X obj 311 373 s \$0-drive-r;
#X obj 337 317 s \$0-tone-r;
#X obj 182 59 unpack f f f f f f f f f f f;
#X connect 0 0 12 0;
#X connect 12 0 1 0;
#X connect 12 1 2 0;
#X connect 12 2 3 0;
#X connect 12 3 4 0;
#X connect 12 4 5 0;
#X connect 12 5 6 0;
#X connect 12 6 7 0;
#X connect 12 7 8 0;
#X connect 12 8 9 0;
#X connect 12 9 10 0;
#X connect 12 10 11 0;
#X restore 292 479 pd unpack-values;
#X obj 411 85 f;
#X obj 411 24 r SAVE-S;
#X msg 19 329 write statesave/\$1-kickpreset-\$2-ss.txt;
#X msg 291 297 read statesave/\$1-kickpreset-\$2-ss.txt;
#X obj -400 22 r \$0-kick-pitch-s;
#X obj -387 44 r \$0-kick-decay-s;
#X obj -371 64 r \$0-kick-envmod-s;
#X obj -355 84 r \$0-kick-sweep-s;
#X obj -337 103 r \$0-kick-wform-s;
#X obj -321 123 r \$0-flam-s;
#X obj -305 143 r \$0-flam-prob-s;
#X obj -284 166 r \$0-acc-prob-s;
#X obj -264 195 r \$0-acc-level-s;
#X obj -248 215 r \$0-drive-s;
#X obj -232 235 r \$0-tone-s;
#X obj 426 56 r \$0-load-s;
#X obj 411 107 s \$0-write-r;
#X msg -378 522 set \$1 \$2 \$3 \$4 \$5 \$6 \$7 \$8 \$9 \$10 \$11;
#X obj -377 481 pack f f f f f f f f f f f;
#X connect 0 0 29 0;
#X connect 1 0 2 0;
#X connect 2 0 3 1;
#X connect 3 0 0 0;
#X connect 4 0 25 0;
#X connect 5 0 4 0;
#X connect 6 0 13 0;
#X connect 7 0 10 0;
#X connect 9 0 17 0;
#X connect 10 0 11 0;
#X connect 11 0 28 0;
#X connect 12 0 10 1;
#X connect 13 0 12 0;
#X connect 14 0 24 0;
#X connect 16 0 15 0;
#X connect 17 0 7 0;
#X connect 17 1 11 1;
#X connect 17 2 14 0;
#X connect 17 3 16 0;
#X connect 18 0 22 0;
#X connect 20 0 4 0;
#X connect 21 0 20 0;
#X connect 21 1 5 0;
#X connect 22 0 23 0;
#X connect 22 1 0 1;
#X connect 23 0 21 0;
#X connect 23 1 3 0;
#X connect 24 0 44 0;
#X connect 26 0 42 0;
#X connect 27 0 26 0;
#X connect 28 0 15 0;
#X connect 29 0 4 0;
#X connect 30 0 24 1;
#X connect 31 0 44 1;
#X connect 32 0 44 2;
#X connect 33 0 44 3;
#X connect 34 0 44 4;
#X connect 35 0 44 5;
#X connect 36 0 44 6;
#X connect 37 0 44 7;
#X connect 38 0 44 8;
#X connect 39 0 44 9;
#X connect 40 0 44 10;
#X connect 41 0 26 1;
#X connect 43 0 15 0;
#X connect 44 0 43 0;
#X restore 363 305 pd savetest;
#X obj 363 253 r \$0-write-s;
#X obj 426 277 r \$0-load-s;
#N canvas 376 23 1280 809 external-messages 0;
#X floatatom -71 513 5 0 0 0 - - - 0;
#X obj 43 328 spigot;
#X obj 76 288 tgl 15 0 empty empty empty 17 7 0 10 #fcfcfc #000000 #000000 0 1;
#X obj 112 272 ==;
#X obj 127 248 f \$1;
#X obj 127 224 loadbang;
#X msg 43 202 \$1 \$2;
#X msg 43 156 symbol \$1;
#X obj 43 180 pack s f;
#X obj -71 492 f;
#X obj -71 440 t b f;
#X obj -71 463 spigot;
#X obj 43 62 unpack s f f;
#X symbolatom 43 94 10 0 0 0 - - - 0;
#X obj 76 308 t f f;
#X obj 103 332 s \$0-msg-spigot;
#X obj -23 447 r \$0-msg-spigot;
#X floatatom -45 657 5 0 0 0 - - - 0;
#X obj -45 636 f;
#X obj -45 584 t b f;
#X obj -45 607 spigot;
#X obj 3 591 r \$0-msg-spigot;
#X floatatom 106 549 5 0 0 0 - - - 0;
#X obj 106 528 f;
#X obj 106 476 t b f;
#X obj 106 499 spigot;
#X obj 154 483 r \$0-msg-spigot;
#X floatatom 145 687 5 0 0 0 - - - 0;
#X obj 145 666 f;
#X obj 145 614 t b f;
#X obj 145 637 spigot;
#X obj 193 621 r \$0-msg-spigot;
#X floatatom 270 523 5 0 0 0 - - - 0;
#X obj 270 502 f;
#X obj 270 450 t b f;
#X obj 270 473 spigot;
#X obj 318 457 r \$0-msg-spigot;
#X obj 43 14 r kick;
#X obj 43 380 route PITCH HOLD DECAY EG2 SWEEP WFORM FLAM FLAM-PROB ACC-PROB ACCENT DRIVE TONE;
#X floatatom 315 690 5 0 0 0 - - - 0;
#X obj 315 669 f;
#X obj 315 617 t b f;
#X obj 315 640 spigot;
#X obj 363 624 r \$0-msg-spigot;
#X floatatom 442 535 5 0 0 0 - - - 0;
#X obj 442 514 f;
#X obj 442 462 t b f;
#X obj 442 485 spigot;
#X obj 490 469 r \$0-msg-spigot;
#X floatatom 479 685 5 0 0 0 - - - 0;
#X obj 479 664 f;
#X obj 479 612 t b f;
#X obj 479 635 spigot;
#X obj 527 619 r \$0-msg-spigot;
#X floatatom 622 527 5 0 0 0 - - - 0;
#X obj 622 506 f;
#X obj 622 454 t b f;
#X obj 622 477 spigot;
#X obj 670 461 r \$0-msg-spigot;
#X floatatom 654 680 5 0 0 0 - - - 0;
#X obj 654 659 f;
#X obj 654 607 t b f;
#X obj 654 630 spigot;
#X obj 702 614 r \$0-msg-spigot;
#X floatatom 784 516 5 0 0 0 - - - 0;
#X obj 784 495 f;
#X obj 784 443 t b f;
#X obj 784 466 spigot;
#X obj 832 450 r \$0-msg-spigot;
#X floatatom 816 707 5 0 0 0 - - - 0;
#X obj 816 686 f;
#X obj 816 634 t b f;
#X obj 816 657 spigot;
#X obj 864 641 r \$0-msg-spigot;
#X obj -71 533 s \$0-kick-pitch-r;
#X obj -45 677 s \$0-kick-hold-r;
#X obj 106 569 s \$0-kick-decay-r;
#X obj 145 707 s \$0-kick-envmod-r;
#X obj 270 543 s \$0-kick-sweep-r;
#X obj 315 710 s \$0-kick-wform-r;
#X obj 442 555 s \$0-flam-r;
#X obj 479 705 s \$0-flam-prob-r;
#X obj 622 547 s \$0-acc-prob-r;
#X obj 654 700 s \$0-acc-level-r;
#X obj 784 536 s \$0-drive-r;
#X obj 816 727 s \$0-tone-r;
#X connect 0 0 74 0;
#X connect 1 0 38 0;
#X connect 2 0 14 0;
#X connect 3 0 2 0;
#X connect 4 0 3 1;
#X connect 5 0 4 0;
#X connect 6 0 1 0;
#X connect 7 0 8 0;
#X connect 8 0 6 0;
#X connect 9 0 0 0;
#X connect 10 0 11 0;
#X connect 10 1 9 1;
#X connect 11 0 9 0;
#X connect 12 0 13 0;
#X connect 12 1 8 1;
#X connect 12 2 3 0;
#X connect 13 0 7 0;
#X connect 14 0 1 1;
#X connect 14 1 15 0;
#X connect 16 0 11 1;
#X connect 17 0 75 0;
#X connect 18 0 17 0;
#X connect 19 0 20 0;
#X connect 19 1 18 1;
#X connect 20 0 18 0;
#X connect 21 0 20 1;
#X connect 22 0 76 0;
#X connect 23 0 22 0;
#X connect 24 0 25 0;
#X connect 24 1 23 1;
#X connect 25 0 23 0;
#X connect 26 0 25 1;
#X connect 27 0 77 0;
#X connect 28 0 27 0;
#X connect 29 0 30 0;
#X connect 29 1 28 1;
#X connect 30 0 28 0;
#X connect 31 0 30 1;
#X connect 32 0 78 0;
#X connect 33 0 32 0;
#X connect 34 0 35 0;
#X connect 34 1 33 1;
#X connect 35 0 33 0;
#X connect 36 0 35 1;
#X connect 37 0 12 0;
#X connect 38 0 10 0;
#X connect 38 1 19 0;
#X connect 38 2 24 0;
#X connect 38 3 29 0;
#X connect 38 4 34 0;
#X connect 38 5 41 0;
#X connect 38 6 46 0;
#X connect 38 7 51 0;
#X connect 38 8 56 0;
#X connect 38 9 61 0;
#X connect 38 10 66 0;
#X connect 38 11 71 0;
#X connect 39 0 79 0;
#X connect 40 0 39 0;
#X connect 41 0 42 0;
#X connect 41 1 40 1;
#X connect 42 0 40 0;
#X connect 43 0 42 1;
#X connect 44 0 80 0;
#X connect 45 0 44 0;
#X connect 46 0 47 0;
#X connect 46 1 45 1;
#X connect 47 0 45 0;
#X connect 48 0 47 1;
#X connect 49 0 81 0;
#X connect 50 0 49 0;
#X connect 51 0 52 0;
#X connect 51 1 50 1;
#X connect 52 0 50 0;
#X connect 53 0 52 1;
#X connect 54 0 82 0;
#X connect 55 0 54 0;
#X connect 56 0 57 0;
#X connect 56 1 55 1;
#X connect 57 0 55 0;
#X connect 58 0 57 1;
#X connect 59 0 83 0;
#X connect 60 0 59 0;
#X connect 61 0 62 0;
#X connect 61 1 60 1;
#X connect 62 0 60 0;
#X connect 63 0 62 1;
#X connect 64 0 84 0;
#X connect 65 0 64 0;
#X connect 66 0 67 0;
#X connect 66 1 65 1;
#X connect 67 0 65 0;
#X connect 68 0 67 1;
#X connect 69 0 85 0;
#X connect 70 0 69 0;
#X connect 71 0 72 0;
#X connect 71 1 70 1;
#X connect 72 0 70 0;
#X connect 73 0 72 1;
#X restore 362 81 pd external-messages;
#X obj 17 63 unpack;
#X obj 17 92 stripnote;
#X obj 17 115 bng 16 250 50 0 empty empty empty 0 -8 0 10 #fcfcfc #000000 #000000;
#X obj 14 591 *~;
#X obj 50 570 / 127;
#X obj 50 604 line~;
#X obj 50 587 pack 0 2;
#X obj 129 193 hsl 128 15 0 127 0 1 \$0-pitch-s \$0-pitch-r PITCH 133 7 0 10 #ffffff #000000 #000000 2000 1;
#X obj 357 431 loadbang;
#X msg 357 473 0.6;
#X obj 735 289 / 127;
#X obj 735 336 pack 0 50;
#X obj 801 106 / 127;
#X obj 801 203 pack 0 50;
#X obj 801 172 t f f;
#X obj 736 165 snapshot~;
#X obj 744 120 tgl 15 0 empty empty empty 17 7 0 10 #fcfcfc #000000 #000000 0 1;
#X obj 736 187 change;
#X obj 744 138 metro 10;
#X obj 744 46 env~;
#X obj 744 68 > 0;
#X obj 744 90 change;
#X obj 737 15 inlet~;
#X obj 735 242 *;
#X obj 801 225 line;
#X obj 735 358 line;
#X obj 736 414 +;
#X floatatom 736 441 5 0 0 0 - - - 0;
#X obj 736 209 * 1;
#X obj 759 242 t b f;
#X obj 735 266 r \$0-pitch-s;
#X obj 129 209 hsl 128 15 0 127 0 1 \$0-pitch-cv-s \$0-pitch-cv-r PITCH-/+ 133 7 0 10 #90d3b0 #000000 #000000 0 1;
#X obj 801 84 r \$0-pitch-cv-s;
#X floatatom 761 485 5 0 0 0 - - - 0;
#N canvas 196 112 1244 616 push-controll 0;
#N canvas 208 84 1232 580 push-encoder 0;
#X obj 53 80 push-encoder-reader;
#X obj 53 -17 ctlin 71;
#X obj 298 75 push-encoder-reader;
#X obj 298 -22 ctlin 72;
#X obj 536 77 push-encoder-reader;
#X obj 536 -20 ctlin 73;
#X obj 54 38 main-menu;
#X obj 105 20 r \$0-mm;
#N canvas 150 175 450 300 sm1 0;
#X obj 109 64 r \$0-sm;
#X obj 109 102 sel;
#X obj 75 170 outlet;
#X msg 108 123 1;
#X msg 135 123 0;
#X obj 75 149 spigot;
#X obj 75 37 inlet;
#X obj 124 83 r \$0-sm1;
#X connect 0 0 1 0;
#X connect 1 0 3 0;
#X connect 1 1 4 0;
#X connect 3 0 5 1;
#X connect 4 0 5 1;
#X connect 5 0 2 0;
#X connect 6 0 5 0;
#X connect 7 0 1 1;
#X restore 54 57 pd sm1;
#X obj 299 29 main-menu;
#X obj 350 11 r \$0-mm;
#N canvas 150 175 450 300 sm1 0;
#X obj 109 64 r \$0-sm;
#X obj 109 102 sel;
#X obj 75 170 outlet;
#X msg 108 123 1;
#X msg 135 123 0;
#X obj 75 149 spigot;
#X obj 75 37 inlet;
#X obj 124 83 r \$0-sm1;
#X connect 0 0 1 0;
#X connect 1 0 3 0;
#X connect 1 1 4 0;
#X connect 3 0 5 1;
#X connect 4 0 5 1;
#X connect 5 0 2 0;
#X connect 6 0 5 0;
#X connect 7 0 1 1;
#X restore 299 48 pd sm1;
#X obj 537 20 main-menu;
#X obj 588 2 r \$0-mm;
#N canvas 150 175 450 300 sm1 0;
#X obj 109 64 r \$0-sm;
#X obj 109 102 sel;
#X obj 75 170 outlet;
#X msg 108 123 1;
#X msg 135 123 0;
#X obj 75 149 spigot;
#X obj 75 37 inlet;
#X obj 124 83 r \$0-sm1;
#X connect 0 0 1 0;
#X connect 1 0 3 0;
#X connect 1 1 4 0;
#X connect 3 0 5 1;
#X connect 4 0 5 1;
#X connect 5 0 2 0;
#X connect 6 0 5 0;
#X connect 7 0 1 1;
#X restore 537 39 pd sm1;
#X text 37 -47 Encoder to volume (submenu1);
#X obj 141 45 r \$0-decay1-s;
#X obj 377 39 r \$0-decay2-s;
#X obj 636 36 r \$0-pitch-s;
#X obj 53 105 s \$0-decay1-r;
#X obj 298 103 s \$0-decay2-r;
#X obj 532 104 s \$0-pitch-r;
#X connect 0 0 19 0;
#X connect 1 0 6 0;
#X connect 2 0 20 0;
#X connect 3 0 9 0;
#X connect 4 0 21 0;
#X connect 5 0 12 0;
#X connect 6 0 8 0;
#X connect 7 0 6 1;
#X connect 8 0 0 0;
#X connect 9 0 11 0;
#X connect 10 0 9 1;
#X connect 11 0 2 0;
#X connect 12 0 14 0;
#X connect 13 0 12 1;
#X connect 14 0 4 0;
#X connect 16 0 0 1;
#X connect 17 0 2 1;
#X connect 18 0 4 1;
#X restore 21 141 pd push-encoder;
#N canvas 329 25 1440 789 push-display 0;
#X obj 146 -216 t b;
#X obj 147 -3 push-mk1-display 24;
#X obj 146 -279 main-menu;
#X obj 172 -301 r \$0-mm;
#X obj 146 -328 r \$0-sm;
#X obj 433 0 push-mk1-display 25;
#X msg 433 -33 symbol :\$1;
#X msg 509 -31 symbol :\$1;
#X msg 585 -31 symbol :\$1;
#X obj 436 -75 f;
#X obj 507 -64 f;
#X obj 584 -82 f;
#X obj 436 -253 main-menu;
#X obj 462 -275 r \$0-mm;
#X obj 436 -302 r \$0-sm;
#X obj 436 -181 t b;
#N canvas 150 175 450 300 sm 0;
#X obj 109 64 r \$0-sm;
#X obj 109 102 sel;
#X obj 124 83 r \$0-sm1;
#X obj 75 170 outlet;
#X msg 108 123 1;
#X msg 135 123 0;
#X obj 75 149 spigot;
#X obj 75 37 inlet;
#X connect 0 0 1 0;
#X connect 1 0 4 0;
#X connect 1 1 5 0;
#X connect 2 0 1 1;
#X connect 4 0 6 1;
#X connect 5 0 6 1;
#X connect 6 0 3 0;
#X connect 7 0 6 0;
#X restore 436 -216 pd sm;
#N canvas 150 175 450 300 sm 0;
#X obj 109 64 r \$0-sm;
#X obj 109 102 sel;
#X obj 124 83 r \$0-sm1;
#X obj 75 170 outlet;
#X msg 108 123 1;
#X msg 135 123 0;
#X obj 75 149 spigot;
#X obj 75 37 inlet;
#X connect 0 0 1 0;
#X connect 1 0 4 0;
#X connect 1 1 5 0;
#X connect 2 0 1 1;
#X connect 4 0 6 1;
#X connect 5 0 6 1;
#X connect 6 0 3 0;
#X connect 7 0 6 0;
#X restore 146 -246 pd sm;
#X msg 237 -74 symbol;
#X msg 247 -46 symbol;
#X msg 267 -24 symbol;
#X msg 217 -96 symbol;
#X msg 742 -29 symbol;
#X msg 822 -27 symbol;
#X msg 902 -29 symbol;
#X msg 982 -28 symbol;
#X obj 436 -123 r \$0-decay1-s;
#X obj 496 -98 r \$0-decay2-s;
#X obj 585 -130 r \$0-pitch-s;
#X msg 663 -29 symbol;
#X msg 147 -196 symbol DECAY1;
#X msg 167 -174 symbol DECAY2;
#X msg 177 -146 symbol PITCH;
#X msg 197 -124 symbol;
#X connect 0 0 30 0;
#X connect 0 0 31 0;
#X connect 0 0 32 0;
#X connect 0 0 33 0;
#X connect 0 0 21 0;
#X connect 0 0 18 0;
#X connect 0 0 19 0;
#X connect 0 0 20 0;
#X connect 2 0 17 0;
#X connect 3 0 2 1;
#X connect 4 0 2 0;
#X connect 6 0 5 0;
#X connect 7 0 5 1;
#X connect 8 0 5 2;
#X connect 9 0 6 0;
#X connect 10 0 7 0;
#X connect 11 0 8 0;
#X connect 12 0 16 0;
#X connect 13 0 12 1;
#X connect 14 0 12 0;
#X connect 15 0 9 0;
#X connect 15 0 10 0;
#X connect 15 0 11 0;
#X connect 15 0 22 0;
#X connect 15 0 23 0;
#X connect 15 0 24 0;
#X connect 15 0 25 0;
#X connect 15 0 29 0;
#X connect 16 0 15 0;
#X connect 17 0 0 0;
#X connect 18 0 1 5;
#X connect 19 0 1 6;
#X connect 20 0 1 7;
#X connect 21 0 1 4;
#X connect 22 0 5 4;
#X connect 23 0 5 5;
#X connect 24 0 5 6;
#X connect 25 0 5 7;
#X connect 26 0 9 0;
#X connect 27 0 10 0;
#X connect 28 0 11 0;
#X connect 29 0 5 3;
#X connect 30 0 1 0;
#X connect 31 0 1 1;
#X connect 32 0 1 2;
#X connect 33 0 1 3;
#X restore 21 71 pd push-display;
#X obj 400 72 s \$0-mm;
#X obj 399 122 s \$0-sm1;
#X text 513 93 The Submenu number of the subpatch;
#X obj 399 144 loadbang;
#X msg 399 164 1;
#X obj 399 183 s \$0-sm2;
#X obj 231 97 hradio 16 1 0 8 empty empty empty 0 -8 0 10 #fcfcfc #000000 #000000 0;
#X obj 231 34 r all-menu;
#X obj 231 74 route;
#X obj 258 53 r \$0-mm;
#X obj 231 198 s \$0-sm;
#X obj 400 29 r \$0-main-menu-s;
#X obj 400 50 + 1;
#X obj 399 94 r \$0-sub-menu-s;
#X connect 5 0 6 0;
#X connect 6 0 7 0;
#X connect 8 0 12 0;
#X connect 9 0 10 0;
#X connect 10 0 8 0;
#X connect 11 0 10 1;
#X connect 13 0 14 0;
#X connect 14 0 2 0;
#X connect 15 0 3 0;
#X restore 363 59 pd push-controll;
#X msg 533 554 1;
#X msg 506 594 \; pd-\$1options vis \$2;
#X obj 506 554 f \$0;
#X obj 506 573 pack f f;
#X obj 247 229 bng 10 250 50 0 \$0-options-button \$0-options-button-r OPTIONS -45 5 0 10 #fcfcfc #000000 #000000;
#X obj 506 535 t b b;
#X obj 506 516 r \$0-options-button;
#X text 504 491 Opens the Options-Subpatch:;
#N canvas 551 310 191 154 \$0options 0;
#X text 11 10 Ableton-Push-Interface:;
#X obj 15 50 hradio 16 1 0 8 \$0-main-menu-s \$0-main-menu-r Main-Menu 0 -8 0 10 #fcfcfc #000000 #000000 0;
#X obj 15 90 hradio 16 1 0 8 \$0-sub-menu-s \$0-sub-menu-r Sub-Menu 0 -8 0 10 #fcfcfc #000000 #000000 0;
#X restore 505 627 pd \$0options;
#X obj 226 645 dac~;
#X msg 53 26 100 100;
#X connect 1 0 22 0;
#X connect 6 0 10 0;
#X connect 7 0 10 1;
#X connect 8 0 10 1;
#X connect 10 0 16 0;
#X connect 10 1 14 0;
#X connect 11 0 36 0;
#X connect 13 0 39 0;
#X connect 15 0 20 0;
#X connect 17 0 20 1;
#X connect 22 0 17 0;
#X connect 22 1 23 0;
#X connect 24 0 13 1;
#X connect 25 0 13 2;
#X connect 26 0 28 0;
#X connect 28 0 29 0;
#X connect 29 0 27 0;
#X connect 33 0 32 0;
#X connect 34 0 32 1;
#X connect 36 0 37 0;
#X connect 36 1 37 1;
#X connect 37 0 38 0;
#X connect 37 1 40 0;
#X connect 38 0 13 0;
#X connect 39 0 0 0;
#X connect 39 0 80 0;
#X connect 39 0 80 1;
#X connect 40 0 42 0;
#X connect 41 0 39 1;
#X connect 42 0 41 0;
#X connect 44 0 45 0;
#X connect 45 0 3 0;
#X connect 46 0 47 0;
#X connect 47 0 61 0;
#X connect 48 0 50 0;
#X connect 49 0 60 0;
#X connect 50 0 49 0;
#X connect 51 0 53 0;
#X connect 52 0 54 0;
#X connect 53 0 64 0;
#X connect 54 0 51 0;
#X connect 55 0 56 0;
#X connect 56 0 57 0;
#X connect 57 0 52 0;
#X connect 58 0 51 0;
#X connect 58 0 55 0;
#X connect 59 0 65 0;
#X connect 60 0 59 1;
#X connect 61 0 62 0;
#X connect 62 0 63 0;
#X connect 63 0 2 0;
#X connect 63 0 69 0;
#X connect 64 0 59 0;
#X connect 65 0 62 0;
#X connect 65 1 62 1;
#X connect 66 0 46 0;
#X connect 68 0 48 0;
#X connect 71 0 74 1;
#X connect 73 0 74 0;
#X connect 74 0 72 0;
#X connect 76 0 73 0;
#X connect 76 1 71 0;
#X connect 77 0 76 0;
#X connect 81 0 36 0;
#X coords 0 -1 1 1 220 160 1 100 100;
