#N canvas 170 100 1127 694 10;
#X obj 1070 22 inlet~;
#X obj 1105 604 outlet~;
#X obj 1301 607 outlet~;
#X obj 137 232 hsl 128 15 0 127 0 1 \$0-param-4-s \$0-param-4-r LPASS 133 7 0 10 #f2e6c9 #000000 #000000 3600 1;
#X obj 137 170 hsl 128 15 0 127 0 1 \$0-param-2-s \$0-param-2-r R-RATE 133 7 0 10 #2e6b3f #000000 #000000 3000 1;
#X obj 137 263 hsl 128 15 0 127 0 1 \$0-param-5-s \$0-param-5-r DR/WT 133 7 0 10 #d4b06a #000000 #000000 9000 1;
#X obj 137 139 hsl 128 15 0 127 0 1 \$0-param-1-s \$0-param-1-r L-RATE 133 7 0 10 #1f4d2b #000000 #000000 2900 1;
#X obj 137 294 hsl 128 15 0 127 0 1 \$0-param-6-s \$0-param-6-r - 133 7 0 10 #c85a2a #000000 #000000 1800 1;
#X obj 137 325 hsl 128 15 0 127 0 1 \$0-param-7-s \$0-param-7-r - 133 7 0 10 #3a3a3a #000000 #000000 0 1;
#X obj 137 201 hsl 128 15 0 127 0 1 \$0-param-3-s \$0-param-3-r FDBACK 133 7 0 10 #8fa37a #000000 #000000 10500 1;
#X obj 103 109 cnv 5 5 5 empty empty IN 0 0 0 8 #ffffff #ff8300 0;
#X obj 134 127 cnv 5 5 5 empty \$0-modul-name DELAY 0 0 0 12 #fcfcfc #404040 0;
#X obj 176 127 cnv 5 5 5 empty \$0-instance-num 6 0 0 0 12 #fcfcfc #404040 0;
#X obj 103 362 cnv 5 5 5 empty empty OUT 0 0 0 8 #fcfcfc #000000 0;
#X obj 199 109 cnv 5 5 5 empty empty MOD1 0 0 0 8 #fcfcfc #404040 0;
#X obj 308 358 bng 10 250 50 0 \$0-options-button \$0-options-button-r OPTIONS -45 5 0 10 #fcfcfc #000000 #000000;
#X text 487 248 <--rename labels here;
#X text 487 268 <--modules values are saved here;
#X obj 337 118 text define -k \$0-modul-settings;
#A set DELAY \; L-RATE \; R-RATE \; FDBACK \; LPASS \; DR/WT \; - \; - \; none \; SRC \; 7 \; #1f4d2b \; #2e6b3f \; #8fa37a \; #f2e6c9 \; #d4b06a \; #c85a2a \; #3a3a3a \; #bfc3c6 \;;
#N canvas 324 349 425 350 info 0;
#X text 23 12 This textfile contains all necessery names of the module and the names of the gui (faders etc.). This way its much easier to change the names of all elements simply by editing the text object.;
#X text 25 93 The Order of the file \; 0=Modul-Name \; 1=Name Param1 - write non if unused \; 2=Name Param2 \; 3=Name Param3 \; 4=Name Param4 \; 5=Name Param5 \; 6=Name Param6 \; 7=Name Param7 \; 8=Name Param8 \; 9=Type of Module (SRC \, MOD \, LFO \, EFX etc) \; 10=Number of used Parameters (1-8) \; 11=Color of Param1-Circle 12=Color of Param2-Circle \; 13=Color of Param3-Circle \; 14=Color of Param4-Circle \; 15=Color of Param5-Circle \; 16=Color of Param6-Circle \; 17=Color of Param7-Circle \; 18=Color of Param8-Circle \; ....;
#X restore 559 119 pd info;
#X text 537 118 ->;
#X text 335 98 Parameter-Values + Names + Colors:;
#X text 438 286 <--Opens the Options-Subpatch;
#X text 99 82 DESKTOP-GUI-INTERFACE:;
#X obj 339 522 s \$0-param-1-t;
#X msg 339 503 symbol \$1%;
#X obj 339 445 / 1.27;
#X floatatom 339 464 5 0 0 0 - - - 0;
#X obj 339 484 i;
#X obj 337 354 s \$0-a;
#X obj 391 354 s \$0-b;
#X obj 445 354 s \$0-c;
#X obj 500 354 s \$0-d;
#X obj 554 353 s \$0-e;
#X obj 609 353 s \$0-f;
#X obj 663 352 s \$0-g;
#X obj 718 352 s \$0-h;
#X text 562 34 <--these go to the dsp-object;
#X text 437 206 <--receives encoder messages from mother.pd;
#X text 437 186 <--sends display info to mother.pd;
#X text 447 226 <--checks menu and if module is "active";
#X text 533 7 <--receives audio + message for mod;
#X obj 339 424 r \$0-param-1-s;
#X msg 435 503 symbol \$1%;
#X obj 435 445 / 1.27;
#X floatatom 435 464 5 0 0 0 - - - 0;
#X obj 435 484 i;
#X obj 435 424 r \$0-param-2-s;
#X obj 435 522 s \$0-param-2-t;
#X msg 533 502 symbol \$1%;
#X obj 533 444 / 1.27;
#X floatatom 533 463 5 0 0 0 - - - 0;
#X obj 533 483 i;
#X obj 533 423 r \$0-param-3-s;
#X obj 533 521 s \$0-param-3-t;
#X msg 633 502 symbol \$1%;
#X obj 633 444 / 1.27;
#X floatatom 633 463 5 0 0 0 - - - 0;
#X obj 633 483 i;
#X obj 633 423 r \$0-param-4-s;
#X obj 633 521 s \$0-param-4-t;
#X msg 339 643 symbol \$1%;
#X obj 339 585 / 1.27;
#X floatatom 339 604 5 0 0 0 - - - 0;
#X obj 339 624 i;
#X msg 435 643 symbol \$1%;
#X obj 435 585 / 1.27;
#X floatatom 435 604 5 0 0 0 - - - 0;
#X obj 435 624 i;
#X msg 533 642 symbol \$1%;
#X obj 533 584 / 1.27;
#X floatatom 533 603 5 0 0 0 - - - 0;
#X obj 533 623 i;
#X msg 633 642 symbol \$1%;
#X obj 633 584 / 1.27;
#X floatatom 633 603 5 0 0 0 - - - 0;
#X obj 633 623 i;
#X obj 339 564 r \$0-param-5-s;
#X obj 339 662 s \$0-param-5-t;
#X obj 435 564 r \$0-param-6-s;
#X obj 435 662 s \$0-param-6-t;
#X obj 533 563 r \$0-param-7-s;
#X obj 533 661 s \$0-param-7-t;
#X obj 633 563 r \$0-param-8-s;
#X obj 633 661 s \$0-param-8-t;
#X obj 137 154 hsl 61 8 0 127 0 1 \$0-param-9-s \$0-param-9-r empty 133 7 0 10 #606060 #000000 #000000 2126 1;
#X obj 204 154 hsl 61 8 0 127 0 1 \$0-param-17-s \$0-param-17-r empty 133 7 0 10 #7c7c7c #000000 #000000 2070 1;
#X obj 137 185 hsl 61 8 0 127 0 1 \$0-param-10-s \$0-param-10-r empty 133 7 0 10 #606060 #000000 #000000 2600 1;
#X obj 204 185 hsl 61 8 0 127 0 1 \$0-param-18-s \$0-param-18-r empty 133 7 0 10 #7c7c7c #000000 #000000 1356 1;
#X obj 137 216 hsl 61 8 0 127 0 1 \$0-param-11-s \$0-param-11-r empty 133 7 0 10 #606060 #000000 #000000 0 1;
#X obj 204 216 hsl 61 8 0 127 0 1 \$0-param-19-s \$0-param-19-r empty 133 7 0 10 #7c7c7c #000000 #000000 0 1;
#X obj 137 247 hsl 61 8 0 127 0 1 \$0-param-12-s \$0-param-12-r empty 133 7 0 10 #606060 #000000 #000000 0 1;
#X obj 204 247 hsl 61 8 0 127 0 1 \$0-param-20-s \$0-param-20-r empty 133 7 0 10 #7c7c7c #000000 #000000 0 1;
#X obj 137 278 hsl 61 8 0 127 0 1 \$0-param-13-s \$0-param-13-r empty 133 7 0 10 #606060 #000000 #000000 0 1;
#X obj 204 278 hsl 61 8 0 127 0 1 \$0-param-21-s \$0-param-21-r empty 133 7 0 10 #7c7c7c #000000 #000000 0 1;
#X obj 137 309 hsl 61 8 0 127 0 1 \$0-param-14-s \$0-param-14-r empty 133 7 0 10 #606060 #000000 #000000 0 1;
#X obj 204 309 hsl 61 8 0 127 0 1 \$0-param-22-s \$0-param-22-r empty 133 7 0 10 #7c7c7c #000000 #000000 0 1;
#X obj 137 340 hsl 61 8 0 127 0 1 \$0-param-15-s \$0-param-15-r empty 133 7 0 10 #606060 #000000 #000000 0 1;
#X obj 204 340 hsl 61 8 0 127 0 1 \$0-param-23-s \$0-param-23-r empty 133 7 0 10 #7c7c7c #000000 #000000 0 1;
#X obj 298 108 cnv 5 5 5 empty empty MOD2 0 0 0 8 #fcfcfc #404040 0;
#X obj 337 186 core_display \$0;
#X obj 337 206 core_encoder \$0;
#X obj 337 227 core_main_menu \$0;
#X obj 337 248 core_module_settings \$0;
#X obj 337 326 core_modulation_receiver \$0, f 64;
#X obj 337 268 core_state_saving \$0 \$1;
#X obj 337 287 core_options \$0;
#X text 336 165 Modul Core:;
#X text 337 400 Value Display Representation:;
#N canvas 0 25 1440 847 dsp 0;
#X obj 33 22 inlet~;
#X obj 111 22 inlet;
#X obj 176 22 inlet;
#X text 108 5 rate left;
#X text 174 5 rate right;
#X obj 255 21 inlet;
#X text 253 4 feedback;
#X obj 325 21 inlet;
#X text 323 4 lowpass;
#X obj 388 23 inlet;
#X text 386 6 dry/wet;
#X obj 29 156 hsl 128 15 0 127 0 1 \$0-stereo-delay-rate-left-s \$0-stereo-delay-rate-left-r RATE-LEFT 133 7 0 10 #fcfcfc #000000 #000000 4188 1;
#X obj 29 186 hsl 128 15 0 127 0 1 \$0-stereo-delay-feedback-s \$0-stereo-delay-feedback-r FEEDBACK 133 7 0 10 #fcfcfc #000000 #000000 10500 1;
#X obj 271 534 *~ -1;
#X obj 4 514 *~;
#X obj 271 510 *~;
#X obj 29 215 hsl 128 15 0 127 0 1 \$0-stereo-delay-dry/wet-s \$0-stereo-delay-dry/wet-r DRY/WET 133 7 0 10 #fcfcfc #000000 #000000 9000 1;
#X obj 19 304 t f f;
#X msg 19 326 127 \$1;
#X obj 19 348 -;
#X obj 19 370 / 127;
#X obj 19 392 pack 0 50;
#X obj 19 414 line~;
#X obj 171 449 / 127;
#X obj 171 471 pack 0 50;
#X obj 171 493 line~;
#X obj 4 544 hip~ 5;
#X obj 272 562 min~ 1;
#X obj 272 584 max~ -1;
#X obj 272 671 outlet~;
#X obj 63 136 cnv 5 5 5 empty empty RATE-L 0 0 0 8 #fcfcfc #404040 0;
#X obj 26 149 cnv 5 5 5 empty empty STEREO-DELAY 0 0 0 12 #fcfcfc #404040 0;
#X obj 25 136 cnv 5 5 5 empty empty IN 0 0 0 8 #fcfcfc #404040 0;
#N canvas 0 22 793 555 delay1 0;
#X obj 195 112 inlet~;
#X obj 365 109 inlet;
#X obj 365 131 / 127;
#X obj 365 197 sig~;
#X obj 365 461 outlet~;
#X obj 456 311 *~;
#X obj 472 113 inlet;
#X obj 472 137 / 127;
#X obj 472 208 pack 0 50;
#X obj 472 230 line~;
#X text 454 96 FEEDBACK;
#X text 365 89 DELAY;
#X text 193 90 SIGNAL IN;
#X obj 472 181 + 0.5;
#X obj 472 159 * 0.48;
#X obj 365 286 vd~ \$0-dly1;
#X obj 365 175 + 10;
#X obj 365 153 * 499;
#X obj 472 282 min~ 0.98;
#X obj 365 219 +~;
#X obj 410 158 inlet~;
#X obj 410 180 *~ 499;
#X obj 410 202 +~ 10;
#X text 415 139 CV IN;
#X obj 472 252 +~;
#X obj 546 235 inlet~;
#X obj 197 465 delwrite~ \$0-dly1 500;
#X obj 365 241 lop~ 1;
#X connect 0 0 26 0;
#X connect 1 0 2 0;
#X connect 2 0 17 0;
#X connect 3 0 19 0;
#X connect 5 0 26 0;
#X connect 6 0 7 0;
#X connect 7 0 14 0;
#X connect 8 0 9 0;
#X connect 9 0 24 0;
#X connect 13 0 8 0;
#X connect 14 0 13 0;
#X connect 15 0 4 0;
#X connect 15 0 5 0;
#X connect 16 0 3 0;
#X connect 17 0 16 0;
#X connect 18 0 5 1;
#X connect 19 0 27 0;
#X connect 20 0 21 0;
#X connect 21 0 22 0;
#X connect 22 0 19 1;
#X connect 24 0 18 0;
#X connect 25 0 24 1;
#X connect 27 0 15 0;
#X restore 271 207 pd delay1;
#X obj 29 171 hsl 128 15 0 127 0 1 \$0-stereo-delay-rate-right-s \$0-stereo-delay-rate-right-r RATE-RIGHT 133 7 0 10 #fcfcfc #000000 #000000 4574 1;
#X obj 395 532 *~ -1;
#X obj 395 510 *~;
#X obj 396 560 min~ 1;
#X obj 396 582 max~ -1;
#X obj 396 671 outlet~;
#X obj 111 136 cnv 5 5 5 empty empty RATE-R 0 0 0 8 #fcfcfc #404040 0;
#X obj 157 136 cnv 5 5 5 empty empty FBACK 0 0 0 8 #fcfcfc #404040 0;
#X obj 28 240 cnv 5 5 5 empty empty LEFT 0 0 0 8 #fcfcfc #404040 0;
#X obj 195 240 cnv 5 5 5 empty empty RIGHT 0 0 0 8 #fcfcfc #404040 0;
#X obj 285 72 r \$0-stereo-delay-rate-left-s;
#X obj 309 140 r \$0-stereo-delay-feedback-s;
#X obj 395 458 lop~;
#X obj 395 480 lop~;
#X obj 29 200 hsl 128 15 0 127 0 1 \$0-stereo-delay-lowpass-s \$0-stereo-delay-lowpass-r LOWPASS 133 7 0 10 #fcfcfc #000000 #000000 3600 1;
#X obj 636 316 / 127;
#X obj 636 365 * 4950;
#X obj 636 387 + 50;
#X obj 636 409 pack 0 50;
#X obj 636 431 line;
#X obj 636 294 r \$0-stereo-delay-lowpass-s;
#X obj 271 445 lop~;
#X obj 271 467 lop~;
#X obj 636 480 t f f f f;
#X obj 196 136 cnv 5 5 5 empty empty LPASS 0 0 0 8 #fcfcfc #404040 0;
#X text 293 96 RATE-LEFT CV INPUT;
#X text 490 305 FEEDBACK CV INPUT;
#X obj 433 271 r \$0-stereo-delay-feedback-s;
#X obj 409 203 r \$0-stereo-delay-rate-right-s;
#N canvas 0 22 793 555 delay2 0;
#X obj 195 112 inlet~;
#X obj 365 109 inlet;
#X obj 365 131 / 127;
#X obj 365 197 sig~;
#X obj 365 461 outlet~;
#X obj 456 311 *~;
#X obj 472 113 inlet;
#X obj 472 137 / 127;
#X obj 472 208 pack 0 50;
#X obj 472 230 line~;
#X text 454 96 FEEDBACK;
#X text 365 89 DELAY;
#X text 193 90 SIGNAL IN;
#X obj 472 181 + 0.5;
#X obj 472 159 * 0.48;
#X obj 365 175 + 10;
#X obj 365 153 * 499;
#X obj 472 282 min~ 0.98;
#X obj 365 219 +~;
#X obj 410 158 inlet~;
#X obj 410 180 *~ 499;
#X obj 410 202 +~ 10;
#X text 415 139 CV IN;
#X obj 472 252 +~;
#X obj 546 235 inlet~;
#X obj 365 286 vd~ \$0-dly2;
#X obj 197 465 delwrite~ \$0-dly2 500;
#X obj 365 241 lop~ 1;
#X connect 0 0 26 0;
#X connect 1 0 2 0;
#X connect 2 0 16 0;
#X connect 3 0 18 0;
#X connect 5 0 26 0;
#X connect 6 0 7 0;
#X connect 7 0 14 0;
#X connect 8 0 9 0;
#X connect 9 0 23 0;
#X connect 13 0 8 0;
#X connect 14 0 13 0;
#X connect 15 0 3 0;
#X connect 16 0 15 0;
#X connect 17 0 5 1;
#X connect 18 0 27 0;
#X connect 19 0 20 0;
#X connect 20 0 21 0;
#X connect 21 0 18 1;
#X connect 23 0 17 0;
#X connect 24 0 23 1;
#X connect 25 0 4 0;
#X connect 25 0 5 0;
#X connect 27 0 25 0;
#X restore 395 338 pd delay2;
#X text 418 227 RATE-RIGHT CV INPUT;
#X obj 636 338 +;
#X obj 815 299 snapshot~;
#X obj 815 321 t b f;
#X obj 115 149 cnv 5 5 5 empty \$0-instance-num 6 0 0 0 12 #fcfcfc #404040 0;
#N canvas 63 88 907 544 phaser 0;
#X obj 74 38 inlet~;
#X obj 414 28 inlet;
#X obj 96 127 rpole~;
#X obj 96 102 rzero_rev~;
#X obj 96 176 rpole~;
#X obj 96 151 rzero_rev~;
#X obj 96 224 rpole~;
#X obj 96 199 rzero_rev~;
#X obj 96 273 rpole~;
#X obj 96 248 rzero_rev~;
#X obj 73 403 +~;
#X obj 73 430 outlet~;
#X obj 528 30 u_loader e_phaser-\$1 \$0;
#X obj 577 78 u_dispatch \$0 freq;
#X obj 403 180 r \$0-freq;
#X obj 403 211 phasor~ 0.3;
#X text 339 129 replacement for: expr~ 1 - 0.03 - 0.6*abs($v1-0.5)*abs($v1-0.5);
#X obj 345 211 sig~ 1;
#X obj 345 237 -~;
#X obj 346 281 min~;
#X obj 346 306 *~;
#X obj 270 360 -~;
#X obj 271 330 sig~ 0.97;
#X obj 577 100 u_dispatch \$0 depth;
#X obj 406 300 line~;
#X obj 489 250 loadbang;
#X obj 489 271 f 0.6;
#X obj 346 333 *~;
#X obj 406 245 r \$0-depth;
#X obj 406 271 pack 0 10;
#N canvas 228 198 627 317 LICENSE-BSD 0;
#X text 121 56 This software is copyrighted by Miller Puckette \, Reality Jockey Ltd. and others. The terms (the "Standard Improved BSD License") apply to all files associated with the software unless explicitly disclaimed in individual files.;
#X text 123 148 See the file LICENSE.txt for the full license text.;
#X restore 727 19 pd LICENSE-BSD;
#X obj 96 323 rpole~;
#X obj 96 298 rzero_rev~;
#X obj 96 373 rpole~;
#X obj 96 348 rzero_rev~;
#X obj 320 38 inlet;
#X connect 0 0 3 0;
#X connect 0 0 10 0;
#X connect 1 0 29 0;
#X connect 2 0 5 0;
#X connect 3 0 2 0;
#X connect 4 0 7 0;
#X connect 5 0 4 0;
#X connect 6 0 9 0;
#X connect 7 0 6 0;
#X connect 8 0 32 0;
#X connect 9 0 8 0;
#X connect 10 0 11 0;
#X connect 13 0 23 0;
#X connect 14 0 15 0;
#X connect 15 0 19 1;
#X connect 15 0 18 1;
#X connect 17 0 18 0;
#X connect 18 0 19 0;
#X connect 19 0 20 0;
#X connect 19 0 20 1;
#X connect 20 0 27 0;
#X connect 21 0 3 1;
#X connect 21 0 2 1;
#X connect 21 0 5 1;
#X connect 21 0 4 1;
#X connect 21 0 7 1;
#X connect 21 0 6 1;
#X connect 21 0 9 1;
#X connect 21 0 8 1;
#X connect 21 0 32 1;
#X connect 21 0 31 1;
#X connect 21 0 34 1;
#X connect 21 0 33 1;
#X connect 22 0 21 0;
#X connect 24 0 27 1;
#X connect 25 0 26 0;
#X connect 26 0 24 0;
#X connect 27 0 21 1;
#X connect 28 0 29 0;
#X connect 29 0 24 0;
#X connect 31 0 34 0;
#X connect 32 0 31 0;
#X connect 33 0 10 1;
#X connect 34 0 33 0;
#X connect 35 0 15 0;
#X restore 276 624 pd phaser;
#X msg 63 650 freq \$1;
#X obj 66 608 hsl 128 15 0 1 0 0 empty empty Frequency -2 -8 1 10 #fcfcfc #000000 #000000 0 1;
#X obj 86 700 hsl 128 15 0 1 0 0 empty empty Depth -2 -8 1 10 #fcfcfc #000000 #000000 0 1;
#X msg 83 742 depth \$1;
#X floatatom 63 628 5 0 0 0 - - - 0;
#X floatatom 83 720 5 0 0 0 - - - 0;
#N canvas 63 88 907 544 phaser 0;
#X obj 74 38 inlet~;
#X obj 414 28 inlet;
#X obj 96 127 rpole~;
#X obj 96 102 rzero_rev~;
#X obj 96 176 rpole~;
#X obj 96 151 rzero_rev~;
#X obj 96 224 rpole~;
#X obj 96 199 rzero_rev~;
#X obj 96 273 rpole~;
#X obj 96 248 rzero_rev~;
#X obj 73 403 +~;
#X obj 73 430 outlet~;
#X obj 528 30 u_loader e_phaser-\$1 \$0;
#X obj 577 78 u_dispatch \$0 freq;
#X obj 403 180 r \$0-freq;
#X obj 403 211 phasor~ 0.3;
#X text 339 129 replacement for: expr~ 1 - 0.03 - 0.6*abs($v1-0.5)*abs($v1-0.5);
#X obj 345 211 sig~ 1;
#X obj 345 237 -~;
#X obj 346 281 min~;
#X obj 346 306 *~;
#X obj 270 360 -~;
#X obj 271 330 sig~ 0.97;
#X obj 577 100 u_dispatch \$0 depth;
#X obj 406 300 line~;
#X obj 489 250 loadbang;
#X obj 489 271 f 0.6;
#X obj 346 333 *~;
#X obj 406 245 r \$0-depth;
#X obj 406 271 pack 0 10;
#N canvas 228 198 627 317 LICENSE-BSD 0;
#X text 121 56 This software is copyrighted by Miller Puckette \, Reality Jockey Ltd. and others. The terms (the "Standard Improved BSD License") apply to all files associated with the software unless explicitly disclaimed in individual files.;
#X text 123 148 See the file LICENSE.txt for the full license text.;
#X restore 727 19 pd LICENSE-BSD;
#X obj 96 323 rpole~;
#X obj 96 298 rzero_rev~;
#X obj 96 373 rpole~;
#X obj 96 348 rzero_rev~;
#X obj 320 38 inlet;
#X connect 0 0 3 0;
#X connect 0 0 10 0;
#X connect 1 0 29 0;
#X connect 2 0 5 0;
#X connect 3 0 2 0;
#X connect 4 0 7 0;
#X connect 5 0 4 0;
#X connect 6 0 9 0;
#X connect 7 0 6 0;
#X connect 8 0 32 0;
#X connect 9 0 8 0;
#X connect 10 0 11 0;
#X connect 13 0 23 0;
#X connect 14 0 15 0;
#X connect 15 0 19 1;
#X connect 15 0 18 1;
#X connect 17 0 18 0;
#X connect 18 0 19 0;
#X connect 19 0 20 0;
#X connect 19 0 20 1;
#X connect 20 0 27 0;
#X connect 21 0 3 1;
#X connect 21 0 2 1;
#X connect 21 0 5 1;
#X connect 21 0 4 1;
#X connect 21 0 7 1;
#X connect 21 0 6 1;
#X connect 21 0 9 1;
#X connect 21 0 8 1;
#X connect 21 0 32 1;
#X connect 21 0 31 1;
#X connect 21 0 34 1;
#X connect 21 0 33 1;
#X connect 22 0 21 0;
#X connect 24 0 27 1;
#X connect 25 0 26 0;
#X connect 26 0 24 0;
#X connect 27 0 21 1;
#X connect 28 0 29 0;
#X connect 29 0 24 0;
#X connect 31 0 34 0;
#X connect 32 0 31 0;
#X connect 33 0 10 1;
#X connect 34 0 33 0;
#X connect 35 0 15 0;
#X restore 396 630 pd phaser;
#X connect 0 0 33 0;
#X connect 0 0 63 0;
#X connect 1 0 11 0;
#X connect 2 0 34 0;
#X connect 5 0 12 0;
#X connect 7 0 48 0;
#X connect 9 0 16 0;
#X connect 13 0 27 0;
#X connect 14 0 26 0;
#X connect 15 0 13 0;
#X connect 16 0 17 0;
#X connect 17 0 18 0;
#X connect 17 1 23 0;
#X connect 18 0 19 0;
#X connect 19 0 20 0;
#X connect 20 0 21 0;
#X connect 21 0 22 0;
#X connect 22 0 14 1;
#X connect 23 0 24 0;
#X connect 24 0 25 0;
#X connect 25 0 15 1;
#X connect 25 0 36 1;
#X connect 26 0 27 0;
#X connect 26 0 37 0;
#X connect 27 0 28 0;
#X connect 28 0 69 0;
#X connect 33 0 55 0;
#X connect 35 0 37 0;
#X connect 36 0 35 0;
#X connect 37 0 38 0;
#X connect 38 0 76 0;
#X connect 44 0 33 1;
#X connect 45 0 33 3;
#X connect 46 0 47 0;
#X connect 47 0 36 0;
#X connect 49 0 65 0;
#X connect 50 0 51 0;
#X connect 51 0 52 0;
#X connect 52 0 53 0;
#X connect 53 0 57 0;
#X connect 54 0 49 0;
#X connect 55 0 56 0;
#X connect 56 0 15 0;
#X connect 57 0 55 1;
#X connect 57 1 56 1;
#X connect 57 2 46 1;
#X connect 57 3 47 1;
#X connect 61 0 63 3;
#X connect 62 0 63 1;
#X connect 63 0 46 0;
#X connect 65 0 50 0;
#X connect 66 0 67 0;
#X connect 67 0 65 0;
#X connect 67 1 65 1;
#X connect 69 0 29 0;
#X connect 71 0 74 0;
#X connect 72 0 75 0;
#X connect 74 0 70 0;
#X connect 74 0 69 1;
#X connect 74 0 76 1;
#X connect 75 0 73 0;
#X connect 75 0 69 2;
#X connect 75 0 76 2;
#X connect 76 0 39 0;
#X restore 1106 583 pd dsp;
#X f 33;
#X obj 1348 414 s \$0-g;
#X obj 1403 414 s \$0-h;
#X obj 1022 416 r \$0-a;
#X obj 1076 416 r \$0-b;
#X obj 1130 416 r \$0-c;
#X obj 1185 416 r \$0-d;
#X obj 1239 415 r \$0-e;
#X obj 1294 415 r \$0-f;
#X obj 1077 440 * 127;
#X obj 1028 443 * 127;
#X obj 1182 440 * 127;
#X obj 1133 443 * 127;
#X obj 1236 449 * 127;
#X obj 1279 108 inlet~;
#X obj 1399 108 inlet~;
#X obj 1279 198 throw~ \$0-mod1;
#X obj 1399 197 throw~ \$0-mod2;
#X text 1277 91 MOD1;
#X text 1397 91 MOD2;
#X obj 337 307 core_mod_display \$0;
#X connect 0 0 109 0;
#X connect 25 0 24 0;
#X connect 26 0 27 0;
#X connect 27 0 28 0;
#X connect 28 0 25 0;
#X connect 42 0 26 0;
#X connect 43 0 48 0;
#X connect 44 0 45 0;
#X connect 45 0 46 0;
#X connect 46 0 43 0;
#X connect 47 0 44 0;
#X connect 49 0 54 0;
#X connect 50 0 51 0;
#X connect 51 0 52 0;
#X connect 52 0 49 0;
#X connect 53 0 50 0;
#X connect 55 0 60 0;
#X connect 56 0 57 0;
#X connect 57 0 58 0;
#X connect 58 0 55 0;
#X connect 59 0 56 0;
#X connect 61 0 78 0;
#X connect 62 0 63 0;
#X connect 63 0 64 0;
#X connect 64 0 61 0;
#X connect 65 0 80 0;
#X connect 66 0 67 0;
#X connect 67 0 68 0;
#X connect 68 0 65 0;
#X connect 69 0 82 0;
#X connect 70 0 71 0;
#X connect 71 0 72 0;
#X connect 72 0 69 0;
#X connect 73 0 84 0;
#X connect 74 0 75 0;
#X connect 75 0 76 0;
#X connect 76 0 73 0;
#X connect 77 0 62 0;
#X connect 79 0 66 0;
#X connect 81 0 70 0;
#X connect 83 0 74 0;
#X connect 104 0 29 0;
#X connect 104 1 30 0;
#X connect 104 2 31 0;
#X connect 104 3 32 0;
#X connect 104 4 33 0;
#X connect 104 5 34 0;
#X connect 104 6 35 0;
#X connect 104 7 36 0;
#X connect 109 0 1 0;
#X connect 109 1 2 0;
#X connect 112 0 119 0;
#X connect 113 0 118 0;
#X connect 114 0 121 0;
#X connect 115 0 120 0;
#X connect 116 0 122 0;
#X connect 118 0 109 2;
#X connect 119 0 109 1;
#X connect 120 0 109 4;
#X connect 121 0 109 3;
#X connect 122 0 109 5;
#X connect 123 0 125 0;
#X connect 124 0 126 0;
#X coords 0 -1 1 1 220 270 2 100 100;
