#N canvas 203 231 1237 459 10;
#X obj 120 146 \$0;
#X floatatom 120 164 5 0 0 0 - - - 0;
#X obj 120 107 loadbang;
#X obj 60 70 r \$0-sub-menu-s;
#X obj 84 88 r \$0-sub2-menu-s;
#X obj 60 88 + 1;
#X obj 84 106 + 1;
#X obj 60 202 pack f f f;
#X obj 62 317 s global-mod-matrix;
#X obj 84 127 t b f;
#X obj 120 127 del 500;
#X obj 120 183 t b f;
#X text 58 55 Sends the subpatch-number:;
#X obj 30 15 r resend-global-mod-matrix;
#X obj 481 295 bng 16 250 50 0 empty empty empty 0 -8 0 10 #fcfcfc #000000 #000000;
#X obj 481 275 t b b;
#X obj 508 295 s delete-mod-matrix;
#X obj 481 315 s resend-global-mod-matrix;
#X listbox 163 266 20 0 0 0 - - - 0;
#X listbox 101 297 20 0 0 0 - - - 0;
#X obj 12 225 bng 16 250 50 0 empty empty empty 0 -8 0 10 #fcfcfc #000000 #000000;
#X obj 481 249 change;
#X connect 0 0 1 0;
#X connect 1 0 11 0;
#X connect 2 0 10 0;
#X connect 3 0 5 0;
#X connect 4 0 6 0;
#X connect 5 0 7 0;
#X connect 5 0 21 0;
#X connect 6 0 9 0;
#X connect 6 0 21 0;
#X connect 7 0 8 0;
#X connect 7 0 18 0;
#X connect 9 0 7 0;
#X connect 9 1 7 1;
#X connect 10 0 0 0;
#X connect 11 0 7 0;
#X connect 11 1 7 2;
#X connect 13 0 7 0;
#X connect 14 0 17 0;
#X connect 15 0 14 0;
#X connect 15 1 16 0;
#X connect 21 0 15 0;
#X coords 0 459 1 458 220 120 0;
