#N canvas 0 25 1440 847 10;
#X declare -path core_state_saving;
#X obj 166 406 loadbang;
#X obj 173 635 f;
#X obj 173 614 t b b b;
#X text 273 582 INSTANCE NUMBER;
#X obj 185 516 t f f f;
#X obj 173 590 bng 15 250 50 0 empty empty empty 17 7 0 10 #fcfcfc #000000 #000000;
#X obj 173 567 r SAVE-S;
#X obj 597 671 r patch-path;
#X msg 558 736 read /Users/johannklug/Documents/Bass\ Dieter/2025/Diet/MODULAR_LIVE_\ PERFORMER/preset_projects/MOLIPE_DRUMS/statesave/2-SYKCK-ss.txt;
#X obj 215 480 s update-path;
#X msg 173 738 write /Users/johannklug/Documents/Bass\ Dieter/2025/Diet/MODULAR_LIVE_\ PERFORMER/projects/patch1/projects/statesave/2-LFO-ss.txt;
#X obj 211 656 r patch-path;
#X obj 173 656 t b f;
#X obj 558 655 f;
#X obj 558 676 t b f;
#X msg 508 471 0, f 6;
#X obj 508 489 text get \$1-modul-settings;
#X obj 183 697 pack f s s;
#X obj 569 696 pack f s s;
#X obj 276 564 s \$1-instance-num;
#X obj 276 528 makefilename %d;
#X msg 276 546 label \$1;
#X obj 166 439 t b b b b;
#X obj 281 975 r \$1-param-1-s;
#X obj 230 958 loadbang;
#X msg 230 976 1;
#X obj 230 1057 s \$1-param-1-r;
#X obj 255 1038 s \$1-param-1-r-a;
#X obj 281 1018 s \$1-param-1-r-b;
#X obj 410 958 loadbang;
#X msg 410 976 2;
#X obj 461 975 r \$1-param-2-s;
#X obj 461 1018 s \$1-param-2-r-b;
#X obj 435 1038 s \$1-param-2-r-a;
#X obj 410 1057 s \$1-param-2-r;
#X obj 600 958 loadbang;
#X obj 780 958 loadbang;
#X msg 600 976 3;
#X msg 780 976 4;
#X obj 651 975 r \$1-param-3-s;
#X obj 651 1018 s \$1-param-3-r-b;
#X obj 625 1038 s \$1-param-3-r-a;
#X obj 600 1057 s \$1-param-3-r;
#X obj 831 975 r \$1-param-4-s;
#X obj 831 1018 s \$1-param-4-r-b;
#X obj 805 1038 s \$1-param-4-r-a;
#X obj 780 1057 s \$1-param-4-r;
#X obj 230 1098 loadbang;
#X obj 410 1098 loadbang;
#X obj 600 1098 loadbang;
#X obj 780 1098 loadbang;
#X msg 230 1116 5;
#X obj 281 1115 r \$1-param-5-s;
#X obj 281 1158 s \$1-param-5-r-b;
#X obj 255 1178 s \$1-param-5-r-a;
#X obj 230 1197 s \$1-param-5-r;
#X msg 410 1116 6;
#X obj 461 1115 r \$1-param-6-s;
#X obj 461 1158 s \$1-param-6-r-b;
#X obj 435 1178 s \$1-param-6-r-a;
#X obj 410 1197 s \$1-param-6-r;
#X msg 600 1116 7;
#X obj 651 1115 r \$1-param-7-s;
#X obj 651 1158 s \$1-param-7-r-b;
#X obj 625 1178 s \$1-param-7-r-a;
#X obj 600 1197 s \$1-param-7-r;
#X msg 780 1116 8;
#X obj 831 1115 r \$1-param-8-s;
#X obj 831 1158 s \$1-param-8-r-b;
#X obj 805 1178 s \$1-param-8-r-a;
#X obj 780 1197 s \$1-param-8-r;
#X obj 230 1238 loadbang;
#X obj 410 1238 loadbang;
#X obj 600 1238 loadbang;
#X obj 780 1238 loadbang;
#X msg 230 1256 9;
#X obj 281 1255 r \$1-param-9-s;
#X obj 281 1298 s \$1-param-9-r-b;
#X obj 255 1318 s \$1-param-9-r-a;
#X obj 230 1337 s \$1-param-9-r;
#X msg 410 1256 10;
#X obj 461 1255 r \$1-param-10-s;
#X obj 461 1298 s \$1-param-10-r-b;
#X obj 435 1318 s \$1-param-10-r-a;
#X obj 410 1337 s \$1-param-10-r;
#X msg 600 1256 11;
#X obj 651 1255 r \$1-param-11-s;
#X obj 651 1298 s \$1-param-11-r-b;
#X obj 625 1318 s \$1-param-11-r-a;
#X obj 600 1337 s \$1-param-11-r;
#X msg 780 1256 12;
#X obj 831 1255 r \$1-param-12-s;
#X obj 831 1299 s \$1-param-12-r-b;
#X obj 805 1318 s \$1-param-12-r-a;
#X obj 780 1337 s \$1-param-12-r;
#X obj 230 1381 loadbang;
#X obj 410 1381 loadbang;
#X obj 600 1381 loadbang;
#X obj 780 1381 loadbang;
#X msg 230 1399 13;
#X obj 281 1398 r \$1-param-13-s;
#X obj 281 1441 s \$1-param-13-r-b;
#X obj 255 1461 s \$1-param-13-r-a;
#X obj 230 1480 s \$1-param-13-r;
#X msg 410 1399 14;
#X obj 461 1398 r \$1-param-14-s;
#X obj 461 1441 s \$1-param-14-r-b;
#X obj 435 1461 s \$1-param-14-r-a;
#X obj 410 1480 s \$1-param-14-r;
#X msg 600 1399 15;
#X obj 651 1398 r \$1-param-15-s;
#X obj 651 1441 s \$1-param-15-r-b;
#X obj 625 1461 s \$1-param-15-r-a;
#X obj 600 1480 s \$1-param-15-r;
#X msg 780 1399 16;
#X obj 831 1398 r \$1-param-16-s;
#X obj 831 1442 s \$1-param-16-r-b;
#X obj 805 1461 s \$1-param-16-r-a;
#X obj 780 1480 s \$1-param-16-r;
#X obj 230 1518 loadbang;
#X obj 410 1518 loadbang;
#X obj 600 1518 loadbang;
#X obj 780 1518 loadbang;
#X msg 230 1536 17;
#X obj 281 1535 r \$1-param-17-s;
#X obj 281 1578 s \$1-param-17-r-b;
#X obj 255 1598 s \$1-param-17-r-a;
#X obj 230 1617 s \$1-param-17-r;
#X msg 410 1536 18;
#X obj 461 1535 r \$1-param-18-s;
#X obj 461 1578 s \$1-param-18-r-b;
#X obj 435 1598 s \$1-param-18-r-a;
#X obj 410 1617 s \$1-param-18-r;
#X msg 600 1536 19;
#X obj 651 1535 r \$1-param-19-s;
#X obj 651 1578 s \$1-param-19-r-b;
#X obj 625 1598 s \$1-param-19-r-a;
#X obj 600 1617 s \$1-param-19-r;
#X msg 780 1536 20;
#X obj 831 1535 r \$1-param-20-s;
#X obj 831 1579 s \$1-param-20-r-b;
#X obj 805 1598 s \$1-param-20-r-a;
#X obj 780 1617 s \$1-param-20-r;
#X obj 230 1668 loadbang;
#X obj 410 1668 loadbang;
#X obj 600 1668 loadbang;
#X obj 780 1668 loadbang;
#X msg 230 1686 21;
#X obj 281 1685 r \$1-param-21-s;
#X obj 281 1728 s \$1-param-21-r-b;
#X obj 255 1748 s \$1-param-21-r-a;
#X obj 230 1767 s \$1-param-21-r;
#X msg 410 1686 22;
#X obj 461 1685 r \$1-param-22-s;
#X obj 461 1728 s \$1-param-22-r-b;
#X obj 435 1748 s \$1-param-22-r-a;
#X obj 410 1767 s \$1-param-22-r;
#X msg 600 1686 23;
#X obj 651 1685 r \$1-param-23-s;
#X obj 651 1728 s \$1-param-23-r-b;
#X obj 625 1748 s \$1-param-23-r-a;
#X obj 600 1767 s \$1-param-23-r;
#X msg 780 1686 24;
#X obj 831 1685 r \$1-param-24-s;
#X obj 831 1729 s \$1-param-24-r-b;
#X obj 805 1748 s \$1-param-24-r-a;
#X obj 780 1767 s \$1-param-24-r;
#X obj 185 480 f \$2;
#X obj 253 615 s \$1-instance-num-2;
#X msg 569 715 set read \$2/statesave/\$1-\$3-ss.txt;
#X msg 183 717 set write \$2/statesave/\$1-\$3-ss.txt;
#X obj 470 870 list prepend;
#X msg 160 201 0, f 6;
#X obj 160 182 loadbang;
#X obj 160 218 text get \$1-modul-settings;
#X listbox 160 261 20 0 0 0 - - - 0;
#X obj 470 850 array get \$1-presets;
#X obj 470 828 bng 16 250 50 0 empty empty empty 0 -8 0 10 #fcfcfc #000000 #000000;
#X listbox 156 348 20 0 0 0 - - - 0;
#X obj 160 240 pack symbol f;
#X msg 156 327 symbol \$1\$2;
#X obj 470 889 s saving-data;
#X obj 214 933 r reload-saving;
#X obj 394 933 r reload-saving;
#X obj 587 937 r reload-saving;
#X obj 767 937 r reload-saving;
#X obj 214 1077 r reload-saving;
#X obj 394 1077 r reload-saving;
#X obj 587 1081 r reload-saving;
#X obj 767 1081 r reload-saving;
#X obj 216 1217 r reload-saving;
#X obj 396 1217 r reload-saving;
#X obj 589 1221 r reload-saving;
#X obj 769 1221 r reload-saving;
#X obj 216 1361 r reload-saving;
#X obj 396 1361 r reload-saving;
#X obj 589 1365 r reload-saving;
#X obj 769 1365 r reload-saving;
#X obj 219 1504 r reload-saving;
#X obj 399 1504 r reload-saving;
#X obj 592 1508 r reload-saving;
#X obj 772 1508 r reload-saving;
#X obj 219 1654 r reload-saving;
#X obj 399 1654 r reload-saving;
#X obj 592 1658 r reload-saving;
#X obj 772 1658 r reload-saving;
#X floatatom 508 288 5 0 0 0 - - - 0;
#X floatatom 562 288 5 0 0 0 - - - 0;
#X obj 508 240 bng 16 250 50 0 empty empty empty 0 -8 0 10 #fcfcfc #000000 #000000;
#X obj 508 267 f \$3;
#X obj 562 267 f \$4;
#X floatatom 508 346 5 0 0 0 - - - 0;
#X obj 562 308 - 1;
#X floatatom 562 347 5 0 0 0 - - - 0;
#X obj 508 308 - 1;
#X obj 562 329 * 25;
#X obj 508 325 * 200;
#X obj 508 365 +;
#X obj 562 367 t b f;
#X obj 508 199 loadbang;
#X obj 508 220 del 20;
#X text 506 178 THIS calculates modul id to load savings from global array;
#X obj 911 182 declare -path core_state_saving;
#X obj 508 414 s \$0-modul-id;
#X obj 230 999 param \$0;
#X obj 410 999 param \$0;
#X obj 600 998 param \$0;
#X obj 780 998 param \$0;
#X obj 230 1136 param \$0;
#X obj 410 1136 param \$0;
#X obj 600 1135 param \$0;
#X obj 780 1135 param \$0;
#X obj 230 1276 param \$0;
#X obj 410 1276 param \$0;
#X obj 600 1275 param \$0;
#X obj 780 1275 param \$0;
#X obj 230 1418 param \$0;
#X obj 410 1418 param \$0;
#X obj 600 1417 param \$0;
#X obj 780 1417 param \$0;
#X obj 230 1557 param \$0;
#X obj 410 1557 param \$0;
#X obj 600 1556 param \$0;
#X obj 780 1556 param \$0;
#X obj 230 1707 param \$0;
#X obj 410 1707 param \$0;
#X obj 600 1706 param \$0;
#X obj 780 1706 param \$0;
#X floatatom 604 416 5 0 0 0 - - - 0;
#X connect 0 0 22 0;
#X connect 1 0 12 0;
#X connect 2 0 1 0;
#X connect 4 0 1 1;
#X connect 4 1 13 0;
#X connect 4 2 20 0;
#X connect 4 2 168 0;
#X connect 4 2 179 1;
#X connect 5 0 177 0;
#X connect 6 0 5 0;
#X connect 7 0 18 1;
#X connect 11 0 17 1;
#X connect 12 0 10 0;
#X connect 12 1 17 0;
#X connect 13 0 14 0;
#X connect 14 0 8 0;
#X connect 14 1 18 0;
#X connect 15 0 16 0;
#X connect 16 0 17 2;
#X connect 16 0 18 2;
#X connect 17 0 170 0;
#X connect 18 0 169 0;
#X connect 20 0 21 0;
#X connect 21 0 19 0;
#X connect 22 1 167 0;
#X connect 22 2 9 0;
#X connect 22 3 15 0;
#X connect 23 0 224 1;
#X connect 24 0 25 0;
#X connect 25 0 224 0;
#X connect 29 0 30 0;
#X connect 30 0 225 0;
#X connect 31 0 225 1;
#X connect 35 0 37 0;
#X connect 36 0 38 0;
#X connect 37 0 226 0;
#X connect 38 0 227 0;
#X connect 39 0 226 1;
#X connect 43 0 227 1;
#X connect 47 0 51 0;
#X connect 48 0 56 0;
#X connect 49 0 61 0;
#X connect 50 0 66 0;
#X connect 51 0 228 0;
#X connect 52 0 228 1;
#X connect 56 0 229 0;
#X connect 57 0 229 1;
#X connect 61 0 230 0;
#X connect 62 0 230 1;
#X connect 66 0 231 0;
#X connect 67 0 231 1;
#X connect 71 0 75 0;
#X connect 72 0 80 0;
#X connect 73 0 85 0;
#X connect 74 0 90 0;
#X connect 75 0 232 0;
#X connect 76 0 232 1;
#X connect 80 0 233 0;
#X connect 81 0 233 1;
#X connect 85 0 234 0;
#X connect 86 0 234 1;
#X connect 90 0 235 0;
#X connect 91 0 235 1;
#X connect 95 0 99 0;
#X connect 96 0 104 0;
#X connect 97 0 109 0;
#X connect 98 0 114 0;
#X connect 99 0 236 0;
#X connect 100 0 236 1;
#X connect 104 0 237 0;
#X connect 105 0 237 1;
#X connect 109 0 238 0;
#X connect 110 0 238 1;
#X connect 114 0 239 0;
#X connect 115 0 239 1;
#X connect 119 0 123 0;
#X connect 120 0 128 0;
#X connect 121 0 133 0;
#X connect 122 0 138 0;
#X connect 123 0 240 0;
#X connect 124 0 240 1;
#X connect 128 0 241 0;
#X connect 129 0 241 1;
#X connect 133 0 242 0;
#X connect 134 0 242 1;
#X connect 138 0 243 0;
#X connect 139 0 243 1;
#X connect 143 0 147 0;
#X connect 144 0 152 0;
#X connect 145 0 157 0;
#X connect 146 0 162 0;
#X connect 147 0 244 0;
#X connect 148 0 244 1;
#X connect 152 0 245 0;
#X connect 153 0 245 1;
#X connect 157 0 246 0;
#X connect 158 0 246 1;
#X connect 162 0 247 0;
#X connect 163 0 247 1;
#X connect 167 0 4 0;
#X connect 169 0 8 0;
#X connect 170 0 10 0;
#X connect 171 0 181 0;
#X connect 172 0 174 0;
#X connect 173 0 172 0;
#X connect 174 0 179 0;
#X connect 175 0 180 0;
#X connect 176 0 171 0;
#X connect 177 0 176 0;
#X connect 178 0 171 1;
#X connect 179 0 175 0;
#X connect 180 0 178 0;
#X connect 182 0 25 0;
#X connect 183 0 30 0;
#X connect 184 0 37 0;
#X connect 185 0 38 0;
#X connect 186 0 51 0;
#X connect 187 0 56 0;
#X connect 188 0 61 0;
#X connect 189 0 66 0;
#X connect 190 0 75 0;
#X connect 191 0 80 0;
#X connect 192 0 85 0;
#X connect 193 0 90 0;
#X connect 194 0 99 0;
#X connect 195 0 104 0;
#X connect 196 0 109 0;
#X connect 197 0 114 0;
#X connect 198 0 123 0;
#X connect 199 0 128 0;
#X connect 200 0 133 0;
#X connect 201 0 138 0;
#X connect 202 0 147 0;
#X connect 203 0 152 0;
#X connect 204 0 157 0;
#X connect 205 0 162 0;
#X connect 206 0 214 0;
#X connect 207 0 212 0;
#X connect 208 0 209 0;
#X connect 208 0 210 0;
#X connect 209 0 206 0;
#X connect 210 0 207 0;
#X connect 211 0 217 0;
#X connect 212 0 215 0;
#X connect 213 0 218 0;
#X connect 214 0 216 0;
#X connect 215 0 213 0;
#X connect 216 0 211 0;
#X connect 217 0 223 0;
#X connect 217 0 248 0;
#X connect 218 0 217 0;
#X connect 218 1 217 1;
#X connect 219 0 220 0;
#X connect 220 0 208 0;
#X connect 224 0 26 0;
#X connect 224 1 27 0;
#X connect 224 2 28 0;
#X connect 225 0 34 0;
#X connect 225 1 33 0;
#X connect 225 2 32 0;
#X connect 226 0 42 0;
#X connect 226 1 41 0;
#X connect 226 2 40 0;
#X connect 227 0 46 0;
#X connect 227 1 45 0;
#X connect 227 2 44 0;
#X connect 228 0 55 0;
#X connect 228 1 54 0;
#X connect 228 2 53 0;
#X connect 229 0 60 0;
#X connect 229 1 59 0;
#X connect 229 2 58 0;
#X connect 230 0 65 0;
#X connect 230 1 64 0;
#X connect 230 2 63 0;
#X connect 231 0 70 0;
#X connect 231 1 69 0;
#X connect 231 2 68 0;
#X connect 232 0 79 0;
#X connect 232 1 78 0;
#X connect 232 2 77 0;
#X connect 233 0 84 0;
#X connect 233 1 83 0;
#X connect 233 2 82 0;
#X connect 234 0 89 0;
#X connect 234 1 88 0;
#X connect 234 2 87 0;
#X connect 235 0 94 0;
#X connect 235 1 93 0;
#X connect 235 2 92 0;
#X connect 236 0 103 0;
#X connect 236 1 102 0;
#X connect 236 2 101 0;
#X connect 237 0 108 0;
#X connect 237 1 107 0;
#X connect 237 2 106 0;
#X connect 238 0 113 0;
#X connect 238 1 112 0;
#X connect 238 2 111 0;
#X connect 239 0 118 0;
#X connect 239 1 117 0;
#X connect 239 2 116 0;
#X connect 240 0 127 0;
#X connect 240 1 126 0;
#X connect 240 2 125 0;
#X connect 241 0 132 0;
#X connect 241 1 131 0;
#X connect 241 2 130 0;
#X connect 242 0 137 0;
#X connect 242 1 136 0;
#X connect 242 2 135 0;
#X connect 243 0 142 0;
#X connect 243 1 141 0;
#X connect 243 2 140 0;
#X connect 244 0 151 0;
#X connect 244 1 150 0;
#X connect 244 2 149 0;
#X connect 245 0 156 0;
#X connect 245 1 155 0;
#X connect 245 2 154 0;
#X connect 246 0 161 0;
#X connect 246 1 160 0;
#X connect 246 2 159 0;
#X connect 247 0 166 0;
#X connect 247 1 165 0;
#X connect 247 2 164 0;
#X coords 0 847 1 846 220 120 0;
