#N canvas 6 67 1293 763 10;
#X obj 53 419 push-encoder-reader;
#X obj 298 414 push-encoder-reader;
#X obj 536 413 push-encoder-reader;
#X obj 781 412 push-encoder-reader;
#X obj 56 628 push-encoder-reader;
#X obj 300 622 push-encoder-reader;
#X obj 538 622 push-encoder-reader;
#X text 37 257 Encoder to volume (submenu1);
#X obj 95 401 r \$1-param-1-s;
#X obj 53 437 s \$1-param-1-r;
#X obj 86 310 r \$1-modul-active;
#X obj 53 329 spigot;
#X obj 331 305 r \$1-modul-active;
#X obj 298 324 spigot;
#X obj 569 304 r \$1-modul-active;
#X obj 536 323 spigot;
#X obj 814 302 r \$1-modul-active;
#X obj 781 321 spigot;
#X obj 89 517 r \$1-modul-active;
#X obj 56 536 spigot;
#X obj 333 509 r \$1-modul-active;
#X obj 300 528 spigot;
#X obj 571 512 r \$1-modul-active;
#X obj 538 531 spigot;
#X obj 53 290 r enc1;
#X obj 298 287 r enc2;
#X obj 536 283 r enc3;
#X obj 781 283 r enc4;
#X obj 56 497 r enc5;
#X obj 300 492 r enc6;
#X obj 538 495 r enc7;
#X obj 782 501 r enc8;
#X obj 298 432 s \$1-param-2-r;
#X obj 536 431 s \$1-param-3-r;
#X obj 781 430 s \$1-param-4-r;
#X obj 56 646 s \$1-param-5-r;
#X obj 300 640 s \$1-param-6-r;
#X obj 538 640 s \$1-param-7-r;
#X obj 409 392 r \$1-param-2-s;
#X obj 647 391 r \$1-param-3-s;
#X obj 892 394 r \$1-param-4-s;
#X obj 167 606 r \$1-param-5-s;
#X obj 411 600 r \$1-param-6-s;
#X obj 649 600 r \$1-param-7-s;
#X obj 782 634 push-encoder-reader;
#X obj 815 519 r \$1-modul-active;
#X obj 782 538 spigot;
#X obj 893 612 r \$1-param-8-s;
#X obj 782 652 s \$1-param-8-r;
#X obj 53 904 push-encoder-reader;
#X obj 86 790 r \$1-modul-active;
#X obj 53 809 spigot;
#X obj 53 770 r enc1;
#X obj 164 882 r \$1-param-9-s;
#X obj 53 925 s \$1-param-9-r;
#X obj 86 847 route 1;
#X obj 86 829 r mod-menu;
#X obj 86 865 tgl 16 0 empty empty empty 0 -8 0 10 #fcfcfc #000000 #000000 0 1;
#X obj 53 886 spigot;
#X text 48 747 Encoder to mod 1;
#X obj 85 347 r mod-menu;
#X obj 85 365 unpack;
#X obj 118 383 - 1;
#X obj 86 383 * -1;
#X obj 53 401 spigot;
#X obj 330 342 r mod-menu;
#X obj 330 360 unpack;
#X obj 363 378 - 1;
#X obj 331 378 * -1;
#X obj 298 396 spigot;
#X obj 568 341 r mod-menu;
#X obj 568 359 unpack;
#X obj 601 377 - 1;
#X obj 569 377 * -1;
#X obj 536 395 spigot;
#X obj 813 339 r mod-menu;
#X obj 813 357 unpack;
#X obj 846 375 - 1;
#X obj 814 375 * -1;
#X obj 781 393 spigot;
#X obj 88 554 r mod-menu;
#X obj 88 572 unpack;
#X obj 121 590 - 1;
#X obj 89 590 * -1;
#X obj 56 608 spigot;
#X obj 332 546 r mod-menu;
#X obj 332 564 unpack;
#X obj 365 582 - 1;
#X obj 333 582 * -1;
#X obj 300 600 spigot;
#X obj 570 549 r mod-menu;
#X obj 570 567 unpack;
#X obj 603 585 - 1;
#X obj 571 585 * -1;
#X obj 538 603 spigot;
#X obj 814 556 r mod-menu;
#X obj 814 574 unpack;
#X obj 847 592 - 1;
#X obj 815 592 * -1;
#X obj 782 610 spigot;
#X obj 303 904 push-encoder-reader;
#X obj 336 790 r \$1-modul-active;
#X obj 303 809 spigot;
#X obj 336 847 route 1;
#X obj 336 829 r mod-menu;
#X obj 336 865 tgl 16 0 empty empty empty 0 -8 0 10 #fcfcfc #000000 #000000 0 1;
#X obj 303 886 spigot;
#X obj 303 770 r enc2;
#X obj 303 925 s \$1-param-10-r;
#X obj 414 882 r \$1-param-10-s;
#X connect 0 0 9 0;
#X connect 1 0 32 0;
#X connect 2 0 33 0;
#X connect 3 0 34 0;
#X connect 4 0 35 0;
#X connect 5 0 36 0;
#X connect 6 0 37 0;
#X connect 8 0 0 1;
#X connect 10 0 11 1;
#X connect 11 0 64 0;
#X connect 12 0 13 1;
#X connect 13 0 69 0;
#X connect 14 0 15 1;
#X connect 15 0 74 0;
#X connect 16 0 17 1;
#X connect 17 0 79 0;
#X connect 18 0 19 1;
#X connect 19 0 84 0;
#X connect 20 0 21 1;
#X connect 21 0 89 0;
#X connect 22 0 23 1;
#X connect 23 0 94 0;
#X connect 24 0 11 0;
#X connect 25 0 13 0;
#X connect 26 0 15 0;
#X connect 27 0 17 0;
#X connect 28 0 19 0;
#X connect 29 0 21 0;
#X connect 30 0 23 0;
#X connect 31 0 46 0;
#X connect 38 0 1 1;
#X connect 39 0 2 1;
#X connect 40 0 3 1;
#X connect 41 0 4 1;
#X connect 42 0 5 1;
#X connect 43 0 6 1;
#X connect 44 0 48 0;
#X connect 45 0 46 1;
#X connect 46 0 99 0;
#X connect 47 0 44 1;
#X connect 49 0 54 0;
#X connect 50 0 51 1;
#X connect 51 0 58 0;
#X connect 52 0 51 0;
#X connect 53 0 49 1;
#X connect 55 0 57 0;
#X connect 56 0 55 0;
#X connect 57 0 58 1;
#X connect 58 0 49 0;
#X connect 60 0 61 0;
#X connect 61 1 62 0;
#X connect 62 0 63 0;
#X connect 63 0 64 1;
#X connect 64 0 0 0;
#X connect 65 0 66 0;
#X connect 66 1 67 0;
#X connect 67 0 68 0;
#X connect 68 0 69 1;
#X connect 69 0 1 0;
#X connect 70 0 71 0;
#X connect 71 1 72 0;
#X connect 72 0 73 0;
#X connect 73 0 74 1;
#X connect 74 0 2 0;
#X connect 75 0 76 0;
#X connect 76 1 77 0;
#X connect 77 0 78 0;
#X connect 78 0 79 1;
#X connect 79 0 3 0;
#X connect 80 0 81 0;
#X connect 81 1 82 0;
#X connect 82 0 83 0;
#X connect 83 0 84 1;
#X connect 84 0 4 0;
#X connect 85 0 86 0;
#X connect 86 1 87 0;
#X connect 87 0 88 0;
#X connect 88 0 89 1;
#X connect 89 0 5 0;
#X connect 90 0 91 0;
#X connect 91 1 92 0;
#X connect 92 0 93 0;
#X connect 93 0 94 1;
#X connect 94 0 6 0;
#X connect 95 0 96 0;
#X connect 96 1 97 0;
#X connect 97 0 98 0;
#X connect 98 0 99 1;
#X connect 99 0 44 0;
#X connect 100 0 108 0;
#X connect 101 0 102 1;
#X connect 102 0 106 0;
#X connect 103 0 105 0;
#X connect 104 0 103 0;
#X connect 105 0 106 1;
#X connect 106 0 100 0;
#X connect 107 0 102 0;
#X connect 109 0 100 1;
#X coords 0 763 1 762 220 120 0;
