#N canvas 63 25 1237 813 10;
#X obj 909 724 / 127;
#X obj 909 743 pack 0 50;
#X obj 909 664 snapshot~;
#X obj 917 614 tgl 15 0 empty empty empty 17 7 0 10 #fcfcfc #000000 #000000 0 1;
#X obj 909 686 change;
#X obj 917 645 metro 10;
#X obj 917 540 env~;
#X obj 917 562 > 0;
#X obj 917 584 change;
#X obj 909 761 line;
#X obj 909 797 +;
#X obj 929 779 t b f;
#X obj 1064 718 / 127;
#X obj 1064 737 pack 0 50;
#X obj 1064 657 snapshot~;
#X obj 1072 606 tgl 15 0 empty empty empty 17 7 0 10 #fcfcfc #000000 #000000 0 1;
#X obj 1064 679 change;
#X obj 1072 638 metro 10;
#X obj 1072 532 env~;
#X obj 1072 554 > 0;
#X obj 1072 576 change;
#X obj 1064 756 line;
#X obj 1064 792 +;
#X obj 1080 774 t b f;
#N canvas 20 41 451 535 scene-out-pm1 0;
#X obj 207 503 outlet OUT;
#X obj 210 175 r \$1-param-1-r-a;
#X connect 1 0 0 0;
#X restore 143 688 pd scene-out-pm1;
#N canvas 525 49 451 535 scene-out-pm2 0;
#X obj 207 503 outlet OUT;
#X obj 210 175 r \$1-param-2-r-a;
#X connect 1 0 0 0;
#X restore 296 689 pd scene-out-pm2;
#N canvas 20 41 451 535 scene-out-pm3 0;
#X obj 207 503 outlet OUT;
#X obj 210 175 r \$1-param-3-r-a;
#X connect 1 0 0 0;
#X restore 451 700 pd scene-out-pm3;
#N canvas 20 41 451 535 scene-out-pm4 0;
#X obj 207 503 outlet OUT;
#X obj 210 175 r \$1-param-4-r-a;
#X connect 1 0 0 0;
#X restore 596 698 pd scene-out-pm4;
#N canvas 20 41 451 535 scene-out-pm5 0;
#X obj 207 503 outlet OUT;
#X obj 210 175 r \$1-param-5-r-a;
#X connect 1 0 0 0;
#X restore 757 696 pd scene-out-pm5;
#N canvas 20 41 451 535 scene-out-pm6 0;
#X obj 207 503 outlet OUT;
#X obj 210 175 r \$1-param-6-r-a;
#X connect 1 0 0 0;
#X restore 909 705 pd scene-out-pm6;
#N canvas 20 41 451 535 scene-out-pm7 0;
#X obj 207 503 outlet OUT;
#X obj 210 175 r \$1-param-7-r-a;
#X connect 1 0 0 0;
#X restore 1064 699 pd scene-out-pm7;
#X obj 461 817 * 127;
#X obj 461 835 s \$1-param-3-s-post;
#X obj 607 816 * 127;
#X obj 607 835 s \$1-param-4-s-post;
#X obj 767 813 * 127;
#X obj 916 815 * 127;
#X obj 1074 814 * 127;
#X obj 767 832 s \$1-param-5-s-post;
#X obj 916 834 s \$1-param-6-s-post;
#X obj 1074 833 s \$1-param-7-s-post;
#X obj 757 715 / 127;
#X obj 757 734 pack 0 50;
#X obj 757 656 snapshot~;
#X obj 765 613 tgl 15 0 empty empty empty 17 7 0 10 #fcfcfc #000000 #000000 0 1;
#X obj 757 678 change;
#X obj 765 637 metro 10;
#X obj 765 539 env~;
#X obj 765 561 > 0;
#X obj 765 583 change;
#X obj 757 756 line;
#X obj 757 793 +;
#X obj 777 775 t b f;
#X obj 597 720 / 127;
#X obj 597 738 pack 0 50;
#X obj 596 657 snapshot~;
#X obj 604 612 tgl 15 0 empty empty empty 17 7 0 10 #fcfcfc #000000 #000000 0 1;
#X obj 596 679 change;
#X obj 604 630 metro 10;
#X obj 604 538 env~;
#X obj 604 560 > 0;
#X obj 604 582 change;
#X obj 597 756 line;
#X obj 597 795 +;
#X obj 617 775 t b f;
#X obj 451 719 / 127;
#X obj 451 738 pack 0 50;
#X obj 451 660 snapshot~;
#X obj 459 609 tgl 15 0 empty empty empty 17 7 0 10 #fcfcfc #000000 #000000 0 1;
#X obj 451 682 change;
#X obj 459 633 metro 10;
#X obj 459 535 env~;
#X obj 459 557 > 0;
#X obj 459 579 change;
#X obj 451 760 line;
#X obj 451 796 +;
#X obj 461 778 t b f;
#X obj 296 710 / 127;
#X obj 296 730 pack 0 50;
#X obj 297 646 snapshot~;
#X obj 305 597 tgl 15 0 empty empty empty 17 7 0 10 #fcfcfc #000000 #000000 0 1;
#X obj 297 668 change;
#X obj 305 619 metro 10;
#X obj 305 533 env~;
#X obj 305 555 > 0;
#X obj 305 577 change;
#X obj 296 752 line;
#X obj 296 791 +;
#X obj 316 771 t b f;
#X obj 143 707 / 127;
#X obj 143 646 snapshot~;
#X obj 151 598 tgl 15 0 empty empty empty 17 7 0 10 #fcfcfc #000000 #000000 0 1;
#X obj 143 668 change;
#X obj 151 619 metro 10;
#X obj 151 531 env~;
#X obj 151 553 > 0;
#X obj 151 575 change;
#X obj 143 749 line;
#X obj 143 788 +;
#X obj 163 768 t b f;
#X obj 306 813 * 127;
#X obj 306 832 s \$1-param-2-s-post;
#X obj 153 810 * 127;
#X obj 152 829 s \$1-param-1-s-post;
#X obj 143 727 pack 0 50;
#X obj 1215 717 / 127;
#X obj 1215 736 pack 0 50;
#X obj 1215 656 snapshot~;
#X obj 1223 605 tgl 15 0 empty empty empty 17 7 0 10 #fcfcfc #000000 #000000 0 1;
#X obj 1215 678 change;
#X obj 1223 637 metro 10;
#X obj 1223 531 env~;
#X obj 1223 553 > 0;
#X obj 1223 575 change;
#X obj 1215 755 line;
#X obj 1215 791 +;
#X obj 1231 773 t b f;
#X obj 1225 811 * 127;
#N canvas 20 41 451 535 scene-out-pm8 0;
#X obj 207 503 outlet OUT;
#X obj 210 175 r \$1-param-8-r-a;
#X connect 1 0 0 0;
#X restore 1215 698 pd scene-out-pm8;
#X obj 1225 830 s \$1-param-8-s-post;
#X obj 143 851 outlet;
#X obj 296 854 outlet;
#X obj 451 855 outlet;
#X obj 597 856 outlet;
#X obj 757 851 outlet;
#X obj 909 853 outlet;
#X obj 1064 852 outlet;
#X obj 1215 849 outlet;
#X text 21 851 output is from 0-1;
#X obj 41 338 catch~ \$1-mod1;
#X obj 22 413 catch~ \$1-mod2;
#X obj 142 367 *~;
#X obj 157 329 pack 0 50;
#N canvas 20 41 451 535 scene-out-pm9 0;
#X obj 207 503 outlet OUT;
#X obj 210 175 r \$1-param-9-r-a;
#X connect 1 0 0 0;
#X restore 157 291 pd scene-out-pm9;
#X obj 142 505 +~;
#X obj 157 483 *~;
#X obj 172 445 pack 0 50;
#X obj 157 347 line~;
#X obj 172 463 line~;
#X obj 157 310 / 250;
#X obj 172 426 / 250;
#N canvas 20 41 451 535 scene-out-pm17 0;
#X obj 207 503 outlet OUT;
#X obj 210 175 r \$1-param-17-r-a;
#X connect 1 0 0 0;
#X restore 172 407 pd scene-out-pm17;
#X obj 299 366 *~;
#X obj 314 328 pack 0 50;
#X obj 299 504 +~;
#X obj 314 482 *~;
#X obj 329 444 pack 0 50;
#X obj 314 346 line~;
#X obj 329 462 line~;
#X obj 314 309 / 250;
#X obj 329 425 / 250;
#N canvas 20 41 451 535 scene-out-pm10 0;
#X obj 207 503 outlet OUT;
#X obj 210 175 r \$1-param-10-r-a;
#X connect 1 0 0 0;
#X restore 314 290 pd scene-out-pm10;
#N canvas 20 41 451 535 scene-out-pm18 0;
#X obj 207 503 outlet OUT;
#X obj 210 175 r \$1-param-18-r-a;
#X connect 1 0 0 0;
#X restore 329 406 pd scene-out-pm18;
#X obj 452 366 *~;
#X obj 467 328 pack 0 50;
#X obj 452 504 +~;
#X obj 467 482 *~;
#X obj 482 444 pack 0 50;
#X obj 467 346 line~;
#X obj 482 462 line~;
#X obj 467 309 / 250;
#X obj 482 425 / 250;
#N canvas 20 41 451 535 scene-out-pm11 0;
#X obj 207 503 outlet OUT;
#X obj 210 175 r \$1-param-11-r-a;
#X connect 1 0 0 0;
#X restore 467 290 pd scene-out-pm11;
#N canvas 20 41 451 535 scene-out-pm19 0;
#X obj 207 503 outlet OUT;
#X obj 210 175 r \$1-param-19-r-a;
#X connect 1 0 0 0;
#X restore 482 406 pd scene-out-pm19;
#X obj 597 366 *~;
#X obj 612 328 pack 0 50;
#X obj 597 504 +~;
#X obj 612 482 *~;
#X obj 627 444 pack 0 50;
#X obj 612 346 line~;
#X obj 627 462 line~;
#X obj 612 309 / 250;
#X obj 627 425 / 250;
#N canvas 20 41 451 535 scene-out-pm12 0;
#X obj 207 503 outlet OUT;
#X obj 210 175 r \$1-param-12-r-a;
#X connect 1 0 0 0;
#X restore 612 290 pd scene-out-pm12;
#N canvas 20 41 451 535 scene-out-pm20 0;
#X obj 207 503 outlet OUT;
#X obj 210 175 r \$1-param-20-r-a;
#X connect 1 0 0 0;
#X restore 627 406 pd scene-out-pm20;
#X obj 758 365 *~;
#X obj 773 327 pack 0 50;
#X obj 758 503 +~;
#X obj 773 481 *~;
#X obj 788 443 pack 0 50;
#X obj 773 345 line~;
#X obj 788 461 line~;
#X obj 773 308 / 250;
#X obj 788 424 / 250;
#N canvas 20 41 451 535 scene-out-pm13 0;
#X obj 207 503 outlet OUT;
#X obj 210 175 r \$1-param-13-r-a;
#X connect 1 0 0 0;
#X restore 773 289 pd scene-out-pm13;
#N canvas 20 41 451 535 scene-out-pm21 0;
#X obj 207 503 outlet OUT;
#X obj 209 175 r \$1-param-21-r-a;
#X connect 1 0 0 0;
#X restore 788 405 pd scene-out-pm21;
#X obj 910 364 *~;
#X obj 925 326 pack 0 50;
#X obj 910 502 +~;
#X obj 925 480 *~;
#X obj 940 442 pack 0 50;
#X obj 925 344 line~;
#X obj 940 460 line~;
#X obj 925 307 / 250;
#X obj 940 423 / 250;
#N canvas 20 41 451 535 scene-out-pm14 0;
#X obj 207 503 outlet OUT;
#X obj 210 175 r \$1-param-14-r-a;
#X connect 1 0 0 0;
#X restore 925 288 pd scene-out-pm14;
#N canvas 20 41 451 535 scene-out-pm22 0;
#X obj 207 503 outlet OUT;
#X obj 209 175 r \$1-param-22-r-a;
#X connect 1 0 0 0;
#X restore 940 404 pd scene-out-pm22;
#X obj 1064 363 *~;
#X obj 1079 325 pack 0 50;
#X obj 1064 501 +~;
#X obj 1079 479 *~;
#X obj 1094 441 pack 0 50;
#X obj 1079 343 line~;
#X obj 1094 459 line~;
#X obj 1079 306 / 250;
#X obj 1094 422 / 250;
#N canvas 20 41 451 535 scene-out-pm15 0;
#X obj 207 503 outlet OUT;
#X obj 210 175 r \$1-param-15-r-a;
#X connect 1 0 0 0;
#X restore 1079 287 pd scene-out-pm15;
#N canvas 20 41 451 535 scene-out-pm23 0;
#X obj 207 503 outlet OUT;
#X obj 209 175 r \$1-param-23-r-a;
#X connect 1 0 0 0;
#X restore 1094 403 pd scene-out-pm23;
#X obj 1216 363 *~;
#X obj 1231 325 pack 0 50;
#X obj 1216 501 +~;
#X obj 1231 479 *~;
#X obj 1246 441 pack 0 50;
#X obj 1231 343 line~;
#X obj 1246 459 line~;
#X obj 1231 306 / 250;
#X obj 1246 422 / 250;
#N canvas 20 41 451 535 scene-out-pm16 0;
#X obj 207 503 outlet OUT;
#X obj 210 175 r \$1-param-16-r-a;
#X connect 1 0 0 0;
#X restore 1231 287 pd scene-out-pm16;
#N canvas 20 41 451 535 scene-out-pm24 0;
#X obj 207 503 outlet OUT;
#X obj 209 175 r \$1-param-24-r-a;
#X connect 1 0 0 0;
#X restore 1246 403 pd scene-out-pm24;
#X connect 0 0 1 0;
#X connect 1 0 9 0;
#X connect 2 0 4 0;
#X connect 3 0 5 0;
#X connect 4 0 11 0;
#X connect 5 0 2 0;
#X connect 6 0 7 0;
#X connect 7 0 8 0;
#X connect 8 0 3 0;
#X connect 9 0 10 0;
#X connect 10 0 36 0;
#X connect 10 0 125 0;
#X connect 11 0 10 0;
#X connect 11 1 10 1;
#X connect 12 0 13 0;
#X connect 13 0 21 0;
#X connect 14 0 16 0;
#X connect 15 0 17 0;
#X connect 16 0 23 0;
#X connect 17 0 14 0;
#X connect 18 0 19 0;
#X connect 19 0 20 0;
#X connect 20 0 15 0;
#X connect 21 0 22 0;
#X connect 22 0 37 0;
#X connect 22 0 126 0;
#X connect 23 0 22 0;
#X connect 23 1 22 1;
#X connect 24 0 89 0;
#X connect 25 0 77 0;
#X connect 26 0 65 0;
#X connect 27 0 53 0;
#X connect 28 0 41 0;
#X connect 29 0 0 0;
#X connect 30 0 12 0;
#X connect 31 0 32 0;
#X connect 33 0 34 0;
#X connect 35 0 38 0;
#X connect 36 0 39 0;
#X connect 37 0 40 0;
#X connect 41 0 42 0;
#X connect 42 0 50 0;
#X connect 43 0 45 0;
#X connect 44 0 46 0;
#X connect 45 0 52 0;
#X connect 46 0 43 0;
#X connect 47 0 48 0;
#X connect 48 0 49 0;
#X connect 49 0 44 0;
#X connect 50 0 51 0;
#X connect 51 0 35 0;
#X connect 51 0 124 0;
#X connect 52 0 51 0;
#X connect 52 1 51 1;
#X connect 53 0 54 0;
#X connect 54 0 62 0;
#X connect 55 0 57 0;
#X connect 56 0 58 0;
#X connect 57 0 64 0;
#X connect 58 0 55 0;
#X connect 59 0 60 0;
#X connect 60 0 61 0;
#X connect 61 0 56 0;
#X connect 62 0 63 0;
#X connect 63 0 33 0;
#X connect 63 0 123 0;
#X connect 64 0 63 0;
#X connect 64 1 63 1;
#X connect 65 0 66 0;
#X connect 66 0 74 0;
#X connect 67 0 69 0;
#X connect 68 0 70 0;
#X connect 69 0 76 0;
#X connect 70 0 67 0;
#X connect 71 0 72 0;
#X connect 72 0 73 0;
#X connect 73 0 68 0;
#X connect 74 0 75 0;
#X connect 75 0 31 0;
#X connect 75 0 122 0;
#X connect 76 0 75 0;
#X connect 76 1 75 1;
#X connect 77 0 78 0;
#X connect 78 0 86 0;
#X connect 79 0 81 0;
#X connect 80 0 82 0;
#X connect 81 0 88 0;
#X connect 82 0 79 0;
#X connect 83 0 84 0;
#X connect 84 0 85 0;
#X connect 85 0 80 0;
#X connect 86 0 87 0;
#X connect 87 0 100 0;
#X connect 87 0 121 0;
#X connect 88 0 87 0;
#X connect 88 1 87 1;
#X connect 89 0 104 0;
#X connect 90 0 92 0;
#X connect 91 0 93 0;
#X connect 92 0 99 0;
#X connect 93 0 90 0;
#X connect 94 0 95 0;
#X connect 95 0 96 0;
#X connect 96 0 91 0;
#X connect 97 0 98 0;
#X connect 98 0 102 0;
#X connect 98 0 120 0;
#X connect 99 0 98 0;
#X connect 99 1 98 1;
#X connect 100 0 101 0;
#X connect 102 0 103 0;
#X connect 104 0 97 0;
#X connect 105 0 106 0;
#X connect 106 0 114 0;
#X connect 107 0 109 0;
#X connect 108 0 110 0;
#X connect 109 0 116 0;
#X connect 110 0 107 0;
#X connect 111 0 112 0;
#X connect 112 0 113 0;
#X connect 113 0 108 0;
#X connect 114 0 115 0;
#X connect 115 0 117 0;
#X connect 115 0 127 0;
#X connect 116 0 115 0;
#X connect 116 1 115 1;
#X connect 117 0 119 0;
#X connect 118 0 105 0;
#X connect 129 0 131 0;
#X connect 129 0 142 0;
#X connect 129 0 153 0;
#X connect 129 0 164 0;
#X connect 129 0 175 0;
#X connect 129 0 186 0;
#X connect 129 0 197 0;
#X connect 129 0 208 0;
#X connect 130 0 135 0;
#X connect 130 0 145 0;
#X connect 130 0 156 0;
#X connect 130 0 167 0;
#X connect 130 0 178 0;
#X connect 130 0 189 0;
#X connect 130 0 200 0;
#X connect 130 0 211 0;
#X connect 131 0 134 0;
#X connect 132 0 137 0;
#X connect 133 0 139 0;
#X connect 134 0 90 0;
#X connect 134 0 94 0;
#X connect 135 0 134 1;
#X connect 136 0 138 0;
#X connect 137 0 131 1;
#X connect 138 0 135 1;
#X connect 139 0 132 0;
#X connect 140 0 136 0;
#X connect 141 0 140 0;
#X connect 142 0 144 0;
#X connect 143 0 147 0;
#X connect 144 0 83 0;
#X connect 144 0 79 0;
#X connect 145 0 144 1;
#X connect 146 0 148 0;
#X connect 147 0 142 1;
#X connect 148 0 145 1;
#X connect 149 0 143 0;
#X connect 150 0 146 0;
#X connect 151 0 149 0;
#X connect 152 0 150 0;
#X connect 153 0 155 0;
#X connect 154 0 158 0;
#X connect 155 0 71 0;
#X connect 155 0 67 0;
#X connect 156 0 155 1;
#X connect 157 0 159 0;
#X connect 158 0 153 1;
#X connect 159 0 156 1;
#X connect 160 0 154 0;
#X connect 161 0 157 0;
#X connect 162 0 160 0;
#X connect 163 0 161 0;
#X connect 164 0 166 0;
#X connect 165 0 169 0;
#X connect 166 0 59 0;
#X connect 166 0 55 0;
#X connect 167 0 166 1;
#X connect 168 0 170 0;
#X connect 169 0 164 1;
#X connect 170 0 167 1;
#X connect 171 0 165 0;
#X connect 172 0 168 0;
#X connect 173 0 171 0;
#X connect 174 0 172 0;
#X connect 175 0 177 0;
#X connect 176 0 180 0;
#X connect 177 0 43 0;
#X connect 177 0 47 0;
#X connect 178 0 177 1;
#X connect 179 0 181 0;
#X connect 180 0 175 1;
#X connect 181 0 178 1;
#X connect 182 0 176 0;
#X connect 183 0 179 0;
#X connect 184 0 182 0;
#X connect 185 0 183 0;
#X connect 186 0 188 0;
#X connect 187 0 191 0;
#X connect 188 0 6 0;
#X connect 188 0 2 0;
#X connect 189 0 188 1;
#X connect 190 0 192 0;
#X connect 191 0 186 1;
#X connect 192 0 189 1;
#X connect 193 0 187 0;
#X connect 194 0 190 0;
#X connect 195 0 193 0;
#X connect 196 0 194 0;
#X connect 197 0 199 0;
#X connect 198 0 202 0;
#X connect 199 0 18 0;
#X connect 199 0 14 0;
#X connect 200 0 199 1;
#X connect 201 0 203 0;
#X connect 202 0 197 1;
#X connect 203 0 200 1;
#X connect 204 0 198 0;
#X connect 205 0 201 0;
#X connect 206 0 204 0;
#X connect 207 0 205 0;
#X connect 208 0 210 0;
#X connect 209 0 213 0;
#X connect 210 0 107 0;
#X connect 210 0 111 0;
#X connect 211 0 210 1;
#X connect 212 0 214 0;
#X connect 213 0 208 1;
#X connect 214 0 211 1;
#X connect 215 0 209 0;
#X connect 216 0 212 0;
#X connect 217 0 215 0;
#X connect 218 0 216 0;
#X coords 0 813 1 812 220 120 0;
