#N canvas 203 231 1237 459 10;
#X msg 64 57 1;
#X msg 19 94 \; pd-\$1options vis \$2;
#X obj 19 58 f \$1;
#X obj 19 76 pack f f;
#X obj 19 40 t b b;
#X obj 19 22 r \$1-options-button;
#X text 17 5 Opens the Options-Subpatch:;
#N canvas 721 264 175 189 \$1options 0;
#X text 11 10 Ableton-Push-Interface:;
#X obj 15 70 hradio 16 1 0 8 \$1-main-menu-s \$1-main-menu-r Main-Menu 0 -8 0 10 #fcfcfc #000000 #000000 0;
#X obj 15 110 hradio 16 1 0 8 \$1-sub-menu-s \$1-sub-menu-r Sub-Menu 0 -8 0 10 #fcfcfc #000000 #000000 0;
#X obj 15 150 hradio 16 1 0 8 \$1-sub2-menu-s \$1-sub2-menu-r Sub2-Menu 0 -8 0 10 #fcfcfc #000000 #000000 0;
#X text 11 30 (DISPLAY);
#X restore 19 123 pd \$1options;
#X connect 0 0 3 1;
#X connect 2 0 3 0;
#X connect 3 0 1 0;
#X connect 4 0 2 0;
#X connect 4 1 0 0;
#X connect 5 0 4 0;
#X coords 0 459 1 458 220 120 0;
