#N canvas 363 212 1237 459 10;
#X obj 223 18 loadbang;
#X obj 230 247 f;
#X obj 230 226 t b b b;
#X text 330 194 INSTANCE NUMBER;
#X obj 242 92 f \$1;
#X obj 242 128 t f f f;
#X obj 230 202 bng 15 250 50 0 empty empty empty 17 7 0 10 #fcfcfc #000000 #000000;
#X obj 230 179 r SAVE-S;
#X obj 597 283 r patch-path;
#X msg 558 348 read /Users/johannklug/Documents/Bass\ Dieter/2025/Diet/MODULAR_LIVE_\ PERFORMER/patch1/statesave/0-symbol-ss.txt;
#X obj 272 92 s update-path;
#X msg 230 350 write /Users/johannklug/Documents/Bass\ Dieter/2025/Diet/MODULAR_LIVE_\ PERFORMER/patch1/statesave/1-SYKCK-ss.txt;
#X obj 268 268 r patch-path;
#X obj 230 268 t b f;
#X obj 558 267 f;
#X obj 558 288 t b f;
#X obj 230 444 array define \$0-presets 256;
#X text 885 39 Array - Saving Rules \; -Slot 1-16 for non-scene values \; -Each Scene has 16 slots -There are 4 Scene-Slots;
#X obj 925 247 tabread \$0-presets;
#X obj 925 190 loadbang;
#X msg 925 228 1;
#X obj 925 453 tabwrite \$0-presets;
#X obj 1036 415 loadbang;
#X obj 958 397 t b;
#X obj 925 433 spigot;
#X msg 958 416 0;
#X obj 994 398 del 5;
#X msg 994 417 1;
#X obj 958 377 r \$0-wait;
#X msg 1036 433 1;
#X text 925 151 Reading and writing - non scene values;
#X obj 1125 269 tabread \$0-presets;
#X obj 1125 192 loadbang;
#X obj 1125 453 tabwrite \$0-presets;
#X obj 1236 415 loadbang;
#X obj 1158 397 t b;
#X obj 1125 433 spigot;
#X msg 1158 416 0;
#X obj 1194 398 del 5;
#X msg 1194 417 1;
#X obj 1158 377 r \$0-wait;
#X msg 1125 250 2;
#X msg 1236 432 2;
#X obj 1315 269 tabread \$0-presets;
#X obj 1315 192 loadbang;
#X obj 1315 453 tabwrite \$0-presets;
#X obj 1426 415 loadbang;
#X obj 1348 397 t b;
#X obj 1315 433 spigot;
#X msg 1348 416 0;
#X obj 1384 398 del 5;
#X msg 1384 417 1;
#X obj 1348 377 r \$0-wait;
#X msg 1315 250 3;
#X msg 1426 431 3;
#X obj 925 208 t b b;
#X obj 952 228 s \$0-wait;
#X obj 1125 220 t b b;
#X obj 1152 240 s \$0-wait;
#X obj 1315 220 t b b;
#X obj 1342 240 s \$0-wait;
#X obj 925 358 r \$0-main-menu-s;
#X obj 925 265 s \$0-main-menu-r;
#X obj 1125 358 r \$0-sub-menu-s;
#X obj 1125 287 s \$0-sub-menu-r;
#X obj 1315 287 s \$0-sub2-menu-r;
#X obj 1315 358 r \$0-sub2-menu-s;
#X msg 508 83 0, f 6;
#X obj 508 101 text get \$0-modul-settings;
#X obj 240 309 pack f s s;
#X msg 240 329 set write \$2/statesave/\$1-\$3-ss.txt;
#X obj 569 308 pack f s s;
#X msg 569 327 set read \$2/statesave/\$1-\$3-ss.txt;
#X obj 333 176 s \$0-instance-num;
#X obj 333 140 makefilename %d;
#X msg 333 158 label \$1;
#X obj 223 51 t b b b b;
#X obj 281 587 r \$0-param-1-s;
#X obj 230 570 loadbang;
#X msg 230 588 1;
#X obj 230 669 s \$0-param-1-r;
#X obj 255 650 s \$0-param-1-r-a;
#X obj 281 630 s \$0-param-1-r-b;
#X obj 410 570 loadbang;
#N canvas 105 70 1335 536 param 0;
#X obj 850 286 tabwrite \$0-presets;
#X obj 961 193 r gui-scene;
#X obj 961 211 * 16;
#X obj 961 266 +;
#X obj 99 285 tabread \$0-presets;
#X obj 99 169 r gui-scene;
#X obj 99 212 * 16;
#X obj 99 267 +;
#X obj 883 208 t b;
#X obj 850 264 spigot;
#X msg 883 227 0;
#X obj 919 209 del 5;
#X msg 919 228 1;
#X obj 99 189 t f b;
#X obj 129 212 s \$0-wait;
#X obj 883 188 r \$0-wait;
#X obj 1072 289 tabwrite \$0-presets;
#X obj 1183 214 * 16;
#X obj 1183 269 +;
#X text 1060 141 copy scene;
#X obj 1104 165 r copy-scene;
#X obj 1104 186 t b f;
#X obj 1072 221 f;
#X text 830 144 writing param to scene;
#X text 95 146 reading param from array to gui;
#X obj 327 305 tabread \$0-presets;
#X obj 327 210 * 16;
#X obj 327 265 +;
#X obj 327 187 t f b;
#X obj 357 210 s \$0-wait;
#X text 323 144 reading param from array to scene A;
#X obj 327 167 r a-scene;
#X obj 573 305 tabread \$0-presets;
#X obj 573 210 * 16;
#X obj 573 265 +;
#X obj 573 187 t f b;
#X obj 603 210 s \$0-wait;
#X text 567 144 reading param from array to scene B;
#X obj 573 167 r b-scene;
#X obj 327 286 f;
#X obj 353 286 t b;
#X obj 573 286 f;
#X obj 599 286 t b;
#X obj 113 -127 inlet;
#X obj 103 507 outlet;
#X obj 348 -122 inlet;
#X obj 328 502 outlet;
#X obj 574 500 outlet;
#X connect 1 0 2 0;
#X connect 2 0 3 0;
#X connect 3 0 0 1;
#X connect 4 0 44 0;
#X connect 5 0 13 0;
#X connect 6 0 7 0;
#X connect 7 0 4 0;
#X connect 8 0 10 0;
#X connect 8 0 11 0;
#X connect 9 0 0 0;
#X connect 10 0 9 1;
#X connect 11 0 12 0;
#X connect 12 0 9 1;
#X connect 13 0 6 0;
#X connect 13 1 14 0;
#X connect 15 0 8 0;
#X connect 17 0 18 0;
#X connect 18 0 16 1;
#X connect 20 0 21 0;
#X connect 21 0 22 0;
#X connect 21 1 17 0;
#X connect 22 0 16 0;
#X connect 25 0 46 0;
#X connect 26 0 27 0;
#X connect 27 0 39 0;
#X connect 28 0 26 0;
#X connect 28 1 29 0;
#X connect 31 0 28 0;
#X connect 32 0 47 0;
#X connect 33 0 34 0;
#X connect 34 0 41 0;
#X connect 35 0 33 0;
#X connect 35 1 36 0;
#X connect 38 0 35 0;
#X connect 39 0 25 0;
#X connect 40 0 39 0;
#X connect 41 0 32 0;
#X connect 42 0 41 0;
#X connect 43 0 7 1;
#X connect 43 0 27 1;
#X connect 43 0 34 1;
#X connect 43 0 3 1;
#X connect 43 0 18 1;
#X connect 45 0 40 0;
#X connect 45 0 42 0;
#X connect 45 0 9 0;
#X connect 45 0 22 1;
#X restore 230 606 pd param;
#N canvas 105 70 1335 536 param 0;
#X obj 850 286 tabwrite \$0-presets;
#X obj 961 193 r gui-scene;
#X obj 961 211 * 16;
#X obj 961 266 +;
#X obj 99 285 tabread \$0-presets;
#X obj 99 169 r gui-scene;
#X obj 99 212 * 16;
#X obj 99 267 +;
#X obj 883 208 t b;
#X obj 850 264 spigot;
#X msg 883 227 0;
#X obj 919 209 del 5;
#X msg 919 228 1;
#X obj 99 189 t f b;
#X obj 129 212 s \$0-wait;
#X obj 883 188 r \$0-wait;
#X obj 1072 289 tabwrite \$0-presets;
#X obj 1183 214 * 16;
#X obj 1183 269 +;
#X text 1060 141 copy scene;
#X obj 1104 165 r copy-scene;
#X obj 1104 186 t b f;
#X obj 1072 221 f;
#X text 830 144 writing param to scene;
#X text 95 146 reading param from array to gui;
#X obj 327 305 tabread \$0-presets;
#X obj 327 210 * 16;
#X obj 327 265 +;
#X obj 327 187 t f b;
#X obj 357 210 s \$0-wait;
#X text 323 144 reading param from array to scene A;
#X obj 327 167 r a-scene;
#X obj 573 305 tabread \$0-presets;
#X obj 573 210 * 16;
#X obj 573 265 +;
#X obj 573 187 t f b;
#X obj 603 210 s \$0-wait;
#X text 567 144 reading param from array to scene B;
#X obj 573 167 r b-scene;
#X obj 327 286 f;
#X obj 353 286 t b;
#X obj 573 286 f;
#X obj 599 286 t b;
#X obj 113 -127 inlet;
#X obj 103 507 outlet;
#X obj 348 -122 inlet;
#X obj 328 502 outlet;
#X obj 574 500 outlet;
#X connect 1 0 2 0;
#X connect 2 0 3 0;
#X connect 3 0 0 1;
#X connect 4 0 44 0;
#X connect 5 0 13 0;
#X connect 6 0 7 0;
#X connect 7 0 4 0;
#X connect 8 0 10 0;
#X connect 8 0 11 0;
#X connect 9 0 0 0;
#X connect 10 0 9 1;
#X connect 11 0 12 0;
#X connect 12 0 9 1;
#X connect 13 0 6 0;
#X connect 13 1 14 0;
#X connect 15 0 8 0;
#X connect 17 0 18 0;
#X connect 18 0 16 1;
#X connect 20 0 21 0;
#X connect 21 0 22 0;
#X connect 21 1 17 0;
#X connect 22 0 16 0;
#X connect 25 0 46 0;
#X connect 26 0 27 0;
#X connect 27 0 39 0;
#X connect 28 0 26 0;
#X connect 28 1 29 0;
#X connect 31 0 28 0;
#X connect 32 0 47 0;
#X connect 33 0 34 0;
#X connect 34 0 41 0;
#X connect 35 0 33 0;
#X connect 35 1 36 0;
#X connect 38 0 35 0;
#X connect 39 0 25 0;
#X connect 40 0 39 0;
#X connect 41 0 32 0;
#X connect 42 0 41 0;
#X connect 43 0 7 1;
#X connect 43 0 27 1;
#X connect 43 0 34 1;
#X connect 43 0 3 1;
#X connect 43 0 18 1;
#X connect 45 0 40 0;
#X connect 45 0 42 0;
#X connect 45 0 9 0;
#X connect 45 0 22 1;
#X restore 410 606 pd param;
#X msg 410 588 2;
#X obj 461 587 r \$0-param-2-s;
#X obj 461 630 s \$0-param-2-r-b;
#X obj 435 650 s \$0-param-2-r-a;
#X obj 410 669 s \$0-param-2-r;
#X obj 600 570 loadbang;
#X obj 780 570 loadbang;
#N canvas 105 70 1335 536 param 0;
#X obj 850 286 tabwrite \$0-presets;
#X obj 961 193 r gui-scene;
#X obj 961 211 * 16;
#X obj 961 266 +;
#X obj 99 285 tabread \$0-presets;
#X obj 99 169 r gui-scene;
#X obj 99 212 * 16;
#X obj 99 267 +;
#X obj 883 208 t b;
#X obj 850 264 spigot;
#X msg 883 227 0;
#X obj 919 209 del 5;
#X msg 919 228 1;
#X obj 99 189 t f b;
#X obj 129 212 s \$0-wait;
#X obj 883 188 r \$0-wait;
#X obj 1072 289 tabwrite \$0-presets;
#X obj 1183 214 * 16;
#X obj 1183 269 +;
#X text 1060 141 copy scene;
#X obj 1104 165 r copy-scene;
#X obj 1104 186 t b f;
#X obj 1072 221 f;
#X text 830 144 writing param to scene;
#X text 95 146 reading param from array to gui;
#X obj 327 305 tabread \$0-presets;
#X obj 327 210 * 16;
#X obj 327 265 +;
#X obj 327 187 t f b;
#X obj 357 210 s \$0-wait;
#X text 323 144 reading param from array to scene A;
#X obj 327 167 r a-scene;
#X obj 573 305 tabread \$0-presets;
#X obj 573 210 * 16;
#X obj 573 265 +;
#X obj 573 187 t f b;
#X obj 603 210 s \$0-wait;
#X text 567 144 reading param from array to scene B;
#X obj 573 167 r b-scene;
#X obj 327 286 f;
#X obj 353 286 t b;
#X obj 573 286 f;
#X obj 599 286 t b;
#X obj 113 -127 inlet;
#X obj 103 507 outlet;
#X obj 348 -122 inlet;
#X obj 328 502 outlet;
#X obj 574 500 outlet;
#X connect 1 0 2 0;
#X connect 2 0 3 0;
#X connect 3 0 0 1;
#X connect 4 0 44 0;
#X connect 5 0 13 0;
#X connect 6 0 7 0;
#X connect 7 0 4 0;
#X connect 8 0 10 0;
#X connect 8 0 11 0;
#X connect 9 0 0 0;
#X connect 10 0 9 1;
#X connect 11 0 12 0;
#X connect 12 0 9 1;
#X connect 13 0 6 0;
#X connect 13 1 14 0;
#X connect 15 0 8 0;
#X connect 17 0 18 0;
#X connect 18 0 16 1;
#X connect 20 0 21 0;
#X connect 21 0 22 0;
#X connect 21 1 17 0;
#X connect 22 0 16 0;
#X connect 25 0 46 0;
#X connect 26 0 27 0;
#X connect 27 0 39 0;
#X connect 28 0 26 0;
#X connect 28 1 29 0;
#X connect 31 0 28 0;
#X connect 32 0 47 0;
#X connect 33 0 34 0;
#X connect 34 0 41 0;
#X connect 35 0 33 0;
#X connect 35 1 36 0;
#X connect 38 0 35 0;
#X connect 39 0 25 0;
#X connect 40 0 39 0;
#X connect 41 0 32 0;
#X connect 42 0 41 0;
#X connect 43 0 7 1;
#X connect 43 0 27 1;
#X connect 43 0 34 1;
#X connect 43 0 3 1;
#X connect 43 0 18 1;
#X connect 45 0 40 0;
#X connect 45 0 42 0;
#X connect 45 0 9 0;
#X connect 45 0 22 1;
#X restore 600 606 pd param;
#N canvas 105 70 1335 536 param 0;
#X obj 850 286 tabwrite \$0-presets;
#X obj 961 193 r gui-scene;
#X obj 961 211 * 16;
#X obj 961 266 +;
#X obj 99 285 tabread \$0-presets;
#X obj 99 169 r gui-scene;
#X obj 99 212 * 16;
#X obj 99 267 +;
#X obj 883 208 t b;
#X obj 850 264 spigot;
#X msg 883 227 0;
#X obj 919 209 del 5;
#X msg 919 228 1;
#X obj 99 189 t f b;
#X obj 129 212 s \$0-wait;
#X obj 883 188 r \$0-wait;
#X obj 1072 289 tabwrite \$0-presets;
#X obj 1183 214 * 16;
#X obj 1183 269 +;
#X text 1060 141 copy scene;
#X obj 1104 165 r copy-scene;
#X obj 1104 186 t b f;
#X obj 1072 221 f;
#X text 830 144 writing param to scene;
#X text 95 146 reading param from array to gui;
#X obj 327 305 tabread \$0-presets;
#X obj 327 210 * 16;
#X obj 327 265 +;
#X obj 327 187 t f b;
#X obj 357 210 s \$0-wait;
#X text 323 144 reading param from array to scene A;
#X obj 327 167 r a-scene;
#X obj 573 305 tabread \$0-presets;
#X obj 573 210 * 16;
#X obj 573 265 +;
#X obj 573 187 t f b;
#X obj 603 210 s \$0-wait;
#X text 567 144 reading param from array to scene B;
#X obj 573 167 r b-scene;
#X obj 327 286 f;
#X obj 353 286 t b;
#X obj 573 286 f;
#X obj 599 286 t b;
#X obj 113 -127 inlet;
#X obj 103 507 outlet;
#X obj 348 -122 inlet;
#X obj 328 502 outlet;
#X obj 574 500 outlet;
#X connect 1 0 2 0;
#X connect 2 0 3 0;
#X connect 3 0 0 1;
#X connect 4 0 44 0;
#X connect 5 0 13 0;
#X connect 6 0 7 0;
#X connect 7 0 4 0;
#X connect 8 0 10 0;
#X connect 8 0 11 0;
#X connect 9 0 0 0;
#X connect 10 0 9 1;
#X connect 11 0 12 0;
#X connect 12 0 9 1;
#X connect 13 0 6 0;
#X connect 13 1 14 0;
#X connect 15 0 8 0;
#X connect 17 0 18 0;
#X connect 18 0 16 1;
#X connect 20 0 21 0;
#X connect 21 0 22 0;
#X connect 21 1 17 0;
#X connect 22 0 16 0;
#X connect 25 0 46 0;
#X connect 26 0 27 0;
#X connect 27 0 39 0;
#X connect 28 0 26 0;
#X connect 28 1 29 0;
#X connect 31 0 28 0;
#X connect 32 0 47 0;
#X connect 33 0 34 0;
#X connect 34 0 41 0;
#X connect 35 0 33 0;
#X connect 35 1 36 0;
#X connect 38 0 35 0;
#X connect 39 0 25 0;
#X connect 40 0 39 0;
#X connect 41 0 32 0;
#X connect 42 0 41 0;
#X connect 43 0 7 1;
#X connect 43 0 27 1;
#X connect 43 0 34 1;
#X connect 43 0 3 1;
#X connect 43 0 18 1;
#X connect 45 0 40 0;
#X connect 45 0 42 0;
#X connect 45 0 9 0;
#X connect 45 0 22 1;
#X restore 780 606 pd param;
#X msg 600 588 3;
#X msg 780 588 4;
#X obj 651 587 r \$0-param-3-s;
#X obj 651 630 s \$0-param-3-r-b;
#X obj 625 650 s \$0-param-3-r-a;
#X obj 600 669 s \$0-param-3-r;
#X obj 831 587 r \$0-param-4-s;
#X obj 831 630 s \$0-param-4-r-b;
#X obj 805 650 s \$0-param-4-r-a;
#X obj 780 669 s \$0-param-4-r;
#X obj 230 710 loadbang;
#X obj 410 710 loadbang;
#N canvas 105 70 1335 536 param 0;
#X obj 850 286 tabwrite \$0-presets;
#X obj 961 193 r gui-scene;
#X obj 961 211 * 16;
#X obj 961 266 +;
#X obj 99 285 tabread \$0-presets;
#X obj 99 169 r gui-scene;
#X obj 99 212 * 16;
#X obj 99 267 +;
#X obj 883 208 t b;
#X obj 850 264 spigot;
#X msg 883 227 0;
#X obj 919 209 del 5;
#X msg 919 228 1;
#X obj 99 189 t f b;
#X obj 129 212 s \$0-wait;
#X obj 883 188 r \$0-wait;
#X obj 1072 289 tabwrite \$0-presets;
#X obj 1183 214 * 16;
#X obj 1183 269 +;
#X text 1060 141 copy scene;
#X obj 1104 165 r copy-scene;
#X obj 1104 186 t b f;
#X obj 1072 221 f;
#X text 830 144 writing param to scene;
#X text 95 146 reading param from array to gui;
#X obj 327 305 tabread \$0-presets;
#X obj 327 210 * 16;
#X obj 327 265 +;
#X obj 327 187 t f b;
#X obj 357 210 s \$0-wait;
#X text 323 144 reading param from array to scene A;
#X obj 327 167 r a-scene;
#X obj 573 305 tabread \$0-presets;
#X obj 573 210 * 16;
#X obj 573 265 +;
#X obj 573 187 t f b;
#X obj 603 210 s \$0-wait;
#X text 567 144 reading param from array to scene B;
#X obj 573 167 r b-scene;
#X obj 327 286 f;
#X obj 353 286 t b;
#X obj 573 286 f;
#X obj 599 286 t b;
#X obj 113 -127 inlet;
#X obj 103 507 outlet;
#X obj 348 -122 inlet;
#X obj 328 502 outlet;
#X obj 574 500 outlet;
#X connect 1 0 2 0;
#X connect 2 0 3 0;
#X connect 3 0 0 1;
#X connect 4 0 44 0;
#X connect 5 0 13 0;
#X connect 6 0 7 0;
#X connect 7 0 4 0;
#X connect 8 0 10 0;
#X connect 8 0 11 0;
#X connect 9 0 0 0;
#X connect 10 0 9 1;
#X connect 11 0 12 0;
#X connect 12 0 9 1;
#X connect 13 0 6 0;
#X connect 13 1 14 0;
#X connect 15 0 8 0;
#X connect 17 0 18 0;
#X connect 18 0 16 1;
#X connect 20 0 21 0;
#X connect 21 0 22 0;
#X connect 21 1 17 0;
#X connect 22 0 16 0;
#X connect 25 0 46 0;
#X connect 26 0 27 0;
#X connect 27 0 39 0;
#X connect 28 0 26 0;
#X connect 28 1 29 0;
#X connect 31 0 28 0;
#X connect 32 0 47 0;
#X connect 33 0 34 0;
#X connect 34 0 41 0;
#X connect 35 0 33 0;
#X connect 35 1 36 0;
#X connect 38 0 35 0;
#X connect 39 0 25 0;
#X connect 40 0 39 0;
#X connect 41 0 32 0;
#X connect 42 0 41 0;
#X connect 43 0 7 1;
#X connect 43 0 27 1;
#X connect 43 0 34 1;
#X connect 43 0 3 1;
#X connect 43 0 18 1;
#X connect 45 0 40 0;
#X connect 45 0 42 0;
#X connect 45 0 9 0;
#X connect 45 0 22 1;
#X restore 230 746 pd param;
#N canvas 105 70 1335 536 param 0;
#X obj 850 286 tabwrite \$0-presets;
#X obj 961 193 r gui-scene;
#X obj 961 211 * 16;
#X obj 961 266 +;
#X obj 99 285 tabread \$0-presets;
#X obj 99 169 r gui-scene;
#X obj 99 212 * 16;
#X obj 99 267 +;
#X obj 883 208 t b;
#X obj 850 264 spigot;
#X msg 883 227 0;
#X obj 919 209 del 5;
#X msg 919 228 1;
#X obj 99 189 t f b;
#X obj 129 212 s \$0-wait;
#X obj 883 188 r \$0-wait;
#X obj 1072 289 tabwrite \$0-presets;
#X obj 1183 214 * 16;
#X obj 1183 269 +;
#X text 1060 141 copy scene;
#X obj 1104 165 r copy-scene;
#X obj 1104 186 t b f;
#X obj 1072 221 f;
#X text 830 144 writing param to scene;
#X text 95 146 reading param from array to gui;
#X obj 327 305 tabread \$0-presets;
#X obj 327 210 * 16;
#X obj 327 265 +;
#X obj 327 187 t f b;
#X obj 357 210 s \$0-wait;
#X text 323 144 reading param from array to scene A;
#X obj 327 167 r a-scene;
#X obj 573 305 tabread \$0-presets;
#X obj 573 210 * 16;
#X obj 573 265 +;
#X obj 573 187 t f b;
#X obj 603 210 s \$0-wait;
#X text 567 144 reading param from array to scene B;
#X obj 573 167 r b-scene;
#X obj 327 286 f;
#X obj 353 286 t b;
#X obj 573 286 f;
#X obj 599 286 t b;
#X obj 113 -127 inlet;
#X obj 103 507 outlet;
#X obj 348 -122 inlet;
#X obj 328 502 outlet;
#X obj 574 500 outlet;
#X connect 1 0 2 0;
#X connect 2 0 3 0;
#X connect 3 0 0 1;
#X connect 4 0 44 0;
#X connect 5 0 13 0;
#X connect 6 0 7 0;
#X connect 7 0 4 0;
#X connect 8 0 10 0;
#X connect 8 0 11 0;
#X connect 9 0 0 0;
#X connect 10 0 9 1;
#X connect 11 0 12 0;
#X connect 12 0 9 1;
#X connect 13 0 6 0;
#X connect 13 1 14 0;
#X connect 15 0 8 0;
#X connect 17 0 18 0;
#X connect 18 0 16 1;
#X connect 20 0 21 0;
#X connect 21 0 22 0;
#X connect 21 1 17 0;
#X connect 22 0 16 0;
#X connect 25 0 46 0;
#X connect 26 0 27 0;
#X connect 27 0 39 0;
#X connect 28 0 26 0;
#X connect 28 1 29 0;
#X connect 31 0 28 0;
#X connect 32 0 47 0;
#X connect 33 0 34 0;
#X connect 34 0 41 0;
#X connect 35 0 33 0;
#X connect 35 1 36 0;
#X connect 38 0 35 0;
#X connect 39 0 25 0;
#X connect 40 0 39 0;
#X connect 41 0 32 0;
#X connect 42 0 41 0;
#X connect 43 0 7 1;
#X connect 43 0 27 1;
#X connect 43 0 34 1;
#X connect 43 0 3 1;
#X connect 43 0 18 1;
#X connect 45 0 40 0;
#X connect 45 0 42 0;
#X connect 45 0 9 0;
#X connect 45 0 22 1;
#X restore 410 746 pd param;
#X obj 600 710 loadbang;
#X obj 780 710 loadbang;
#N canvas 105 70 1335 536 param 0;
#X obj 850 286 tabwrite \$0-presets;
#X obj 961 193 r gui-scene;
#X obj 961 211 * 16;
#X obj 961 266 +;
#X obj 99 285 tabread \$0-presets;
#X obj 99 169 r gui-scene;
#X obj 99 212 * 16;
#X obj 99 267 +;
#X obj 883 208 t b;
#X obj 850 264 spigot;
#X msg 883 227 0;
#X obj 919 209 del 5;
#X msg 919 228 1;
#X obj 99 189 t f b;
#X obj 129 212 s \$0-wait;
#X obj 883 188 r \$0-wait;
#X obj 1072 289 tabwrite \$0-presets;
#X obj 1183 214 * 16;
#X obj 1183 269 +;
#X text 1060 141 copy scene;
#X obj 1104 165 r copy-scene;
#X obj 1104 186 t b f;
#X obj 1072 221 f;
#X text 830 144 writing param to scene;
#X text 95 146 reading param from array to gui;
#X obj 327 305 tabread \$0-presets;
#X obj 327 210 * 16;
#X obj 327 265 +;
#X obj 327 187 t f b;
#X obj 357 210 s \$0-wait;
#X text 323 144 reading param from array to scene A;
#X obj 327 167 r a-scene;
#X obj 573 305 tabread \$0-presets;
#X obj 573 210 * 16;
#X obj 573 265 +;
#X obj 573 187 t f b;
#X obj 603 210 s \$0-wait;
#X text 567 144 reading param from array to scene B;
#X obj 573 167 r b-scene;
#X obj 327 286 f;
#X obj 353 286 t b;
#X obj 573 286 f;
#X obj 599 286 t b;
#X obj 113 -127 inlet;
#X obj 103 507 outlet;
#X obj 348 -122 inlet;
#X obj 328 502 outlet;
#X obj 574 500 outlet;
#X connect 1 0 2 0;
#X connect 2 0 3 0;
#X connect 3 0 0 1;
#X connect 4 0 44 0;
#X connect 5 0 13 0;
#X connect 6 0 7 0;
#X connect 7 0 4 0;
#X connect 8 0 10 0;
#X connect 8 0 11 0;
#X connect 9 0 0 0;
#X connect 10 0 9 1;
#X connect 11 0 12 0;
#X connect 12 0 9 1;
#X connect 13 0 6 0;
#X connect 13 1 14 0;
#X connect 15 0 8 0;
#X connect 17 0 18 0;
#X connect 18 0 16 1;
#X connect 20 0 21 0;
#X connect 21 0 22 0;
#X connect 21 1 17 0;
#X connect 22 0 16 0;
#X connect 25 0 46 0;
#X connect 26 0 27 0;
#X connect 27 0 39 0;
#X connect 28 0 26 0;
#X connect 28 1 29 0;
#X connect 31 0 28 0;
#X connect 32 0 47 0;
#X connect 33 0 34 0;
#X connect 34 0 41 0;
#X connect 35 0 33 0;
#X connect 35 1 36 0;
#X connect 38 0 35 0;
#X connect 39 0 25 0;
#X connect 40 0 39 0;
#X connect 41 0 32 0;
#X connect 42 0 41 0;
#X connect 43 0 7 1;
#X connect 43 0 27 1;
#X connect 43 0 34 1;
#X connect 43 0 3 1;
#X connect 43 0 18 1;
#X connect 45 0 40 0;
#X connect 45 0 42 0;
#X connect 45 0 9 0;
#X connect 45 0 22 1;
#X restore 600 746 pd param;
#N canvas 105 70 1335 536 param 0;
#X obj 850 286 tabwrite \$0-presets;
#X obj 961 193 r gui-scene;
#X obj 961 211 * 16;
#X obj 961 266 +;
#X obj 99 285 tabread \$0-presets;
#X obj 99 169 r gui-scene;
#X obj 99 212 * 16;
#X obj 99 267 +;
#X obj 883 208 t b;
#X obj 850 264 spigot;
#X msg 883 227 0;
#X obj 919 209 del 5;
#X msg 919 228 1;
#X obj 99 189 t f b;
#X obj 129 212 s \$0-wait;
#X obj 883 188 r \$0-wait;
#X obj 1072 289 tabwrite \$0-presets;
#X obj 1183 214 * 16;
#X obj 1183 269 +;
#X text 1060 141 copy scene;
#X obj 1104 165 r copy-scene;
#X obj 1104 186 t b f;
#X obj 1072 221 f;
#X text 830 144 writing param to scene;
#X text 95 146 reading param from array to gui;
#X obj 327 305 tabread \$0-presets;
#X obj 327 210 * 16;
#X obj 327 265 +;
#X obj 327 187 t f b;
#X obj 357 210 s \$0-wait;
#X text 323 144 reading param from array to scene A;
#X obj 327 167 r a-scene;
#X obj 573 305 tabread \$0-presets;
#X obj 573 210 * 16;
#X obj 573 265 +;
#X obj 573 187 t f b;
#X obj 603 210 s \$0-wait;
#X text 567 144 reading param from array to scene B;
#X obj 573 167 r b-scene;
#X obj 327 286 f;
#X obj 353 286 t b;
#X obj 573 286 f;
#X obj 599 286 t b;
#X obj 113 -127 inlet;
#X obj 103 507 outlet;
#X obj 348 -122 inlet;
#X obj 328 502 outlet;
#X obj 574 500 outlet;
#X connect 1 0 2 0;
#X connect 2 0 3 0;
#X connect 3 0 0 1;
#X connect 4 0 44 0;
#X connect 5 0 13 0;
#X connect 6 0 7 0;
#X connect 7 0 4 0;
#X connect 8 0 10 0;
#X connect 8 0 11 0;
#X connect 9 0 0 0;
#X connect 10 0 9 1;
#X connect 11 0 12 0;
#X connect 12 0 9 1;
#X connect 13 0 6 0;
#X connect 13 1 14 0;
#X connect 15 0 8 0;
#X connect 17 0 18 0;
#X connect 18 0 16 1;
#X connect 20 0 21 0;
#X connect 21 0 22 0;
#X connect 21 1 17 0;
#X connect 22 0 16 0;
#X connect 25 0 46 0;
#X connect 26 0 27 0;
#X connect 27 0 39 0;
#X connect 28 0 26 0;
#X connect 28 1 29 0;
#X connect 31 0 28 0;
#X connect 32 0 47 0;
#X connect 33 0 34 0;
#X connect 34 0 41 0;
#X connect 35 0 33 0;
#X connect 35 1 36 0;
#X connect 38 0 35 0;
#X connect 39 0 25 0;
#X connect 40 0 39 0;
#X connect 41 0 32 0;
#X connect 42 0 41 0;
#X connect 43 0 7 1;
#X connect 43 0 27 1;
#X connect 43 0 34 1;
#X connect 43 0 3 1;
#X connect 43 0 18 1;
#X connect 45 0 40 0;
#X connect 45 0 42 0;
#X connect 45 0 9 0;
#X connect 45 0 22 1;
#X restore 780 746 pd param;
#X msg 230 728 5;
#X obj 281 727 r \$0-param-5-s;
#X obj 281 770 s \$0-param-5-r-b;
#X obj 255 790 s \$0-param-5-r-a;
#X obj 230 809 s \$0-param-5-r;
#X msg 410 728 6;
#X obj 461 727 r \$0-param-6-s;
#X obj 461 770 s \$0-param-6-r-b;
#X obj 435 790 s \$0-param-6-r-a;
#X obj 410 809 s \$0-param-6-r;
#X msg 600 728 7;
#X obj 651 727 r \$0-param-7-s;
#X obj 651 770 s \$0-param-7-r-b;
#X obj 625 790 s \$0-param-7-r-a;
#X obj 600 809 s \$0-param-7-r;
#X msg 780 728 8;
#X obj 831 727 r \$0-param-8-s;
#X obj 831 770 s \$0-param-8-r-b;
#X obj 805 790 s \$0-param-8-r-a;
#X obj 780 809 s \$0-param-8-r;
#X obj 230 850 loadbang;
#X obj 410 850 loadbang;
#N canvas 105 70 1335 536 param 0;
#X obj 850 286 tabwrite \$0-presets;
#X obj 961 193 r gui-scene;
#X obj 961 211 * 16;
#X obj 961 266 +;
#X obj 99 285 tabread \$0-presets;
#X obj 99 169 r gui-scene;
#X obj 99 212 * 16;
#X obj 99 267 +;
#X obj 883 208 t b;
#X obj 850 264 spigot;
#X msg 883 227 0;
#X obj 919 209 del 5;
#X msg 919 228 1;
#X obj 99 189 t f b;
#X obj 129 212 s \$0-wait;
#X obj 883 188 r \$0-wait;
#X obj 1072 289 tabwrite \$0-presets;
#X obj 1183 214 * 16;
#X obj 1183 269 +;
#X text 1060 141 copy scene;
#X obj 1104 165 r copy-scene;
#X obj 1104 186 t b f;
#X obj 1072 221 f;
#X text 830 144 writing param to scene;
#X text 95 146 reading param from array to gui;
#X obj 327 305 tabread \$0-presets;
#X obj 327 210 * 16;
#X obj 327 265 +;
#X obj 327 187 t f b;
#X obj 357 210 s \$0-wait;
#X text 323 144 reading param from array to scene A;
#X obj 327 167 r a-scene;
#X obj 573 305 tabread \$0-presets;
#X obj 573 210 * 16;
#X obj 573 265 +;
#X obj 573 187 t f b;
#X obj 603 210 s \$0-wait;
#X text 567 144 reading param from array to scene B;
#X obj 573 167 r b-scene;
#X obj 327 286 f;
#X obj 353 286 t b;
#X obj 573 286 f;
#X obj 599 286 t b;
#X obj 113 -127 inlet;
#X obj 103 507 outlet;
#X obj 348 -122 inlet;
#X obj 328 502 outlet;
#X obj 574 500 outlet;
#X connect 1 0 2 0;
#X connect 2 0 3 0;
#X connect 3 0 0 1;
#X connect 4 0 44 0;
#X connect 5 0 13 0;
#X connect 6 0 7 0;
#X connect 7 0 4 0;
#X connect 8 0 10 0;
#X connect 8 0 11 0;
#X connect 9 0 0 0;
#X connect 10 0 9 1;
#X connect 11 0 12 0;
#X connect 12 0 9 1;
#X connect 13 0 6 0;
#X connect 13 1 14 0;
#X connect 15 0 8 0;
#X connect 17 0 18 0;
#X connect 18 0 16 1;
#X connect 20 0 21 0;
#X connect 21 0 22 0;
#X connect 21 1 17 0;
#X connect 22 0 16 0;
#X connect 25 0 46 0;
#X connect 26 0 27 0;
#X connect 27 0 39 0;
#X connect 28 0 26 0;
#X connect 28 1 29 0;
#X connect 31 0 28 0;
#X connect 32 0 47 0;
#X connect 33 0 34 0;
#X connect 34 0 41 0;
#X connect 35 0 33 0;
#X connect 35 1 36 0;
#X connect 38 0 35 0;
#X connect 39 0 25 0;
#X connect 40 0 39 0;
#X connect 41 0 32 0;
#X connect 42 0 41 0;
#X connect 43 0 7 1;
#X connect 43 0 27 1;
#X connect 43 0 34 1;
#X connect 43 0 3 1;
#X connect 43 0 18 1;
#X connect 45 0 40 0;
#X connect 45 0 42 0;
#X connect 45 0 9 0;
#X connect 45 0 22 1;
#X restore 230 886 pd param;
#N canvas 105 70 1335 536 param 0;
#X obj 850 286 tabwrite \$0-presets;
#X obj 961 193 r gui-scene;
#X obj 961 211 * 16;
#X obj 961 266 +;
#X obj 99 285 tabread \$0-presets;
#X obj 99 169 r gui-scene;
#X obj 99 212 * 16;
#X obj 99 267 +;
#X obj 883 208 t b;
#X obj 850 264 spigot;
#X msg 883 227 0;
#X obj 919 209 del 5;
#X msg 919 228 1;
#X obj 99 189 t f b;
#X obj 129 212 s \$0-wait;
#X obj 883 188 r \$0-wait;
#X obj 1072 289 tabwrite \$0-presets;
#X obj 1183 214 * 16;
#X obj 1183 269 +;
#X text 1060 141 copy scene;
#X obj 1104 165 r copy-scene;
#X obj 1104 186 t b f;
#X obj 1072 221 f;
#X text 830 144 writing param to scene;
#X text 95 146 reading param from array to gui;
#X obj 327 305 tabread \$0-presets;
#X obj 327 210 * 16;
#X obj 327 265 +;
#X obj 327 187 t f b;
#X obj 357 210 s \$0-wait;
#X text 323 144 reading param from array to scene A;
#X obj 327 167 r a-scene;
#X obj 573 305 tabread \$0-presets;
#X obj 573 210 * 16;
#X obj 573 265 +;
#X obj 573 187 t f b;
#X obj 603 210 s \$0-wait;
#X text 567 144 reading param from array to scene B;
#X obj 573 167 r b-scene;
#X obj 327 286 f;
#X obj 353 286 t b;
#X obj 573 286 f;
#X obj 599 286 t b;
#X obj 113 -127 inlet;
#X obj 103 507 outlet;
#X obj 348 -122 inlet;
#X obj 328 502 outlet;
#X obj 574 500 outlet;
#X connect 1 0 2 0;
#X connect 2 0 3 0;
#X connect 3 0 0 1;
#X connect 4 0 44 0;
#X connect 5 0 13 0;
#X connect 6 0 7 0;
#X connect 7 0 4 0;
#X connect 8 0 10 0;
#X connect 8 0 11 0;
#X connect 9 0 0 0;
#X connect 10 0 9 1;
#X connect 11 0 12 0;
#X connect 12 0 9 1;
#X connect 13 0 6 0;
#X connect 13 1 14 0;
#X connect 15 0 8 0;
#X connect 17 0 18 0;
#X connect 18 0 16 1;
#X connect 20 0 21 0;
#X connect 21 0 22 0;
#X connect 21 1 17 0;
#X connect 22 0 16 0;
#X connect 25 0 46 0;
#X connect 26 0 27 0;
#X connect 27 0 39 0;
#X connect 28 0 26 0;
#X connect 28 1 29 0;
#X connect 31 0 28 0;
#X connect 32 0 47 0;
#X connect 33 0 34 0;
#X connect 34 0 41 0;
#X connect 35 0 33 0;
#X connect 35 1 36 0;
#X connect 38 0 35 0;
#X connect 39 0 25 0;
#X connect 40 0 39 0;
#X connect 41 0 32 0;
#X connect 42 0 41 0;
#X connect 43 0 7 1;
#X connect 43 0 27 1;
#X connect 43 0 34 1;
#X connect 43 0 3 1;
#X connect 43 0 18 1;
#X connect 45 0 40 0;
#X connect 45 0 42 0;
#X connect 45 0 9 0;
#X connect 45 0 22 1;
#X restore 410 886 pd param;
#X obj 600 850 loadbang;
#X obj 780 850 loadbang;
#N canvas 105 70 1335 536 param 0;
#X obj 850 286 tabwrite \$0-presets;
#X obj 961 193 r gui-scene;
#X obj 961 211 * 16;
#X obj 961 266 +;
#X obj 99 285 tabread \$0-presets;
#X obj 99 169 r gui-scene;
#X obj 99 212 * 16;
#X obj 99 267 +;
#X obj 883 208 t b;
#X obj 850 264 spigot;
#X msg 883 227 0;
#X obj 919 209 del 5;
#X msg 919 228 1;
#X obj 99 189 t f b;
#X obj 129 212 s \$0-wait;
#X obj 883 188 r \$0-wait;
#X obj 1072 289 tabwrite \$0-presets;
#X obj 1183 214 * 16;
#X obj 1183 269 +;
#X text 1060 141 copy scene;
#X obj 1104 165 r copy-scene;
#X obj 1104 186 t b f;
#X obj 1072 221 f;
#X text 830 144 writing param to scene;
#X text 95 146 reading param from array to gui;
#X obj 327 305 tabread \$0-presets;
#X obj 327 210 * 16;
#X obj 327 265 +;
#X obj 327 187 t f b;
#X obj 357 210 s \$0-wait;
#X text 323 144 reading param from array to scene A;
#X obj 327 167 r a-scene;
#X obj 573 305 tabread \$0-presets;
#X obj 573 210 * 16;
#X obj 573 265 +;
#X obj 573 187 t f b;
#X obj 603 210 s \$0-wait;
#X text 567 144 reading param from array to scene B;
#X obj 573 167 r b-scene;
#X obj 327 286 f;
#X obj 353 286 t b;
#X obj 573 286 f;
#X obj 599 286 t b;
#X obj 113 -127 inlet;
#X obj 103 507 outlet;
#X obj 348 -122 inlet;
#X obj 328 502 outlet;
#X obj 574 500 outlet;
#X connect 1 0 2 0;
#X connect 2 0 3 0;
#X connect 3 0 0 1;
#X connect 4 0 44 0;
#X connect 5 0 13 0;
#X connect 6 0 7 0;
#X connect 7 0 4 0;
#X connect 8 0 10 0;
#X connect 8 0 11 0;
#X connect 9 0 0 0;
#X connect 10 0 9 1;
#X connect 11 0 12 0;
#X connect 12 0 9 1;
#X connect 13 0 6 0;
#X connect 13 1 14 0;
#X connect 15 0 8 0;
#X connect 17 0 18 0;
#X connect 18 0 16 1;
#X connect 20 0 21 0;
#X connect 21 0 22 0;
#X connect 21 1 17 0;
#X connect 22 0 16 0;
#X connect 25 0 46 0;
#X connect 26 0 27 0;
#X connect 27 0 39 0;
#X connect 28 0 26 0;
#X connect 28 1 29 0;
#X connect 31 0 28 0;
#X connect 32 0 47 0;
#X connect 33 0 34 0;
#X connect 34 0 41 0;
#X connect 35 0 33 0;
#X connect 35 1 36 0;
#X connect 38 0 35 0;
#X connect 39 0 25 0;
#X connect 40 0 39 0;
#X connect 41 0 32 0;
#X connect 42 0 41 0;
#X connect 43 0 7 1;
#X connect 43 0 27 1;
#X connect 43 0 34 1;
#X connect 43 0 3 1;
#X connect 43 0 18 1;
#X connect 45 0 40 0;
#X connect 45 0 42 0;
#X connect 45 0 9 0;
#X connect 45 0 22 1;
#X restore 600 886 pd param;
#N canvas 105 70 1335 536 param 0;
#X obj 850 286 tabwrite \$0-presets;
#X obj 961 193 r gui-scene;
#X obj 961 211 * 16;
#X obj 961 266 +;
#X obj 99 285 tabread \$0-presets;
#X obj 99 169 r gui-scene;
#X obj 99 212 * 16;
#X obj 99 267 +;
#X obj 883 208 t b;
#X obj 850 264 spigot;
#X msg 883 227 0;
#X obj 919 209 del 5;
#X msg 919 228 1;
#X obj 99 189 t f b;
#X obj 129 212 s \$0-wait;
#X obj 883 188 r \$0-wait;
#X obj 1072 289 tabwrite \$0-presets;
#X obj 1183 214 * 16;
#X obj 1183 269 +;
#X text 1060 141 copy scene;
#X obj 1104 165 r copy-scene;
#X obj 1104 186 t b f;
#X obj 1072 221 f;
#X text 830 144 writing param to scene;
#X text 95 146 reading param from array to gui;
#X obj 327 305 tabread \$0-presets;
#X obj 327 210 * 16;
#X obj 327 265 +;
#X obj 327 187 t f b;
#X obj 357 210 s \$0-wait;
#X text 323 144 reading param from array to scene A;
#X obj 327 167 r a-scene;
#X obj 573 305 tabread \$0-presets;
#X obj 573 210 * 16;
#X obj 573 265 +;
#X obj 573 187 t f b;
#X obj 603 210 s \$0-wait;
#X text 567 144 reading param from array to scene B;
#X obj 573 167 r b-scene;
#X obj 327 286 f;
#X obj 353 286 t b;
#X obj 573 286 f;
#X obj 599 286 t b;
#X obj 113 -127 inlet;
#X obj 103 507 outlet;
#X obj 348 -122 inlet;
#X obj 328 502 outlet;
#X obj 574 500 outlet;
#X connect 1 0 2 0;
#X connect 2 0 3 0;
#X connect 3 0 0 1;
#X connect 4 0 44 0;
#X connect 5 0 13 0;
#X connect 6 0 7 0;
#X connect 7 0 4 0;
#X connect 8 0 10 0;
#X connect 8 0 11 0;
#X connect 9 0 0 0;
#X connect 10 0 9 1;
#X connect 11 0 12 0;
#X connect 12 0 9 1;
#X connect 13 0 6 0;
#X connect 13 1 14 0;
#X connect 15 0 8 0;
#X connect 17 0 18 0;
#X connect 18 0 16 1;
#X connect 20 0 21 0;
#X connect 21 0 22 0;
#X connect 21 1 17 0;
#X connect 22 0 16 0;
#X connect 25 0 46 0;
#X connect 26 0 27 0;
#X connect 27 0 39 0;
#X connect 28 0 26 0;
#X connect 28 1 29 0;
#X connect 31 0 28 0;
#X connect 32 0 47 0;
#X connect 33 0 34 0;
#X connect 34 0 41 0;
#X connect 35 0 33 0;
#X connect 35 1 36 0;
#X connect 38 0 35 0;
#X connect 39 0 25 0;
#X connect 40 0 39 0;
#X connect 41 0 32 0;
#X connect 42 0 41 0;
#X connect 43 0 7 1;
#X connect 43 0 27 1;
#X connect 43 0 34 1;
#X connect 43 0 3 1;
#X connect 43 0 18 1;
#X connect 45 0 40 0;
#X connect 45 0 42 0;
#X connect 45 0 9 0;
#X connect 45 0 22 1;
#X restore 780 886 pd param;
#X msg 230 868 9;
#X obj 281 867 r \$0-param-9-s;
#X obj 281 910 s \$0-param-9-r-b;
#X obj 255 930 s \$0-param-9-r-a;
#X obj 230 949 s \$0-param-9-r;
#X msg 410 868 10;
#X obj 461 867 r \$0-param-10-s;
#X obj 461 910 s \$0-param-10-r-b;
#X obj 435 930 s \$0-param-10-r-a;
#X obj 410 949 s \$0-param-10-r;
#X msg 600 868 11;
#X obj 651 867 r \$0-param-11-s;
#X obj 651 910 s \$0-param-11-r-b;
#X obj 625 930 s \$0-param-11-r-a;
#X obj 600 949 s \$0-param-11-r;
#X msg 780 868 12;
#X obj 831 867 r \$0-param-12-s;
#X obj 831 911 s \$0-param-12-r-b;
#X obj 805 930 s \$0-param-12-r-a;
#X obj 780 949 s \$0-param-12-r;
#X obj 230 990 loadbang;
#X obj 410 990 loadbang;
#N canvas 105 70 1335 536 param 0;
#X obj 850 286 tabwrite \$0-presets;
#X obj 961 193 r gui-scene;
#X obj 961 211 * 16;
#X obj 961 266 +;
#X obj 99 285 tabread \$0-presets;
#X obj 99 169 r gui-scene;
#X obj 99 212 * 16;
#X obj 99 267 +;
#X obj 883 208 t b;
#X obj 850 264 spigot;
#X msg 883 227 0;
#X obj 919 209 del 5;
#X msg 919 228 1;
#X obj 99 189 t f b;
#X obj 129 212 s \$0-wait;
#X obj 883 188 r \$0-wait;
#X obj 1072 289 tabwrite \$0-presets;
#X obj 1183 214 * 16;
#X obj 1183 269 +;
#X text 1060 141 copy scene;
#X obj 1104 165 r copy-scene;
#X obj 1104 186 t b f;
#X obj 1072 221 f;
#X text 830 144 writing param to scene;
#X text 95 146 reading param from array to gui;
#X obj 327 305 tabread \$0-presets;
#X obj 327 210 * 16;
#X obj 327 265 +;
#X obj 327 187 t f b;
#X obj 357 210 s \$0-wait;
#X text 323 144 reading param from array to scene A;
#X obj 327 167 r a-scene;
#X obj 573 305 tabread \$0-presets;
#X obj 573 210 * 16;
#X obj 573 265 +;
#X obj 573 187 t f b;
#X obj 603 210 s \$0-wait;
#X text 567 144 reading param from array to scene B;
#X obj 573 167 r b-scene;
#X obj 327 286 f;
#X obj 353 286 t b;
#X obj 573 286 f;
#X obj 599 286 t b;
#X obj 113 -127 inlet;
#X obj 103 507 outlet;
#X obj 348 -122 inlet;
#X obj 328 502 outlet;
#X obj 574 500 outlet;
#X connect 1 0 2 0;
#X connect 2 0 3 0;
#X connect 3 0 0 1;
#X connect 4 0 44 0;
#X connect 5 0 13 0;
#X connect 6 0 7 0;
#X connect 7 0 4 0;
#X connect 8 0 10 0;
#X connect 8 0 11 0;
#X connect 9 0 0 0;
#X connect 10 0 9 1;
#X connect 11 0 12 0;
#X connect 12 0 9 1;
#X connect 13 0 6 0;
#X connect 13 1 14 0;
#X connect 15 0 8 0;
#X connect 17 0 18 0;
#X connect 18 0 16 1;
#X connect 20 0 21 0;
#X connect 21 0 22 0;
#X connect 21 1 17 0;
#X connect 22 0 16 0;
#X connect 25 0 46 0;
#X connect 26 0 27 0;
#X connect 27 0 39 0;
#X connect 28 0 26 0;
#X connect 28 1 29 0;
#X connect 31 0 28 0;
#X connect 32 0 47 0;
#X connect 33 0 34 0;
#X connect 34 0 41 0;
#X connect 35 0 33 0;
#X connect 35 1 36 0;
#X connect 38 0 35 0;
#X connect 39 0 25 0;
#X connect 40 0 39 0;
#X connect 41 0 32 0;
#X connect 42 0 41 0;
#X connect 43 0 7 1;
#X connect 43 0 27 1;
#X connect 43 0 34 1;
#X connect 43 0 3 1;
#X connect 43 0 18 1;
#X connect 45 0 40 0;
#X connect 45 0 42 0;
#X connect 45 0 9 0;
#X connect 45 0 22 1;
#X restore 230 1026 pd param;
#N canvas 105 70 1335 536 param 0;
#X obj 850 286 tabwrite \$0-presets;
#X obj 961 193 r gui-scene;
#X obj 961 211 * 16;
#X obj 961 266 +;
#X obj 99 285 tabread \$0-presets;
#X obj 99 169 r gui-scene;
#X obj 99 212 * 16;
#X obj 99 267 +;
#X obj 883 208 t b;
#X obj 850 264 spigot;
#X msg 883 227 0;
#X obj 919 209 del 5;
#X msg 919 228 1;
#X obj 99 189 t f b;
#X obj 129 212 s \$0-wait;
#X obj 883 188 r \$0-wait;
#X obj 1072 289 tabwrite \$0-presets;
#X obj 1183 214 * 16;
#X obj 1183 269 +;
#X text 1060 141 copy scene;
#X obj 1104 165 r copy-scene;
#X obj 1104 186 t b f;
#X obj 1072 221 f;
#X text 830 144 writing param to scene;
#X text 95 146 reading param from array to gui;
#X obj 327 305 tabread \$0-presets;
#X obj 327 210 * 16;
#X obj 327 265 +;
#X obj 327 187 t f b;
#X obj 357 210 s \$0-wait;
#X text 323 144 reading param from array to scene A;
#X obj 327 167 r a-scene;
#X obj 573 305 tabread \$0-presets;
#X obj 573 210 * 16;
#X obj 573 265 +;
#X obj 573 187 t f b;
#X obj 603 210 s \$0-wait;
#X text 567 144 reading param from array to scene B;
#X obj 573 167 r b-scene;
#X obj 327 286 f;
#X obj 353 286 t b;
#X obj 573 286 f;
#X obj 599 286 t b;
#X obj 113 -127 inlet;
#X obj 103 507 outlet;
#X obj 348 -122 inlet;
#X obj 328 502 outlet;
#X obj 574 500 outlet;
#X connect 1 0 2 0;
#X connect 2 0 3 0;
#X connect 3 0 0 1;
#X connect 4 0 44 0;
#X connect 5 0 13 0;
#X connect 6 0 7 0;
#X connect 7 0 4 0;
#X connect 8 0 10 0;
#X connect 8 0 11 0;
#X connect 9 0 0 0;
#X connect 10 0 9 1;
#X connect 11 0 12 0;
#X connect 12 0 9 1;
#X connect 13 0 6 0;
#X connect 13 1 14 0;
#X connect 15 0 8 0;
#X connect 17 0 18 0;
#X connect 18 0 16 1;
#X connect 20 0 21 0;
#X connect 21 0 22 0;
#X connect 21 1 17 0;
#X connect 22 0 16 0;
#X connect 25 0 46 0;
#X connect 26 0 27 0;
#X connect 27 0 39 0;
#X connect 28 0 26 0;
#X connect 28 1 29 0;
#X connect 31 0 28 0;
#X connect 32 0 47 0;
#X connect 33 0 34 0;
#X connect 34 0 41 0;
#X connect 35 0 33 0;
#X connect 35 1 36 0;
#X connect 38 0 35 0;
#X connect 39 0 25 0;
#X connect 40 0 39 0;
#X connect 41 0 32 0;
#X connect 42 0 41 0;
#X connect 43 0 7 1;
#X connect 43 0 27 1;
#X connect 43 0 34 1;
#X connect 43 0 3 1;
#X connect 43 0 18 1;
#X connect 45 0 40 0;
#X connect 45 0 42 0;
#X connect 45 0 9 0;
#X connect 45 0 22 1;
#X restore 410 1026 pd param;
#X obj 600 990 loadbang;
#X obj 780 990 loadbang;
#N canvas 105 70 1335 536 param 0;
#X obj 850 286 tabwrite \$0-presets;
#X obj 961 193 r gui-scene;
#X obj 961 211 * 16;
#X obj 961 266 +;
#X obj 99 285 tabread \$0-presets;
#X obj 99 169 r gui-scene;
#X obj 99 212 * 16;
#X obj 99 267 +;
#X obj 883 208 t b;
#X obj 850 264 spigot;
#X msg 883 227 0;
#X obj 919 209 del 5;
#X msg 919 228 1;
#X obj 99 189 t f b;
#X obj 129 212 s \$0-wait;
#X obj 883 188 r \$0-wait;
#X obj 1072 289 tabwrite \$0-presets;
#X obj 1183 214 * 16;
#X obj 1183 269 +;
#X text 1060 141 copy scene;
#X obj 1104 165 r copy-scene;
#X obj 1104 186 t b f;
#X obj 1072 221 f;
#X text 830 144 writing param to scene;
#X text 95 146 reading param from array to gui;
#X obj 327 305 tabread \$0-presets;
#X obj 327 210 * 16;
#X obj 327 265 +;
#X obj 327 187 t f b;
#X obj 357 210 s \$0-wait;
#X text 323 144 reading param from array to scene A;
#X obj 327 167 r a-scene;
#X obj 573 305 tabread \$0-presets;
#X obj 573 210 * 16;
#X obj 573 265 +;
#X obj 573 187 t f b;
#X obj 603 210 s \$0-wait;
#X text 567 144 reading param from array to scene B;
#X obj 573 167 r b-scene;
#X obj 327 286 f;
#X obj 353 286 t b;
#X obj 573 286 f;
#X obj 599 286 t b;
#X obj 113 -127 inlet;
#X obj 103 507 outlet;
#X obj 348 -122 inlet;
#X obj 328 502 outlet;
#X obj 574 500 outlet;
#X connect 1 0 2 0;
#X connect 2 0 3 0;
#X connect 3 0 0 1;
#X connect 4 0 44 0;
#X connect 5 0 13 0;
#X connect 6 0 7 0;
#X connect 7 0 4 0;
#X connect 8 0 10 0;
#X connect 8 0 11 0;
#X connect 9 0 0 0;
#X connect 10 0 9 1;
#X connect 11 0 12 0;
#X connect 12 0 9 1;
#X connect 13 0 6 0;
#X connect 13 1 14 0;
#X connect 15 0 8 0;
#X connect 17 0 18 0;
#X connect 18 0 16 1;
#X connect 20 0 21 0;
#X connect 21 0 22 0;
#X connect 21 1 17 0;
#X connect 22 0 16 0;
#X connect 25 0 46 0;
#X connect 26 0 27 0;
#X connect 27 0 39 0;
#X connect 28 0 26 0;
#X connect 28 1 29 0;
#X connect 31 0 28 0;
#X connect 32 0 47 0;
#X connect 33 0 34 0;
#X connect 34 0 41 0;
#X connect 35 0 33 0;
#X connect 35 1 36 0;
#X connect 38 0 35 0;
#X connect 39 0 25 0;
#X connect 40 0 39 0;
#X connect 41 0 32 0;
#X connect 42 0 41 0;
#X connect 43 0 7 1;
#X connect 43 0 27 1;
#X connect 43 0 34 1;
#X connect 43 0 3 1;
#X connect 43 0 18 1;
#X connect 45 0 40 0;
#X connect 45 0 42 0;
#X connect 45 0 9 0;
#X connect 45 0 22 1;
#X restore 600 1026 pd param;
#N canvas 105 70 1335 536 param 0;
#X obj 850 286 tabwrite \$0-presets;
#X obj 961 193 r gui-scene;
#X obj 961 211 * 16;
#X obj 961 266 +;
#X obj 99 285 tabread \$0-presets;
#X obj 99 169 r gui-scene;
#X obj 99 212 * 16;
#X obj 99 267 +;
#X obj 883 208 t b;
#X obj 850 264 spigot;
#X msg 883 227 0;
#X obj 919 209 del 5;
#X msg 919 228 1;
#X obj 99 189 t f b;
#X obj 129 212 s \$0-wait;
#X obj 883 188 r \$0-wait;
#X obj 1072 289 tabwrite \$0-presets;
#X obj 1183 214 * 16;
#X obj 1183 269 +;
#X text 1060 141 copy scene;
#X obj 1104 165 r copy-scene;
#X obj 1104 186 t b f;
#X obj 1072 221 f;
#X text 830 144 writing param to scene;
#X text 95 146 reading param from array to gui;
#X obj 327 305 tabread \$0-presets;
#X obj 327 210 * 16;
#X obj 327 265 +;
#X obj 327 187 t f b;
#X obj 357 210 s \$0-wait;
#X text 323 144 reading param from array to scene A;
#X obj 327 167 r a-scene;
#X obj 573 305 tabread \$0-presets;
#X obj 573 210 * 16;
#X obj 573 265 +;
#X obj 573 187 t f b;
#X obj 603 210 s \$0-wait;
#X text 567 144 reading param from array to scene B;
#X obj 573 167 r b-scene;
#X obj 327 286 f;
#X obj 353 286 t b;
#X obj 573 286 f;
#X obj 599 286 t b;
#X obj 113 -127 inlet;
#X obj 103 507 outlet;
#X obj 348 -122 inlet;
#X obj 328 502 outlet;
#X obj 574 500 outlet;
#X connect 1 0 2 0;
#X connect 2 0 3 0;
#X connect 3 0 0 1;
#X connect 4 0 44 0;
#X connect 5 0 13 0;
#X connect 6 0 7 0;
#X connect 7 0 4 0;
#X connect 8 0 10 0;
#X connect 8 0 11 0;
#X connect 9 0 0 0;
#X connect 10 0 9 1;
#X connect 11 0 12 0;
#X connect 12 0 9 1;
#X connect 13 0 6 0;
#X connect 13 1 14 0;
#X connect 15 0 8 0;
#X connect 17 0 18 0;
#X connect 18 0 16 1;
#X connect 20 0 21 0;
#X connect 21 0 22 0;
#X connect 21 1 17 0;
#X connect 22 0 16 0;
#X connect 25 0 46 0;
#X connect 26 0 27 0;
#X connect 27 0 39 0;
#X connect 28 0 26 0;
#X connect 28 1 29 0;
#X connect 31 0 28 0;
#X connect 32 0 47 0;
#X connect 33 0 34 0;
#X connect 34 0 41 0;
#X connect 35 0 33 0;
#X connect 35 1 36 0;
#X connect 38 0 35 0;
#X connect 39 0 25 0;
#X connect 40 0 39 0;
#X connect 41 0 32 0;
#X connect 42 0 41 0;
#X connect 43 0 7 1;
#X connect 43 0 27 1;
#X connect 43 0 34 1;
#X connect 43 0 3 1;
#X connect 43 0 18 1;
#X connect 45 0 40 0;
#X connect 45 0 42 0;
#X connect 45 0 9 0;
#X connect 45 0 22 1;
#X restore 780 1026 pd param;
#X msg 230 1008 13;
#X obj 281 1007 r \$0-param-13-s;
#X obj 281 1050 s \$0-param-13-r-b;
#X obj 255 1070 s \$0-param-13-r-a;
#X obj 230 1089 s \$0-param-13-r;
#X msg 410 1008 14;
#X obj 461 1007 r \$0-param-14-s;
#X obj 461 1050 s \$0-param-14-r-b;
#X obj 435 1070 s \$0-param-14-r-a;
#X obj 410 1089 s \$0-param-14-r;
#X msg 600 1008 15;
#X obj 651 1007 r \$0-param-15-s;
#X obj 651 1050 s \$0-param-15-r-b;
#X obj 625 1070 s \$0-param-15-r-a;
#X obj 600 1089 s \$0-param-15-r;
#X msg 780 1008 16;
#X obj 831 1007 r \$0-param-16-s;
#X obj 831 1051 s \$0-param-16-r-b;
#X obj 805 1070 s \$0-param-16-r-a;
#X obj 780 1089 s \$0-param-16-r;
#X obj 230 1120 loadbang;
#X obj 410 1120 loadbang;
#N canvas 105 70 1335 536 param 0;
#X obj 850 286 tabwrite \$0-presets;
#X obj 961 193 r gui-scene;
#X obj 961 211 * 16;
#X obj 961 266 +;
#X obj 99 285 tabread \$0-presets;
#X obj 99 169 r gui-scene;
#X obj 99 212 * 16;
#X obj 99 267 +;
#X obj 883 208 t b;
#X obj 850 264 spigot;
#X msg 883 227 0;
#X obj 919 209 del 5;
#X msg 919 228 1;
#X obj 99 189 t f b;
#X obj 129 212 s \$0-wait;
#X obj 883 188 r \$0-wait;
#X obj 1072 289 tabwrite \$0-presets;
#X obj 1183 214 * 16;
#X obj 1183 269 +;
#X text 1060 141 copy scene;
#X obj 1104 165 r copy-scene;
#X obj 1104 186 t b f;
#X obj 1072 221 f;
#X text 830 144 writing param to scene;
#X text 95 146 reading param from array to gui;
#X obj 327 305 tabread \$0-presets;
#X obj 327 210 * 16;
#X obj 327 265 +;
#X obj 327 187 t f b;
#X obj 357 210 s \$0-wait;
#X text 323 144 reading param from array to scene A;
#X obj 327 167 r a-scene;
#X obj 573 305 tabread \$0-presets;
#X obj 573 210 * 16;
#X obj 573 265 +;
#X obj 573 187 t f b;
#X obj 603 210 s \$0-wait;
#X text 567 144 reading param from array to scene B;
#X obj 573 167 r b-scene;
#X obj 327 286 f;
#X obj 353 286 t b;
#X obj 573 286 f;
#X obj 599 286 t b;
#X obj 113 -127 inlet;
#X obj 103 507 outlet;
#X obj 348 -122 inlet;
#X obj 328 502 outlet;
#X obj 574 500 outlet;
#X connect 1 0 2 0;
#X connect 2 0 3 0;
#X connect 3 0 0 1;
#X connect 4 0 44 0;
#X connect 5 0 13 0;
#X connect 6 0 7 0;
#X connect 7 0 4 0;
#X connect 8 0 10 0;
#X connect 8 0 11 0;
#X connect 9 0 0 0;
#X connect 10 0 9 1;
#X connect 11 0 12 0;
#X connect 12 0 9 1;
#X connect 13 0 6 0;
#X connect 13 1 14 0;
#X connect 15 0 8 0;
#X connect 17 0 18 0;
#X connect 18 0 16 1;
#X connect 20 0 21 0;
#X connect 21 0 22 0;
#X connect 21 1 17 0;
#X connect 22 0 16 0;
#X connect 25 0 46 0;
#X connect 26 0 27 0;
#X connect 27 0 39 0;
#X connect 28 0 26 0;
#X connect 28 1 29 0;
#X connect 31 0 28 0;
#X connect 32 0 47 0;
#X connect 33 0 34 0;
#X connect 34 0 41 0;
#X connect 35 0 33 0;
#X connect 35 1 36 0;
#X connect 38 0 35 0;
#X connect 39 0 25 0;
#X connect 40 0 39 0;
#X connect 41 0 32 0;
#X connect 42 0 41 0;
#X connect 43 0 7 1;
#X connect 43 0 27 1;
#X connect 43 0 34 1;
#X connect 43 0 3 1;
#X connect 43 0 18 1;
#X connect 45 0 40 0;
#X connect 45 0 42 0;
#X connect 45 0 9 0;
#X connect 45 0 22 1;
#X restore 230 1156 pd param;
#N canvas 105 70 1335 536 param 0;
#X obj 850 286 tabwrite \$0-presets;
#X obj 961 193 r gui-scene;
#X obj 961 211 * 16;
#X obj 961 266 +;
#X obj 99 285 tabread \$0-presets;
#X obj 99 169 r gui-scene;
#X obj 99 212 * 16;
#X obj 99 267 +;
#X obj 883 208 t b;
#X obj 850 264 spigot;
#X msg 883 227 0;
#X obj 919 209 del 5;
#X msg 919 228 1;
#X obj 99 189 t f b;
#X obj 129 212 s \$0-wait;
#X obj 883 188 r \$0-wait;
#X obj 1072 289 tabwrite \$0-presets;
#X obj 1183 214 * 16;
#X obj 1183 269 +;
#X text 1060 141 copy scene;
#X obj 1104 165 r copy-scene;
#X obj 1104 186 t b f;
#X obj 1072 221 f;
#X text 830 144 writing param to scene;
#X text 95 146 reading param from array to gui;
#X obj 327 305 tabread \$0-presets;
#X obj 327 210 * 16;
#X obj 327 265 +;
#X obj 327 187 t f b;
#X obj 357 210 s \$0-wait;
#X text 323 144 reading param from array to scene A;
#X obj 327 167 r a-scene;
#X obj 573 305 tabread \$0-presets;
#X obj 573 210 * 16;
#X obj 573 265 +;
#X obj 573 187 t f b;
#X obj 603 210 s \$0-wait;
#X text 567 144 reading param from array to scene B;
#X obj 573 167 r b-scene;
#X obj 327 286 f;
#X obj 353 286 t b;
#X obj 573 286 f;
#X obj 599 286 t b;
#X obj 113 -127 inlet;
#X obj 103 507 outlet;
#X obj 348 -122 inlet;
#X obj 328 502 outlet;
#X obj 574 500 outlet;
#X connect 1 0 2 0;
#X connect 2 0 3 0;
#X connect 3 0 0 1;
#X connect 4 0 44 0;
#X connect 5 0 13 0;
#X connect 6 0 7 0;
#X connect 7 0 4 0;
#X connect 8 0 10 0;
#X connect 8 0 11 0;
#X connect 9 0 0 0;
#X connect 10 0 9 1;
#X connect 11 0 12 0;
#X connect 12 0 9 1;
#X connect 13 0 6 0;
#X connect 13 1 14 0;
#X connect 15 0 8 0;
#X connect 17 0 18 0;
#X connect 18 0 16 1;
#X connect 20 0 21 0;
#X connect 21 0 22 0;
#X connect 21 1 17 0;
#X connect 22 0 16 0;
#X connect 25 0 46 0;
#X connect 26 0 27 0;
#X connect 27 0 39 0;
#X connect 28 0 26 0;
#X connect 28 1 29 0;
#X connect 31 0 28 0;
#X connect 32 0 47 0;
#X connect 33 0 34 0;
#X connect 34 0 41 0;
#X connect 35 0 33 0;
#X connect 35 1 36 0;
#X connect 38 0 35 0;
#X connect 39 0 25 0;
#X connect 40 0 39 0;
#X connect 41 0 32 0;
#X connect 42 0 41 0;
#X connect 43 0 7 1;
#X connect 43 0 27 1;
#X connect 43 0 34 1;
#X connect 43 0 3 1;
#X connect 43 0 18 1;
#X connect 45 0 40 0;
#X connect 45 0 42 0;
#X connect 45 0 9 0;
#X connect 45 0 22 1;
#X restore 410 1156 pd param;
#X obj 600 1120 loadbang;
#X obj 780 1120 loadbang;
#N canvas 105 70 1335 536 param 0;
#X obj 850 286 tabwrite \$0-presets;
#X obj 961 193 r gui-scene;
#X obj 961 211 * 16;
#X obj 961 266 +;
#X obj 99 285 tabread \$0-presets;
#X obj 99 169 r gui-scene;
#X obj 99 212 * 16;
#X obj 99 267 +;
#X obj 883 208 t b;
#X obj 850 264 spigot;
#X msg 883 227 0;
#X obj 919 209 del 5;
#X msg 919 228 1;
#X obj 99 189 t f b;
#X obj 129 212 s \$0-wait;
#X obj 883 188 r \$0-wait;
#X obj 1072 289 tabwrite \$0-presets;
#X obj 1183 214 * 16;
#X obj 1183 269 +;
#X text 1060 141 copy scene;
#X obj 1104 165 r copy-scene;
#X obj 1104 186 t b f;
#X obj 1072 221 f;
#X text 830 144 writing param to scene;
#X text 95 146 reading param from array to gui;
#X obj 327 305 tabread \$0-presets;
#X obj 327 210 * 16;
#X obj 327 265 +;
#X obj 327 187 t f b;
#X obj 357 210 s \$0-wait;
#X text 323 144 reading param from array to scene A;
#X obj 327 167 r a-scene;
#X obj 573 305 tabread \$0-presets;
#X obj 573 210 * 16;
#X obj 573 265 +;
#X obj 573 187 t f b;
#X obj 603 210 s \$0-wait;
#X text 567 144 reading param from array to scene B;
#X obj 573 167 r b-scene;
#X obj 327 286 f;
#X obj 353 286 t b;
#X obj 573 286 f;
#X obj 599 286 t b;
#X obj 113 -127 inlet;
#X obj 103 507 outlet;
#X obj 348 -122 inlet;
#X obj 328 502 outlet;
#X obj 574 500 outlet;
#X connect 1 0 2 0;
#X connect 2 0 3 0;
#X connect 3 0 0 1;
#X connect 4 0 44 0;
#X connect 5 0 13 0;
#X connect 6 0 7 0;
#X connect 7 0 4 0;
#X connect 8 0 10 0;
#X connect 8 0 11 0;
#X connect 9 0 0 0;
#X connect 10 0 9 1;
#X connect 11 0 12 0;
#X connect 12 0 9 1;
#X connect 13 0 6 0;
#X connect 13 1 14 0;
#X connect 15 0 8 0;
#X connect 17 0 18 0;
#X connect 18 0 16 1;
#X connect 20 0 21 0;
#X connect 21 0 22 0;
#X connect 21 1 17 0;
#X connect 22 0 16 0;
#X connect 25 0 46 0;
#X connect 26 0 27 0;
#X connect 27 0 39 0;
#X connect 28 0 26 0;
#X connect 28 1 29 0;
#X connect 31 0 28 0;
#X connect 32 0 47 0;
#X connect 33 0 34 0;
#X connect 34 0 41 0;
#X connect 35 0 33 0;
#X connect 35 1 36 0;
#X connect 38 0 35 0;
#X connect 39 0 25 0;
#X connect 40 0 39 0;
#X connect 41 0 32 0;
#X connect 42 0 41 0;
#X connect 43 0 7 1;
#X connect 43 0 27 1;
#X connect 43 0 34 1;
#X connect 43 0 3 1;
#X connect 43 0 18 1;
#X connect 45 0 40 0;
#X connect 45 0 42 0;
#X connect 45 0 9 0;
#X connect 45 0 22 1;
#X restore 600 1156 pd param;
#N canvas 105 70 1335 536 param 0;
#X obj 850 286 tabwrite \$0-presets;
#X obj 961 193 r gui-scene;
#X obj 961 211 * 16;
#X obj 961 266 +;
#X obj 99 285 tabread \$0-presets;
#X obj 99 169 r gui-scene;
#X obj 99 212 * 16;
#X obj 99 267 +;
#X obj 883 208 t b;
#X obj 850 264 spigot;
#X msg 883 227 0;
#X obj 919 209 del 5;
#X msg 919 228 1;
#X obj 99 189 t f b;
#X obj 129 212 s \$0-wait;
#X obj 883 188 r \$0-wait;
#X obj 1072 289 tabwrite \$0-presets;
#X obj 1183 214 * 16;
#X obj 1183 269 +;
#X text 1060 141 copy scene;
#X obj 1104 165 r copy-scene;
#X obj 1104 186 t b f;
#X obj 1072 221 f;
#X text 830 144 writing param to scene;
#X text 95 146 reading param from array to gui;
#X obj 327 305 tabread \$0-presets;
#X obj 327 210 * 16;
#X obj 327 265 +;
#X obj 327 187 t f b;
#X obj 357 210 s \$0-wait;
#X text 323 144 reading param from array to scene A;
#X obj 327 167 r a-scene;
#X obj 573 305 tabread \$0-presets;
#X obj 573 210 * 16;
#X obj 573 265 +;
#X obj 573 187 t f b;
#X obj 603 210 s \$0-wait;
#X text 567 144 reading param from array to scene B;
#X obj 573 167 r b-scene;
#X obj 327 286 f;
#X obj 353 286 t b;
#X obj 573 286 f;
#X obj 599 286 t b;
#X obj 113 -127 inlet;
#X obj 103 507 outlet;
#X obj 348 -122 inlet;
#X obj 328 502 outlet;
#X obj 574 500 outlet;
#X connect 1 0 2 0;
#X connect 2 0 3 0;
#X connect 3 0 0 1;
#X connect 4 0 44 0;
#X connect 5 0 13 0;
#X connect 6 0 7 0;
#X connect 7 0 4 0;
#X connect 8 0 10 0;
#X connect 8 0 11 0;
#X connect 9 0 0 0;
#X connect 10 0 9 1;
#X connect 11 0 12 0;
#X connect 12 0 9 1;
#X connect 13 0 6 0;
#X connect 13 1 14 0;
#X connect 15 0 8 0;
#X connect 17 0 18 0;
#X connect 18 0 16 1;
#X connect 20 0 21 0;
#X connect 21 0 22 0;
#X connect 21 1 17 0;
#X connect 22 0 16 0;
#X connect 25 0 46 0;
#X connect 26 0 27 0;
#X connect 27 0 39 0;
#X connect 28 0 26 0;
#X connect 28 1 29 0;
#X connect 31 0 28 0;
#X connect 32 0 47 0;
#X connect 33 0 34 0;
#X connect 34 0 41 0;
#X connect 35 0 33 0;
#X connect 35 1 36 0;
#X connect 38 0 35 0;
#X connect 39 0 25 0;
#X connect 40 0 39 0;
#X connect 41 0 32 0;
#X connect 42 0 41 0;
#X connect 43 0 7 1;
#X connect 43 0 27 1;
#X connect 43 0 34 1;
#X connect 43 0 3 1;
#X connect 43 0 18 1;
#X connect 45 0 40 0;
#X connect 45 0 42 0;
#X connect 45 0 9 0;
#X connect 45 0 22 1;
#X restore 780 1156 pd param;
#X msg 230 1138 17;
#X obj 281 1137 r \$0-param-17-s;
#X obj 281 1180 s \$0-param-17-r-b;
#X obj 255 1200 s \$0-param-17-r-a;
#X obj 230 1219 s \$0-param-17-r;
#X msg 410 1138 18;
#X obj 461 1137 r \$0-param-18-s;
#X obj 461 1180 s \$0-param-18-r-b;
#X obj 435 1200 s \$0-param-18-r-a;
#X obj 410 1219 s \$0-param-18-r;
#X msg 600 1138 19;
#X obj 651 1137 r \$0-param-19-s;
#X obj 651 1180 s \$0-param-19-r-b;
#X obj 625 1200 s \$0-param-19-r-a;
#X obj 600 1219 s \$0-param-19-r;
#X msg 780 1138 20;
#X obj 831 1137 r \$0-param-20-s;
#X obj 831 1181 s \$0-param-20-r-b;
#X obj 805 1200 s \$0-param-20-r-a;
#X obj 780 1219 s \$0-param-20-r;
#X obj 230 1250 loadbang;
#X obj 410 1250 loadbang;
#N canvas 105 70 1335 536 param 0;
#X obj 850 286 tabwrite \$0-presets;
#X obj 961 193 r gui-scene;
#X obj 961 211 * 16;
#X obj 961 266 +;
#X obj 99 285 tabread \$0-presets;
#X obj 99 169 r gui-scene;
#X obj 99 212 * 16;
#X obj 99 267 +;
#X obj 883 208 t b;
#X obj 850 264 spigot;
#X msg 883 227 0;
#X obj 919 209 del 5;
#X msg 919 228 1;
#X obj 99 189 t f b;
#X obj 129 212 s \$0-wait;
#X obj 883 188 r \$0-wait;
#X obj 1072 289 tabwrite \$0-presets;
#X obj 1183 214 * 16;
#X obj 1183 269 +;
#X text 1060 141 copy scene;
#X obj 1104 165 r copy-scene;
#X obj 1104 186 t b f;
#X obj 1072 221 f;
#X text 830 144 writing param to scene;
#X text 95 146 reading param from array to gui;
#X obj 327 305 tabread \$0-presets;
#X obj 327 210 * 16;
#X obj 327 265 +;
#X obj 327 187 t f b;
#X obj 357 210 s \$0-wait;
#X text 323 144 reading param from array to scene A;
#X obj 327 167 r a-scene;
#X obj 573 305 tabread \$0-presets;
#X obj 573 210 * 16;
#X obj 573 265 +;
#X obj 573 187 t f b;
#X obj 603 210 s \$0-wait;
#X text 567 144 reading param from array to scene B;
#X obj 573 167 r b-scene;
#X obj 327 286 f;
#X obj 353 286 t b;
#X obj 573 286 f;
#X obj 599 286 t b;
#X obj 113 -127 inlet;
#X obj 103 507 outlet;
#X obj 348 -122 inlet;
#X obj 328 502 outlet;
#X obj 574 500 outlet;
#X connect 1 0 2 0;
#X connect 2 0 3 0;
#X connect 3 0 0 1;
#X connect 4 0 44 0;
#X connect 5 0 13 0;
#X connect 6 0 7 0;
#X connect 7 0 4 0;
#X connect 8 0 10 0;
#X connect 8 0 11 0;
#X connect 9 0 0 0;
#X connect 10 0 9 1;
#X connect 11 0 12 0;
#X connect 12 0 9 1;
#X connect 13 0 6 0;
#X connect 13 1 14 0;
#X connect 15 0 8 0;
#X connect 17 0 18 0;
#X connect 18 0 16 1;
#X connect 20 0 21 0;
#X connect 21 0 22 0;
#X connect 21 1 17 0;
#X connect 22 0 16 0;
#X connect 25 0 46 0;
#X connect 26 0 27 0;
#X connect 27 0 39 0;
#X connect 28 0 26 0;
#X connect 28 1 29 0;
#X connect 31 0 28 0;
#X connect 32 0 47 0;
#X connect 33 0 34 0;
#X connect 34 0 41 0;
#X connect 35 0 33 0;
#X connect 35 1 36 0;
#X connect 38 0 35 0;
#X connect 39 0 25 0;
#X connect 40 0 39 0;
#X connect 41 0 32 0;
#X connect 42 0 41 0;
#X connect 43 0 7 1;
#X connect 43 0 27 1;
#X connect 43 0 34 1;
#X connect 43 0 3 1;
#X connect 43 0 18 1;
#X connect 45 0 40 0;
#X connect 45 0 42 0;
#X connect 45 0 9 0;
#X connect 45 0 22 1;
#X restore 230 1286 pd param;
#N canvas 105 70 1335 536 param 0;
#X obj 850 286 tabwrite \$0-presets;
#X obj 961 193 r gui-scene;
#X obj 961 211 * 16;
#X obj 961 266 +;
#X obj 99 285 tabread \$0-presets;
#X obj 99 169 r gui-scene;
#X obj 99 212 * 16;
#X obj 99 267 +;
#X obj 883 208 t b;
#X obj 850 264 spigot;
#X msg 883 227 0;
#X obj 919 209 del 5;
#X msg 919 228 1;
#X obj 99 189 t f b;
#X obj 129 212 s \$0-wait;
#X obj 883 188 r \$0-wait;
#X obj 1072 289 tabwrite \$0-presets;
#X obj 1183 214 * 16;
#X obj 1183 269 +;
#X text 1060 141 copy scene;
#X obj 1104 165 r copy-scene;
#X obj 1104 186 t b f;
#X obj 1072 221 f;
#X text 830 144 writing param to scene;
#X text 95 146 reading param from array to gui;
#X obj 327 305 tabread \$0-presets;
#X obj 327 210 * 16;
#X obj 327 265 +;
#X obj 327 187 t f b;
#X obj 357 210 s \$0-wait;
#X text 323 144 reading param from array to scene A;
#X obj 327 167 r a-scene;
#X obj 573 305 tabread \$0-presets;
#X obj 573 210 * 16;
#X obj 573 265 +;
#X obj 573 187 t f b;
#X obj 603 210 s \$0-wait;
#X text 567 144 reading param from array to scene B;
#X obj 573 167 r b-scene;
#X obj 327 286 f;
#X obj 353 286 t b;
#X obj 573 286 f;
#X obj 599 286 t b;
#X obj 113 -127 inlet;
#X obj 103 507 outlet;
#X obj 348 -122 inlet;
#X obj 328 502 outlet;
#X obj 574 500 outlet;
#X connect 1 0 2 0;
#X connect 2 0 3 0;
#X connect 3 0 0 1;
#X connect 4 0 44 0;
#X connect 5 0 13 0;
#X connect 6 0 7 0;
#X connect 7 0 4 0;
#X connect 8 0 10 0;
#X connect 8 0 11 0;
#X connect 9 0 0 0;
#X connect 10 0 9 1;
#X connect 11 0 12 0;
#X connect 12 0 9 1;
#X connect 13 0 6 0;
#X connect 13 1 14 0;
#X connect 15 0 8 0;
#X connect 17 0 18 0;
#X connect 18 0 16 1;
#X connect 20 0 21 0;
#X connect 21 0 22 0;
#X connect 21 1 17 0;
#X connect 22 0 16 0;
#X connect 25 0 46 0;
#X connect 26 0 27 0;
#X connect 27 0 39 0;
#X connect 28 0 26 0;
#X connect 28 1 29 0;
#X connect 31 0 28 0;
#X connect 32 0 47 0;
#X connect 33 0 34 0;
#X connect 34 0 41 0;
#X connect 35 0 33 0;
#X connect 35 1 36 0;
#X connect 38 0 35 0;
#X connect 39 0 25 0;
#X connect 40 0 39 0;
#X connect 41 0 32 0;
#X connect 42 0 41 0;
#X connect 43 0 7 1;
#X connect 43 0 27 1;
#X connect 43 0 34 1;
#X connect 43 0 3 1;
#X connect 43 0 18 1;
#X connect 45 0 40 0;
#X connect 45 0 42 0;
#X connect 45 0 9 0;
#X connect 45 0 22 1;
#X restore 410 1286 pd param;
#X obj 600 1250 loadbang;
#X obj 780 1250 loadbang;
#N canvas 105 70 1335 536 param 0;
#X obj 850 286 tabwrite \$0-presets;
#X obj 961 193 r gui-scene;
#X obj 961 211 * 16;
#X obj 961 266 +;
#X obj 99 285 tabread \$0-presets;
#X obj 99 169 r gui-scene;
#X obj 99 212 * 16;
#X obj 99 267 +;
#X obj 883 208 t b;
#X obj 850 264 spigot;
#X msg 883 227 0;
#X obj 919 209 del 5;
#X msg 919 228 1;
#X obj 99 189 t f b;
#X obj 129 212 s \$0-wait;
#X obj 883 188 r \$0-wait;
#X obj 1072 289 tabwrite \$0-presets;
#X obj 1183 214 * 16;
#X obj 1183 269 +;
#X text 1060 141 copy scene;
#X obj 1104 165 r copy-scene;
#X obj 1104 186 t b f;
#X obj 1072 221 f;
#X text 830 144 writing param to scene;
#X text 95 146 reading param from array to gui;
#X obj 327 305 tabread \$0-presets;
#X obj 327 210 * 16;
#X obj 327 265 +;
#X obj 327 187 t f b;
#X obj 357 210 s \$0-wait;
#X text 323 144 reading param from array to scene A;
#X obj 327 167 r a-scene;
#X obj 573 305 tabread \$0-presets;
#X obj 573 210 * 16;
#X obj 573 265 +;
#X obj 573 187 t f b;
#X obj 603 210 s \$0-wait;
#X text 567 144 reading param from array to scene B;
#X obj 573 167 r b-scene;
#X obj 327 286 f;
#X obj 353 286 t b;
#X obj 573 286 f;
#X obj 599 286 t b;
#X obj 113 -127 inlet;
#X obj 103 507 outlet;
#X obj 348 -122 inlet;
#X obj 328 502 outlet;
#X obj 574 500 outlet;
#X connect 1 0 2 0;
#X connect 2 0 3 0;
#X connect 3 0 0 1;
#X connect 4 0 44 0;
#X connect 5 0 13 0;
#X connect 6 0 7 0;
#X connect 7 0 4 0;
#X connect 8 0 10 0;
#X connect 8 0 11 0;
#X connect 9 0 0 0;
#X connect 10 0 9 1;
#X connect 11 0 12 0;
#X connect 12 0 9 1;
#X connect 13 0 6 0;
#X connect 13 1 14 0;
#X connect 15 0 8 0;
#X connect 17 0 18 0;
#X connect 18 0 16 1;
#X connect 20 0 21 0;
#X connect 21 0 22 0;
#X connect 21 1 17 0;
#X connect 22 0 16 0;
#X connect 25 0 46 0;
#X connect 26 0 27 0;
#X connect 27 0 39 0;
#X connect 28 0 26 0;
#X connect 28 1 29 0;
#X connect 31 0 28 0;
#X connect 32 0 47 0;
#X connect 33 0 34 0;
#X connect 34 0 41 0;
#X connect 35 0 33 0;
#X connect 35 1 36 0;
#X connect 38 0 35 0;
#X connect 39 0 25 0;
#X connect 40 0 39 0;
#X connect 41 0 32 0;
#X connect 42 0 41 0;
#X connect 43 0 7 1;
#X connect 43 0 27 1;
#X connect 43 0 34 1;
#X connect 43 0 3 1;
#X connect 43 0 18 1;
#X connect 45 0 40 0;
#X connect 45 0 42 0;
#X connect 45 0 9 0;
#X connect 45 0 22 1;
#X restore 600 1286 pd param;
#N canvas 105 70 1335 536 param 0;
#X obj 850 286 tabwrite \$0-presets;
#X obj 961 193 r gui-scene;
#X obj 961 211 * 16;
#X obj 961 266 +;
#X obj 99 285 tabread \$0-presets;
#X obj 99 169 r gui-scene;
#X obj 99 212 * 16;
#X obj 99 267 +;
#X obj 883 208 t b;
#X obj 850 264 spigot;
#X msg 883 227 0;
#X obj 919 209 del 5;
#X msg 919 228 1;
#X obj 99 189 t f b;
#X obj 129 212 s \$0-wait;
#X obj 883 188 r \$0-wait;
#X obj 1072 289 tabwrite \$0-presets;
#X obj 1183 214 * 16;
#X obj 1183 269 +;
#X text 1060 141 copy scene;
#X obj 1104 165 r copy-scene;
#X obj 1104 186 t b f;
#X obj 1072 221 f;
#X text 830 144 writing param to scene;
#X text 95 146 reading param from array to gui;
#X obj 327 305 tabread \$0-presets;
#X obj 327 210 * 16;
#X obj 327 265 +;
#X obj 327 187 t f b;
#X obj 357 210 s \$0-wait;
#X text 323 144 reading param from array to scene A;
#X obj 327 167 r a-scene;
#X obj 573 305 tabread \$0-presets;
#X obj 573 210 * 16;
#X obj 573 265 +;
#X obj 573 187 t f b;
#X obj 603 210 s \$0-wait;
#X text 567 144 reading param from array to scene B;
#X obj 573 167 r b-scene;
#X obj 327 286 f;
#X obj 353 286 t b;
#X obj 573 286 f;
#X obj 599 286 t b;
#X obj 113 -127 inlet;
#X obj 103 507 outlet;
#X obj 348 -122 inlet;
#X obj 328 502 outlet;
#X obj 574 500 outlet;
#X connect 1 0 2 0;
#X connect 2 0 3 0;
#X connect 3 0 0 1;
#X connect 4 0 44 0;
#X connect 5 0 13 0;
#X connect 6 0 7 0;
#X connect 7 0 4 0;
#X connect 8 0 10 0;
#X connect 8 0 11 0;
#X connect 9 0 0 0;
#X connect 10 0 9 1;
#X connect 11 0 12 0;
#X connect 12 0 9 1;
#X connect 13 0 6 0;
#X connect 13 1 14 0;
#X connect 15 0 8 0;
#X connect 17 0 18 0;
#X connect 18 0 16 1;
#X connect 20 0 21 0;
#X connect 21 0 22 0;
#X connect 21 1 17 0;
#X connect 22 0 16 0;
#X connect 25 0 46 0;
#X connect 26 0 27 0;
#X connect 27 0 39 0;
#X connect 28 0 26 0;
#X connect 28 1 29 0;
#X connect 31 0 28 0;
#X connect 32 0 47 0;
#X connect 33 0 34 0;
#X connect 34 0 41 0;
#X connect 35 0 33 0;
#X connect 35 1 36 0;
#X connect 38 0 35 0;
#X connect 39 0 25 0;
#X connect 40 0 39 0;
#X connect 41 0 32 0;
#X connect 42 0 41 0;
#X connect 43 0 7 1;
#X connect 43 0 27 1;
#X connect 43 0 34 1;
#X connect 43 0 3 1;
#X connect 43 0 18 1;
#X connect 45 0 40 0;
#X connect 45 0 42 0;
#X connect 45 0 9 0;
#X connect 45 0 22 1;
#X restore 780 1286 pd param;
#X msg 230 1268 21;
#X obj 281 1267 r \$0-param-21-s;
#X obj 281 1310 s \$0-param-21-r-b;
#X obj 255 1330 s \$0-param-21-r-a;
#X obj 230 1349 s \$0-param-21-r;
#X msg 410 1268 22;
#X obj 461 1267 r \$0-param-22-s;
#X obj 461 1310 s \$0-param-22-r-b;
#X obj 435 1330 s \$0-param-22-r-a;
#X obj 410 1349 s \$0-param-22-r;
#X msg 600 1268 23;
#X obj 651 1267 r \$0-param-23-s;
#X obj 651 1310 s \$0-param-23-r-b;
#X obj 625 1330 s \$0-param-23-r-a;
#X obj 600 1349 s \$0-param-23-r;
#X msg 780 1268 24;
#X obj 831 1267 r \$0-param-24-s;
#X obj 831 1311 s \$0-param-24-r-b;
#X obj 805 1330 s \$0-param-24-r-a;
#X obj 780 1349 s \$0-param-24-r;
#X connect 0 0 76 0;
#X connect 1 0 13 0;
#X connect 2 0 1 0;
#X connect 4 0 5 0;
#X connect 5 0 1 1;
#X connect 5 1 14 0;
#X connect 5 2 74 0;
#X connect 6 0 2 0;
#X connect 7 0 6 0;
#X connect 8 0 71 1;
#X connect 9 0 16 0;
#X connect 11 0 16 0;
#X connect 12 0 69 1;
#X connect 13 0 11 0;
#X connect 13 1 69 0;
#X connect 14 0 15 0;
#X connect 15 0 9 0;
#X connect 15 1 71 0;
#X connect 18 0 62 0;
#X connect 19 0 55 0;
#X connect 20 0 18 0;
#X connect 22 0 29 0;
#X connect 23 0 25 0;
#X connect 23 0 26 0;
#X connect 24 0 21 0;
#X connect 25 0 24 1;
#X connect 26 0 27 0;
#X connect 27 0 24 1;
#X connect 28 0 23 0;
#X connect 29 0 21 1;
#X connect 31 0 64 0;
#X connect 32 0 57 0;
#X connect 34 0 42 0;
#X connect 35 0 37 0;
#X connect 35 0 38 0;
#X connect 36 0 33 0;
#X connect 37 0 36 1;
#X connect 38 0 39 0;
#X connect 39 0 36 1;
#X connect 40 0 35 0;
#X connect 41 0 31 0;
#X connect 42 0 33 1;
#X connect 43 0 65 0;
#X connect 44 0 59 0;
#X connect 46 0 54 0;
#X connect 47 0 49 0;
#X connect 47 0 50 0;
#X connect 48 0 45 0;
#X connect 49 0 48 1;
#X connect 50 0 51 0;
#X connect 51 0 48 1;
#X connect 52 0 47 0;
#X connect 53 0 43 0;
#X connect 54 0 45 1;
#X connect 55 0 20 0;
#X connect 55 1 56 0;
#X connect 57 0 41 0;
#X connect 57 1 58 0;
#X connect 59 0 53 0;
#X connect 59 1 60 0;
#X connect 61 0 24 0;
#X connect 63 0 36 0;
#X connect 66 0 48 0;
#X connect 67 0 68 0;
#X connect 68 0 69 2;
#X connect 68 0 71 2;
#X connect 69 0 70 0;
#X connect 70 0 11 0;
#X connect 71 0 72 0;
#X connect 72 0 9 0;
#X connect 74 0 75 0;
#X connect 75 0 73 0;
#X connect 76 1 4 0;
#X connect 76 2 10 0;
#X connect 76 3 67 0;
#X connect 77 0 84 1;
#X connect 78 0 79 0;
#X connect 79 0 84 0;
#X connect 83 0 86 0;
#X connect 84 0 80 0;
#X connect 84 1 81 0;
#X connect 84 2 82 0;
#X connect 85 0 90 0;
#X connect 85 1 89 0;
#X connect 85 2 88 0;
#X connect 86 0 85 0;
#X connect 87 0 85 1;
#X connect 91 0 95 0;
#X connect 92 0 96 0;
#X connect 93 0 100 0;
#X connect 93 1 99 0;
#X connect 93 2 98 0;
#X connect 94 0 104 0;
#X connect 94 1 103 0;
#X connect 94 2 102 0;
#X connect 95 0 93 0;
#X connect 96 0 94 0;
#X connect 97 0 93 1;
#X connect 101 0 94 1;
#X connect 105 0 113 0;
#X connect 106 0 118 0;
#X connect 107 0 117 0;
#X connect 107 1 116 0;
#X connect 107 2 115 0;
#X connect 108 0 122 0;
#X connect 108 1 121 0;
#X connect 108 2 120 0;
#X connect 109 0 123 0;
#X connect 110 0 128 0;
#X connect 111 0 127 0;
#X connect 111 1 126 0;
#X connect 111 2 125 0;
#X connect 112 0 132 0;
#X connect 112 1 131 0;
#X connect 112 2 130 0;
#X connect 113 0 107 0;
#X connect 114 0 107 1;
#X connect 118 0 108 0;
#X connect 119 0 108 1;
#X connect 123 0 111 0;
#X connect 124 0 111 1;
#X connect 128 0 112 0;
#X connect 129 0 112 1;
#X connect 133 0 141 0;
#X connect 134 0 146 0;
#X connect 135 0 145 0;
#X connect 135 1 144 0;
#X connect 135 2 143 0;
#X connect 136 0 150 0;
#X connect 136 1 149 0;
#X connect 136 2 148 0;
#X connect 137 0 151 0;
#X connect 138 0 156 0;
#X connect 139 0 155 0;
#X connect 139 1 154 0;
#X connect 139 2 153 0;
#X connect 140 0 160 0;
#X connect 140 1 159 0;
#X connect 140 2 158 0;
#X connect 141 0 135 0;
#X connect 142 0 135 1;
#X connect 146 0 136 0;
#X connect 147 0 136 1;
#X connect 151 0 139 0;
#X connect 152 0 139 1;
#X connect 156 0 140 0;
#X connect 157 0 140 1;
#X connect 161 0 169 0;
#X connect 162 0 174 0;
#X connect 163 0 173 0;
#X connect 163 1 172 0;
#X connect 163 2 171 0;
#X connect 164 0 178 0;
#X connect 164 1 177 0;
#X connect 164 2 176 0;
#X connect 165 0 179 0;
#X connect 166 0 184 0;
#X connect 167 0 183 0;
#X connect 167 1 182 0;
#X connect 167 2 181 0;
#X connect 168 0 188 0;
#X connect 168 1 187 0;
#X connect 168 2 186 0;
#X connect 169 0 163 0;
#X connect 170 0 163 1;
#X connect 174 0 164 0;
#X connect 175 0 164 1;
#X connect 179 0 167 0;
#X connect 180 0 167 1;
#X connect 184 0 168 0;
#X connect 185 0 168 1;
#X connect 189 0 197 0;
#X connect 190 0 202 0;
#X connect 191 0 201 0;
#X connect 191 1 200 0;
#X connect 191 2 199 0;
#X connect 192 0 206 0;
#X connect 192 1 205 0;
#X connect 192 2 204 0;
#X connect 193 0 207 0;
#X connect 194 0 212 0;
#X connect 195 0 211 0;
#X connect 195 1 210 0;
#X connect 195 2 209 0;
#X connect 196 0 216 0;
#X connect 196 1 215 0;
#X connect 196 2 214 0;
#X connect 197 0 191 0;
#X connect 198 0 191 1;
#X connect 202 0 192 0;
#X connect 203 0 192 1;
#X connect 207 0 195 0;
#X connect 208 0 195 1;
#X connect 212 0 196 0;
#X connect 213 0 196 1;
#X connect 217 0 225 0;
#X connect 218 0 230 0;
#X connect 219 0 229 0;
#X connect 219 1 228 0;
#X connect 219 2 227 0;
#X connect 220 0 234 0;
#X connect 220 1 233 0;
#X connect 220 2 232 0;
#X connect 221 0 235 0;
#X connect 222 0 240 0;
#X connect 223 0 239 0;
#X connect 223 1 238 0;
#X connect 223 2 237 0;
#X connect 224 0 244 0;
#X connect 224 1 243 0;
#X connect 224 2 242 0;
#X connect 225 0 219 0;
#X connect 226 0 219 1;
#X connect 230 0 220 0;
#X connect 231 0 220 1;
#X connect 235 0 223 0;
#X connect 236 0 223 1;
#X connect 240 0 224 0;
#X connect 241 0 224 1;
#X coords 0 459 1 458 220 120 0;
