#N canvas 129 179 1237 459 10;
#X obj 182 51 r \$1-main-menu-s;
#X obj 215 75 r \$1-sub-menu-s;
#X obj 250 115 r \$1-sub2-menu-s;
#X obj 165 148 r all-menu;
#X obj 165 169 unpack f f f;
#X obj 165 195 ==;
#X obj 199 195 ==;
#X obj 235 189 ==;
#X floatatom 165 222 5 0 0 0 - - - 0;
#X floatatom 199 222 5 0 0 0 - - - 0;
#X floatatom 235 223 5 0 0 0 - - - 0;
#X obj 165 247 +;
#X obj 165 271 +;
#X obj 235 242 t b f;
#X obj 199 243 t b f;
#X obj 165 312 sel 3;
#X msg 165 365 1;
#X msg 195 364 0;
#X obj 166 395 tgl 16 0 empty empty empty 0 -8 0 10 #fcfcfc #000000 #000000 0 1;
#X obj 166 419 s \$1-modul-active;
#X text 353 116 The Submenu2 number of the module;
#X text 317 75 The Submenu number of the module;
#X text 294 51 the mainmenu number of the module;
#X obj 182 72 + 1;
#X obj 215 96 + 1;
#X obj 250 136 + 1;
#X obj 455 402 s \$1-main-menu-active;
#X msg 454 347 1;
#X msg 484 346 0;
#X obj 455 377 tgl 16 0 empty empty empty 0 -8 0 10 #fcfcfc #000000 #000000 0 1;
#X obj 454 294 sel 1;
#X msg 314 348 1;
#X msg 344 347 0;
#X obj 315 378 tgl 16 0 empty empty empty 0 -8 0 10 #fcfcfc #000000 #000000 0 1;
#X obj 315 403 s \$1-sub-menu-active;
#X obj 314 295 sel 2;
#X obj 165 292 change;
#X obj 314 276 change;
#X obj 454 275 change;
#X obj 834 219 t b f;
#X floatatom 808 266 5 0 0 0 - - - 0;
#X obj 808 158 r \$1-sub-menu-s;
#X obj 834 179 r \$1-sub2-menu-s;
#X obj 808 200 * 8;
#X obj 808 245 +;
#X obj 808 179 + 0;
#X obj 834 200 + 0;
#X obj 763 323 pack s f;
#X msg 762 74 0, f 6;
#X obj 762 25 loadbang;
#X obj 762 91 text get \$1-modul-settings;
#X obj 762 46 del 50;
#X obj 762 112 symbol;
#X obj 764 374 s menu-labels;
#X floatatom 89 140 5 0 0 0 - - - 0;
#X connect 0 0 23 0;
#X connect 1 0 24 0;
#X connect 2 0 25 0;
#X connect 3 0 4 0;
#X connect 4 0 5 0;
#X connect 4 1 6 0;
#X connect 4 2 7 0;
#X connect 5 0 8 0;
#X connect 5 0 38 0;
#X connect 6 0 9 0;
#X connect 7 0 10 0;
#X connect 8 0 11 0;
#X connect 9 0 14 0;
#X connect 10 0 13 0;
#X connect 11 0 12 0;
#X connect 11 0 37 0;
#X connect 12 0 36 0;
#X connect 13 0 12 0;
#X connect 13 1 12 1;
#X connect 14 1 11 1;
#X connect 15 0 16 0;
#X connect 15 1 17 0;
#X connect 16 0 18 0;
#X connect 17 0 18 0;
#X connect 18 0 19 0;
#X connect 23 0 5 1;
#X connect 23 0 54 0;
#X connect 24 0 6 1;
#X connect 25 0 7 1;
#X connect 27 0 29 0;
#X connect 28 0 29 0;
#X connect 29 0 26 0;
#X connect 30 0 27 0;
#X connect 30 1 28 0;
#X connect 31 0 33 0;
#X connect 32 0 33 0;
#X connect 33 0 34 0;
#X connect 35 0 31 0;
#X connect 35 1 32 0;
#X connect 36 0 15 0;
#X connect 37 0 35 0;
#X connect 38 0 30 0;
#X connect 39 0 44 0;
#X connect 39 1 44 1;
#X connect 40 0 47 1;
#X connect 41 0 45 0;
#X connect 42 0 46 0;
#X connect 43 0 44 0;
#X connect 44 0 40 0;
#X connect 45 0 43 0;
#X connect 46 0 39 0;
#X connect 47 0 53 0;
#X connect 48 0 50 0;
#X connect 49 0 51 0;
#X connect 50 0 52 0;
#X connect 51 0 48 0;
#X connect 52 0 47 0;
#X coords 0 459 1 458 220 120 0;
