#N canvas 188 379 1237 459 10;
#X obj 909 370 / 127;
#X obj 909 389 pack 0 50;
#X obj 909 310 snapshot~;
#X obj 917 260 tgl 15 0 empty empty empty 17 7 0 10 #fcfcfc #000000 #000000 0 1;
#X obj 909 332 change;
#X obj 917 291 metro 10;
#X obj 917 186 env~;
#X obj 917 208 > 0;
#X obj 917 230 change;
#X obj 909 407 line;
#X obj 909 443 +;
#X obj 929 425 t b f;
#X obj 1064 364 / 127;
#X obj 1064 383 pack 0 50;
#X obj 1064 303 snapshot~;
#X obj 1072 252 tgl 15 0 empty empty empty 17 7 0 10 #fcfcfc #000000 #000000 0 1;
#X obj 1064 325 change;
#X obj 1072 284 metro 10;
#X obj 1072 178 env~;
#X obj 1072 200 > 0;
#X obj 1072 222 change;
#X obj 1064 402 line;
#X obj 1064 438 +;
#X obj 1080 420 t b f;
#N canvas 20 41 451 535 scene-out-pm1 0;
#X obj 37 51 r scene-mix;
#X obj 37 240 t f f;
#X msg 37 262 127 \$1;
#X obj 37 284 -;
#X obj 207 503 outlet OUT;
#X floatatom 329 226 5 0 0 0 - - - 0;
#X obj 207 340 *;
#X floatatom 207 361 5 0 0 0 - - - 0;
#X obj 207 381 / 127;
#X floatatom 207 402 5 0 0 0 - - - 0;
#X obj 329 329 *;
#X floatatom 329 347 5 0 0 0 - - - 0;
#X obj 329 365 / 127;
#X floatatom 329 383 5 0 0 0 - - - 0;
#X obj 207 447 +;
#X floatatom 207 485 5 0 0 0 - - - 0;
#X obj 207 466 i;
#X obj 329 310 f;
#X obj 329 246 t b f;
#X floatatom 210 221 5 0 0 0 - - - 0;
#X obj 209 310 f;
#X obj 210 241 t b f;
#X obj 210 175 r \$1-param-1-r-a;
#X obj 329 174 r \$1-param-1-r-b;
#X obj 329 400 t b f;
#X connect 0 0 1 0;
#X connect 1 0 2 0;
#X connect 1 1 17 0;
#X connect 2 0 3 0;
#X connect 3 0 20 0;
#X connect 5 0 18 0;
#X connect 6 0 7 0;
#X connect 7 0 8 0;
#X connect 8 0 9 0;
#X connect 9 0 14 0;
#X connect 10 0 11 0;
#X connect 11 0 12 0;
#X connect 12 0 13 0;
#X connect 13 0 24 0;
#X connect 14 0 16 0;
#X connect 15 0 4 0;
#X connect 16 0 15 0;
#X connect 17 0 10 0;
#X connect 18 0 17 0;
#X connect 18 1 10 1;
#X connect 19 0 21 0;
#X connect 20 0 6 0;
#X connect 21 0 20 0;
#X connect 21 1 6 1;
#X connect 22 0 19 0;
#X connect 23 0 5 0;
#X connect 24 0 14 0;
#X connect 24 1 14 1;
#X restore 143 334 pd scene-out-pm1;
#N canvas 525 49 451 535 scene-out-pm2 0;
#X obj 37 51 r scene-mix;
#X obj 37 240 t f f;
#X msg 37 262 127 \$1;
#X obj 37 284 -;
#X obj 207 503 outlet OUT;
#X floatatom 329 226 5 0 0 0 - - - 0;
#X obj 207 340 *;
#X floatatom 207 361 5 0 0 0 - - - 0;
#X obj 207 381 / 127;
#X floatatom 207 402 5 0 0 0 - - - 0;
#X obj 329 329 *;
#X floatatom 329 347 5 0 0 0 - - - 0;
#X obj 329 365 / 127;
#X floatatom 329 383 5 0 0 0 - - - 0;
#X obj 207 447 +;
#X floatatom 207 485 5 0 0 0 - - - 0;
#X obj 207 466 i;
#X obj 329 310 f;
#X obj 329 246 t b f;
#X floatatom 210 221 5 0 0 0 - - - 0;
#X obj 209 310 f;
#X obj 210 241 t b f;
#X obj 329 400 t b f;
#X obj 210 175 r \$1-param-2-r-a;
#X obj 329 174 r \$1-param-2-r-b;
#X connect 0 0 1 0;
#X connect 1 0 2 0;
#X connect 1 1 17 0;
#X connect 2 0 3 0;
#X connect 3 0 20 0;
#X connect 5 0 18 0;
#X connect 6 0 7 0;
#X connect 7 0 8 0;
#X connect 8 0 9 0;
#X connect 9 0 14 0;
#X connect 10 0 11 0;
#X connect 11 0 12 0;
#X connect 12 0 13 0;
#X connect 13 0 22 0;
#X connect 14 0 16 0;
#X connect 15 0 4 0;
#X connect 16 0 15 0;
#X connect 17 0 10 0;
#X connect 18 0 17 0;
#X connect 18 1 10 1;
#X connect 19 0 21 0;
#X connect 20 0 6 0;
#X connect 21 0 20 0;
#X connect 21 1 6 1;
#X connect 22 0 14 0;
#X connect 22 1 14 1;
#X connect 23 0 19 0;
#X connect 24 0 5 0;
#X restore 296 335 pd scene-out-pm2;
#N canvas 20 41 451 535 scene-out-pm3 0;
#X obj 37 51 r scene-mix;
#X obj 37 240 t f f;
#X msg 37 262 127 \$1;
#X obj 37 284 -;
#X obj 207 503 outlet OUT;
#X floatatom 329 226 5 0 0 0 - - - 0;
#X obj 207 340 *;
#X floatatom 207 361 5 0 0 0 - - - 0;
#X obj 207 381 / 127;
#X floatatom 207 402 5 0 0 0 - - - 0;
#X obj 329 329 *;
#X floatatom 329 347 5 0 0 0 - - - 0;
#X obj 329 365 / 127;
#X floatatom 329 383 5 0 0 0 - - - 0;
#X obj 207 447 +;
#X floatatom 207 485 5 0 0 0 - - - 0;
#X obj 207 466 i;
#X obj 329 310 f;
#X obj 329 246 t b f;
#X floatatom 210 221 5 0 0 0 - - - 0;
#X obj 209 310 f;
#X obj 210 241 t b f;
#X obj 329 400 t b f;
#X obj 210 175 r \$1-param-3-r-a;
#X obj 329 174 r \$1-param-3-r-b;
#X connect 0 0 1 0;
#X connect 1 0 2 0;
#X connect 1 1 17 0;
#X connect 2 0 3 0;
#X connect 3 0 20 0;
#X connect 5 0 18 0;
#X connect 6 0 7 0;
#X connect 7 0 8 0;
#X connect 8 0 9 0;
#X connect 9 0 14 0;
#X connect 10 0 11 0;
#X connect 11 0 12 0;
#X connect 12 0 13 0;
#X connect 13 0 22 0;
#X connect 14 0 16 0;
#X connect 15 0 4 0;
#X connect 16 0 15 0;
#X connect 17 0 10 0;
#X connect 18 0 17 0;
#X connect 18 1 10 1;
#X connect 19 0 21 0;
#X connect 20 0 6 0;
#X connect 21 0 20 0;
#X connect 21 1 6 1;
#X connect 22 0 14 0;
#X connect 22 1 14 1;
#X connect 23 0 19 0;
#X connect 24 0 5 0;
#X restore 451 346 pd scene-out-pm3;
#N canvas 20 41 451 535 scene-out-pm4 0;
#X obj 37 51 r scene-mix;
#X obj 37 240 t f f;
#X msg 37 262 127 \$1;
#X obj 37 284 -;
#X obj 207 503 outlet OUT;
#X floatatom 329 226 5 0 0 0 - - - 0;
#X obj 207 340 *;
#X floatatom 207 361 5 0 0 0 - - - 0;
#X obj 207 381 / 127;
#X floatatom 207 402 5 0 0 0 - - - 0;
#X obj 329 329 *;
#X floatatom 329 347 5 0 0 0 - - - 0;
#X obj 329 365 / 127;
#X floatatom 329 383 5 0 0 0 - - - 0;
#X obj 207 447 +;
#X floatatom 207 485 5 0 0 0 - - - 0;
#X obj 207 466 i;
#X obj 329 310 f;
#X obj 329 246 t b f;
#X floatatom 210 221 5 0 0 0 - - - 0;
#X obj 209 310 f;
#X obj 210 241 t b f;
#X obj 329 400 t b f;
#X obj 210 175 r \$1-param-4-r-a;
#X obj 329 174 r \$1-param-4-r-b;
#X connect 0 0 1 0;
#X connect 1 0 2 0;
#X connect 1 1 17 0;
#X connect 2 0 3 0;
#X connect 3 0 20 0;
#X connect 5 0 18 0;
#X connect 6 0 7 0;
#X connect 7 0 8 0;
#X connect 8 0 9 0;
#X connect 9 0 14 0;
#X connect 10 0 11 0;
#X connect 11 0 12 0;
#X connect 12 0 13 0;
#X connect 13 0 22 0;
#X connect 14 0 16 0;
#X connect 15 0 4 0;
#X connect 16 0 15 0;
#X connect 17 0 10 0;
#X connect 18 0 17 0;
#X connect 18 1 10 1;
#X connect 19 0 21 0;
#X connect 20 0 6 0;
#X connect 21 0 20 0;
#X connect 21 1 6 1;
#X connect 22 0 14 0;
#X connect 22 1 14 1;
#X connect 23 0 19 0;
#X connect 24 0 5 0;
#X restore 596 344 pd scene-out-pm4;
#N canvas 20 41 451 535 scene-out-pm5 0;
#X obj 37 51 r scene-mix;
#X obj 37 240 t f f;
#X msg 37 262 127 \$1;
#X obj 37 284 -;
#X obj 207 503 outlet OUT;
#X floatatom 329 226 5 0 0 0 - - - 0;
#X obj 207 340 *;
#X floatatom 207 361 5 0 0 0 - - - 0;
#X obj 207 381 / 127;
#X floatatom 207 402 5 0 0 0 - - - 0;
#X obj 329 329 *;
#X floatatom 329 347 5 0 0 0 - - - 0;
#X obj 329 365 / 127;
#X floatatom 329 383 5 0 0 0 - - - 0;
#X obj 207 447 +;
#X floatatom 207 485 5 0 0 0 - - - 0;
#X obj 207 466 i;
#X obj 329 310 f;
#X obj 329 246 t b f;
#X floatatom 210 221 5 0 0 0 - - - 0;
#X obj 209 310 f;
#X obj 210 241 t b f;
#X obj 329 400 t b f;
#X obj 210 175 r \$1-param-5-r-a;
#X obj 329 174 r \$1-param-5-r-b;
#X connect 0 0 1 0;
#X connect 1 0 2 0;
#X connect 1 1 17 0;
#X connect 2 0 3 0;
#X connect 3 0 20 0;
#X connect 5 0 18 0;
#X connect 6 0 7 0;
#X connect 7 0 8 0;
#X connect 8 0 9 0;
#X connect 9 0 14 0;
#X connect 10 0 11 0;
#X connect 11 0 12 0;
#X connect 12 0 13 0;
#X connect 13 0 22 0;
#X connect 14 0 16 0;
#X connect 15 0 4 0;
#X connect 16 0 15 0;
#X connect 17 0 10 0;
#X connect 18 0 17 0;
#X connect 18 1 10 1;
#X connect 19 0 21 0;
#X connect 20 0 6 0;
#X connect 21 0 20 0;
#X connect 21 1 6 1;
#X connect 22 0 14 0;
#X connect 22 1 14 1;
#X connect 23 0 19 0;
#X connect 24 0 5 0;
#X restore 757 342 pd scene-out-pm5;
#N canvas 20 41 451 535 scene-out-pm6 0;
#X obj 37 51 r scene-mix;
#X obj 37 240 t f f;
#X msg 37 262 127 \$1;
#X obj 37 284 -;
#X obj 207 503 outlet OUT;
#X floatatom 329 226 5 0 0 0 - - - 0;
#X obj 207 340 *;
#X floatatom 207 361 5 0 0 0 - - - 0;
#X obj 207 381 / 127;
#X floatatom 207 402 5 0 0 0 - - - 0;
#X obj 329 329 *;
#X floatatom 329 347 5 0 0 0 - - - 0;
#X obj 329 365 / 127;
#X floatatom 329 383 5 0 0 0 - - - 0;
#X obj 207 447 +;
#X floatatom 207 485 5 0 0 0 - - - 0;
#X obj 207 466 i;
#X obj 329 310 f;
#X obj 329 246 t b f;
#X floatatom 210 221 5 0 0 0 - - - 0;
#X obj 209 310 f;
#X obj 210 241 t b f;
#X obj 329 400 t b f;
#X obj 210 175 r \$1-param-6-r-a;
#X obj 329 174 r \$1-param-6-r-b;
#X connect 0 0 1 0;
#X connect 1 0 2 0;
#X connect 1 1 17 0;
#X connect 2 0 3 0;
#X connect 3 0 20 0;
#X connect 5 0 18 0;
#X connect 6 0 7 0;
#X connect 7 0 8 0;
#X connect 8 0 9 0;
#X connect 9 0 14 0;
#X connect 10 0 11 0;
#X connect 11 0 12 0;
#X connect 12 0 13 0;
#X connect 13 0 22 0;
#X connect 14 0 16 0;
#X connect 15 0 4 0;
#X connect 16 0 15 0;
#X connect 17 0 10 0;
#X connect 18 0 17 0;
#X connect 18 1 10 1;
#X connect 19 0 21 0;
#X connect 20 0 6 0;
#X connect 21 0 20 0;
#X connect 21 1 6 1;
#X connect 22 0 14 0;
#X connect 22 1 14 1;
#X connect 23 0 19 0;
#X connect 24 0 5 0;
#X restore 909 351 pd scene-out-pm6;
#N canvas 20 41 451 535 scene-out-pm7 0;
#X obj 37 51 r scene-mix;
#X obj 37 240 t f f;
#X msg 37 262 127 \$1;
#X obj 37 284 -;
#X obj 207 503 outlet OUT;
#X floatatom 329 226 5 0 0 0 - - - 0;
#X obj 207 340 *;
#X floatatom 207 361 5 0 0 0 - - - 0;
#X obj 207 381 / 127;
#X floatatom 207 402 5 0 0 0 - - - 0;
#X obj 329 329 *;
#X floatatom 329 347 5 0 0 0 - - - 0;
#X obj 329 365 / 127;
#X floatatom 329 383 5 0 0 0 - - - 0;
#X obj 207 447 +;
#X floatatom 207 485 5 0 0 0 - - - 0;
#X obj 207 466 i;
#X obj 329 310 f;
#X obj 329 246 t b f;
#X floatatom 210 221 5 0 0 0 - - - 0;
#X obj 209 310 f;
#X obj 210 241 t b f;
#X obj 329 400 t b f;
#X obj 210 175 r \$1-param-7-r-a;
#X obj 329 174 r \$1-param-7-r-b;
#X connect 0 0 1 0;
#X connect 1 0 2 0;
#X connect 1 1 17 0;
#X connect 2 0 3 0;
#X connect 3 0 20 0;
#X connect 5 0 18 0;
#X connect 6 0 7 0;
#X connect 7 0 8 0;
#X connect 8 0 9 0;
#X connect 9 0 14 0;
#X connect 10 0 11 0;
#X connect 11 0 12 0;
#X connect 12 0 13 0;
#X connect 13 0 22 0;
#X connect 14 0 16 0;
#X connect 15 0 4 0;
#X connect 16 0 15 0;
#X connect 17 0 10 0;
#X connect 18 0 17 0;
#X connect 18 1 10 1;
#X connect 19 0 21 0;
#X connect 20 0 6 0;
#X connect 21 0 20 0;
#X connect 21 1 6 1;
#X connect 22 0 14 0;
#X connect 22 1 14 1;
#X connect 23 0 19 0;
#X connect 24 0 5 0;
#X restore 1064 345 pd scene-out-pm7;
#X obj 461 463 * 127;
#X obj 461 481 s \$1-param-3-s-post;
#X obj 607 462 * 127;
#X obj 607 481 s \$1-param-4-s-post;
#X obj 767 459 * 127;
#X obj 916 461 * 127;
#X obj 1074 460 * 127;
#X obj 767 478 s \$1-param-5-s-post;
#X obj 916 480 s \$1-param-6-s-post;
#X obj 1074 479 s \$1-param-7-s-post;
#X obj 757 361 / 127;
#X obj 757 380 pack 0 50;
#X obj 757 302 snapshot~;
#X obj 765 259 tgl 15 0 empty empty empty 17 7 0 10 #fcfcfc #000000 #000000 0 1;
#X obj 757 324 change;
#X obj 765 283 metro 10;
#X obj 765 185 env~;
#X obj 765 207 > 0;
#X obj 765 229 change;
#X obj 757 402 line;
#X obj 757 439 +;
#X obj 777 421 t b f;
#X obj 597 366 / 127;
#X obj 597 384 pack 0 50;
#X obj 596 303 snapshot~;
#X obj 604 258 tgl 15 0 empty empty empty 17 7 0 10 #fcfcfc #000000 #000000 0 1;
#X obj 596 325 change;
#X obj 604 276 metro 10;
#X obj 604 184 env~;
#X obj 604 206 > 0;
#X obj 604 228 change;
#X obj 597 402 line;
#X obj 597 441 +;
#X obj 617 421 t b f;
#X obj 451 365 / 127;
#X obj 451 384 pack 0 50;
#X obj 451 306 snapshot~;
#X obj 459 255 tgl 15 0 empty empty empty 17 7 0 10 #fcfcfc #000000 #000000 0 1;
#X obj 451 328 change;
#X obj 459 279 metro 10;
#X obj 459 181 env~;
#X obj 459 203 > 0;
#X obj 459 225 change;
#X obj 451 406 line;
#X obj 451 442 +;
#X obj 461 424 t b f;
#X obj 296 356 / 127;
#X obj 296 376 pack 0 50;
#X obj 297 292 snapshot~;
#X obj 305 243 tgl 15 0 empty empty empty 17 7 0 10 #fcfcfc #000000 #000000 0 1;
#X obj 297 314 change;
#X obj 305 265 metro 10;
#X obj 305 179 env~;
#X obj 305 201 > 0;
#X obj 305 223 change;
#X obj 296 398 line;
#X obj 296 437 +;
#X obj 316 417 t b f;
#X obj 143 353 / 127;
#X obj 143 292 snapshot~;
#X obj 151 244 tgl 15 0 empty empty empty 17 7 0 10 #fcfcfc #000000 #000000 0 1;
#X obj 143 314 change;
#X obj 151 265 metro 10;
#X obj 151 177 env~;
#X obj 151 199 > 0;
#X obj 151 221 change;
#X obj 143 395 line;
#X obj 143 434 +;
#X obj 163 414 t b f;
#X obj 306 459 * 127;
#X obj 306 478 s \$1-param-2-s-post;
#X obj 153 456 * 127;
#X obj 152 475 s \$1-param-1-s-post;
#X obj 143 373 pack 0 50;
#X obj 1215 363 / 127;
#X obj 1215 382 pack 0 50;
#X obj 1215 302 snapshot~;
#X obj 1223 251 tgl 15 0 empty empty empty 17 7 0 10 #fcfcfc #000000 #000000 0 1;
#X obj 1215 324 change;
#X obj 1223 283 metro 10;
#X obj 1223 177 env~;
#X obj 1223 199 > 0;
#X obj 1223 221 change;
#X obj 1215 401 line;
#X obj 1215 437 +;
#X obj 1231 419 t b f;
#X obj 1225 457 * 127;
#N canvas 20 41 451 535 scene-out-pm8 0;
#X obj 37 51 r scene-mix;
#X obj 37 240 t f f;
#X msg 37 262 127 \$1;
#X obj 37 284 -;
#X obj 207 503 outlet OUT;
#X floatatom 329 226 5 0 0 0 - - - 0;
#X obj 207 340 *;
#X floatatom 207 361 5 0 0 0 - - - 0;
#X obj 207 381 / 127;
#X floatatom 207 402 5 0 0 0 - - - 0;
#X obj 329 329 *;
#X floatatom 329 347 5 0 0 0 - - - 0;
#X obj 329 365 / 127;
#X floatatom 329 383 5 0 0 0 - - - 0;
#X obj 207 447 +;
#X floatatom 207 485 5 0 0 0 - - - 0;
#X obj 207 466 i;
#X obj 329 310 f;
#X obj 329 246 t b f;
#X floatatom 210 221 5 0 0 0 - - - 0;
#X obj 209 310 f;
#X obj 210 241 t b f;
#X obj 329 400 t b f;
#X obj 210 175 r \$1-param-8-r-a;
#X obj 329 174 r \$1-param-8-r-b;
#X connect 0 0 1 0;
#X connect 1 0 2 0;
#X connect 1 1 17 0;
#X connect 2 0 3 0;
#X connect 3 0 20 0;
#X connect 5 0 18 0;
#X connect 6 0 7 0;
#X connect 7 0 8 0;
#X connect 8 0 9 0;
#X connect 9 0 14 0;
#X connect 10 0 11 0;
#X connect 11 0 12 0;
#X connect 12 0 13 0;
#X connect 13 0 22 0;
#X connect 14 0 16 0;
#X connect 15 0 4 0;
#X connect 16 0 15 0;
#X connect 17 0 10 0;
#X connect 18 0 17 0;
#X connect 18 1 10 1;
#X connect 19 0 21 0;
#X connect 20 0 6 0;
#X connect 21 0 20 0;
#X connect 21 1 6 1;
#X connect 22 0 14 0;
#X connect 22 1 14 1;
#X connect 23 0 19 0;
#X connect 24 0 5 0;
#X restore 1215 344 pd scene-out-pm8;
#X obj 1225 476 s \$1-param-8-s-post;
#X obj 143 497 outlet;
#X obj 296 500 outlet;
#X obj 451 501 outlet;
#X obj 597 502 outlet;
#X obj 757 497 outlet;
#X obj 909 499 outlet;
#X obj 1064 498 outlet;
#X obj 1215 495 outlet;
#X text 21 497 output is from 0-1;
#X obj 142 -83 catch~ \$1-mod1;
#X obj 157 33 catch~ \$1-mod2;
#X obj 142 13 *~;
#X obj 157 -25 pack 0 50;
#N canvas 20 41 451 535 scene-out-pm9 0;
#X obj 37 51 r scene-mix;
#X obj 37 240 t f f;
#X msg 37 262 127 \$1;
#X obj 37 284 -;
#X obj 207 503 outlet OUT;
#X floatatom 329 226 5 0 0 0 - - - 0;
#X obj 207 340 *;
#X floatatom 207 361 5 0 0 0 - - - 0;
#X obj 207 381 / 127;
#X floatatom 207 402 5 0 0 0 - - - 0;
#X obj 329 329 *;
#X floatatom 329 347 5 0 0 0 - - - 0;
#X obj 329 365 / 127;
#X floatatom 329 383 5 0 0 0 - - - 0;
#X obj 207 447 +;
#X floatatom 207 485 5 0 0 0 - - - 0;
#X obj 207 466 i;
#X obj 329 310 f;
#X obj 329 246 t b f;
#X floatatom 210 221 5 0 0 0 - - - 0;
#X obj 209 310 f;
#X obj 210 241 t b f;
#X obj 329 400 t b f;
#X obj 210 175 r \$1-param-9-r-a;
#X obj 329 174 r \$1-param-9-r-b;
#X connect 0 0 1 0;
#X connect 1 0 2 0;
#X connect 1 1 17 0;
#X connect 2 0 3 0;
#X connect 3 0 20 0;
#X connect 5 0 18 0;
#X connect 6 0 7 0;
#X connect 7 0 8 0;
#X connect 8 0 9 0;
#X connect 9 0 14 0;
#X connect 10 0 11 0;
#X connect 11 0 12 0;
#X connect 12 0 13 0;
#X connect 13 0 22 0;
#X connect 14 0 16 0;
#X connect 15 0 4 0;
#X connect 16 0 15 0;
#X connect 17 0 10 0;
#X connect 18 0 17 0;
#X connect 18 1 10 1;
#X connect 19 0 21 0;
#X connect 20 0 6 0;
#X connect 21 0 20 0;
#X connect 21 1 6 1;
#X connect 22 0 14 0;
#X connect 22 1 14 1;
#X connect 23 0 19 0;
#X connect 24 0 5 0;
#X restore 157 -63 pd scene-out-pm9;
#X obj 142 151 +~;
#X obj 157 129 *~;
#X obj 172 91 pack 0 50;
#X obj 157 -7 line~;
#X obj 172 109 line~;
#X obj 157 -44 / 250;
#X obj 172 72 / 250;
#N canvas 20 41 451 535 scene-out-pm17 0;
#X obj 37 51 r scene-mix;
#X obj 37 240 t f f;
#X msg 37 262 127 \$1;
#X obj 37 284 -;
#X obj 207 503 outlet OUT;
#X floatatom 329 226 5 0 0 0 - - - 0;
#X obj 207 340 *;
#X floatatom 207 361 5 0 0 0 - - - 0;
#X obj 207 381 / 127;
#X floatatom 207 402 5 0 0 0 - - - 0;
#X obj 329 329 *;
#X floatatom 329 347 5 0 0 0 - - - 0;
#X obj 329 365 / 127;
#X floatatom 329 383 5 0 0 0 - - - 0;
#X obj 207 447 +;
#X floatatom 207 485 5 0 0 0 - - - 0;
#X obj 207 466 i;
#X obj 329 310 f;
#X obj 329 246 t b f;
#X floatatom 210 221 5 0 0 0 - - - 0;
#X obj 209 310 f;
#X obj 210 241 t b f;
#X obj 329 400 t b f;
#X obj 210 175 r \$1-param-17-r-a;
#X obj 329 174 r \$1-param-17-r-b;
#X connect 0 0 1 0;
#X connect 1 0 2 0;
#X connect 1 1 17 0;
#X connect 2 0 3 0;
#X connect 3 0 20 0;
#X connect 5 0 18 0;
#X connect 6 0 7 0;
#X connect 7 0 8 0;
#X connect 8 0 9 0;
#X connect 9 0 14 0;
#X connect 10 0 11 0;
#X connect 11 0 12 0;
#X connect 12 0 13 0;
#X connect 13 0 22 0;
#X connect 14 0 16 0;
#X connect 15 0 4 0;
#X connect 16 0 15 0;
#X connect 17 0 10 0;
#X connect 18 0 17 0;
#X connect 18 1 10 1;
#X connect 19 0 21 0;
#X connect 20 0 6 0;
#X connect 21 0 20 0;
#X connect 21 1 6 1;
#X connect 22 0 14 0;
#X connect 22 1 14 1;
#X connect 23 0 19 0;
#X connect 24 0 5 0;
#X restore 172 53 pd scene-out-pm17;
#X obj 299 12 *~;
#X obj 314 -26 pack 0 50;
#X obj 299 150 +~;
#X obj 314 128 *~;
#X obj 329 90 pack 0 50;
#X obj 314 -8 line~;
#X obj 329 108 line~;
#X obj 314 -45 / 250;
#X obj 329 71 / 250;
#N canvas 20 41 451 535 scene-out-pm10 0;
#X obj 37 51 r scene-mix;
#X obj 37 240 t f f;
#X msg 37 262 127 \$1;
#X obj 37 284 -;
#X obj 207 503 outlet OUT;
#X floatatom 329 226 5 0 0 0 - - - 0;
#X obj 207 340 *;
#X floatatom 207 361 5 0 0 0 - - - 0;
#X obj 207 381 / 127;
#X floatatom 207 402 5 0 0 0 - - - 0;
#X obj 329 329 *;
#X floatatom 329 347 5 0 0 0 - - - 0;
#X obj 329 365 / 127;
#X floatatom 329 383 5 0 0 0 - - - 0;
#X obj 207 447 +;
#X floatatom 207 485 5 0 0 0 - - - 0;
#X obj 207 466 i;
#X obj 329 310 f;
#X obj 329 246 t b f;
#X floatatom 210 221 5 0 0 0 - - - 0;
#X obj 209 310 f;
#X obj 210 241 t b f;
#X obj 329 400 t b f;
#X obj 210 175 r \$1-param-10-r-a;
#X obj 329 174 r \$1-param-10-r-b;
#X connect 0 0 1 0;
#X connect 1 0 2 0;
#X connect 1 1 17 0;
#X connect 2 0 3 0;
#X connect 3 0 20 0;
#X connect 5 0 18 0;
#X connect 6 0 7 0;
#X connect 7 0 8 0;
#X connect 8 0 9 0;
#X connect 9 0 14 0;
#X connect 10 0 11 0;
#X connect 11 0 12 0;
#X connect 12 0 13 0;
#X connect 13 0 22 0;
#X connect 14 0 16 0;
#X connect 15 0 4 0;
#X connect 16 0 15 0;
#X connect 17 0 10 0;
#X connect 18 0 17 0;
#X connect 18 1 10 1;
#X connect 19 0 21 0;
#X connect 20 0 6 0;
#X connect 21 0 20 0;
#X connect 21 1 6 1;
#X connect 22 0 14 0;
#X connect 22 1 14 1;
#X connect 23 0 19 0;
#X connect 24 0 5 0;
#X restore 314 -64 pd scene-out-pm10;
#N canvas 20 41 451 535 scene-out-pm18 0;
#X obj 37 51 r scene-mix;
#X obj 37 240 t f f;
#X msg 37 262 127 \$1;
#X obj 37 284 -;
#X obj 207 503 outlet OUT;
#X floatatom 329 226 5 0 0 0 - - - 0;
#X obj 207 340 *;
#X floatatom 207 361 5 0 0 0 - - - 0;
#X obj 207 381 / 127;
#X floatatom 207 402 5 0 0 0 - - - 0;
#X obj 329 329 *;
#X floatatom 329 347 5 0 0 0 - - - 0;
#X obj 329 365 / 127;
#X floatatom 329 383 5 0 0 0 - - - 0;
#X obj 207 447 +;
#X floatatom 207 485 5 0 0 0 - - - 0;
#X obj 207 466 i;
#X obj 329 310 f;
#X obj 329 246 t b f;
#X floatatom 210 221 5 0 0 0 - - - 0;
#X obj 209 310 f;
#X obj 210 241 t b f;
#X obj 329 400 t b f;
#X obj 210 175 r \$1-param-18-r-a;
#X obj 329 174 r \$1-param-18-r-b;
#X connect 0 0 1 0;
#X connect 1 0 2 0;
#X connect 1 1 17 0;
#X connect 2 0 3 0;
#X connect 3 0 20 0;
#X connect 5 0 18 0;
#X connect 6 0 7 0;
#X connect 7 0 8 0;
#X connect 8 0 9 0;
#X connect 9 0 14 0;
#X connect 10 0 11 0;
#X connect 11 0 12 0;
#X connect 12 0 13 0;
#X connect 13 0 22 0;
#X connect 14 0 16 0;
#X connect 15 0 4 0;
#X connect 16 0 15 0;
#X connect 17 0 10 0;
#X connect 18 0 17 0;
#X connect 18 1 10 1;
#X connect 19 0 21 0;
#X connect 20 0 6 0;
#X connect 21 0 20 0;
#X connect 21 1 6 1;
#X connect 22 0 14 0;
#X connect 22 1 14 1;
#X connect 23 0 19 0;
#X connect 24 0 5 0;
#X restore 329 52 pd scene-out-pm18;
#X obj 452 12 *~;
#X obj 467 -26 pack 0 50;
#X obj 452 150 +~;
#X obj 467 128 *~;
#X obj 482 90 pack 0 50;
#X obj 467 -8 line~;
#X obj 482 108 line~;
#X obj 467 -45 / 250;
#X obj 482 71 / 250;
#N canvas 20 41 451 535 scene-out-pm11 0;
#X obj 37 51 r scene-mix;
#X obj 37 240 t f f;
#X msg 37 262 127 \$1;
#X obj 37 284 -;
#X obj 207 503 outlet OUT;
#X floatatom 329 226 5 0 0 0 - - - 0;
#X obj 207 340 *;
#X floatatom 207 361 5 0 0 0 - - - 0;
#X obj 207 381 / 127;
#X floatatom 207 402 5 0 0 0 - - - 0;
#X obj 329 329 *;
#X floatatom 329 347 5 0 0 0 - - - 0;
#X obj 329 365 / 127;
#X floatatom 329 383 5 0 0 0 - - - 0;
#X obj 207 447 +;
#X floatatom 207 485 5 0 0 0 - - - 0;
#X obj 207 466 i;
#X obj 329 310 f;
#X obj 329 246 t b f;
#X floatatom 210 221 5 0 0 0 - - - 0;
#X obj 209 310 f;
#X obj 210 241 t b f;
#X obj 329 400 t b f;
#X obj 210 175 r \$1-param-11-r-a;
#X obj 329 174 r \$1-param-11-r-b;
#X connect 0 0 1 0;
#X connect 1 0 2 0;
#X connect 1 1 17 0;
#X connect 2 0 3 0;
#X connect 3 0 20 0;
#X connect 5 0 18 0;
#X connect 6 0 7 0;
#X connect 7 0 8 0;
#X connect 8 0 9 0;
#X connect 9 0 14 0;
#X connect 10 0 11 0;
#X connect 11 0 12 0;
#X connect 12 0 13 0;
#X connect 13 0 22 0;
#X connect 14 0 16 0;
#X connect 15 0 4 0;
#X connect 16 0 15 0;
#X connect 17 0 10 0;
#X connect 18 0 17 0;
#X connect 18 1 10 1;
#X connect 19 0 21 0;
#X connect 20 0 6 0;
#X connect 21 0 20 0;
#X connect 21 1 6 1;
#X connect 22 0 14 0;
#X connect 22 1 14 1;
#X connect 23 0 19 0;
#X connect 24 0 5 0;
#X restore 467 -64 pd scene-out-pm11;
#N canvas 20 41 451 535 scene-out-pm19 0;
#X obj 37 51 r scene-mix;
#X obj 37 240 t f f;
#X msg 37 262 127 \$1;
#X obj 37 284 -;
#X obj 207 503 outlet OUT;
#X floatatom 329 226 5 0 0 0 - - - 0;
#X obj 207 340 *;
#X floatatom 207 361 5 0 0 0 - - - 0;
#X obj 207 381 / 127;
#X floatatom 207 402 5 0 0 0 - - - 0;
#X obj 329 329 *;
#X floatatom 329 347 5 0 0 0 - - - 0;
#X obj 329 365 / 127;
#X floatatom 329 383 5 0 0 0 - - - 0;
#X obj 207 447 +;
#X floatatom 207 485 5 0 0 0 - - - 0;
#X obj 207 466 i;
#X obj 329 310 f;
#X obj 329 246 t b f;
#X floatatom 210 221 5 0 0 0 - - - 0;
#X obj 209 310 f;
#X obj 210 241 t b f;
#X obj 329 400 t b f;
#X obj 210 175 r \$1-param-19-r-a;
#X obj 329 174 r \$1-param-19-r-b;
#X connect 0 0 1 0;
#X connect 1 0 2 0;
#X connect 1 1 17 0;
#X connect 2 0 3 0;
#X connect 3 0 20 0;
#X connect 5 0 18 0;
#X connect 6 0 7 0;
#X connect 7 0 8 0;
#X connect 8 0 9 0;
#X connect 9 0 14 0;
#X connect 10 0 11 0;
#X connect 11 0 12 0;
#X connect 12 0 13 0;
#X connect 13 0 22 0;
#X connect 14 0 16 0;
#X connect 15 0 4 0;
#X connect 16 0 15 0;
#X connect 17 0 10 0;
#X connect 18 0 17 0;
#X connect 18 1 10 1;
#X connect 19 0 21 0;
#X connect 20 0 6 0;
#X connect 21 0 20 0;
#X connect 21 1 6 1;
#X connect 22 0 14 0;
#X connect 22 1 14 1;
#X connect 23 0 19 0;
#X connect 24 0 5 0;
#X restore 482 52 pd scene-out-pm19;
#X obj 597 12 *~;
#X obj 612 -26 pack 0 50;
#X obj 597 150 +~;
#X obj 612 128 *~;
#X obj 627 90 pack 0 50;
#X obj 612 -8 line~;
#X obj 627 108 line~;
#X obj 612 -45 / 250;
#X obj 627 71 / 250;
#N canvas 20 41 451 535 scene-out-pm12 0;
#X obj 37 51 r scene-mix;
#X obj 37 240 t f f;
#X msg 37 262 127 \$1;
#X obj 37 284 -;
#X obj 207 503 outlet OUT;
#X floatatom 329 226 5 0 0 0 - - - 0;
#X obj 207 340 *;
#X floatatom 207 361 5 0 0 0 - - - 0;
#X obj 207 381 / 127;
#X floatatom 207 402 5 0 0 0 - - - 0;
#X obj 329 329 *;
#X floatatom 329 347 5 0 0 0 - - - 0;
#X obj 329 365 / 127;
#X floatatom 329 383 5 0 0 0 - - - 0;
#X obj 207 447 +;
#X floatatom 207 485 5 0 0 0 - - - 0;
#X obj 207 466 i;
#X obj 329 310 f;
#X obj 329 246 t b f;
#X floatatom 210 221 5 0 0 0 - - - 0;
#X obj 209 310 f;
#X obj 210 241 t b f;
#X obj 329 400 t b f;
#X obj 210 175 r \$1-param-12-r-a;
#X obj 329 174 r \$1-param-12-r-b;
#X connect 0 0 1 0;
#X connect 1 0 2 0;
#X connect 1 1 17 0;
#X connect 2 0 3 0;
#X connect 3 0 20 0;
#X connect 5 0 18 0;
#X connect 6 0 7 0;
#X connect 7 0 8 0;
#X connect 8 0 9 0;
#X connect 9 0 14 0;
#X connect 10 0 11 0;
#X connect 11 0 12 0;
#X connect 12 0 13 0;
#X connect 13 0 22 0;
#X connect 14 0 16 0;
#X connect 15 0 4 0;
#X connect 16 0 15 0;
#X connect 17 0 10 0;
#X connect 18 0 17 0;
#X connect 18 1 10 1;
#X connect 19 0 21 0;
#X connect 20 0 6 0;
#X connect 21 0 20 0;
#X connect 21 1 6 1;
#X connect 22 0 14 0;
#X connect 22 1 14 1;
#X connect 23 0 19 0;
#X connect 24 0 5 0;
#X restore 612 -64 pd scene-out-pm12;
#N canvas 20 41 451 535 scene-out-pm20 0;
#X obj 37 51 r scene-mix;
#X obj 37 240 t f f;
#X msg 37 262 127 \$1;
#X obj 37 284 -;
#X obj 207 503 outlet OUT;
#X floatatom 329 226 5 0 0 0 - - - 0;
#X obj 207 340 *;
#X floatatom 207 361 5 0 0 0 - - - 0;
#X obj 207 381 / 127;
#X floatatom 207 402 5 0 0 0 - - - 0;
#X obj 329 329 *;
#X floatatom 329 347 5 0 0 0 - - - 0;
#X obj 329 365 / 127;
#X floatatom 329 383 5 0 0 0 - - - 0;
#X obj 207 447 +;
#X floatatom 207 485 5 0 0 0 - - - 0;
#X obj 207 466 i;
#X obj 329 310 f;
#X obj 329 246 t b f;
#X floatatom 210 221 5 0 0 0 - - - 0;
#X obj 209 310 f;
#X obj 210 241 t b f;
#X obj 329 400 t b f;
#X obj 210 175 r \$1-param-20-r-a;
#X obj 329 174 r \$1-param-20-r-b;
#X connect 0 0 1 0;
#X connect 1 0 2 0;
#X connect 1 1 17 0;
#X connect 2 0 3 0;
#X connect 3 0 20 0;
#X connect 5 0 18 0;
#X connect 6 0 7 0;
#X connect 7 0 8 0;
#X connect 8 0 9 0;
#X connect 9 0 14 0;
#X connect 10 0 11 0;
#X connect 11 0 12 0;
#X connect 12 0 13 0;
#X connect 13 0 22 0;
#X connect 14 0 16 0;
#X connect 15 0 4 0;
#X connect 16 0 15 0;
#X connect 17 0 10 0;
#X connect 18 0 17 0;
#X connect 18 1 10 1;
#X connect 19 0 21 0;
#X connect 20 0 6 0;
#X connect 21 0 20 0;
#X connect 21 1 6 1;
#X connect 22 0 14 0;
#X connect 22 1 14 1;
#X connect 23 0 19 0;
#X connect 24 0 5 0;
#X restore 627 52 pd scene-out-pm20;
#X obj 758 11 *~;
#X obj 773 -27 pack 0 50;
#X obj 758 149 +~;
#X obj 773 127 *~;
#X obj 788 89 pack 0 50;
#X obj 773 -9 line~;
#X obj 788 107 line~;
#X obj 773 -46 / 250;
#X obj 788 70 / 250;
#N canvas 20 41 451 535 scene-out-pm13 0;
#X obj 37 51 r scene-mix;
#X obj 37 240 t f f;
#X msg 37 262 127 \$1;
#X obj 37 284 -;
#X obj 207 503 outlet OUT;
#X floatatom 329 226 5 0 0 0 - - - 0;
#X obj 207 340 *;
#X floatatom 207 361 5 0 0 0 - - - 0;
#X obj 207 381 / 127;
#X floatatom 207 402 5 0 0 0 - - - 0;
#X obj 329 329 *;
#X floatatom 329 347 5 0 0 0 - - - 0;
#X obj 329 365 / 127;
#X floatatom 329 383 5 0 0 0 - - - 0;
#X obj 207 447 +;
#X floatatom 207 485 5 0 0 0 - - - 0;
#X obj 207 466 i;
#X obj 329 310 f;
#X obj 329 246 t b f;
#X floatatom 210 221 5 0 0 0 - - - 0;
#X obj 209 310 f;
#X obj 210 241 t b f;
#X obj 329 400 t b f;
#X obj 210 175 r \$1-param-13-r-a;
#X obj 329 174 r \$1-param-13-r-b;
#X connect 0 0 1 0;
#X connect 1 0 2 0;
#X connect 1 1 17 0;
#X connect 2 0 3 0;
#X connect 3 0 20 0;
#X connect 5 0 18 0;
#X connect 6 0 7 0;
#X connect 7 0 8 0;
#X connect 8 0 9 0;
#X connect 9 0 14 0;
#X connect 10 0 11 0;
#X connect 11 0 12 0;
#X connect 12 0 13 0;
#X connect 13 0 22 0;
#X connect 14 0 16 0;
#X connect 15 0 4 0;
#X connect 16 0 15 0;
#X connect 17 0 10 0;
#X connect 18 0 17 0;
#X connect 18 1 10 1;
#X connect 19 0 21 0;
#X connect 20 0 6 0;
#X connect 21 0 20 0;
#X connect 21 1 6 1;
#X connect 22 0 14 0;
#X connect 22 1 14 1;
#X connect 23 0 19 0;
#X connect 24 0 5 0;
#X restore 773 -65 pd scene-out-pm13;
#N canvas 20 41 451 535 scene-out-pm21 0;
#X obj 37 51 r scene-mix;
#X obj 37 240 t f f;
#X msg 37 262 127 \$1;
#X obj 37 284 -;
#X obj 207 503 outlet OUT;
#X floatatom 329 226 5 0 0 0 - - - 0;
#X obj 207 340 *;
#X floatatom 207 361 5 0 0 0 - - - 0;
#X obj 207 381 / 127;
#X floatatom 207 402 5 0 0 0 - - - 0;
#X obj 329 329 *;
#X floatatom 329 347 5 0 0 0 - - - 0;
#X obj 329 365 / 127;
#X floatatom 329 383 5 0 0 0 - - - 0;
#X obj 207 447 +;
#X floatatom 207 485 5 0 0 0 - - - 0;
#X obj 207 466 i;
#X obj 329 310 f;
#X obj 329 246 t b f;
#X floatatom 210 221 5 0 0 0 - - - 0;
#X obj 209 310 f;
#X obj 210 241 t b f;
#X obj 329 400 t b f;
#X obj 209 175 r \$1-param-21-r-a;
#X obj 329 174 r \$1-param-21-r-b;
#X connect 0 0 1 0;
#X connect 1 0 2 0;
#X connect 1 1 17 0;
#X connect 2 0 3 0;
#X connect 3 0 20 0;
#X connect 5 0 18 0;
#X connect 6 0 7 0;
#X connect 7 0 8 0;
#X connect 8 0 9 0;
#X connect 9 0 14 0;
#X connect 10 0 11 0;
#X connect 11 0 12 0;
#X connect 12 0 13 0;
#X connect 13 0 22 0;
#X connect 14 0 16 0;
#X connect 15 0 4 0;
#X connect 16 0 15 0;
#X connect 17 0 10 0;
#X connect 18 0 17 0;
#X connect 18 1 10 1;
#X connect 19 0 21 0;
#X connect 20 0 6 0;
#X connect 21 0 20 0;
#X connect 21 1 6 1;
#X connect 22 0 14 0;
#X connect 22 1 14 1;
#X connect 23 0 19 0;
#X connect 24 0 5 0;
#X restore 788 51 pd scene-out-pm21;
#X obj 910 10 *~;
#X obj 925 -28 pack 0 50;
#X obj 910 148 +~;
#X obj 925 126 *~;
#X obj 940 88 pack 0 50;
#X obj 925 -10 line~;
#X obj 940 106 line~;
#X obj 925 -47 / 250;
#X obj 940 69 / 250;
#N canvas 20 41 451 535 scene-out-pm14 0;
#X obj 37 51 r scene-mix;
#X obj 37 240 t f f;
#X msg 37 262 127 \$1;
#X obj 37 284 -;
#X obj 207 503 outlet OUT;
#X floatatom 329 226 5 0 0 0 - - - 0;
#X obj 207 340 *;
#X floatatom 207 361 5 0 0 0 - - - 0;
#X obj 207 381 / 127;
#X floatatom 207 402 5 0 0 0 - - - 0;
#X obj 329 329 *;
#X floatatom 329 347 5 0 0 0 - - - 0;
#X obj 329 365 / 127;
#X floatatom 329 383 5 0 0 0 - - - 0;
#X obj 207 447 +;
#X floatatom 207 485 5 0 0 0 - - - 0;
#X obj 207 466 i;
#X obj 329 310 f;
#X obj 329 246 t b f;
#X floatatom 210 221 5 0 0 0 - - - 0;
#X obj 209 310 f;
#X obj 210 241 t b f;
#X obj 329 400 t b f;
#X obj 210 175 r \$1-param-14-r-a;
#X obj 329 174 r \$1-param-14-r-b;
#X connect 0 0 1 0;
#X connect 1 0 2 0;
#X connect 1 1 17 0;
#X connect 2 0 3 0;
#X connect 3 0 20 0;
#X connect 5 0 18 0;
#X connect 6 0 7 0;
#X connect 7 0 8 0;
#X connect 8 0 9 0;
#X connect 9 0 14 0;
#X connect 10 0 11 0;
#X connect 11 0 12 0;
#X connect 12 0 13 0;
#X connect 13 0 22 0;
#X connect 14 0 16 0;
#X connect 15 0 4 0;
#X connect 16 0 15 0;
#X connect 17 0 10 0;
#X connect 18 0 17 0;
#X connect 18 1 10 1;
#X connect 19 0 21 0;
#X connect 20 0 6 0;
#X connect 21 0 20 0;
#X connect 21 1 6 1;
#X connect 22 0 14 0;
#X connect 22 1 14 1;
#X connect 23 0 19 0;
#X connect 24 0 5 0;
#X restore 925 -66 pd scene-out-pm14;
#N canvas 20 41 451 535 scene-out-pm22 0;
#X obj 37 51 r scene-mix;
#X obj 37 240 t f f;
#X msg 37 262 127 \$1;
#X obj 37 284 -;
#X obj 207 503 outlet OUT;
#X floatatom 329 226 5 0 0 0 - - - 0;
#X obj 207 340 *;
#X floatatom 207 361 5 0 0 0 - - - 0;
#X obj 207 381 / 127;
#X floatatom 207 402 5 0 0 0 - - - 0;
#X obj 329 329 *;
#X floatatom 329 347 5 0 0 0 - - - 0;
#X obj 329 365 / 127;
#X floatatom 329 383 5 0 0 0 - - - 0;
#X obj 207 447 +;
#X floatatom 207 485 5 0 0 0 - - - 0;
#X obj 207 466 i;
#X obj 329 310 f;
#X obj 329 246 t b f;
#X floatatom 210 221 5 0 0 0 - - - 0;
#X obj 209 310 f;
#X obj 210 241 t b f;
#X obj 329 400 t b f;
#X obj 209 175 r \$1-param-22-r-a;
#X obj 329 174 r \$1-param-22-r-b;
#X connect 0 0 1 0;
#X connect 1 0 2 0;
#X connect 1 1 17 0;
#X connect 2 0 3 0;
#X connect 3 0 20 0;
#X connect 5 0 18 0;
#X connect 6 0 7 0;
#X connect 7 0 8 0;
#X connect 8 0 9 0;
#X connect 9 0 14 0;
#X connect 10 0 11 0;
#X connect 11 0 12 0;
#X connect 12 0 13 0;
#X connect 13 0 22 0;
#X connect 14 0 16 0;
#X connect 15 0 4 0;
#X connect 16 0 15 0;
#X connect 17 0 10 0;
#X connect 18 0 17 0;
#X connect 18 1 10 1;
#X connect 19 0 21 0;
#X connect 20 0 6 0;
#X connect 21 0 20 0;
#X connect 21 1 6 1;
#X connect 22 0 14 0;
#X connect 22 1 14 1;
#X connect 23 0 19 0;
#X connect 24 0 5 0;
#X restore 940 50 pd scene-out-pm22;
#X obj 1064 9 *~;
#X obj 1079 -29 pack 0 50;
#X obj 1064 147 +~;
#X obj 1079 125 *~;
#X obj 1094 87 pack 0 50;
#X obj 1079 -11 line~;
#X obj 1094 105 line~;
#X obj 1079 -48 / 250;
#X obj 1094 68 / 250;
#N canvas 20 41 451 535 scene-out-pm15 0;
#X obj 37 51 r scene-mix;
#X obj 37 240 t f f;
#X msg 37 262 127 \$1;
#X obj 37 284 -;
#X obj 207 503 outlet OUT;
#X floatatom 329 226 5 0 0 0 - - - 0;
#X obj 207 340 *;
#X floatatom 207 361 5 0 0 0 - - - 0;
#X obj 207 381 / 127;
#X floatatom 207 402 5 0 0 0 - - - 0;
#X obj 329 329 *;
#X floatatom 329 347 5 0 0 0 - - - 0;
#X obj 329 365 / 127;
#X floatatom 329 383 5 0 0 0 - - - 0;
#X obj 207 447 +;
#X floatatom 207 485 5 0 0 0 - - - 0;
#X obj 207 466 i;
#X obj 329 310 f;
#X obj 329 246 t b f;
#X floatatom 210 221 5 0 0 0 - - - 0;
#X obj 209 310 f;
#X obj 210 241 t b f;
#X obj 329 400 t b f;
#X obj 210 175 r \$1-param-15-r-a;
#X obj 329 174 r \$1-param-15-r-b;
#X connect 0 0 1 0;
#X connect 1 0 2 0;
#X connect 1 1 17 0;
#X connect 2 0 3 0;
#X connect 3 0 20 0;
#X connect 5 0 18 0;
#X connect 6 0 7 0;
#X connect 7 0 8 0;
#X connect 8 0 9 0;
#X connect 9 0 14 0;
#X connect 10 0 11 0;
#X connect 11 0 12 0;
#X connect 12 0 13 0;
#X connect 13 0 22 0;
#X connect 14 0 16 0;
#X connect 15 0 4 0;
#X connect 16 0 15 0;
#X connect 17 0 10 0;
#X connect 18 0 17 0;
#X connect 18 1 10 1;
#X connect 19 0 21 0;
#X connect 20 0 6 0;
#X connect 21 0 20 0;
#X connect 21 1 6 1;
#X connect 22 0 14 0;
#X connect 22 1 14 1;
#X connect 23 0 19 0;
#X connect 24 0 5 0;
#X restore 1079 -67 pd scene-out-pm15;
#N canvas 20 41 451 535 scene-out-pm23 0;
#X obj 37 51 r scene-mix;
#X obj 37 240 t f f;
#X msg 37 262 127 \$1;
#X obj 37 284 -;
#X obj 207 503 outlet OUT;
#X floatatom 329 226 5 0 0 0 - - - 0;
#X obj 207 340 *;
#X floatatom 207 361 5 0 0 0 - - - 0;
#X obj 207 381 / 127;
#X floatatom 207 402 5 0 0 0 - - - 0;
#X obj 329 329 *;
#X floatatom 329 347 5 0 0 0 - - - 0;
#X obj 329 365 / 127;
#X floatatom 329 383 5 0 0 0 - - - 0;
#X obj 207 447 +;
#X floatatom 207 485 5 0 0 0 - - - 0;
#X obj 207 466 i;
#X obj 329 310 f;
#X obj 329 246 t b f;
#X floatatom 210 221 5 0 0 0 - - - 0;
#X obj 209 310 f;
#X obj 210 241 t b f;
#X obj 329 400 t b f;
#X obj 209 175 r \$1-param-23-r-a;
#X obj 329 174 r \$1-param-23-r-b;
#X connect 0 0 1 0;
#X connect 1 0 2 0;
#X connect 1 1 17 0;
#X connect 2 0 3 0;
#X connect 3 0 20 0;
#X connect 5 0 18 0;
#X connect 6 0 7 0;
#X connect 7 0 8 0;
#X connect 8 0 9 0;
#X connect 9 0 14 0;
#X connect 10 0 11 0;
#X connect 11 0 12 0;
#X connect 12 0 13 0;
#X connect 13 0 22 0;
#X connect 14 0 16 0;
#X connect 15 0 4 0;
#X connect 16 0 15 0;
#X connect 17 0 10 0;
#X connect 18 0 17 0;
#X connect 18 1 10 1;
#X connect 19 0 21 0;
#X connect 20 0 6 0;
#X connect 21 0 20 0;
#X connect 21 1 6 1;
#X connect 22 0 14 0;
#X connect 22 1 14 1;
#X connect 23 0 19 0;
#X connect 24 0 5 0;
#X restore 1094 49 pd scene-out-pm23;
#X obj 1216 9 *~;
#X obj 1231 -29 pack 0 50;
#X obj 1216 147 +~;
#X obj 1231 125 *~;
#X obj 1246 87 pack 0 50;
#X obj 1231 -11 line~;
#X obj 1246 105 line~;
#X obj 1231 -48 / 250;
#X obj 1246 68 / 250;
#N canvas 20 41 451 535 scene-out-pm16 0;
#X obj 37 51 r scene-mix;
#X obj 37 240 t f f;
#X msg 37 262 127 \$1;
#X obj 37 284 -;
#X obj 207 503 outlet OUT;
#X floatatom 329 226 5 0 0 0 - - - 0;
#X obj 207 340 *;
#X floatatom 207 361 5 0 0 0 - - - 0;
#X obj 207 381 / 127;
#X floatatom 207 402 5 0 0 0 - - - 0;
#X obj 329 329 *;
#X floatatom 329 347 5 0 0 0 - - - 0;
#X obj 329 365 / 127;
#X floatatom 329 383 5 0 0 0 - - - 0;
#X obj 207 447 +;
#X floatatom 207 485 5 0 0 0 - - - 0;
#X obj 207 466 i;
#X obj 329 310 f;
#X obj 329 246 t b f;
#X floatatom 210 221 5 0 0 0 - - - 0;
#X obj 209 310 f;
#X obj 210 241 t b f;
#X obj 329 400 t b f;
#X obj 210 175 r \$1-param-16-r-a;
#X obj 329 174 r \$1-param-16-r-b;
#X connect 0 0 1 0;
#X connect 1 0 2 0;
#X connect 1 1 17 0;
#X connect 2 0 3 0;
#X connect 3 0 20 0;
#X connect 5 0 18 0;
#X connect 6 0 7 0;
#X connect 7 0 8 0;
#X connect 8 0 9 0;
#X connect 9 0 14 0;
#X connect 10 0 11 0;
#X connect 11 0 12 0;
#X connect 12 0 13 0;
#X connect 13 0 22 0;
#X connect 14 0 16 0;
#X connect 15 0 4 0;
#X connect 16 0 15 0;
#X connect 17 0 10 0;
#X connect 18 0 17 0;
#X connect 18 1 10 1;
#X connect 19 0 21 0;
#X connect 20 0 6 0;
#X connect 21 0 20 0;
#X connect 21 1 6 1;
#X connect 22 0 14 0;
#X connect 22 1 14 1;
#X connect 23 0 19 0;
#X connect 24 0 5 0;
#X restore 1231 -67 pd scene-out-pm16;
#N canvas 20 41 451 535 scene-out-pm24 0;
#X obj 37 51 r scene-mix;
#X obj 37 240 t f f;
#X msg 37 262 127 \$1;
#X obj 37 284 -;
#X obj 207 503 outlet OUT;
#X floatatom 329 226 5 0 0 0 - - - 0;
#X obj 207 340 *;
#X floatatom 207 361 5 0 0 0 - - - 0;
#X obj 207 381 / 127;
#X floatatom 207 402 5 0 0 0 - - - 0;
#X obj 329 329 *;
#X floatatom 329 347 5 0 0 0 - - - 0;
#X obj 329 365 / 127;
#X floatatom 329 383 5 0 0 0 - - - 0;
#X obj 207 447 +;
#X floatatom 207 485 5 0 0 0 - - - 0;
#X obj 207 466 i;
#X obj 329 310 f;
#X obj 329 246 t b f;
#X floatatom 210 221 5 0 0 0 - - - 0;
#X obj 209 310 f;
#X obj 210 241 t b f;
#X obj 329 400 t b f;
#X obj 209 175 r \$1-param-24-r-a;
#X obj 329 174 r \$1-param-24-r-b;
#X connect 0 0 1 0;
#X connect 1 0 2 0;
#X connect 1 1 17 0;
#X connect 2 0 3 0;
#X connect 3 0 20 0;
#X connect 5 0 18 0;
#X connect 6 0 7 0;
#X connect 7 0 8 0;
#X connect 8 0 9 0;
#X connect 9 0 14 0;
#X connect 10 0 11 0;
#X connect 11 0 12 0;
#X connect 12 0 13 0;
#X connect 13 0 22 0;
#X connect 14 0 16 0;
#X connect 15 0 4 0;
#X connect 16 0 15 0;
#X connect 17 0 10 0;
#X connect 18 0 17 0;
#X connect 18 1 10 1;
#X connect 19 0 21 0;
#X connect 20 0 6 0;
#X connect 21 0 20 0;
#X connect 21 1 6 1;
#X connect 22 0 14 0;
#X connect 22 1 14 1;
#X connect 23 0 19 0;
#X connect 24 0 5 0;
#X restore 1246 49 pd scene-out-pm24;
#X connect 0 0 1 0;
#X connect 1 0 9 0;
#X connect 2 0 4 0;
#X connect 3 0 5 0;
#X connect 4 0 11 0;
#X connect 5 0 2 0;
#X connect 6 0 7 0;
#X connect 7 0 8 0;
#X connect 8 0 3 0;
#X connect 9 0 10 0;
#X connect 10 0 36 0;
#X connect 10 0 125 0;
#X connect 11 0 10 0;
#X connect 11 1 10 1;
#X connect 12 0 13 0;
#X connect 13 0 21 0;
#X connect 14 0 16 0;
#X connect 15 0 17 0;
#X connect 16 0 23 0;
#X connect 17 0 14 0;
#X connect 18 0 19 0;
#X connect 19 0 20 0;
#X connect 20 0 15 0;
#X connect 21 0 22 0;
#X connect 22 0 37 0;
#X connect 22 0 126 0;
#X connect 23 0 22 0;
#X connect 23 1 22 1;
#X connect 24 0 89 0;
#X connect 25 0 77 0;
#X connect 26 0 65 0;
#X connect 27 0 53 0;
#X connect 28 0 41 0;
#X connect 29 0 0 0;
#X connect 30 0 12 0;
#X connect 31 0 32 0;
#X connect 33 0 34 0;
#X connect 35 0 38 0;
#X connect 36 0 39 0;
#X connect 37 0 40 0;
#X connect 41 0 42 0;
#X connect 42 0 50 0;
#X connect 43 0 45 0;
#X connect 44 0 46 0;
#X connect 45 0 52 0;
#X connect 46 0 43 0;
#X connect 47 0 48 0;
#X connect 48 0 49 0;
#X connect 49 0 44 0;
#X connect 50 0 51 0;
#X connect 51 0 35 0;
#X connect 51 0 124 0;
#X connect 52 0 51 0;
#X connect 52 1 51 1;
#X connect 53 0 54 0;
#X connect 54 0 62 0;
#X connect 55 0 57 0;
#X connect 56 0 58 0;
#X connect 57 0 64 0;
#X connect 58 0 55 0;
#X connect 59 0 60 0;
#X connect 60 0 61 0;
#X connect 61 0 56 0;
#X connect 62 0 63 0;
#X connect 63 0 33 0;
#X connect 63 0 123 0;
#X connect 64 0 63 0;
#X connect 64 1 63 1;
#X connect 65 0 66 0;
#X connect 66 0 74 0;
#X connect 67 0 69 0;
#X connect 68 0 70 0;
#X connect 69 0 76 0;
#X connect 70 0 67 0;
#X connect 71 0 72 0;
#X connect 72 0 73 0;
#X connect 73 0 68 0;
#X connect 74 0 75 0;
#X connect 75 0 31 0;
#X connect 75 0 122 0;
#X connect 76 0 75 0;
#X connect 76 1 75 1;
#X connect 77 0 78 0;
#X connect 78 0 86 0;
#X connect 79 0 81 0;
#X connect 80 0 82 0;
#X connect 81 0 88 0;
#X connect 82 0 79 0;
#X connect 83 0 84 0;
#X connect 84 0 85 0;
#X connect 85 0 80 0;
#X connect 86 0 87 0;
#X connect 87 0 100 0;
#X connect 87 0 121 0;
#X connect 88 0 87 0;
#X connect 88 1 87 1;
#X connect 89 0 104 0;
#X connect 90 0 92 0;
#X connect 91 0 93 0;
#X connect 92 0 99 0;
#X connect 93 0 90 0;
#X connect 94 0 95 0;
#X connect 95 0 96 0;
#X connect 96 0 91 0;
#X connect 97 0 98 0;
#X connect 98 0 102 0;
#X connect 98 0 120 0;
#X connect 99 0 98 0;
#X connect 99 1 98 1;
#X connect 100 0 101 0;
#X connect 102 0 103 0;
#X connect 104 0 97 0;
#X connect 105 0 106 0;
#X connect 106 0 114 0;
#X connect 107 0 109 0;
#X connect 108 0 110 0;
#X connect 109 0 116 0;
#X connect 110 0 107 0;
#X connect 111 0 112 0;
#X connect 112 0 113 0;
#X connect 113 0 108 0;
#X connect 114 0 115 0;
#X connect 115 0 117 0;
#X connect 115 0 127 0;
#X connect 116 0 115 0;
#X connect 116 1 115 1;
#X connect 117 0 119 0;
#X connect 118 0 105 0;
#X connect 129 0 131 0;
#X connect 129 0 142 0;
#X connect 129 0 153 0;
#X connect 129 0 164 0;
#X connect 129 0 175 0;
#X connect 129 0 186 0;
#X connect 129 0 197 0;
#X connect 129 0 208 0;
#X connect 130 0 135 0;
#X connect 130 0 145 0;
#X connect 130 0 156 0;
#X connect 130 0 167 0;
#X connect 130 0 178 0;
#X connect 130 0 189 0;
#X connect 130 0 200 0;
#X connect 130 0 211 0;
#X connect 131 0 134 0;
#X connect 132 0 137 0;
#X connect 133 0 139 0;
#X connect 134 0 90 0;
#X connect 134 0 94 0;
#X connect 135 0 134 1;
#X connect 136 0 138 0;
#X connect 137 0 131 1;
#X connect 138 0 135 1;
#X connect 139 0 132 0;
#X connect 140 0 136 0;
#X connect 141 0 140 0;
#X connect 142 0 144 0;
#X connect 143 0 147 0;
#X connect 144 0 83 0;
#X connect 144 0 79 0;
#X connect 145 0 144 1;
#X connect 146 0 148 0;
#X connect 147 0 142 1;
#X connect 148 0 145 1;
#X connect 149 0 143 0;
#X connect 150 0 146 0;
#X connect 151 0 149 0;
#X connect 152 0 150 0;
#X connect 153 0 155 0;
#X connect 154 0 158 0;
#X connect 155 0 71 0;
#X connect 155 0 67 0;
#X connect 156 0 155 1;
#X connect 157 0 159 0;
#X connect 158 0 153 1;
#X connect 159 0 156 1;
#X connect 160 0 154 0;
#X connect 161 0 157 0;
#X connect 162 0 160 0;
#X connect 163 0 161 0;
#X connect 164 0 166 0;
#X connect 165 0 169 0;
#X connect 166 0 59 0;
#X connect 166 0 55 0;
#X connect 167 0 166 1;
#X connect 168 0 170 0;
#X connect 169 0 164 1;
#X connect 170 0 167 1;
#X connect 171 0 165 0;
#X connect 172 0 168 0;
#X connect 173 0 171 0;
#X connect 174 0 172 0;
#X connect 175 0 177 0;
#X connect 176 0 180 0;
#X connect 177 0 43 0;
#X connect 177 0 47 0;
#X connect 178 0 177 1;
#X connect 179 0 181 0;
#X connect 180 0 175 1;
#X connect 181 0 178 1;
#X connect 182 0 176 0;
#X connect 183 0 179 0;
#X connect 184 0 182 0;
#X connect 185 0 183 0;
#X connect 186 0 188 0;
#X connect 187 0 191 0;
#X connect 188 0 6 0;
#X connect 188 0 2 0;
#X connect 189 0 188 1;
#X connect 190 0 192 0;
#X connect 191 0 186 1;
#X connect 192 0 189 1;
#X connect 193 0 187 0;
#X connect 194 0 190 0;
#X connect 195 0 193 0;
#X connect 196 0 194 0;
#X connect 197 0 199 0;
#X connect 198 0 202 0;
#X connect 199 0 18 0;
#X connect 199 0 14 0;
#X connect 200 0 199 1;
#X connect 201 0 203 0;
#X connect 202 0 197 1;
#X connect 203 0 200 1;
#X connect 204 0 198 0;
#X connect 205 0 201 0;
#X connect 206 0 204 0;
#X connect 207 0 205 0;
#X connect 208 0 210 0;
#X connect 209 0 213 0;
#X connect 210 0 107 0;
#X connect 210 0 111 0;
#X connect 211 0 210 1;
#X connect 212 0 214 0;
#X connect 213 0 208 1;
#X connect 214 0 211 1;
#X connect 215 0 209 0;
#X connect 216 0 212 0;
#X connect 217 0 215 0;
#X connect 218 0 216 0;
#X coords 0 459 1 458 220 120 0;
