#N canvas 585 221 1237 459 10;
#X msg 50 254 0, f 6;
#X obj 50 235 loadbang;
#X text 40 103 This textfile contains all necessery names of the module and the names of the gui (faders etc.). This way its much easier to change the names of all elements simply by editing the text object.;
#X msg 50 314 label \$1;
#X obj 50 293 pack symbol;
#X obj 50 333 s \$1-modul-name;
#X msg 226 309 label \$1;
#X obj 226 288 pack symbol;
#X obj 226 328 s \$1-param-1-r;
#X obj 226 233 loadbang;
#X msg 226 251 1, f 6;
#X text 50 213 Module-Name:;
#X text 224 213 PARAM 1:;
#X msg 396 309 label \$1;
#X obj 396 288 pack symbol;
#X obj 396 233 loadbang;
#X text 394 213 PARAM 2:;
#X msg 396 251 2, f 6;
#X obj 396 328 s \$1-param-2-r;
#X msg 566 309 label \$1;
#X obj 566 288 pack symbol;
#X obj 566 233 loadbang;
#X msg 736 309 label \$1;
#X obj 736 288 pack symbol;
#X obj 736 233 loadbang;
#X text 564 213 PARAM 3:;
#X text 734 213 PARAM 4:;
#X msg 566 251 3, f 6;
#X msg 736 251 4, f 6;
#X obj 566 328 s \$1-param-3-r;
#X obj 736 328 s \$1-param-4-r;
#X msg 226 479 label \$1;
#X obj 226 458 pack symbol;
#X obj 226 403 loadbang;
#X msg 396 479 label \$1;
#X obj 396 458 pack symbol;
#X obj 396 403 loadbang;
#X text 394 383 PARAM 2:;
#X msg 566 479 label \$1;
#X obj 566 458 pack symbol;
#X obj 566 403 loadbang;
#X msg 736 479 label \$1;
#X obj 736 458 pack symbol;
#X obj 736 403 loadbang;
#X text 564 383 PARAM 3:;
#X text 734 383 PARAM 4:;
#X text 224 383 PARAM 5:;
#X msg 226 421 5, f 6;
#X msg 396 421 6, f 6;
#X msg 566 421 7, f 6;
#X msg 736 421 8, f 6;
#X obj 226 498 s \$1-param-5-r;
#X obj 396 498 s \$1-param-6-r;
#X obj 566 498 s \$1-param-7-r;
#X obj 736 498 s \$1-param-8-r;
#X obj 50 271 text get \$1-modul-settings;
#X obj 226 269 text get \$1-modul-settings;
#X obj 396 269 text get \$1-modul-settings;
#X obj 566 269 text get \$1-modul-settings;
#X obj 736 269 text get \$1-modul-settings;
#X obj 226 439 text get \$1-modul-settings;
#X obj 396 439 text get \$1-modul-settings;
#X obj 566 439 text get \$1-modul-settings;
#X obj 736 439 text get \$1-modul-settings;
#X text 924 48 The Order of the file \; 0=Modul-Name \; 1=Name Param1 - write non if unused \; 2=Name Param2 \; 3=Name Param3 \; 4=Name Param4 \; 5=Name Param5 \; 6=Name Param6 \; 7=Name Param7 \; 8=Name Param8 \; 9=Type of Module (SRC \, MOD \, LFO \, EFX etc) \; 10=Number of used Parameters \; 11=Color of Param1-Circle 12=Color of Param2-Circle \; 13=Color of Param3-Circle \; 14=Color of Param4-Circle \; 15=Color of Param5-Circle \; 16=Color of Param6-Circle \; 17=Color of Param7-Circle \; 18=Color of Param8-Circle \; ....;
#X connect 0 0 55 0;
#X connect 1 0 0 0;
#X connect 3 0 5 0;
#X connect 4 0 3 0;
#X connect 6 0 8 0;
#X connect 7 0 6 0;
#X connect 9 0 10 0;
#X connect 10 0 56 0;
#X connect 13 0 18 0;
#X connect 14 0 13 0;
#X connect 15 0 17 0;
#X connect 17 0 57 0;
#X connect 19 0 29 0;
#X connect 20 0 19 0;
#X connect 21 0 27 0;
#X connect 22 0 30 0;
#X connect 23 0 22 0;
#X connect 24 0 28 0;
#X connect 27 0 58 0;
#X connect 28 0 59 0;
#X connect 31 0 51 0;
#X connect 32 0 31 0;
#X connect 33 0 47 0;
#X connect 34 0 52 0;
#X connect 35 0 34 0;
#X connect 36 0 48 0;
#X connect 38 0 53 0;
#X connect 39 0 38 0;
#X connect 40 0 49 0;
#X connect 41 0 54 0;
#X connect 42 0 41 0;
#X connect 43 0 50 0;
#X connect 47 0 60 0;
#X connect 48 0 61 0;
#X connect 49 0 62 0;
#X connect 50 0 63 0;
#X connect 55 0 4 0;
#X connect 56 0 7 0;
#X connect 57 0 14 0;
#X connect 58 0 20 0;
#X connect 59 0 23 0;
#X connect 60 0 32 0;
#X connect 61 0 35 0;
#X connect 62 0 39 0;
#X connect 63 0 42 0;
#X coords 0 459 1 458 220 120 0;
