#N canvas 203 231 1237 459 10;
#X obj 338 64 bng 16 250 50 0 empty empty empty 0 -8 0 10 #fcfcfc #000000 #000000;
#X floatatom 338 106 5 0 0 0 - - - 0;
#X obj 220 162 hradio 16 1 0 8 \$1-main-menu-s \$1-main-menu-r Main-Menu 0 -8 0 10 #fcfcfc #000000 #000000 0;
#X obj 220 202 hradio 16 1 0 8 \$1-sub-menu-s \$1-sub-menu-r Sub-Menu 0 -8 0 10 #fcfcfc #000000 #000000 0;
#X obj 220 242 hradio 16 1 0 8 \$1-sub2-menu-s \$1-sub2-menu-r Sub2-Menu 0 -8 0 10 #fcfcfc #000000 #000000 0;
#X obj 338 126 - 1;
#X obj 375 62 bng 16 250 50 0 empty empty empty 0 -8 0 10 #fcfcfc #000000 #000000;
#X floatatom 375 104 5 0 0 0 - - - 0;
#X obj 375 124 - 1;
#X obj 338 23 loadbang;
#X obj 338 85 f \$4;
#X obj 375 83 f \$3;
#X obj 195 47 loadbang;
#X msg 195 68 0;
#X connect 0 0 10 0;
#X connect 1 0 5 0;
#X connect 5 0 3 0;
#X connect 6 0 11 0;
#X connect 7 0 8 0;
#X connect 8 0 4 0;
#X connect 9 0 0 0;
#X connect 9 0 6 0;
#X connect 10 0 1 0;
#X connect 11 0 7 0;
#X connect 12 0 13 0;
#X connect 13 0 2 0;
#X coords 0 459 1 458 220 120 0;
