#N canvas 0 25 1440 847 10;
#X obj 110 1206 t b;
#X obj 117 1226 r \$1-param-1-s;
#X obj 110 1186 sel 1;
#X msg 60 834 1, f 6;
#X text 289 753 PARAM 2:;
#X text 504 756 PARAM 3:;
#X text 715 757 PARAM 4:;
#X text 929 754 PARAM 5:;
#X text 1140 754 PARAM 6:;
#X text 1347 751 PARAM 7:;
#X text 1557 752 PARAM 8:;
#X obj 60 774 r \$1-modul-active;
#X obj 60 793 sel 1;
#X obj 59 966 s display-message;
#X obj 117 1264 spigot;
#X text 58 1020 PARAM 1:;
#X text 290 1018 PARAM 2:;
#X text 503 1016 PARAM 3:;
#X obj 60 1034 r \$1-modul-active;
#X obj 60 1072 sel 1;
#X obj 62 1497 s display-message;
#X obj 67 1205 spigot;
#X obj 71 1162 r \$1-param-1-s-post;
#X obj 60 535 t b;
#X obj 60 514 sel 1;
#X obj 60 651 s display-message;
#X obj 60 424 r \$1-main-menu-active;
#X text 56 405 CHANNEL-NAME:;
#X obj 259 650 s display-message;
#X msg 60 554 0, f 6;
#X obj 67 446 r \$1-sub-menu-active;
#X obj 259 535 t b;
#X msg 259 554 0, f 6;
#X obj 259 514 sel 2;
#X obj 60 489 +;
#X obj 67 467 t b f;
#X text 480 406 SUBMODUL-NAME:;
#X obj 105 593 r \$1-sub-menu-s;
#X msg 60 632 \$2 11 #ffffff #000000 center \$1;
#X obj 304 592 r \$1-sub-menu-s;
#X msg 259 631 \$2 11 #000000 #ffffff center \$1;
#X obj 60 613 pack s f;
#X obj 259 612 pack s f;
#X obj 477 540 t b;
#X obj 477 519 sel 1;
#X obj 477 656 s display-message;
#X obj 676 655 s display-message;
#X obj 676 540 t b;
#X obj 676 519 sel 2;
#X obj 477 494 +;
#X obj 484 472 t b f;
#X obj 477 618 pack s f;
#X obj 676 617 pack s f;
#X obj 522 598 r \$1-sub2-menu-s;
#X obj 721 597 r \$1-sub2-menu-s;
#X obj 477 429 r \$1-sub-menu-active;
#X obj 484 451 r \$1-modul-active;
#X msg 477 637 \$2 12 #383838 #000000 center \$1;
#X msg 676 636 \$2 12 #ffffff #000000 center \$1;
#X msg 477 559 9, f 6;
#X msg 676 559 9, f 6;
#X obj 60 573 text get \$1-modul-settings;
#X obj 259 573 text get \$1-modul-settings;
#X obj 477 578 text get \$1-modul-settings;
#X obj 676 578 text get \$1-modul-settings;
#X obj 60 852 text get \$1-modul-settings;
#N canvas 63 88 1263 654 knobs-preset 0;
#X obj 812 179 pack f f;
#X floatatom 812 133 5 0 0 0 - - - 0;
#X floatatom 851 135 5 0 0 0 - - - 0;
#X obj 851 153 t b f;
#X msg 811 198 send RINGVAL 3 1 \$1 \$2;
#X msg 811 236 3 3 #736b1e #000000 center mod*LFO;
#X msg 811 218 3 2 #736b1e #000000 center FREQ;
#X obj 576 181 pack f f;
#X floatatom 576 128 5 0 0 0 - - - 0;
#X floatatom 612 130 5 0 0 0 - - - 0;
#X obj 615 155 t b f;
#X msg 576 200 send RINGVAL 2 1 \$1 \$2;
#X msg 577 219 2 2 #bf1b1b #000000 center FREQ;
#X msg 577 238 2 3 #bf1b1b #000000 center mod*LFO;
#X obj 343 176 pack f f;
#X floatatom 343 123 5 0 0 0 - - - 0;
#X floatatom 379 125 5 0 0 0 - - - 0;
#X obj 382 150 t b f;
#X msg 343 197 send RINGVAL 1 1 \$1 \$2;
#X msg 343 218 1 2 #ed3f1c #000000 center FREQ;
#X msg 343 238 1 3 #912610 #000000 center mod*LFO;
#X obj 113 177 pack f f;
#X floatatom 113 124 5 0 0 0 - - - 0;
#X floatatom 149 126 5 0 0 0 - - - 0;
#X obj 152 151 t b f;
#X msg 113 218 0 2 #ed8008 #000000 center FREQ;
#X msg 113 238 0 3 #912610 #000000 center mod*LFO;
#X msg 113 198 send RINGVAL 0 1 \$1 \$2;
#X obj 807 363 pack f f;
#X floatatom 807 310 5 0 0 0 - - - 0;
#X floatatom 843 312 5 0 0 0 - - - 0;
#X obj 846 337 t b f;
#X obj 577 363 pack f f;
#X floatatom 577 310 5 0 0 0 - - - 0;
#X floatatom 613 312 5 0 0 0 - - - 0;
#X obj 616 337 t b f;
#X obj 344 360 pack f f;
#X floatatom 344 307 5 0 0 0 - - - 0;
#X floatatom 380 309 5 0 0 0 - - - 0;
#X obj 383 334 t b f;
#X obj 115 359 pack f f;
#X floatatom 115 306 5 0 0 0 - - - 0;
#X floatatom 154 314 5 0 0 0 - - - 0;
#X obj 154 333 t b f;
#X msg 807 403 3 6 #d9c3b0 #000000 center FREQ;
#X msg 807 422 3 7 #d9c3b0 #000000 center mod*LFO;
#X msg 807 384 send RINGVAL 3 5 \$1 \$2;
#X msg 577 402 2 6 #bfa07a #000000 center FREQ;
#X msg 577 421 2 7 #bfa07a #000000 center mod*LFO;
#X msg 577 384 send RINGVAL 2 5 \$1 \$2;
#X msg 344 401 1 6 #3b4b59 #000000 center FREQ;
#X msg 344 420 1 7 #3b4b59 #000000 center mod*LFO;
#X msg 344 381 send RINGVAL 1 5 \$1 \$2;
#X msg 115 399 0 6 #cc6324 #000000 center FREQ;
#X msg 115 418 0 7 #cc6324 #000000 center mod*LFO;
#X msg 115 380 send RINGVAL 0 5 \$1 \$2;
#X text 115 98 PARA1;
#X text 341 97 PARA2;
#X text 574 105 PARA3;
#X text 810 107 PARA4;
#X text 113 283 PARA5;
#X text 343 283 PARA6;
#X text 576 288 PARA7;
#X text 804 291 PARA8;
#X connect 0 0 4 0;
#X connect 1 0 0 0;
#X connect 2 0 3 0;
#X connect 3 0 0 0;
#X connect 3 1 0 1;
#X connect 7 0 11 0;
#X connect 8 0 7 0;
#X connect 9 0 10 0;
#X connect 10 0 7 0;
#X connect 10 1 7 1;
#X connect 14 0 18 0;
#X connect 15 0 14 0;
#X connect 16 0 17 0;
#X connect 17 0 14 0;
#X connect 17 1 14 1;
#X connect 21 0 27 0;
#X connect 22 0 21 0;
#X connect 23 0 24 0;
#X connect 24 0 21 0;
#X connect 24 1 21 1;
#X connect 28 0 46 0;
#X connect 29 0 28 0;
#X connect 30 0 31 0;
#X connect 31 0 28 0;
#X connect 31 1 28 1;
#X connect 32 0 49 0;
#X connect 33 0 32 0;
#X connect 34 0 35 0;
#X connect 35 0 32 0;
#X connect 35 1 32 1;
#X connect 36 0 52 0;
#X connect 37 0 36 0;
#X connect 38 0 39 0;
#X connect 39 0 36 0;
#X connect 39 1 36 1;
#X connect 40 0 55 0;
#X connect 41 0 40 0;
#X connect 42 0 43 0;
#X connect 43 0 40 0;
#X connect 43 1 40 1;
#X restore 1170 441 pd knobs-preset;
#X obj 111 1309 t b f;
#X obj 111 1286 i;
#X obj 61 1227 i;
#X obj 61 1301 change;
#X text 65 1544 MOD-PARAM 1:;
#X text 59 754 NAME-PARAM 1:;
#N canvas 63 88 1343 426 set-rings 0;
#X msg 976 120 send RING 3 1 #e3e3e3 #736b1e #000000 250 20 45;
#X obj 672 144 s display-message;
#X msg 672 124 send RING 2 1 #e3e3e3 #bf1b1b #000000 250 20 45;
#X obj 364 148 s display-message;
#X msg 364 128 send RING 1 1 #e3e3e3 #ed3f1c #000000 250 20 45;
#X obj 39 159 s display-message;
#X msg 39 140 send RING 0 1 #e3e3e3 #ed8008 #000000 250 20 45;
#X obj 976 141 s display-message;
#X obj 673 209 s display-message;
#X obj 366 211 s display-message;
#X obj 38 223 s display-message;
#X obj 974 211 s display-message;
#X msg 974 193 send RING 3 5 #e3e3e3 #d9c3b0 #000000 250 20 45;
#X msg 673 190 send RING 2 5 #e3e3e3 #bfa07a #000000 250 20 45;
#X msg 366 192 send RING 1 5 #e3e3e3 #3b4b59 #000000 250 20 45;
#X msg 38 203 send RING 0 5 #e3e3e3 #cc6324 #000000 250 20 45;
#X obj 39 112 del 50;
#X obj 364 107 del 50;
#X obj 672 104 del 50;
#X obj 976 100 del 50;
#X text 36 40 DIETER RAM Colors sceme:;
#X connect 0 0 7 0;
#X connect 2 0 1 0;
#X connect 4 0 3 0;
#X connect 6 0 5 0;
#X connect 12 0 11 0;
#X connect 13 0 8 0;
#X connect 14 0 9 0;
#X connect 15 0 10 0;
#X connect 16 0 6 0;
#X connect 17 0 4 0;
#X connect 18 0 2 0;
#X connect 19 0 0 0;
#X restore 1169 464 pd set-rings;
#X obj 97 1091 text get \$1-modul-settings, f 23;
#X msg 97 1072 11, f 6;
#X obj 60 890 sel none;
#X msg 60 948 0 2 #000000 #000000 center \$1;
#X obj 108 823 text get \$1-modul-settings, f 18;
#X msg 108 805 11, f 6;
#X obj 60 871 t s s;
#X obj 60 814 t b b;
#X msg 65 930 0 2 \$3 #000000 center \$2;
#X obj 65 910 pack s s s;
#X msg 70 1382 1, f 6;
#X obj 70 1401 text get \$1-modul-settings, f 28;
#X obj 70 1420 sel none;
#X msg 70 1459 0 1 #000000 #000000 center \$1;
#X obj 60 1092 t b b;
#X obj 62 1478 spigot;
#X msg 76 1441 0;
#X msg 105 1441 1;
#X obj 60 1053 t f f b;
#X obj 291 774 r \$1-modul-active;
#X obj 291 793 sel 1;
#X obj 290 966 s display-message;
#X obj 291 852 text get \$1-modul-settings;
#X obj 291 890 sel none;
#X obj 339 823 text get \$1-modul-settings, f 18;
#X obj 291 871 t s s;
#X obj 291 814 t b b;
#X obj 296 910 pack s s s;
#X msg 291 834 2, f 6;
#X msg 296 930 1 2 \$3 #000000 center \$2;
#X msg 291 948 1 2 #000000 #000000 center \$1;
#X obj 341 1206 t b;
#X obj 341 1186 sel 1;
#X obj 348 1264 spigot;
#X obj 291 1034 r \$1-modul-active;
#X obj 291 1072 sel 1;
#X obj 293 1497 s display-message;
#X obj 298 1205 spigot;
#X obj 342 1312 t b f;
#X obj 342 1286 i;
#X obj 292 1227 i;
#X obj 293 1323 change;
#X obj 328 1090 text get \$1-modul-settings, f 23;
#X obj 301 1401 text get \$1-modul-settings, f 28;
#X obj 301 1420 sel none;
#X obj 291 1092 t b b;
#X obj 293 1478 spigot;
#X msg 307 1441 0;
#X msg 336 1441 1;
#X obj 291 1053 t f f b;
#X msg 328 1119 send RING 1 1 #e3e3e3 \$1 #000000 250 20 45, f 22;
#X msg 301 1459 1 1 #000000 #000000 center \$1;
#X obj 298 1167 r \$1-param-2-s-post;
#X obj 348 1226 r \$1-param-2-s;
#X msg 301 1382 2, f 6;
#X msg 339 805 12, f 6;
#X msg 328 1072 12, f 6;
#X obj 504 774 r \$1-modul-active;
#X obj 504 793 sel 1;
#X obj 503 966 s display-message;
#X obj 504 852 text get \$1-modul-settings;
#X obj 504 890 sel none;
#X obj 552 823 text get \$1-modul-settings, f 18;
#X obj 504 871 t s s;
#X obj 504 814 t b b;
#X obj 509 910 pack s s s;
#X msg 552 805 13, f 6;
#X msg 504 834 3, f 6;
#X msg 504 948 2 2 #000000 #000000 center \$1;
#X msg 509 930 2 2 \$3 #000000 center \$2;
#X obj 554 1206 t b;
#X obj 554 1186 sel 1;
#X obj 561 1264 spigot;
#X obj 504 1034 r \$1-modul-active;
#X obj 504 1072 sel 1;
#X obj 506 1497 s display-message;
#X obj 511 1205 spigot;
#X obj 555 1306 t b f;
#X obj 555 1286 i;
#X obj 505 1227 i;
#X obj 506 1320 change;
#X obj 541 1090 text get \$1-modul-settings, f 23;
#X obj 514 1401 text get \$1-modul-settings, f 28;
#X obj 514 1420 sel none;
#X obj 504 1092 t b b;
#X obj 506 1478 spigot;
#X msg 520 1441 0;
#X msg 549 1441 1;
#X obj 504 1053 t f f b;
#X msg 541 1072 13, f 6;
#X msg 541 1119 send RING 2 1 #e3e3e3 \$1 #000000 250 20 45, f 22;
#X msg 514 1459 2 1 #000000 #000000 center \$1;
#X obj 511 1167 r \$1-param-3-s-post;
#X obj 561 1226 r \$1-param-3-s;
#X obj 716 774 r \$1-modul-active;
#X obj 716 793 sel 1;
#X obj 715 966 s display-message;
#X obj 716 852 text get \$1-modul-settings;
#X obj 716 890 sel none;
#X obj 764 823 text get \$1-modul-settings, f 18;
#X obj 716 871 t s s;
#X obj 716 814 t b b;
#X obj 721 910 pack s s s;
#X msg 764 805 14, f 6;
#X msg 721 930 3 2 \$3 #000000 center \$2;
#X msg 716 948 3 2 #000000 #000000 center \$1;
#X msg 716 834 4, f 6;
#X text 293 1544 MOD-PARAM 2:;
#X text 505 1544 MOD-PARAM 3:;
#X obj 764 1206 t b;
#X obj 764 1186 sel 1;
#X obj 771 1264 spigot;
#X obj 714 1034 r \$1-modul-active;
#X obj 714 1072 sel 1;
#X obj 716 1497 s display-message;
#X obj 721 1205 spigot;
#X obj 765 1306 t b f;
#X obj 765 1286 i;
#X obj 715 1227 i;
#X obj 705 1314 change;
#X obj 751 1090 text get \$1-modul-settings, f 23;
#X obj 724 1401 text get \$1-modul-settings, f 28;
#X obj 724 1420 sel none;
#X obj 714 1092 t b b;
#X obj 716 1478 spigot;
#X msg 730 1441 0;
#X msg 759 1441 1;
#X obj 714 1053 t f f b;
#X text 713 1016 PARAM 4:;
#X msg 751 1072 14, f 6;
#X msg 751 1119 send RING 3 1 #e3e3e3 \$1 #000000 250 20 45, f 22;
#X obj 721 1167 r \$1-param-4-s-post;
#X obj 771 1226 r \$1-param-4-s;
#X msg 724 1459 3 1 #000000 #000000 center \$1;
#X msg 514 1382 3, f 6;
#X msg 724 1382 4, f 6;
#X text 716 1544 MOD-PARAM 4:;
#X obj 61 1282 f;
#X obj 61 1246 r \$1-framerate;
#X obj 981 513 r \$1-modul-active;
#X obj 948 541 spigot;
#X obj 948 562 s \$1-framerate;
#X obj 293 1282 f;
#X obj 293 1246 r \$1-framerate;
#X obj 506 1283 f;
#X obj 506 1247 r \$1-framerate;
#X obj 716 1281 f;
#X obj 699 1254 r \$1-framerate;
#X obj 948 493 metro 60;
#X obj 930 772 r \$1-modul-active;
#X obj 930 791 sel 1;
#X obj 929 964 s display-message;
#X obj 930 850 text get \$1-modul-settings;
#X obj 930 888 sel none;
#X obj 978 821 text get \$1-modul-settings, f 18;
#X obj 930 869 t s s;
#X obj 930 812 t b b;
#X obj 935 908 pack s s s;
#X msg 978 803 15, f 6;
#X msg 930 832 5, f 6;
#X obj 1142 772 r \$1-modul-active;
#X obj 1142 791 sel 1;
#X obj 1141 964 s display-message;
#X obj 1142 850 text get \$1-modul-settings;
#X obj 1142 888 sel none;
#X obj 1190 821 text get \$1-modul-settings, f 18;
#X obj 1142 869 t s s;
#X obj 1142 812 t b b;
#X obj 1147 908 pack s s s;
#X msg 1190 803 16, f 6;
#X msg 1142 832 6, f 6;
#X msg 1147 928 1 6 \$3 #000000 center \$2;
#X msg 1142 946 1 6 #000000 #000000 center \$1;
#X obj 1349 772 r \$1-modul-active;
#X obj 1349 791 sel 1;
#X obj 1348 964 s display-message;
#X obj 1349 850 text get \$1-modul-settings;
#X obj 1349 888 sel none;
#X obj 1397 821 text get \$1-modul-settings, f 18;
#X obj 1349 869 t s s;
#X obj 1349 812 t b b;
#X obj 1354 908 pack s s s;
#X msg 1349 832 7, f 6;
#X msg 1397 803 17, f 6;
#X msg 1354 928 2 6 \$3 #000000 center \$2;
#X msg 1349 946 2 6 #000000 #000000 center \$1;
#X obj 1557 772 r \$1-modul-active;
#X obj 1557 791 sel 1;
#X obj 1556 964 s display-message;
#X obj 1557 850 text get \$1-modul-settings;
#X obj 1557 888 sel none;
#X obj 1605 821 text get \$1-modul-settings, f 18;
#X obj 1557 869 t s s;
#X obj 1557 812 t b b;
#X obj 1562 908 pack s s s;
#X msg 1557 832 8, f 6;
#X msg 1605 803 18, f 6;
#X msg 1562 928 3 6 \$3 #000000 center \$2;
#X msg 1557 946 3 6 #000000 #000000 center \$1;
#X msg 935 928 0 6 \$3 #000000 center \$2;
#X msg 930 946 0 6 #000000 #000000 center \$1;
#X msg 62 1362 send RINGVAL 0 1 \$1 \$2 \$3;
#X obj 62 1343 pack f f s;
#X obj 161 1288 r \$1-param-1-t;
#X obj 293 1343 pack f f s;
#X obj 375 1286 r \$1-param-2-t;
#X obj 506 1343 pack f f s;
#X obj 598 1282 r \$1-param-3-t;
#X obj 716 1343 pack f f s;
#X obj 809 1289 r \$1-param-4-t;
#X msg 302 1362 send RINGVAL 1 1 \$1 \$2 \$3;
#X msg 506 1362 send RINGVAL 2 1 \$1 \$2 \$3;
#X msg 716 1362 send RINGVAL 3 1 \$1 \$2 \$3;
#X obj 984 1206 t b;
#X obj 984 1186 sel 1;
#X obj 991 1264 spigot;
#X obj 934 1034 r \$1-modul-active;
#X obj 934 1072 sel 1;
#X obj 936 1497 s display-message;
#X obj 941 1205 spigot;
#X obj 985 1306 t b f;
#X obj 985 1286 i;
#X obj 935 1227 i;
#X obj 925 1314 change;
#X obj 971 1090 text get \$1-modul-settings, f 23;
#X obj 944 1401 text get \$1-modul-settings, f 28;
#X obj 944 1420 sel none;
#X obj 934 1092 t b b;
#X obj 936 1478 spigot;
#X msg 950 1441 0;
#X msg 979 1441 1;
#X obj 934 1053 t f f b;
#X obj 936 1281 f;
#X obj 919 1254 r \$1-framerate;
#X obj 936 1343 pack f f s;
#X text 933 1016 PARAM 5:;
#X msg 971 1119 send RING 0 5 #e3e3e3 \$1 #000000 250 20 45, f 22;
#X msg 971 1072 15, f 6;
#X obj 941 1167 r \$1-param-5-s-post;
#X obj 991 1226 r \$1-param-5-s;
#X obj 1029 1289 r \$1-param-5-t;
#X msg 936 1362 send RINGVAL 0 5 \$1 \$2 \$3;
#X msg 944 1459 0 5 #000000 #000000 center \$1;
#X obj 1195 1207 t b;
#X obj 1195 1187 sel 1;
#X obj 1202 1265 spigot;
#X obj 1145 1035 r \$1-modul-active;
#X obj 1145 1073 sel 1;
#X obj 1147 1498 s display-message;
#X obj 1152 1206 spigot;
#X obj 1196 1307 t b f;
#X obj 1196 1287 i;
#X obj 1146 1228 i;
#X obj 1146 1285 change;
#X obj 1182 1091 text get \$1-modul-settings, f 23;
#X obj 1155 1402 text get \$1-modul-settings, f 28;
#X obj 1155 1421 sel none;
#X obj 1145 1093 t b b;
#X obj 1147 1479 spigot;
#X msg 1161 1442 0;
#X msg 1190 1442 1;
#X obj 1145 1054 t f f b;
#X obj 1146 1266 f;
#X obj 1146 1246 r \$1-framerate;
#X obj 1147 1344 pack f f s;
#X text 1144 1017 PARAM 6:;
#X msg 1182 1073 16, f 6;
#X msg 1182 1120 send RING 1 5 #e3e3e3 \$1 #000000 250 20 45, f 22;
#X obj 1152 1168 r \$1-param-6-s-post;
#X obj 1202 1227 r \$1-param-6-s;
#X obj 1240 1290 r \$1-param-6-t;
#X msg 1147 1363 send RINGVAL 1 5 \$1 \$2 \$3;
#X msg 1154 1460 1 5 #000000 #000000 center \$1;
#X obj 1404 1209 t b;
#X obj 1404 1189 sel 1;
#X obj 1411 1267 spigot;
#X obj 1354 1037 r \$1-modul-active;
#X obj 1354 1075 sel 1;
#X obj 1356 1500 s display-message;
#X obj 1361 1208 spigot;
#X obj 1405 1309 t b f;
#X obj 1405 1289 i;
#X obj 1355 1230 i;
#X obj 1355 1287 change;
#X obj 1391 1093 text get \$1-modul-settings, f 23;
#X obj 1364 1404 text get \$1-modul-settings, f 28;
#X obj 1364 1423 sel none;
#X obj 1354 1095 t b b;
#X obj 1356 1481 spigot;
#X msg 1370 1444 0;
#X msg 1399 1444 1;
#X obj 1354 1056 t f f b;
#X obj 1355 1268 f;
#X obj 1355 1248 r \$1-framerate;
#X obj 1356 1346 pack f f s;
#X text 1353 1019 PARAM 7:;
#X msg 1391 1075 17, f 6;
#X msg 1391 1122 send RING 2 5 #e3e3e3 \$1 #000000 250 20 45, f 22;
#X obj 1361 1170 r \$1-param-7-s-post;
#X obj 1411 1229 r \$1-param-7-s;
#X obj 1449 1292 r \$1-param-7-t;
#X msg 1356 1365 send RINGVAL 2 5 \$1 \$2 \$3;
#X msg 1363 1462 2 5 #000000 #000000 center \$1;
#X msg 944 1382 5, f 6;
#X msg 1155 1383 6, f 6;
#X msg 1364 1385 7, f 6;
#X obj 1606 1209 t b;
#X obj 1606 1189 sel 1;
#X obj 1613 1267 spigot;
#X obj 1556 1037 r \$1-modul-active;
#X obj 1556 1075 sel 1;
#X obj 1558 1500 s display-message;
#X obj 1563 1208 spigot;
#X obj 1607 1309 t b f;
#X obj 1607 1289 i;
#X obj 1557 1230 i;
#X obj 1557 1287 change;
#X obj 1593 1093 text get \$1-modul-settings, f 23;
#X obj 1566 1404 text get \$1-modul-settings, f 28;
#X obj 1566 1423 sel none;
#X obj 1556 1095 t b b;
#X obj 1558 1481 spigot;
#X msg 1572 1444 0;
#X msg 1601 1444 1;
#X obj 1556 1056 t f f b;
#X obj 1557 1268 f;
#X obj 1557 1248 r \$1-framerate;
#X obj 1558 1346 pack f f s;
#X text 1555 1019 PARAM 7:;
#X msg 1593 1075 18, f 6;
#X msg 1593 1122 send RING 3 5 #e3e3e3 \$1 #000000 250 20 45, f 22;
#X obj 1563 1170 r \$1-param-8-s-post;
#X obj 1613 1229 r \$1-param-8-s;
#X obj 1651 1292 r \$1-param-8-t;
#X msg 1565 1462 3 5 #000000 #000000 center \$1;
#X msg 1558 1365 send RINGVAL 3 5 \$1 \$2 \$3;
#X msg 1566 1385 8, f 6;
#X obj 65 1750 s display-message;
#X obj 93 1623 r \$1-param-9-t;
#X obj 65 1563 r \$1-modul-active;
#X obj 65 1582 sel 1;
#X obj 65 1603 t b b;
#X obj 132 1642 r \$1-param-17-t;
#X obj 295 1749 s display-message;
#X obj 295 1562 r \$1-modul-active;
#X obj 295 1581 sel 1;
#X obj 295 1602 t b b;
#X obj 362 1641 r \$1-param-18-t;
#X obj 505 1750 s display-message;
#X obj 505 1563 r \$1-modul-active;
#X obj 505 1582 sel 1;
#X obj 505 1603 t b b;
#X obj 735 1749 s display-message;
#X obj 735 1562 r \$1-modul-active;
#X obj 735 1581 sel 1;
#X obj 735 1602 t b b;
#X obj 533 1623 r \$1-param-11-t;
#X obj 763 1622 r \$1-param-12-t;
#X obj 572 1642 r \$1-param-19-t;
#X obj 802 1641 r \$1-param-20-t;
#X obj 935 1750 s display-message;
#X obj 935 1563 r \$1-modul-active;
#X obj 935 1582 sel 1;
#X obj 935 1603 t b b;
#X obj 1165 1749 s display-message;
#X obj 1165 1562 r \$1-modul-active;
#X obj 1165 1581 sel 1;
#X obj 1165 1602 t b b;
#X obj 1375 1750 s display-message;
#X obj 1375 1563 r \$1-modul-active;
#X obj 1375 1582 sel 1;
#X obj 1375 1603 t b b;
#X obj 1605 1749 s display-message;
#X obj 1605 1562 r \$1-modul-active;
#X obj 1605 1581 sel 1;
#X obj 1605 1602 t b b;
#X text 933 1540 PARAM 5:;
#X text 1166 1541 PARAM 6:;
#X text 1375 1543 PARAM 7:;
#X text 1603 1543 PARAM 7:;
#X obj 963 1623 r \$1-param-13-t;
#X obj 1193 1622 r \$1-param-14-t;
#X obj 1403 1623 r \$1-param-15-t;
#X obj 1633 1622 r \$1-param-16-t;
#X obj 1002 1642 r \$1-param-21-t;
#X obj 1232 1641 r \$1-param-22-t;
#X obj 1442 1642 r \$1-param-23-t;
#X obj 1672 1641 r \$1-param-24-t;
#X obj -72 1322 hsl 136 16 0 127 0 0 empty empty empty -2 -8 0 10 #fcfcfc #000000 #000000 0 1;
#X obj -100 1453 i;
#X obj -84 1486 pack f f;
#X obj -68 1230 hsl 136 16 0 127 0 0 empty empty empty -2 -8 0 10 #fcfcfc #000000 #000000 0 1;
#X obj -39 1426 i;
#X obj -40 1391 t b f;
#X msg 97 1120 send RING 0 1 #e3e3e3 \$1 #000000 200 20 45, f 22;
#X msg 65 1723 send ARC 0 1 \$2 \$3;
#X msg 295 1723 send ARC 1 1 \$2 \$3;
#X obj 93 1642 t b f;
#X obj 132 1660 t b f;
#X obj 65 1700 pack f f f;
#X obj 323 1641 t b f;
#X obj 362 1659 t b f;
#X obj 295 1699 pack f f f;
#X msg 933 1726 send ARC 0 5 \$2 \$3;
#X obj 935 1700 pack f f f;
#X obj 963 1642 t b f;
#X obj 1002 1660 t b f;
#X obj 505 1700 pack f f f;
#X msg 505 1723 send ARC 2 1 \$2 \$3;
#X obj 735 1699 pack f f f;
#X msg 1165 1723 send ARC 1 5 \$2 \$3;
#X obj 1165 1699 pack f f f;
#X obj 1375 1700 pack f f f;
#X msg 1375 1723 send ARC 2 5 \$2 \$3;
#X msg 1605 1723 send ARC 3 5 \$2 \$3;
#X msg 735 1723 send ARC 3 1 \$2 \$3;
#X obj 1605 1699 pack f f f;
#X obj 323 1622 r \$1-param-9-t;
#X obj 533 1642 t b f;
#X obj 572 1660 t b f;
#X obj 763 1641 t b f;
#X obj 802 1659 t b f;
#X obj 1193 1641 t b f;
#X obj 1232 1659 t b f;
#X obj 1403 1642 t b f;
#X obj 1442 1660 t b f;
#X obj 1633 1641 t b f;
#X obj 1672 1659 t b f;
#X connect 0 0 68 0;
#X connect 1 0 14 0;
#X connect 1 0 68 1;
#X connect 2 0 0 0;
#X connect 3 0 65 0;
#X connect 11 0 12 0;
#X connect 12 0 81 0;
#X connect 14 0 68 0;
#X connect 18 0 92 0;
#X connect 19 0 88 0;
#X connect 21 0 69 0;
#X connect 22 0 21 0;
#X connect 22 0 69 1;
#X connect 23 0 29 0;
#X connect 24 0 23 0;
#X connect 26 0 34 0;
#X connect 29 0 61 0;
#X connect 30 0 35 0;
#X connect 31 0 32 0;
#X connect 32 0 62 0;
#X connect 33 0 31 0;
#X connect 34 0 24 0;
#X connect 34 0 33 0;
#X connect 35 0 34 0;
#X connect 35 1 34 1;
#X connect 37 0 41 1;
#X connect 38 0 25 0;
#X connect 39 0 42 1;
#X connect 40 0 28 0;
#X connect 41 0 38 0;
#X connect 42 0 40 0;
#X connect 43 0 59 0;
#X connect 44 0 43 0;
#X connect 47 0 60 0;
#X connect 48 0 47 0;
#X connect 49 0 44 0;
#X connect 49 0 48 0;
#X connect 50 0 49 0;
#X connect 50 1 49 1;
#X connect 51 0 57 0;
#X connect 52 0 58 0;
#X connect 53 0 51 1;
#X connect 54 0 52 1;
#X connect 55 0 49 0;
#X connect 56 0 50 0;
#X connect 57 0 45 0;
#X connect 58 0 46 0;
#X connect 59 0 63 0;
#X connect 60 0 64 0;
#X connect 61 0 41 0;
#X connect 62 0 42 0;
#X connect 63 0 51 0;
#X connect 64 0 52 0;
#X connect 65 0 80 0;
#X connect 67 0 276 0;
#X connect 67 1 276 1;
#X connect 68 0 67 0;
#X connect 69 0 211 1;
#X connect 70 0 276 0;
#X connect 74 0 468 0;
#X connect 75 0 74 0;
#X connect 76 0 77 0;
#X connect 76 1 83 0;
#X connect 77 0 13 0;
#X connect 78 0 83 2;
#X connect 79 0 78 0;
#X connect 80 0 76 0;
#X connect 80 1 83 1;
#X connect 81 0 3 0;
#X connect 81 1 79 0;
#X connect 82 0 13 0;
#X connect 83 0 82 0;
#X connect 84 0 85 0;
#X connect 85 0 86 0;
#X connect 86 0 87 0;
#X connect 86 0 90 0;
#X connect 86 1 91 0;
#X connect 87 0 20 0;
#X connect 88 0 69 0;
#X connect 88 1 75 0;
#X connect 89 0 20 0;
#X connect 90 0 89 1;
#X connect 91 0 89 1;
#X connect 92 0 19 0;
#X connect 92 1 21 1;
#X connect 92 1 2 0;
#X connect 92 1 14 1;
#X connect 92 2 84 0;
#X connect 93 0 94 0;
#X connect 94 0 100 0;
#X connect 96 0 99 0;
#X connect 97 0 104 0;
#X connect 97 1 101 0;
#X connect 98 0 101 2;
#X connect 99 0 97 0;
#X connect 99 1 101 1;
#X connect 100 0 102 0;
#X connect 100 1 129 0;
#X connect 101 0 103 0;
#X connect 102 0 96 0;
#X connect 103 0 95 0;
#X connect 104 0 95 0;
#X connect 105 0 113 0;
#X connect 106 0 105 0;
#X connect 107 0 113 0;
#X connect 108 0 123 0;
#X connect 109 0 119 0;
#X connect 111 0 114 0;
#X connect 112 0 278 0;
#X connect 112 1 278 1;
#X connect 113 0 112 0;
#X connect 114 0 216 1;
#X connect 115 0 278 0;
#X connect 116 0 124 0;
#X connect 117 0 118 0;
#X connect 118 0 125 0;
#X connect 118 0 121 0;
#X connect 118 1 122 0;
#X connect 119 0 114 0;
#X connect 119 1 130 0;
#X connect 120 0 110 0;
#X connect 121 0 120 1;
#X connect 122 0 120 1;
#X connect 123 0 109 0;
#X connect 123 1 111 1;
#X connect 123 1 106 0;
#X connect 123 1 107 1;
#X connect 123 2 128 0;
#X connect 124 0 120 0;
#X connect 125 0 110 0;
#X connect 126 0 111 0;
#X connect 126 0 114 1;
#X connect 127 0 107 0;
#X connect 127 0 113 1;
#X connect 128 0 117 0;
#X connect 129 0 98 0;
#X connect 130 0 116 0;
#X connect 131 0 132 0;
#X connect 132 0 138 0;
#X connect 134 0 137 0;
#X connect 135 0 142 0;
#X connect 135 1 139 0;
#X connect 136 0 139 2;
#X connect 137 0 135 0;
#X connect 137 1 139 1;
#X connect 138 0 141 0;
#X connect 138 1 140 0;
#X connect 139 0 143 0;
#X connect 140 0 136 0;
#X connect 141 0 134 0;
#X connect 142 0 133 0;
#X connect 143 0 133 0;
#X connect 144 0 152 0;
#X connect 145 0 144 0;
#X connect 146 0 152 0;
#X connect 147 0 162 0;
#X connect 148 0 158 0;
#X connect 150 0 153 0;
#X connect 151 0 280 0;
#X connect 151 1 280 1;
#X connect 152 0 151 0;
#X connect 153 0 218 1;
#X connect 154 0 280 0;
#X connect 155 0 164 0;
#X connect 156 0 157 0;
#X connect 157 0 165 0;
#X connect 157 0 160 0;
#X connect 157 1 161 0;
#X connect 158 0 153 0;
#X connect 158 1 163 0;
#X connect 159 0 149 0;
#X connect 160 0 159 1;
#X connect 161 0 159 1;
#X connect 162 0 148 0;
#X connect 162 1 150 1;
#X connect 162 1 145 0;
#X connect 162 1 146 1;
#X connect 162 2 208 0;
#X connect 163 0 155 0;
#X connect 164 0 159 0;
#X connect 165 0 149 0;
#X connect 166 0 150 0;
#X connect 166 0 153 1;
#X connect 167 0 146 0;
#X connect 167 0 152 1;
#X connect 168 0 169 0;
#X connect 169 0 175 0;
#X connect 171 0 174 0;
#X connect 172 0 179 0;
#X connect 172 1 176 0;
#X connect 173 0 176 2;
#X connect 174 0 172 0;
#X connect 174 1 176 1;
#X connect 175 0 180 0;
#X connect 175 1 177 0;
#X connect 176 0 178 0;
#X connect 177 0 173 0;
#X connect 178 0 170 0;
#X connect 179 0 170 0;
#X connect 180 0 171 0;
#X connect 183 0 191 0;
#X connect 184 0 183 0;
#X connect 185 0 191 0;
#X connect 186 0 201 0;
#X connect 187 0 197 0;
#X connect 189 0 192 0;
#X connect 190 0 282 0;
#X connect 190 1 282 1;
#X connect 191 0 190 0;
#X connect 192 0 220 1;
#X connect 193 0 282 0;
#X connect 194 0 204 0;
#X connect 195 0 196 0;
#X connect 196 0 207 0;
#X connect 196 0 199 0;
#X connect 196 1 200 0;
#X connect 197 0 192 0;
#X connect 197 1 203 0;
#X connect 198 0 188 0;
#X connect 199 0 198 1;
#X connect 200 0 198 1;
#X connect 201 0 187 0;
#X connect 201 1 189 1;
#X connect 201 1 184 0;
#X connect 201 1 185 1;
#X connect 201 2 209 0;
#X connect 203 0 194 0;
#X connect 204 0 198 0;
#X connect 205 0 189 0;
#X connect 205 0 192 1;
#X connect 206 0 185 0;
#X connect 206 0 191 1;
#X connect 207 0 188 0;
#X connect 208 0 156 0;
#X connect 209 0 195 0;
#X connect 211 0 70 0;
#X connect 212 0 211 0;
#X connect 213 0 214 1;
#X connect 213 0 222 0;
#X connect 214 0 215 0;
#X connect 216 0 115 0;
#X connect 217 0 216 0;
#X connect 218 0 154 0;
#X connect 219 0 218 0;
#X connect 220 0 193 0;
#X connect 221 0 220 0;
#X connect 222 0 214 0;
#X connect 223 0 224 0;
#X connect 224 0 230 0;
#X connect 226 0 229 0;
#X connect 227 0 274 0;
#X connect 227 1 231 0;
#X connect 228 0 231 2;
#X connect 229 0 227 0;
#X connect 229 1 231 1;
#X connect 230 0 233 0;
#X connect 230 1 232 0;
#X connect 231 0 273 0;
#X connect 232 0 228 0;
#X connect 233 0 226 0;
#X connect 234 0 235 0;
#X connect 235 0 241 0;
#X connect 237 0 240 0;
#X connect 238 0 246 0;
#X connect 238 1 242 0;
#X connect 239 0 242 2;
#X connect 240 0 238 0;
#X connect 240 1 242 1;
#X connect 241 0 244 0;
#X connect 241 1 243 0;
#X connect 242 0 245 0;
#X connect 243 0 239 0;
#X connect 244 0 237 0;
#X connect 245 0 236 0;
#X connect 246 0 236 0;
#X connect 247 0 248 0;
#X connect 248 0 254 0;
#X connect 250 0 253 0;
#X connect 251 0 259 0;
#X connect 251 1 255 0;
#X connect 252 0 255 2;
#X connect 253 0 251 0;
#X connect 253 1 255 1;
#X connect 254 0 256 0;
#X connect 254 1 257 0;
#X connect 255 0 258 0;
#X connect 256 0 250 0;
#X connect 257 0 252 0;
#X connect 258 0 249 0;
#X connect 259 0 249 0;
#X connect 260 0 261 0;
#X connect 261 0 267 0;
#X connect 263 0 266 0;
#X connect 264 0 272 0;
#X connect 264 1 268 0;
#X connect 265 0 268 2;
#X connect 266 0 264 0;
#X connect 266 1 268 1;
#X connect 267 0 269 0;
#X connect 267 1 270 0;
#X connect 268 0 271 0;
#X connect 269 0 263 0;
#X connect 270 0 265 0;
#X connect 271 0 262 0;
#X connect 272 0 262 0;
#X connect 273 0 225 0;
#X connect 274 0 225 0;
#X connect 275 0 89 0;
#X connect 276 0 275 0;
#X connect 277 0 276 2;
#X connect 278 0 284 0;
#X connect 279 0 278 2;
#X connect 280 0 285 0;
#X connect 281 0 280 2;
#X connect 282 0 286 0;
#X connect 283 0 282 2;
#X connect 284 0 120 0;
#X connect 285 0 159 0;
#X connect 286 0 198 0;
#X connect 287 0 295 0;
#X connect 288 0 287 0;
#X connect 289 0 295 0;
#X connect 290 0 305 0;
#X connect 291 0 301 0;
#X connect 293 0 296 0;
#X connect 294 0 308 0;
#X connect 294 1 308 1;
#X connect 295 0 294 0;
#X connect 296 0 306 1;
#X connect 297 0 308 0;
#X connect 298 0 310 0;
#X connect 299 0 300 0;
#X connect 300 0 316 0;
#X connect 300 0 303 0;
#X connect 300 1 304 0;
#X connect 301 0 296 0;
#X connect 301 1 311 0;
#X connect 302 0 292 0;
#X connect 303 0 302 1;
#X connect 304 0 302 1;
#X connect 305 0 291 0;
#X connect 305 1 293 1;
#X connect 305 1 288 0;
#X connect 305 1 289 1;
#X connect 305 2 377 0;
#X connect 306 0 297 0;
#X connect 307 0 306 0;
#X connect 308 0 315 0;
#X connect 310 0 302 0;
#X connect 311 0 298 0;
#X connect 312 0 293 0;
#X connect 312 0 296 1;
#X connect 313 0 289 0;
#X connect 313 0 295 1;
#X connect 314 0 308 2;
#X connect 315 0 302 0;
#X connect 316 0 292 0;
#X connect 317 0 325 0;
#X connect 318 0 317 0;
#X connect 319 0 325 0;
#X connect 320 0 335 0;
#X connect 321 0 331 0;
#X connect 323 0 326 0;
#X connect 324 0 338 0;
#X connect 324 1 338 1;
#X connect 325 0 324 0;
#X connect 326 0 336 1;
#X connect 327 0 338 0;
#X connect 328 0 341 0;
#X connect 329 0 330 0;
#X connect 330 0 346 0;
#X connect 330 0 333 0;
#X connect 330 1 334 0;
#X connect 331 0 326 0;
#X connect 331 1 340 0;
#X connect 332 0 322 0;
#X connect 333 0 332 1;
#X connect 334 0 332 1;
#X connect 335 0 321 0;
#X connect 335 1 323 1;
#X connect 335 1 318 0;
#X connect 335 1 319 1;
#X connect 335 2 378 0;
#X connect 336 0 327 0;
#X connect 337 0 336 0;
#X connect 338 0 345 0;
#X connect 340 0 328 0;
#X connect 341 0 332 0;
#X connect 342 0 323 0;
#X connect 342 0 326 1;
#X connect 343 0 319 0;
#X connect 343 0 325 1;
#X connect 344 0 338 2;
#X connect 345 0 332 0;
#X connect 346 0 322 0;
#X connect 347 0 355 0;
#X connect 348 0 347 0;
#X connect 349 0 355 0;
#X connect 350 0 365 0;
#X connect 351 0 361 0;
#X connect 353 0 356 0;
#X connect 354 0 368 0;
#X connect 354 1 368 1;
#X connect 355 0 354 0;
#X connect 356 0 366 1;
#X connect 357 0 368 0;
#X connect 358 0 371 0;
#X connect 359 0 360 0;
#X connect 360 0 376 0;
#X connect 360 0 363 0;
#X connect 360 1 364 0;
#X connect 361 0 356 0;
#X connect 361 1 370 0;
#X connect 362 0 352 0;
#X connect 363 0 362 1;
#X connect 364 0 362 1;
#X connect 365 0 351 0;
#X connect 365 1 353 1;
#X connect 365 1 348 0;
#X connect 365 1 349 1;
#X connect 365 2 379 0;
#X connect 366 0 357 0;
#X connect 367 0 366 0;
#X connect 368 0 375 0;
#X connect 370 0 358 0;
#X connect 371 0 362 0;
#X connect 372 0 353 0;
#X connect 372 0 356 1;
#X connect 373 0 349 0;
#X connect 373 0 355 1;
#X connect 374 0 368 2;
#X connect 375 0 362 0;
#X connect 376 0 352 0;
#X connect 377 0 299 0;
#X connect 378 0 329 0;
#X connect 379 0 359 0;
#X connect 380 0 388 0;
#X connect 381 0 380 0;
#X connect 382 0 388 0;
#X connect 383 0 398 0;
#X connect 384 0 394 0;
#X connect 386 0 389 0;
#X connect 387 0 401 0;
#X connect 387 1 401 1;
#X connect 388 0 387 0;
#X connect 389 0 399 1;
#X connect 390 0 401 0;
#X connect 391 0 404 0;
#X connect 392 0 393 0;
#X connect 393 0 408 0;
#X connect 393 0 396 0;
#X connect 393 1 397 0;
#X connect 394 0 389 0;
#X connect 394 1 403 0;
#X connect 395 0 385 0;
#X connect 396 0 395 1;
#X connect 397 0 395 1;
#X connect 398 0 384 0;
#X connect 398 1 386 1;
#X connect 398 1 381 0;
#X connect 398 1 382 1;
#X connect 398 2 410 0;
#X connect 399 0 390 0;
#X connect 400 0 399 0;
#X connect 401 0 409 0;
#X connect 403 0 391 0;
#X connect 404 0 395 0;
#X connect 405 0 386 0;
#X connect 405 0 389 1;
#X connect 406 0 382 0;
#X connect 406 0 388 1;
#X connect 407 0 401 2;
#X connect 408 0 385 0;
#X connect 409 0 395 0;
#X connect 410 0 392 0;
#X connect 412 0 471 0;
#X connect 413 0 414 0;
#X connect 414 0 415 0;
#X connect 415 0 473 0;
#X connect 416 0 472 0;
#X connect 418 0 419 0;
#X connect 419 0 420 0;
#X connect 420 0 476 0;
#X connect 421 0 475 0;
#X connect 423 0 424 0;
#X connect 424 0 425 0;
#X connect 425 0 481 0;
#X connect 427 0 428 0;
#X connect 428 0 429 0;
#X connect 429 0 483 0;
#X connect 430 0 492 0;
#X connect 431 0 494 0;
#X connect 432 0 493 0;
#X connect 433 0 495 0;
#X connect 435 0 436 0;
#X connect 436 0 437 0;
#X connect 437 0 478 0;
#X connect 439 0 440 0;
#X connect 440 0 441 0;
#X connect 441 0 485 0;
#X connect 443 0 444 0;
#X connect 444 0 445 0;
#X connect 445 0 486 0;
#X connect 447 0 448 0;
#X connect 448 0 449 0;
#X connect 449 0 490 0;
#X connect 454 0 479 0;
#X connect 455 0 496 0;
#X connect 456 0 498 0;
#X connect 457 0 500 0;
#X connect 458 0 480 0;
#X connect 459 0 497 0;
#X connect 460 0 499 0;
#X connect 461 0 501 0;
#X connect 462 0 463 0;
#X connect 462 0 471 0;
#X connect 463 0 464 0;
#X connect 465 0 467 0;
#X connect 466 0 464 1;
#X connect 467 0 464 0;
#X connect 467 1 466 0;
#X connect 468 0 89 0;
#X connect 469 0 411 0;
#X connect 470 0 417 0;
#X connect 471 0 473 0;
#X connect 471 1 473 1;
#X connect 472 0 473 0;
#X connect 472 1 473 2;
#X connect 473 0 469 0;
#X connect 474 0 476 0;
#X connect 474 1 476 1;
#X connect 475 0 476 0;
#X connect 475 1 476 2;
#X connect 476 0 470 0;
#X connect 477 0 434 0;
#X connect 478 0 477 0;
#X connect 479 0 478 0;
#X connect 479 1 478 1;
#X connect 480 0 478 0;
#X connect 480 1 478 2;
#X connect 481 0 482 0;
#X connect 482 0 422 0;
#X connect 483 0 489 0;
#X connect 484 0 438 0;
#X connect 485 0 484 0;
#X connect 486 0 487 0;
#X connect 487 0 442 0;
#X connect 488 0 446 0;
#X connect 489 0 426 0;
#X connect 490 0 488 0;
#X connect 491 0 474 0;
#X connect 492 0 481 0;
#X connect 492 1 481 1;
#X connect 493 0 481 0;
#X connect 493 1 481 2;
#X connect 494 0 483 0;
#X connect 494 1 483 1;
#X connect 495 0 483 0;
#X connect 495 1 483 2;
#X connect 496 0 485 0;
#X connect 496 1 485 1;
#X connect 497 0 485 0;
#X connect 497 1 485 2;
#X connect 498 0 486 0;
#X connect 498 1 486 1;
#X connect 499 0 486 0;
#X connect 499 1 486 2;
#X connect 500 0 490 0;
#X connect 500 1 490 1;
#X connect 501 0 490 0;
#X connect 501 1 490 2;
#X coords 0 847 1 846 220 120 0;
