#N canvas 0 25 1440 788 10;
#X declare -path ../000-SAMPLE-LIBRARY;
#X declare -path ../patch_editor_abs;
#X declare -path ../patch_editor_abs/test;
#X declare -path ../patch_editor_abs/controller;
#X declare -path ../patch_editor_abs/airwindows;
#X obj 2 59 diet-clock 1;
#X obj 204 61 diet-drum-seq 2;
#X obj 725 390 cmbcym;
#X obj -8 783 diet-audio-to-mixer 34;
#X obj 213 895 diet-audio-to-mixer 35;
#X obj 213 792 diet-saturation 26;
#X obj 437 777 diet-audio-to-mixer 36;
#X obj 725 663 diet-audio-to-mixer 38;
#X obj 949 675 diet-audio-to-mixer 39;
#X obj 1622 730 diet-audio-to-mixer 40;
#X obj 437 503 diet-simpler 1;
#X obj 1623 386 diet-looper 1;
#X obj 1623 650 mixer2 6;
#X obj 213 503 diet-simpler 3;
#X obj -11 503 synth-kick 31;
#X obj 2 7 menu;
#N canvas 295 320 673 298 do-not-delete 0;
#X obj 46 10 declare -path ../000-SAMPLE-LIBRARY;
#X obj 46 29 declare -path ../patch_editor_abs;
#X obj 46 49 declare -path ../patch_editor_abs/test;
#X obj 46 -8 declare -path ../patch_editor_abs/controller;
#X obj 367 35 pdcontrol;
#X msg 367 17 dir;
#X obj 367 53 pack s;
#X obj 367 72 s patch-path;
#X obj 367 -4 r update-path;
#X obj 425 15 loadbang;
#X obj 46 69 declare -path ../patch_editor_abs/airwindows;
#X obj 105 113 cnv 5 5 5 empty empty NOT_DELETE 0 0 0 12 #fcfcfc #404040 0;
#X connect 4 0 6 0;
#X connect 5 0 4 0;
#X connect 6 0 7 0;
#X connect 8 0 5 0;
#X connect 9 0 5 0;
#X coords 0 -1 1 1 85 50 2 100 100;
#X restore 854 7 pd do-not-delete;
#X obj 1173 387 mymembrane 37;
#X obj 1398 387 mymembrane 38;
#X obj 1173 661 diet-audio-to-mixer 41;
#X obj 1398 661 diet-audio-to-mixer 42;
#X obj 1623 542 diet-saturation 28;
#X obj 949 388 fmperc;
#X obj 905 61 mymembrane-kick 1;
#X obj 712 61 basic-lfo 21;
#X obj 1518 129 diet-looper 2;
#X obj -12 392 basic-lfo 22;
#X obj 445 379 basic-lfo 23;
#X connect 0 0 1 0;
#X connect 0 2 1 1;
#X connect 0 3 1 4;
#X connect 0 3 11 1;
#X connect 1 0 14 0;
#X connect 1 1 13 0;
#X connect 1 2 10 0;
#X connect 1 3 2 0;
#X connect 1 4 22 0;
#X connect 1 5 17 0;
#X connect 1 6 18 0;
#X connect 1 7 11 0;
#X connect 2 0 7 0;
#X connect 5 0 4 0;
#X connect 10 0 6 0;
#X connect 11 0 21 0;
#X connect 12 1 9 0;
#X connect 13 0 5 0;
#X connect 14 0 3 0;
#X connect 17 0 19 0;
#X connect 18 0 20 0;
#X connect 21 0 12 0;
#X connect 22 0 8 0;
#X connect 24 1 17 1;
#X connect 24 3 18 1;
#X connect 24 3 18 2;
#X connect 26 0 14 1;
#X connect 26 0 14 4;
#X connect 27 0 10 1;
