#N canvas 0 25 1440 847 10;
#X declare -path ../000-SAMPLE-LIBRARY;
#X declare -path ../patch_editor_abs;
#X declare -path ../patch_editor_abs/test;
#X declare -path ../patch_editor_abs/controller;
#X declare -path ../patch_editor_abs/airwindows;
#X declare -path ../patch_editor_abs/drums;
#X declare -path ../patch_editor_abs/mixer;
#X declare -path ../patch_editor_abs/sequencers;
#X declare -path ../patch_editor_abs/effects;
#X declare -path ../patch_editor_abs/utility;
#X declare -path ../patch_editor_abs/filters;
#X declare -path ../patch_editor_abs/reverbs;
#X declare -path ../patch_editor_abs/modifier;
#X declare -path ../patch_editor_abs/looper;
#X declare -path ../patch_editor_abs/sequencers/rhythm-designer;
#X declare -path ../patch_editor_abs/drums/simple-hats;
#X declare -path ../patch_editor_abs/drums/cmbcym;
#X declare -path ../patch_editor_abs/drums/fmperc;
#X declare -path ../patch_editor_abs/utility/scene-conductor;
#X declare -path ../patch_editor_abs/effects/delay;
#X declare -path ../patch_editor_abs/sequencers/mono-rhythm;
#X obj 671 1055 cmbcym;
#X obj 2 1330 diet-audio-to-mixer 34;
#X obj 1408 1126 diet-saturation 26;
#X obj 449 1329 diet-audio-to-mixer 36;
#X obj 671 1329 diet-audio-to-mixer 38;
#X obj 895 1299 diet-audio-to-mixer 39;
#X obj 1554 950 diet-audio-to-mixer 40;
#X obj 1795 523 diet-looper 1;
#X obj 1795 782 mixer2 6;
#X obj 2 1053 synth-kick 31;
#X obj 88 7 menu;
#N canvas 279 183 879 631 do-not-delete 0;
#X obj 100 182 declare -path ../000-SAMPLE-LIBRARY;
#X obj 100 201 declare -path ../patch_editor_abs;
#X obj 100 239 declare -path ../patch_editor_abs/test;
#X obj 100 220 declare -path ../patch_editor_abs/controller;
#X obj 491 105 pdcontrol;
#X msg 491 87 dir;
#X obj 491 125 pack s;
#X obj 491 144 s patch-path;
#X obj 491 67 r update-path;
#X obj 549 85 loadbang;
#X obj 100 258 declare -path ../patch_editor_abs/airwindows;
#X obj 105 163 cnv 5 5 5 empty empty NOT_DELETE 0 0 0 12 #fcfcfc #404040 0;
#X obj 100 278 declare -path ../patch_editor_abs/drums;
#X obj 100 358 declare -path ../patch_editor_abs/mixer;
#X obj 100 378 declare -path ../patch_editor_abs/sequencers;
#X obj 100 438 declare -path ../patch_editor_abs/effects;
#X obj 100 478 declare -path ../patch_editor_abs/utility;
#X obj 100 518 declare -path ../patch_editor_abs/filters;
#X obj 100 538 declare -path ../patch_editor_abs/reverbs;
#X obj 100 558 declare -path ../patch_editor_abs/modifier;
#X obj 100 578 declare -path ../patch_editor_abs/looper;
#X obj 105 113 cnv 5 5 5 empty empty MOLIPE 0 0 0 18 #fcfcfc #404040 0;
#X obj 110 398 declare -path ../patch_editor_abs/sequencers/rhythm-designer;
#X obj 110 298 declare -path ../patch_editor_abs/drums/simple-hats;
#X obj 110 318 declare -path ../patch_editor_abs/drums/cmbcym;
#X obj 110 338 declare -path ../patch_editor_abs/drums/fmperc;
#X obj 110 498 declare -path ../patch_editor_abs/utility/scene-conductor;
#X obj 110 458 declare -path ../patch_editor_abs/effects/delay;
#X obj 110 418 declare -path ../patch_editor_abs/sequencers/mono-rhythm;
#X connect 4 0 6 0;
#X connect 5 0 4 0;
#X connect 6 0 7 0;
#X connect 8 0 5 0;
#X connect 9 0 5 0;
#X coords 0 -1 1 1 85 70 2 100 100;
#X restore 1 6 pd do-not-delete;
#X obj 225 1053 mymembrane 38;
#X obj 1344 799 diet-audio-to-mixer 41;
#X obj 225 1329 diet-audio-to-mixer 42;
#X obj 1795 679 diet-saturation 28;
#X obj 226 818 basic-lfo 21;
#X obj 1441 11 diet-looper 2;
#X obj 2 937 basic-lfo 22;
#X obj 448 932 basic-lfo 23;
#X obj 1407 1005 perk-clap-mod;
#X obj 1442 172 rhythm-designer 2;
#X obj 449 1055 simple-hats 1;
#X obj 225 933 basic-lfo 24;
#X obj 1196 5 scene-conductor;
#X obj 1354 649 catch~ send1;
#X obj 1345 499 catch~ send2;
#X obj 1345 521 stereo-delay 6;
#X obj 672 942 basic-lfo 25;
#X obj 1624 11 basic-lfo 26;
#X obj 1354 678 millerverb 3;
#X obj 895 1228 clipper 3;
#X obj 1118 1296 diet-audio-to-mixer 43;
#X obj 1118 1225 clipper 3;
#X obj 1118 953 fmperc 1;
#X obj 895 954 fmperc 0;
#X obj 453 132 mono-rhythm 1;
#X obj 231 132 mono-rhythm 2;
#X obj 2 817 basic-lfo 1;
#X obj 4 559 mute-group 1;
#X obj 35 622 repeater-group 1;
#X obj 5 132 mono-rhythm 3;
#X obj 679 131 mono-rhythm 4;
#X connect 0 0 4 0;
#X connect 7 0 15 0;
#X connect 8 1 6 0;
#X connect 9 0 1 0;
#X connect 10 0 36 0;
#X connect 10 0 37 0;
#X connect 10 0 41 0;
#X connect 10 0 42 0;
#X connect 10 3 7 1;
#X connect 10 3 42 1;
#X connect 10 3 36 1;
#X connect 10 3 37 1;
#X connect 10 3 41 1;
#X connect 12 0 14 0;
#X connect 15 0 8 0;
#X connect 18 1 9 4;
#X connect 19 0 22 1;
#X connect 19 0 9 7;
#X connect 19 3 22 2;
#X connect 22 0 3 0;
#X connect 25 0 30 0;
#X connect 26 0 27 0;
#X connect 27 0 13 0;
#X connect 27 1 6 0;
#X connect 28 3 0 2;
#X connect 30 0 13 0;
#X connect 30 1 6 0;
#X connect 31 0 5 0;
#X connect 33 0 32 0;
#X connect 34 0 33 0;
#X connect 35 0 31 0;
#X connect 36 0 39 2;
#X connect 37 0 39 1;
#X connect 39 0 40 0;
#X connect 39 1 40 1;
#X connect 39 2 22 0;
#X connect 39 2 0 0;
#X connect 40 0 9 0;
#X connect 40 1 12 0;
#X connect 41 0 39 0;
