#N canvas 29 25 1440 847 10;
#X declare -path ../000-SAMPLE-LIBRARY;
#X declare -path ../patch_editor_abs;
#X declare -path ../patch_editor_abs/test;
#X declare -path ../patch_editor_abs/controller;
#X declare -path ../patch_editor_abs/airwindows;
#X declare -path ../patch_editor_abs/drums;
#X declare -path ../patch_editor_abs/mixer;
#X declare -path ../patch_editor_abs/sequencers;
#X declare -path ../patch_editor_abs/effects;
#X declare -path ../patch_editor_abs/utility;
#X declare -path ../patch_editor_abs/filters;
#X declare -path ../patch_editor_abs/reverbs;
#X declare -path ../patch_editor_abs/modifier;
#X declare -path ../patch_editor_abs/looper;
#X declare -path ../patch_editor_abs/sequencers/rhythm-designer;
#X declare -path ../patch_editor_abs/drums/simple-hats;
#X declare -path ../patch_editor_abs/drums/cmbcym;
#X declare -path ../patch_editor_abs/drums/fmperc;
#X declare -path ../patch_editor_abs/utility/scene-conductor;
#X declare -path ../patch_editor_abs/effects/delay;
#X declare -path ../patch_editor_abs/sequencers/mono-rhythm;
#X declare -path ../patch_editor_abs/shared-objects;
#X declare -path ../patch_editor_abs/core;
#X obj 664 916 cmbcym;
#X obj 2 1486 diet-audio-to-mixer 34;
#X obj 1959 1022 diet-saturation 26;
#X obj 447 1486 diet-audio-to-mixer 36;
#X obj 668 1487 diet-audio-to-mixer 38;
#X obj 891 1487 diet-audio-to-mixer 39;
#X obj 1790 1500 diet-audio-to-mixer 40;
#X obj 1344 914 diet-looper 1;
#X obj 1968 833 mixer2 6;
#X obj 1563 49 menu;
#N canvas 279 183 979 649 do-not-delete 0;
#X obj 484 291 pdcontrol;
#X msg 484 273 dir;
#X obj 484 311 pack s;
#X obj 484 330 s patch-path;
#X obj 484 253 r update-path;
#X obj 542 271 loadbang;
#X obj 316 128 cnv 5 5 5 empty empty //////\ DO_NOT_DELETE\ ///////// 0 0 0 12 #fcfcfc #404040 0;
#X obj 105 120 cnv 5 5 5 empty empty MOLIPE_01 0 0 0 38 #fcfcfc #404040 0;
#X obj 100 232 declare -path ../000-SAMPLE-LIBRARY;
#X obj 100 251 declare -path ../patch_editor_abs;
#X obj 100 289 declare -path ../patch_editor_abs/test;
#X obj 100 270 declare -path ../patch_editor_abs/controller;
#X obj 100 308 declare -path ../patch_editor_abs/airwindows;
#X obj 100 328 declare -path ../patch_editor_abs/drums;
#X obj 100 408 declare -path ../patch_editor_abs/mixer;
#X obj 100 428 declare -path ../patch_editor_abs/sequencers;
#X obj 100 488 declare -path ../patch_editor_abs/effects;
#X obj 100 528 declare -path ../patch_editor_abs/utility;
#X obj 100 568 declare -path ../patch_editor_abs/filters;
#X obj 100 588 declare -path ../patch_editor_abs/reverbs;
#X obj 100 608 declare -path ../patch_editor_abs/modifier;
#X obj 100 628 declare -path ../patch_editor_abs/looper;
#X obj 110 448 declare -path ../patch_editor_abs/sequencers/rhythm-designer;
#X obj 110 348 declare -path ../patch_editor_abs/drums/simple-hats;
#X obj 110 368 declare -path ../patch_editor_abs/drums/cmbcym;
#X obj 110 388 declare -path ../patch_editor_abs/drums/fmperc;
#X obj 110 548 declare -path ../patch_editor_abs/utility/scene-conductor;
#X obj 110 508 declare -path ../patch_editor_abs/effects/delay;
#X obj 110 468 declare -path ../patch_editor_abs/sequencers/mono-rhythm;
#X obj 100 648 declare -path ../patch_editor_abs/shared-objects;
#X obj 100 668 declare -path ../patch_editor_abs/core;
#X obj 316 112 cnv 5 5 5 empty empty /////////////// 0 0 0 12 #fcfcfc #404040 0;
#X connect 0 0 2 0;
#X connect 1 0 0 0;
#X connect 2 0 3 0;
#X connect 4 0 1 0;
#X connect 5 0 1 0;
#X coords 0 -1 1 1 1780 40 2 100 100;
#X restore 4 3 pd do-not-delete;
#X obj 222 911 mymembrane 38;
#X obj 1567 1500 diet-audio-to-mixer 41;
#X obj 225 1485 diet-audio-to-mixer 42;
#X obj 1968 732 diet-saturation 28;
#X obj 1120 918 perk-clap-mod;
#X obj 438 914 simple-hats 1;
#X obj 1339 49 scene-conductor;
#X obj 1570 1205 catch~ send1;
#X obj 1567 913 catch~ send2;
#X obj 1567 933 stereo-delay 6;
#X obj 1569 1223 millerverb 3;
#X obj 2002 635 clipper 3;
#X obj 1117 1482 diet-audio-to-mixer 43;
#X obj 888 919 fmperc 0;
#X obj 450 47 mono-rhythm 1;
#X obj 227 47 mono-rhythm 2;
#X obj 5 373 mute-group 1;
#X obj 4 426 repeater-group 1;
#X obj 4 47 mono-rhythm 3;
#X obj 672 48 mono-rhythm 4;
#X obj 2 527 basic-lfo 1;
#X obj 2 719 basic-lfo 2;
#X obj 222 527 basic-lfo 3;
#X obj 222 719 basic-lfo 4;
#X obj 438 530 basic-lfo 5;
#X obj 438 722 basic-lfo 6;
#X obj 665 530 basic-lfo 7;
#X obj 664 722 basic-lfo 8;
#X obj 889 530 basic-lfo 9;
#X obj 889 724 basic-lfo 10;
#X obj 1121 529 basic-lfo 11;
#X obj 1121 722 basic-lfo 12;
#X obj 1344 528 basic-lfo 13;
#X obj 1344 721 basic-lfo 14;
#X obj 2 911 synth-kick2 1;
#X obj 894 49 mono-rhythm 5;
#X obj 1116 49 mono-rhythm 6;
#X obj 2 1191 channel 1;
#X obj 223 1191 channel 2;
#X obj 446 1192 channel 3;
#X obj 668 1191 channel 4;
#X obj 890 1191 channel 5;
#X obj 1116 1188 channel 6;
#X obj 1568 529 basic-lfo 15;
#X obj 1567 722 basic-lfo 16;
#X obj 1342 1188 channel 7;
#X connect 0 0 51 0;
#X connect 11 0 49 0;
#X connect 14 0 8 0;
#X connect 15 0 53 0;
#X connect 16 0 50 0;
#X connect 18 0 21 0;
#X connect 19 0 20 0;
#X connect 20 0 12 0;
#X connect 20 1 6 0;
#X connect 21 0 12 0;
#X connect 21 1 6 0;
#X connect 24 0 52 0;
#X connect 25 0 27 2;
#X connect 26 0 27 1;
#X connect 27 0 28 0;
#X connect 27 1 28 1;
#X connect 27 2 28 2;
#X connect 27 3 28 3;
#X connect 27 4 28 4;
#X connect 28 0 45 0;
#X connect 28 1 11 0;
#X connect 28 2 16 0;
#X connect 28 3 0 0;
#X connect 28 3 24 0;
#X connect 28 4 15 0;
#X connect 29 0 27 0;
#X connect 30 0 27 3;
#X connect 31 0 45 1;
#X connect 32 0 45 2;
#X connect 33 0 11 1;
#X connect 34 0 11 2;
#X connect 35 0 16 1;
#X connect 36 0 16 2;
#X connect 37 0 0 1;
#X connect 38 0 0 2;
#X connect 39 0 24 1;
#X connect 40 0 24 2;
#X connect 45 0 48 0;
#X connect 46 0 27 4;
#X connect 48 0 1 0;
#X connect 49 0 13 0;
#X connect 50 0 3 0;
#X connect 51 0 4 0;
#X connect 52 0 5 0;
#X connect 53 0 23 0;
#X connect 54 0 20 1;
#X connect 55 0 20 2;
