#N canvas 78 36 1260 678 10;
#X obj 222 145 tgl 15 1 \$0-clock-on-off-s \$0-clock-on-off-r ON/OFF 17 7 0 10 #fcfcfc #000000 #000000 0 1;
#X obj 328 277 metro 100;
#X obj 107 126 hsl 128 15 0 127 0 1 \$0-clock-clk-rate-s \$0-clock-clk-rate-r RATE 133 7 0 10 #fcfcfc #000000 #000000 8900 1;
#X floatatom 105 144 5 0 0 1 BPM - - 10;
#X obj 110 328 / 127;
#X obj 110 466 t f f;
#X obj 204 145 bng 15 50 50 0 empty empty empty 17 7 0 10 #fcfcfc #dc4c90 #000000;
#X obj 328 299 t b b;
#X obj 151 115 cnv 5 5 5 empty empty DIET-CLOCK 0 0 0 12 #fcfcfc #404040 0;
#X obj 320 48 inlet~;
#X obj 553 39 inlet~;
#X obj 320 120 snapshot~;
#X obj 320 171 t b f;
#X obj 110 350 +;
#X text 319 24 CLK-RATE CV INPUT;
#X text 556 20 ON/OFF GATE INPUT;
#X obj 244 109 cnv 5 5 5 empty empty ON/OFF 0 0 0 8 #fcfcfc #dc4c90 0;
#X obj 105 109 cnv 5 5 5 empty empty CLK-RATE 0 0 0 8 #fcfcfc #404040 0;
#N canvas 21 25 1047 747 state-saving-multiple-instances 0;
#X obj 215 28 loadbang;
#X obj 609 505 textfile;
#X msg 936 488 rewind;
#X msg 893 488 bang;
#X obj 119 690 textfile;
#X obj 893 449 t b b;
#X obj 120 356 f;
#X obj 350 495 f;
#X obj 66 422 t b b b;
#X msg -4 565 clear;
#X obj 281 216 outlet;
#X text 277 236 INSTANCE NUMBER;
#X obj 242 92 f \$1;
#X obj 242 141 t f f f;
#X obj 66 331 bng 15 250 50 0 empty empty empty 17 7 0 10 #fcfcfc #000000 #000000;
#X obj 66 235 r SAVE-S;
#X obj 135 308 r \$0-clock-clk-rate-s;
#X obj 609 583 s \$0-clock-clk-rate-r;
#X obj 150 338 r \$0-clock-on/off-s;
#X obj 643 565 s \$0-clock-on/off-r;
#X msg 844 76 read statesave/\$1-diet-clock-ss.txt;
#X msg 350 516 write statesave/\$1-diet-clock-ss.txt;
#X obj 665 326 r patch-path;
#X msg 609 385 read /Users/johannklug/Documents/Bass\ Dieter/2025/Diet/MODULAR_LIVE_\ PERFORMER/patch1/statesave/1-diet-clock-ss.txt;
#X obj 620 345 pack f s;
#X obj 609 304 f;
#X obj 609 325 t b f;
#X msg 619 364 set read \$2/statesave/\$1-diet-clock-ss.txt;
#X obj 215 61 t b b b;
#X obj 475 96 s update-path;
#X obj 481 46 bng 16 250 50 0 empty empty empty 0 -8 0 10 #fcfcfc #000000 #000000;
#X obj 194 557 r patch-path;
#X msg 138 616 write /Volumes/MODFORMER/patch1/statesave/1-diet-clock-ss.txt;
#X obj 149 576 pack f s;
#X obj 138 535 f;
#X obj 138 556 t b f;
#X msg 148 595 set write \$2/statesave/\$1-diet-clock-ss.txt;
#X obj 120 399 pack f f f;
#X msg 120 438 set \$1 \$2 \$3;
#X obj 177 367 r \$0-midi-clock-delay-s;
#X obj 609 527 unpack f f f;
#X obj 678 547 s \$0-midi-clock-delay-r;
#X connect 0 0 28 0;
#X connect 1 0 40 0;
#X connect 2 0 1 0;
#X connect 3 0 1 0;
#X connect 5 0 3 0;
#X connect 5 1 2 0;
#X connect 6 0 37 0;
#X connect 7 0 21 0;
#X connect 8 0 7 0;
#X connect 8 0 34 0;
#X connect 8 1 6 0;
#X connect 8 2 9 0;
#X connect 9 0 4 0;
#X connect 12 0 13 0;
#X connect 13 0 7 1;
#X connect 13 0 34 1;
#X connect 13 1 20 0;
#X connect 13 1 25 0;
#X connect 13 2 10 0;
#X connect 14 0 8 0;
#X connect 15 0 14 0;
#X connect 16 0 6 1;
#X connect 18 0 37 1;
#X connect 22 0 24 1;
#X connect 23 0 1 0;
#X connect 24 0 27 0;
#X connect 25 0 26 0;
#X connect 26 0 23 0;
#X connect 26 1 24 0;
#X connect 27 0 23 0;
#X connect 28 0 5 0;
#X connect 28 1 12 0;
#X connect 28 2 29 0;
#X connect 30 0 28 0;
#X connect 31 0 33 1;
#X connect 32 0 4 0;
#X connect 33 0 36 0;
#X connect 34 0 35 0;
#X connect 35 0 32 0;
#X connect 35 1 33 0;
#X connect 36 0 32 0;
#X connect 37 0 38 0;
#X connect 38 0 4 0;
#X connect 39 0 37 2;
#X connect 40 0 17 0;
#X connect 40 1 19 0;
#X connect 40 2 41 0;
#X restore 901 28 pd state-saving-multiple-instances;
#X obj 901 98 s \$0-instance-num;
#X obj 901 50 makefilename %d;
#X obj 225 115 cnv 5 5 5 empty \$0-instance-num 1 0 0 0 12 #fcfcfc #404040 0;
#X msg 901 74 label \$1;
#X obj 103 232 cnv 5 5 5 empty empty OUT 0 0 0 8 #fcfcfc #dc4c90 0;
#X obj 553 63 threshold~ 0.99 0 0.99 0;
#X obj 422 96 env~;
#X floatatom 422 118 5 0 0 0 - - - 0;
#X obj 422 162 t b;
#X obj 422 137 change;
#X obj 110 423 moses 20;
#X obj 321 94 *~ -1;
#N canvas 632 64 749 752 external-messages 0;
#X floatatom 186 706 5 0 0 0 - - - 0;
#X obj 185 328 spigot;
#X obj 218 288 tgl 15 0 empty empty empty 17 7 0 10 #fcfcfc #000000 #000000 0 1;
#X obj 254 272 ==;
#X obj 269 248 f \$1;
#X obj 269 224 loadbang;
#X msg 185 202 \$1 \$2;
#X msg 185 156 symbol \$1;
#X obj 185 180 pack s f;
#X obj 186 685 f;
#X obj 186 633 t b f;
#X obj 186 656 spigot;
#X obj 185 62 unpack s f f;
#X symbolatom 185 94 10 0 0 0 - - - 0;
#X obj 218 308 t f f;
#X obj 245 332 s \$0-msg-spigot;
#X obj 234 640 r \$0-msg-spigot;
#X floatatom 223 594 5 0 0 0 - - - 0;
#X obj 223 573 f;
#X obj 223 521 t b f;
#X obj 223 544 spigot;
#X obj 271 528 r \$0-msg-spigot;
#X obj 185 14 r clock;
#X obj 184 380 route RATE ON/OFF;
#X obj 186 726 s \$0-clock-clk-rate-r;
#X obj 223 614 s \$0-clock-on/off-r;
#X connect 0 0 24 0;
#X connect 1 0 23 0;
#X connect 2 0 14 0;
#X connect 3 0 2 0;
#X connect 4 0 3 1;
#X connect 5 0 4 0;
#X connect 6 0 1 0;
#X connect 7 0 8 0;
#X connect 8 0 6 0;
#X connect 9 0 0 0;
#X connect 10 0 11 0;
#X connect 10 1 9 1;
#X connect 11 0 9 0;
#X connect 12 0 13 0;
#X connect 12 1 8 1;
#X connect 12 2 3 0;
#X connect 13 0 7 0;
#X connect 14 0 1 1;
#X connect 14 1 15 0;
#X connect 16 0 11 1;
#X connect 17 0 25 0;
#X connect 18 0 17 0;
#X connect 19 0 20 0;
#X connect 19 1 18 1;
#X connect 20 0 18 0;
#X connect 21 0 20 1;
#X connect 22 0 12 0;
#X connect 23 0 10 0;
#X connect 23 1 19 0;
#X restore 901 5 pd external-messages;
#X obj 379 228 expr 60000/$f1;
#X obj 379 252 / 4;
#X obj 110 379 * 120;
#X obj 110 401 + 60;
#X obj 1100 364 vline~;
#X obj 1100 430 outlet~;
#X msg 1100 342 1 0 \, 0 1 1;
#X obj 1101 282 sel 0;
#X obj 271 232 cnv 5 5 5 empty empty RESET 0 0 0 8 #fcfcfc #dc4c90 0;
#X obj 162 232 cnv 5 5 5 empty empty 2X 0 0 0 8 #fcfcfc #dc4c90 0;
#X obj 488 277 metro 100;
#X obj 488 365 vline~;
#X obj 488 299 t b b;
#X obj 488 431 outlet~;
#X msg 488 343 1 0 \, 0 1 1;
#X obj 539 228 expr 60000/$f1;
#X obj 539 252 / 8;
#X text 1097 448 RESET-OUT;
#X text 326 450 TRIGGER OUT;
#X text 477 452 TRIGGER OUT 2X;
#X obj 638 277 metro 100;
#X obj 638 365 vline~;
#X obj 638 299 t b b;
#X obj 638 431 outlet~;
#X msg 638 343 1 0 \, 0 1 1;
#X obj 689 228 expr 60000/$f1;
#X obj 689 252 / 16;
#X text 617 452 TRIGGER OUT 4X;
#X obj 226 232 cnv 5 5 5 empty empty 4X 0 0 0 8 #fcfcfc #dc4c90 0;
#X floatatom 19 29 5 0 0 0 - - - 0;
#X obj 19 49 sel 127;
#X obj 32 332 sel 1;
#X msg 32 353 127;
#X msg 61 354 0;
#X obj 32 378 ctlout 85;
#X obj 19 8 ctlin 85;
#N canvas 63 88 717 478 push-controll 0;
#X obj 230 338 f;
#X obj 175 340 +;
#X obj 175 394 max 0;
#X obj 175 373 min 127;
#X obj 156 144 sel 122 123 124 125 126 127 1 2 3 4 5 6;
#X obj 160 87 ctlin 15;
#X obj 287 87 r \$0-clock-clk-rate-s;
#X obj 172 442 s \$0-clock-clk-rate-r;
#X msg 174 259 -1;
#X msg 144 259 -2;
#X msg 106 258 -3;
#X msg 70 258 -3;
#X msg 333 258 1;
#X msg 363 258 2;
#X msg 397 258 3;
#X msg 431 258 3;
#X msg 234 259 -0.2;
#X msg 273 258 0.2;
#X msg 204 259 -0.5;
#X msg 303 258 0.5;
#X connect 0 0 1 1;
#X connect 1 0 3 0;
#X connect 2 0 0 0;
#X connect 2 0 7 0;
#X connect 3 0 2 0;
#X connect 4 0 11 0;
#X connect 4 1 10 0;
#X connect 4 2 9 0;
#X connect 4 3 8 0;
#X connect 4 4 18 0;
#X connect 4 5 16 0;
#X connect 4 6 17 0;
#X connect 4 7 19 0;
#X connect 4 8 12 0;
#X connect 4 9 13 0;
#X connect 4 10 14 0;
#X connect 4 11 15 0;
#X connect 5 0 4 0;
#X connect 6 0 0 0;
#X connect 8 0 1 0;
#X connect 9 0 1 0;
#X connect 10 0 1 0;
#X connect 11 0 1 0;
#X connect 12 0 1 0;
#X connect 13 0 1 0;
#X connect 14 0 1 0;
#X connect 15 0 1 0;
#X connect 16 0 1 0;
#X connect 17 0 1 0;
#X connect 18 0 1 0;
#X connect 19 0 1 0;
#X restore 901 129 pd push-controll;
#X obj 137 489 s global-bpm;
#X obj 595 336 bng 16 250 50 0 empty empty empty 0 -8 0 10 #fcfcfc #000000 #000000;
#X floatatom 422 323 5 0 0 0 - - - 0;
#X msg 843 586 248;
#X obj 813 642 midiout;
#X obj 813 453 spigot 0;
#X obj 105 181 tgl 16 0 empty empty MIDI-CLOCK-OUT 0 -8 0 10 #fcfcfc #000000 #000000 0 1;
#X msg 813 586 250;
#X msg 857 508 252;
#X obj 828 487 t b b;
#X obj 813 529 f;
#X obj 847 529 + 1;
#X msg 828 509 0;
#X obj 813 558 sel 0;
#X obj 211 -19 loadbang;
#X msg 211 2 1;
#X obj 852 604 loadbang;
#X text 837 470 reset;
#X obj 813 434 t b;
#X obj 863 345 expr 1000/($f1/60);
#X obj 863 369 / 24;
#X obj 813 394 metro 100;
#X obj 813 416 t b b;
#X text 736 643 24 PPQN OUT;
#X msg 852 623 2;
#X obj 813 277 sel 1 0;
#X obj 813 305 del;
#X msg 813 326 1;
#X msg 852 305 0;
#X obj 328 209 r \$0-clock-on-off-s;
#X obj 487 208 r \$0-clock-on-off-s;
#X obj 638 208 r \$0-clock-on-off-s;
#X obj 1101 256 r \$0-clock-on-off-s;
#X obj 813 246 r \$0-clock-on-off-s;
#X obj 32 310 r \$0-clock-on-off-s;
#X obj 108 202 hsl 128 15 0 127 0 1 \$0-midi-clock-delay-s \$0-midi-clock-delay-r CLCK-DEL 133 7 0 10 #fcfcfc #000000 #000000 5600 1;
#X obj 863 278 r \$0-midi-clock-delay-s;
#X floatatom 206 187 5 0 0 1 MS - - 10;
#X obj 328 431 outlet;
#X connect 1 0 7 0;
#X connect 2 0 4 0;
#X connect 4 0 13 0;
#X connect 5 0 32 0;
#X connect 5 0 47 0;
#X connect 5 0 57 0;
#X connect 5 0 88 0;
#X connect 5 1 3 0;
#X connect 5 1 69 0;
#X connect 7 0 107 0;
#X connect 7 1 6 0;
#X connect 9 0 25 0;
#X connect 9 0 30 0;
#X connect 10 0 24 0;
#X connect 11 0 12 0;
#X connect 12 0 13 0;
#X connect 12 1 13 1;
#X connect 13 0 34 0;
#X connect 18 0 20 0;
#X connect 20 0 22 0;
#X connect 22 0 19 0;
#X connect 24 0 0 0;
#X connect 25 0 26 0;
#X connect 26 0 28 0;
#X connect 27 0 11 0;
#X connect 28 0 27 0;
#X connect 29 1 5 0;
#X connect 30 0 11 0;
#X connect 32 0 33 0;
#X connect 33 0 1 1;
#X connect 33 0 71 0;
#X connect 34 0 35 0;
#X connect 35 0 29 0;
#X connect 36 0 37 0;
#X connect 38 0 36 0;
#X connect 39 0 38 0;
#X connect 39 0 78 0;
#X connect 42 0 44 0;
#X connect 43 0 45 0;
#X connect 44 0 46 0;
#X connect 46 0 43 0;
#X connect 47 0 48 0;
#X connect 48 0 42 1;
#X connect 52 0 54 0;
#X connect 52 0 70 0;
#X connect 53 0 55 0;
#X connect 54 0 56 0;
#X connect 56 0 53 0;
#X connect 57 0 58 0;
#X connect 58 0 52 1;
#X connect 61 0 62 0;
#X connect 62 0 0 0;
#X connect 63 0 64 0;
#X connect 63 1 65 0;
#X connect 64 0 66 0;
#X connect 65 0 66 0;
#X connect 67 0 61 0;
#X connect 72 0 73 0;
#X connect 74 0 79 0;
#X connect 75 0 74 1;
#X connect 76 0 73 0;
#X connect 77 0 73 0;
#X connect 78 0 81 0;
#X connect 78 1 77 0;
#X connect 79 0 80 0;
#X connect 79 0 82 0;
#X connect 80 0 79 1;
#X connect 81 0 79 1;
#X connect 82 0 76 0;
#X connect 82 0 72 0;
#X connect 82 1 72 0;
#X connect 83 0 84 0;
#X connect 84 0 75 0;
#X connect 85 0 93 0;
#X connect 87 0 74 0;
#X connect 88 0 89 0;
#X connect 89 0 90 1;
#X connect 90 0 91 0;
#X connect 91 0 87 0;
#X connect 93 0 73 1;
#X connect 94 0 95 0;
#X connect 94 1 97 0;
#X connect 95 0 96 0;
#X connect 96 0 90 0;
#X connect 97 0 90 0;
#X connect 98 0 1 0;
#X connect 99 0 42 0;
#X connect 100 0 52 0;
#X connect 101 0 39 0;
#X connect 102 0 94 0;
#X connect 103 0 63 0;
#X connect 104 0 106 0;
#X connect 105 0 95 1;
#X coords 0 -1 1 1 200 140 2 100 100;
