#N canvas 0 25 1349 703 10;
#X obj 1051 64 inlet~;
#X obj 851 73 hsl 128 15 0 127 0 1 \$0-diet-audio-to-mix-channel-s \$0-diet-audio-to-mix-channel-r CHANNEL -3 -7 0 10 #fcfcfc #000000 #000000 0 1;
#X obj 834 29 cnv 5 5 5 empty empty IN 0 0 0 8 #fcfcfc #404040 0;
#X obj 848 45 cnv 5 5 5 empty empty DIET-AUDIO-TO-MIX 0 0 0 12 #fcfcfc #404040 0;
#X obj 834 108 / 127;
#X floatatom 834 150 5 0 0 0 - - - 0;
#X obj 834 189 i;
#X floatatom 834 240 5 0 0 0 - - - 0;
#X obj 834 210 + 1;
#X obj 834 129 * 9;
#X obj 834 170 + 0.5;
#X obj 103 119 cnv 5 5 5 empty empty IN 0 0 0 8 #ffffff #ff8300 0;
#X obj 134 127 cnv 5 5 5 empty \$0-modul-name AUDTIO-OUT 0 0 0 12 #fcfcfc #404040 0;
#X obj 216 127 cnv 5 5 5 empty \$0-instance-num 34 0 0 0 12 #fcfcfc #404040 0;
#X obj 103 382 cnv 5 5 5 empty empty OUT 0 0 0 8 #fcfcfc #000000 0;
#X obj 199 119 cnv 5 5 5 empty empty MOD1 0 0 0 8 #fcfcfc #404040 0;
#X text 487 248 <--rename labels here;
#X text 528 268 <--modules values are saved here;
#X obj 337 118 text define -k \$0-modul-settings;
#A set AUDTIO-OUT \; HW_1 \; HW_2 \; HW_3 \; HW_4 \; HW_5 \; HW_6 \; HW_7 \; HW_8 \; SRC \; 7 \; #5f5f5f \; #6a6a6a \; #757575 \; #808080 \; #8b8b8b \; #969696 \; #a1a1a1 \; #acacac \;;
#N canvas 324 349 425 350 info 0;
#X text 23 12 This textfile contains all necessery names of the module and the names of the gui (faders etc.). This way its much easier to change the names of all elements simply by editing the text object.;
#X text 25 93 The Order of the file \; 0=Modul-Name \; 1=Name Param1 - write non if unused \; 2=Name Param2 \; 3=Name Param3 \; 4=Name Param4 \; 5=Name Param5 \; 6=Name Param6 \; 7=Name Param7 \; 8=Name Param8 \; 9=Type of Module (SRC \, MOD \, LFO \, EFX etc) \; 10=Number of used Parameters (1-8) \; 11=Color of Param1-Circle 12=Color of Param2-Circle \; 13=Color of Param3-Circle \; 14=Color of Param4-Circle \; 15=Color of Param5-Circle \; 16=Color of Param6-Circle \; 17=Color of Param7-Circle \; 18=Color of Param8-Circle \; ....;
#X restore 559 119 pd info;
#X text 537 118 ->;
#X text 335 98 Parameter-Values + Names + Colors:;
#X text 498 286 <--Opens the Options-Subpatch;
#X text 99 82 DESKTOP-GUI-INTERFACE:;
#X obj 339 522 s \$0-param-1-t;
#X msg 339 503 symbol \$1%;
#X obj 339 445 / 1.27;
#X floatatom 339 464 5 0 0 0 - - - 0;
#X obj 339 484 i;
#X obj 337 354 s \$0-a;
#X obj 391 354 s \$0-b;
#X obj 445 354 s \$0-c;
#X obj 500 354 s \$0-d;
#X obj 554 353 s \$0-e;
#X obj 609 353 s \$0-f;
#X obj 663 352 s \$0-g;
#X obj 718 352 s \$0-h;
#X text 763 352 <--these go to the dsp-object;
#X text 437 206 <--receives encoder messages from mother.pd;
#X text 437 186 <--sends display info to mother.pd;
#X text 447 226 <--checks menu and if module is "active";
#X text 734 325 <--receives audio + message for mod;
#X obj 339 424 r \$0-param-1-s;
#X msg 435 503 symbol \$1%;
#X obj 435 445 / 1.27;
#X floatatom 435 464 5 0 0 0 - - - 0;
#X obj 435 484 i;
#X obj 435 424 r \$0-param-2-s;
#X obj 435 522 s \$0-param-2-t;
#X msg 533 502 symbol \$1%;
#X obj 533 444 / 1.27;
#X floatatom 533 463 5 0 0 0 - - - 0;
#X obj 533 483 i;
#X obj 533 423 r \$0-param-3-s;
#X obj 533 521 s \$0-param-3-t;
#X msg 633 502 symbol \$1%;
#X obj 633 444 / 1.27;
#X floatatom 633 463 5 0 0 0 - - - 0;
#X obj 633 483 i;
#X obj 633 423 r \$0-param-4-s;
#X obj 633 521 s \$0-param-4-t;
#X msg 339 643 symbol \$1%;
#X obj 339 585 / 1.27;
#X floatatom 339 604 5 0 0 0 - - - 0;
#X obj 339 624 i;
#X msg 435 643 symbol \$1%;
#X obj 435 585 / 1.27;
#X floatatom 435 604 5 0 0 0 - - - 0;
#X obj 435 624 i;
#X msg 533 642 symbol \$1%;
#X obj 533 584 / 1.27;
#X floatatom 533 603 5 0 0 0 - - - 0;
#X obj 533 623 i;
#X msg 633 642 symbol \$1%;
#X obj 633 584 / 1.27;
#X floatatom 633 603 5 0 0 0 - - - 0;
#X obj 633 623 i;
#X obj 339 564 r \$0-param-5-s;
#X obj 339 662 s \$0-param-5-t;
#X obj 435 564 r \$0-param-6-s;
#X obj 435 662 s \$0-param-6-t;
#X obj 533 563 r \$0-param-7-s;
#X obj 533 661 s \$0-param-7-t;
#X obj 633 563 r \$0-param-8-s;
#X obj 633 661 s \$0-param-8-t;
#X obj 298 118 cnv 5 5 5 empty empty MOD2 0 0 0 8 #fcfcfc #404040 0;
#X obj 337 186 core_display \$0;
#X obj 337 206 core_encoder \$0;
#X obj 337 227 core_main_menu \$0;
#X obj 337 248 core_module_settings \$0;
#X obj 337 326 core_modulation_receiver \$0, f 64;
#X text 336 165 Modul Core:;
#X text 337 400 Value Display Representation:;
#X obj 137 232 hsl 128 15 0 127 0 1 \$0-param-4-s \$0-param-4-r HW_4 133 7 0 10 #808080 #000000 #000000 0 1;
#X obj 137 170 hsl 128 15 0 127 0 1 \$0-param-2-s \$0-param-2-r HW_2 133 7 0 10 #6a6a6a #000000 #000000 12700 1;
#X obj 137 263 hsl 128 15 0 127 0 1 \$0-param-5-s \$0-param-5-r HW_5 133 7 0 10 #8b8b8b #000000 #000000 0 1;
#X obj 137 139 hsl 128 15 0 127 0 1 \$0-param-1-s \$0-param-1-r HW_1 133 7 0 10 #5f5f5f #000000 #000000 12700 1;
#X obj 137 294 hsl 128 15 0 127 0 1 \$0-param-6-s \$0-param-6-r HW_6 133 7 0 10 #969696 #000000 #000000 0 1;
#X obj 137 325 hsl 128 15 0 127 0 1 \$0-param-7-s \$0-param-7-r HW_7 133 7 0 10 #a1a1a1 #000000 #000000 0 1;
#X obj 137 201 hsl 128 15 0 127 0 1 \$0-param-3-s \$0-param-3-r HW_3 133 7 0 10 #757575 #000000 #000000 0 1;
#X obj 137 154 hsl 61 8 0 127 0 1 \$0-param-9-s \$0-param-9-r empty 133 7 0 10 #606060 #000000 #000000 0 1;
#X obj 204 154 hsl 61 8 0 127 0 1 \$0-param-17-s \$0-param-17-r empty 133 7 0 10 #7c7c7c #000000 #000000 0 1;
#X obj 137 185 hsl 61 8 0 127 0 1 \$0-param-10-s \$0-param-10-r empty 133 7 0 10 #606060 #000000 #000000 0 1;
#X obj 204 185 hsl 61 8 0 127 0 1 \$0-param-18-s \$0-param-18-r empty 133 7 0 10 #7c7c7c #000000 #000000 0 1;
#X obj 137 216 hsl 61 8 0 127 0 1 \$0-param-11-s \$0-param-11-r empty 133 7 0 10 #606060 #000000 #000000 0 1;
#X obj 204 216 hsl 61 8 0 127 0 1 \$0-param-19-s \$0-param-19-r empty 133 7 0 10 #7c7c7c #000000 #000000 0 1;
#X obj 137 247 hsl 61 8 0 127 0 1 \$0-param-12-s \$0-param-12-r empty 133 7 0 10 #606060 #000000 #000000 0 1;
#X obj 204 247 hsl 61 8 0 127 0 1 \$0-param-20-s \$0-param-20-r empty 133 7 0 10 #7c7c7c #000000 #000000 0 1;
#X obj 137 278 hsl 61 8 0 127 0 1 \$0-param-13-s \$0-param-13-r empty 133 7 0 10 #606060 #000000 #000000 0 1;
#X obj 204 278 hsl 61 8 0 127 0 1 \$0-param-21-s \$0-param-21-r empty 133 7 0 10 #7c7c7c #000000 #000000 0 1;
#X obj 137 309 hsl 61 8 0 127 0 1 \$0-param-14-s \$0-param-14-r empty 133 7 0 10 #606060 #000000 #000000 0 1;
#X obj 204 309 hsl 61 8 0 127 0 1 \$0-param-22-s \$0-param-22-r empty 133 7 0 10 #7c7c7c #000000 #000000 0 1;
#X obj 137 340 hsl 61 8 0 127 0 1 \$0-param-15-s \$0-param-15-r empty 133 7 0 10 #606060 #000000 #000000 0 1;
#X obj 204 340 hsl 61 8 0 127 0 1 \$0-param-23-s \$0-param-23-r empty 133 7 0 10 #7c7c7c #000000 #000000 0 1;
#X obj 137 355 hsl 128 15 0 127 0 1 \$0-param-8-s \$0-param-8-r HW_8 133 7 0 10 #acacac #000000 #000000 0 1;
#X obj 337 307 core_mod_display \$0;
#N canvas 98 88 1127 597 dsp 0;
#X obj 98 394 *~;
#X obj 113 350 pack 0 50;
#X obj 113 372 line~;
#X obj 94 27 inlet~;
#X obj 171 29 inlet;
#X obj 221 29 inlet;
#X obj 271 29 inlet;
#X obj 321 29 inlet;
#X obj 371 29 inlet;
#X obj 421 29 inlet;
#X obj 471 29 inlet;
#X obj 521 29 inlet;
#X obj 195 392 *~;
#X obj 210 348 pack 0 50;
#X obj 210 370 line~;
#X obj 302 396 *~;
#X obj 317 352 pack 0 50;
#X obj 317 374 line~;
#X obj 399 394 *~;
#X obj 414 350 pack 0 50;
#X obj 414 372 line~;
#X obj 492 397 *~;
#X obj 507 353 pack 0 50;
#X obj 507 375 line~;
#X obj 589 395 *~;
#X obj 604 351 pack 0 50;
#X obj 604 373 line~;
#X obj 696 399 *~;
#X obj 711 355 pack 0 50;
#X obj 711 377 line~;
#X obj 793 397 *~;
#X obj 808 353 pack 0 50;
#X obj 808 375 line~;
#X obj 98 461 throw~ hw1;
#X obj 195 461 throw~ hw2;
#X obj 292 461 throw~ hw3;
#X obj 389 461 throw~ hw4;
#X obj 493 460 throw~ hw5;
#X obj 590 460 throw~ hw6;
#X obj 687 460 throw~ hw7;
#X obj 784 460 throw~ hw8;
#X connect 0 0 33 0;
#X connect 1 0 2 0;
#X connect 2 0 0 1;
#X connect 3 0 0 0;
#X connect 3 0 12 0;
#X connect 3 0 15 0;
#X connect 3 0 18 0;
#X connect 3 0 21 0;
#X connect 3 0 24 0;
#X connect 3 0 27 0;
#X connect 3 0 30 0;
#X connect 4 0 1 0;
#X connect 5 0 13 0;
#X connect 6 0 16 0;
#X connect 7 0 19 0;
#X connect 8 0 22 0;
#X connect 9 0 25 0;
#X connect 10 0 28 0;
#X connect 11 0 31 0;
#X connect 12 0 34 0;
#X connect 13 0 14 0;
#X connect 14 0 12 1;
#X connect 15 0 35 0;
#X connect 16 0 17 0;
#X connect 17 0 15 1;
#X connect 18 0 36 0;
#X connect 19 0 20 0;
#X connect 20 0 18 1;
#X connect 21 0 37 0;
#X connect 22 0 23 0;
#X connect 23 0 21 1;
#X connect 24 0 38 0;
#X connect 25 0 26 0;
#X connect 26 0 24 1;
#X connect 27 0 39 0;
#X connect 28 0 29 0;
#X connect 29 0 27 1;
#X connect 30 0 40 0;
#X connect 31 0 32 0;
#X connect 32 0 30 1;
#X restore 1053 344 pd dsp;
#X f 37;
#X obj 1080 290 r \$0-a;
#X obj 1106 317 r \$0-b;
#X obj 1133 289 r \$0-c;
#X obj 1160 316 r \$0-d;
#X obj 1185 289 r \$0-e;
#X obj 1214 315 r \$0-f;
#X obj 1243 288 r \$0-g;
#X obj 1272 311 r \$0-h;
#X obj 870 252 r AUDTIO-OUT\$1;
#X obj 337 287 core_options \$0 \$1 \$2 \$3;
#X obj 337 268 core_state_saving \$0 \$1 \$2 $ 3;
#X floatatom 242 508 5 0 0 0 - - - 0;
#X connect 0 0 116 0;
#X connect 1 0 4 0;
#X connect 4 0 9 0;
#X connect 5 0 10 0;
#X connect 6 0 8 0;
#X connect 8 0 7 0;
#X connect 9 0 5 0;
#X connect 10 0 6 0;
#X connect 25 0 24 0;
#X connect 26 0 27 0;
#X connect 27 0 28 0;
#X connect 28 0 25 0;
#X connect 42 0 26 0;
#X connect 43 0 48 0;
#X connect 44 0 45 0;
#X connect 45 0 46 0;
#X connect 46 0 43 0;
#X connect 47 0 44 0;
#X connect 49 0 54 0;
#X connect 50 0 51 0;
#X connect 51 0 52 0;
#X connect 52 0 49 0;
#X connect 53 0 50 0;
#X connect 55 0 60 0;
#X connect 56 0 57 0;
#X connect 57 0 58 0;
#X connect 58 0 55 0;
#X connect 59 0 56 0;
#X connect 61 0 78 0;
#X connect 62 0 63 0;
#X connect 63 0 64 0;
#X connect 64 0 61 0;
#X connect 65 0 80 0;
#X connect 66 0 67 0;
#X connect 67 0 68 0;
#X connect 68 0 65 0;
#X connect 69 0 82 0;
#X connect 70 0 71 0;
#X connect 71 0 72 0;
#X connect 72 0 69 0;
#X connect 73 0 84 0;
#X connect 74 0 75 0;
#X connect 75 0 76 0;
#X connect 76 0 73 0;
#X connect 77 0 62 0;
#X connect 79 0 66 0;
#X connect 81 0 70 0;
#X connect 83 0 74 0;
#X connect 90 0 29 0;
#X connect 90 0 128 0;
#X connect 90 1 30 0;
#X connect 90 2 31 0;
#X connect 90 3 32 0;
#X connect 90 4 33 0;
#X connect 90 5 34 0;
#X connect 90 6 35 0;
#X connect 90 7 36 0;
#X connect 117 0 116 1;
#X connect 118 0 116 2;
#X connect 119 0 116 3;
#X connect 120 0 116 4;
#X connect 121 0 116 5;
#X connect 122 0 116 6;
#X connect 123 0 116 7;
#X connect 124 0 116 8;
#X coords 0 -1 1 1 220 290 1 100 100;
