#N canvas 0 48 1440 747 10;
#X obj 474 -215 bng 15 250 50 0 open-modules! empty <--MODULES(esc) 17 7 0 10 #fcfcfc #000000 #000000;
#X obj 1266 135 bng 15 250 50 0 open-reset-warning! empty <--RESET\ OBJECT\ COUNTER! 17 7 0 10 #fcfcfc #000000 #000000;
#X obj 1266 116 bng 15 250 50 0 open-mixer! empty <--AUDIO-MIXER 17 7 0 10 #fcfcfc #000000 #000000;
#X text 589 -215 <-- for now removed from gui - when corrected it will be added again.;
#X obj 264 383 tgl 35 1 \$0-clock-on-off-s empty PLAY/STOP 0 -7 0 10 #fcfcfc #000000 #000000 0 1;
#X obj 1226 539 metro 100;
#X obj 747 145 hsl 128 15 0 127 0 1 \$0-clock-clk-rate-s \$0-clock-clk-rate-r TEMPO 133 7 0 10 #fcfcfc #000000 #000000 3000 1;
#X floatatom 845 130 5 0 0 1 BPM - - 10;
#X obj 1008 590 / 127;
#X obj 1008 728 t f f;
#X obj 1218 310 inlet~;
#X obj 1218 382 snapshot~;
#X obj 1218 433 t b f;
#X obj 1008 612 +;
#X text 1217 286 CLK-RATE CV INPUT;
#X obj 1398 107 cnv 5 5 5 empty empty ON/OFF 0 0 0 8 #fcfcfc #dc4c90 0;
#X obj 1320 358 env~;
#X floatatom 1320 380 5 0 0 0 - - - 0;
#X obj 1320 424 t b;
#X obj 1320 399 change;
#X obj 1008 685 moses 20;
#X obj 1219 356 *~ -1;
#X obj 1277 490 expr 60000/$f1;
#X obj 1277 514 / 4;
#X obj 1008 641 * 120;
#X obj 1008 663 + 60;
#X obj 1999 544 sel 0;
#X obj 1402 163 cnv 5 5 5 empty empty RESET 0 0 0 8 #fcfcfc #dc4c90 0;
#X obj 928 163 cnv 5 5 5 empty empty 2X 0 0 0 8 #fcfcfc #dc4c90 0;
#X obj 1386 539 metro 100;
#X obj 1386 627 vline~;
#X obj 1386 693 outlet~;
#X msg 1386 605 1 0 \, 0 1 1;
#X obj 1437 490 expr 60000/$f1;
#X obj 1437 514 / 8;
#X text 1995 710 RESET-OUT;
#X text 1224 712 TRIGGER OUT;
#X text 1375 714 TRIGGER OUT 2X;
#X obj 1536 539 metro 100;
#X obj 1536 627 vline~;
#X obj 1536 693 outlet~;
#X msg 1536 605 1 0 \, 0 1 1;
#X obj 1587 490 expr 60000/$f1;
#X obj 1587 514 / 16;
#X text 1515 714 TRIGGER OUT 4X;
#X obj 752 681 sel 1;
#X msg 752 702 127;
#X msg 781 703 0;
#X obj 752 727 ctlout 85;
#X obj 1035 757 s global-bpm;
#X msg 1741 848 248;
#X obj 1711 904 midiout;
#X obj 1711 715 spigot 0;
#X obj 972 118 tgl 16 0 empty empty MIDI-CLOCK-OUT 0 -8 0 10 #fcfcfc #000000 #000000 0 1;
#X msg 1711 848 250;
#X msg 1755 770 252;
#X obj 1726 749 t b b;
#X obj 1711 791 f;
#X obj 1745 791 + 1;
#X msg 1726 771 0;
#X obj 1711 820 sel 0;
#X text 1735 732 reset;
#X obj 1711 696 t b;
#X obj 1762 609 expr 1000/($f1/60);
#X obj 1762 633 / 24;
#X obj 1711 656 metro 100;
#X text 1634 905 24 PPQN OUT;
#X obj 1711 539 sel 1 0;
#X obj 1711 567 del;
#X msg 1711 588 1;
#X msg 1750 567 0;
#X obj 1226 471 r \$0-clock-on-off-s;
#X obj 1385 470 r \$0-clock-on-off-s;
#X obj 1536 470 r \$0-clock-on-off-s;
#X obj 1999 518 r \$0-clock-on-off-s;
#X obj 1711 508 r \$0-clock-on-off-s;
#X obj 752 659 r \$0-clock-on-off-s;
#X obj 975 137 hsl 128 15 0 127 0 1 \$0-midi-clock-delay-s \$0-midi-clock-delay-r CLCK-DEL 133 7 0 10 #fcfcfc #000000 #000000 0 1;
#X obj 1761 540 r \$0-midi-clock-delay-s;
#X floatatom 1073 122 5 0 0 1 MS - - 10;
#X obj 1226 693 outlet;
#X obj 744 108 cnv 5 5 5 empty empty INTERRNAL-CLOCK 0 12 0 10 #fcfcfc #404040 0;
#X obj 1614 650 s clock4x;
#X obj 2012 578 s clock-reset;
#X obj 1750 881 r clock-to-hw-device-nr;
#X text 1899 880 <- value comes from mother patch;
#X obj 1006 248 i;
#X obj 1006 287 s display-message;
#X msg 1006 268 1 0 #5f503e #000000 center BPM:\$1;
#X obj 1226 561 t b;
#X obj 1386 561 t b;
#X obj 1536 561 t b;
#X obj 756 601 s play-r;
#X obj 1998 692 outlet;
#X obj 128 170 hsl 128 15 0 127 0 1 \$0-param-2-s \$0-param-2-r CLOCK-OUT 133 7 0 10 #e86b0d #000000 #000000 0 1;
#X obj 128 139 hsl 128 15 0 127 0 1 \$0-param-1-s \$0-param-1-r BPM 133 7 0 10 #ed8008 #000000 #000000 3000 1;
#X obj 128 201 hsl 128 15 0 127 0 1 \$0-param-3-s \$0-param-3-r CLK-DL-MS 133 7 0 10 #e25511 #000000 #000000 0 1;
#X obj 125 127 cnv 5 5 5 empty \$0-modul-name MOTHER 0 0 0 12 #fcfcfc #404040 0;
#X obj 167 127 cnv 5 5 5 empty \$0-instance-num 0 0 0 0 12 #fcfcfc #404040 0;
#X obj 103 412 cnv 5 5 5 empty empty OUT 0 0 0 8 #fcfcfc #000000 0;
#X obj 199 109 cnv 5 5 5 empty empty MOD1 0 0 0 8 #fcfcfc #404040 0;
#X text 99 82 DESKTOP-GUI-INTERFACE:;
#X obj 128 154 hsl 61 8 0 127 0 1 \$0-param-9-s \$0-param-9-r empty 133 7 0 10 #606060 #000000 #000000 0 1;
#X obj 195 154 hsl 61 8 0 127 0 1 \$0-param-17-s \$0-param-17-r empty 133 7 0 10 #7c7c7c #000000 #000000 0 1;
#X obj 128 185 hsl 61 8 0 127 0 1 \$0-param-10-s \$0-param-10-r empty 133 7 0 10 #606060 #000000 #000000 0 1;
#X obj 195 185 hsl 61 8 0 127 0 1 \$0-param-18-s \$0-param-18-r empty 133 7 0 10 #7c7c7c #000000 #000000 0 1;
#X obj 128 216 hsl 61 8 0 127 0 1 \$0-param-11-s \$0-param-11-r empty 133 7 0 10 #606060 #000000 #000000 0 1;
#X obj 195 216 hsl 61 8 0 127 0 1 \$0-param-19-s \$0-param-19-r empty 133 7 0 10 #7c7c7c #000000 #000000 0 1;
#X obj 298 108 cnv 5 5 5 empty empty MOD2 0 0 0 8 #fcfcfc #404040 0;
#X text 487 248 <--rename labels here;
#X text 527 268 <--modules values are saved here;
#X obj 337 118 text define -k \$0-modul-settings;
#A set MOTHER \; BPM \; CLOCK-OUT \; CLK-DL-MS \; AUDIO \; DCK-ATT \; DCK-DEC \; - \; - \; SRC \; 7 \; #ed8008 \; #e86b0d \; #e25511 \; #db3e14 \; #d22616 \; #c91917 \; #c01718 \; #bf1b1b \;;
#N canvas 324 349 425 350 info 0;
#X text 23 12 This textfile contains all necessery names of the module and the names of the gui (faders etc.). This way its much easier to change the names of all elements simply by editing the text object.;
#X text 25 93 The Order of the file \; 0=Modul-Name \; 1=Name Param1 - write non if unused \; 2=Name Param2 \; 3=Name Param3 \; 4=Name Param4 \; 5=Name Param5 \; 6=Name Param6 \; 7=Name Param7 \; 8=Name Param8 \; 9=Type of Module (SRC \, MOD \, LFO \, EFX etc) \; 10=Number of used Parameters (1-8) \; 11=Color of Param1-Circle 12=Color of Param2-Circle \; 13=Color of Param3-Circle \; 14=Color of Param4-Circle \; 15=Color of Param5-Circle \; 16=Color of Param6-Circle \; 17=Color of Param7-Circle \; 18=Color of Param8-Circle \; ....;
#X restore 559 119 pd info;
#X text 537 118 ->;
#X text 335 98 Parameter-Values + Names + Colors:;
#X text 493 286 <--Opens the Options-Subpatch;
#X obj 339 502 s \$0-param-1-t;
#X obj 339 422 / 1.27;
#X floatatom 339 441 5 0 0 0 - - - 0;
#X obj 339 464 i;
#X obj 337 334 s \$0-a;
#X obj 391 334 s \$0-b;
#X obj 445 334 s \$0-c;
#X obj 500 334 s \$0-d;
#X obj 554 333 s \$0-e;
#X obj 609 333 s \$0-f;
#X obj 663 332 s \$0-g;
#X obj 718 332 s \$0-h;
#X text 763 332 <--these go to the dsp-object;
#X text 437 206 <--receives encoder messages from mother.pd;
#X text 437 186 <--sends display info to mother.pd;
#X text 447 226 <--checks menu and if module is "active";
#X text 734 305 <--receives audio + message for mod;
#X obj 339 401 r \$0-param-1-s;
#X obj 435 425 / 1.27;
#X floatatom 435 444 5 0 0 0 - - - 0;
#X obj 435 404 r \$0-param-2-s;
#X obj 435 502 s \$0-param-2-t;
#X obj 533 414 / 1.27;
#X floatatom 533 433 5 0 0 0 - - - 0;
#X obj 533 453 i;
#X obj 533 393 r \$0-param-3-s;
#X obj 533 501 s \$0-param-3-t;
#X msg 339 623 symbol \$1%;
#X obj 339 565 / 1.27;
#X floatatom 339 584 5 0 0 0 - - - 0;
#X obj 339 604 i;
#X msg 435 623 symbol \$1%;
#X obj 435 565 / 1.27;
#X floatatom 435 584 5 0 0 0 - - - 0;
#X obj 435 604 i;
#X msg 533 622 symbol \$1%;
#X obj 533 564 / 1.27;
#X floatatom 533 583 5 0 0 0 - - - 0;
#X obj 533 603 i;
#X msg 633 622 symbol \$1%;
#X obj 633 564 / 1.27;
#X floatatom 633 583 5 0 0 0 - - - 0;
#X obj 633 603 i;
#X obj 339 544 r \$0-param-5-s;
#X obj 339 642 s \$0-param-5-t;
#X obj 435 544 r \$0-param-6-s;
#X obj 435 642 s \$0-param-6-t;
#X obj 533 543 r \$0-param-7-s;
#X obj 533 641 s \$0-param-7-t;
#X obj 633 543 r \$0-param-8-s;
#X obj 633 641 s \$0-param-8-t;
#X obj 337 186 core_display \$0;
#X obj 337 206 core_encoder \$0;
#X obj 337 227 core_main_menu \$0;
#X obj 337 248 core_module_settings \$0;
#X obj 337 306 core_modulation_receiver \$0, f 64;
#X text 336 165 Modul Core:;
#X text 337 380 Value Display Representation:;
#X floatatom 226 124 5 0 0 0 - - - 0;
#X obj 774 34 / 64;
#X floatatom 727 94 5 0 0 0 - - - 0;
#X obj 774 55 i;
#X obj 1360 784 s global-trigger;
#X obj 2010 658 s global-reset;
#X msg 339 483 symbol \$1/;
#X msg 533 482 symbol \$1ms;
#X obj 798 419 sel 1;
#X msg 798 440 symbol ON;
#X msg 824 466 symbol OFF;
#X obj 270 74 r play-s2;
#X obj 128 260 hsl 128 15 0 127 0 1 \$0-param-5-s \$0-param-5-r DCK-ATT 133 7 0 10 #d22616 #000000 #000000 5724 1;
#X obj 128 293 hsl 128 15 0 127 0 1 \$0-param-6-s \$0-param-6-r DCK-DEC 133 7 0 10 #c91917 #000000 #000000 9570 1;
#X obj 128 324 hsl 128 15 0 127 0 1 \$0-param-7-s \$0-param-7-r - 133 7 0 10 #c01718 #000000 #000000 0 1;
#X obj 128 275 hsl 61 8 0 127 0 1 \$0-param-13-s \$0-param-13-r empty 133 7 0 10 #606060 #000000 #000000 0 1;
#X obj 195 275 hsl 61 8 0 127 0 1 \$0-param-21-s \$0-param-21-r empty 133 7 0 10 #7c7c7c #000000 #000000 0 1;
#X obj 128 308 hsl 61 8 0 127 0 1 \$0-param-14-s \$0-param-14-r empty 133 7 0 10 #606060 #000000 #000000 0 1;
#X obj 195 308 hsl 61 8 0 127 0 1 \$0-param-22-s \$0-param-22-r empty 133 7 0 10 #7c7c7c #000000 #000000 0 1;
#X obj 128 339 hsl 61 8 0 127 0 1 \$0-param-15-s \$0-param-15-r empty 133 7 0 10 #606060 #000000 #000000 0 1;
#X obj 195 339 hsl 61 8 0 127 0 1 \$0-param-23-s \$0-param-23-r empty 133 7 0 10 #7c7c7c #000000 #000000 0 1;
#X obj 13 523 s global-ducking-attack;
#X obj 79 638 s global-ducking-decay;
#X obj 79 615 * 10;
#X obj 13 480 r \$0-d;
#X obj 13 501 * 100;
#X obj 79 572 r \$0-e;
#X obj 79 593 * 100;
#X obj 119 492 s global-pattern;
#X obj 251 365 cnv 5 5 5 empty empty PATTERN 0 0 0 8 #fcfcfc #000000 0;
#X obj 125 357 hradio 15 1 0 8 empty empty empty 0 -8 0 10 #00eef9 #000000 #000000 0;
#X obj 128 234 hsl 128 15 0 127 0 1 \$0-param-4-s \$0-param-4-r AUDIO 133 7 0 10 #db3e14 #000000 #000000 12700 1;
#X obj -23 408 s hw-audio;
#X obj 633 424 i;
#X obj 633 383 r \$0-param-4-s;
#X obj 633 511 s \$0-param-4-t;
#X obj 633 404 / 64;
#X obj 633 445 sel 0 1;
#X msg 633 483 symbol 2x;
#X msg 697 459 symbol 8x;
#X obj 128 386 bng 15 250 50 0 empty SAVE-R <--SAVE!(s) 17 7 0 10 #fcfcfc #00fc04 #000000;
#X obj 1645 21 pdcontrol;
#X msg 1645 2 dir;
#X obj 1645 39 pack s;
#X obj 1645 -18 r update-path;
#X obj 1646 103 s patch-path-mother;
#X msg 1843 68 \; pd dsp 0;
#X obj 1843 -26 loadbang;
#X obj 1843 43 delay 1;
#X obj 1843 -4 t b b;
#X msg 1905 68 \; pd dsp 1;
#X obj 1905 13 delay 1000;
#X obj 1629 -42 loadbang;
#N canvas 92 117 1260 589 audio-out 0;
#X obj 463 91 catch~ hw1;
#X obj 463 414 dac~ 1 2 3 4 5 6 7 8, f 46;
#X obj 502 111 catch~ hw2;
#X obj 542 130 catch~ hw3;
#X obj 582 149 catch~ hw4;
#X obj 613 168 catch~ hw5;
#X obj 653 187 catch~ hw6;
#X obj 694 208 catch~ hw7;
#X obj 734 227 catch~ hw8;
#X obj 459 358 *~;
#X obj 110 120 vradio 15 1 0 2 empty empty empty 0 -8 0 10 #fcfcfc #000000 #000000 0;
#X obj 346 229 line~;
#X msg 345 193 \$1 5;
#X obj 130 127 cnv 5 5 5 empty empty STEREO-OUT 0 0 0 8 #fcfcfc #000000 0;
#X obj 130 142 cnv 5 5 5 empty empty MULTIPLE\ OUT 0 0 0 8 #fcfcfc #000000 0;
#X obj 502 359 *~;
#X obj 543 373 *~;
#X obj 582 389 *~;
#X obj 615 387 *~;
#X obj 654 389 *~;
#X obj 695 387 *~;
#X obj 734 389 *~;
#X obj 893 519 dac~ 1 2;
#X obj 986 328 line~;
#X msg 985 292 \$1 5;
#X obj 894 409 *~;
#X obj 938 408 *~;
#X obj 971 199 sel 0 1;
#X msg 971 220 1;
#X msg 1002 220 0;
#X obj 889 152 catch~ stereo1;
#X obj 939 121 catch~ stereo2;
#X obj 109 109 cnv 5 5 5 empty empty HARDWARE-AUDIO-SETTINGS: 0 0 0 10 #fcfcfc #404040 0;
#X floatatom 141 68 5 0 0 0 - - - 0;
#X msg 141 32 0, f 6;
#X obj 141 14 loadbang;
#X obj 141 50 text get hw-audio-status;
#X obj 109 169 text set hw-audio-status;
#X obj 109 187 text define -k hw-audio-status;
#A set 1 \;;
#X obj 48 15 r hw-audio;
#X obj 48 36 / 64;
#X obj 48 57 i;
#X obj 524 488 throw~ recL;
#X obj 600 488 throw~ recR;
#X connect 0 0 9 0;
#X connect 2 0 15 0;
#X connect 3 0 16 0;
#X connect 4 0 17 0;
#X connect 5 0 18 0;
#X connect 6 0 19 0;
#X connect 7 0 20 0;
#X connect 8 0 21 0;
#X connect 9 0 42 0;
#X connect 9 0 1 0;
#X connect 10 0 12 0;
#X connect 10 0 27 0;
#X connect 10 0 37 0;
#X connect 11 0 9 1;
#X connect 11 0 15 1;
#X connect 11 0 16 1;
#X connect 11 0 17 1;
#X connect 11 0 18 1;
#X connect 11 0 19 1;
#X connect 11 0 20 1;
#X connect 11 0 21 1;
#X connect 12 0 11 0;
#X connect 15 0 43 0;
#X connect 15 0 1 1;
#X connect 16 0 1 2;
#X connect 17 0 1 3;
#X connect 18 0 1 4;
#X connect 19 0 1 5;
#X connect 20 0 1 6;
#X connect 21 0 1 7;
#X connect 23 0 25 1;
#X connect 23 0 26 1;
#X connect 24 0 23 0;
#X connect 25 0 22 0;
#X connect 26 0 22 1;
#X connect 27 0 28 0;
#X connect 27 1 29 0;
#X connect 28 0 24 0;
#X connect 29 0 24 0;
#X connect 30 0 25 0;
#X connect 31 0 26 0;
#X connect 33 0 10 0;
#X connect 34 0 36 0;
#X connect 35 0 34 0;
#X connect 36 0 33 0;
#X connect 39 0 40 0;
#X connect 40 0 41 0;
#X connect 41 0 10 0;
#X restore 330 -216 pd audio-out;
#N canvas 121 146 895 464 midi-clock-out 0;
#X obj 240 207 cnv 5 5 5 empty empty MIDI-CLOCK-DEVICE: 0 0 0 8 #fcfcfc #000000 0;
#X obj 239 191 cnv 5 5 5 empty empty HARDWARE-MIDI-SETTINGS: 0 0 0 10 #fcfcfc #404040 0;
#X floatatom 272 149 5 0 0 0 - - - 0;
#X msg 272 113 0, f 6;
#X obj 272 95 loadbang;
#X obj 240 318 text define -k hw-midi-status;
#A set 0 \;;
#X obj 240 300 text set hw-midi-status;
#X obj 272 131 text get hw-midi-status;
#X obj 239 216 hradio 16 1 0 8 empty empty empty 0 -8 0 10 #fcfcfc #000000 #000000 0;
#X obj 438 298 + 1;
#X obj 438 317 s clock-to-hw-device-nr;
#X obj 194 118 / 15.875;
#X obj 194 95 r md-device;
#X text 191 64 HW-MIDI-CLOCK-OUT-DEVICE:;
#X connect 2 0 8 0;
#X connect 3 0 7 0;
#X connect 4 0 3 0;
#X connect 7 0 2 0;
#X connect 8 0 6 0;
#X connect 8 0 9 0;
#X connect 9 0 10 0;
#X connect 11 0 8 0;
#X connect 12 0 11 0;
#X restore 330 -197 pd midi-clock-out;
#N canvas 0 25 1440 847 network-communicator 0;
#X obj 104 103 cnv 5 5 5 empty empty DISPLAY-COMMUNICATOR: 0 12 0 10 #fcfcfc #404040 0;
#X msg 410 138 connect localhost 9001;
#X obj 410 198 netsend -u;
#X obj 410 95 loadbang;
#X obj 421 163 r display-message;
#X obj 411 577 s display-message;
#X obj 596 -6 r patch-nr-loaded;
#X obj 908 32 s display-message;
#X obj 908 -10 r patch-nr-loaded;
#X obj 1527 77 s display-message;
#X msg 908 9 1 0 #5f503e #000000 center BPM:120;
#N canvas 63 88 1263 654 knobs-preset 0;
#X obj 812 179 pack f f;
#X floatatom 812 133 5 0 0 0 - - - 0;
#X floatatom 851 135 5 0 0 0 - - - 0;
#X obj 851 153 t b f;
#X msg 811 198 send RINGVAL 3 1 \$1 \$2;
#X msg 811 236 3 3 #736b1e #000000 center mod*LFO;
#X msg 811 218 3 2 #736b1e #000000 center FREQ;
#X obj 576 181 pack f f;
#X floatatom 576 128 5 0 0 0 - - - 0;
#X floatatom 612 130 5 0 0 0 - - - 0;
#X obj 615 155 t b f;
#X msg 576 200 send RINGVAL 2 1 \$1 \$2;
#X msg 577 219 2 2 #bf1b1b #000000 center FREQ;
#X msg 577 238 2 3 #bf1b1b #000000 center mod*LFO;
#X obj 343 176 pack f f;
#X floatatom 343 123 5 0 0 0 - - - 0;
#X floatatom 379 125 5 0 0 0 - - - 0;
#X obj 382 150 t b f;
#X msg 343 197 send RINGVAL 1 1 \$1 \$2;
#X msg 343 218 1 2 #ed3f1c #000000 center FREQ;
#X msg 343 238 1 3 #912610 #000000 center mod*LFO;
#X obj 113 177 pack f f;
#X floatatom 113 124 5 0 0 0 - - - 0;
#X floatatom 149 126 5 0 0 0 - - - 0;
#X obj 152 151 t b f;
#X msg 113 218 0 2 #ed8008 #000000 center FREQ;
#X msg 113 238 0 3 #912610 #000000 center mod*LFO;
#X msg 113 198 send RINGVAL 0 1 \$1 \$2;
#X obj 807 363 pack f f;
#X floatatom 807 310 5 0 0 0 - - - 0;
#X floatatom 843 312 5 0 0 0 - - - 0;
#X obj 846 337 t b f;
#X obj 577 363 pack f f;
#X floatatom 577 310 5 0 0 0 - - - 0;
#X floatatom 613 312 5 0 0 0 - - - 0;
#X obj 616 337 t b f;
#X obj 344 360 pack f f;
#X floatatom 344 307 5 0 0 0 - - - 0;
#X floatatom 380 309 5 0 0 0 - - - 0;
#X obj 383 334 t b f;
#X obj 115 359 pack f f;
#X floatatom 115 306 5 0 0 0 - - - 0;
#X floatatom 154 314 5 0 0 0 - - - 0;
#X obj 154 333 t b f;
#X msg 807 403 3 6 #d9c3b0 #000000 center FREQ;
#X msg 807 422 3 7 #d9c3b0 #000000 center mod*LFO;
#X msg 807 384 send RINGVAL 3 5 \$1 \$2;
#X msg 577 402 2 6 #bfa07a #000000 center FREQ;
#X msg 577 421 2 7 #bfa07a #000000 center mod*LFO;
#X msg 577 384 send RINGVAL 2 5 \$1 \$2;
#X msg 344 401 1 6 #3b4b59 #000000 center FREQ;
#X msg 344 420 1 7 #3b4b59 #000000 center mod*LFO;
#X msg 344 381 send RINGVAL 1 5 \$1 \$2;
#X msg 115 399 0 6 #cc6324 #000000 center FREQ;
#X msg 115 418 0 7 #cc6324 #000000 center mod*LFO;
#X msg 115 380 send RINGVAL 0 5 \$1 \$2;
#X text 115 98 PARA1;
#X text 341 97 PARA2;
#X text 574 105 PARA3;
#X text 810 107 PARA4;
#X text 113 283 PARA5;
#X text 343 283 PARA6;
#X text 576 288 PARA7;
#X text 804 291 PARA8;
#X connect 0 0 4 0;
#X connect 1 0 0 0;
#X connect 2 0 3 0;
#X connect 3 0 0 0;
#X connect 3 1 0 1;
#X connect 7 0 11 0;
#X connect 8 0 7 0;
#X connect 9 0 10 0;
#X connect 10 0 7 0;
#X connect 10 1 7 1;
#X connect 14 0 18 0;
#X connect 15 0 14 0;
#X connect 16 0 17 0;
#X connect 17 0 14 0;
#X connect 17 1 14 1;
#X connect 21 0 27 0;
#X connect 22 0 21 0;
#X connect 23 0 24 0;
#X connect 24 0 21 0;
#X connect 24 1 21 1;
#X connect 28 0 46 0;
#X connect 29 0 28 0;
#X connect 30 0 31 0;
#X connect 31 0 28 0;
#X connect 31 1 28 1;
#X connect 32 0 49 0;
#X connect 33 0 32 0;
#X connect 34 0 35 0;
#X connect 35 0 32 0;
#X connect 35 1 32 1;
#X connect 36 0 52 0;
#X connect 37 0 36 0;
#X connect 38 0 39 0;
#X connect 39 0 36 0;
#X connect 39 1 36 1;
#X connect 40 0 55 0;
#X connect 41 0 40 0;
#X connect 42 0 43 0;
#X connect 43 0 40 0;
#X connect 43 1 40 1;
#X restore 410 229 pd knobs-preset;
#X text 591 -36 cell1;
#X text 907 -30 cell2;
#X text 1523 -36 cell4;
#X msg 1527 8 3 0 #5f503e #000000 center CPU:\$1%;
#X obj 1527 -11 r CPU;
#N canvas 63 88 1322 357 set-rings 0;
#X msg 976 120 send RING 3 1 #e3e3e3 #736b1e #000000 250 20 45;
#X obj 672 144 s display-message;
#X msg 672 124 send RING 2 1 #e3e3e3 #bf1b1b #000000 250 20 45;
#X obj 364 148 s display-message;
#X msg 364 128 send RING 1 1 #e3e3e3 #ed3f1c #000000 250 20 45;
#X obj 39 159 s display-message;
#X msg 39 140 send RING 0 1 #e3e3e3 #ed8008 #000000 250 20 45;
#X obj 976 141 s display-message;
#X obj 673 249 s display-message;
#X obj 366 251 s display-message;
#X obj 38 263 s display-message;
#X obj 974 251 s display-message;
#X msg 974 233 send RING 3 5 #e3e3e3 #d9c3b0 #000000 250 20 45;
#X msg 673 230 send RING 2 5 #e3e3e3 #bfa07a #000000 250 20 45;
#X msg 366 232 send RING 1 5 #e3e3e3 #3b4b59 #000000 250 20 45;
#X msg 38 243 send RING 0 5 #e3e3e3 #cc6324 #000000 250 20 45;
#X obj 39 112 del 50;
#X obj 364 107 del 50;
#X obj 672 104 del 50;
#X obj 976 100 del 50;
#X connect 0 0 7 0;
#X connect 2 0 1 0;
#X connect 4 0 3 0;
#X connect 6 0 5 0;
#X connect 12 0 11 0;
#X connect 13 0 8 0;
#X connect 14 0 9 0;
#X connect 15 0 10 0;
#X connect 16 0 6 0;
#X connect 17 0 4 0;
#X connect 18 0 2 0;
#X connect 19 0 0 0;
#X restore 411 253 pd set-rings;
#X obj 659 100 text define menu-labels;
#X text 658 81 Receives Names of Modules:;
#X obj 17 271 r menu-labels;
#X msg 418 558 0 9 #ffffff #000000 center \$1;
#X msg 411 538 0 9 #000000 #ffffff center \$1;
#X obj 453 501 text get menu-labels;
#X obj 453 519 symbol;
#X msg 453 483 0;
#X obj 411 465 text get menu-labels;
#X obj 411 483 symbol;
#X obj 17 310 t s b;
#X obj 58 310 f;
#X obj 17 347 text set menu-labels;
#X obj 17 328 symbol;
#X obj 17 291 unpack s f;
#X obj 660 296 text fromlist menu-labels;
#X obj 660 149 loadbang;
#X msg 411 447 0;
#X text 658 120 makes sure the text file is long enough to save necessary data:;
#X obj 611 577 s display-message;
#X obj 653 501 text get menu-labels;
#X obj 653 519 symbol;
#X obj 611 465 text get menu-labels;
#X obj 611 483 symbol;
#X msg 611 538 1 9 #000000 #ffffff center \$1;
#X msg 618 558 1 9 #ffffff #000000 center \$1;
#X msg 611 447 8;
#X obj 811 577 s display-message;
#X obj 853 501 text get menu-labels;
#X obj 853 519 symbol;
#X obj 811 465 text get menu-labels;
#X obj 811 483 symbol;
#X msg 811 538 2 9 #000000 #ffffff center \$1;
#X msg 818 558 2 9 #ffffff #000000 center \$1;
#X msg 811 447 16;
#X obj 1011 577 s display-message;
#X obj 1053 501 text get menu-labels;
#X obj 1053 519 symbol;
#X obj 1011 465 text get menu-labels;
#X obj 1011 483 symbol;
#X msg 1011 447 24;
#X msg 1011 538 3 9 #000000 #ffffff center \$1;
#X msg 1018 558 3 9 #ffffff #000000 center \$1;
#X obj 1221 577 s display-message;
#X obj 1263 501 text get menu-labels;
#X obj 1263 519 symbol;
#X obj 1221 465 text get menu-labels;
#X obj 1221 483 symbol;
#X msg 1221 538 4 9 #000000 #ffffff center \$1;
#X msg 1228 558 4 9 #ffffff #000000 center \$1;
#X msg 1221 447 32;
#X obj 411 351 r all-menu;
#X obj 411 391 unpack f f;
#X floatatom 411 410 5 0 0 0 - - - 0;
#X obj 411 370 route 1;
#X obj 411 428 sel 1;
#X msg 653 483 8;
#X msg 853 483 16;
#X msg 1053 483 24;
#X msg 1263 483 32;
#X obj 611 350 r all-menu;
#X obj 611 390 unpack f f;
#X floatatom 611 409 5 0 0 0 - - - 0;
#X obj 611 369 route 1;
#X obj 611 427 sel 2;
#X obj 811 351 r all-menu;
#X obj 811 391 unpack f f;
#X floatatom 811 410 5 0 0 0 - - - 0;
#X obj 811 370 route 1;
#X obj 811 428 sel 3;
#X obj 1011 351 r all-menu;
#X obj 1011 391 unpack f f;
#X floatatom 1011 410 5 0 0 0 - - - 0;
#X obj 1011 370 route 1;
#X obj 1011 428 sel 4;
#X obj 1221 350 r all-menu;
#X obj 1221 390 unpack f f;
#X floatatom 1221 409 5 0 0 0 - - - 0;
#X obj 1221 369 route 1;
#X obj 1221 427 sel 5;
#X obj 1431 577 s display-message;
#X obj 1473 501 text get menu-labels;
#X obj 1473 519 symbol;
#X obj 1431 465 text get menu-labels;
#X obj 1431 483 symbol;
#X obj 1631 577 s display-message;
#X obj 1673 501 text get menu-labels;
#X obj 1673 519 symbol;
#X obj 1631 465 text get menu-labels;
#X obj 1631 483 symbol;
#X obj 1841 577 s display-message;
#X obj 1883 501 text get menu-labels;
#X obj 1883 519 symbol;
#X obj 1841 465 text get menu-labels;
#X obj 1841 483 symbol;
#X obj 1431 351 r all-menu;
#X obj 1431 391 unpack f f;
#X floatatom 1431 410 5 0 0 0 - - - 0;
#X obj 1431 370 route 1;
#X obj 1631 351 r all-menu;
#X obj 1631 391 unpack f f;
#X floatatom 1631 410 5 0 0 0 - - - 0;
#X obj 1631 370 route 1;
#X obj 1841 350 r all-menu;
#X obj 1841 390 unpack f f;
#X floatatom 1841 409 5 0 0 0 - - - 0;
#X obj 1841 369 route 1;
#X msg 1431 538 5 9 #000000 #ffffff center \$1;
#X msg 1438 558 5 9 #ffffff #000000 center \$1;
#X msg 1631 538 6 9 #000000 #ffffff center \$1;
#X msg 1638 558 6 9 #ffffff #000000 center \$1;
#X msg 1841 538 7 9 #000000 #ffffff center \$1;
#X msg 1848 558 7 9 #ffffff #000000 center \$1;
#X msg 1431 447 40;
#X msg 1473 483 40;
#X msg 1631 447 48;
#X msg 1673 483 48;
#X msg 1841 447 56;
#X msg 1883 483 56;
#X obj 1431 428 sel 6;
#X obj 1631 428 sel 7;
#X obj 1841 427 sel 8;
#X obj 411 921 s display-message;
#X obj 457 847 text get menu-labels;
#X obj 457 865 symbol;
#X obj 411 829 text get menu-labels;
#X obj 411 847 symbol;
#X obj 410 611 r all-menu;
#X obj 410 632 unpack f f f;
#X floatatom 411 651 5 0 0 0 - - - 0;
#X obj 411 669 - 1;
#X obj 411 690 * 8;
#X obj 411 810 f;
#X obj 537 829 f;
#X msg 411 882 0 10 #000000 #ffffff center \$1;
#X msg 416 901 0 10 #ffffff #000000 center \$1;
#X obj 411 711 t b b f;
#X floatatom 450 759 5 0 0 0 - - - 0;
#X floatatom 412 757 5 0 0 0 - - - 0;
#X obj 412 776 sel 1;
#X obj 412 793 bng 16 250 50 0 empty empty empty 0 -8 0 10 #fcfcfc #000000 #000000;
#X obj 536 811 bng 16 250 50 0 empty empty empty 0 -8 0 10 #fcfcfc #000000 #000000;
#X obj 412 737 f;
#X obj 612 921 s display-message;
#X obj 655 847 text get menu-labels;
#X obj 655 865 symbol;
#X obj 612 829 text get menu-labels;
#X obj 612 847 symbol;
#X obj 610 610 r all-menu;
#X obj 610 631 unpack f f f;
#X floatatom 611 650 5 0 0 0 - - - 0;
#X obj 611 668 - 1;
#X obj 611 689 * 8;
#X obj 612 810 f;
#X obj 738 829 f;
#X obj 611 710 t b b f;
#X floatatom 650 758 5 0 0 0 - - - 0;
#X floatatom 612 756 5 0 0 0 - - - 0;
#X obj 612 793 bng 16 250 50 0 empty empty empty 0 -8 0 10 #fcfcfc #000000 #000000;
#X obj 737 811 bng 16 250 50 0 empty empty empty 0 -8 0 10 #fcfcfc #000000 #000000;
#X obj 612 736 f;
#X obj 612 775 sel 2;
#X msg 612 882 1 10 #000000 #ffffff center \$1;
#X msg 617 901 1 10 #ffffff #000000 center \$1;
#X obj 650 733 + 1;
#X obj 812 921 s display-message;
#X obj 855 847 text get menu-labels;
#X obj 855 865 symbol;
#X obj 812 829 text get menu-labels;
#X obj 812 847 symbol;
#X obj 810 610 r all-menu;
#X obj 810 631 unpack f f f;
#X floatatom 811 650 5 0 0 0 - - - 0;
#X obj 811 668 - 1;
#X obj 811 689 * 8;
#X obj 812 810 f;
#X obj 938 829 f;
#X obj 811 710 t b b f;
#X floatatom 850 758 5 0 0 0 - - - 0;
#X floatatom 812 756 5 0 0 0 - - - 0;
#X obj 812 793 bng 16 250 50 0 empty empty empty 0 -8 0 10 #fcfcfc #000000 #000000;
#X obj 937 811 bng 16 250 50 0 empty empty empty 0 -8 0 10 #fcfcfc #000000 #000000;
#X obj 812 736 f;
#X obj 850 733 + 2;
#X msg 812 882 2 10 #000000 #ffffff center \$1;
#X msg 817 901 2 10 #ffffff #000000 center \$1;
#X obj 812 775 sel 3;
#X obj 1012 921 s display-message;
#X obj 1055 847 text get menu-labels;
#X obj 1055 865 symbol;
#X obj 1012 829 text get menu-labels;
#X obj 1012 847 symbol;
#X obj 1010 610 r all-menu;
#X obj 1010 631 unpack f f f;
#X floatatom 1011 650 5 0 0 0 - - - 0;
#X obj 1011 668 - 1;
#X obj 1011 689 * 8;
#X obj 1012 810 f;
#X obj 1138 829 f;
#X obj 1011 710 t b b f;
#X floatatom 1050 758 5 0 0 0 - - - 0;
#X floatatom 1012 756 5 0 0 0 - - - 0;
#X obj 1012 793 bng 16 250 50 0 empty empty empty 0 -8 0 10 #fcfcfc #000000 #000000;
#X obj 1137 811 bng 16 250 50 0 empty empty empty 0 -8 0 10 #fcfcfc #000000 #000000;
#X obj 1012 736 f;
#X obj 1050 733 + 3;
#X obj 1012 775 sel 4;
#X obj 1222 921 s display-message;
#X obj 1265 847 text get menu-labels;
#X obj 1265 865 symbol;
#X obj 1222 829 text get menu-labels;
#X obj 1222 847 symbol;
#X obj 1220 610 r all-menu;
#X obj 1220 631 unpack f f f;
#X floatatom 1221 650 5 0 0 0 - - - 0;
#X obj 1221 668 - 1;
#X obj 1221 689 * 8;
#X obj 1222 810 f;
#X obj 1348 829 f;
#X obj 1221 710 t b b f;
#X floatatom 1260 758 5 0 0 0 - - - 0;
#X floatatom 1222 756 5 0 0 0 - - - 0;
#X obj 1222 793 bng 16 250 50 0 empty empty empty 0 -8 0 10 #fcfcfc #000000 #000000;
#X obj 1347 811 bng 16 250 50 0 empty empty empty 0 -8 0 10 #fcfcfc #000000 #000000;
#X obj 1222 736 f;
#X obj 1260 733 + 4;
#X obj 1222 775 sel 5;
#X msg 1012 882 3 10 #000000 #ffffff center \$1;
#X msg 1017 901 3 10 #ffffff #000000 center \$1;
#X msg 1222 882 4 10 #000000 #ffffff center \$1;
#X msg 1227 901 4 10 #ffffff #000000 center \$1;
#X obj 1432 921 s display-message;
#X obj 1475 847 text get menu-labels;
#X obj 1475 865 symbol;
#X obj 1432 829 text get menu-labels;
#X obj 1432 847 symbol;
#X obj 1430 610 r all-menu;
#X obj 1430 631 unpack f f f;
#X floatatom 1431 650 5 0 0 0 - - - 0;
#X obj 1431 668 - 1;
#X obj 1431 689 * 8;
#X obj 1432 810 f;
#X obj 1558 829 f;
#X obj 1431 710 t b b f;
#X floatatom 1470 758 5 0 0 0 - - - 0;
#X floatatom 1432 756 5 0 0 0 - - - 0;
#X obj 1432 793 bng 16 250 50 0 empty empty empty 0 -8 0 10 #fcfcfc #000000 #000000;
#X obj 1557 811 bng 16 250 50 0 empty empty empty 0 -8 0 10 #fcfcfc #000000 #000000;
#X obj 1432 736 f;
#X obj 1470 733 + 5;
#X obj 1432 775 sel 6;
#X msg 1432 882 5 10 #000000 #ffffff center \$1;
#X msg 1437 901 5 10 #ffffff #000000 center \$1;
#X obj 1632 921 s display-message;
#X obj 1675 847 text get menu-labels;
#X obj 1675 865 symbol;
#X obj 1632 829 text get menu-labels;
#X obj 1632 847 symbol;
#X obj 1630 610 r all-menu;
#X obj 1630 631 unpack f f f;
#X floatatom 1631 650 5 0 0 0 - - - 0;
#X obj 1631 668 - 1;
#X obj 1631 689 * 8;
#X obj 1632 810 f;
#X obj 1758 829 f;
#X obj 1631 710 t b b f;
#X floatatom 1670 758 5 0 0 0 - - - 0;
#X floatatom 1632 756 5 0 0 0 - - - 0;
#X obj 1632 793 bng 16 250 50 0 empty empty empty 0 -8 0 10 #fcfcfc #000000 #000000;
#X obj 1757 811 bng 16 250 50 0 empty empty empty 0 -8 0 10 #fcfcfc #000000 #000000;
#X obj 1632 736 f;
#X obj 1670 733 + 6;
#X obj 1632 775 sel 7;
#X msg 1632 882 6 10 #000000 #ffffff center \$1;
#X msg 1637 901 6 10 #ffffff #000000 center \$1;
#X obj 1842 921 s display-message;
#X obj 1885 847 text get menu-labels;
#X obj 1885 865 symbol;
#X obj 1842 829 text get menu-labels;
#X obj 1842 847 symbol;
#X obj 1840 610 r all-menu;
#X obj 1840 631 unpack f f f;
#X floatatom 1841 650 5 0 0 0 - - - 0;
#X obj 1841 668 - 1;
#X obj 1841 689 * 8;
#X obj 1842 810 f;
#X obj 1968 829 f;
#X obj 1841 710 t b b f;
#X floatatom 1880 758 5 0 0 0 - - - 0;
#X floatatom 1842 756 5 0 0 0 - - - 0;
#X obj 1842 793 bng 16 250 50 0 empty empty empty 0 -8 0 10 #fcfcfc #000000 #000000;
#X obj 1967 811 bng 16 250 50 0 empty empty empty 0 -8 0 10 #fcfcfc #000000 #000000;
#X obj 1842 736 f;
#X obj 1880 733 + 7;
#X obj 1842 775 sel 8;
#X msg 1842 882 7 10 #000000 #ffffff center \$1;
#X msg 1847 901 7 10 #ffffff #000000 center \$1;
#X floatatom 148 146 5 0 0 1 CPU% CPU - 24;
#X obj 23 487 s all-menu;
#X obj 23 422 loadbang;
#X msg 23 464 1 8 8;
#X text 84 421 <--loads menu 8 + submenu 8 at startup;
#X msg 660 167 2 \\\; - \\\; - \\\; - \\\; - \\\; - \\\; - \\\; - \\\; - \\\; - \\\; - \\\; - \\\; - \\\; - \\\; - \\\; - \\\; - \\\; - \\\; - \\\; - \\\; - \\\; - \\\; - \\\; - \\\; - \\\; - \\\; - \\\; - \\\; - \\\; - \\\; - \\\; - \\\; - \\\; - \\\; - \\\; - \\\; - \\\; - \\\; - \\\; - \\\; - \\\; - \\\; - \\\; - \\\; - \\\; - \\\; - \\\; - \\\; - \\\; - \\\; - \\\; - \\\; - \\\; - \\\; - \\\; - \\\; - \\\; - \\\; - \\\; - \\\; - \\\; - \\\; - \\\; - \\\; - \\\; - \\\; - \\\; - \\\; - \\\; - \\\; - \\\; - \\\; - \\\; - \\\; - \\\; - \\\; - \\\; - \\\; - \\\; - \\\; - \\\; - \\\; - \\\; - \\\; - \\\; - \\\; - \\\; - \\\; - \\\; - \\\; - \\\; - \\\; - \\\; - \\\; - \\\; - \\\; - \\\; - \\\; - \\\; - \\\; - \\\; - \\\; - \\\; - \\\; - \\\; - \\\; - \\\; - \\\; - \\\; - \\\; - \\\; - \\\; - \\\; - \\\; - \\\; - \\\; - \\\; - \\\; - \\\; - \\\; - \\\; - \\\; - \\\; - \\\; - \\\; - \\\; - \\\; - \\\; - \\\; - \\\; - \\\; - \\\; - \\\; - \\\; - \\\; - \\\; - \\\; - \\\; - \\\; - \\\; - \\\; - \\\; - \\\; - \\\; - \\\; - \\\; - \\\; - \\\; - \\\; - \\\; - \\\; - \\\; - \\\; - \\\; - \\\; - \\\; - \\\; - \\\; - \\\; - \\\; - \\\; - \\\; - \\\; - \\\; - \\\; - \\\; - \\\; - \\\; - \\\; - \\\; - \\\; - \\\; - \\\; - \\\; - \\\; - \\\; - \\\; - \\\; - \\\; - \\\; - \\\; - \\\; - \\\; - \\\; - \\\; - \\\; - \\\; - \\\; - \\\; - \\\; - \\\; - \\\; - \\\; - \\\; - \\\; - \\\; - \\\; - \\\; - \\\; - \\\; - \\\; - \\\; - \\\; - \\\; - \\\; - \\\; - \\\; - \\\; - \\\; - \\\; - \\\; - \\\; - \\\; - \\\; - \\\; - \\\; - \\\; - \\\; - \\\; - \\\; - \\\; - \\\; - \\\; - \\\; - \\\; - \\\;, f 113;
#X obj 23 443 del 100;
#X obj 596 35 s display-message;
#X msg 596 16 0 0 #5f503e #000000 center PATCH:\$1;
#X connect 1 0 2 0;
#X connect 3 0 1 0;
#X connect 4 0 2 0;
#X connect 6 0 323 0;
#X connect 8 0 10 0;
#X connect 15 0 9 0;
#X connect 16 0 15 0;
#X connect 20 0 32 0;
#X connect 21 0 5 0;
#X connect 22 0 5 0;
#X connect 23 0 24 0;
#X connect 24 0 21 0;
#X connect 25 0 23 0;
#X connect 26 0 27 0;
#X connect 27 0 22 0;
#X connect 28 0 31 0;
#X connect 28 1 29 0;
#X connect 29 0 30 1;
#X connect 31 0 30 0;
#X connect 32 0 28 0;
#X connect 32 1 29 1;
#X connect 34 0 320 0;
#X connect 35 0 26 0;
#X connect 38 0 39 0;
#X connect 39 0 43 0;
#X connect 40 0 41 0;
#X connect 41 0 42 0;
#X connect 42 0 37 0;
#X connect 43 0 37 0;
#X connect 44 0 40 0;
#X connect 46 0 47 0;
#X connect 47 0 51 0;
#X connect 48 0 49 0;
#X connect 49 0 50 0;
#X connect 50 0 45 0;
#X connect 51 0 45 0;
#X connect 52 0 48 0;
#X connect 54 0 55 0;
#X connect 55 0 60 0;
#X connect 56 0 57 0;
#X connect 57 0 59 0;
#X connect 58 0 56 0;
#X connect 59 0 53 0;
#X connect 60 0 53 0;
#X connect 62 0 63 0;
#X connect 63 0 67 0;
#X connect 64 0 65 0;
#X connect 65 0 66 0;
#X connect 66 0 61 0;
#X connect 67 0 61 0;
#X connect 68 0 64 0;
#X connect 69 0 72 0;
#X connect 70 0 71 0;
#X connect 71 0 73 0;
#X connect 72 0 70 0;
#X connect 73 0 35 0;
#X connect 73 1 25 0;
#X connect 74 0 38 0;
#X connect 75 0 46 0;
#X connect 76 0 54 0;
#X connect 77 0 62 0;
#X connect 78 0 81 0;
#X connect 79 0 80 0;
#X connect 80 0 82 0;
#X connect 81 0 79 0;
#X connect 82 0 44 0;
#X connect 82 1 74 0;
#X connect 83 0 86 0;
#X connect 84 0 85 0;
#X connect 85 0 87 0;
#X connect 86 0 84 0;
#X connect 87 0 52 0;
#X connect 87 1 75 0;
#X connect 88 0 91 0;
#X connect 89 0 90 0;
#X connect 90 0 92 0;
#X connect 91 0 89 0;
#X connect 92 0 58 0;
#X connect 92 1 76 0;
#X connect 93 0 96 0;
#X connect 94 0 95 0;
#X connect 95 0 97 0;
#X connect 96 0 94 0;
#X connect 97 0 68 0;
#X connect 97 1 77 0;
#X connect 99 0 100 0;
#X connect 100 0 126 0;
#X connect 101 0 102 0;
#X connect 102 0 125 0;
#X connect 104 0 105 0;
#X connect 105 0 128 0;
#X connect 106 0 107 0;
#X connect 107 0 127 0;
#X connect 109 0 110 0;
#X connect 110 0 130 0;
#X connect 111 0 112 0;
#X connect 112 0 129 0;
#X connect 113 0 116 0;
#X connect 114 0 115 0;
#X connect 115 0 137 0;
#X connect 116 0 114 0;
#X connect 117 0 120 0;
#X connect 118 0 119 0;
#X connect 119 0 138 0;
#X connect 120 0 118 0;
#X connect 121 0 124 0;
#X connect 122 0 123 0;
#X connect 123 0 139 0;
#X connect 124 0 122 0;
#X connect 125 0 98 0;
#X connect 126 0 98 0;
#X connect 127 0 103 0;
#X connect 128 0 103 0;
#X connect 129 0 108 0;
#X connect 130 0 108 0;
#X connect 131 0 101 0;
#X connect 132 0 99 0;
#X connect 133 0 106 0;
#X connect 134 0 104 0;
#X connect 135 0 111 0;
#X connect 136 0 109 0;
#X connect 137 0 131 0;
#X connect 137 1 132 0;
#X connect 138 0 133 0;
#X connect 138 1 134 0;
#X connect 139 0 135 0;
#X connect 139 1 136 0;
#X connect 141 0 142 0;
#X connect 142 0 153 0;
#X connect 143 0 144 0;
#X connect 144 0 152 0;
#X connect 145 0 146 0;
#X connect 146 1 147 0;
#X connect 146 2 160 1;
#X connect 147 0 148 0;
#X connect 148 0 149 0;
#X connect 149 0 154 0;
#X connect 150 0 143 0;
#X connect 151 0 141 0;
#X connect 152 0 140 0;
#X connect 153 0 140 0;
#X connect 154 0 160 0;
#X connect 154 2 155 0;
#X connect 155 0 150 1;
#X connect 155 0 151 1;
#X connect 156 0 157 0;
#X connect 157 0 158 0;
#X connect 157 1 159 0;
#X connect 158 0 150 0;
#X connect 159 0 151 0;
#X connect 160 0 156 0;
#X connect 162 0 163 0;
#X connect 163 0 181 0;
#X connect 164 0 165 0;
#X connect 165 0 180 0;
#X connect 166 0 167 0;
#X connect 167 1 168 0;
#X connect 167 2 178 1;
#X connect 168 0 169 0;
#X connect 169 0 170 0;
#X connect 170 0 173 0;
#X connect 171 0 164 0;
#X connect 172 0 162 0;
#X connect 173 0 178 0;
#X connect 173 2 182 0;
#X connect 174 0 171 1;
#X connect 174 0 172 1;
#X connect 175 0 179 0;
#X connect 176 0 171 0;
#X connect 177 0 172 0;
#X connect 178 0 175 0;
#X connect 179 0 176 0;
#X connect 179 1 177 0;
#X connect 180 0 161 0;
#X connect 181 0 161 0;
#X connect 182 0 174 0;
#X connect 184 0 185 0;
#X connect 185 0 203 0;
#X connect 186 0 187 0;
#X connect 187 0 202 0;
#X connect 188 0 189 0;
#X connect 189 1 190 0;
#X connect 189 2 200 1;
#X connect 190 0 191 0;
#X connect 191 0 192 0;
#X connect 192 0 195 0;
#X connect 193 0 186 0;
#X connect 194 0 184 0;
#X connect 195 0 200 0;
#X connect 195 2 201 0;
#X connect 196 0 193 1;
#X connect 196 0 194 1;
#X connect 197 0 204 0;
#X connect 198 0 193 0;
#X connect 199 0 194 0;
#X connect 200 0 197 0;
#X connect 201 0 196 0;
#X connect 202 0 183 0;
#X connect 203 0 183 0;
#X connect 204 0 198 0;
#X connect 204 1 199 0;
#X connect 206 0 207 0;
#X connect 207 0 246 0;
#X connect 208 0 209 0;
#X connect 209 0 245 0;
#X connect 210 0 211 0;
#X connect 211 1 212 0;
#X connect 211 2 222 1;
#X connect 212 0 213 0;
#X connect 213 0 214 0;
#X connect 214 0 217 0;
#X connect 215 0 208 0;
#X connect 216 0 206 0;
#X connect 217 0 222 0;
#X connect 217 2 223 0;
#X connect 218 0 215 1;
#X connect 218 0 216 1;
#X connect 219 0 224 0;
#X connect 220 0 215 0;
#X connect 221 0 216 0;
#X connect 222 0 219 0;
#X connect 223 0 218 0;
#X connect 224 0 220 0;
#X connect 224 1 221 0;
#X connect 226 0 227 0;
#X connect 227 0 248 0;
#X connect 228 0 229 0;
#X connect 229 0 247 0;
#X connect 230 0 231 0;
#X connect 231 1 232 0;
#X connect 231 2 242 1;
#X connect 232 0 233 0;
#X connect 233 0 234 0;
#X connect 234 0 237 0;
#X connect 235 0 228 0;
#X connect 236 0 226 0;
#X connect 237 0 242 0;
#X connect 237 2 243 0;
#X connect 238 0 235 1;
#X connect 238 0 236 1;
#X connect 239 0 244 0;
#X connect 240 0 235 0;
#X connect 241 0 236 0;
#X connect 242 0 239 0;
#X connect 243 0 238 0;
#X connect 244 0 240 0;
#X connect 244 1 241 0;
#X connect 245 0 205 0;
#X connect 246 0 205 0;
#X connect 247 0 225 0;
#X connect 248 0 225 0;
#X connect 250 0 251 0;
#X connect 251 0 270 0;
#X connect 252 0 253 0;
#X connect 253 0 269 0;
#X connect 254 0 255 0;
#X connect 255 1 256 0;
#X connect 255 2 266 1;
#X connect 256 0 257 0;
#X connect 257 0 258 0;
#X connect 258 0 261 0;
#X connect 259 0 252 0;
#X connect 260 0 250 0;
#X connect 261 0 266 0;
#X connect 261 2 267 0;
#X connect 262 0 259 1;
#X connect 262 0 260 1;
#X connect 263 0 268 0;
#X connect 264 0 259 0;
#X connect 265 0 260 0;
#X connect 266 0 263 0;
#X connect 267 0 262 0;
#X connect 268 0 264 0;
#X connect 268 1 265 0;
#X connect 269 0 249 0;
#X connect 270 0 249 0;
#X connect 272 0 273 0;
#X connect 273 0 292 0;
#X connect 274 0 275 0;
#X connect 275 0 291 0;
#X connect 276 0 277 0;
#X connect 277 1 278 0;
#X connect 277 2 288 1;
#X connect 278 0 279 0;
#X connect 279 0 280 0;
#X connect 280 0 283 0;
#X connect 281 0 274 0;
#X connect 282 0 272 0;
#X connect 283 0 288 0;
#X connect 283 2 289 0;
#X connect 284 0 281 1;
#X connect 284 0 282 1;
#X connect 285 0 290 0;
#X connect 286 0 281 0;
#X connect 287 0 282 0;
#X connect 288 0 285 0;
#X connect 289 0 284 0;
#X connect 290 0 286 0;
#X connect 290 1 287 0;
#X connect 291 0 271 0;
#X connect 292 0 271 0;
#X connect 294 0 295 0;
#X connect 295 0 314 0;
#X connect 296 0 297 0;
#X connect 297 0 313 0;
#X connect 298 0 299 0;
#X connect 299 1 300 0;
#X connect 299 2 310 1;
#X connect 300 0 301 0;
#X connect 301 0 302 0;
#X connect 302 0 305 0;
#X connect 303 0 296 0;
#X connect 304 0 294 0;
#X connect 305 0 310 0;
#X connect 305 2 311 0;
#X connect 306 0 303 1;
#X connect 306 0 304 1;
#X connect 307 0 312 0;
#X connect 308 0 303 0;
#X connect 309 0 304 0;
#X connect 310 0 307 0;
#X connect 311 0 306 0;
#X connect 312 0 308 0;
#X connect 312 1 309 0;
#X connect 313 0 293 0;
#X connect 314 0 293 0;
#X connect 317 0 321 0;
#X connect 318 0 316 0;
#X connect 320 0 33 0;
#X connect 321 0 318 0;
#X connect 323 0 322 0;
#X coords 0 -1 1 1 220 115 2 100 100;
#X restore 100 -65 pd network-communicator;
#X obj 100 -218 push-mk1;
#X obj 252 557 s SAVE-S;
#X obj 267 591 s delete-current;
#X obj 227 502 t b b b;
#X obj 186 593 s write-sv-txt;
#X obj 337 268 core_state_saving \$0 \$1 \$2 \$3;
#X obj 337 287 core_options \$0 \$1 \$2 \$3;
#N canvas 92 117 843 448 saving 0;
#X obj 109 20 r saving-data;
#X obj 109 135 text insert save-data;
#X msg 194 115 1e+09;
#X obj 194 95 loadbang;
#X obj 25 160 bng 16 250 50 0 empty empty empty 0 -8 0 10 #fcfcfc #000000 #000000;
#X obj 25 137 t b b;
#X obj 25 117 bng 16 250 50 0 empty empty empty 0 -8 0 10 #fcfcfc #000000 #000000;
#X msg 45 160 line 0;
#X obj 25 206 s saving-data-s;
#X obj 25 180 text sequence save-data -g;
#X obj 25 98 loadbang;
#X obj 263 135 s reload-saving;
#X obj 263 98 bng 16 250 50 0 empty empty empty 0 -8 0 10 #fcfcfc #000000 #000000;
#X msg 327 70 -1;
#X obj 327 94 text delete save-data;
#X obj 326 45 r delete-current;
#X obj 581 17 loadbang;
#X obj 588 246 f;
#X obj 588 225 t b b b;
#X text 688 193 INSTANCE NUMBER;
#X obj 600 127 t f f f;
#X obj 588 201 bng 15 250 50 0 empty empty empty 17 7 0 10 #fcfcfc #000000 #000000;
#X obj 1012 282 r patch-path;
#X msg 973 347 read /Users/johannklug/Documents/Bass\ Dieter/2025/Diet/MODULAR_LIVE_\ PERFORMER/preset_projects/MOLIPE_DRUMS/statesave/project-saving.txt;
#X obj 630 91 s update-path;
#X msg 588 349 write /Users/johannklug/Documents/Bass\ Dieter/2025/Diet/MODULAR_LIVE_\ PERFORMER/preset_projects/MOLIPE_DRUMS/statesave/project-saving.txt;
#X obj 626 267 r patch-path;
#X obj 588 267 t b f;
#X obj 973 266 f;
#X obj 973 287 t b f;
#X obj 691 175 s \$1-instance-num;
#X obj 691 139 makefilename %d;
#X msg 691 157 label \$1;
#X obj 581 50 t b b b b;
#X obj 600 91 f \$2;
#X obj 668 226 s \$1-instance-num-2;
#X obj 496 73 bng 16 250 50 0 empty empty empty 0 -8 0 10 #fcfcfc #000000 #000000;
#X obj 569 156 r write-sv-txt;
#X obj 598 308 pack f s f;
#X obj 984 307 pack f s f;
#X obj 588 437 array define scene1 5000;
#X msg 598 328 set write \$2/statesave/project-saving.txt;
#X msg 984 326 set read \$2/statesave/project-saving.txt;
#X connect 0 0 1 0;
#X connect 2 0 1 1;
#X connect 3 0 2 0;
#X connect 4 0 9 0;
#X connect 5 0 4 0;
#X connect 5 1 7 0;
#X connect 6 0 5 0;
#X connect 7 0 9 0;
#X connect 9 0 8 0;
#X connect 10 0 6 0;
#X connect 12 0 11 0;
#X connect 13 0 14 0;
#X connect 15 0 13 0;
#X connect 16 0 33 0;
#X connect 17 0 27 0;
#X connect 18 0 17 0;
#X connect 20 0 17 1;
#X connect 20 1 28 0;
#X connect 20 2 31 0;
#X connect 20 2 35 0;
#X connect 21 0 18 0;
#X connect 22 0 39 1;
#X connect 23 0 40 0;
#X connect 25 0 40 0;
#X connect 26 0 38 1;
#X connect 27 0 25 0;
#X connect 27 1 38 0;
#X connect 28 0 29 0;
#X connect 29 0 23 0;
#X connect 29 1 39 0;
#X connect 31 0 32 0;
#X connect 32 0 30 0;
#X connect 33 1 34 0;
#X connect 33 2 24 0;
#X connect 34 0 20 0;
#X connect 36 0 33 0;
#X connect 37 0 21 0;
#X connect 38 0 41 0;
#X connect 39 0 42 0;
#X connect 41 0 25 0;
#X connect 42 0 23 0;
#X restore 331 -177 pd saving;
#X obj -7 33 loadbang;
#X obj -7 54 del 100;
#X msg -7 73 0;
#X connect 4 0 92 0;
#X connect 5 0 89 0;
#X connect 6 0 8 0;
#X connect 7 0 86 0;
#X connect 8 0 13 0;
#X connect 9 0 22 0;
#X connect 9 0 33 0;
#X connect 9 0 42 0;
#X connect 9 0 63 0;
#X connect 9 1 7 0;
#X connect 9 1 49 0;
#X connect 9 1 174 0;
#X connect 9 1 119 0;
#X connect 10 0 16 0;
#X connect 10 0 21 0;
#X connect 11 0 12 0;
#X connect 12 0 13 0;
#X connect 12 1 13 1;
#X connect 13 0 24 0;
#X connect 16 0 17 0;
#X connect 17 0 19 0;
#X connect 18 0 11 0;
#X connect 19 0 18 0;
#X connect 20 1 9 0;
#X connect 21 0 11 0;
#X connect 22 0 23 0;
#X connect 23 0 5 1;
#X connect 24 0 25 0;
#X connect 25 0 20 0;
#X connect 26 0 56 0;
#X connect 26 0 83 0;
#X connect 26 0 93 0;
#X connect 26 0 179 0;
#X connect 29 0 90 0;
#X connect 30 0 31 0;
#X connect 32 0 30 0;
#X connect 33 0 34 0;
#X connect 34 0 29 1;
#X connect 38 0 91 0;
#X connect 39 0 40 0;
#X connect 41 0 39 0;
#X connect 42 0 43 0;
#X connect 43 0 38 1;
#X connect 45 0 46 0;
#X connect 45 1 47 0;
#X connect 46 0 48 0;
#X connect 47 0 48 0;
#X connect 50 0 51 0;
#X connect 52 0 57 0;
#X connect 53 0 52 1;
#X connect 53 0 182 0;
#X connect 54 0 51 0;
#X connect 55 0 51 0;
#X connect 56 0 59 0;
#X connect 56 1 55 0;
#X connect 57 0 58 0;
#X connect 57 0 60 0;
#X connect 58 0 57 1;
#X connect 59 0 57 1;
#X connect 60 0 54 0;
#X connect 60 0 50 0;
#X connect 60 1 50 0;
#X connect 62 0 52 0;
#X connect 63 0 64 0;
#X connect 64 0 65 1;
#X connect 65 0 62 0;
#X connect 67 0 68 0;
#X connect 67 1 70 0;
#X connect 68 0 69 0;
#X connect 69 0 65 0;
#X connect 70 0 65 0;
#X connect 71 0 5 0;
#X connect 72 0 29 0;
#X connect 73 0 38 0;
#X connect 74 0 26 0;
#X connect 75 0 67 0;
#X connect 76 0 45 0;
#X connect 77 0 79 0;
#X connect 77 0 181 0;
#X connect 78 0 68 1;
#X connect 84 0 51 1;
#X connect 86 0 88 0;
#X connect 88 0 87 0;
#X connect 89 0 80 0;
#X connect 89 0 178 0;
#X connect 90 0 32 0;
#X connect 91 0 41 0;
#X connect 91 0 82 0;
#X connect 94 0 175 0;
#X connect 95 0 6 0;
#X connect 96 0 77 0;
#X connect 117 0 118 0;
#X connect 119 0 180 0;
#X connect 133 0 117 0;
#X connect 134 0 135 0;
#X connect 136 0 134 0;
#X connect 138 0 139 0;
#X connect 139 0 140 0;
#X connect 141 0 138 0;
#X connect 143 0 160 0;
#X connect 144 0 145 0;
#X connect 145 0 146 0;
#X connect 146 0 143 0;
#X connect 147 0 162 0;
#X connect 148 0 149 0;
#X connect 149 0 150 0;
#X connect 150 0 147 0;
#X connect 151 0 164 0;
#X connect 152 0 153 0;
#X connect 153 0 154 0;
#X connect 154 0 151 0;
#X connect 155 0 166 0;
#X connect 156 0 157 0;
#X connect 157 0 158 0;
#X connect 158 0 155 0;
#X connect 159 0 144 0;
#X connect 161 0 148 0;
#X connect 163 0 152 0;
#X connect 165 0 156 0;
#X connect 171 0 120 0;
#X connect 171 1 121 0;
#X connect 171 2 122 0;
#X connect 171 3 123 0;
#X connect 171 4 124 0;
#X connect 171 5 125 0;
#X connect 171 6 126 0;
#X connect 171 7 127 0;
#X connect 175 0 177 0;
#X connect 177 0 53 0;
#X connect 180 0 116 0;
#X connect 181 0 142 0;
#X connect 182 0 183 0;
#X connect 182 1 184 0;
#X connect 183 0 137 0;
#X connect 184 0 137 0;
#X connect 185 0 4 0;
#X connect 197 0 196 0;
#X connect 198 0 199 0;
#X connect 199 0 195 0;
#X connect 200 0 201 0;
#X connect 201 0 197 0;
#X connect 204 0 202 0;
#X connect 205 0 206 0;
#X connect 207 0 211 0;
#X connect 208 0 210 0;
#X connect 210 0 207 0;
#X connect 211 0 212 0;
#X connect 211 1 213 0;
#X connect 212 0 209 0;
#X connect 213 0 209 0;
#X connect 214 0 233 0;
#X connect 215 0 217 0;
#X connect 216 0 215 0;
#X connect 217 0 219 0;
#X connect 218 0 216 0;
#X connect 221 0 223 0;
#X connect 222 0 220 0;
#X connect 223 0 222 0;
#X connect 223 1 225 0;
#X connect 225 0 224 0;
#X connect 226 0 216 0;
#X connect 233 0 234 0;
#X connect 233 1 231 0;
#X connect 233 2 232 0;
#X connect 238 0 239 0;
#X connect 239 0 240 0;
#X connect 240 0 204 0;
#X coords 0 -1 1 1 220 320 1 100 100;
