#N canvas 275 25 1165 694 10;
#X obj 109 145 cnv 5 5 5 empty empty MIDI-CLOCK-OUT 0 0 0 12 #fcfcfc #404040 0;
#N canvas 155 79 958 735 state-saving-multiple-instances 0;
#X obj 223 18 loadbang;
#X obj 422 480 textfile;
#X msg 613 463 rewind;
#X msg 570 463 bang;
#X obj 119 690 textfile;
#X obj 570 444 t b b;
#X obj 120 356 f;
#X obj 135 507 f;
#X obj 66 382 t b b b;
#X msg 71 573 clear;
#X obj 281 216 outlet;
#X text 277 236 INSTANCE NUMBER;
#X obj 242 92 f \$1;
#X obj 242 128 t f f f;
#X obj 66 291 bng 15 250 50 0 empty empty empty 17 7 0 10 #fcfcfc #000000 #000000;
#X obj 66 195 r SAVE-S;
#X obj 422 549 s \$0-diet-audio-to-mix-channel-r;
#X obj 135 308 r \$0-diet-audio-to-mix-channel-s;
#X floatatom 169 365 5 0 0 0 - - - 0;
#X obj 478 343 r patch-path;
#X msg 422 402 read /Volumes/MODFORMER/patch1/statesave/1-diet-audio-to-mix-ss.txt;
#X obj 272 92 s update-path;
#X obj 223 51 t b b b;
#X msg 135 600 write /Volumes/MODFORMER/patch1/statesave/1-diet-audio-to-mix-ss.txt;
#X obj 433 362 pack f s;
#X obj 190 539 r patch-path;
#X floatatom 103 247 5 0 0 0 - - - 0;
#X msg 433 381 set read \$2/statesave/\$1-diet-audio-to-mix-ss.txt;
#X msg 145 579 set write \$2/statesave/\$1-diet-audio-to-mix-ss.txt;
#X obj 145 559 pack f s;
#X obj 135 528 t b f;
#X obj 422 321 f;
#X obj 422 342 t b f;
#X obj 159 40 bng 16 250 50 0 empty empty empty 0 -8 0 10 #fcfcfc #000000 #000000;
#X floatatom 353 530 5 0 0 0 - - - 0;
#X msg 120 438 set \$1 \$2 \$3;
#X obj 120 399 pack f f f;
#X obj 422 500 unpack f f f;
#X connect 0 0 22 0;
#X connect 1 0 37 0;
#X connect 2 0 1 0;
#X connect 3 0 1 0;
#X connect 5 0 3 0;
#X connect 5 1 2 0;
#X connect 6 0 36 0;
#X connect 7 0 30 0;
#X connect 8 0 7 0;
#X connect 8 1 6 0;
#X connect 8 2 9 0;
#X connect 9 0 4 0;
#X connect 12 0 13 0;
#X connect 13 0 7 1;
#X connect 13 1 31 0;
#X connect 13 2 10 0;
#X connect 14 0 8 0;
#X connect 15 0 14 0;
#X connect 17 0 6 1;
#X connect 17 0 18 0;
#X connect 19 0 24 1;
#X connect 20 0 1 0;
#X connect 22 0 5 0;
#X connect 22 1 12 0;
#X connect 22 2 21 0;
#X connect 23 0 4 0;
#X connect 24 0 27 0;
#X connect 25 0 29 1;
#X connect 26 0 6 1;
#X connect 27 0 20 0;
#X connect 28 0 23 0;
#X connect 29 0 28 0;
#X connect 30 0 23 0;
#X connect 30 1 29 0;
#X connect 31 0 32 0;
#X connect 32 0 20 0;
#X connect 32 1 24 0;
#X connect 33 0 22 0;
#X connect 35 0 4 0;
#X connect 36 0 35 0;
#X connect 37 0 16 0;
#X connect 37 0 34 0;
#X restore 399 86 pd state-saving-multiple-instances;
#X obj 399 163 s \$0-instance-num;
#X obj 399 115 makefilename %d;
#X obj 212 145 cnv 5 5 5 empty \$0-instance-num 1 0 0 0 12 #fcfcfc #404040 0;
#X msg 399 140 label \$1;
#N canvas 81 25 1117 745 state-saving-via-preset-manager-module 0;
#X obj 477 349 textfile;
#X msg 760 332 rewind;
#X msg 717 332 bang;
#X obj 243 690 textfile;
#X obj 717 293 t b b;
#X obj 244 356 f;
#X obj 257 579 f;
#X obj 190 422 t b b b;
#X msg 320 579 clear;
#X obj 244 399 pack f f;
#X msg 244 438 set \$1 \$2;
#X obj 477 371 unpack f f;
#X obj 244 264 delay 5;
#X obj 190 484 delay 10;
#X msg 190 314 bang;
#X obj 190 147 r STORE-S!;
#X obj 477 250 f;
#X obj 450 227 t b b;
#X obj 465 171 t b f;
#X obj 522 268 f \$1;
#X obj 477 295 pack f f;
#X obj 522 218 loadbang;
#X obj 257 609 pack f f;
#X obj 302 467 loadbang;
#X obj 302 489 f \$1;
#X obj 465 148 r preset-manager-scan;
#X obj 279 148 r preset-manager-store-slot;
#X msg 256 650 write statesave/\$1-\$2-hp-filter-ss.txt;
#X msg 477 324 read statesave/\$1-\$2-hp-filter-ss.txt;
#X obj 259 308 r \$0-highpass-freq-s;
#X obj 477 615 s \$0-highpass-freq-r;
#X obj 289 355 r \$0-highpass-fm-/+-s;
#X obj 534 517 s \$0-highpass-fm-/+-r;
#N canvas 0 22 1069 747 morph-parameters 0;
#X obj 176 94 inlet;
#X obj 176 236 pack f f;
#X obj 176 261 line;
#X obj 209 117 r preset-manager-morph-s;
#X msg 72 244 stop;
#X obj 72 214 r STOP-MORPH!;
#X obj 209 206 spigot;
#X obj 398 137 t f f;
#X obj 455 154 == 0;
#X obj 221 176 f;
#X floatatom 455 222 5 0 0 0 - - - 0;
#X obj 398 159 t b f;
#X floatatom 425 192 5 0 0 0 - - - 0;
#X obj 209 139 t f f;
#X obj 398 102 r parameters-s;
#X obj 176 288 outlet;
#X connect 0 0 1 0;
#X connect 1 0 2 0;
#X connect 2 0 15 0;
#X connect 3 0 13 0;
#X connect 4 0 2 0;
#X connect 5 0 4 0;
#X connect 6 0 1 1;
#X connect 7 0 11 0;
#X connect 7 1 8 0;
#X connect 8 0 10 0;
#X connect 9 0 6 0;
#X connect 10 0 1 1;
#X connect 11 0 9 0;
#X connect 11 1 12 0;
#X connect 12 0 6 1;
#X connect 13 0 6 0;
#X connect 13 1 9 1;
#X connect 14 0 7 0;
#X restore 477 591 pd morph-parameters;
#N canvas 0 22 1069 747 morph-attenuators 0;
#X obj 176 94 inlet;
#X obj 176 236 pack f f;
#X obj 176 261 line;
#X obj 209 117 r preset-manager-morph-s;
#X msg 72 244 stop;
#X obj 72 214 r STOP-MORPH!;
#X obj 209 206 spigot;
#X obj 398 137 t f f;
#X obj 455 154 == 0;
#X obj 221 176 f;
#X floatatom 455 222 5 0 0 0 - - - 0;
#X obj 398 159 t b f;
#X floatatom 425 192 5 0 0 0 - - - 0;
#X obj 209 139 t f f;
#X obj 398 102 r attenuators-s;
#X obj 176 288 outlet;
#X connect 0 0 1 0;
#X connect 1 0 2 0;
#X connect 2 0 15 0;
#X connect 3 0 13 0;
#X connect 4 0 2 0;
#X connect 5 0 4 0;
#X connect 6 0 1 1;
#X connect 7 0 11 0;
#X connect 7 1 8 0;
#X connect 8 0 10 0;
#X connect 9 0 6 0;
#X connect 10 0 1 1;
#X connect 11 0 9 0;
#X connect 11 1 12 0;
#X connect 12 0 6 1;
#X connect 13 0 6 0;
#X connect 13 1 9 1;
#X connect 14 0 7 0;
#X restore 534 494 pd morph-attenuators;
#X connect 0 0 11 0;
#X connect 1 0 0 0;
#X connect 2 0 0 0;
#X connect 4 0 2 0;
#X connect 4 1 1 0;
#X connect 5 0 9 0;
#X connect 6 0 22 0;
#X connect 7 0 13 0;
#X connect 7 1 12 0;
#X connect 7 2 8 0;
#X connect 8 0 3 0;
#X connect 9 0 10 0;
#X connect 10 0 3 0;
#X connect 11 0 33 0;
#X connect 11 1 34 0;
#X connect 12 0 5 0;
#X connect 13 0 6 0;
#X connect 14 0 7 0;
#X connect 15 0 14 0;
#X connect 16 0 20 0;
#X connect 17 0 4 0;
#X connect 17 1 16 0;
#X connect 18 0 17 0;
#X connect 18 1 16 1;
#X connect 19 0 20 1;
#X connect 20 0 28 0;
#X connect 21 0 19 0;
#X connect 22 0 27 0;
#X connect 23 0 24 0;
#X connect 24 0 22 1;
#X connect 25 0 18 0;
#X connect 26 0 6 1;
#X connect 27 0 3 0;
#X connect 28 0 0 0;
#X connect 29 0 5 1;
#X connect 31 0 9 1;
#X connect 33 0 30 0;
#X connect 34 0 32 0;
#X restore 401 39 pd state-saving-via-preset-manager-module;
#N canvas 297 27 335 155 parameter-nudging-system 0;
#X obj 23 67 clip 0 127;
#X obj 171 67 clip 0 127;
#X obj 23 22 r \$0-highpass-freq-s;
#X obj 23 95 s \$0-highpass-freq-r;
#X obj 171 22 r \$0-highpass-fm-/+-s;
#X obj 171 95 s \$0-highpass-fm-/+-r;
#N canvas 0 22 484 497 nudge-parameters 0;
#X obj 124 234 random;
#X obj 232 335 f;
#X obj 232 368 +;
#X obj 257 166 random 2;
#X obj 124 275 t f f;
#X obj 124 351 t b f;
#X obj 124 297 *;
#X obj 257 188 sel 0 1;
#X msg 257 280 -1;
#X msg 335 280 1;
#X obj 124 149 t b b b;
#X obj 124 74 r NUDGE!;
#X obj 157 193 r NUDGE-RANGE;
#X obj 247 308 inlet;
#X obj 232 397 outlet;
#X obj 124 96 spigot;
#X obj 185 79 r parameters2-s;
#X connect 0 0 4 0;
#X connect 1 0 2 0;
#X connect 2 0 14 0;
#X connect 3 0 7 0;
#X connect 4 0 6 0;
#X connect 5 0 2 0;
#X connect 5 1 2 1;
#X connect 6 0 5 0;
#X connect 7 0 8 0;
#X connect 7 1 9 0;
#X connect 8 0 6 1;
#X connect 9 0 6 1;
#X connect 10 0 0 0;
#X connect 10 1 1 0;
#X connect 10 2 3 0;
#X connect 11 0 15 0;
#X connect 12 0 0 1;
#X connect 13 0 1 1;
#X connect 15 0 10 0;
#X connect 16 0 15 1;
#X restore 23 45 pd nudge-parameters;
#N canvas 0 22 484 497 nudge-attenuators 0;
#X obj 124 234 random;
#X obj 232 335 f;
#X obj 232 368 +;
#X obj 257 166 random 2;
#X obj 124 275 t f f;
#X obj 124 351 t b f;
#X obj 124 297 *;
#X obj 257 188 sel 0 1;
#X msg 257 280 -1;
#X msg 335 280 1;
#X obj 124 149 t b b b;
#X obj 124 71 r NUDGE!;
#X obj 157 193 r NUDGE-RANGE;
#X obj 247 308 inlet;
#X obj 232 397 outlet;
#X obj 124 93 spigot;
#X obj 201 76 r attenuators2-s;
#X connect 0 0 4 0;
#X connect 1 0 2 0;
#X connect 2 0 14 0;
#X connect 3 0 7 0;
#X connect 4 0 6 0;
#X connect 5 0 2 0;
#X connect 5 1 2 1;
#X connect 6 0 5 0;
#X connect 7 0 8 0;
#X connect 7 1 9 0;
#X connect 8 0 6 1;
#X connect 9 0 6 1;
#X connect 10 0 0 0;
#X connect 10 1 1 0;
#X connect 10 2 3 0;
#X connect 11 0 15 0;
#X connect 12 0 0 1;
#X connect 13 0 1 1;
#X connect 15 0 10 0;
#X connect 16 0 15 1;
#X restore 171 45 pd nudge-attenuators;
#X connect 0 0 3 0;
#X connect 1 0 5 0;
#X connect 2 0 6 0;
#X connect 4 0 7 0;
#X connect 6 0 0 0;
#X connect 7 0 1 0;
#X restore 401 61 pd parameter-nudging-system;
#N canvas 632 73 749 752 external-messages 0;
#X floatatom 186 706 5 0 0 0 - - - 0;
#X obj 185 328 spigot;
#X obj 218 288 tgl 15 0 empty empty empty 17 7 0 10 #fcfcfc #000000 #000000 0 1;
#X obj 254 272 ==;
#X obj 269 248 f \$1;
#X obj 269 224 loadbang;
#X msg 185 202 \$1 \$2;
#X msg 185 156 symbol \$1;
#X obj 185 180 pack s f;
#X obj 186 685 f;
#X obj 186 633 t b f;
#X obj 186 656 spigot;
#X obj 185 62 unpack s f f;
#X symbolatom 185 94 10 0 0 0 - - - 0;
#X obj 218 308 t f f;
#X obj 245 332 s \$0-msg-spigot;
#X obj 234 640 r \$0-msg-spigot;
#X floatatom 223 594 5 0 0 0 - - - 0;
#X obj 223 573 f;
#X obj 223 521 t b f;
#X obj 223 544 spigot;
#X obj 271 528 r \$0-msg-spigot;
#X obj 185 14 r highpass-filter;
#X obj 185 380 route FREQ FM-/+;
#X obj 186 726 s \$0-highpass-freq-r;
#X obj 223 614 s \$0-highpass-fm-/+-r;
#X connect 0 0 24 0;
#X connect 1 0 23 0;
#X connect 2 0 14 0;
#X connect 3 0 2 0;
#X connect 4 0 3 1;
#X connect 5 0 4 0;
#X connect 6 0 1 0;
#X connect 7 0 8 0;
#X connect 8 0 6 0;
#X connect 9 0 0 0;
#X connect 10 0 11 0;
#X connect 10 1 9 1;
#X connect 11 0 9 0;
#X connect 12 0 13 0;
#X connect 12 1 8 1;
#X connect 12 2 3 0;
#X connect 13 0 7 0;
#X connect 14 0 1 1;
#X connect 14 1 15 0;
#X connect 16 0 11 1;
#X connect 17 0 25 0;
#X connect 18 0 17 0;
#X connect 19 0 20 0;
#X connect 19 1 18 1;
#X connect 20 0 18 0;
#X connect 21 0 20 1;
#X connect 22 0 12 0;
#X connect 23 0 10 0;
#X connect 23 1 19 0;
#X restore 401 14 pd external-messages;
#X msg 567 566 248;
#X obj 531 620 midiout;
#X obj 542 375 spigot 0;
#X obj 587 338 tgl 16 0 empty empty CLOCK\ ON/OFF 0 -8 0 10 #fcfcfc #000000 #000000 0 1;
#X msg 531 569 250;
#X msg 760 449 252;
#X obj 820 31 inlet~;
#X obj 820 80 t b b;
#X obj 820 53 threshold~ 0.9 0 0.9 0;
#X text 819 6 clock in;
#X obj 103 109 cnv 5 5 5 empty empty CLOCK-IN 0 0 0 8 #fcfcfc #dc4c90 0;
#X obj 245 109 cnv 5 5 5 empty empty RESET 0 0 0 8 #fcfcfc #dc4c90 0;
#X obj 251 115 bng 10 50 50 0 \$0reset-clock-gui-s \$0reset-clock-gui-r empty 17 7 0 10 #fcfcfc #fc0400 #000000;
#X obj 995 29 inlet~;
#X obj 655 421 t b b;
#X obj 995 51 threshold~ 0.9 0 0.9 0;
#X text 994 4 reset in;
#X obj 542 487 f;
#X obj 576 487 + 1;
#X msg 557 467 0;
#X obj 542 516 sel 0;
#X obj 590 267 loadbang;
#X msg 590 288 1;
#X obj 626 574 loadbang;
#X msg 626 597 2;
#X text 662 384 reset;
#X obj 541 268 t b;
#X text 534 235 clock;
#X connect 1 0 3 0;
#X connect 3 0 5 0;
#X connect 5 0 2 0;
#X connect 9 0 10 0;
#X connect 11 0 26 0;
#X connect 12 0 11 1;
#X connect 13 0 10 0;
#X connect 14 0 10 0;
#X connect 15 0 17 0;
#X connect 17 0 16 0;
#X connect 22 0 24 0;
#X connect 23 0 28 0;
#X connect 23 1 14 0;
#X connect 26 0 27 0;
#X connect 26 0 29 0;
#X connect 27 0 26 1;
#X connect 28 0 26 1;
#X connect 29 0 13 0;
#X connect 29 0 9 0;
#X connect 29 1 9 0;
#X connect 30 0 31 0;
#X connect 31 0 12 0;
#X connect 32 0 33 0;
#X connect 33 0 10 1;
#X connect 35 0 11 0;
#X coords 0 -1 1 1 175 125 2 100 100;
