#N canvas 441 25 865 550 10;
#X obj 104 111 cnv 5 5 5 empty empty MIDI-IN 0 0 0 8 #fcfcfc #404040 0;
#X obj 104 127 cnv 5 5 5 empty empty MIDI-TO-MIDI-OUT 0 0 0 12 #fcfcfc #404040 0;
#X text 248 458 Midi Panic;
#X obj 159 511 ctlout;
#X obj 159 440 until;
#X msg 159 394 16;
#X obj 198 463 + 1;
#X msg 207 440 1;
#X obj 159 462 f;
#X obj 159 417 t f b;
#X msg 159 485 123 123 \$1;
#X obj 106 137 hsl 128 15 0 127 0 0 \$0-midiout-channel-s \$0-midiout-channel-r CHANNEL 135 7 0 10 #fcfcfc #000000 #000000 0 1;
#X obj 159 264 r \$0-midiout-channel-s;
#X obj 159 286 / 127;
#X obj 159 308 * 15;
#X obj 159 330 + 1;
#X obj 159 352 i;
#X floatatom 103 152 5 0 0 0 - - - 0;
#X obj 468 484 noteout;
#N canvas 21 25 679 736 state-saving-multiple-instances 0;
#X obj 215 28 loadbang;
#X obj 261 480 textfile;
#X msg 573 463 rewind;
#X msg 530 463 bang;
#X obj 119 690 textfile;
#X obj 530 424 t b b;
#X obj 120 356 f;
#X obj 133 579 f;
#X obj 66 422 t b b b;
#X msg 196 579 clear;
#X obj 281 216 outlet;
#X text 277 236 INSTANCE NUMBER;
#X obj 242 92 f \$1;
#X obj 242 128 t f f f;
#X obj 215 61 t b b;
#X obj 66 331 bng 15 250 50 0 empty empty empty 17 7 0 10 #fcfcfc #000000 #000000;
#X obj 66 235 r SAVE-S;
#X obj 120 399 pack f f;
#X msg 120 438 set \$1 \$2;
#X obj 261 502 unpack f f;
#X obj 165 355 r \$0-midiout-channel-s;
#X obj 318 530 s \$0-midiout-channel-r;
#X msg 132 650 write statesave/\$1-midi-to-midi-out-ss.txt;
#X msg 261 455 read statesave/\$1-midi-to-midi-out-ss.txt;
#X obj 135 308 r \$0-midi-device-s;
#X obj 261 604 s \$0-midi-device-r;
#X connect 0 0 14 0;
#X connect 1 0 19 0;
#X connect 2 0 1 0;
#X connect 3 0 1 0;
#X connect 5 0 3 0;
#X connect 5 1 2 0;
#X connect 6 0 17 0;
#X connect 7 0 22 0;
#X connect 8 0 7 0;
#X connect 8 1 6 0;
#X connect 8 2 9 0;
#X connect 9 0 4 0;
#X connect 12 0 13 0;
#X connect 13 0 7 1;
#X connect 13 1 23 0;
#X connect 13 2 10 0;
#X connect 14 0 5 0;
#X connect 14 1 12 0;
#X connect 15 0 8 0;
#X connect 16 0 15 0;
#X connect 17 0 18 0;
#X connect 18 0 4 0;
#X connect 19 0 25 0;
#X connect 19 1 21 0;
#X connect 20 0 17 1;
#X connect 22 0 4 0;
#X connect 23 0 1 0;
#X connect 24 0 6 1;
#X restore 589 134 pd state-saving-multiple-instances;
#X obj 589 208 s \$0-instance-num;
#X obj 589 160 makefilename %d;
#X msg 589 185 label \$1;
#N canvas 225 22 1117 745 state-saving-via-preset-manager-module 0;
#X obj 477 349 textfile;
#X msg 734 332 rewind;
#X msg 691 332 bang;
#X obj 243 690 textfile;
#X obj 691 293 t b b;
#X obj 244 356 f;
#X obj 257 579 f;
#X obj 190 422 t b b b;
#X msg 320 579 clear;
#X obj 244 399 pack f f;
#X msg 244 438 set \$1 \$2;
#X obj 477 371 unpack f f;
#X floatatom 325 391 5 0 0 0 - - - 0;
#X obj 244 264 delay 5;
#X obj 190 484 delay 10;
#X msg 190 314 bang;
#X obj 190 147 r STORE-S!;
#X obj 477 250 f;
#X obj 450 227 t b b;
#X obj 465 171 t b f;
#X obj 522 268 f \$1;
#X obj 477 295 pack f f;
#X obj 522 218 loadbang;
#X obj 257 609 pack f f;
#X obj 302 467 loadbang;
#X obj 302 489 f \$1;
#X obj 476 566 pack f f;
#X obj 476 590 line;
#X obj 521 541 r preset-manager-morph-s;
#X obj 465 148 r preset-manager-scan;
#X obj 534 470 pack f f;
#X obj 534 494 line;
#X obj 579 445 r preset-manager-morph-s;
#X obj 279 148 r preset-manager-store-slot;
#X msg 926 576 stop;
#X obj 926 541 r STOP-MORPH!;
#X obj 259 308 r \$0-midi-out-offset-s;
#X obj 476 615 s \$0-midi-out-offset-r;
#X msg 256 650 write statesave/\$1-\$2-midi-out-ss.txt;
#X msg 477 324 read statesave/\$1-\$2-midi-out-ss.txt;
#X obj 289 355 r \$0-midiout-channel-s;
#X obj 534 517 s \$0-midiout-channel-r;
#X connect 0 0 11 0;
#X connect 1 0 0 0;
#X connect 2 0 0 0;
#X connect 4 0 2 0;
#X connect 4 1 1 0;
#X connect 5 0 9 0;
#X connect 6 0 23 0;
#X connect 7 0 14 0;
#X connect 7 1 13 0;
#X connect 7 2 8 0;
#X connect 8 0 3 0;
#X connect 9 0 10 0;
#X connect 10 0 3 0;
#X connect 11 0 26 0;
#X connect 11 1 30 0;
#X connect 13 0 5 0;
#X connect 14 0 6 0;
#X connect 15 0 7 0;
#X connect 16 0 15 0;
#X connect 17 0 21 0;
#X connect 18 0 4 0;
#X connect 18 1 17 0;
#X connect 19 0 18 0;
#X connect 19 1 17 1;
#X connect 20 0 21 1;
#X connect 21 0 39 0;
#X connect 22 0 20 0;
#X connect 23 0 38 0;
#X connect 24 0 25 0;
#X connect 25 0 23 1;
#X connect 26 0 27 0;
#X connect 27 0 37 0;
#X connect 28 0 26 1;
#X connect 29 0 19 0;
#X connect 30 0 31 0;
#X connect 31 0 41 0;
#X connect 32 0 30 1;
#X connect 33 0 6 1;
#X connect 34 0 31 0;
#X connect 34 0 27 0;
#X connect 35 0 34 0;
#X connect 36 0 5 1;
#X connect 38 0 3 0;
#X connect 39 0 0 0;
#X connect 40 0 9 1;
#X connect 40 0 12 0;
#X restore 589 90 pd state-saving-via-preset-manager-module;
#N canvas 297 27 518 295 parameter-nudging-system 0;
#N canvas 0 22 484 497 param-nudge 0;
#X obj 124 234 random;
#X obj 232 335 f;
#X obj 232 368 +;
#X obj 257 166 random 2;
#X obj 124 275 t f f;
#X obj 124 351 t b f;
#X obj 124 297 *;
#X obj 257 188 sel 0 1;
#X msg 257 280 -1;
#X msg 335 280 1;
#X obj 124 149 t b b b;
#X obj 124 123 r NUDGE!;
#X obj 157 193 r NUDGE-RANGE;
#X obj 247 308 inlet;
#X obj 232 397 outlet;
#X floatatom 316 396 5 0 0 0 - - - 0;
#X connect 0 0 4 0;
#X connect 1 0 2 0;
#X connect 2 0 14 0;
#X connect 2 0 15 0;
#X connect 3 0 7 0;
#X connect 4 0 6 0;
#X connect 5 0 2 0;
#X connect 5 1 2 1;
#X connect 6 0 5 0;
#X connect 7 0 8 0;
#X connect 7 1 9 0;
#X connect 8 0 6 1;
#X connect 9 0 6 1;
#X connect 10 0 0 0;
#X connect 10 1 1 0;
#X connect 10 2 3 0;
#X connect 11 0 10 0;
#X connect 12 0 0 1;
#X connect 13 0 1 1;
#X restore 23 45 pd param-nudge;
#N canvas 0 22 484 497 param-nudge 0;
#X obj 124 234 random;
#X obj 232 335 f;
#X obj 232 368 +;
#X obj 257 166 random 2;
#X obj 124 275 t f f;
#X obj 124 351 t b f;
#X obj 124 297 *;
#X obj 257 188 sel 0 1;
#X msg 257 280 -1;
#X msg 335 280 1;
#X obj 124 149 t b b b;
#X obj 124 123 r NUDGE!;
#X obj 157 193 r NUDGE-RANGE;
#X obj 247 308 inlet;
#X obj 232 397 outlet;
#X connect 0 0 4 0;
#X connect 1 0 2 0;
#X connect 2 0 14 0;
#X connect 3 0 7 0;
#X connect 4 0 6 0;
#X connect 5 0 2 0;
#X connect 5 1 2 1;
#X connect 6 0 5 0;
#X connect 7 0 8 0;
#X connect 7 1 9 0;
#X connect 8 0 6 1;
#X connect 9 0 6 1;
#X connect 10 0 0 0;
#X connect 10 1 1 0;
#X connect 10 2 3 0;
#X connect 11 0 10 0;
#X connect 12 0 0 1;
#X connect 13 0 1 1;
#X restore 171 45 pd param-nudge;
#X obj 23 67 clip 0 127;
#X obj 171 67 clip 0 127;
#X obj 171 22 r \$0-midiout-channel-s;
#X obj 171 95 s \$0-midiout-channel-r;
#X obj 23 22 r \$0-midi-out-offset-s;
#X obj 23 95 s \$0-midi-out-offset-r;
#X connect 0 0 2 0;
#X connect 1 0 3 0;
#X connect 2 0 7 0;
#X connect 3 0 5 0;
#X connect 4 0 1 0;
#X connect 6 0 0 0;
#X restore 589 112 pd parameter-nudging-system;
#X obj 219 127 cnv 5 5 5 empty \$0-instance-num 27 0 0 0 12 #fcfcfc #404040 0;
#X obj 466 31 inlet;
#X obj 106 177 hsl 128 15 0 127 0 0 \$0-midi-device-s \$0-midi-device-r DEVICE 135 7 0 10 #fcfcfc #000000 #000000 0 1;
#X floatatom 103 192 5 0 0 0 - - - 0;
#X obj 300 264 r \$0-midi-device-s;
#X obj 300 288 / 127;
#X obj 300 310 * 7;
#X obj 300 330 + 1;
#X obj 300 369 i;
#X obj 344 379 * 16;
#X obj 507 453 +;
#X obj 546 366 t b f;
#X floatatom 261 196 5 0 0 0 - - - 0;
#X obj 332 352 i;
#X obj 153 203 cnv 5 5 5 empty empty FINAL-CHANNEL---> 0 0 0 10 #fcfcfc #404040 0;
#X connect 4 0 8 0;
#X connect 5 0 9 0;
#X connect 6 0 8 1;
#X connect 7 0 8 1;
#X connect 8 0 6 0;
#X connect 8 0 10 0;
#X connect 9 0 4 0;
#X connect 9 1 7 0;
#X connect 10 0 3 0;
#X connect 12 0 13 0;
#X connect 13 0 14 0;
#X connect 14 0 15 0;
#X connect 15 0 16 0;
#X connect 16 0 17 0;
#X connect 17 0 5 0;
#X connect 17 0 35 0;
#X connect 19 0 21 0;
#X connect 21 0 22 0;
#X connect 22 0 20 0;
#X connect 26 0 18 0;
#X connect 29 0 30 0;
#X connect 30 0 31 0;
#X connect 31 0 32 0;
#X connect 31 0 38 0;
#X connect 32 0 33 0;
#X connect 33 0 28 0;
#X connect 34 0 36 0;
#X connect 35 0 18 2;
#X connect 35 0 37 0;
#X connect 36 0 35 0;
#X connect 36 1 35 1;
#X connect 38 0 34 0;
#X coords 0 -1 1 1 200 120 2 100 100;
