#N canvas 0 36 1280 747 10;
#X obj 448 124 tgl 15 1 \$0-param-1-s \$0-param-1-r empty 17 7 0 10 #fcfcfc #000000 #000000 0 1;
#X obj 463 124 tgl 15 1 \$0-param-2-s \$0-param-2-r empty 17 7 0 10 #fcfcfc #000000 #000000 0 1;
#X obj 423 132 cnv 5 5 5 empty empty MUTE 0 0 0 8 #fcfcfc #000000 0;
#X obj 478 124 tgl 15 1 \$0-param-3-s \$0-param-3-r empty 17 7 0 10 #fcfcfc #000000 #000000 0 1;
#X obj 493 124 tgl 15 1 \$0-param-4-s \$0-param-4-r empty 17 7 0 10 #fcfcfc #000000 #000000 0 1;
#X obj 508 124 tgl 15 1 \$0-param-5-s \$0-param-5-r empty 17 7 0 10 #fcfcfc #000000 #000000 1 1;
#X obj 523 124 tgl 15 1 \$0-param-6-s \$0-param-6-r empty 17 7 0 10 #fcfcfc #000000 #000000 1 1;
#X obj 538 124 tgl 15 1 \$0-param-7-s \$0-param-7-r empty 17 7 0 10 #fcfcfc #000000 #000000 1 1;
#X obj 553 124 tgl 15 1 \$0-param-8-s \$0-param-8-r empty 17 7 0 10 #fcfcfc #000000 #000000 1 1;
#X obj 864 154 s \$0-instance-num;
#X obj 864 116 makefilename %d;
#X msg 864 135 label \$1;
#N canvas 0 25 1440 847 state-saving-multiple-instances-with-scenes 1;
#X obj 223 -332 loadbang;
#X obj 230 -103 f;
#X obj 230 -124 t b b b;
#X obj 281 -144 outlet;
#X text 277 -124 INSTANCE NUMBER;
#X obj 242 -258 f \$1;
#X obj 242 -222 t f f f;
#X obj 230 -148 bng 15 250 50 0 empty empty empty 17 7 0 10 #fcfcfc #000000 #000000;
#X obj 230 -171 r SAVE-S;
#X obj 631 -59 r patch-path;
#X msg 575 0 read /Users/johannklug/Documents/Bass\ Dieter/2025/Diet/MODULAR_LIVE_\ PERFORMER/patch1/statesave/1-mute-group-ss.txt;
#X obj 272 -258 s update-path;
#X obj 223 -299 t b b b;
#X msg 230 0 write /Users/johannklug/Documents/Bass\ Dieter/2025/Diet/MODULAR_LIVE_\ PERFORMER/patch1/statesave/1-mute-group-ss.txt;
#X obj 586 -40 pack f s;
#X obj 285 -61 r patch-path;
#X obj 240 -41 pack f s;
#X obj 230 -82 t b f;
#X obj 575 -81 f;
#X obj 575 -60 t b f;
#X obj 229 98 array define \$0-presets 256;
#X text 885 -311 Array - Saving Rules \; -Slot 1-16 for non-scene values \; -Each Scene has 16 slots -There are 4 Scene-Slots;
#X obj 225 297 tabread \$0-presets;
#X obj 225 240 loadbang;
#X msg 225 278 1;
#X obj 225 503 tabwrite \$0-presets;
#X obj 336 465 loadbang;
#X obj 258 447 t b;
#X obj 225 483 spigot;
#X msg 258 466 0;
#X obj 294 448 del 5;
#X msg 294 467 1;
#X obj 258 427 r \$0-wait;
#X msg 336 483 1;
#X text 225 201 Reading and writing - non scene values;
#X msg 240 -21 set write \$2/statesave/\$1-mute-group-ss.txt;
#X msg 586 -21 set read \$2/statesave/\$1-mute-group-ss.txt;
#X obj 169 -253 bng 16 250 50 0 empty empty empty 0 -8 0 10 #fcfcfc #000000 #000000;
#X obj 225 408 r \$0-param-1-s;
#X obj 225 315 s \$0-param-1-r;
#X obj 425 319 tabread \$0-presets;
#X obj 425 242 loadbang;
#X obj 425 503 tabwrite \$0-presets;
#X obj 536 465 loadbang;
#X obj 458 447 t b;
#X obj 425 483 spigot;
#X msg 458 466 0;
#X obj 494 448 del 5;
#X msg 494 467 1;
#X obj 458 427 r \$0-wait;
#X msg 425 300 2;
#X msg 536 482 2;
#X obj 425 337 s \$0-param-2-r;
#X obj 425 408 r \$0-param-2-s;
#X obj 615 319 tabread \$0-presets;
#X obj 615 242 loadbang;
#X obj 615 503 tabwrite \$0-presets;
#X obj 726 465 loadbang;
#X obj 648 447 t b;
#X obj 615 483 spigot;
#X msg 648 466 0;
#X obj 684 448 del 5;
#X msg 684 467 1;
#X obj 648 427 r \$0-wait;
#X msg 615 300 3;
#X msg 726 481 3;
#X obj 615 337 s \$0-param-3-r;
#X obj 615 408 r \$0-param-3-s;
#X obj 795 319 tabread \$0-presets;
#X obj 795 242 loadbang;
#X obj 795 503 tabwrite \$0-presets;
#X obj 906 465 loadbang;
#X obj 828 447 t b;
#X obj 795 483 spigot;
#X msg 828 466 0;
#X obj 864 448 del 5;
#X msg 864 467 1;
#X obj 828 427 r \$0-wait;
#X msg 795 300 4;
#X msg 906 481 4;
#X obj 795 337 s \$0-param-4-r;
#X obj 794 408 r \$0-param-4-s;
#X obj 975 319 tabread \$0-presets;
#X obj 975 242 loadbang;
#X obj 975 503 tabwrite \$0-presets;
#X obj 1086 465 loadbang;
#X obj 1008 447 t b;
#X obj 975 483 spigot;
#X msg 1008 466 0;
#X obj 1044 448 del 5;
#X msg 1044 467 1;
#X obj 1008 427 r \$0-wait;
#X msg 975 300 5;
#X msg 1086 481 5;
#X obj 975 337 s \$0-param-5-r;
#X obj 974 408 r \$0-param-5-s;
#X obj 1165 319 tabread \$0-presets;
#X obj 1165 242 loadbang;
#X obj 1165 503 tabwrite \$0-presets;
#X obj 1276 465 loadbang;
#X obj 1198 447 t b;
#X obj 1165 483 spigot;
#X msg 1198 466 0;
#X obj 1234 448 del 5;
#X msg 1234 467 1;
#X obj 1198 427 r \$0-wait;
#X obj 1355 319 tabread \$0-presets;
#X obj 1355 242 loadbang;
#X obj 1355 503 tabwrite \$0-presets;
#X obj 1466 465 loadbang;
#X obj 1388 447 t b;
#X obj 1355 483 spigot;
#X msg 1388 466 0;
#X obj 1424 448 del 5;
#X msg 1424 467 1;
#X obj 1388 427 r \$0-wait;
#X msg 1165 300 6;
#X msg 1276 481 6;
#X obj 1164 337 s \$0-param-6-r;
#X obj 1164 408 r \$0-param-6-s;
#X msg 1355 300 7;
#X obj 1355 337 s \$0-param-7-r;
#X obj 1354 408 r \$0-param-7-s;
#X msg 1466 481 7;
#X obj 1525 319 tabread \$0-presets;
#X obj 1525 242 loadbang;
#X obj 1525 503 tabwrite \$0-presets;
#X obj 1636 465 loadbang;
#X obj 1558 447 t b;
#X obj 1525 483 spigot;
#X msg 1558 466 0;
#X obj 1594 448 del 5;
#X msg 1594 467 1;
#X obj 1558 427 r \$0-wait;
#X msg 1525 300 8;
#X obj 1525 337 s \$0-param-8-r;
#X obj 1524 408 r \$0-param-8-s;
#X msg 1636 481 8;
#X obj 225 258 t b b;
#X obj 252 278 s \$0-wait;
#X obj 425 270 t b b;
#X obj 452 290 s \$0-wait;
#X obj 615 270 t b b;
#X obj 642 290 s \$0-wait;
#X obj 795 270 t b b;
#X obj 822 290 s \$0-wait;
#X obj 975 270 t b b;
#X obj 1002 290 s \$0-wait;
#X obj 1165 270 t b b;
#X obj 1192 290 s \$0-wait;
#X obj 1355 270 t b b;
#X obj 1382 290 s \$0-wait;
#X obj 1525 270 t b b;
#X obj 1552 290 s \$0-wait;
#X connect 0 0 12 0;
#X connect 1 0 17 0;
#X connect 2 0 1 0;
#X connect 5 0 6 0;
#X connect 6 0 1 1;
#X connect 6 1 18 0;
#X connect 6 2 3 0;
#X connect 7 0 2 0;
#X connect 8 0 7 0;
#X connect 9 0 14 1;
#X connect 10 0 20 0;
#X connect 12 1 5 0;
#X connect 12 2 11 0;
#X connect 13 0 20 0;
#X connect 14 0 36 0;
#X connect 15 0 16 1;
#X connect 16 0 35 0;
#X connect 17 0 13 0;
#X connect 17 1 16 0;
#X connect 18 0 19 0;
#X connect 19 0 10 0;
#X connect 19 1 14 0;
#X connect 22 0 39 0;
#X connect 23 0 138 0;
#X connect 24 0 22 0;
#X connect 26 0 33 0;
#X connect 27 0 29 0;
#X connect 27 0 30 0;
#X connect 28 0 25 0;
#X connect 29 0 28 1;
#X connect 30 0 31 0;
#X connect 31 0 28 1;
#X connect 32 0 27 0;
#X connect 33 0 25 1;
#X connect 35 0 13 0;
#X connect 36 0 10 0;
#X connect 37 0 12 0;
#X connect 38 0 28 0;
#X connect 40 0 52 0;
#X connect 41 0 140 0;
#X connect 43 0 51 0;
#X connect 44 0 46 0;
#X connect 44 0 47 0;
#X connect 45 0 42 0;
#X connect 46 0 45 1;
#X connect 47 0 48 0;
#X connect 48 0 45 1;
#X connect 49 0 44 0;
#X connect 50 0 40 0;
#X connect 51 0 42 1;
#X connect 53 0 45 0;
#X connect 54 0 66 0;
#X connect 55 0 142 0;
#X connect 57 0 65 0;
#X connect 58 0 60 0;
#X connect 58 0 61 0;
#X connect 59 0 56 0;
#X connect 60 0 59 1;
#X connect 61 0 62 0;
#X connect 62 0 59 1;
#X connect 63 0 58 0;
#X connect 64 0 54 0;
#X connect 65 0 56 1;
#X connect 67 0 59 0;
#X connect 68 0 80 0;
#X connect 69 0 144 0;
#X connect 71 0 79 0;
#X connect 72 0 74 0;
#X connect 72 0 75 0;
#X connect 73 0 70 0;
#X connect 74 0 73 1;
#X connect 75 0 76 0;
#X connect 76 0 73 1;
#X connect 77 0 72 0;
#X connect 78 0 68 0;
#X connect 79 0 70 1;
#X connect 81 0 73 0;
#X connect 82 0 94 0;
#X connect 83 0 146 0;
#X connect 85 0 93 0;
#X connect 86 0 88 0;
#X connect 86 0 89 0;
#X connect 87 0 84 0;
#X connect 88 0 87 1;
#X connect 89 0 90 0;
#X connect 90 0 87 1;
#X connect 91 0 86 0;
#X connect 92 0 82 0;
#X connect 93 0 84 1;
#X connect 95 0 87 0;
#X connect 96 0 118 0;
#X connect 97 0 148 0;
#X connect 99 0 117 0;
#X connect 100 0 102 0;
#X connect 100 0 103 0;
#X connect 101 0 98 0;
#X connect 102 0 101 1;
#X connect 103 0 104 0;
#X connect 104 0 101 1;
#X connect 105 0 100 0;
#X connect 106 0 121 0;
#X connect 107 0 150 0;
#X connect 109 0 123 0;
#X connect 110 0 112 0;
#X connect 110 0 113 0;
#X connect 111 0 108 0;
#X connect 112 0 111 1;
#X connect 113 0 114 0;
#X connect 114 0 111 1;
#X connect 115 0 110 0;
#X connect 116 0 96 0;
#X connect 117 0 98 1;
#X connect 119 0 101 0;
#X connect 120 0 106 0;
#X connect 122 0 111 0;
#X connect 123 0 108 1;
#X connect 124 0 135 0;
#X connect 125 0 152 0;
#X connect 127 0 137 0;
#X connect 128 0 130 0;
#X connect 128 0 131 0;
#X connect 129 0 126 0;
#X connect 130 0 129 1;
#X connect 131 0 132 0;
#X connect 132 0 129 1;
#X connect 133 0 128 0;
#X connect 134 0 124 0;
#X connect 136 0 129 0;
#X connect 137 0 126 1;
#X connect 138 0 24 0;
#X connect 138 1 139 0;
#X connect 140 0 50 0;
#X connect 140 1 141 0;
#X connect 142 0 64 0;
#X connect 142 1 143 0;
#X connect 144 0 78 0;
#X connect 144 1 145 0;
#X connect 146 0 92 0;
#X connect 146 1 147 0;
#X connect 148 0 116 0;
#X connect 148 1 149 0;
#X connect 150 0 120 0;
#X connect 150 1 151 0;
#X connect 152 0 134 0;
#X connect 152 1 153 0;
#X restore 864 97 pd state-saving-multiple-instances-with-scenes;
#X obj 103 126 cnv 5 5 5 empty empty MUTE-GROUP 0 0 0 12 #fcfcfc #404040 0;
#X obj 177 126 cnv 5 5 5 empty \$0-instance-num 1 0 0 0 12 #fcfcfc #404040 0;
#X obj 130 284 spigot;
#X obj 163 234 sel 0;
#X msg 163 255 1;
#X msg 192 255 0;
#X obj 130 179 inlet;
#X obj 130 345 outlet;
#X obj 163 214 r \$0-param-1-s;
#X obj 260 284 spigot;
#X obj 293 234 sel 0;
#X msg 293 255 1;
#X msg 322 255 0;
#X obj 260 179 inlet;
#X obj 260 345 outlet;
#X obj 293 214 r \$0-param-2-s;
#X obj 400 284 spigot;
#X obj 433 234 sel 0;
#X msg 433 255 1;
#X msg 462 255 0;
#X obj 400 179 inlet;
#X obj 400 345 outlet;
#X obj 530 284 spigot;
#X obj 563 234 sel 0;
#X msg 563 255 1;
#X msg 592 255 0;
#X obj 530 179 inlet;
#X obj 530 345 outlet;
#X obj 433 214 r \$0-param-3-s;
#X obj 563 214 r \$0-param-4-s;
#X obj 660 284 spigot;
#X obj 693 234 sel 0;
#X msg 693 255 1;
#X msg 722 255 0;
#X obj 660 179 inlet;
#X obj 660 345 outlet;
#X obj 790 284 spigot;
#X obj 823 234 sel 0;
#X msg 823 255 1;
#X msg 852 255 0;
#X obj 790 179 inlet;
#X obj 790 345 outlet;
#X obj 930 284 spigot;
#X obj 963 234 sel 0;
#X msg 963 255 1;
#X msg 992 255 0;
#X obj 930 179 inlet;
#X obj 930 345 outlet;
#X obj 1060 284 spigot;
#X obj 1093 234 sel 0;
#X msg 1093 255 1;
#X msg 1122 255 0;
#X obj 1060 179 inlet;
#X obj 1060 345 outlet;
#X obj 693 214 r \$0-param-5-s;
#X obj 823 214 r \$0-param-6-s;
#X obj 963 214 r \$0-param-7-s;
#X obj 1093 214 r \$0-param-8-s;
#X obj 103 108 cnv 5 5 5 empty empty TR01 0 0 0 8 #ffffff #ff8300 0;
#X obj 198 108 cnv 5 5 5 empty empty TR02 0 0 0 8 #fcfcfc #ff8300 0;
#X obj 303 108 cnv 5 5 5 empty empty TR03 0 0 0 8 #fcfcfc #ff8300 0;
#X obj 409 108 cnv 5 5 5 empty empty TR04 0 0 0 8 #fcfcfc #ff8300 0;
#X obj 520 108 cnv 5 5 5 empty empty TR05 0 0 0 8 #fcfcfc #ff8300 0;
#X obj 627 108 cnv 5 5 5 empty empty TR06 0 0 0 8 #fcfcfc #ff8300 0;
#X obj 726 108 cnv 5 5 5 empty empty TR07 0 0 0 8 #fcfcfc #ff8300 0;
#X obj 828 108 cnv 5 5 5 empty empty TR08 0 0 0 8 #fcfcfc #ff8300 0;
#X obj 244 588 ctlin;
#X floatatom 244 609 5 0 0 0 - - - 0;
#X floatatom 266 653 5 0 0 0 - - - 0;
#X floatatom 310 656 5 0 0 0 - - - 0;
#X obj 193 19 ctlin 1 17;
#X obj 193 40 sel 127;
#X msg 145 439 127;
#X floatatom 88 434 5 0 0 0 - - - 0;
#X obj 131 505 ctlout;
#X msg 156 473 1;
#X msg 202 464 17;
#X obj 373 534 noteout 2;
#X msg 365 461 1 0;
#X floatatom 426 476 5 0 0 0 - - - 0;
#X connect 10 0 11 0;
#X connect 11 0 9 0;
#X connect 12 0 10 0;
#X connect 15 0 20 0;
#X connect 16 0 17 0;
#X connect 16 1 18 0;
#X connect 17 0 15 1;
#X connect 18 0 15 1;
#X connect 19 0 15 0;
#X connect 21 0 16 0;
#X connect 22 0 27 0;
#X connect 23 0 24 0;
#X connect 23 1 25 0;
#X connect 24 0 22 1;
#X connect 25 0 22 1;
#X connect 26 0 22 0;
#X connect 28 0 23 0;
#X connect 29 0 34 0;
#X connect 30 0 31 0;
#X connect 30 1 32 0;
#X connect 31 0 29 1;
#X connect 32 0 29 1;
#X connect 33 0 29 0;
#X connect 35 0 40 0;
#X connect 36 0 37 0;
#X connect 36 1 38 0;
#X connect 37 0 35 1;
#X connect 38 0 35 1;
#X connect 39 0 35 0;
#X connect 41 0 30 0;
#X connect 42 0 36 0;
#X connect 43 0 48 0;
#X connect 44 0 45 0;
#X connect 44 1 46 0;
#X connect 45 0 43 1;
#X connect 46 0 43 1;
#X connect 47 0 43 0;
#X connect 49 0 54 0;
#X connect 50 0 51 0;
#X connect 50 1 52 0;
#X connect 51 0 49 1;
#X connect 52 0 49 1;
#X connect 53 0 49 0;
#X connect 55 0 60 0;
#X connect 56 0 57 0;
#X connect 56 1 58 0;
#X connect 57 0 55 1;
#X connect 58 0 55 1;
#X connect 59 0 55 0;
#X connect 61 0 66 0;
#X connect 62 0 63 0;
#X connect 62 1 64 0;
#X connect 63 0 61 1;
#X connect 64 0 61 1;
#X connect 65 0 61 0;
#X connect 67 0 44 0;
#X connect 68 0 50 0;
#X connect 69 0 56 0;
#X connect 70 0 62 0;
#X connect 79 0 80 0;
#X connect 79 1 81 0;
#X connect 79 2 82 0;
#X connect 83 0 84 0;
#X connect 84 0 0 0;
#X connect 85 0 87 0;
#X connect 86 0 87 0;
#X connect 88 0 87 1;
#X connect 89 0 87 2;
#X connect 91 0 90 0;
#X coords 0 -1 1 1 750 50 2 100 100;
