#N canvas 0 125 1440 747 10;
#X obj 1046 273 pdcontrol;
#X msg 1046 250 dir;
#X obj 1046 320 pack s s s;
#X obj 1026 400 pack s;
#X msg 1034 421 \; pd open main.pd \$1;
#X msg 1116 260 \; pd-main.pd menuclose \;;
#X msg 1079 296 symbol patch\$1;
#X obj 1026 203 f;
#X obj 875 540 bng 19 250 50 0 empty empty LOAD> -33 9 0 10 #fcfcfc #000000 #000000;
#X msg 1026 369 /Users/johannklug/Documents/Bass\ Dieter/2025/Diet/MODULAR_LIVE_\ PERFORMER/patch1, f 89;
#X obj 799 105 cnv 5 5 5 empty empty OPEN/CLOSE\ PATCHES: 0 12 0 10 #fcfcfc #404040 0;
#X obj 1026 225 t b b f b b;
#X obj 1026 296 del 200;
#X floatatom 913 35 5 0 0 0 - - - 0;
#X obj 886 16 t b f;
#X obj 1025 72 text define -k patch-status;
#A set 0 \;;
#X obj 1025 54 text set patch-status;
#X obj 991 -10 text get patch-status;
#X floatatom 991 8 5 0 0 0 - - - 0;
#X msg 991 -28 0, f 6;
#X obj 991 -46 loadbang;
#X obj 886 -4 r \$0-patchnr-r;
#X floatatom 801 135 2 1 5 1 PATCH_NR - - 24;
#X obj 1024 117 s \$0-patchnr-s;
#X obj 1026 452 t b;
#X obj 1026 471 del 500;
#X obj 1026 519 s main-menu;
#X msg 1026 500 1;
#X text 1265 -15 This subpatch opens and closes other subpatches located in Molipe’s main folder. Each subpatch folder must be named patch+number in order to be recognized and opened. The number of patches is limited only by the storage capacity of the device running Molipe.;
#X text 1012 145 <--------change this number to increase the number of loadable patches;
#X obj 1115 481 r clock-to-hw-device-nr;
#X obj 1100 500 f;
#X obj 1100 519 s clock-to-hw-device-nr;
#X text 1273 506 <-- resends midi clock device settings at startup of patch;
#X obj 785 287 s patch-nr;
#X obj 913 64 + 1;
#X obj 981 55 - 1;
#X obj 1124 342 s patch-nr-loaded;
#X text 837 320 for gui status of patches;
#X text 1239 343 for gui status of patch that is loaded;
#X obj 901 657 bng 15 250 50 0 SAVE-S SAVE-R <--SAVE!(s) 17 7 0 10 #fcfcfc #00fc04 #000000;
#X obj 137 232 hsl 128 15 0 127 0 1 \$0-param-4-s \$0-param-4-r AUDIO 133 7 0 10 #db3e14 #000000 #000000 5100 1;
#X obj 137 170 hsl 128 15 0 127 0 1 \$0-param-2-s \$0-param-2-r LOAD 133 7 0 10 #e86b0d #000000 #000000 2500 1;
#X obj 137 139 hsl 128 15 0 127 0 1 \$0-param-1-s \$0-param-1-r PATCH 133 7 0 10 #ed8008 #000000 #000000 0 1;
#X obj 137 201 hsl 128 15 0 127 0 1 \$0-param-3-s \$0-param-3-r SAVE! 133 7 0 10 #e25511 #000000 #000000 0 1;
#X obj 103 109 cnv 5 5 5 empty empty IN 0 0 0 8 #ffffff #ff8300 0;
#X obj 134 127 cnv 5 5 5 empty \$0-modul-name MOTHER 0 0 0 12 #fcfcfc #404040 0;
#X obj 176 127 cnv 5 5 5 empty \$0-instance-num 1 0 0 0 12 #fcfcfc #404040 0;
#X obj 103 362 cnv 5 5 5 empty empty OUT 0 0 0 8 #fcfcfc #000000 0;
#X obj 199 109 cnv 5 5 5 empty empty MOD1 0 0 0 8 #fcfcfc #404040 0;
#X obj 308 358 bng 10 250 50 0 \$0-options-button \$0-options-button-r OPTIONS -45 5 0 10 #fcfcfc #000000 #000000;
#X text 487 248 <--rename labels here;
#X text 487 268 <--modules values are saved here;
#X obj 337 118 text define -k \$0-modul-settings;
#A set MOTHER \; PATCH \; LOAD \; SAVE! \; AUDIO \; MD-DV \; - \; - \; - \; SRC \; 7 \; #ed8008 \; #e86b0d \; #e25511 \; #db3e14 \; #d22616 \; #c91917 \; #c01718 \; #bf1b1b \;;
#N canvas 324 349 425 350 info 0;
#X text 23 12 This textfile contains all necessery names of the module and the names of the gui (faders etc.). This way its much easier to change the names of all elements simply by editing the text object.;
#X text 25 93 The Order of the file \; 0=Modul-Name \; 1=Name Param1 - write non if unused \; 2=Name Param2 \; 3=Name Param3 \; 4=Name Param4 \; 5=Name Param5 \; 6=Name Param6 \; 7=Name Param7 \; 8=Name Param8 \; 9=Type of Module (SRC \, MOD \, LFO \, EFX etc) \; 10=Number of used Parameters (1-8) \; 11=Color of Param1-Circle 12=Color of Param2-Circle \; 13=Color of Param3-Circle \; 14=Color of Param4-Circle \; 15=Color of Param5-Circle \; 16=Color of Param6-Circle \; 17=Color of Param7-Circle \; 18=Color of Param8-Circle \; ....;
#X restore 559 119 pd info;
#X text 537 118 ->;
#X text 335 98 Parameter-Values + Names + Colors:;
#X text 488 286 <--Opens the Options-Subpatch;
#X text 99 82 DESKTOP-GUI-INTERFACE:;
#X obj 339 542 s \$0-param-1-t;
#X floatatom 339 474 5 0 0 0 - - - 0;
#X obj 339 494 i;
#X text 437 206 <--receives encoder messages from mother.pd;
#X text 437 186 <--sends display info to mother.pd;
#X text 447 226 <--checks menu and if module is "active";
#X obj 339 434 r \$0-param-1-s;
#X obj 435 455 / 1.27;
#X floatatom 435 474 5 0 0 0 - - - 0;
#X obj 435 494 i;
#X obj 435 434 r \$0-param-2-s;
#X obj 435 532 s \$0-param-2-t;
#X obj 533 454 / 1.27;
#X floatatom 533 473 5 0 0 0 - - - 0;
#X obj 533 493 i;
#X obj 533 433 r \$0-param-3-s;
#X obj 533 531 s \$0-param-3-t;
#X obj 633 474 i;
#X obj 633 433 r \$0-param-4-s;
#X obj 633 561 s \$0-param-4-t;
#X obj 339 657 i;
#X msg 435 693 symbol \$1%;
#X obj 435 635 / 1.27;
#X floatatom 435 654 5 0 0 0 - - - 0;
#X obj 435 674 i;
#X msg 533 692 symbol \$1%;
#X obj 533 634 / 1.27;
#X floatatom 533 653 5 0 0 0 - - - 0;
#X obj 533 673 i;
#X msg 633 692 symbol \$1%;
#X obj 633 634 / 1.27;
#X floatatom 633 653 5 0 0 0 - - - 0;
#X obj 633 673 i;
#X obj 339 614 r \$0-param-5-s;
#X obj 339 715 s \$0-param-5-t;
#X obj 435 614 r \$0-param-6-s;
#X obj 435 712 s \$0-param-6-t;
#X obj 533 613 r \$0-param-7-s;
#X obj 533 711 s \$0-param-7-t;
#X obj 633 613 r \$0-param-8-s;
#X obj 633 711 s \$0-param-8-t;
#X obj 298 108 cnv 5 5 5 empty empty MOD2 0 0 0 8 #fcfcfc #404040 0;
#X obj 337 186 core_display \$0;
#X obj 337 206 core_encoder \$0;
#X obj 337 227 core_main_menu \$0;
#X obj 337 248 core_module_settings \$0;
#X text 336 165 Modul Core:;
#X text 337 410 Value Display Representation:;
#X obj 337 307 core_mod_display \$0;
#X obj 652 6 / 12.7;
#X obj 652 27 i;
#X obj 652 48 + 1;
#X obj 1146 202 r patch-path-mother;
#X msg 1046 343 set \$2/\$1;
#X floatatom 235 124 5 0 0 0 - - - 0;
#X obj 787 372 r patch-load;
#X text 336 267 ##removed;
#N canvas 237 262 869 304 modified-core-options 0;
#X msg 64 57 1;
#X obj 19 76 pack f f;
#X obj 19 40 t b b;
#X text 17 5 Opens the Options-Subpatch:;
#X text 211 42 Comment: \; This patch is a modification of the options core patch because its uses not saving structure of the normal core patches because it is located in the mother patch that cannot save its status in the patch folders.;
#X obj 19 22 r \$0-options-button;
#N canvas 721 264 237 200 \$0options 0;
#X text 11 10 Ableton-Push-Interface:;
#X obj 15 70 hradio 16 1 0 8 \$0-main-menu-s \$0-main-menu-r Main-Menu 0 -8 0 10 #fcfcfc #000000 #000000 0;
#X obj 15 110 hradio 16 1 0 8 \$0-sub-menu-s \$0-sub-menu-r Sub-Menu 0 -8 0 10 #fcfcfc #000000 #000000 0;
#X obj 15 150 hradio 16 1 0 8 \$0-sub2-menu-s \$0-sub2-menu-r Sub2-Menu 0 -8 0 10 #fcfcfc #000000 #000000 0;
#X text 11 30 (DISPLAY);
#X obj 176 41 loadbang;
#X msg 176 62 7;
#X msg 108 40 0;
#X connect 5 0 6 0;
#X connect 5 0 7 0;
#X connect 6 0 2 0;
#X connect 6 0 3 0;
#X connect 7 0 1 0;
#X restore 19 123 pd \$0options;
#X obj 19 58 f \$0;
#X msg 19 94 \; pd-\$1options vis \$2;
#X connect 0 0 1 1;
#X connect 1 0 8 0;
#X connect 2 0 7 0;
#X connect 2 1 0 0;
#X connect 5 0 2 0;
#X connect 7 0 1 0;
#X restore 337 286 pd modified-core-options;
#X msg 435 513 symbol >>>;
#X msg 533 512 symbol >>>;
#X obj 339 455 / 12.7;
#X msg 339 523 symbol \$1/;
#X obj 368 502 + 1;
#X obj 800 452 tgl 16 0 empty empty empty 0 -8 0 10 #fcfcfc #000000 #000000 0 1;
#X obj 800 473 sel 1;
#X obj 800 494 del 15;
#X msg 800 515 0;
#X obj 800 431 > 120;
#X obj 800 409 r \$0-param-2-s;
#X obj 800 561 s \$0-param-2-r;
#X obj 802 634 tgl 16 0 empty empty empty 0 -8 0 10 #fcfcfc #000000 #000000 0 1;
#X obj 802 655 sel 1;
#X msg 802 697 0;
#X obj 802 613 > 120;
#X obj 802 591 r \$0-param-3-s;
#X obj 802 743 s \$0-param-3-r;
#X obj 633 454 / 64;
#X obj 633 495 sel 0 1;
#X msg 633 533 symbol 2x;
#X msg 697 509 symbol 8x;
#X obj 137 258 hsl 128 15 0 127 0 1 \$0-param-5-s \$0-param-5-r MD-DV 133 7 0 10 #d22616 #000000 #000000 5100 1;
#X obj 137 285 hsl 128 15 0 127 0 1 \$0-param-6-s \$0-param-6-r - 133 7 0 10 #c91917 #000000 #000000 9500 1;
#X obj 137 311 hsl 128 15 0 127 0 1 \$0-param-7-s \$0-param-7-r - 133 7 0 10 #c01718 #000000 #000000 7800 1;
#X obj 139 436 s hw-audio;
#X obj 235 459 s md-device;
#X obj 339 635 / 15.875;
#X msg 339 698 symbol \$1/;
#X obj 339 678 + 1;
#X connect 1 0 0 0;
#X connect 2 0 112 0;
#X connect 3 0 4 0;
#X connect 3 0 24 0;
#X connect 6 0 2 0;
#X connect 7 0 11 0;
#X connect 7 0 37 0;
#X connect 8 0 7 0;
#X connect 9 0 3 0;
#X connect 11 0 12 0;
#X connect 11 1 1 0;
#X connect 11 2 6 0;
#X connect 11 3 5 0;
#X connect 12 0 9 0;
#X connect 13 0 35 0;
#X connect 14 1 13 0;
#X connect 17 0 18 0;
#X connect 18 0 35 0;
#X connect 19 0 17 0;
#X connect 20 0 19 0;
#X connect 21 0 14 0;
#X connect 22 0 34 0;
#X connect 22 0 7 1;
#X connect 22 0 36 0;
#X connect 22 0 113 0;
#X connect 24 0 25 0;
#X connect 25 0 27 0;
#X connect 25 0 31 0;
#X connect 27 0 26 0;
#X connect 30 0 31 1;
#X connect 31 0 32 0;
#X connect 35 0 22 0;
#X connect 36 0 16 0;
#X connect 41 0 142 0;
#X connect 43 0 108 0;
#X connect 60 0 61 0;
#X connect 61 0 121 0;
#X connect 65 0 119 0;
#X connect 66 0 67 0;
#X connect 67 0 68 0;
#X connect 68 0 117 0;
#X connect 69 0 66 0;
#X connect 71 0 72 0;
#X connect 72 0 73 0;
#X connect 73 0 118 0;
#X connect 74 0 71 0;
#X connect 76 0 136 0;
#X connect 77 0 135 0;
#X connect 79 0 146 0;
#X connect 80 0 95 0;
#X connect 81 0 82 0;
#X connect 82 0 83 0;
#X connect 83 0 80 0;
#X connect 84 0 97 0;
#X connect 85 0 86 0;
#X connect 86 0 87 0;
#X connect 87 0 84 0;
#X connect 88 0 99 0;
#X connect 89 0 90 0;
#X connect 90 0 91 0;
#X connect 91 0 88 0;
#X connect 92 0 144 0;
#X connect 94 0 81 0;
#X connect 96 0 85 0;
#X connect 98 0 89 0;
#X connect 108 0 109 0;
#X connect 109 0 110 0;
#X connect 110 0 22 0;
#X connect 111 0 2 1;
#X connect 112 0 9 0;
#X connect 117 0 70 0;
#X connect 118 0 75 0;
#X connect 119 0 60 0;
#X connect 120 0 59 0;
#X connect 121 0 120 0;
#X connect 122 0 123 0;
#X connect 123 0 124 0;
#X connect 123 0 8 0;
#X connect 124 0 125 0;
#X connect 125 0 128 0;
#X connect 126 0 122 0;
#X connect 127 0 126 0;
#X connect 129 0 130 0;
#X connect 130 0 40 0;
#X connect 130 0 131 0;
#X connect 131 0 134 0;
#X connect 132 0 129 0;
#X connect 133 0 132 0;
#X connect 135 0 76 0;
#X connect 136 0 137 0;
#X connect 136 1 138 0;
#X connect 137 0 78 0;
#X connect 138 0 78 0;
#X connect 139 0 143 0;
#X connect 144 0 79 0;
#X connect 145 0 93 0;
#X connect 146 0 145 0;
#X coords 0 -1 1 1 220 270 2 100 100;
