#N canvas 162 29 1278 747 10;
#X obj 864 42 s \$0-instance-num;
#X obj 864 4 makefilename %d;
#X msg 864 24 label \$1;
#N canvas 0 25 1440 847 state-saving-multiple-instances-with-scenes 0;
#X obj 223 -332 loadbang;
#X obj 230 -103 f;
#X obj 230 -124 t b b b;
#X obj 281 -144 outlet;
#X text 277 -124 INSTANCE NUMBER;
#X obj 242 -258 f \$1;
#X obj 242 -222 t f f f;
#X obj 230 -148 bng 15 250 50 0 empty empty empty 17 7 0 10 #fcfcfc #000000 #000000;
#X obj 230 -171 r SAVE-S;
#X obj 631 -59 r patch-path;
#X msg 575 0 read /Users/johannklug/Documents/Bass\ Dieter/2025/Diet/MODULAR_LIVE_\ PERFORMER/preset_projects/MOLIPE_DRUMS/statesave/1-repeat-group-ss.txt;
#X obj 272 -258 s update-path;
#X obj 223 -299 t b b b;
#X msg 230 0 write /Users/johannklug/Documents/Bass\ Dieter/2025/Diet/MODULAR_LIVE_\ PERFORMER/preset_projects/MOLIPE_DRUMS/statesave/1-repeat-group-ss.txt;
#X obj 586 -40 pack f s;
#X obj 285 -61 r patch-path;
#X obj 240 -41 pack f s;
#X obj 230 -82 t b f;
#X obj 575 -81 f;
#X obj 575 -60 t b f;
#X obj 229 98 array define \$0-presets 256;
#X text 885 -311 Array - Saving Rules \; -Slot 1-16 for non-scene values \; -Each Scene has 16 slots -There are 4 Scene-Slots;
#X obj 225 297 tabread \$0-presets;
#X obj 225 240 loadbang;
#X msg 225 278 1;
#X obj 225 503 tabwrite \$0-presets;
#X obj 336 465 loadbang;
#X obj 258 447 t b;
#X obj 225 483 spigot;
#X msg 258 466 0;
#X obj 294 448 del 5;
#X msg 294 467 1;
#X obj 258 427 r \$0-wait;
#X msg 336 483 1;
#X text 225 201 Reading and writing - non scene values;
#X obj 169 -253 bng 16 250 50 0 empty empty empty 0 -8 0 10 #fcfcfc #000000 #000000;
#X obj 225 408 r \$0-param-1-s;
#X obj 225 315 s \$0-param-1-r;
#X obj 425 319 tabread \$0-presets;
#X obj 425 242 loadbang;
#X obj 425 503 tabwrite \$0-presets;
#X obj 536 465 loadbang;
#X obj 458 447 t b;
#X obj 425 483 spigot;
#X msg 458 466 0;
#X obj 494 448 del 5;
#X msg 494 467 1;
#X obj 458 427 r \$0-wait;
#X msg 425 300 2;
#X msg 536 482 2;
#X obj 425 337 s \$0-param-2-r;
#X obj 425 408 r \$0-param-2-s;
#X obj 615 319 tabread \$0-presets;
#X obj 615 242 loadbang;
#X obj 615 503 tabwrite \$0-presets;
#X obj 726 465 loadbang;
#X obj 648 447 t b;
#X obj 615 483 spigot;
#X msg 648 466 0;
#X obj 684 448 del 5;
#X msg 684 467 1;
#X obj 648 427 r \$0-wait;
#X msg 615 300 3;
#X msg 726 481 3;
#X obj 615 337 s \$0-param-3-r;
#X obj 615 408 r \$0-param-3-s;
#X obj 795 319 tabread \$0-presets;
#X obj 795 242 loadbang;
#X obj 795 503 tabwrite \$0-presets;
#X obj 906 465 loadbang;
#X obj 828 447 t b;
#X obj 795 483 spigot;
#X msg 828 466 0;
#X obj 864 448 del 5;
#X msg 864 467 1;
#X obj 828 427 r \$0-wait;
#X msg 795 300 4;
#X msg 906 481 4;
#X obj 795 337 s \$0-param-4-r;
#X obj 794 408 r \$0-param-4-s;
#X obj 975 319 tabread \$0-presets;
#X obj 975 242 loadbang;
#X obj 975 503 tabwrite \$0-presets;
#X obj 1086 465 loadbang;
#X obj 1008 447 t b;
#X obj 975 483 spigot;
#X msg 1008 466 0;
#X obj 1044 448 del 5;
#X msg 1044 467 1;
#X obj 1008 427 r \$0-wait;
#X msg 975 300 5;
#X msg 1086 481 5;
#X obj 975 337 s \$0-param-5-r;
#X obj 974 408 r \$0-param-5-s;
#X obj 1165 319 tabread \$0-presets;
#X obj 1165 242 loadbang;
#X obj 1165 503 tabwrite \$0-presets;
#X obj 1276 465 loadbang;
#X obj 1198 447 t b;
#X obj 1165 483 spigot;
#X msg 1198 466 0;
#X obj 1234 448 del 5;
#X msg 1234 467 1;
#X obj 1198 427 r \$0-wait;
#X obj 1355 319 tabread \$0-presets;
#X obj 1355 242 loadbang;
#X obj 1355 503 tabwrite \$0-presets;
#X obj 1466 465 loadbang;
#X obj 1388 447 t b;
#X obj 1355 483 spigot;
#X msg 1388 466 0;
#X obj 1424 448 del 5;
#X msg 1424 467 1;
#X obj 1388 427 r \$0-wait;
#X msg 1165 300 6;
#X msg 1276 481 6;
#X obj 1164 337 s \$0-param-6-r;
#X obj 1164 408 r \$0-param-6-s;
#X msg 1355 300 7;
#X obj 1355 337 s \$0-param-7-r;
#X obj 1354 408 r \$0-param-7-s;
#X msg 1466 481 7;
#X obj 1525 319 tabread \$0-presets;
#X obj 1525 242 loadbang;
#X obj 1525 503 tabwrite \$0-presets;
#X obj 1636 465 loadbang;
#X obj 1558 447 t b;
#X obj 1525 483 spigot;
#X msg 1558 466 0;
#X obj 1594 448 del 5;
#X msg 1594 467 1;
#X obj 1558 427 r \$0-wait;
#X msg 1525 300 8;
#X obj 1525 337 s \$0-param-8-r;
#X obj 1524 408 r \$0-param-8-s;
#X msg 1636 481 8;
#X obj 225 258 t b b;
#X obj 252 278 s \$0-wait;
#X obj 425 270 t b b;
#X obj 452 290 s \$0-wait;
#X obj 615 270 t b b;
#X obj 642 290 s \$0-wait;
#X obj 795 270 t b b;
#X obj 822 290 s \$0-wait;
#X obj 975 270 t b b;
#X obj 1002 290 s \$0-wait;
#X obj 1165 270 t b b;
#X obj 1192 290 s \$0-wait;
#X obj 1355 270 t b b;
#X obj 1382 290 s \$0-wait;
#X obj 1525 270 t b b;
#X obj 1552 290 s \$0-wait;
#X msg 240 -21 set write \$2/statesave/\$1-repeat-group-ss.txt;
#X msg 586 -21 set read \$2/statesave/\$1-repeat-group-ss.txt;
#X connect 0 0 12 0;
#X connect 1 0 17 0;
#X connect 2 0 1 0;
#X connect 5 0 6 0;
#X connect 6 0 1 1;
#X connect 6 1 18 0;
#X connect 6 2 3 0;
#X connect 7 0 2 0;
#X connect 8 0 7 0;
#X connect 9 0 14 1;
#X connect 10 0 20 0;
#X connect 12 1 5 0;
#X connect 12 2 11 0;
#X connect 13 0 20 0;
#X connect 14 0 153 0;
#X connect 15 0 16 1;
#X connect 16 0 152 0;
#X connect 17 0 13 0;
#X connect 17 1 16 0;
#X connect 18 0 19 0;
#X connect 19 0 10 0;
#X connect 19 1 14 0;
#X connect 22 0 37 0;
#X connect 23 0 136 0;
#X connect 24 0 22 0;
#X connect 26 0 33 0;
#X connect 27 0 29 0;
#X connect 27 0 30 0;
#X connect 28 0 25 0;
#X connect 29 0 28 1;
#X connect 30 0 31 0;
#X connect 31 0 28 1;
#X connect 32 0 27 0;
#X connect 33 0 25 1;
#X connect 35 0 12 0;
#X connect 36 0 28 0;
#X connect 38 0 50 0;
#X connect 39 0 138 0;
#X connect 41 0 49 0;
#X connect 42 0 44 0;
#X connect 42 0 45 0;
#X connect 43 0 40 0;
#X connect 44 0 43 1;
#X connect 45 0 46 0;
#X connect 46 0 43 1;
#X connect 47 0 42 0;
#X connect 48 0 38 0;
#X connect 49 0 40 1;
#X connect 51 0 43 0;
#X connect 52 0 64 0;
#X connect 53 0 140 0;
#X connect 55 0 63 0;
#X connect 56 0 58 0;
#X connect 56 0 59 0;
#X connect 57 0 54 0;
#X connect 58 0 57 1;
#X connect 59 0 60 0;
#X connect 60 0 57 1;
#X connect 61 0 56 0;
#X connect 62 0 52 0;
#X connect 63 0 54 1;
#X connect 65 0 57 0;
#X connect 66 0 78 0;
#X connect 67 0 142 0;
#X connect 69 0 77 0;
#X connect 70 0 72 0;
#X connect 70 0 73 0;
#X connect 71 0 68 0;
#X connect 72 0 71 1;
#X connect 73 0 74 0;
#X connect 74 0 71 1;
#X connect 75 0 70 0;
#X connect 76 0 66 0;
#X connect 77 0 68 1;
#X connect 79 0 71 0;
#X connect 80 0 92 0;
#X connect 81 0 144 0;
#X connect 83 0 91 0;
#X connect 84 0 86 0;
#X connect 84 0 87 0;
#X connect 85 0 82 0;
#X connect 86 0 85 1;
#X connect 87 0 88 0;
#X connect 88 0 85 1;
#X connect 89 0 84 0;
#X connect 90 0 80 0;
#X connect 91 0 82 1;
#X connect 93 0 85 0;
#X connect 94 0 116 0;
#X connect 95 0 146 0;
#X connect 97 0 115 0;
#X connect 98 0 100 0;
#X connect 98 0 101 0;
#X connect 99 0 96 0;
#X connect 100 0 99 1;
#X connect 101 0 102 0;
#X connect 102 0 99 1;
#X connect 103 0 98 0;
#X connect 104 0 119 0;
#X connect 105 0 148 0;
#X connect 107 0 121 0;
#X connect 108 0 110 0;
#X connect 108 0 111 0;
#X connect 109 0 106 0;
#X connect 110 0 109 1;
#X connect 111 0 112 0;
#X connect 112 0 109 1;
#X connect 113 0 108 0;
#X connect 114 0 94 0;
#X connect 115 0 96 1;
#X connect 117 0 99 0;
#X connect 118 0 104 0;
#X connect 120 0 109 0;
#X connect 121 0 106 1;
#X connect 122 0 133 0;
#X connect 123 0 150 0;
#X connect 125 0 135 0;
#X connect 126 0 128 0;
#X connect 126 0 129 0;
#X connect 127 0 124 0;
#X connect 128 0 127 1;
#X connect 129 0 130 0;
#X connect 130 0 127 1;
#X connect 131 0 126 0;
#X connect 132 0 122 0;
#X connect 134 0 127 0;
#X connect 135 0 124 1;
#X connect 136 0 24 0;
#X connect 136 1 137 0;
#X connect 138 0 48 0;
#X connect 138 1 139 0;
#X connect 140 0 62 0;
#X connect 140 1 141 0;
#X connect 142 0 76 0;
#X connect 142 1 143 0;
#X connect 144 0 90 0;
#X connect 144 1 145 0;
#X connect 146 0 114 0;
#X connect 146 1 147 0;
#X connect 148 0 118 0;
#X connect 148 1 149 0;
#X connect 150 0 132 0;
#X connect 150 1 151 0;
#X connect 152 0 13 0;
#X connect 153 0 10 0;
#X restore 864 -15 pd state-saving-multiple-instances-with-scenes;
#X obj 103 126 cnv 5 5 5 empty empty REPEATER-GROUP 0 0 0 12 #fcfcfc #404040 0;
#X obj 207 126 cnv 5 5 5 empty \$0-instance-num 1 0 0 0 12 #fcfcfc #404040 0;
#X obj 113 269 inlet;
#X obj 380 269 inlet;
#X obj 374 518 outlet;
#X obj 510 269 inlet;
#X obj 510 495 outlet;
#X obj 640 269 inlet;
#X obj 640 495 outlet;
#X obj 770 269 inlet;
#X obj 770 495 outlet;
#X obj 910 269 inlet;
#X obj 910 495 outlet;
#X obj 1040 269 inlet;
#X obj 1040 495 outlet;
#X obj 103 108 cnv 5 5 5 empty empty TR01 0 0 0 8 #ffffff #ff8300 0;
#X obj 198 108 cnv 5 5 5 empty empty TR02 0 0 0 8 #fcfcfc #ff8300 0;
#X obj 303 108 cnv 5 5 5 empty empty TR03 0 0 0 8 #fcfcfc #ff8300 0;
#X obj 409 108 cnv 5 5 5 empty empty TR04 0 0 0 8 #fcfcfc #ff8300 0;
#X obj 520 108 cnv 5 5 5 empty empty TR05 0 0 0 8 #fcfcfc #ff8300 0;
#X obj 627 108 cnv 5 5 5 empty empty TR06 0 0 0 8 #fcfcfc #ff8300 0;
#X obj 726 108 cnv 5 5 5 empty empty TR07 0 0 0 8 #fcfcfc #ff8300 0;
#X obj 828 108 cnv 5 5 5 empty empty TR08 0 0 0 8 #fcfcfc #ff8300 0;
#X obj 447 179 tgl 15 0 \$0-1-note-repeat \$0-1-note-repeat-r empty 0 -8 0 10 #fcfcfc #000000 #000000 0 1;
#X obj 571 186 cnv 5 5 5 empty empty <REPEAT 0 0 0 8 #fcfcfc #000000 0;
#X obj 447 119 vradio 15 1 0 4 \$0-1-diet-drum-seq-note-repeat-s \$0-1-diet-drum-seq-note-repeat-r empty 0 -8 0 10 #fcfcfc #000000 #000000 0;
#X obj 571 172 cnv 5 5 5 empty empty <16th 0 0 0 8 #fcfcfc #000000 0;
#X obj 571 156 cnv 5 5 5 empty empty <8th/TR 0 0 0 8 #fcfcfc #000000 0;
#X obj 571 141 cnv 5 5 5 empty empty <32th 0 0 0 8 #fcfcfc #000000 0;
#X obj 571 126 cnv 5 5 5 empty empty <64th 0 0 0 8 #fcfcfc #000000 0;
#X obj 462 179 tgl 15 0 \$0-2-note-repeat \$0-2-note-repeat-r empty 0 -8 0 10 #fcfcfc #000000 #000000 0 1;
#X obj 462 119 vradio 15 1 0 4 \$0-2-diet-drum-seq-note-repeat-s \$0-2-diet-drum-seq-note-repeat-r empty 0 -8 0 10 #fcfcfc #000000 #000000 0;
#X obj 477 179 tgl 15 0 \$0-3-note-repeat \$0-3-note-repeat-r empty 0 -8 0 10 #fcfcfc #000000 #000000 0 1;
#X obj 477 119 vradio 15 1 0 4 \$0-3-diet-drum-seq-note-repeat-s \$0-3-diet-drum-seq-note-repeat-r empty 0 -8 0 10 #fcfcfc #000000 #000000 0;
#X obj 492 179 tgl 15 0 \$0-4-note-repeat \$0-4-note-repeat-r empty 0 -8 0 10 #fcfcfc #000000 #000000 0 1;
#X obj 492 119 vradio 15 1 0 4 \$0-4-diet-drum-seq-note-repeat-s \$0-4-diet-drum-seq-note-repeat-r empty 0 -8 0 10 #fcfcfc #000000 #000000 0;
#X obj 507 179 tgl 15 0 \$0-5-note-repeat \$0-5-note-repeat-r empty 0 -8 0 10 #fcfcfc #000000 #000000 0 1;
#X obj 507 119 vradio 15 1 0 4 \$0-5-diet-drum-seq-note-repeat-s \$0-5-diet-drum-seq-note-repeat-r empty 0 -8 0 10 #fcfcfc #000000 #000000 0;
#X obj 522 179 tgl 15 0 \$0-6-note-repeat \$0-6-note-repeat-r empty 0 -8 0 10 #fcfcfc #000000 #000000 0 1;
#X obj 522 119 vradio 15 1 0 4 \$0-6-diet-drum-seq-note-repeat-s \$0-6-diet-drum-seq-note-repeat-r empty 0 -8 0 10 #fcfcfc #000000 #000000 0;
#X obj 537 179 tgl 15 0 \$0-7-note-repeat \$0-7-note-repeat-r empty 0 -8 0 10 #fcfcfc #000000 #000000 0 1;
#X obj 537 119 vradio 15 1 0 4 \$0-7-diet-drum-seq-note-repeat-s \$0-7-diet-drum-seq-note-repeat-r empty 0 -8 0 10 #fcfcfc #000000 #000000 0;
#X obj 552 179 tgl 15 0 \$0-8-note-repeat \$0-8-note-repeat-r empty 0 -8 0 10 #fcfcfc #000000 #000000 0 1;
#X obj 552 119 vradio 15 1 0 4 \$0-8-diet-drum-seq-note-repeat-s \$0-8-diet-drum-seq-note-repeat-r empty 0 -8 0 10 #fcfcfc #000000 #000000 0;
#X obj 112 523 outlet;
#X obj 233 269 inlet;
#X obj 233 522 outlet;
#X obj 640 146 hsl 136 16 0 127 0 0 empty empty REPEAT-LOUDNESS -2 -8 0 10 #fcfcfc #000000 #000000 0 1;
#N canvas 0 25 1440 847 repeater 0;
#X obj 195 48 inlet;
#X obj 51 785 outlet;
#X obj 195 645 spigot;
#X msg 228 616 0;
#X msg 259 616 1;
#X obj 259 596 loadbang;
#X obj 62 247 sel 1;
#X msg 63 287 1;
#X msg 92 287 0;
#X obj 50 345 spigot;
#X text 171 33 Normal Clock in;
#X obj 50 411 f;
#X obj 79 411 + 1;
#X obj 51 567 sel 0;
#X obj 63 267 t b b;
#X msg 65 384 0;
#X obj 77 475 sel 0 1 2 3;
#X text 90 541 <-- this number is kick specific;
#X text 168 504 <-- these numbers are kick specific - slower then the rest;
#X obj 324 51 r clock4x;
#X obj 578 371 f;
#X obj 607 371 + 1;
#X msg 593 344 0;
#X obj 578 412 sel 0;
#X text 651 387 <-- rhythm quantize;
#X obj 602 300 r clock-reset;
#X obj 578 433 bng 16 250 50 0 empty empty empty 0 -8 0 10 #fcfcfc #000000 #000000;
#X obj 62 194 f;
#X obj 50 546 mod 2;
#X msg 77 496 1;
#X msg 92 515 2;
#X msg 51 676 60;
#X obj 51 714 pack f f;
#X obj 51 695 makenote 60 2;
#X obj 473 44 inlet;
#X obj 62 215 change;
#X obj 51 588 t b b;
#X obj 94 666 +;
#X obj 94 611 random 80;
#X obj 94 632 - 40;
#X obj 513 566 line;
#X floatatom 513 587 5 0 0 0 - - - 0;
#X obj 470 613 t b f;
#X obj 471 641 *;
#X msg 513 545 1 \, 0.5 2000;
#X msg 361 620 2;
#X msg 396 618 10;
#X obj 355 711 line;
#X obj 355 691 pack f 50;
#X obj 88 168 r \$0-1-note-repeat;
#X obj 77 448 r \$0-1-diet-drum-seq-note-repeat-s;
#X obj 333 11 inlet;
#X obj 578 392 mod 4;
#X msg 108 495 4;
#X msg 124 516 8;
#X connect 0 0 2 0;
#X connect 2 0 1 0;
#X connect 3 0 2 1;
#X connect 4 0 2 1;
#X connect 5 0 4 0;
#X connect 6 0 3 0;
#X connect 6 0 14 0;
#X connect 6 0 44 0;
#X connect 6 1 8 0;
#X connect 6 1 4 0;
#X connect 7 0 9 1;
#X connect 8 0 9 1;
#X connect 9 0 11 0;
#X connect 11 0 12 0;
#X connect 11 0 28 0;
#X connect 12 0 11 1;
#X connect 13 0 36 0;
#X connect 14 0 7 0;
#X connect 14 0 15 0;
#X connect 15 0 11 1;
#X connect 16 0 29 0;
#X connect 16 1 30 0;
#X connect 16 2 53 0;
#X connect 16 3 54 0;
#X connect 20 0 21 0;
#X connect 20 0 52 0;
#X connect 21 0 20 1;
#X connect 22 0 20 1;
#X connect 23 0 26 0;
#X connect 25 0 22 0;
#X connect 26 0 27 0;
#X connect 27 0 35 0;
#X connect 28 0 13 0;
#X connect 29 0 28 1;
#X connect 30 0 28 1;
#X connect 31 0 33 0;
#X connect 32 0 1 0;
#X connect 33 0 32 0;
#X connect 33 1 32 1;
#X connect 34 0 43 0;
#X connect 35 0 6 0;
#X connect 36 0 31 0;
#X connect 36 1 38 0;
#X connect 37 0 33 1;
#X connect 38 0 39 0;
#X connect 39 0 37 0;
#X connect 40 0 41 0;
#X connect 41 0 42 0;
#X connect 42 0 43 0;
#X connect 42 1 43 1;
#X connect 43 0 37 1;
#X connect 44 0 40 0;
#X connect 45 0 48 0;
#X connect 46 0 48 0;
#X connect 48 0 47 0;
#X connect 49 0 27 1;
#X connect 50 0 16 0;
#X connect 51 0 9 0;
#X connect 51 0 20 0;
#X connect 52 0 23 0;
#X connect 53 0 28 1;
#X connect 54 0 28 1;
#X restore 114 391 pd repeater;
#X obj 150 269 inlet;
#N canvas 0 25 1440 847 repeater 0;
#X obj 195 48 inlet;
#X obj 51 785 outlet;
#X obj 195 645 spigot;
#X msg 228 616 0;
#X msg 259 616 1;
#X obj 259 596 loadbang;
#X obj 62 247 sel 1;
#X msg 63 287 1;
#X msg 92 287 0;
#X obj 50 345 spigot;
#X text 171 33 Normal Clock in;
#X obj 50 411 f;
#X obj 79 411 + 1;
#X obj 51 567 sel 0;
#X obj 63 267 t b b;
#X msg 65 384 0;
#X obj 77 475 sel 0 1 2 3;
#X text 90 541 <-- this number is kick specific;
#X text 168 504 <-- these numbers are kick specific - slower then the rest;
#X obj 324 51 r clock4x;
#X obj 578 371 f;
#X obj 607 371 + 1;
#X msg 593 344 0;
#X obj 578 412 sel 0;
#X text 651 387 <-- rhythm quantize;
#X obj 602 300 r clock-reset;
#X obj 578 433 bng 16 250 50 0 empty empty empty 0 -8 0 10 #fcfcfc #000000 #000000;
#X obj 62 194 f;
#X obj 50 546 mod 2;
#X msg 77 496 1;
#X msg 92 515 2;
#X msg 51 676 60;
#X obj 51 714 pack f f;
#X obj 51 695 makenote 60 2;
#X obj 473 44 inlet;
#X obj 62 215 change;
#X obj 51 588 t b b;
#X obj 94 666 +;
#X obj 94 611 random 80;
#X obj 94 632 - 40;
#X obj 513 566 line;
#X floatatom 513 587 5 0 0 0 - - - 0;
#X obj 470 613 t b f;
#X obj 471 641 *;
#X msg 513 545 1 \, 0.5 2000;
#X msg 361 620 2;
#X msg 396 618 10;
#X obj 355 711 line;
#X obj 355 691 pack f 50;
#X obj 333 11 inlet;
#X obj 88 168 r \$0-2-note-repeat;
#X obj 77 448 r \$0-2-diet-drum-seq-note-repeat-s;
#X obj 578 392 mod 2;
#X msg 108 495 4;
#X msg 124 516 8;
#X connect 0 0 2 0;
#X connect 2 0 1 0;
#X connect 3 0 2 1;
#X connect 4 0 2 1;
#X connect 5 0 4 0;
#X connect 6 0 3 0;
#X connect 6 0 14 0;
#X connect 6 0 44 0;
#X connect 6 1 8 0;
#X connect 6 1 4 0;
#X connect 7 0 9 1;
#X connect 8 0 9 1;
#X connect 9 0 11 0;
#X connect 11 0 12 0;
#X connect 11 0 28 0;
#X connect 12 0 11 1;
#X connect 13 0 36 0;
#X connect 14 0 7 0;
#X connect 14 0 15 0;
#X connect 15 0 11 1;
#X connect 16 0 29 0;
#X connect 16 1 30 0;
#X connect 16 2 53 0;
#X connect 16 3 54 0;
#X connect 20 0 21 0;
#X connect 20 0 52 0;
#X connect 21 0 20 1;
#X connect 22 0 20 1;
#X connect 23 0 26 0;
#X connect 25 0 22 0;
#X connect 26 0 27 0;
#X connect 27 0 35 0;
#X connect 28 0 13 0;
#X connect 29 0 28 1;
#X connect 30 0 28 1;
#X connect 31 0 33 0;
#X connect 32 0 1 0;
#X connect 33 0 32 0;
#X connect 33 1 32 1;
#X connect 34 0 43 0;
#X connect 35 0 6 0;
#X connect 36 0 31 0;
#X connect 36 1 38 0;
#X connect 37 0 33 1;
#X connect 38 0 39 0;
#X connect 39 0 37 0;
#X connect 40 0 41 0;
#X connect 41 0 42 0;
#X connect 42 0 43 0;
#X connect 42 1 43 1;
#X connect 43 0 37 1;
#X connect 44 0 40 0;
#X connect 45 0 48 0;
#X connect 46 0 48 0;
#X connect 48 0 47 0;
#X connect 49 0 9 0;
#X connect 49 0 20 0;
#X connect 50 0 27 1;
#X connect 51 0 16 0;
#X connect 52 0 23 0;
#X connect 53 0 28 1;
#X connect 54 0 28 1;
#X restore 234 391 pd repeater;
#X obj 278 267 inlet;
#N canvas 0 25 1440 847 repeater 0;
#X obj 195 48 inlet;
#X obj 51 785 outlet;
#X obj 195 645 spigot;
#X msg 228 616 0;
#X msg 259 616 1;
#X obj 259 596 loadbang;
#X obj 62 247 sel 1;
#X msg 63 287 1;
#X msg 92 287 0;
#X obj 50 345 spigot;
#X text 171 33 Normal Clock in;
#X obj 50 411 f;
#X obj 79 411 + 1;
#X obj 51 567 sel 0;
#X obj 63 267 t b b;
#X msg 65 384 0;
#X obj 77 475 sel 0 1 2 3;
#X text 90 541 <-- this number is kick specific;
#X text 168 504 <-- these numbers are kick specific - slower then the rest;
#X obj 324 51 r clock4x;
#X obj 578 371 f;
#X obj 607 371 + 1;
#X msg 593 344 0;
#X obj 578 412 sel 0;
#X text 651 387 <-- rhythm quantize;
#X obj 602 300 r clock-reset;
#X obj 578 433 bng 16 250 50 0 empty empty empty 0 -8 0 10 #fcfcfc #000000 #000000;
#X obj 62 194 f;
#X obj 50 546 mod 2;
#X msg 77 496 1;
#X msg 92 515 2;
#X msg 108 495 3;
#X msg 51 676 60;
#X obj 51 714 pack f f;
#X obj 51 695 makenote 60 2;
#X obj 473 44 inlet;
#X obj 62 215 change;
#X msg 124 516 6;
#X obj 51 588 t b b;
#X obj 94 666 +;
#X obj 94 611 random 80;
#X obj 94 632 - 40;
#X obj 513 566 line;
#X floatatom 513 587 5 0 0 0 - - - 0;
#X obj 470 613 t b f;
#X obj 471 641 *;
#X msg 513 545 1 \, 0.5 2000;
#X msg 361 620 2;
#X msg 396 618 10;
#X obj 355 711 line;
#X obj 355 691 pack f 50;
#X obj 333 11 inlet;
#X obj 88 168 r \$0-3-note-repeat;
#X obj 77 448 r \$0-3-diet-drum-seq-note-repeat-s;
#X obj 578 392 mod 2;
#X connect 0 0 2 0;
#X connect 2 0 1 0;
#X connect 3 0 2 1;
#X connect 4 0 2 1;
#X connect 5 0 4 0;
#X connect 6 0 3 0;
#X connect 6 0 14 0;
#X connect 6 0 46 0;
#X connect 6 1 8 0;
#X connect 6 1 4 0;
#X connect 7 0 9 1;
#X connect 8 0 9 1;
#X connect 9 0 11 0;
#X connect 11 0 12 0;
#X connect 11 0 28 0;
#X connect 12 0 11 1;
#X connect 13 0 38 0;
#X connect 14 0 7 0;
#X connect 14 0 15 0;
#X connect 15 0 11 1;
#X connect 16 0 29 0;
#X connect 16 1 30 0;
#X connect 16 2 31 0;
#X connect 16 3 37 0;
#X connect 20 0 21 0;
#X connect 20 0 54 0;
#X connect 21 0 20 1;
#X connect 22 0 20 1;
#X connect 23 0 26 0;
#X connect 25 0 22 0;
#X connect 26 0 27 0;
#X connect 27 0 36 0;
#X connect 28 0 13 0;
#X connect 29 0 28 1;
#X connect 30 0 28 1;
#X connect 31 0 28 1;
#X connect 32 0 34 0;
#X connect 33 0 1 0;
#X connect 34 0 33 0;
#X connect 34 1 33 1;
#X connect 35 0 45 0;
#X connect 36 0 6 0;
#X connect 37 0 28 1;
#X connect 38 0 32 0;
#X connect 38 1 40 0;
#X connect 39 0 34 1;
#X connect 40 0 41 0;
#X connect 41 0 39 0;
#X connect 42 0 43 0;
#X connect 43 0 44 0;
#X connect 44 0 45 0;
#X connect 44 1 45 1;
#X connect 45 0 39 1;
#X connect 46 0 42 0;
#X connect 47 0 50 0;
#X connect 48 0 50 0;
#X connect 50 0 49 0;
#X connect 51 0 9 0;
#X connect 51 0 20 0;
#X connect 52 0 27 1;
#X connect 53 0 16 0;
#X connect 54 0 23 0;
#X restore 371 388 pd repeater;
#X obj 439 271 inlet;
#N canvas 0 25 1440 847 repeater 0;
#X obj 195 48 inlet;
#X obj 51 785 outlet;
#X obj 195 645 spigot;
#X msg 228 616 0;
#X msg 259 616 1;
#X obj 259 596 loadbang;
#X obj 62 247 sel 1;
#X msg 63 287 1;
#X msg 92 287 0;
#X obj 50 345 spigot;
#X text 171 33 Normal Clock in;
#X obj 50 411 f;
#X obj 79 411 + 1;
#X obj 51 567 sel 0;
#X obj 63 267 t b b;
#X msg 65 384 0;
#X obj 77 475 sel 0 1 2 3;
#X text 90 541 <-- this number is kick specific;
#X text 168 504 <-- these numbers are kick specific - slower then the rest;
#X obj 324 51 r clock4x;
#X obj 578 371 f;
#X obj 607 371 + 1;
#X msg 593 344 0;
#X obj 578 412 sel 0;
#X text 651 387 <-- rhythm quantize;
#X obj 602 300 r clock-reset;
#X obj 578 433 bng 16 250 50 0 empty empty empty 0 -8 0 10 #fcfcfc #000000 #000000;
#X obj 578 392 mod 8;
#X obj 62 194 f;
#X obj 50 546 mod 2;
#X msg 77 496 1;
#X msg 92 515 2;
#X msg 108 495 3;
#X msg 51 676 60;
#X obj 51 714 pack f f;
#X obj 51 695 makenote 60 2;
#X obj 473 44 inlet;
#X obj 62 215 change;
#X msg 124 516 6;
#X obj 51 588 t b b;
#X obj 94 666 +;
#X obj 94 611 random 80;
#X obj 94 632 - 40;
#X obj 513 566 line;
#X floatatom 513 587 5 0 0 0 - - - 0;
#X obj 470 613 t b f;
#X obj 471 641 *;
#X msg 513 545 1 \, 0.5 2000;
#X msg 361 620 2;
#X msg 396 618 10;
#X obj 355 711 line;
#X obj 355 691 pack f 50;
#X obj 333 11 inlet;
#X obj 88 168 r \$0-4-note-repeat;
#X obj 77 448 r \$0-4-diet-drum-seq-note-repeat-s;
#X connect 0 0 2 0;
#X connect 2 0 1 0;
#X connect 3 0 2 1;
#X connect 4 0 2 1;
#X connect 5 0 4 0;
#X connect 6 0 3 0;
#X connect 6 0 14 0;
#X connect 6 0 47 0;
#X connect 6 1 8 0;
#X connect 6 1 4 0;
#X connect 7 0 9 1;
#X connect 8 0 9 1;
#X connect 9 0 11 0;
#X connect 11 0 12 0;
#X connect 11 0 29 0;
#X connect 12 0 11 1;
#X connect 13 0 39 0;
#X connect 14 0 7 0;
#X connect 14 0 15 0;
#X connect 15 0 11 1;
#X connect 16 0 30 0;
#X connect 16 1 31 0;
#X connect 16 2 32 0;
#X connect 16 3 38 0;
#X connect 20 0 21 0;
#X connect 20 0 27 0;
#X connect 21 0 20 1;
#X connect 22 0 20 1;
#X connect 23 0 26 0;
#X connect 25 0 22 0;
#X connect 26 0 28 0;
#X connect 27 0 23 0;
#X connect 28 0 37 0;
#X connect 29 0 13 0;
#X connect 30 0 29 1;
#X connect 31 0 29 1;
#X connect 32 0 29 1;
#X connect 33 0 35 0;
#X connect 34 0 1 0;
#X connect 35 0 34 0;
#X connect 35 1 34 1;
#X connect 36 0 46 0;
#X connect 37 0 6 0;
#X connect 38 0 29 1;
#X connect 39 0 33 0;
#X connect 39 1 41 0;
#X connect 40 0 35 1;
#X connect 41 0 42 0;
#X connect 42 0 40 0;
#X connect 43 0 44 0;
#X connect 44 0 45 0;
#X connect 45 0 46 0;
#X connect 45 1 46 1;
#X connect 46 0 40 1;
#X connect 47 0 43 0;
#X connect 48 0 51 0;
#X connect 49 0 51 0;
#X connect 51 0 50 0;
#X connect 52 0 9 0;
#X connect 52 0 20 0;
#X connect 53 0 28 1;
#X connect 54 0 16 0;
#X restore 510 391 pd repeater;
#X obj 562 268 inlet;
#N canvas 0 25 1440 847 repeater 0;
#X obj 195 48 inlet;
#X obj 51 785 outlet;
#X obj 195 645 spigot;
#X msg 228 616 0;
#X msg 259 616 1;
#X obj 259 596 loadbang;
#X obj 62 247 sel 1;
#X msg 63 287 1;
#X msg 92 287 0;
#X obj 50 345 spigot;
#X text 171 33 Normal Clock in;
#X obj 50 411 f;
#X obj 79 411 + 1;
#X obj 51 567 sel 0;
#X obj 63 267 t b b;
#X msg 65 384 0;
#X obj 77 475 sel 0 1 2 3;
#X text 90 541 <-- this number is kick specific;
#X text 168 504 <-- these numbers are kick specific - slower then the rest;
#X obj 324 51 r clock4x;
#X obj 578 371 f;
#X obj 607 371 + 1;
#X msg 593 344 0;
#X obj 578 412 sel 0;
#X text 651 387 <-- rhythm quantize;
#X obj 602 300 r clock-reset;
#X obj 578 433 bng 16 250 50 0 empty empty empty 0 -8 0 10 #fcfcfc #000000 #000000;
#X obj 578 392 mod 8;
#X obj 62 194 f;
#X obj 50 546 mod 2;
#X msg 77 496 1;
#X msg 92 515 2;
#X msg 108 495 3;
#X msg 51 676 60;
#X obj 51 714 pack f f;
#X obj 51 695 makenote 60 2;
#X obj 473 44 inlet;
#X obj 62 215 change;
#X msg 124 516 6;
#X obj 51 588 t b b;
#X obj 94 666 +;
#X obj 94 611 random 80;
#X obj 94 632 - 40;
#X obj 513 566 line;
#X floatatom 513 587 5 0 0 0 - - - 0;
#X obj 470 613 t b f;
#X obj 471 641 *;
#X msg 513 545 1 \, 0.5 2000;
#X msg 361 620 2;
#X msg 396 618 10;
#X obj 355 711 line;
#X obj 355 691 pack f 50;
#X obj 333 11 inlet;
#X obj 88 168 r \$0-5-note-repeat;
#X obj 77 448 r \$0-5-diet-drum-seq-note-repeat-s;
#X connect 0 0 2 0;
#X connect 2 0 1 0;
#X connect 3 0 2 1;
#X connect 4 0 2 1;
#X connect 5 0 4 0;
#X connect 6 0 3 0;
#X connect 6 0 14 0;
#X connect 6 0 47 0;
#X connect 6 1 8 0;
#X connect 6 1 4 0;
#X connect 7 0 9 1;
#X connect 8 0 9 1;
#X connect 9 0 11 0;
#X connect 11 0 12 0;
#X connect 11 0 29 0;
#X connect 12 0 11 1;
#X connect 13 0 39 0;
#X connect 14 0 7 0;
#X connect 14 0 15 0;
#X connect 15 0 11 1;
#X connect 16 0 30 0;
#X connect 16 1 31 0;
#X connect 16 2 32 0;
#X connect 16 3 38 0;
#X connect 20 0 21 0;
#X connect 20 0 27 0;
#X connect 21 0 20 1;
#X connect 22 0 20 1;
#X connect 23 0 26 0;
#X connect 25 0 22 0;
#X connect 26 0 28 0;
#X connect 27 0 23 0;
#X connect 28 0 37 0;
#X connect 29 0 13 0;
#X connect 30 0 29 1;
#X connect 31 0 29 1;
#X connect 32 0 29 1;
#X connect 33 0 35 0;
#X connect 34 0 1 0;
#X connect 35 0 34 0;
#X connect 35 1 34 1;
#X connect 36 0 46 0;
#X connect 37 0 6 0;
#X connect 38 0 29 1;
#X connect 39 0 33 0;
#X connect 39 1 41 0;
#X connect 40 0 35 1;
#X connect 41 0 42 0;
#X connect 42 0 40 0;
#X connect 43 0 44 0;
#X connect 44 0 45 0;
#X connect 45 0 46 0;
#X connect 45 1 46 1;
#X connect 46 0 40 1;
#X connect 47 0 43 0;
#X connect 48 0 51 0;
#X connect 49 0 51 0;
#X connect 51 0 50 0;
#X connect 52 0 9 0;
#X connect 52 0 20 0;
#X connect 53 0 28 1;
#X connect 54 0 16 0;
#X restore 640 392 pd repeater;
#X obj 683 269 inlet;
#N canvas 0 25 1440 847 repeater 0;
#X obj 195 48 inlet;
#X obj 51 785 outlet;
#X obj 195 645 spigot;
#X msg 228 616 0;
#X msg 259 616 1;
#X obj 259 596 loadbang;
#X obj 62 247 sel 1;
#X msg 63 287 1;
#X msg 92 287 0;
#X obj 50 345 spigot;
#X text 171 33 Normal Clock in;
#X obj 50 411 f;
#X obj 79 411 + 1;
#X obj 51 567 sel 0;
#X obj 63 267 t b b;
#X msg 65 384 0;
#X obj 77 475 sel 0 1 2 3;
#X text 90 541 <-- this number is kick specific;
#X text 168 504 <-- these numbers are kick specific - slower then the rest;
#X obj 324 51 r clock4x;
#X obj 578 371 f;
#X obj 607 371 + 1;
#X msg 593 344 0;
#X obj 578 412 sel 0;
#X text 651 387 <-- rhythm quantize;
#X obj 602 300 r clock-reset;
#X obj 578 433 bng 16 250 50 0 empty empty empty 0 -8 0 10 #fcfcfc #000000 #000000;
#X obj 578 392 mod 8;
#X obj 62 194 f;
#X obj 50 546 mod 2;
#X msg 77 496 1;
#X msg 92 515 2;
#X msg 108 495 3;
#X msg 51 676 60;
#X obj 51 714 pack f f;
#X obj 51 695 makenote 60 2;
#X obj 473 44 inlet;
#X obj 62 215 change;
#X msg 124 516 6;
#X obj 51 588 t b b;
#X obj 94 666 +;
#X obj 94 611 random 80;
#X obj 94 632 - 40;
#X obj 513 566 line;
#X floatatom 513 587 5 0 0 0 - - - 0;
#X obj 470 613 t b f;
#X obj 471 641 *;
#X msg 513 545 1 \, 0.5 2000;
#X msg 361 620 2;
#X msg 396 618 10;
#X obj 355 711 line;
#X obj 355 691 pack f 50;
#X obj 333 11 inlet;
#X obj 88 168 r \$0-6-note-repeat;
#X obj 77 448 r \$0-6-diet-drum-seq-note-repeat-s;
#X connect 0 0 2 0;
#X connect 2 0 1 0;
#X connect 3 0 2 1;
#X connect 4 0 2 1;
#X connect 5 0 4 0;
#X connect 6 0 3 0;
#X connect 6 0 14 0;
#X connect 6 0 47 0;
#X connect 6 1 8 0;
#X connect 6 1 4 0;
#X connect 7 0 9 1;
#X connect 8 0 9 1;
#X connect 9 0 11 0;
#X connect 11 0 12 0;
#X connect 11 0 29 0;
#X connect 12 0 11 1;
#X connect 13 0 39 0;
#X connect 14 0 7 0;
#X connect 14 0 15 0;
#X connect 15 0 11 1;
#X connect 16 0 30 0;
#X connect 16 1 31 0;
#X connect 16 2 32 0;
#X connect 16 3 38 0;
#X connect 20 0 21 0;
#X connect 20 0 27 0;
#X connect 21 0 20 1;
#X connect 22 0 20 1;
#X connect 23 0 26 0;
#X connect 25 0 22 0;
#X connect 26 0 28 0;
#X connect 27 0 23 0;
#X connect 28 0 37 0;
#X connect 29 0 13 0;
#X connect 30 0 29 1;
#X connect 31 0 29 1;
#X connect 32 0 29 1;
#X connect 33 0 35 0;
#X connect 34 0 1 0;
#X connect 35 0 34 0;
#X connect 35 1 34 1;
#X connect 36 0 46 0;
#X connect 37 0 6 0;
#X connect 38 0 29 1;
#X connect 39 0 33 0;
#X connect 39 1 41 0;
#X connect 40 0 35 1;
#X connect 41 0 42 0;
#X connect 42 0 40 0;
#X connect 43 0 44 0;
#X connect 44 0 45 0;
#X connect 45 0 46 0;
#X connect 45 1 46 1;
#X connect 46 0 40 1;
#X connect 47 0 43 0;
#X connect 48 0 51 0;
#X connect 49 0 51 0;
#X connect 51 0 50 0;
#X connect 52 0 9 0;
#X connect 52 0 20 0;
#X connect 53 0 28 1;
#X connect 54 0 16 0;
#X restore 769 390 pd repeater;
#X obj 820 267 inlet;
#N canvas 0 25 1440 847 repeater 0;
#X obj 195 48 inlet;
#X obj 51 785 outlet;
#X obj 195 645 spigot;
#X msg 228 616 0;
#X msg 259 616 1;
#X obj 259 596 loadbang;
#X obj 62 247 sel 1;
#X msg 63 287 1;
#X msg 92 287 0;
#X obj 50 345 spigot;
#X text 171 33 Normal Clock in;
#X obj 50 411 f;
#X obj 79 411 + 1;
#X obj 51 567 sel 0;
#X obj 63 267 t b b;
#X msg 65 384 0;
#X obj 77 475 sel 0 1 2 3;
#X text 90 541 <-- this number is kick specific;
#X text 168 504 <-- these numbers are kick specific - slower then the rest;
#X obj 324 51 r clock4x;
#X obj 578 371 f;
#X obj 607 371 + 1;
#X msg 593 344 0;
#X obj 578 412 sel 0;
#X text 651 387 <-- rhythm quantize;
#X obj 602 300 r clock-reset;
#X obj 578 433 bng 16 250 50 0 empty empty empty 0 -8 0 10 #fcfcfc #000000 #000000;
#X obj 578 392 mod 8;
#X obj 62 194 f;
#X obj 50 546 mod 2;
#X msg 77 496 1;
#X msg 92 515 2;
#X msg 108 495 3;
#X msg 51 676 60;
#X obj 51 714 pack f f;
#X obj 51 695 makenote 60 2;
#X obj 473 44 inlet;
#X obj 62 215 change;
#X msg 124 516 6;
#X obj 51 588 t b b;
#X obj 94 666 +;
#X obj 94 611 random 80;
#X obj 94 632 - 40;
#X obj 513 566 line;
#X floatatom 513 587 5 0 0 0 - - - 0;
#X obj 470 613 t b f;
#X obj 471 641 *;
#X msg 513 545 1 \, 0.5 2000;
#X msg 361 620 2;
#X msg 396 618 10;
#X obj 355 711 line;
#X obj 355 691 pack f 50;
#X obj 333 11 inlet;
#X obj 88 168 r \$0-7-note-repeat;
#X obj 77 448 r \$0-7-diet-drum-seq-note-repeat-s;
#X connect 0 0 2 0;
#X connect 2 0 1 0;
#X connect 3 0 2 1;
#X connect 4 0 2 1;
#X connect 5 0 4 0;
#X connect 6 0 3 0;
#X connect 6 0 14 0;
#X connect 6 0 47 0;
#X connect 6 1 8 0;
#X connect 6 1 4 0;
#X connect 7 0 9 1;
#X connect 8 0 9 1;
#X connect 9 0 11 0;
#X connect 11 0 12 0;
#X connect 11 0 29 0;
#X connect 12 0 11 1;
#X connect 13 0 39 0;
#X connect 14 0 7 0;
#X connect 14 0 15 0;
#X connect 15 0 11 1;
#X connect 16 0 30 0;
#X connect 16 1 31 0;
#X connect 16 2 32 0;
#X connect 16 3 38 0;
#X connect 20 0 21 0;
#X connect 20 0 27 0;
#X connect 21 0 20 1;
#X connect 22 0 20 1;
#X connect 23 0 26 0;
#X connect 25 0 22 0;
#X connect 26 0 28 0;
#X connect 27 0 23 0;
#X connect 28 0 37 0;
#X connect 29 0 13 0;
#X connect 30 0 29 1;
#X connect 31 0 29 1;
#X connect 32 0 29 1;
#X connect 33 0 35 0;
#X connect 34 0 1 0;
#X connect 35 0 34 0;
#X connect 35 1 34 1;
#X connect 36 0 46 0;
#X connect 37 0 6 0;
#X connect 38 0 29 1;
#X connect 39 0 33 0;
#X connect 39 1 41 0;
#X connect 40 0 35 1;
#X connect 41 0 42 0;
#X connect 42 0 40 0;
#X connect 43 0 44 0;
#X connect 44 0 45 0;
#X connect 45 0 46 0;
#X connect 45 1 46 1;
#X connect 46 0 40 1;
#X connect 47 0 43 0;
#X connect 48 0 51 0;
#X connect 49 0 51 0;
#X connect 51 0 50 0;
#X connect 52 0 9 0;
#X connect 52 0 20 0;
#X connect 53 0 28 1;
#X connect 54 0 16 0;
#X restore 909 390 pd repeater;
#X obj 950 269 inlet;
#N canvas 0 25 1440 847 repeater 0;
#X obj 195 48 inlet;
#X obj 51 785 outlet;
#X obj 195 645 spigot;
#X msg 228 616 0;
#X msg 259 616 1;
#X obj 259 596 loadbang;
#X obj 62 247 sel 1;
#X msg 63 287 1;
#X msg 92 287 0;
#X obj 50 345 spigot;
#X text 171 33 Normal Clock in;
#X obj 50 411 f;
#X obj 79 411 + 1;
#X obj 51 567 sel 0;
#X obj 63 267 t b b;
#X msg 65 384 0;
#X obj 77 475 sel 0 1 2 3;
#X text 90 541 <-- this number is kick specific;
#X text 168 504 <-- these numbers are kick specific - slower then the rest;
#X obj 324 51 r clock4x;
#X obj 578 371 f;
#X obj 607 371 + 1;
#X msg 593 344 0;
#X obj 578 412 sel 0;
#X text 651 387 <-- rhythm quantize;
#X obj 602 300 r clock-reset;
#X obj 578 433 bng 16 250 50 0 empty empty empty 0 -8 0 10 #fcfcfc #000000 #000000;
#X obj 578 392 mod 8;
#X obj 62 194 f;
#X obj 50 546 mod 2;
#X msg 77 496 1;
#X msg 92 515 2;
#X msg 108 495 3;
#X msg 51 676 60;
#X obj 51 714 pack f f;
#X obj 51 695 makenote 60 2;
#X obj 473 44 inlet;
#X obj 62 215 change;
#X msg 124 516 6;
#X obj 51 588 t b b;
#X obj 94 666 +;
#X obj 94 611 random 80;
#X obj 94 632 - 40;
#X obj 513 566 line;
#X floatatom 513 587 5 0 0 0 - - - 0;
#X obj 470 613 t b f;
#X obj 471 641 *;
#X msg 513 545 1 \, 0.5 2000;
#X msg 361 620 2;
#X msg 396 618 10;
#X obj 355 711 line;
#X obj 355 691 pack f 50;
#X obj 333 11 inlet;
#X obj 88 168 r \$0-8-note-repeat;
#X obj 77 448 r \$0-8-diet-drum-seq-note-repeat-s;
#X connect 0 0 2 0;
#X connect 2 0 1 0;
#X connect 3 0 2 1;
#X connect 4 0 2 1;
#X connect 5 0 4 0;
#X connect 6 0 3 0;
#X connect 6 0 14 0;
#X connect 6 0 47 0;
#X connect 6 1 8 0;
#X connect 6 1 4 0;
#X connect 7 0 9 1;
#X connect 8 0 9 1;
#X connect 9 0 11 0;
#X connect 11 0 12 0;
#X connect 11 0 29 0;
#X connect 12 0 11 1;
#X connect 13 0 39 0;
#X connect 14 0 7 0;
#X connect 14 0 15 0;
#X connect 15 0 11 1;
#X connect 16 0 30 0;
#X connect 16 1 31 0;
#X connect 16 2 32 0;
#X connect 16 3 38 0;
#X connect 20 0 21 0;
#X connect 20 0 27 0;
#X connect 21 0 20 1;
#X connect 22 0 20 1;
#X connect 23 0 26 0;
#X connect 25 0 22 0;
#X connect 26 0 28 0;
#X connect 27 0 23 0;
#X connect 28 0 37 0;
#X connect 29 0 13 0;
#X connect 30 0 29 1;
#X connect 31 0 29 1;
#X connect 32 0 29 1;
#X connect 33 0 35 0;
#X connect 34 0 1 0;
#X connect 35 0 34 0;
#X connect 35 1 34 1;
#X connect 36 0 46 0;
#X connect 37 0 6 0;
#X connect 38 0 29 1;
#X connect 39 0 33 0;
#X connect 39 1 41 0;
#X connect 40 0 35 1;
#X connect 41 0 42 0;
#X connect 42 0 40 0;
#X connect 43 0 44 0;
#X connect 44 0 45 0;
#X connect 45 0 46 0;
#X connect 45 1 46 1;
#X connect 46 0 40 1;
#X connect 47 0 43 0;
#X connect 48 0 51 0;
#X connect 49 0 51 0;
#X connect 51 0 50 0;
#X connect 52 0 9 0;
#X connect 52 0 20 0;
#X connect 53 0 28 1;
#X connect 54 0 16 0;
#X restore 1029 390 pd repeater;
#X obj 1080 269 inlet;
#N canvas 63 88 779 535 increase 0;
#X obj 302 84 r global-bpm;
#X floatatom 302 109 5 0 0 0 - - - 0;
#X obj 302 131 t b f;
#X obj 302 176 / \$1;
#X msg 302 152 60000;
#X floatatom 301 233 5 0 0 0 - - - 0;
#X obj 298 336 del;
#X obj 156 86 inlet;
#X obj 152 486 outlet;
#X obj 389 129 r global-bpm;
#X floatatom 389 154 5 0 0 0 - - - 0;
#X obj 389 176 t b f;
#X obj 389 221 / \$1;
#X msg 389 197 60000;
#X floatatom 388 278 5 0 0 0 - - - 0;
#X obj 388 251 / 16;
#X obj 311 372 del;
#X obj 301 206 / 16;
#X obj 337 403 del;
#X obj 366 436 del;
#X connect 0 0 1 0;
#X connect 1 0 2 0;
#X connect 2 0 4 0;
#X connect 2 1 3 1;
#X connect 3 0 17 0;
#X connect 4 0 3 0;
#X connect 5 0 6 1;
#X connect 5 0 16 1;
#X connect 5 0 18 1;
#X connect 5 0 19 1;
#X connect 6 0 8 0;
#X connect 6 0 16 0;
#X connect 7 0 8 0;
#X connect 7 0 6 0;
#X connect 9 0 10 0;
#X connect 10 0 11 0;
#X connect 11 0 13 0;
#X connect 11 1 12 1;
#X connect 12 0 15 0;
#X connect 13 0 12 0;
#X connect 15 0 14 0;
#X connect 16 0 8 0;
#X connect 16 0 18 0;
#X connect 17 0 5 0;
#X connect 18 0 8 0;
#X connect 18 0 19 0;
#X connect 19 0 8 0;
#X restore 276 317 pd increase;
#N canvas 63 88 779 535 increase 0;
#X obj 432 107 r global-bpm;
#X floatatom 432 132 5 0 0 0 - - - 0;
#X obj 432 154 t b f;
#X obj 432 199 / \$1;
#X msg 432 175 60000;
#X floatatom 431 256 5 0 0 0 - - - 0;
#X obj 431 229 / 8;
#X obj 298 336 del;
#X obj 156 86 inlet;
#X obj 152 486 outlet;
#X connect 0 0 1 0;
#X connect 1 0 2 0;
#X connect 2 0 4 0;
#X connect 2 1 3 1;
#X connect 3 0 6 0;
#X connect 4 0 3 0;
#X connect 5 0 7 1;
#X connect 6 0 5 0;
#X connect 7 0 9 0;
#X connect 8 0 9 0;
#X connect 8 0 7 0;
#X restore 551 320 pd increase;
#N canvas 63 88 779 535 increase 0;
#X obj 432 107 r global-bpm;
#X floatatom 432 132 5 0 0 0 - - - 0;
#X obj 432 154 t b f;
#X obj 432 199 / \$1;
#X msg 432 175 60000;
#X floatatom 431 256 5 0 0 0 - - - 0;
#X obj 431 229 / 8;
#X obj 298 336 del;
#X obj 156 86 inlet;
#X obj 152 486 outlet;
#X connect 0 0 1 0;
#X connect 1 0 2 0;
#X connect 2 0 4 0;
#X connect 2 1 3 1;
#X connect 3 0 6 0;
#X connect 4 0 3 0;
#X connect 5 0 7 1;
#X connect 6 0 5 0;
#X connect 7 0 9 0;
#X connect 8 0 9 0;
#X connect 8 0 7 0;
#X restore 676 319 pd increase;
#N canvas 63 88 779 535 increase 0;
#X obj 432 107 r global-bpm;
#X floatatom 432 132 5 0 0 0 - - - 0;
#X obj 432 154 t b f;
#X obj 432 199 / \$1;
#X msg 432 175 60000;
#X floatatom 431 256 5 0 0 0 - - - 0;
#X obj 431 229 / 8;
#X obj 298 336 del;
#X obj 156 86 inlet;
#X obj 152 486 outlet;
#X connect 0 0 1 0;
#X connect 1 0 2 0;
#X connect 2 0 4 0;
#X connect 2 1 3 1;
#X connect 3 0 6 0;
#X connect 4 0 3 0;
#X connect 5 0 7 1;
#X connect 6 0 5 0;
#X connect 7 0 9 0;
#X connect 8 0 9 0;
#X connect 8 0 7 0;
#X restore 813 324 pd increase;
#N canvas 63 88 779 535 increase 0;
#X obj 432 107 r global-bpm;
#X floatatom 432 132 5 0 0 0 - - - 0;
#X obj 432 154 t b f;
#X obj 432 199 / \$1;
#X msg 432 175 60000;
#X floatatom 431 256 5 0 0 0 - - - 0;
#X obj 431 229 / 8;
#X obj 298 336 del;
#X obj 156 86 inlet;
#X obj 152 486 outlet;
#X connect 0 0 1 0;
#X connect 1 0 2 0;
#X connect 2 0 4 0;
#X connect 2 1 3 1;
#X connect 3 0 6 0;
#X connect 4 0 3 0;
#X connect 5 0 7 1;
#X connect 6 0 5 0;
#X connect 7 0 9 0;
#X connect 8 0 9 0;
#X connect 8 0 7 0;
#X restore 953 330 pd increase;
#N canvas 63 88 779 535 increase 0;
#X obj 432 107 r global-bpm;
#X floatatom 432 132 5 0 0 0 - - - 0;
#X obj 432 154 t b f;
#X obj 432 199 / \$1;
#X msg 432 175 60000;
#X floatatom 431 256 5 0 0 0 - - - 0;
#X obj 431 229 / 8;
#X obj 298 336 del;
#X obj 156 86 inlet;
#X obj 152 486 outlet;
#X connect 0 0 1 0;
#X connect 1 0 2 0;
#X connect 2 0 4 0;
#X connect 2 1 3 1;
#X connect 3 0 6 0;
#X connect 4 0 3 0;
#X connect 5 0 7 1;
#X connect 6 0 5 0;
#X connect 7 0 9 0;
#X connect 8 0 9 0;
#X connect 8 0 7 0;
#X restore 1070 329 pd increase;
#X obj 619 24 loadbang;
#X msg 619 45 100;
#N canvas 63 88 779 535 increase 0;
#X obj 302 84 r global-bpm;
#X floatatom 302 109 5 0 0 0 - - - 0;
#X obj 302 131 t b f;
#X obj 302 176 / \$1;
#X msg 302 152 60000;
#X floatatom 301 233 5 0 0 0 - - - 0;
#X obj 298 336 del;
#X obj 156 86 inlet;
#X obj 152 486 outlet;
#X obj 389 129 r global-bpm;
#X floatatom 389 154 5 0 0 0 - - - 0;
#X obj 389 176 t b f;
#X obj 389 221 / \$1;
#X msg 389 197 60000;
#X floatatom 388 278 5 0 0 0 - - - 0;
#X obj 388 251 / 16;
#X obj 346 398 del;
#X obj 301 206 / 16;
#X obj 372 450 del;
#X connect 0 0 1 0;
#X connect 1 0 2 0;
#X connect 2 0 4 0;
#X connect 2 1 3 1;
#X connect 3 0 17 0;
#X connect 4 0 3 0;
#X connect 5 0 6 1;
#X connect 5 0 16 1;
#X connect 5 0 18 1;
#X connect 6 0 8 0;
#X connect 6 0 16 0;
#X connect 7 0 8 0;
#X connect 7 0 6 0;
#X connect 9 0 10 0;
#X connect 10 0 11 0;
#X connect 11 0 13 0;
#X connect 11 1 12 1;
#X connect 12 0 15 0;
#X connect 13 0 12 0;
#X connect 15 0 14 0;
#X connect 16 0 8 0;
#X connect 16 0 18 0;
#X connect 17 0 5 0;
#X connect 18 0 8 0;
#X restore 420 328 pd increase;
#N canvas 63 88 779 535 increase 0;
#X obj 302 84 r global-bpm;
#X floatatom 302 109 5 0 0 0 - - - 0;
#X obj 302 131 t b f;
#X obj 302 176 / \$1;
#X msg 302 152 60000;
#X floatatom 301 233 5 0 0 0 - - - 0;
#X obj 298 336 del;
#X obj 156 86 inlet;
#X obj 152 486 outlet;
#X obj 311 372 del;
#X obj 301 206 / 16;
#X obj 337 403 del;
#X floatatom 342 201 5 0 0 0 - - - 0;
#X connect 0 0 1 0;
#X connect 1 0 2 0;
#X connect 2 0 4 0;
#X connect 2 1 3 1;
#X connect 3 0 10 0;
#X connect 3 0 12 0;
#X connect 4 0 3 0;
#X connect 5 0 6 1;
#X connect 5 0 9 1;
#X connect 5 0 11 1;
#X connect 6 0 8 0;
#X connect 6 0 9 0;
#X connect 7 0 8 0;
#X connect 7 0 6 0;
#X connect 9 0 8 0;
#X connect 9 0 11 0;
#X connect 10 0 5 0;
#X connect 11 0 8 0;
#X restore 149 329 pd increase;
#X connect 1 0 2 0;
#X connect 2 0 0 0;
#X connect 3 0 1 0;
#X connect 6 0 52 0;
#X connect 7 0 56 0;
#X connect 9 0 58 0;
#X connect 11 0 60 0;
#X connect 13 0 62 0;
#X connect 15 0 64 0;
#X connect 17 0 66 0;
#X connect 49 0 54 0;
#X connect 51 0 52 2;
#X connect 51 0 54 2;
#X connect 51 0 56 2;
#X connect 51 0 58 2;
#X connect 51 0 60 2;
#X connect 51 0 62 2;
#X connect 51 0 64 2;
#X connect 51 0 66 2;
#X connect 52 0 48 0;
#X connect 53 0 77 0;
#X connect 54 0 50 0;
#X connect 55 0 68 0;
#X connect 56 0 8 0;
#X connect 57 0 76 0;
#X connect 58 0 10 0;
#X connect 59 0 69 0;
#X connect 60 0 12 0;
#X connect 61 0 70 0;
#X connect 62 0 14 0;
#X connect 63 0 71 0;
#X connect 64 0 16 0;
#X connect 65 0 72 0;
#X connect 66 0 18 0;
#X connect 67 0 73 0;
#X connect 68 0 54 1;
#X connect 69 0 58 1;
#X connect 70 0 60 1;
#X connect 71 0 62 1;
#X connect 72 0 64 1;
#X connect 73 0 66 1;
#X connect 74 0 75 0;
#X connect 75 0 51 0;
#X connect 76 0 56 1;
#X connect 77 0 52 1;
#X coords 0 -1 1 1 1780 100 2 100 100;
