#N canvas 0 25 1440 789 12;
#X obj 452 53 ctlin 114;
#X obj 452 125 s main-menu;
#X obj 452 74 sel 127;
#X msg 452 95 1;
#X obj 523 74 sel 127;
#X obj 523 53 ctlin 115;
#X msg 523 95 2;
#X obj 641 51 r main-menu;
#X msg 641 103 60;
#X msg 688 100 0;
#X obj 641 75 sel 1;
#X obj 728 51 r main-menu;
#X msg 728 103 60;
#X msg 775 100 0;
#X obj 728 75 sel 2;
#X obj 642 135 ctlout 114;
#X obj 729 135 ctlout 115;
#X obj 104 112 cnv 5 5 5 empty empty PUSH-INTERFACE 0 0 0 12 #fcfcfc #404040 0;
#X obj 107 135 cnv 5 5 5 empty empty MAIN-MENU: 0 0 0 12 #fcfcfc #404040 0;
#X obj 130 -3 r main-menu;
#X floatatom 43 140 5 0 0 0 - - - 0;
#X obj 521 246 ctlin 111;
#X obj 521 268 sel 127;
#X msg 521 289 6;
#X obj 731 267 r main-menu;
#X msg 731 319 60;
#X msg 778 316 0;
#X obj 731 291 sel 6;
#X obj 732 351 ctlout 111;
#X obj 642 159 r main-menu;
#X msg 642 211 60;
#X msg 689 208 0;
#X obj 729 159 r main-menu;
#X msg 729 211 60;
#X msg 776 208 0;
#X obj 642 183 sel 3;
#X obj 729 183 sel 4;
#X obj 730 243 ctlout 113;
#X obj 643 243 ctlout 112;
#X obj 643 267 r main-menu;
#X msg 643 319 60;
#X msg 690 316 0;
#X obj 643 291 sel 5;
#X obj 644 351 ctlout 110;
#X obj 452 319 s main-menu;
#X obj 452 268 sel 127;
#X obj 452 246 ctlin 110;
#X msg 452 289 5;
#X obj 453 222 s main-menu;
#X obj 453 171 sel 127;
#X obj 524 171 sel 127;
#X msg 453 192 3;
#X msg 524 192 4;
#X obj 453 150 ctlin 112;
#X obj 523 150 ctlin 113;
#X text 451 33 MIDI_IN:;
#X text 640 31 MIDI_OUT_TO_LED:;
#X obj 304 -22 loadbang;
#X obj 107 176 cnv 5 5 5 empty empty SUB-MENU: 0 0 0 12 #fcfcfc #404040 0;
#X obj 562 692 hradio 16 1 0 8 empty empty empty 0 -8 0 10 #fcfcfc #000000 #000000 0;
#X obj 562 607 main-menu;
#X obj 641 604 main-menu;
#X obj 562 627 sel 127;
#X msg 562 648 0;
#X obj 641 623 sel 127;
#X msg 641 644 1;
#X obj 562 520 ctlin 20;
#X obj 641 520 ctlin 21;
#X text 452 3 MAIN-MENU;
#X obj 622 542 loadbang;
#X msg 622 566 1;
#X obj 701 542 loadbang;
#X msg 701 566 1;
#X obj 831 718 hradio 16 1 0 8 empty empty empty 0 -8 0 10 #fcfcfc #000000 #000000 0;
#X obj 832 643 main-menu;
#X obj 911 640 main-menu;
#X obj 832 664 sel 127;
#X msg 832 685 0;
#X obj 912 665 sel 127;
#X msg 912 686 1;
#X obj 831 561 ctlin 20;
#X obj 910 560 ctlin 21;
#X obj 981 640 main-menu;
#X obj 982 665 sel 127;
#X obj 980 560 ctlin 22;
#X obj 1051 640 main-menu;
#X obj 1052 665 sel 127;
#X obj 1050 560 ctlin 23;
#X obj 1112 642 main-menu;
#X obj 1191 639 main-menu;
#X obj 1112 663 sel 127;
#X obj 1192 664 sel 127;
#X obj 1261 639 main-menu;
#X obj 1262 664 sel 127;
#X obj 1331 639 main-menu;
#X obj 1332 664 sel 127;
#X obj 1112 560 ctlin 24;
#X obj 1191 559 ctlin 25;
#X obj 1261 559 ctlin 26;
#X obj 1331 559 ctlin 27;
#X msg 982 686 2;
#X msg 1052 686 3;
#X msg 1112 684 4;
#X msg 1192 685 5;
#X msg 1262 685 6;
#X msg 1332 685 7;
#X obj 1068 583 loadbang;
#X msg 1068 607 2;
#X obj 562 727 f;
#X obj 831 770 t f;
#X obj 831 745 f;
#X msg 830 832 13;
#X msg 862 832 0;
#X obj 831 800 sel 0;
#X msg 912 832 13;
#X msg 944 832 0;
#X obj 913 800 sel 1;
#X obj 831 914 ctlout 20;
#X obj 913 914 ctlout 21;
#X msg 982 831 13;
#X msg 1014 831 0;
#X msg 1064 831 13;
#X msg 1096 831 0;
#X msg 1135 831 13;
#X msg 1167 831 0;
#X msg 1217 831 13;
#X msg 1249 831 0;
#X msg 1287 831 13;
#X msg 1319 831 0;
#X msg 1369 830 13;
#X msg 1401 830 0;
#X obj 983 799 sel 2;
#X obj 1065 799 sel 3;
#X obj 1136 799 sel 4;
#X obj 1218 799 sel 5;
#X obj 1288 799 sel 6;
#X obj 1370 798 sel 7;
#X obj 983 913 ctlout 22;
#X obj 1065 913 ctlout 23;
#X obj 1136 913 ctlout 24;
#X obj 1218 913 ctlout 25;
#X obj 1288 912 ctlout 26;
#X obj 1370 912 ctlout 27;
#X obj 475 567 r main-menu;
#X obj 475 631 t b;
#X obj 475 591 sel 1;
#X obj 784 605 r main-menu;
#X obj 784 669 t b;
#X obj 784 629 sel 2;
#X obj 754 800 s \$0-sm-r;
#X obj 105 431 s all-menu;
#X obj 104 519 r all-menu;
#X floatatom 104 567 5 0 0 0 - - - 0;
#X floatatom 144 567 5 0 0 0 - - - 0;
#X obj 145 336 t b f;
#X obj 304 21 del 1500;
#X obj 112 216 cnv 5 5 5 empty empty SUB2-MENU: 0 0 0 12 #fcfcfc #404040 0;
#X obj 105 407 pack f f f;
#X obj 190 337 t b f;
#X obj 104 543 unpack f f f;
#X floatatom 185 567 5 0 0 0 - - - 0;
#X obj 1188 75 ctlin 75;
#X obj 1253 75 ctlin 76;
#X obj 1320 74 ctlin 77;
#X obj 1385 73 ctlin 78;
#X obj 928 101 s enc1;
#X obj 993 99 s enc2;
#X obj 1060 100 s enc3;
#X obj 1125 98 s enc4;
#X obj 1188 96 s enc5;
#X obj 1253 97 s enc6;
#X obj 1320 103 s enc7;
#X obj 1385 101 s enc8;
#X obj 107 146 hradio 15 1 0 8 empty empty empty 0 -10 0 12 #fcfcfc #000000 #000000 0;
#X obj 130 21 - 1;
#X obj 108 336 + 1;
#X obj 107 184 hradio 15 1 0 8 empty empty empty 0 -10 0 12 #fcfcfc #000000 #000000 0;
#X obj 144 304 + 1;
#X obj 192 304 + 1;
#X obj 107 225 hradio 15 1 0 8 empty empty empty 0 -10 0 12 #fcfcfc #000000 #000000 0;
#X floatatom 265 446 5 0 0 0 - - - 0;
#X msg 309 143 0, f 6;
#X obj 309 114 loadbang;
#X obj 265 422 text get menu-status;
#X obj 265 472 text set menu-status;
#X obj 265 496 text define -k menu-status;
#A set 0 \;;
#X msg 304 45 0;
#X text 439 448 <-- memory function ** not finished;
#X msg 237 31 2;
#X obj 968 238 ctlin;
#X floatatom 968 262 5 0 0 0 - - - 0;
#X floatatom 991 312 5 0 0 0 - - - 0;
#X floatatom 1030 291 5 0 0 0 - - - 0;
#X obj 928 75 ctlin 48;
#X obj 993 76 ctlin 49;
#X obj 1058 76 ctlin 50;
#X obj 1123 75 ctlin 51;
#X msg 1146 252;
#X floatatom 1204 206 5 0 0 0 - - - 0;
#X obj 1102 198 bng 19 250 50 0 empty empty empty 0 -10 0 12 #fcfcfc #000000 #000000;
#X obj 1149 326 noteout 1;
#X obj 1152 285 pack 23 f f;
#X floatatom 1153 176 5 0 0 0 - - - 0;
#X obj 889 363 notein;
#X obj 889 383 stripnote;
#X obj 889 425 bng 19 250 50 0 empty empty empty 0 -10 0 12 #fcfcfc #000000 #000000;
#X obj 1064 368 notein;
#X floatatom 1064 392 5 0 0 0 - - - 0;
#X obj 889 401 sel 91;
#X obj 888 486 s play-s;
#X obj 966 363 r play-r;
#X obj 968 387 sel 1;
#X obj 978 442 unpack f f f;
#X obj 968 483 noteout 1;
#X floatatom 1127 437 5 0 0 0 - - - 0;
#X floatatom 1091 469 5 0 0 0 - - - 0;
#X msg 968 411 64 -1;
#X connect 0 0 2 0;
#X connect 2 0 3 0;
#X connect 3 0 1 0;
#X connect 4 0 6 0;
#X connect 5 0 4 0;
#X connect 6 0 1 0;
#X connect 7 0 10 0;
#X connect 8 0 15 0;
#X connect 9 0 15 0;
#X connect 10 0 8 0;
#X connect 10 1 9 0;
#X connect 11 0 14 0;
#X connect 12 0 16 0;
#X connect 13 0 16 0;
#X connect 14 0 12 0;
#X connect 14 1 13 0;
#X connect 19 0 20 0;
#X connect 19 0 174 0;
#X connect 21 0 22 0;
#X connect 22 0 23 0;
#X connect 23 0 44 0;
#X connect 24 0 27 0;
#X connect 25 0 28 0;
#X connect 26 0 28 0;
#X connect 27 0 25 0;
#X connect 27 1 26 0;
#X connect 29 0 35 0;
#X connect 30 0 38 0;
#X connect 31 0 38 0;
#X connect 32 0 36 0;
#X connect 33 0 37 0;
#X connect 34 0 37 0;
#X connect 35 0 30 0;
#X connect 35 1 31 0;
#X connect 36 0 33 0;
#X connect 36 1 34 0;
#X connect 39 0 42 0;
#X connect 40 0 43 0;
#X connect 41 0 43 0;
#X connect 42 0 40 0;
#X connect 42 1 41 0;
#X connect 45 0 47 0;
#X connect 46 0 45 0;
#X connect 47 0 44 0;
#X connect 49 0 51 0;
#X connect 50 0 52 0;
#X connect 51 0 48 0;
#X connect 52 0 48 0;
#X connect 53 0 49 0;
#X connect 54 0 50 0;
#X connect 57 0 155 0;
#X connect 59 0 108 0;
#X connect 60 0 62 0;
#X connect 61 0 64 0;
#X connect 62 0 63 0;
#X connect 63 0 59 0;
#X connect 64 0 65 0;
#X connect 65 0 59 0;
#X connect 66 0 60 0;
#X connect 67 0 61 0;
#X connect 69 0 70 0;
#X connect 70 0 60 1;
#X connect 71 0 72 0;
#X connect 72 0 61 1;
#X connect 73 0 110 0;
#X connect 74 0 76 0;
#X connect 75 0 78 0;
#X connect 76 0 77 0;
#X connect 77 0 73 0;
#X connect 78 0 79 0;
#X connect 79 0 73 0;
#X connect 80 0 74 0;
#X connect 81 0 75 0;
#X connect 82 0 83 0;
#X connect 83 0 100 0;
#X connect 84 0 82 0;
#X connect 85 0 86 0;
#X connect 86 0 101 0;
#X connect 87 0 85 0;
#X connect 88 0 90 0;
#X connect 89 0 91 0;
#X connect 90 0 102 0;
#X connect 91 0 103 0;
#X connect 92 0 93 0;
#X connect 93 0 104 0;
#X connect 94 0 95 0;
#X connect 95 0 105 0;
#X connect 96 0 88 0;
#X connect 97 0 89 0;
#X connect 98 0 92 0;
#X connect 99 0 94 0;
#X connect 100 0 73 0;
#X connect 101 0 73 0;
#X connect 102 0 73 0;
#X connect 103 0 73 0;
#X connect 104 0 73 0;
#X connect 105 0 73 0;
#X connect 106 0 107 0;
#X connect 107 0 74 1;
#X connect 107 0 75 1;
#X connect 107 0 82 1;
#X connect 107 0 85 1;
#X connect 107 0 88 1;
#X connect 107 0 89 1;
#X connect 107 0 92 1;
#X connect 107 0 94 1;
#X connect 108 0 109 0;
#X connect 109 0 113 0;
#X connect 109 0 116 0;
#X connect 109 0 131 0;
#X connect 109 0 132 0;
#X connect 109 0 133 0;
#X connect 109 0 134 0;
#X connect 109 0 135 0;
#X connect 109 0 136 0;
#X connect 109 0 149 0;
#X connect 110 0 109 0;
#X connect 111 0 117 0;
#X connect 112 0 117 0;
#X connect 113 0 111 0;
#X connect 113 1 112 0;
#X connect 114 0 118 0;
#X connect 115 0 118 0;
#X connect 116 0 114 0;
#X connect 116 1 115 0;
#X connect 119 0 137 0;
#X connect 120 0 137 0;
#X connect 121 0 138 0;
#X connect 122 0 138 0;
#X connect 123 0 139 0;
#X connect 124 0 139 0;
#X connect 125 0 140 0;
#X connect 126 0 140 0;
#X connect 127 0 141 0;
#X connect 128 0 141 0;
#X connect 129 0 142 0;
#X connect 130 0 142 0;
#X connect 131 0 119 0;
#X connect 131 1 120 0;
#X connect 132 0 121 0;
#X connect 132 1 122 0;
#X connect 133 0 123 0;
#X connect 133 1 124 0;
#X connect 134 0 125 0;
#X connect 134 1 126 0;
#X connect 135 0 127 0;
#X connect 135 1 128 0;
#X connect 136 0 129 0;
#X connect 136 1 130 0;
#X connect 143 0 145 0;
#X connect 144 0 108 0;
#X connect 145 0 144 0;
#X connect 146 0 148 0;
#X connect 147 0 110 0;
#X connect 148 0 147 0;
#X connect 151 0 159 0;
#X connect 154 0 157 0;
#X connect 154 1 157 1;
#X connect 155 0 186 0;
#X connect 155 0 188 0;
#X connect 157 0 150 0;
#X connect 158 0 157 0;
#X connect 158 1 157 2;
#X connect 159 0 152 0;
#X connect 159 1 153 0;
#X connect 159 2 160 0;
#X connect 161 0 169 0;
#X connect 162 0 170 0;
#X connect 163 0 171 0;
#X connect 164 0 172 0;
#X connect 173 0 175 0;
#X connect 174 0 173 0;
#X connect 175 0 157 0;
#X connect 176 0 177 0;
#X connect 176 0 183 0;
#X connect 176 0 184 1;
#X connect 177 0 154 0;
#X connect 178 0 158 0;
#X connect 179 0 178 0;
#X connect 179 0 184 0;
#X connect 182 0 181 0;
#X connect 183 0 180 0;
#X connect 186 0 176 0;
#X connect 186 0 179 0;
#X connect 188 0 173 0;
#X connect 189 0 190 0;
#X connect 189 1 191 0;
#X connect 189 2 192 0;
#X connect 193 0 165 0;
#X connect 194 0 166 0;
#X connect 195 0 167 0;
#X connect 196 0 168 0;
#X connect 198 0 201 1;
#X connect 199 0 201 0;
#X connect 201 0 200 0;
#X connect 202 0 201 0;
#X connect 203 0 204 0;
#X connect 203 1 204 1;
#X connect 204 0 208 0;
#X connect 205 0 209 0;
#X connect 206 0 207 0;
#X connect 206 1 215 0;
#X connect 206 2 214 0;
#X connect 208 0 205 0;
#X connect 210 0 211 0;
#X connect 211 0 216 0;
#X connect 212 0 213 0;
#X connect 212 1 213 1;
#X connect 212 2 213 2;
#X connect 216 0 212 0;
#X coords 0 -1 1 1 200 180 2 100 100;
