#N canvas 15 28 1425 831 12;
#X obj 104 112 cnv 5 5 5 empty empty MENU/MIDI-INTERFACE 0 0 0 12 #fcfcfc #404040 0;
#X obj 130 -3 r main-menu;
#X obj 304 -22 loadbang;
#X obj 146 130 cnv 5 5 5 empty empty SUB-MENU: 0 0 0 12 #fcfcfc #404040 0;
#X obj 105 481 s all-menu;
#X obj 104 569 r all-menu;
#X floatatom 104 617 5 0 0 0 - - - 0;
#X floatatom 144 617 5 0 0 0 - - - 0;
#X obj 135 385 t b f;
#X obj 146 165 cnv 5 5 5 empty empty SUB2-MENU: 0 0 0 12 #fcfcfc #404040 0;
#X obj 105 457 pack f f f;
#X obj 180 386 t b f;
#X obj 104 593 unpack f f f;
#X floatatom 185 617 5 0 0 0 - - - 0;
#X obj 130 21 - 1;
#X obj 106 352 + 1;
#X obj 146 138 hradio 15 1 0 8 empty sub-menu empty 0 -10 0 12 #fcfcfc #000000 #000000 0;
#X obj 134 353 + 1;
#X obj 180 353 + 1;
#X obj 146 174 hradio 15 1 0 8 empty sub2-menu empty 0 -10 0 12 #fcfcfc #000000 #000000 0;
#X floatatom 730 217 5 0 0 0 - - - 0;
#X obj 730 193 text get menu-status;
#X obj 730 243 text set menu-status;
#X obj 730 267 text define -k menu-status;
#A set 0 \; 0 \; 1 \;;
#X text 904 219 <-- memory function ** not finished;
#X obj 649 -28 notein;
#X obj 649 11 stripnote;
#X obj 649 113 bng 19 250 50 0 empty empty empty 0 -10 0 12 #fcfcfc #000000 #000000;
#X obj 982 -4 notein;
#X floatatom 982 20 5 0 0 0 - - - 0;
#X obj 649 49 sel 91;
#X obj 726 -9 r play-r;
#X obj 728 15 sel 1;
#X obj 728 67 unpack f f f;
#X obj 729 96 noteout 1;
#X floatatom 1045 65 5 0 0 0 - - - 0;
#X floatatom 1009 97 5 0 0 0 - - - 0;
#X msg 728 39 64 -1;
#N canvas 0 25 1424 832 akai-apc-key 1;
#X obj 32 39 inlet;
#X obj 32 63 s apc-key-status;
#X obj 176 61 s enc1;
#X obj 241 59 s enc2;
#X obj 306 59 s enc3;
#X obj 373 58 s enc4;
#X obj 436 56 s enc5;
#X obj 501 57 s enc6;
#X obj 568 57 s enc7;
#X obj 633 55 s enc8;
#X obj 176 35 ctlin 48;
#X obj 241 36 ctlin 49;
#X obj 306 36 ctlin 50;
#X obj 371 35 ctlin 51;
#X obj 1009 36 notein;
#X obj 1009 56 stripnote;
#X obj 1009 98 bng 19 250 50 0 empty empty empty 0 -10 0 12 #fcfcfc #000000 #000000;
#X obj 1009 74 sel 91;
#X obj 181 525 r apc-key-status, f 7;
#X obj 173 603 route 1;
#X obj 173 624 unpack f f;
#X obj 173 503 r all-menu;
#X obj 173 579 spigot;
#X obj 173 710 noteout 33;
#X obj 262 524 r apc-key-status, f 7;
#X obj 254 602 route 1;
#X obj 254 623 unpack f f;
#X obj 254 502 r all-menu;
#X obj 254 578 spigot;
#X obj 254 709 noteout 33;
#X obj 341 525 r apc-key-status, f 7;
#X obj 333 603 route 1;
#X obj 333 624 unpack f f;
#X obj 333 503 r all-menu;
#X obj 333 579 spigot;
#X obj 333 710 noteout 33;
#X obj 422 524 r apc-key-status, f 7;
#X obj 414 602 route 1;
#X obj 414 623 unpack f f;
#X obj 414 502 r all-menu;
#X obj 414 578 spigot;
#X obj 414 709 noteout 33;
#X obj 1006 216 notein;
#X floatatom 1006 240 5 0 0 0 - - - 0;
#X floatatom 1069 285 5 0 0 0 - - - 0;
#X floatatom 1033 317 5 0 0 0 - - - 0;
#X obj 501 525 r apc-key-status, f 7;
#X obj 493 603 route 1;
#X obj 493 624 unpack f f;
#X obj 493 503 r all-menu;
#X obj 493 579 spigot;
#X obj 493 710 noteout 33;
#X obj 582 524 r apc-key-status, f 7;
#X obj 574 602 route 1;
#X obj 574 623 unpack f f;
#X obj 574 502 r all-menu;
#X obj 574 578 spigot;
#X obj 574 709 noteout 33;
#X obj 661 525 r apc-key-status, f 7;
#X obj 653 603 route 1;
#X obj 653 624 unpack f f;
#X obj 653 503 r all-menu;
#X obj 653 579 spigot;
#X obj 653 710 noteout 33;
#X obj 742 524 r apc-key-status, f 7;
#X obj 734 602 route 1;
#X obj 734 623 unpack f f;
#X obj 734 502 r all-menu;
#X obj 734 578 spigot;
#X obj 734 709 noteout 33;
#X text 171 481 sub-menu-led-out:;
#X obj 176 193 stripnote;
#X obj 176 235 bng 19 250 50 0 empty empty empty 0 -10 0 12 #fcfcfc #000000 #000000;
#X obj 176 173 notein 33;
#X obj 246 193 stripnote;
#X obj 246 235 bng 19 250 50 0 empty empty empty 0 -10 0 12 #fcfcfc #000000 #000000;
#X obj 246 173 notein 33;
#X obj 316 193 stripnote;
#X obj 316 235 bng 19 250 50 0 empty empty empty 0 -10 0 12 #fcfcfc #000000 #000000;
#X obj 316 173 notein 33;
#X obj 386 193 stripnote;
#X obj 386 235 bng 19 250 50 0 empty empty empty 0 -10 0 12 #fcfcfc #000000 #000000;
#X obj 386 173 notein 33;
#X obj 494 193 stripnote;
#X obj 494 235 bng 19 250 50 0 empty empty empty 0 -10 0 12 #fcfcfc #000000 #000000;
#X obj 494 173 notein 33;
#X obj 564 193 stripnote;
#X obj 564 235 bng 19 250 50 0 empty empty empty 0 -10 0 12 #fcfcfc #000000 #000000;
#X obj 564 173 notein 33;
#X obj 634 193 stripnote;
#X obj 634 235 bng 19 250 50 0 empty empty empty 0 -10 0 12 #fcfcfc #000000 #000000;
#X obj 634 173 notein 33;
#X obj 704 193 stripnote;
#X obj 704 235 bng 19 250 50 0 empty empty empty 0 -10 0 12 #fcfcfc #000000 #000000;
#X obj 704 173 notein 33;
#X text 176 148 sub-menu-midi-in:;
#X obj 176 282 s sub-menu, f 4;
#X msg 176 259 0;
#X obj 246 282 s sub-menu, f 4;
#X obj 173 646 sel 1;
#X obj 254 645 sel 2;
#X obj 333 646 sel 3;
#X obj 414 645 sel 4;
#X obj 493 646 sel 5;
#X obj 574 645 sel 6;
#X obj 653 646 sel 7;
#X obj 734 645 sel 8;
#X msg 246 259 1;
#X obj 316 282 s sub-menu, f 4;
#X obj 386 282 s sub-menu, f 4;
#X obj 495 282 s sub-menu, f 4;
#X obj 565 282 s sub-menu, f 4;
#X obj 635 282 s sub-menu, f 4;
#X obj 705 282 s sub-menu, f 4;
#X msg 316 259 2;
#X msg 386 259 3;
#X msg 495 259 4;
#X msg 565 259 5;
#X msg 635 259 6;
#X msg 705 259 7;
#X obj 176 211 sel 3;
#X obj 246 211 sel 6;
#X obj 316 211 sel 9;
#X obj 386 211 sel 12;
#X obj 494 211 sel 15;
#X obj 564 211 sel 18;
#X obj 634 211 sel 21;
#X obj 704 211 sel 24;
#X msg 173 668 3 127;
#X msg 188 689 3 0;
#X msg 254 667 6 127;
#X msg 269 688 6 0;
#X msg 333 668 9 127;
#X msg 348 689 9 0;
#X msg 414 667 12 127;
#X msg 429 688 12 0;
#X msg 493 668 15 127;
#X msg 508 689 15 0;
#X msg 574 667 18 127;
#X msg 589 688 18 0;
#X msg 653 668 21 127;
#X msg 668 689 21 0;
#X msg 734 667 24 127;
#X msg 749 688 24 0;
#X obj 181 827 r apc-key-status, f 7;
#X obj 173 881 spigot;
#X text 173 775 FADER-IN:;
#X obj 266 827 r apc-key-status, f 7;
#X obj 258 881 spigot;
#X obj 336 827 r apc-key-status, f 7;
#X obj 328 881 spigot;
#X obj 406 827 r apc-key-status, f 7;
#X obj 398 881 spigot;
#X obj 486 827 r apc-key-status, f 7;
#X obj 478 881 spigot;
#X obj 556 827 r apc-key-status, f 7;
#X obj 548 881 spigot;
#X obj 636 827 r apc-key-status, f 7;
#X obj 628 881 spigot;
#X obj 706 827 r apc-key-status, f 7;
#X obj 698 881 spigot;
#X obj 806 827 r apc-key-status, f 7;
#X obj 798 881 spigot;
#X obj 798 906 s fader-master;
#X obj 173 906 s fader-ch1, f 9;
#X obj 258 906 s fader-ch2, f 9;
#X obj 328 906 s fader-ch3, f 9;
#X obj 398 906 s fader-ch4, f 10;
#X obj 478 906 s fader-ch5, f 9;
#X obj 548 906 s fader-ch6, f 9;
#X obj 628 906 s fader-ch7, f 9;
#X obj 698 907 s fader-ch8, f 9;
#X obj 1089 599 s mute1-r;
#X obj 1089 624 r mute1-s;
#X obj 1089 482 stripnote;
#X obj 1089 524 bng 19 250 50 0 empty empty empty 0 -10 0 12 #fcfcfc #000000 #000000;
#X obj 1089 500 sel 1;
#X obj 1098 648 r apc-key-status, f 7;
#X obj 1090 702 spigot;
#X obj 1089 728 sel 1;
#X msg 1089 750 1 127;
#X msg 1104 771 1 0;
#X obj 1110 524 r apc-key-status, f 7;
#X obj 1089 575 spigot;
#X obj 1179 482 stripnote;
#X obj 1179 524 bng 19 250 50 0 empty empty empty 0 -10 0 12 #fcfcfc #000000 #000000;
#X obj 1188 648 r apc-key-status, f 7;
#X obj 1180 702 spigot;
#X obj 1179 728 sel 1;
#X obj 1200 524 r apc-key-status, f 7;
#X obj 1179 575 spigot;
#X obj 1180 500 sel 4;
#X obj 1179 599 s mute2-r;
#X obj 1179 624 r mute2-s;
#X msg 1179 750 4 127;
#X msg 1194 771 4 0;
#X msg 97 15 1;
#X obj 1269 482 stripnote;
#X obj 1269 524 bng 19 250 50 0 empty empty empty 0 -10 0 12 #fcfcfc #000000 #000000;
#X obj 1278 648 r apc-key-status, f 7;
#X obj 1270 702 spigot;
#X obj 1269 728 sel 1;
#X obj 1290 524 r apc-key-status, f 7;
#X obj 1269 575 spigot;
#X obj 1359 482 stripnote;
#X obj 1359 524 bng 19 250 50 0 empty empty empty 0 -10 0 12 #fcfcfc #000000 #000000;
#X obj 1368 648 r apc-key-status, f 7;
#X obj 1360 702 spigot;
#X obj 1359 728 sel 1;
#X obj 1380 524 r apc-key-status, f 7;
#X obj 1359 575 spigot;
#X obj 1269 500 sel 7;
#X obj 1269 599 s mute3-r;
#X obj 1269 624 r mute3-s;
#X msg 1269 750 7 127;
#X msg 1284 771 7 0;
#X obj 1360 500 sel 10;
#X obj 1359 598 s mute4-r;
#X obj 1359 624 r mute4-s;
#X msg 1359 750 10 127;
#X msg 1374 771 10 0;
#X obj 1439 482 stripnote;
#X obj 1439 524 bng 19 250 50 0 empty empty empty 0 -10 0 12 #fcfcfc #000000 #000000;
#X obj 1448 648 r apc-key-status, f 7;
#X obj 1440 702 spigot;
#X obj 1439 728 sel 1;
#X obj 1460 524 r apc-key-status, f 7;
#X obj 1439 575 spigot;
#X obj 1529 482 stripnote;
#X obj 1529 524 bng 19 250 50 0 empty empty empty 0 -10 0 12 #fcfcfc #000000 #000000;
#X obj 1538 648 r apc-key-status, f 7;
#X obj 1530 702 spigot;
#X obj 1529 728 sel 1;
#X obj 1550 524 r apc-key-status, f 7;
#X obj 1529 575 spigot;
#X obj 1619 482 stripnote;
#X obj 1619 524 bng 19 250 50 0 empty empty empty 0 -10 0 12 #fcfcfc #000000 #000000;
#X obj 1628 648 r apc-key-status, f 7;
#X obj 1620 702 spigot;
#X obj 1619 728 sel 1;
#X obj 1640 524 r apc-key-status, f 7;
#X obj 1619 575 spigot;
#X obj 1709 482 stripnote;
#X obj 1709 524 bng 19 250 50 0 empty empty empty 0 -10 0 12 #fcfcfc #000000 #000000;
#X obj 1718 648 r apc-key-status, f 7;
#X obj 1710 702 spigot;
#X obj 1709 728 sel 1;
#X obj 1730 524 r apc-key-status, f 7;
#X obj 1709 575 spigot;
#X obj 1439 500 sel 13;
#X obj 1530 500 sel 16;
#X obj 1619 500 sel 19;
#X obj 1710 500 sel 22;
#X obj 1439 599 s mute5-r;
#X obj 1529 599 s mute6-r;
#X obj 1619 599 s mute7-r;
#X obj 1709 598 s mute8-r;
#X obj 1439 624 r mute5-s;
#X obj 1529 624 r mute6-s;
#X obj 1619 624 r mute7-s;
#X obj 1709 624 r mute8-s;
#X msg 1439 750 13 127;
#X msg 1453 771 13 0;
#X msg 1529 750 16 127;
#X msg 1544 771 16 0;
#X msg 1619 750 19 127;
#X msg 1634 771 19 0;
#X msg 1709 750 22 127;
#X msg 1724 771 22 0;
#X text 1087 432 Mute-Group:;
#X obj 177 1121 unpack f f f;
#X obj 177 1143 r apc-key-status, f 7;
#X obj 177 1195 spigot;
#X obj 177 1222 sel 1;
#X msg 177 1244 64 127;
#X msg 192 1265 64 0;
#X obj 274 1121 unpack f f f;
#X obj 274 1143 r apc-key-status, f 7;
#X obj 274 1195 spigot;
#X obj 177 1286 noteout 1;
#X obj 274 1286 noteout 1;
#X obj 274 1222 sel 2;
#X msg 274 1244 65 127;
#X msg 289 1265 65 0;
#X obj 377 1121 unpack f f f;
#X obj 377 1143 r apc-key-status, f 7;
#X obj 377 1195 spigot;
#X obj 474 1088 r all-menu;
#X obj 474 1121 unpack f f f;
#X obj 474 1143 r apc-key-status, f 7;
#X obj 474 1195 spigot;
#X obj 377 1286 noteout 1;
#X obj 474 1286 noteout 1;
#X obj 377 1222 sel 3;
#X obj 474 1222 sel 4;
#X msg 377 1244 66 127;
#X msg 392 1265 66 0;
#X msg 474 1244 67 127;
#X msg 489 1265 67 0;
#X obj 577 1088 r all-menu;
#X obj 577 1121 unpack f f f;
#X obj 577 1143 r apc-key-status, f 7;
#X obj 577 1195 spigot;
#X obj 674 1088 r all-menu;
#X obj 674 1121 unpack f f f;
#X obj 674 1143 r apc-key-status, f 7;
#X obj 674 1195 spigot;
#X obj 577 1286 noteout 1;
#X obj 674 1286 noteout 1;
#X obj 777 1088 r all-menu;
#X obj 777 1121 unpack f f f;
#X obj 777 1143 r apc-key-status, f 7;
#X obj 777 1195 spigot;
#X obj 874 1088 r all-menu;
#X obj 874 1121 unpack f f f;
#X obj 874 1143 r apc-key-status, f 7;
#X obj 874 1195 spigot;
#X obj 777 1286 noteout 1;
#X obj 874 1286 noteout 1;
#X obj 577 1222 sel 5;
#X obj 674 1222 sel 6;
#X obj 777 1222 sel 7;
#X obj 874 1222 sel 8;
#X msg 577 1244 68 127;
#X msg 592 1265 68 0;
#X msg 674 1244 69 127;
#X msg 689 1265 69 0;
#X msg 777 1244 70 127;
#X msg 792 1265 70 0;
#X msg 874 1244 71 127;
#X msg 889 1265 71 0;
#X text 172 1066 SUB2 - menu - led out;
#X obj 176 1373 stripnote;
#X obj 176 1491 bng 19 250 50 0 empty empty empty 0 -10 0 12 #fcfcfc #000000 #000000;
#X obj 246 1373 stripnote;
#X obj 246 1491 bng 19 250 50 0 empty empty empty 0 -10 0 12 #fcfcfc #000000 #000000;
#X obj 316 1373 stripnote;
#X obj 316 1491 bng 19 250 50 0 empty empty empty 0 -10 0 12 #fcfcfc #000000 #000000;
#X obj 386 1373 stripnote;
#X obj 386 1491 bng 19 250 50 0 empty empty empty 0 -10 0 12 #fcfcfc #000000 #000000;
#X obj 494 1373 stripnote;
#X obj 494 1491 bng 19 250 50 0 empty empty empty 0 -10 0 12 #fcfcfc #000000 #000000;
#X obj 564 1373 stripnote;
#X obj 564 1491 bng 19 250 50 0 empty empty empty 0 -10 0 12 #fcfcfc #000000 #000000;
#X obj 634 1373 stripnote;
#X obj 634 1491 bng 19 250 50 0 empty empty empty 0 -10 0 12 #fcfcfc #000000 #000000;
#X obj 704 1373 stripnote;
#X obj 704 1491 bng 19 250 50 0 empty empty empty 0 -10 0 12 #fcfcfc #000000 #000000;
#X msg 176 1515 0;
#X msg 246 1515 1;
#X msg 316 1515 2;
#X msg 386 1515 3;
#X msg 495 1515 4;
#X msg 565 1515 5;
#X msg 635 1515 6;
#X msg 705 1515 7;
#X text 176 1328 sub2-menu-midi-in:;
#X obj 176 1345 notein 1;
#X obj 246 1345 notein 1;
#X obj 316 1345 notein 1;
#X obj 386 1345 notein 1;
#X obj 494 1345 notein 1;
#X obj 564 1345 notein 1;
#X obj 634 1345 notein 1;
#X obj 704 1345 notein 1;
#X obj 176 1391 sel 64;
#X obj 176 1538 s sub2-menu, f 5;
#X obj 246 1391 sel 65;
#X obj 182 1414 r apc-key-status, f 7;
#X obj 176 1465 spigot;
#X obj 252 1414 r apc-key-status, f 7;
#X obj 246 1465 spigot;
#X obj 322 1414 r apc-key-status, f 7;
#X obj 316 1465 spigot;
#X obj 392 1414 r apc-key-status, f 7;
#X obj 386 1465 spigot;
#X obj 500 1414 r apc-key-status, f 7;
#X obj 494 1465 spigot;
#X obj 570 1414 r apc-key-status, f 7;
#X obj 564 1465 spigot;
#X obj 640 1414 r apc-key-status, f 7;
#X obj 634 1465 spigot;
#X obj 710 1414 r apc-key-status, f 7;
#X obj 704 1465 spigot;
#X obj 316 1391 sel 66;
#X obj 386 1391 sel 67;
#X obj 494 1391 sel 68;
#X obj 564 1391 sel 69;
#X obj 634 1391 sel 70;
#X obj 704 1391 sel 71;
#X obj 246 1538 s sub2-menu, f 5;
#X obj 316 1537 s sub2-menu, f 5;
#X obj 385 1538 s sub2-menu, f 5;
#X obj 495 1538 s sub2-menu, f 5;
#X obj 565 1538 s sub2-menu, f 5;
#X obj 635 1537 s sub2-menu, f 5;
#X obj 705 1538 s sub2-menu, f 5;
#X obj 173 800 ctlin 19 33;
#X obj 258 800 ctlin 23 33;
#X obj 328 800 ctlin 27 33;
#X obj 398 800 ctlin 31 33;
#X obj 478 800 ctlin 49 33;
#X obj 548 800 ctlin 53 33;
#X obj 628 800 ctlin 57 33;
#X obj 698 800 ctlin 61 33;
#X obj 798 800 ctlin 62 33;
#X obj 992 909 sel 1;
#X obj 992 858 tgl 19 0 empty empty empty 0 -10 0 12 #fcfcfc #000000 #000000 0 1;
#X msg 992 931 85 34;
#X msg 1007 952 85 0;
#X obj 991 999 noteout;
#X obj 865 85 ctlin;
#X floatatom 865 109 5 0 0 0 - - - 0;
#X floatatom 888 171 5 0 0 0 - - - 0;
#X obj 436 35 ctlin 52;
#X obj 501 35 ctlin 53;
#X obj 568 34 ctlin 54;
#X obj 633 33 ctlin 55;
#X obj 197 1720 r apc-key-status, f 7;
#X obj 177 1772 spigot;
#X obj 294 1720 r apc-key-status, f 7;
#X obj 274 1772 spigot;
#X obj 397 1720 r apc-key-status, f 7;
#X obj 377 1772 spigot;
#X obj 494 1720 r apc-key-status, f 7;
#X obj 474 1772 spigot;
#X obj 627 1753 r apc-key-status, f 7;
#X obj 607 1805 spigot;
#X obj 724 1753 r apc-key-status, f 7;
#X obj 704 1805 spigot;
#X obj 827 1753 r apc-key-status, f 7;
#X obj 807 1805 spigot;
#X obj 924 1753 r apc-key-status, f 7;
#X obj 904 1805 spigot;
#X obj 177 1088 r all-menu;
#X obj 274 1088 r all-menu;
#X obj 377 1088 r all-menu;
#X obj 607 1678 r s-all-menu;
#X obj 704 1678 r s-all-menu;
#X obj 807 1678 r s-all-menu;
#X obj 904 1678 r s-all-menu;
#X obj 274 1793 sel 1;
#X obj 177 1857 noteout 6;
#X obj 274 1857 noteout 6;
#X obj 377 1857 noteout 6;
#X obj 474 1857 noteout 6;
#X obj 607 1896 noteout 6;
#X obj 704 1896 noteout 6;
#X obj 807 1896 noteout 6;
#X obj 904 1896 noteout 6;
#X msg 177 1815 0 16;
#X msg 191 1836 0 0;
#X msg 274 1815 1 16;
#X msg 289 1836 1 0;
#X msg 377 1815 2 16;
#X msg 392 1836 2 0;
#X msg 474 1815 3 16;
#X msg 489 1836 3 0;
#X msg 607 1854 4 16;
#X msg 622 1875 4 0;
#X msg 704 1854 5 16;
#X msg 719 1875 5 0;
#X msg 807 1854 6 16;
#X msg 822 1875 6 0;
#X msg 904 1854 7 16;
#X msg 919 1875 7 0;
#X obj 607 1833 sel 4;
#X obj 704 1832 sel 5;
#X obj 807 1832 sel 6;
#X obj 904 1832 sel 7;
#X obj 177 1700 route 1;
#X obj 177 1793 sel 1;
#X obj 274 1699 route 2;
#X obj 377 1699 route 3;
#X obj 474 1699 route 4;
#X obj 377 1793 sel 1;
#X obj 474 1793 sel 1;
#X obj 177 1678 r mod-menu;
#X obj 274 1678 r mod-menu;
#X obj 377 1678 r mod-menu;
#X obj 474 1678 r mod-menu;
#X obj 175 2107 bng 19 250 50 0 empty empty empty 0 -10 0 12 #fcfcfc #000000 #000000;
#X obj 214 2107 r apc-key-status, f 7;
#X obj 175 2188 spigot;
#X obj 175 2009 notein 1;
#X obj 295 2107 bng 19 250 50 0 empty empty empty 0 -10 0 12 #fcfcfc #000000 #000000;
#X obj 334 2107 r apc-key-status, f 7;
#X obj 295 2188 spigot;
#X obj 295 2009 notein 1;
#X obj 415 2107 bng 19 250 50 0 empty empty empty 0 -10 0 12 #fcfcfc #000000 #000000;
#X obj 454 2107 r apc-key-status, f 7;
#X obj 415 2188 spigot;
#X obj 415 2009 notein 1;
#X obj 535 2107 bng 19 250 50 0 empty empty empty 0 -10 0 12 #fcfcfc #000000 #000000;
#X obj 574 2107 r apc-key-status, f 7;
#X obj 535 2188 spigot;
#X obj 535 2009 notein 1;
#X obj 175 2033 stripnote;
#X obj 294 2037 stripnote;
#X obj 175 2213 s sub-menu;
#X obj 295 2213 s sub-menu;
#X msg 175 2131 0;
#X msg 295 2131 1;
#X obj 415 2041 stripnote;
#X msg 416 2132 2;
#X obj 535 2037 stripnote;
#X msg 535 2131 3;
#X obj 415 2213 s sub-menu;
#X obj 535 2215 s sub-menu;
#X obj 652 2106 bng 19 250 50 0 empty empty empty 0 -10 0 12 #fcfcfc #000000 #000000;
#X obj 691 2106 r apc-key-status, f 7;
#X obj 652 2187 spigot;
#X obj 652 2008 notein 1;
#X obj 652 2036 stripnote;
#X obj 652 2214 s sub-menu;
#X msg 652 2130 4;
#X obj 758 2104 bng 19 250 50 0 empty empty empty 0 -10 0 12 #fcfcfc #000000 #000000;
#X obj 797 2104 r apc-key-status, f 7;
#X obj 758 2185 spigot;
#X obj 758 2006 notein 1;
#X obj 758 2034 stripnote;
#X obj 758 2212 s sub-menu;
#X msg 758 2128 5;
#X obj 866 2104 bng 19 250 50 0 empty empty empty 0 -10 0 12 #fcfcfc #000000 #000000;
#X obj 905 2104 r apc-key-status, f 7;
#X obj 866 2185 spigot;
#X obj 866 2006 notein 1;
#X obj 866 2034 stripnote;
#X obj 866 2212 s sub-menu;
#X msg 866 2128 6;
#X obj 974 2104 bng 19 250 50 0 empty empty empty 0 -10 0 12 #fcfcfc #000000 #000000;
#X obj 1013 2104 r apc-key-status, f 7;
#X obj 974 2185 spigot;
#X obj 974 2006 notein 1;
#X obj 974 2034 stripnote;
#X obj 974 2212 s sub-menu;
#X msg 974 2128 7;
#X text 172 1646 mod menu - led out;
#X text 172 1979 sub menu - midi input;
#X obj 177 2301 unpack f f f;
#X obj 177 2323 r apc-key-status, f 7;
#X obj 177 2375 spigot;
#X obj 177 2402 sel 1;
#X obj 274 2301 unpack f f f;
#X obj 274 2323 r apc-key-status, f 7;
#X obj 274 2375 spigot;
#X obj 274 2402 sel 2;
#X obj 377 2301 unpack f f f;
#X obj 377 2323 r apc-key-status, f 7;
#X obj 377 2375 spigot;
#X obj 474 2278 r all-menu;
#X obj 474 2301 unpack f f f;
#X obj 474 2323 r apc-key-status, f 7;
#X obj 474 2375 spigot;
#X obj 377 2402 sel 3;
#X obj 474 2402 sel 4;
#X obj 577 2278 r all-menu;
#X obj 577 2301 unpack f f f;
#X obj 577 2323 r apc-key-status, f 7;
#X obj 577 2375 spigot;
#X obj 674 2278 r all-menu;
#X obj 674 2301 unpack f f f;
#X obj 674 2323 r apc-key-status, f 7;
#X obj 674 2375 spigot;
#X obj 777 2278 r all-menu;
#X obj 777 2301 unpack f f f;
#X obj 777 2323 r apc-key-status, f 7;
#X obj 777 2375 spigot;
#X obj 874 2278 r all-menu;
#X obj 874 2301 unpack f f f;
#X obj 874 2323 r apc-key-status, f 7;
#X obj 874 2375 spigot;
#X obj 577 2402 sel 5;
#X obj 674 2402 sel 6;
#X obj 777 2402 sel 7;
#X obj 874 2402 sel 8;
#X obj 177 2278 r all-menu;
#X obj 274 2278 r all-menu;
#X obj 377 2278 r all-menu;
#X text 172 2246 SUB - menu - led out;
#X obj 177 2474 noteout 6;
#X obj 275 2471 noteout 6;
#X obj 377 2474 noteout 6;
#X obj 475 2471 noteout 6;
#X obj 578 2472 noteout 6;
#X obj 675 2470 noteout 6;
#X obj 778 2472 noteout 6;
#X obj 874 2472 noteout 6;
#X obj 178 2685 bng 19 250 50 0 empty empty empty 0 -10 0 12 #fcfcfc #000000 #000000;
#X obj 217 2685 r apc-key-status, f 7;
#X obj 178 2739 spigot;
#X obj 178 2637 notein 1;
#X text 177 2609 mod-menu- midi input;
#X obj 178 2661 sel 82;
#X obj 178 2766 s \$0-mod-button1;
#X obj 308 2685 bng 19 250 50 0 empty empty empty 0 -10 0 12 #fcfcfc #000000 #000000;
#X obj 347 2685 r apc-key-status, f 7;
#X obj 308 2739 spigot;
#X obj 308 2637 notein 1;
#X obj 308 2661 sel 83;
#X obj 308 2766 s \$0-mod-button2;
#N canvas 173 117 662 531 color-pads 0;
#X obj 70 14 inlet;
#X obj 48 339 outlet;
#X obj 101 179 t f f;
#X obj 100 221 ==;
#X obj 100 242 sel 1;
#X obj 23 179 t f f;
#X obj 22 221 ==;
#X obj 22 242 sel 1;
#X obj 256 180 t f f;
#X obj 255 222 ==;
#X obj 255 243 sel 1;
#X obj 178 180 t f f;
#X obj 177 222 ==;
#X obj 177 243 sel 1;
#X obj 315 243 sel 0;
#X msg 315 263 0;
#X obj 58 199 <= 127;
#X obj 13 199 >= 101;
#X obj 178 200 >= 35;
#X obj 256 200 > 0;
#X obj 286 200 < 35;
#X obj 213 200 < 70;
#X obj 101 199 >= 70;
#X obj 136 199 <= 100;
#X msg 22 262 5;
#X msg 100 262 53;
#X msg 177 263 54;
#X msg 255 263 55;
#X obj 385 179 t f;
#X obj 385 203 sel 200;
#X msg 385 227 76;
#X connect 0 0 5 0;
#X connect 0 0 2 0;
#X connect 0 0 11 0;
#X connect 0 0 8 0;
#X connect 0 0 14 0;
#X connect 0 0 28 0;
#X connect 2 0 22 0;
#X connect 2 1 23 0;
#X connect 3 0 4 0;
#X connect 4 0 25 0;
#X connect 5 0 17 0;
#X connect 5 1 16 0;
#X connect 6 0 7 0;
#X connect 7 0 24 0;
#X connect 8 0 19 0;
#X connect 8 1 20 0;
#X connect 9 0 10 0;
#X connect 10 0 27 0;
#X connect 11 0 18 0;
#X connect 11 1 21 0;
#X connect 12 0 13 0;
#X connect 13 0 26 0;
#X connect 14 0 15 0;
#X connect 15 0 1 0;
#X connect 16 0 6 1;
#X connect 17 0 6 0;
#X connect 18 0 12 0;
#X connect 19 0 9 0;
#X connect 20 0 9 1;
#X connect 21 0 12 1;
#X connect 22 0 3 0;
#X connect 23 0 3 1;
#X connect 24 0 1 0;
#X connect 25 0 1 0;
#X connect 26 0 1 0;
#X connect 27 0 1 0;
#X connect 28 0 29 0;
#X connect 29 0 30 0;
#X connect 30 0 1 0;
#X restore 1117 1278 pd color-pads;
#X obj 1117 1216 r seq-btn-1;
#X floatatom 1117 1240 5 0 0 0 - - - 0;
#X floatatom 1117 1302 5 0 0 0 - - - 0;
#X obj 1117 1379 noteout 6;
#X msg 1117 1337 32 \$1;
#N canvas 173 117 662 531 color-pads 0;
#X obj 70 14 inlet;
#X obj 48 339 outlet;
#X obj 101 179 t f f;
#X obj 100 221 ==;
#X obj 100 242 sel 1;
#X obj 23 179 t f f;
#X obj 22 221 ==;
#X obj 22 242 sel 1;
#X obj 256 180 t f f;
#X obj 255 222 ==;
#X obj 255 243 sel 1;
#X obj 178 180 t f f;
#X obj 177 222 ==;
#X obj 177 243 sel 1;
#X obj 315 243 sel 0;
#X msg 315 263 0;
#X obj 58 199 <= 127;
#X obj 13 199 >= 101;
#X obj 178 200 >= 35;
#X obj 256 200 > 0;
#X obj 286 200 < 35;
#X obj 213 200 < 70;
#X obj 101 199 >= 70;
#X obj 136 199 <= 100;
#X msg 22 262 5;
#X msg 100 262 53;
#X msg 177 263 54;
#X msg 255 263 55;
#X obj 385 179 t f;
#X obj 385 203 sel 200;
#X msg 385 227 76;
#X connect 0 0 5 0;
#X connect 0 0 2 0;
#X connect 0 0 11 0;
#X connect 0 0 8 0;
#X connect 0 0 14 0;
#X connect 0 0 28 0;
#X connect 2 0 22 0;
#X connect 2 1 23 0;
#X connect 3 0 4 0;
#X connect 4 0 25 0;
#X connect 5 0 17 0;
#X connect 5 1 16 0;
#X connect 6 0 7 0;
#X connect 7 0 24 0;
#X connect 8 0 19 0;
#X connect 8 1 20 0;
#X connect 9 0 10 0;
#X connect 10 0 27 0;
#X connect 11 0 18 0;
#X connect 11 1 21 0;
#X connect 12 0 13 0;
#X connect 13 0 26 0;
#X connect 14 0 15 0;
#X connect 15 0 1 0;
#X connect 16 0 6 1;
#X connect 17 0 6 0;
#X connect 18 0 12 0;
#X connect 19 0 9 0;
#X connect 20 0 9 1;
#X connect 21 0 12 1;
#X connect 22 0 3 0;
#X connect 23 0 3 1;
#X connect 24 0 1 0;
#X connect 25 0 1 0;
#X connect 26 0 1 0;
#X connect 27 0 1 0;
#X connect 28 0 29 0;
#X connect 29 0 30 0;
#X connect 30 0 1 0;
#X restore 1227 1278 pd color-pads;
#X floatatom 1227 1240 5 0 0 0 - - - 0;
#X floatatom 1227 1302 5 0 0 0 - - - 0;
#X obj 1227 1379 noteout 6;
#X obj 1227 1216 r seq-btn-2;
#X msg 1227 1337 33 \$1;
#N canvas 173 117 662 531 color-pads 0;
#X obj 70 14 inlet;
#X obj 48 339 outlet;
#X obj 101 179 t f f;
#X obj 100 221 ==;
#X obj 100 242 sel 1;
#X obj 23 179 t f f;
#X obj 22 221 ==;
#X obj 22 242 sel 1;
#X obj 256 180 t f f;
#X obj 255 222 ==;
#X obj 255 243 sel 1;
#X obj 178 180 t f f;
#X obj 177 222 ==;
#X obj 177 243 sel 1;
#X obj 315 243 sel 0;
#X msg 315 263 0;
#X obj 58 199 <= 127;
#X obj 13 199 >= 101;
#X obj 178 200 >= 35;
#X obj 256 200 > 0;
#X obj 286 200 < 35;
#X obj 213 200 < 70;
#X obj 101 199 >= 70;
#X obj 136 199 <= 100;
#X msg 22 262 5;
#X msg 100 262 53;
#X msg 177 263 54;
#X msg 255 263 55;
#X obj 385 179 t f;
#X obj 385 203 sel 200;
#X msg 385 227 76;
#X connect 0 0 5 0;
#X connect 0 0 2 0;
#X connect 0 0 11 0;
#X connect 0 0 8 0;
#X connect 0 0 14 0;
#X connect 0 0 28 0;
#X connect 2 0 22 0;
#X connect 2 1 23 0;
#X connect 3 0 4 0;
#X connect 4 0 25 0;
#X connect 5 0 17 0;
#X connect 5 1 16 0;
#X connect 6 0 7 0;
#X connect 7 0 24 0;
#X connect 8 0 19 0;
#X connect 8 1 20 0;
#X connect 9 0 10 0;
#X connect 10 0 27 0;
#X connect 11 0 18 0;
#X connect 11 1 21 0;
#X connect 12 0 13 0;
#X connect 13 0 26 0;
#X connect 14 0 15 0;
#X connect 15 0 1 0;
#X connect 16 0 6 1;
#X connect 17 0 6 0;
#X connect 18 0 12 0;
#X connect 19 0 9 0;
#X connect 20 0 9 1;
#X connect 21 0 12 1;
#X connect 22 0 3 0;
#X connect 23 0 3 1;
#X connect 24 0 1 0;
#X connect 25 0 1 0;
#X connect 26 0 1 0;
#X connect 27 0 1 0;
#X connect 28 0 29 0;
#X connect 29 0 30 0;
#X connect 30 0 1 0;
#X restore 1337 1278 pd color-pads;
#X floatatom 1337 1240 5 0 0 0 - - - 0;
#X floatatom 1337 1302 5 0 0 0 - - - 0;
#X obj 1337 1379 noteout 6;
#N canvas 173 117 662 531 color-pads 0;
#X obj 70 14 inlet;
#X obj 48 339 outlet;
#X obj 101 179 t f f;
#X obj 100 221 ==;
#X obj 100 242 sel 1;
#X obj 23 179 t f f;
#X obj 22 221 ==;
#X obj 22 242 sel 1;
#X obj 256 180 t f f;
#X obj 255 222 ==;
#X obj 255 243 sel 1;
#X obj 178 180 t f f;
#X obj 177 222 ==;
#X obj 177 243 sel 1;
#X obj 315 243 sel 0;
#X msg 315 263 0;
#X obj 58 199 <= 127;
#X obj 13 199 >= 101;
#X obj 178 200 >= 35;
#X obj 256 200 > 0;
#X obj 286 200 < 35;
#X obj 213 200 < 70;
#X obj 101 199 >= 70;
#X obj 136 199 <= 100;
#X msg 22 262 5;
#X msg 100 262 53;
#X msg 177 263 54;
#X msg 255 263 55;
#X obj 385 179 t f;
#X obj 385 203 sel 200;
#X msg 385 227 76;
#X connect 0 0 5 0;
#X connect 0 0 2 0;
#X connect 0 0 11 0;
#X connect 0 0 8 0;
#X connect 0 0 14 0;
#X connect 0 0 28 0;
#X connect 2 0 22 0;
#X connect 2 1 23 0;
#X connect 3 0 4 0;
#X connect 4 0 25 0;
#X connect 5 0 17 0;
#X connect 5 1 16 0;
#X connect 6 0 7 0;
#X connect 7 0 24 0;
#X connect 8 0 19 0;
#X connect 8 1 20 0;
#X connect 9 0 10 0;
#X connect 10 0 27 0;
#X connect 11 0 18 0;
#X connect 11 1 21 0;
#X connect 12 0 13 0;
#X connect 13 0 26 0;
#X connect 14 0 15 0;
#X connect 15 0 1 0;
#X connect 16 0 6 1;
#X connect 17 0 6 0;
#X connect 18 0 12 0;
#X connect 19 0 9 0;
#X connect 20 0 9 1;
#X connect 21 0 12 1;
#X connect 22 0 3 0;
#X connect 23 0 3 1;
#X connect 24 0 1 0;
#X connect 25 0 1 0;
#X connect 26 0 1 0;
#X connect 27 0 1 0;
#X connect 28 0 29 0;
#X connect 29 0 30 0;
#X connect 30 0 1 0;
#X restore 1447 1278 pd color-pads;
#X floatatom 1447 1240 5 0 0 0 - - - 0;
#X floatatom 1447 1302 5 0 0 0 - - - 0;
#X obj 1447 1379 noteout 6;
#X obj 1337 1216 r seq-btn-3;
#X obj 1447 1216 r seq-btn-4;
#X msg 1337 1337 34 \$1;
#X msg 1447 1337 35 \$1;
#N canvas 173 117 662 531 color-pads 0;
#X obj 70 14 inlet;
#X obj 48 339 outlet;
#X obj 101 179 t f f;
#X obj 100 221 ==;
#X obj 100 242 sel 1;
#X obj 23 179 t f f;
#X obj 22 221 ==;
#X obj 22 242 sel 1;
#X obj 256 180 t f f;
#X obj 255 222 ==;
#X obj 255 243 sel 1;
#X obj 178 180 t f f;
#X obj 177 222 ==;
#X obj 177 243 sel 1;
#X obj 315 243 sel 0;
#X msg 315 263 0;
#X obj 58 199 <= 127;
#X obj 13 199 >= 101;
#X obj 178 200 >= 35;
#X obj 256 200 > 0;
#X obj 286 200 < 35;
#X obj 213 200 < 70;
#X obj 101 199 >= 70;
#X obj 136 199 <= 100;
#X msg 22 262 5;
#X msg 100 262 53;
#X msg 177 263 54;
#X msg 255 263 55;
#X obj 385 179 t f;
#X obj 385 203 sel 200;
#X msg 385 227 76;
#X connect 0 0 5 0;
#X connect 0 0 2 0;
#X connect 0 0 11 0;
#X connect 0 0 8 0;
#X connect 0 0 14 0;
#X connect 0 0 28 0;
#X connect 2 0 22 0;
#X connect 2 1 23 0;
#X connect 3 0 4 0;
#X connect 4 0 25 0;
#X connect 5 0 17 0;
#X connect 5 1 16 0;
#X connect 6 0 7 0;
#X connect 7 0 24 0;
#X connect 8 0 19 0;
#X connect 8 1 20 0;
#X connect 9 0 10 0;
#X connect 10 0 27 0;
#X connect 11 0 18 0;
#X connect 11 1 21 0;
#X connect 12 0 13 0;
#X connect 13 0 26 0;
#X connect 14 0 15 0;
#X connect 15 0 1 0;
#X connect 16 0 6 1;
#X connect 17 0 6 0;
#X connect 18 0 12 0;
#X connect 19 0 9 0;
#X connect 20 0 9 1;
#X connect 21 0 12 1;
#X connect 22 0 3 0;
#X connect 23 0 3 1;
#X connect 24 0 1 0;
#X connect 25 0 1 0;
#X connect 26 0 1 0;
#X connect 27 0 1 0;
#X connect 28 0 29 0;
#X connect 29 0 30 0;
#X connect 30 0 1 0;
#X restore 1567 1278 pd color-pads;
#X floatatom 1567 1240 5 0 0 0 - - - 0;
#X floatatom 1567 1302 5 0 0 0 - - - 0;
#X obj 1567 1379 noteout 6;
#N canvas 173 117 662 531 color-pads 0;
#X obj 70 14 inlet;
#X obj 48 339 outlet;
#X obj 101 179 t f f;
#X obj 100 221 ==;
#X obj 100 242 sel 1;
#X obj 23 179 t f f;
#X obj 22 221 ==;
#X obj 22 242 sel 1;
#X obj 256 180 t f f;
#X obj 255 222 ==;
#X obj 255 243 sel 1;
#X obj 178 180 t f f;
#X obj 177 222 ==;
#X obj 177 243 sel 1;
#X obj 315 243 sel 0;
#X msg 315 263 0;
#X obj 58 199 <= 127;
#X obj 13 199 >= 101;
#X obj 178 200 >= 35;
#X obj 256 200 > 0;
#X obj 286 200 < 35;
#X obj 213 200 < 70;
#X obj 101 199 >= 70;
#X obj 136 199 <= 100;
#X msg 22 262 5;
#X msg 100 262 53;
#X msg 177 263 54;
#X msg 255 263 55;
#X obj 385 179 t f;
#X obj 385 203 sel 200;
#X msg 385 227 76;
#X connect 0 0 5 0;
#X connect 0 0 2 0;
#X connect 0 0 11 0;
#X connect 0 0 8 0;
#X connect 0 0 14 0;
#X connect 0 0 28 0;
#X connect 2 0 22 0;
#X connect 2 1 23 0;
#X connect 3 0 4 0;
#X connect 4 0 25 0;
#X connect 5 0 17 0;
#X connect 5 1 16 0;
#X connect 6 0 7 0;
#X connect 7 0 24 0;
#X connect 8 0 19 0;
#X connect 8 1 20 0;
#X connect 9 0 10 0;
#X connect 10 0 27 0;
#X connect 11 0 18 0;
#X connect 11 1 21 0;
#X connect 12 0 13 0;
#X connect 13 0 26 0;
#X connect 14 0 15 0;
#X connect 15 0 1 0;
#X connect 16 0 6 1;
#X connect 17 0 6 0;
#X connect 18 0 12 0;
#X connect 19 0 9 0;
#X connect 20 0 9 1;
#X connect 21 0 12 1;
#X connect 22 0 3 0;
#X connect 23 0 3 1;
#X connect 24 0 1 0;
#X connect 25 0 1 0;
#X connect 26 0 1 0;
#X connect 27 0 1 0;
#X connect 28 0 29 0;
#X connect 29 0 30 0;
#X connect 30 0 1 0;
#X restore 1677 1278 pd color-pads;
#X floatatom 1677 1240 5 0 0 0 - - - 0;
#X floatatom 1677 1302 5 0 0 0 - - - 0;
#X obj 1677 1379 noteout 6;
#N canvas 173 117 662 531 color-pads 0;
#X obj 70 14 inlet;
#X obj 48 339 outlet;
#X obj 101 179 t f f;
#X obj 100 221 ==;
#X obj 100 242 sel 1;
#X obj 23 179 t f f;
#X obj 22 221 ==;
#X obj 22 242 sel 1;
#X obj 256 180 t f f;
#X obj 255 222 ==;
#X obj 255 243 sel 1;
#X obj 178 180 t f f;
#X obj 177 222 ==;
#X obj 177 243 sel 1;
#X obj 315 243 sel 0;
#X msg 315 263 0;
#X obj 58 199 <= 127;
#X obj 13 199 >= 101;
#X obj 178 200 >= 35;
#X obj 256 200 > 0;
#X obj 286 200 < 35;
#X obj 213 200 < 70;
#X obj 101 199 >= 70;
#X obj 136 199 <= 100;
#X msg 22 262 5;
#X msg 100 262 53;
#X msg 177 263 54;
#X msg 255 263 55;
#X obj 385 179 t f;
#X obj 385 203 sel 200;
#X msg 385 227 76;
#X connect 0 0 5 0;
#X connect 0 0 2 0;
#X connect 0 0 11 0;
#X connect 0 0 8 0;
#X connect 0 0 14 0;
#X connect 0 0 28 0;
#X connect 2 0 22 0;
#X connect 2 1 23 0;
#X connect 3 0 4 0;
#X connect 4 0 25 0;
#X connect 5 0 17 0;
#X connect 5 1 16 0;
#X connect 6 0 7 0;
#X connect 7 0 24 0;
#X connect 8 0 19 0;
#X connect 8 1 20 0;
#X connect 9 0 10 0;
#X connect 10 0 27 0;
#X connect 11 0 18 0;
#X connect 11 1 21 0;
#X connect 12 0 13 0;
#X connect 13 0 26 0;
#X connect 14 0 15 0;
#X connect 15 0 1 0;
#X connect 16 0 6 1;
#X connect 17 0 6 0;
#X connect 18 0 12 0;
#X connect 19 0 9 0;
#X connect 20 0 9 1;
#X connect 21 0 12 1;
#X connect 22 0 3 0;
#X connect 23 0 3 1;
#X connect 24 0 1 0;
#X connect 25 0 1 0;
#X connect 26 0 1 0;
#X connect 27 0 1 0;
#X connect 28 0 29 0;
#X connect 29 0 30 0;
#X connect 30 0 1 0;
#X restore 1787 1278 pd color-pads;
#X floatatom 1787 1240 5 0 0 0 - - - 0;
#X floatatom 1787 1302 5 0 0 0 - - - 0;
#X obj 1787 1379 noteout 6;
#N canvas 173 117 662 531 color-pads 0;
#X obj 70 14 inlet;
#X obj 48 339 outlet;
#X obj 101 179 t f f;
#X obj 100 221 ==;
#X obj 100 242 sel 1;
#X obj 23 179 t f f;
#X obj 22 221 ==;
#X obj 22 242 sel 1;
#X obj 256 180 t f f;
#X obj 255 222 ==;
#X obj 255 243 sel 1;
#X obj 178 180 t f f;
#X obj 177 222 ==;
#X obj 177 243 sel 1;
#X obj 315 243 sel 0;
#X msg 315 263 0;
#X obj 58 199 <= 127;
#X obj 13 199 >= 101;
#X obj 178 200 >= 35;
#X obj 256 200 > 0;
#X obj 286 200 < 35;
#X obj 213 200 < 70;
#X obj 101 199 >= 70;
#X obj 136 199 <= 100;
#X msg 22 262 5;
#X msg 100 262 53;
#X msg 177 263 54;
#X msg 255 263 55;
#X obj 385 179 t f;
#X obj 385 203 sel 200;
#X msg 385 227 76;
#X connect 0 0 5 0;
#X connect 0 0 2 0;
#X connect 0 0 11 0;
#X connect 0 0 8 0;
#X connect 0 0 14 0;
#X connect 0 0 28 0;
#X connect 2 0 22 0;
#X connect 2 1 23 0;
#X connect 3 0 4 0;
#X connect 4 0 25 0;
#X connect 5 0 17 0;
#X connect 5 1 16 0;
#X connect 6 0 7 0;
#X connect 7 0 24 0;
#X connect 8 0 19 0;
#X connect 8 1 20 0;
#X connect 9 0 10 0;
#X connect 10 0 27 0;
#X connect 11 0 18 0;
#X connect 11 1 21 0;
#X connect 12 0 13 0;
#X connect 13 0 26 0;
#X connect 14 0 15 0;
#X connect 15 0 1 0;
#X connect 16 0 6 1;
#X connect 17 0 6 0;
#X connect 18 0 12 0;
#X connect 19 0 9 0;
#X connect 20 0 9 1;
#X connect 21 0 12 1;
#X connect 22 0 3 0;
#X connect 23 0 3 1;
#X connect 24 0 1 0;
#X connect 25 0 1 0;
#X connect 26 0 1 0;
#X connect 27 0 1 0;
#X connect 28 0 29 0;
#X connect 29 0 30 0;
#X connect 30 0 1 0;
#X restore 1897 1278 pd color-pads;
#X floatatom 1897 1240 5 0 0 0 - - - 0;
#X floatatom 1897 1302 5 0 0 0 - - - 0;
#X obj 1897 1379 noteout 6;
#X obj 1567 1216 r seq-btn-5;
#X obj 1677 1216 r seq-btn-6;
#X obj 1787 1216 r seq-btn-7;
#X obj 1897 1216 r seq-btn-8;
#X msg 1567 1337 36 \$1;
#X msg 1677 1337 37 \$1;
#X msg 1787 1337 38 \$1;
#X msg 1897 1337 39 \$1;
#N canvas 173 117 662 531 color-pads 0;
#X obj 70 14 inlet;
#X obj 48 339 outlet;
#X obj 101 179 t f f;
#X obj 100 221 ==;
#X obj 100 242 sel 1;
#X obj 23 179 t f f;
#X obj 22 221 ==;
#X obj 22 242 sel 1;
#X obj 256 180 t f f;
#X obj 255 222 ==;
#X obj 255 243 sel 1;
#X obj 178 180 t f f;
#X obj 177 222 ==;
#X obj 177 243 sel 1;
#X obj 315 243 sel 0;
#X msg 315 263 0;
#X obj 58 199 <= 127;
#X obj 13 199 >= 101;
#X obj 178 200 >= 35;
#X obj 256 200 > 0;
#X obj 286 200 < 35;
#X obj 213 200 < 70;
#X obj 101 199 >= 70;
#X obj 136 199 <= 100;
#X msg 22 262 5;
#X msg 100 262 53;
#X msg 177 263 54;
#X msg 255 263 55;
#X obj 385 179 t f;
#X obj 385 203 sel 200;
#X msg 385 227 76;
#X connect 0 0 5 0;
#X connect 0 0 2 0;
#X connect 0 0 11 0;
#X connect 0 0 8 0;
#X connect 0 0 14 0;
#X connect 0 0 28 0;
#X connect 2 0 22 0;
#X connect 2 1 23 0;
#X connect 3 0 4 0;
#X connect 4 0 25 0;
#X connect 5 0 17 0;
#X connect 5 1 16 0;
#X connect 6 0 7 0;
#X connect 7 0 24 0;
#X connect 8 0 19 0;
#X connect 8 1 20 0;
#X connect 9 0 10 0;
#X connect 10 0 27 0;
#X connect 11 0 18 0;
#X connect 11 1 21 0;
#X connect 12 0 13 0;
#X connect 13 0 26 0;
#X connect 14 0 15 0;
#X connect 15 0 1 0;
#X connect 16 0 6 1;
#X connect 17 0 6 0;
#X connect 18 0 12 0;
#X connect 19 0 9 0;
#X connect 20 0 9 1;
#X connect 21 0 12 1;
#X connect 22 0 3 0;
#X connect 23 0 3 1;
#X connect 24 0 1 0;
#X connect 25 0 1 0;
#X connect 26 0 1 0;
#X connect 27 0 1 0;
#X connect 28 0 29 0;
#X connect 29 0 30 0;
#X connect 30 0 1 0;
#X restore 1117 1508 pd color-pads;
#X floatatom 1117 1470 5 0 0 0 - - - 0;
#X floatatom 1117 1532 5 0 0 0 - - - 0;
#X obj 1117 1609 noteout 6;
#N canvas 173 117 662 531 color-pads 0;
#X obj 70 14 inlet;
#X obj 48 339 outlet;
#X obj 101 179 t f f;
#X obj 100 221 ==;
#X obj 100 242 sel 1;
#X obj 23 179 t f f;
#X obj 22 221 ==;
#X obj 22 242 sel 1;
#X obj 256 180 t f f;
#X obj 255 222 ==;
#X obj 255 243 sel 1;
#X obj 178 180 t f f;
#X obj 177 222 ==;
#X obj 177 243 sel 1;
#X obj 315 243 sel 0;
#X msg 315 263 0;
#X obj 58 199 <= 127;
#X obj 13 199 >= 101;
#X obj 178 200 >= 35;
#X obj 256 200 > 0;
#X obj 286 200 < 35;
#X obj 213 200 < 70;
#X obj 101 199 >= 70;
#X obj 136 199 <= 100;
#X msg 22 262 5;
#X msg 100 262 53;
#X msg 177 263 54;
#X msg 255 263 55;
#X obj 385 179 t f;
#X obj 385 203 sel 200;
#X msg 385 227 76;
#X connect 0 0 5 0;
#X connect 0 0 2 0;
#X connect 0 0 11 0;
#X connect 0 0 8 0;
#X connect 0 0 14 0;
#X connect 0 0 28 0;
#X connect 2 0 22 0;
#X connect 2 1 23 0;
#X connect 3 0 4 0;
#X connect 4 0 25 0;
#X connect 5 0 17 0;
#X connect 5 1 16 0;
#X connect 6 0 7 0;
#X connect 7 0 24 0;
#X connect 8 0 19 0;
#X connect 8 1 20 0;
#X connect 9 0 10 0;
#X connect 10 0 27 0;
#X connect 11 0 18 0;
#X connect 11 1 21 0;
#X connect 12 0 13 0;
#X connect 13 0 26 0;
#X connect 14 0 15 0;
#X connect 15 0 1 0;
#X connect 16 0 6 1;
#X connect 17 0 6 0;
#X connect 18 0 12 0;
#X connect 19 0 9 0;
#X connect 20 0 9 1;
#X connect 21 0 12 1;
#X connect 22 0 3 0;
#X connect 23 0 3 1;
#X connect 24 0 1 0;
#X connect 25 0 1 0;
#X connect 26 0 1 0;
#X connect 27 0 1 0;
#X connect 28 0 29 0;
#X connect 29 0 30 0;
#X connect 30 0 1 0;
#X restore 1227 1508 pd color-pads;
#X floatatom 1227 1470 5 0 0 0 - - - 0;
#X floatatom 1227 1532 5 0 0 0 - - - 0;
#X obj 1227 1609 noteout 6;
#N canvas 173 117 662 531 color-pads 0;
#X obj 70 14 inlet;
#X obj 48 339 outlet;
#X obj 101 179 t f f;
#X obj 100 221 ==;
#X obj 100 242 sel 1;
#X obj 23 179 t f f;
#X obj 22 221 ==;
#X obj 22 242 sel 1;
#X obj 256 180 t f f;
#X obj 255 222 ==;
#X obj 255 243 sel 1;
#X obj 178 180 t f f;
#X obj 177 222 ==;
#X obj 177 243 sel 1;
#X obj 315 243 sel 0;
#X msg 315 263 0;
#X obj 58 199 <= 127;
#X obj 13 199 >= 101;
#X obj 178 200 >= 35;
#X obj 256 200 > 0;
#X obj 286 200 < 35;
#X obj 213 200 < 70;
#X obj 101 199 >= 70;
#X obj 136 199 <= 100;
#X msg 22 262 5;
#X msg 100 262 53;
#X msg 177 263 54;
#X msg 255 263 55;
#X obj 385 179 t f;
#X obj 385 203 sel 200;
#X msg 385 227 76;
#X connect 0 0 5 0;
#X connect 0 0 2 0;
#X connect 0 0 11 0;
#X connect 0 0 8 0;
#X connect 0 0 14 0;
#X connect 0 0 28 0;
#X connect 2 0 22 0;
#X connect 2 1 23 0;
#X connect 3 0 4 0;
#X connect 4 0 25 0;
#X connect 5 0 17 0;
#X connect 5 1 16 0;
#X connect 6 0 7 0;
#X connect 7 0 24 0;
#X connect 8 0 19 0;
#X connect 8 1 20 0;
#X connect 9 0 10 0;
#X connect 10 0 27 0;
#X connect 11 0 18 0;
#X connect 11 1 21 0;
#X connect 12 0 13 0;
#X connect 13 0 26 0;
#X connect 14 0 15 0;
#X connect 15 0 1 0;
#X connect 16 0 6 1;
#X connect 17 0 6 0;
#X connect 18 0 12 0;
#X connect 19 0 9 0;
#X connect 20 0 9 1;
#X connect 21 0 12 1;
#X connect 22 0 3 0;
#X connect 23 0 3 1;
#X connect 24 0 1 0;
#X connect 25 0 1 0;
#X connect 26 0 1 0;
#X connect 27 0 1 0;
#X connect 28 0 29 0;
#X connect 29 0 30 0;
#X connect 30 0 1 0;
#X restore 1337 1508 pd color-pads;
#X floatatom 1337 1470 5 0 0 0 - - - 0;
#X floatatom 1337 1532 5 0 0 0 - - - 0;
#X obj 1337 1609 noteout 6;
#N canvas 173 117 662 531 color-pads 0;
#X obj 70 14 inlet;
#X obj 48 339 outlet;
#X obj 101 179 t f f;
#X obj 100 221 ==;
#X obj 100 242 sel 1;
#X obj 23 179 t f f;
#X obj 22 221 ==;
#X obj 22 242 sel 1;
#X obj 256 180 t f f;
#X obj 255 222 ==;
#X obj 255 243 sel 1;
#X obj 178 180 t f f;
#X obj 177 222 ==;
#X obj 177 243 sel 1;
#X obj 315 243 sel 0;
#X msg 315 263 0;
#X obj 58 199 <= 127;
#X obj 13 199 >= 101;
#X obj 178 200 >= 35;
#X obj 256 200 > 0;
#X obj 286 200 < 35;
#X obj 213 200 < 70;
#X obj 101 199 >= 70;
#X obj 136 199 <= 100;
#X msg 22 262 5;
#X msg 100 262 53;
#X msg 177 263 54;
#X msg 255 263 55;
#X obj 385 179 t f;
#X obj 385 203 sel 200;
#X msg 385 227 76;
#X connect 0 0 5 0;
#X connect 0 0 2 0;
#X connect 0 0 11 0;
#X connect 0 0 8 0;
#X connect 0 0 14 0;
#X connect 0 0 28 0;
#X connect 2 0 22 0;
#X connect 2 1 23 0;
#X connect 3 0 4 0;
#X connect 4 0 25 0;
#X connect 5 0 17 0;
#X connect 5 1 16 0;
#X connect 6 0 7 0;
#X connect 7 0 24 0;
#X connect 8 0 19 0;
#X connect 8 1 20 0;
#X connect 9 0 10 0;
#X connect 10 0 27 0;
#X connect 11 0 18 0;
#X connect 11 1 21 0;
#X connect 12 0 13 0;
#X connect 13 0 26 0;
#X connect 14 0 15 0;
#X connect 15 0 1 0;
#X connect 16 0 6 1;
#X connect 17 0 6 0;
#X connect 18 0 12 0;
#X connect 19 0 9 0;
#X connect 20 0 9 1;
#X connect 21 0 12 1;
#X connect 22 0 3 0;
#X connect 23 0 3 1;
#X connect 24 0 1 0;
#X connect 25 0 1 0;
#X connect 26 0 1 0;
#X connect 27 0 1 0;
#X connect 28 0 29 0;
#X connect 29 0 30 0;
#X connect 30 0 1 0;
#X restore 1447 1508 pd color-pads;
#X floatatom 1447 1470 5 0 0 0 - - - 0;
#X floatatom 1447 1532 5 0 0 0 - - - 0;
#X obj 1447 1609 noteout 6;
#N canvas 173 117 662 531 color-pads 0;
#X obj 70 14 inlet;
#X obj 48 339 outlet;
#X obj 101 179 t f f;
#X obj 100 221 ==;
#X obj 100 242 sel 1;
#X obj 23 179 t f f;
#X obj 22 221 ==;
#X obj 22 242 sel 1;
#X obj 256 180 t f f;
#X obj 255 222 ==;
#X obj 255 243 sel 1;
#X obj 178 180 t f f;
#X obj 177 222 ==;
#X obj 177 243 sel 1;
#X obj 315 243 sel 0;
#X msg 315 263 0;
#X obj 58 199 <= 127;
#X obj 13 199 >= 101;
#X obj 178 200 >= 35;
#X obj 256 200 > 0;
#X obj 286 200 < 35;
#X obj 213 200 < 70;
#X obj 101 199 >= 70;
#X obj 136 199 <= 100;
#X msg 22 262 5;
#X msg 100 262 53;
#X msg 177 263 54;
#X msg 255 263 55;
#X obj 385 179 t f;
#X obj 385 203 sel 200;
#X msg 385 227 76;
#X connect 0 0 5 0;
#X connect 0 0 2 0;
#X connect 0 0 11 0;
#X connect 0 0 8 0;
#X connect 0 0 14 0;
#X connect 0 0 28 0;
#X connect 2 0 22 0;
#X connect 2 1 23 0;
#X connect 3 0 4 0;
#X connect 4 0 25 0;
#X connect 5 0 17 0;
#X connect 5 1 16 0;
#X connect 6 0 7 0;
#X connect 7 0 24 0;
#X connect 8 0 19 0;
#X connect 8 1 20 0;
#X connect 9 0 10 0;
#X connect 10 0 27 0;
#X connect 11 0 18 0;
#X connect 11 1 21 0;
#X connect 12 0 13 0;
#X connect 13 0 26 0;
#X connect 14 0 15 0;
#X connect 15 0 1 0;
#X connect 16 0 6 1;
#X connect 17 0 6 0;
#X connect 18 0 12 0;
#X connect 19 0 9 0;
#X connect 20 0 9 1;
#X connect 21 0 12 1;
#X connect 22 0 3 0;
#X connect 23 0 3 1;
#X connect 24 0 1 0;
#X connect 25 0 1 0;
#X connect 26 0 1 0;
#X connect 27 0 1 0;
#X connect 28 0 29 0;
#X connect 29 0 30 0;
#X connect 30 0 1 0;
#X restore 1567 1508 pd color-pads;
#X floatatom 1567 1470 5 0 0 0 - - - 0;
#X floatatom 1567 1532 5 0 0 0 - - - 0;
#X obj 1567 1609 noteout 6;
#N canvas 173 117 662 531 color-pads 0;
#X obj 70 14 inlet;
#X obj 48 339 outlet;
#X obj 101 179 t f f;
#X obj 100 221 ==;
#X obj 100 242 sel 1;
#X obj 23 179 t f f;
#X obj 22 221 ==;
#X obj 22 242 sel 1;
#X obj 256 180 t f f;
#X obj 255 222 ==;
#X obj 255 243 sel 1;
#X obj 178 180 t f f;
#X obj 177 222 ==;
#X obj 177 243 sel 1;
#X obj 315 243 sel 0;
#X msg 315 263 0;
#X obj 58 199 <= 127;
#X obj 13 199 >= 101;
#X obj 178 200 >= 35;
#X obj 256 200 > 0;
#X obj 286 200 < 35;
#X obj 213 200 < 70;
#X obj 101 199 >= 70;
#X obj 136 199 <= 100;
#X msg 22 262 5;
#X msg 100 262 53;
#X msg 177 263 54;
#X msg 255 263 55;
#X obj 385 179 t f;
#X obj 385 203 sel 200;
#X msg 385 227 76;
#X connect 0 0 5 0;
#X connect 0 0 2 0;
#X connect 0 0 11 0;
#X connect 0 0 8 0;
#X connect 0 0 14 0;
#X connect 0 0 28 0;
#X connect 2 0 22 0;
#X connect 2 1 23 0;
#X connect 3 0 4 0;
#X connect 4 0 25 0;
#X connect 5 0 17 0;
#X connect 5 1 16 0;
#X connect 6 0 7 0;
#X connect 7 0 24 0;
#X connect 8 0 19 0;
#X connect 8 1 20 0;
#X connect 9 0 10 0;
#X connect 10 0 27 0;
#X connect 11 0 18 0;
#X connect 11 1 21 0;
#X connect 12 0 13 0;
#X connect 13 0 26 0;
#X connect 14 0 15 0;
#X connect 15 0 1 0;
#X connect 16 0 6 1;
#X connect 17 0 6 0;
#X connect 18 0 12 0;
#X connect 19 0 9 0;
#X connect 20 0 9 1;
#X connect 21 0 12 1;
#X connect 22 0 3 0;
#X connect 23 0 3 1;
#X connect 24 0 1 0;
#X connect 25 0 1 0;
#X connect 26 0 1 0;
#X connect 27 0 1 0;
#X connect 28 0 29 0;
#X connect 29 0 30 0;
#X connect 30 0 1 0;
#X restore 1677 1508 pd color-pads;
#X floatatom 1677 1470 5 0 0 0 - - - 0;
#X floatatom 1677 1532 5 0 0 0 - - - 0;
#X obj 1677 1609 noteout 6;
#N canvas 173 117 662 531 color-pads 0;
#X obj 70 14 inlet;
#X obj 48 339 outlet;
#X obj 101 179 t f f;
#X obj 100 221 ==;
#X obj 100 242 sel 1;
#X obj 23 179 t f f;
#X obj 22 221 ==;
#X obj 22 242 sel 1;
#X obj 256 180 t f f;
#X obj 255 222 ==;
#X obj 255 243 sel 1;
#X obj 178 180 t f f;
#X obj 177 222 ==;
#X obj 177 243 sel 1;
#X obj 315 243 sel 0;
#X msg 315 263 0;
#X obj 58 199 <= 127;
#X obj 13 199 >= 101;
#X obj 178 200 >= 35;
#X obj 256 200 > 0;
#X obj 286 200 < 35;
#X obj 213 200 < 70;
#X obj 101 199 >= 70;
#X obj 136 199 <= 100;
#X msg 22 262 5;
#X msg 100 262 53;
#X msg 177 263 54;
#X msg 255 263 55;
#X obj 385 179 t f;
#X obj 385 203 sel 200;
#X msg 385 227 76;
#X connect 0 0 5 0;
#X connect 0 0 2 0;
#X connect 0 0 11 0;
#X connect 0 0 8 0;
#X connect 0 0 14 0;
#X connect 0 0 28 0;
#X connect 2 0 22 0;
#X connect 2 1 23 0;
#X connect 3 0 4 0;
#X connect 4 0 25 0;
#X connect 5 0 17 0;
#X connect 5 1 16 0;
#X connect 6 0 7 0;
#X connect 7 0 24 0;
#X connect 8 0 19 0;
#X connect 8 1 20 0;
#X connect 9 0 10 0;
#X connect 10 0 27 0;
#X connect 11 0 18 0;
#X connect 11 1 21 0;
#X connect 12 0 13 0;
#X connect 13 0 26 0;
#X connect 14 0 15 0;
#X connect 15 0 1 0;
#X connect 16 0 6 1;
#X connect 17 0 6 0;
#X connect 18 0 12 0;
#X connect 19 0 9 0;
#X connect 20 0 9 1;
#X connect 21 0 12 1;
#X connect 22 0 3 0;
#X connect 23 0 3 1;
#X connect 24 0 1 0;
#X connect 25 0 1 0;
#X connect 26 0 1 0;
#X connect 27 0 1 0;
#X connect 28 0 29 0;
#X connect 29 0 30 0;
#X connect 30 0 1 0;
#X restore 1787 1508 pd color-pads;
#X floatatom 1787 1470 5 0 0 0 - - - 0;
#X floatatom 1787 1532 5 0 0 0 - - - 0;
#X obj 1787 1609 noteout 6;
#N canvas 173 117 662 531 color-pads 0;
#X obj 70 14 inlet;
#X obj 48 339 outlet;
#X obj 101 179 t f f;
#X obj 100 221 ==;
#X obj 100 242 sel 1;
#X obj 23 179 t f f;
#X obj 22 221 ==;
#X obj 22 242 sel 1;
#X obj 256 180 t f f;
#X obj 255 222 ==;
#X obj 255 243 sel 1;
#X obj 178 180 t f f;
#X obj 177 222 ==;
#X obj 177 243 sel 1;
#X obj 315 243 sel 0;
#X msg 315 263 0;
#X obj 58 199 <= 127;
#X obj 13 199 >= 101;
#X obj 178 200 >= 35;
#X obj 256 200 > 0;
#X obj 286 200 < 35;
#X obj 213 200 < 70;
#X obj 101 199 >= 70;
#X obj 136 199 <= 100;
#X msg 22 262 5;
#X msg 100 262 53;
#X msg 177 263 54;
#X msg 255 263 55;
#X obj 385 179 t f;
#X obj 385 203 sel 200;
#X msg 385 227 76;
#X connect 0 0 5 0;
#X connect 0 0 2 0;
#X connect 0 0 11 0;
#X connect 0 0 8 0;
#X connect 0 0 14 0;
#X connect 0 0 28 0;
#X connect 2 0 22 0;
#X connect 2 1 23 0;
#X connect 3 0 4 0;
#X connect 4 0 25 0;
#X connect 5 0 17 0;
#X connect 5 1 16 0;
#X connect 6 0 7 0;
#X connect 7 0 24 0;
#X connect 8 0 19 0;
#X connect 8 1 20 0;
#X connect 9 0 10 0;
#X connect 10 0 27 0;
#X connect 11 0 18 0;
#X connect 11 1 21 0;
#X connect 12 0 13 0;
#X connect 13 0 26 0;
#X connect 14 0 15 0;
#X connect 15 0 1 0;
#X connect 16 0 6 1;
#X connect 17 0 6 0;
#X connect 18 0 12 0;
#X connect 19 0 9 0;
#X connect 20 0 9 1;
#X connect 21 0 12 1;
#X connect 22 0 3 0;
#X connect 23 0 3 1;
#X connect 24 0 1 0;
#X connect 25 0 1 0;
#X connect 26 0 1 0;
#X connect 27 0 1 0;
#X connect 28 0 29 0;
#X connect 29 0 30 0;
#X connect 30 0 1 0;
#X restore 1897 1508 pd color-pads;
#X floatatom 1897 1470 5 0 0 0 - - - 0;
#X floatatom 1897 1532 5 0 0 0 - - - 0;
#X obj 1897 1609 noteout 6;
#X obj 1117 1446 r seq-btn-9;
#X msg 1117 1567 24 \$1;
#X obj 1227 1446 r seq-btn-10;
#X msg 1227 1567 25 \$1;
#X obj 1337 1446 r seq-btn-11;
#X msg 1337 1567 26 \$1;
#X obj 1447 1446 r seq-btn-12;
#X msg 1447 1567 27 \$1;
#X obj 1567 1446 r seq-btn-13;
#X msg 1567 1567 28 \$1;
#X obj 1677 1446 r seq-btn-14;
#X msg 1677 1567 29 \$1;
#X obj 1787 1446 r seq-btn-15;
#X msg 1787 1567 30 \$1;
#X obj 1897 1446 r seq-btn-16;
#X msg 1897 1567 31 \$1;
#X obj 228 2949 r apc-key-status, f 7;
#X obj 179 2977 spigot;
#X obj 179 2881 notein 1;
#X obj 179 2903 pack f f;
#X obj 179 2926 route 32;
#X floatatom 179 2947 5 0 0 0 - - - 0;
#X obj 179 3001 s seq-btn-1-r;
#X obj 1207 2958 r apc-key-status, f 7;
#X obj 1142 2982 spigot;
#X obj 1142 2890 notein 1;
#X obj 1142 2912 pack f f;
#X floatatom 1142 2956 5 0 0 0 - - - 0;
#X obj 1142 2935 route 20;
#X obj 1142 3006 s seq-btn-20-r;
#X obj 1337 2958 r apc-key-status, f 7;
#X obj 1272 2982 spigot;
#X obj 1272 2890 notein 1;
#X obj 1272 2912 pack f f;
#X floatatom 1272 2956 5 0 0 0 - - - 0;
#X obj 1272 2935 route 21;
#X obj 1272 3006 s seq-btn-21-r;
#X obj 1467 2958 r apc-key-status, f 7;
#X obj 1402 2982 spigot;
#X obj 1402 2890 notein 1;
#X obj 1402 2912 pack f f;
#X floatatom 1402 2956 5 0 0 0 - - - 0;
#X obj 1597 2958 r apc-key-status, f 7;
#X obj 1532 2982 spigot;
#X obj 1532 2890 notein 1;
#X obj 1532 2912 pack f f;
#X floatatom 1532 2956 5 0 0 0 - - - 0;
#X obj 1402 2935 route 22;
#X obj 1532 2935 route 23;
#X obj 1402 3006 s seq-btn-22-r;
#X obj 1532 3006 s seq-btn-23-r;
#X obj 340 2949 r apc-key-status, f 7;
#X obj 291 2977 spigot;
#X obj 291 2881 notein 1;
#X obj 291 2903 pack f f;
#X floatatom 291 2947 5 0 0 0 - - - 0;
#X obj 291 3001 s seq-btn-2-r;
#X obj 291 2926 route 33;
#X obj 448 2949 r apc-key-status, f 7;
#X obj 399 2977 spigot;
#X obj 399 2881 notein 1;
#X obj 399 2903 pack f f;
#X floatatom 399 2947 5 0 0 0 - - - 0;
#X obj 560 2949 r apc-key-status, f 7;
#X obj 511 2977 spigot;
#X obj 511 2881 notein 1;
#X obj 511 2903 pack f f;
#X floatatom 511 2947 5 0 0 0 - - - 0;
#X obj 399 2926 route 34;
#X obj 511 2926 route 35;
#X obj 399 3001 s seq-btn-3-r;
#X obj 511 3001 s seq-btn-4-r;
#X obj 678 2949 r apc-key-status, f 7;
#X obj 629 2977 spigot;
#X obj 629 2881 notein 1;
#X obj 629 2903 pack f f;
#X floatatom 629 2947 5 0 0 0 - - - 0;
#X obj 790 2949 r apc-key-status, f 7;
#X obj 741 2977 spigot;
#X obj 741 2881 notein 1;
#X obj 741 2903 pack f f;
#X floatatom 741 2947 5 0 0 0 - - - 0;
#X obj 898 2949 r apc-key-status, f 7;
#X obj 849 2977 spigot;
#X obj 849 2881 notein 1;
#X obj 849 2903 pack f f;
#X floatatom 849 2947 5 0 0 0 - - - 0;
#X obj 1010 2949 r apc-key-status, f 7;
#X obj 961 2977 spigot;
#X obj 961 2881 notein 1;
#X obj 961 2903 pack f f;
#X floatatom 961 2947 5 0 0 0 - - - 0;
#X obj 629 2926 route 36;
#X obj 741 2926 route 37;
#X obj 849 2926 route 38;
#X obj 961 2926 route 39;
#X obj 629 3001 s seq-btn-5-r;
#X obj 741 3001 s seq-btn-6-r;
#X obj 849 3001 s seq-btn-7-r;
#X obj 961 3001 s seq-btn-8-r;
#X obj 228 3148 r apc-key-status, f 7;
#X obj 179 3176 spigot;
#X obj 179 3081 notein 1;
#X obj 179 3103 pack f f;
#X floatatom 179 3147 5 0 0 0 - - - 0;
#X obj 340 3148 r apc-key-status, f 7;
#X obj 291 3176 spigot;
#X obj 291 3081 notein 1;
#X obj 291 3103 pack f f;
#X floatatom 291 3147 5 0 0 0 - - - 0;
#X obj 448 3148 r apc-key-status, f 7;
#X obj 399 3176 spigot;
#X obj 399 3081 notein 1;
#X obj 399 3103 pack f f;
#X floatatom 399 3147 5 0 0 0 - - - 0;
#X obj 560 3148 r apc-key-status, f 7;
#X obj 511 3176 spigot;
#X obj 511 3081 notein 1;
#X obj 511 3103 pack f f;
#X floatatom 511 3147 5 0 0 0 - - - 0;
#X obj 678 3148 r apc-key-status, f 7;
#X obj 629 3176 spigot;
#X obj 629 3081 notein 1;
#X obj 629 3103 pack f f;
#X floatatom 629 3147 5 0 0 0 - - - 0;
#X obj 790 3148 r apc-key-status, f 7;
#X obj 741 3176 spigot;
#X obj 741 3081 notein 1;
#X obj 741 3103 pack f f;
#X floatatom 741 3147 5 0 0 0 - - - 0;
#X obj 898 3148 r apc-key-status, f 7;
#X obj 849 3176 spigot;
#X obj 849 3081 notein 1;
#X obj 849 3103 pack f f;
#X floatatom 849 3147 5 0 0 0 - - - 0;
#X obj 1010 3148 r apc-key-status, f 7;
#X obj 961 3176 spigot;
#X obj 961 3081 notein 1;
#X obj 961 3103 pack f f;
#X floatatom 961 3147 5 0 0 0 - - - 0;
#X obj 179 3126 route 24;
#X obj 291 3126 route 25;
#X obj 179 3200 s seq-btn-9-r;
#X obj 291 3200 s seq-btn-10-r;
#X obj 399 3200 s seq-btn-11-r;
#X obj 511 3200 s seq-btn-12-r;
#X obj 629 3200 s seq-btn-13-r;
#X obj 741 3200 s seq-btn-14-r;
#X obj 848 3200 s seq-btn-15-r;
#X obj 961 3200 s seq-btn-16-r;
#X obj 399 3126 route 26;
#X obj 511 3126 route 27;
#X obj 629 3126 route 28;
#X obj 741 3126 route 29;
#X obj 849 3126 route 30;
#X obj 961 3126 route 31;
#X obj 1089 462 notein 17;
#X obj 1089 792 noteout 17;
#X obj 1179 462 notein 17;
#X obj 1179 792 noteout 17;
#X obj 1269 462 notein 17;
#X obj 1269 792 noteout 17;
#X obj 1359 462 notein 17;
#X obj 1359 792 noteout 17;
#X obj 1439 462 notein 17;
#X obj 1439 792 noteout 17;
#X obj 1529 462 notein 17;
#X obj 1529 792 noteout 17;
#X obj 1619 462 notein 17;
#X obj 1619 792 noteout 17;
#X obj 1709 462 notein 17;
#X obj 1710 792 noteout 17;
#X obj 1209 1947 s 1-fader;
#X obj 1288 1947 s 2-fader;
#X obj 1367 1948 s 3-fader;
#X obj 1446 1948 s 4-fader;
#X obj 1523 1948 s 5-fader;
#X obj 1602 1948 s 6-fader;
#X obj 1681 1949 s 7-fader;
#X obj 1760 1949 s 8-fader;
#X obj 1209 1852 ctlin 19 17;
#X obj 1288 1882 ctlin 23 17;
#X obj 1367 1845 ctlin 27 17;
#X obj 1446 1885 ctlin 31 17;
#X obj 1524 1838 ctlin 49 17;
#X obj 1602 1886 ctlin 53 17;
#X obj 1680 1844 ctlin 57 17;
#X obj 1760 1891 ctlin 61 17;
#X obj 1862 1893 ctlin 62 17;
#X obj 1862 1948 s fader-master;
#X obj 175 2083 sel 8;
#X obj 295 2083 sel 9;
#X obj 415 2083 sel 10;
#X obj 535 2083 sel 11;
#X obj 652 2082 sel 12;
#X obj 758 2080 sel 13;
#X obj 866 2080 sel 14;
#X obj 974 2080 sel 15;
#X msg 177 2432 8 16;
#X msg 191 2453 8 0;
#X msg 275 2429 9 16;
#X msg 289 2450 9 0;
#X msg 377 2432 10 16;
#X msg 391 2453 10 0;
#X msg 475 2429 11 16;
#X msg 489 2450 11 0;
#X msg 578 2430 12 16;
#X msg 592 2451 12 0;
#X msg 675 2428 13 16;
#X msg 689 2449 13 0;
#X msg 778 2430 14 16;
#X msg 791 2451 14 0;
#X msg 874 2430 15 16;
#X msg 887 2451 15 0;
#X obj 175 3451 s sub2-menu, f 5;
#X obj 295 3451 s sub2-menu, f 5;
#X obj 415 3451 s sub2-menu, f 5;
#X obj 535 3452 s sub2-menu, f 5;
#X obj 651 3450 s sub2-menu, f 5;
#X obj 756 3449 s sub2-menu, f 5;
#X obj 866 3450 s sub2-menu, f 5;
#X obj 974 3449 s sub2-menu, f 5;
#X obj 175 3377 bng 19 250 50 0 empty empty empty 0 -10 0 12 #fcfcfc #000000 #000000;
#X obj 214 3377 r apc-key-status, f 7;
#X obj 175 3428 spigot;
#X obj 176 3300 notein 1;
#X obj 295 3377 bng 19 250 50 0 empty empty empty 0 -10 0 12 #fcfcfc #000000 #000000;
#X obj 334 3377 r apc-key-status, f 7;
#X obj 295 3428 spigot;
#X obj 296 3300 notein 1;
#X obj 415 3377 bng 19 250 50 0 empty empty empty 0 -10 0 12 #fcfcfc #000000 #000000;
#X obj 454 3377 r apc-key-status, f 7;
#X obj 415 3428 spigot;
#X obj 416 3300 notein 1;
#X obj 535 3377 bng 19 250 50 0 empty empty empty 0 -10 0 12 #fcfcfc #000000 #000000;
#X obj 574 3377 r apc-key-status, f 7;
#X obj 535 3428 spigot;
#X obj 536 3300 notein 1;
#X obj 176 3324 stripnote;
#X obj 295 3328 stripnote;
#X msg 175 3401 0;
#X msg 295 3401 1;
#X obj 416 3332 stripnote;
#X msg 416 3402 2;
#X obj 536 3328 stripnote;
#X msg 535 3401 3;
#X obj 652 3376 bng 19 250 50 0 empty empty empty 0 -10 0 12 #fcfcfc #000000 #000000;
#X obj 691 3376 r apc-key-status, f 7;
#X obj 652 3427 spigot;
#X obj 653 3299 notein 1;
#X obj 653 3327 stripnote;
#X msg 652 3400 4;
#X obj 758 3374 bng 19 250 50 0 empty empty empty 0 -10 0 12 #fcfcfc #000000 #000000;
#X obj 797 3374 r apc-key-status, f 7;
#X obj 758 3425 spigot;
#X obj 759 3297 notein 1;
#X obj 759 3325 stripnote;
#X msg 758 3398 5;
#X obj 866 3374 bng 19 250 50 0 empty empty empty 0 -10 0 12 #fcfcfc #000000 #000000;
#X obj 905 3374 r apc-key-status, f 7;
#X obj 866 3425 spigot;
#X obj 867 3297 notein 1;
#X obj 867 3325 stripnote;
#X msg 866 3398 6;
#X obj 974 3374 bng 19 250 50 0 empty empty empty 0 -10 0 12 #fcfcfc #000000 #000000;
#X obj 1013 3374 r apc-key-status, f 7;
#X obj 974 3425 spigot;
#X obj 975 3297 notein 1;
#X obj 975 3325 stripnote;
#X msg 974 3398 7;
#X obj 177 3571 unpack f f f;
#X obj 177 3593 r apc-key-status, f 7;
#X obj 177 3645 spigot;
#X obj 177 3672 sel 1;
#X obj 274 3571 unpack f f f;
#X obj 274 3593 r apc-key-status, f 7;
#X obj 274 3645 spigot;
#X obj 274 3672 sel 2;
#X obj 377 3571 unpack f f f;
#X obj 377 3593 r apc-key-status, f 7;
#X obj 377 3645 spigot;
#X obj 474 3548 r all-menu;
#X obj 474 3571 unpack f f f;
#X obj 474 3593 r apc-key-status, f 7;
#X obj 474 3645 spigot;
#X obj 377 3672 sel 3;
#X obj 474 3672 sel 4;
#X obj 577 3548 r all-menu;
#X obj 577 3571 unpack f f f;
#X obj 577 3593 r apc-key-status, f 7;
#X obj 577 3645 spigot;
#X obj 674 3548 r all-menu;
#X obj 674 3571 unpack f f f;
#X obj 674 3593 r apc-key-status, f 7;
#X obj 674 3645 spigot;
#X obj 777 3548 r all-menu;
#X obj 777 3571 unpack f f f;
#X obj 777 3593 r apc-key-status, f 7;
#X obj 777 3645 spigot;
#X obj 874 3548 r all-menu;
#X obj 874 3571 unpack f f f;
#X obj 874 3593 r apc-key-status, f 7;
#X obj 874 3645 spigot;
#X obj 577 3672 sel 5;
#X obj 674 3672 sel 6;
#X obj 777 3672 sel 7;
#X obj 874 3672 sel 8;
#X obj 177 3548 r all-menu;
#X obj 274 3548 r all-menu;
#X obj 377 3548 r all-menu;
#X obj 177 3744 noteout 6;
#X obj 275 3741 noteout 6;
#X obj 377 3744 noteout 6;
#X obj 475 3741 noteout 6;
#X obj 578 3742 noteout 6;
#X obj 675 3740 noteout 6;
#X obj 778 3742 noteout 6;
#X obj 874 3742 noteout 6;
#X obj 175 3353 sel 8;
#X obj 295 3353 sel 9;
#X obj 415 3353 sel 10;
#X obj 535 3353 sel 11;
#X obj 652 3352 sel 12;
#X obj 758 3350 sel 13;
#X obj 866 3350 sel 14;
#X obj 974 3350 sel 15;
#X text 168 3523 SUB2 - menu - led out;
#X text 173 3279 sub2 menu - midi input;
#X msg 177 3702 8 16;
#X msg 191 3723 8 0;
#X msg 275 3699 9 16;
#X msg 289 3720 9 0;
#X msg 377 3702 10 16;
#X msg 391 3723 10 0;
#X msg 475 3699 11 16;
#X msg 490 3720 11 0;
#X msg 578 3700 12 16;
#X msg 592 3721 12 0;
#X msg 675 3698 13 16;
#X msg 689 3719 13 0;
#X msg 778 3700 14 16;
#X msg 791 3721 14 0;
#X msg 874 3700 15 16;
#X msg 887 3721 15 0;
#X connect 0 0 1 0;
#X connect 10 0 2 0;
#X connect 11 0 3 0;
#X connect 12 0 4 0;
#X connect 13 0 5 0;
#X connect 14 0 15 0;
#X connect 14 1 15 1;
#X connect 15 0 17 0;
#X connect 17 0 16 0;
#X connect 18 0 22 1;
#X connect 19 0 20 0;
#X connect 20 0 99 0;
#X connect 21 0 22 0;
#X connect 22 0 19 0;
#X connect 24 0 28 1;
#X connect 25 0 26 0;
#X connect 26 0 100 0;
#X connect 27 0 28 0;
#X connect 28 0 25 0;
#X connect 30 0 34 1;
#X connect 31 0 32 0;
#X connect 32 0 101 0;
#X connect 33 0 34 0;
#X connect 34 0 31 0;
#X connect 36 0 40 1;
#X connect 37 0 38 0;
#X connect 38 0 102 0;
#X connect 39 0 40 0;
#X connect 40 0 37 0;
#X connect 42 0 43 0;
#X connect 42 1 45 0;
#X connect 42 2 44 0;
#X connect 46 0 50 1;
#X connect 47 0 48 0;
#X connect 48 0 103 0;
#X connect 49 0 50 0;
#X connect 50 0 47 0;
#X connect 52 0 56 1;
#X connect 53 0 54 0;
#X connect 54 0 104 0;
#X connect 55 0 56 0;
#X connect 56 0 53 0;
#X connect 58 0 62 1;
#X connect 59 0 60 0;
#X connect 60 0 105 0;
#X connect 61 0 62 0;
#X connect 62 0 59 0;
#X connect 64 0 68 1;
#X connect 65 0 66 0;
#X connect 66 0 106 0;
#X connect 67 0 68 0;
#X connect 68 0 65 0;
#X connect 71 0 120 0;
#X connect 72 0 97 0;
#X connect 73 0 71 0;
#X connect 73 1 71 1;
#X connect 74 0 121 0;
#X connect 75 0 107 0;
#X connect 76 0 74 0;
#X connect 76 1 74 1;
#X connect 77 0 122 0;
#X connect 78 0 114 0;
#X connect 79 0 77 0;
#X connect 79 1 77 1;
#X connect 80 0 123 0;
#X connect 81 0 115 0;
#X connect 82 0 80 0;
#X connect 82 1 80 1;
#X connect 83 0 124 0;
#X connect 84 0 116 0;
#X connect 85 0 83 0;
#X connect 85 1 83 1;
#X connect 86 0 125 0;
#X connect 87 0 117 0;
#X connect 88 0 86 0;
#X connect 88 1 86 1;
#X connect 89 0 126 0;
#X connect 90 0 118 0;
#X connect 91 0 89 0;
#X connect 91 1 89 1;
#X connect 92 0 127 0;
#X connect 93 0 119 0;
#X connect 94 0 92 0;
#X connect 94 1 92 1;
#X connect 97 0 96 0;
#X connect 99 0 128 0;
#X connect 99 1 129 0;
#X connect 100 0 130 0;
#X connect 100 1 131 0;
#X connect 101 0 132 0;
#X connect 101 1 133 0;
#X connect 102 0 134 0;
#X connect 102 1 135 0;
#X connect 103 0 136 0;
#X connect 103 1 137 0;
#X connect 104 0 138 0;
#X connect 104 1 139 0;
#X connect 105 0 140 0;
#X connect 105 1 141 0;
#X connect 106 0 142 0;
#X connect 106 1 143 0;
#X connect 107 0 98 0;
#X connect 114 0 108 0;
#X connect 115 0 109 0;
#X connect 116 0 110 0;
#X connect 117 0 111 0;
#X connect 118 0 112 0;
#X connect 119 0 113 0;
#X connect 120 0 72 0;
#X connect 121 0 75 0;
#X connect 122 0 78 0;
#X connect 123 0 81 0;
#X connect 124 0 84 0;
#X connect 125 0 87 0;
#X connect 126 0 90 0;
#X connect 127 0 93 0;
#X connect 128 0 23 0;
#X connect 129 0 23 0;
#X connect 130 0 29 0;
#X connect 131 0 29 0;
#X connect 132 0 35 0;
#X connect 133 0 35 0;
#X connect 134 0 41 0;
#X connect 135 0 41 0;
#X connect 136 0 51 0;
#X connect 137 0 51 0;
#X connect 138 0 57 0;
#X connect 139 0 57 0;
#X connect 140 0 63 0;
#X connect 141 0 63 0;
#X connect 142 0 69 0;
#X connect 143 0 69 0;
#X connect 144 0 145 1;
#X connect 145 0 164 0;
#X connect 147 0 148 1;
#X connect 148 0 165 0;
#X connect 149 0 150 1;
#X connect 150 0 166 0;
#X connect 151 0 152 1;
#X connect 152 0 167 0;
#X connect 153 0 154 1;
#X connect 154 0 168 0;
#X connect 155 0 156 1;
#X connect 156 0 169 0;
#X connect 157 0 158 1;
#X connect 158 0 170 0;
#X connect 159 0 160 1;
#X connect 160 0 171 0;
#X connect 161 0 162 1;
#X connect 162 0 163 0;
#X connect 173 0 178 0;
#X connect 174 0 176 0;
#X connect 175 0 183 0;
#X connect 176 0 175 0;
#X connect 177 0 178 1;
#X connect 178 0 179 0;
#X connect 179 0 180 0;
#X connect 179 1 181 0;
#X connect 180 0 838 0;
#X connect 181 0 838 0;
#X connect 182 0 183 1;
#X connect 183 0 172 0;
#X connect 184 0 191 0;
#X connect 185 0 190 0;
#X connect 186 0 187 1;
#X connect 187 0 188 0;
#X connect 188 0 194 0;
#X connect 188 1 195 0;
#X connect 189 0 190 1;
#X connect 190 0 192 0;
#X connect 191 0 185 0;
#X connect 193 0 187 0;
#X connect 194 0 840 0;
#X connect 195 0 840 0;
#X connect 196 0 1 0;
#X connect 197 0 211 0;
#X connect 198 0 203 0;
#X connect 199 0 200 1;
#X connect 200 0 201 0;
#X connect 201 0 214 0;
#X connect 201 1 215 0;
#X connect 202 0 203 1;
#X connect 203 0 212 0;
#X connect 204 0 216 0;
#X connect 205 0 210 0;
#X connect 206 0 207 1;
#X connect 207 0 208 0;
#X connect 208 0 219 0;
#X connect 208 1 220 0;
#X connect 209 0 210 1;
#X connect 210 0 217 0;
#X connect 211 0 198 0;
#X connect 213 0 200 0;
#X connect 214 0 842 0;
#X connect 215 0 842 0;
#X connect 216 0 205 0;
#X connect 218 0 207 0;
#X connect 219 0 844 0;
#X connect 220 0 844 0;
#X connect 221 0 249 0;
#X connect 222 0 227 0;
#X connect 223 0 224 1;
#X connect 224 0 225 0;
#X connect 225 0 261 0;
#X connect 225 1 262 0;
#X connect 226 0 227 1;
#X connect 227 0 253 0;
#X connect 228 0 250 0;
#X connect 229 0 234 0;
#X connect 230 0 231 1;
#X connect 231 0 232 0;
#X connect 232 0 263 0;
#X connect 232 1 264 0;
#X connect 233 0 234 1;
#X connect 234 0 254 0;
#X connect 235 0 251 0;
#X connect 236 0 241 0;
#X connect 237 0 238 1;
#X connect 238 0 239 0;
#X connect 239 0 265 0;
#X connect 239 1 266 0;
#X connect 240 0 241 1;
#X connect 241 0 255 0;
#X connect 242 0 252 0;
#X connect 243 0 248 0;
#X connect 244 0 245 1;
#X connect 245 0 246 0;
#X connect 246 0 267 0;
#X connect 246 1 268 0;
#X connect 247 0 248 1;
#X connect 248 0 256 0;
#X connect 249 0 222 0;
#X connect 250 0 229 0;
#X connect 251 0 236 0;
#X connect 252 0 243 0;
#X connect 257 0 224 0;
#X connect 258 0 231 0;
#X connect 259 0 238 0;
#X connect 260 0 245 0;
#X connect 261 0 846 0;
#X connect 262 0 846 0;
#X connect 263 0 848 0;
#X connect 264 0 848 0;
#X connect 265 0 850 0;
#X connect 266 0 850 0;
#X connect 267 0 852 0;
#X connect 268 0 852 0;
#X connect 270 2 272 0;
#X connect 271 0 272 1;
#X connect 272 0 273 0;
#X connect 273 0 274 0;
#X connect 273 1 275 0;
#X connect 274 0 279 0;
#X connect 275 0 279 0;
#X connect 276 2 278 0;
#X connect 277 0 278 1;
#X connect 278 0 281 0;
#X connect 281 0 282 0;
#X connect 281 1 283 0;
#X connect 282 0 280 0;
#X connect 283 0 280 0;
#X connect 284 2 286 0;
#X connect 285 0 286 1;
#X connect 286 0 293 0;
#X connect 288 2 290 0;
#X connect 289 0 290 1;
#X connect 290 0 294 0;
#X connect 293 0 295 0;
#X connect 293 1 296 0;
#X connect 294 0 297 0;
#X connect 294 1 298 0;
#X connect 295 0 291 0;
#X connect 296 0 291 0;
#X connect 297 0 292 0;
#X connect 298 0 292 0;
#X connect 300 2 302 0;
#X connect 301 0 302 1;
#X connect 302 0 319 0;
#X connect 304 2 306 0;
#X connect 305 0 306 1;
#X connect 306 0 320 0;
#X connect 310 2 312 0;
#X connect 311 0 312 1;
#X connect 312 0 321 0;
#X connect 314 2 316 0;
#X connect 315 0 316 1;
#X connect 316 0 322 0;
#X connect 319 0 323 0;
#X connect 319 1 324 0;
#X connect 320 0 325 0;
#X connect 320 1 326 0;
#X connect 321 0 327 0;
#X connect 321 1 328 0;
#X connect 322 0 329 0;
#X connect 322 1 330 0;
#X connect 323 0 307 0;
#X connect 324 0 307 0;
#X connect 325 0 308 0;
#X connect 326 0 308 0;
#X connect 327 0 317 0;
#X connect 328 0 317 0;
#X connect 329 0 318 0;
#X connect 330 0 318 0;
#X connect 332 0 365 0;
#X connect 333 0 348 0;
#X connect 334 0 367 0;
#X connect 335 0 349 0;
#X connect 336 0 384 0;
#X connect 337 0 350 0;
#X connect 338 0 385 0;
#X connect 339 0 351 0;
#X connect 340 0 386 0;
#X connect 341 0 352 0;
#X connect 342 0 387 0;
#X connect 343 0 353 0;
#X connect 344 0 388 0;
#X connect 345 0 354 0;
#X connect 346 0 389 0;
#X connect 347 0 355 0;
#X connect 348 0 366 0;
#X connect 349 0 390 0;
#X connect 350 0 391 0;
#X connect 351 0 392 0;
#X connect 352 0 393 0;
#X connect 353 0 394 0;
#X connect 354 0 395 0;
#X connect 355 0 396 0;
#X connect 365 0 369 0;
#X connect 367 0 371 0;
#X connect 368 0 369 1;
#X connect 369 0 333 0;
#X connect 370 0 371 1;
#X connect 371 0 335 0;
#X connect 372 0 373 1;
#X connect 373 0 337 0;
#X connect 374 0 375 1;
#X connect 375 0 339 0;
#X connect 376 0 377 1;
#X connect 377 0 341 0;
#X connect 378 0 379 1;
#X connect 379 0 343 0;
#X connect 380 0 381 1;
#X connect 381 0 345 0;
#X connect 382 0 383 1;
#X connect 383 0 347 0;
#X connect 384 0 373 0;
#X connect 385 0 375 0;
#X connect 386 0 377 0;
#X connect 387 0 379 0;
#X connect 388 0 381 0;
#X connect 389 0 383 0;
#X connect 397 0 145 0;
#X connect 398 0 148 0;
#X connect 399 0 150 0;
#X connect 400 0 152 0;
#X connect 401 0 154 0;
#X connect 402 0 156 0;
#X connect 403 0 158 0;
#X connect 404 0 160 0;
#X connect 405 0 162 0;
#X connect 406 0 408 0;
#X connect 406 1 409 0;
#X connect 407 0 406 0;
#X connect 408 0 410 0;
#X connect 409 0 410 0;
#X connect 411 0 412 0;
#X connect 411 1 413 0;
#X connect 414 0 6 0;
#X connect 415 0 7 0;
#X connect 416 0 8 0;
#X connect 417 0 9 0;
#X connect 418 0 419 1;
#X connect 419 0 471 0;
#X connect 420 0 421 1;
#X connect 421 0 441 0;
#X connect 422 0 423 1;
#X connect 423 0 475 0;
#X connect 424 0 425 1;
#X connect 425 0 476 0;
#X connect 426 0 427 1;
#X connect 427 0 466 0;
#X connect 428 0 429 1;
#X connect 429 0 467 0;
#X connect 430 0 431 1;
#X connect 431 0 468 0;
#X connect 432 0 433 1;
#X connect 433 0 469 0;
#X connect 437 0 427 0;
#X connect 438 0 429 0;
#X connect 439 0 431 0;
#X connect 440 0 433 0;
#X connect 441 0 452 0;
#X connect 441 1 453 0;
#X connect 450 0 442 0;
#X connect 451 0 442 0;
#X connect 452 0 443 0;
#X connect 453 0 443 0;
#X connect 454 0 444 0;
#X connect 455 0 444 0;
#X connect 456 0 445 0;
#X connect 457 0 445 0;
#X connect 458 0 446 0;
#X connect 459 0 446 0;
#X connect 460 0 447 0;
#X connect 461 0 447 0;
#X connect 462 0 448 0;
#X connect 463 0 448 0;
#X connect 464 0 449 0;
#X connect 465 0 449 0;
#X connect 466 0 458 0;
#X connect 466 1 459 0;
#X connect 467 0 460 0;
#X connect 467 1 461 0;
#X connect 468 0 462 0;
#X connect 468 1 463 0;
#X connect 469 0 464 0;
#X connect 469 1 465 0;
#X connect 470 0 419 0;
#X connect 471 0 450 0;
#X connect 471 1 451 0;
#X connect 472 0 421 0;
#X connect 473 0 423 0;
#X connect 474 0 425 0;
#X connect 475 0 454 0;
#X connect 475 1 455 0;
#X connect 476 0 456 0;
#X connect 476 1 457 0;
#X connect 477 0 470 0;
#X connect 478 0 472 0;
#X connect 479 0 473 0;
#X connect 480 0 474 0;
#X connect 481 0 501 0;
#X connect 482 0 483 1;
#X connect 483 0 499 0;
#X connect 484 0 497 0;
#X connect 484 1 497 1;
#X connect 485 0 502 0;
#X connect 486 0 487 1;
#X connect 487 0 500 0;
#X connect 488 0 498 0;
#X connect 488 1 498 1;
#X connect 489 0 504 0;
#X connect 490 0 491 1;
#X connect 491 0 507 0;
#X connect 492 0 503 0;
#X connect 492 1 503 1;
#X connect 493 0 506 0;
#X connect 494 0 495 1;
#X connect 495 0 508 0;
#X connect 496 0 505 0;
#X connect 496 1 505 1;
#X connect 497 0 871 0;
#X connect 498 0 872 0;
#X connect 501 0 483 0;
#X connect 502 0 487 0;
#X connect 503 0 873 0;
#X connect 504 0 491 0;
#X connect 505 0 874 0;
#X connect 506 0 495 0;
#X connect 509 0 515 0;
#X connect 510 0 511 1;
#X connect 511 0 514 0;
#X connect 512 0 513 0;
#X connect 512 1 513 1;
#X connect 513 0 875 0;
#X connect 515 0 511 0;
#X connect 516 0 522 0;
#X connect 517 0 518 1;
#X connect 518 0 521 0;
#X connect 519 0 520 0;
#X connect 519 1 520 1;
#X connect 520 0 876 0;
#X connect 522 0 518 0;
#X connect 523 0 529 0;
#X connect 524 0 525 1;
#X connect 525 0 528 0;
#X connect 526 0 527 0;
#X connect 526 1 527 1;
#X connect 527 0 877 0;
#X connect 529 0 525 0;
#X connect 530 0 536 0;
#X connect 531 0 532 1;
#X connect 532 0 535 0;
#X connect 533 0 534 0;
#X connect 533 1 534 1;
#X connect 534 0 878 0;
#X connect 536 0 532 0;
#X connect 539 1 541 0;
#X connect 540 0 541 1;
#X connect 541 0 542 0;
#X connect 542 0 879 0;
#X connect 542 1 880 0;
#X connect 543 1 545 0;
#X connect 544 0 545 1;
#X connect 545 0 546 0;
#X connect 546 0 881 0;
#X connect 546 1 882 0;
#X connect 547 1 549 0;
#X connect 548 0 549 1;
#X connect 549 0 554 0;
#X connect 550 0 551 0;
#X connect 551 1 553 0;
#X connect 552 0 553 1;
#X connect 553 0 555 0;
#X connect 554 0 883 0;
#X connect 554 1 884 0;
#X connect 555 0 885 0;
#X connect 555 1 886 0;
#X connect 556 0 557 0;
#X connect 557 1 559 0;
#X connect 558 0 559 1;
#X connect 559 0 572 0;
#X connect 560 0 561 0;
#X connect 561 1 563 0;
#X connect 562 0 563 1;
#X connect 563 0 573 0;
#X connect 564 0 565 0;
#X connect 565 1 567 0;
#X connect 566 0 567 1;
#X connect 567 0 574 0;
#X connect 568 0 569 0;
#X connect 569 1 571 0;
#X connect 570 0 571 1;
#X connect 571 0 575 0;
#X connect 572 0 887 0;
#X connect 572 1 888 0;
#X connect 573 0 889 0;
#X connect 573 1 890 0;
#X connect 574 0 891 0;
#X connect 574 1 892 0;
#X connect 575 0 893 0;
#X connect 575 1 894 0;
#X connect 576 0 539 0;
#X connect 577 0 543 0;
#X connect 578 0 547 0;
#X connect 588 0 590 0;
#X connect 589 0 590 1;
#X connect 590 0 594 0;
#X connect 591 0 593 0;
#X connect 593 0 588 0;
#X connect 595 0 597 0;
#X connect 596 0 597 1;
#X connect 597 0 600 0;
#X connect 598 0 599 0;
#X connect 599 0 595 0;
#X connect 601 0 604 0;
#X connect 602 0 603 0;
#X connect 603 0 601 0;
#X connect 604 0 606 0;
#X connect 606 0 605 0;
#X connect 607 0 609 0;
#X connect 608 0 607 0;
#X connect 609 0 612 0;
#X connect 611 0 608 0;
#X connect 612 0 610 0;
#X connect 613 0 615 0;
#X connect 614 0 613 0;
#X connect 615 0 623 0;
#X connect 617 0 619 0;
#X connect 618 0 617 0;
#X connect 619 0 624 0;
#X connect 621 0 614 0;
#X connect 622 0 618 0;
#X connect 623 0 616 0;
#X connect 624 0 620 0;
#X connect 625 0 627 0;
#X connect 626 0 625 0;
#X connect 627 0 645 0;
#X connect 629 0 631 0;
#X connect 630 0 629 0;
#X connect 631 0 646 0;
#X connect 633 0 635 0;
#X connect 634 0 633 0;
#X connect 635 0 647 0;
#X connect 637 0 639 0;
#X connect 638 0 637 0;
#X connect 639 0 648 0;
#X connect 641 0 626 0;
#X connect 642 0 630 0;
#X connect 643 0 634 0;
#X connect 644 0 638 0;
#X connect 645 0 628 0;
#X connect 646 0 632 0;
#X connect 647 0 636 0;
#X connect 648 0 640 0;
#X connect 649 0 651 0;
#X connect 650 0 649 0;
#X connect 651 0 682 0;
#X connect 653 0 655 0;
#X connect 654 0 653 0;
#X connect 655 0 684 0;
#X connect 657 0 659 0;
#X connect 658 0 657 0;
#X connect 659 0 686 0;
#X connect 661 0 663 0;
#X connect 662 0 661 0;
#X connect 663 0 688 0;
#X connect 665 0 667 0;
#X connect 666 0 665 0;
#X connect 667 0 690 0;
#X connect 669 0 671 0;
#X connect 670 0 669 0;
#X connect 671 0 692 0;
#X connect 673 0 675 0;
#X connect 674 0 673 0;
#X connect 675 0 694 0;
#X connect 677 0 679 0;
#X connect 678 0 677 0;
#X connect 679 0 696 0;
#X connect 681 0 650 0;
#X connect 682 0 652 0;
#X connect 683 0 654 0;
#X connect 684 0 656 0;
#X connect 685 0 658 0;
#X connect 686 0 660 0;
#X connect 687 0 662 0;
#X connect 688 0 664 0;
#X connect 689 0 666 0;
#X connect 690 0 668 0;
#X connect 691 0 670 0;
#X connect 692 0 672 0;
#X connect 693 0 674 0;
#X connect 694 0 676 0;
#X connect 695 0 678 0;
#X connect 696 0 680 0;
#X connect 697 0 698 1;
#X connect 698 0 703 0;
#X connect 699 0 700 0;
#X connect 699 1 700 1;
#X connect 700 0 701 0;
#X connect 701 0 702 0;
#X connect 702 0 698 0;
#X connect 704 0 705 1;
#X connect 705 0 710 0;
#X connect 706 0 707 0;
#X connect 706 1 707 1;
#X connect 707 0 709 0;
#X connect 708 0 705 0;
#X connect 709 0 708 0;
#X connect 711 0 712 1;
#X connect 712 0 717 0;
#X connect 713 0 714 0;
#X connect 713 1 714 1;
#X connect 714 0 716 0;
#X connect 715 0 712 0;
#X connect 716 0 715 0;
#X connect 718 0 719 1;
#X connect 719 0 730 0;
#X connect 720 0 721 0;
#X connect 720 1 721 1;
#X connect 721 0 728 0;
#X connect 722 0 719 0;
#X connect 723 0 724 1;
#X connect 724 0 731 0;
#X connect 725 0 726 0;
#X connect 725 1 726 1;
#X connect 726 0 729 0;
#X connect 727 0 724 0;
#X connect 728 0 722 0;
#X connect 729 0 727 0;
#X connect 732 0 733 1;
#X connect 733 0 737 0;
#X connect 734 0 735 0;
#X connect 734 1 735 1;
#X connect 735 0 738 0;
#X connect 736 0 733 0;
#X connect 738 0 736 0;
#X connect 739 0 740 1;
#X connect 740 0 751 0;
#X connect 741 0 742 0;
#X connect 741 1 742 1;
#X connect 742 0 749 0;
#X connect 743 0 740 0;
#X connect 744 0 745 1;
#X connect 745 0 752 0;
#X connect 746 0 747 0;
#X connect 746 1 747 1;
#X connect 747 0 750 0;
#X connect 748 0 745 0;
#X connect 749 0 743 0;
#X connect 750 0 748 0;
#X connect 753 0 754 1;
#X connect 754 0 777 0;
#X connect 755 0 756 0;
#X connect 755 1 756 1;
#X connect 756 0 773 0;
#X connect 757 0 754 0;
#X connect 758 0 759 1;
#X connect 759 0 778 0;
#X connect 760 0 761 0;
#X connect 760 1 761 1;
#X connect 761 0 774 0;
#X connect 762 0 759 0;
#X connect 763 0 764 1;
#X connect 764 0 779 0;
#X connect 765 0 766 0;
#X connect 765 1 766 1;
#X connect 766 0 775 0;
#X connect 767 0 764 0;
#X connect 768 0 769 1;
#X connect 769 0 780 0;
#X connect 770 0 771 0;
#X connect 770 1 771 1;
#X connect 771 0 776 0;
#X connect 772 0 769 0;
#X connect 773 0 757 0;
#X connect 774 0 762 0;
#X connect 775 0 767 0;
#X connect 776 0 772 0;
#X connect 781 0 782 1;
#X connect 782 0 823 0;
#X connect 783 0 784 0;
#X connect 783 1 784 1;
#X connect 784 0 821 0;
#X connect 785 0 782 0;
#X connect 786 0 787 1;
#X connect 787 0 824 0;
#X connect 788 0 789 0;
#X connect 788 1 789 1;
#X connect 789 0 822 0;
#X connect 790 0 787 0;
#X connect 791 0 792 1;
#X connect 792 0 825 0;
#X connect 793 0 794 0;
#X connect 793 1 794 1;
#X connect 794 0 831 0;
#X connect 795 0 792 0;
#X connect 796 0 797 1;
#X connect 797 0 826 0;
#X connect 798 0 799 0;
#X connect 798 1 799 1;
#X connect 799 0 832 0;
#X connect 800 0 797 0;
#X connect 801 0 802 1;
#X connect 802 0 827 0;
#X connect 803 0 804 0;
#X connect 803 1 804 1;
#X connect 804 0 833 0;
#X connect 805 0 802 0;
#X connect 806 0 807 1;
#X connect 807 0 828 0;
#X connect 808 0 809 0;
#X connect 808 1 809 1;
#X connect 809 0 834 0;
#X connect 810 0 807 0;
#X connect 811 0 812 1;
#X connect 812 0 829 0;
#X connect 813 0 814 0;
#X connect 813 1 814 1;
#X connect 814 0 835 0;
#X connect 815 0 812 0;
#X connect 816 0 817 1;
#X connect 817 0 830 0;
#X connect 818 0 819 0;
#X connect 818 1 819 1;
#X connect 819 0 836 0;
#X connect 820 0 817 0;
#X connect 821 0 785 0;
#X connect 822 0 790 0;
#X connect 831 0 795 0;
#X connect 832 0 800 0;
#X connect 833 0 805 0;
#X connect 834 0 810 0;
#X connect 835 0 815 0;
#X connect 836 0 820 0;
#X connect 837 0 174 0;
#X connect 837 1 174 1;
#X connect 839 0 184 0;
#X connect 839 1 184 1;
#X connect 841 0 197 0;
#X connect 841 1 197 1;
#X connect 843 0 204 0;
#X connect 843 1 204 1;
#X connect 845 0 221 0;
#X connect 845 1 221 1;
#X connect 847 0 228 0;
#X connect 847 1 228 1;
#X connect 849 0 235 0;
#X connect 849 1 235 1;
#X connect 851 0 242 0;
#X connect 851 1 242 1;
#X connect 861 0 853 0;
#X connect 862 0 854 0;
#X connect 863 0 855 0;
#X connect 864 0 856 0;
#X connect 865 0 857 0;
#X connect 866 0 858 0;
#X connect 867 0 859 0;
#X connect 868 0 860 0;
#X connect 869 0 870 0;
#X connect 871 0 481 0;
#X connect 872 0 485 0;
#X connect 873 0 489 0;
#X connect 874 0 493 0;
#X connect 875 0 509 0;
#X connect 876 0 516 0;
#X connect 877 0 523 0;
#X connect 878 0 530 0;
#X connect 879 0 580 0;
#X connect 880 0 580 0;
#X connect 881 0 581 0;
#X connect 882 0 581 0;
#X connect 883 0 582 0;
#X connect 884 0 582 0;
#X connect 885 0 583 0;
#X connect 886 0 583 0;
#X connect 887 0 584 0;
#X connect 888 0 584 0;
#X connect 889 0 585 0;
#X connect 890 0 585 0;
#X connect 891 0 586 0;
#X connect 892 0 586 0;
#X connect 893 0 587 0;
#X connect 894 0 587 0;
#X connect 903 0 921 0;
#X connect 904 0 905 1;
#X connect 905 0 895 0;
#X connect 906 0 919 0;
#X connect 906 1 919 1;
#X connect 907 0 922 0;
#X connect 908 0 909 1;
#X connect 909 0 896 0;
#X connect 910 0 920 0;
#X connect 910 1 920 1;
#X connect 911 0 924 0;
#X connect 912 0 913 1;
#X connect 913 0 897 0;
#X connect 914 0 923 0;
#X connect 914 1 923 1;
#X connect 915 0 926 0;
#X connect 916 0 917 1;
#X connect 917 0 898 0;
#X connect 918 0 925 0;
#X connect 918 1 925 1;
#X connect 919 0 999 0;
#X connect 920 0 1000 0;
#X connect 921 0 905 0;
#X connect 922 0 909 0;
#X connect 923 0 1001 0;
#X connect 924 0 913 0;
#X connect 925 0 1002 0;
#X connect 926 0 917 0;
#X connect 927 0 932 0;
#X connect 928 0 929 1;
#X connect 929 0 899 0;
#X connect 930 0 931 0;
#X connect 930 1 931 1;
#X connect 931 0 1003 0;
#X connect 932 0 929 0;
#X connect 933 0 938 0;
#X connect 934 0 935 1;
#X connect 935 0 900 0;
#X connect 936 0 937 0;
#X connect 936 1 937 1;
#X connect 937 0 1004 0;
#X connect 938 0 935 0;
#X connect 939 0 944 0;
#X connect 940 0 941 1;
#X connect 941 0 901 0;
#X connect 942 0 943 0;
#X connect 942 1 943 1;
#X connect 943 0 1005 0;
#X connect 944 0 941 0;
#X connect 945 0 950 0;
#X connect 946 0 947 1;
#X connect 947 0 902 0;
#X connect 948 0 949 0;
#X connect 948 1 949 1;
#X connect 949 0 1006 0;
#X connect 950 0 947 0;
#X connect 951 2 953 0;
#X connect 952 0 953 1;
#X connect 953 0 954 0;
#X connect 954 0 1009 0;
#X connect 954 1 1010 0;
#X connect 955 2 957 0;
#X connect 956 0 957 1;
#X connect 957 0 958 0;
#X connect 958 0 1011 0;
#X connect 958 1 1012 0;
#X connect 959 2 961 0;
#X connect 960 0 961 1;
#X connect 961 0 966 0;
#X connect 962 0 963 0;
#X connect 963 2 965 0;
#X connect 964 0 965 1;
#X connect 965 0 967 0;
#X connect 966 0 1013 0;
#X connect 966 1 1014 0;
#X connect 967 0 1015 0;
#X connect 967 1 1016 0;
#X connect 968 0 969 0;
#X connect 969 2 971 0;
#X connect 970 0 971 1;
#X connect 971 0 984 0;
#X connect 972 0 973 0;
#X connect 973 2 975 0;
#X connect 974 0 975 1;
#X connect 975 0 985 0;
#X connect 976 0 977 0;
#X connect 977 2 979 0;
#X connect 978 0 979 1;
#X connect 979 0 986 0;
#X connect 980 0 981 0;
#X connect 981 2 983 0;
#X connect 982 0 983 1;
#X connect 983 0 987 0;
#X connect 984 0 1017 0;
#X connect 984 1 1018 0;
#X connect 985 0 1019 0;
#X connect 985 1 1020 0;
#X connect 986 0 1021 0;
#X connect 986 1 1022 0;
#X connect 987 0 1023 0;
#X connect 987 1 1024 0;
#X connect 988 0 951 0;
#X connect 989 0 955 0;
#X connect 990 0 959 0;
#X connect 999 0 903 0;
#X connect 1000 0 907 0;
#X connect 1001 0 911 0;
#X connect 1002 0 915 0;
#X connect 1003 0 927 0;
#X connect 1004 0 933 0;
#X connect 1005 0 939 0;
#X connect 1006 0 945 0;
#X connect 1009 0 991 0;
#X connect 1010 0 991 0;
#X connect 1011 0 992 0;
#X connect 1012 0 992 0;
#X connect 1013 0 993 0;
#X connect 1014 0 993 0;
#X connect 1015 0 994 0;
#X connect 1016 0 994 0;
#X connect 1017 0 995 0;
#X connect 1018 0 995 0;
#X connect 1019 0 996 0;
#X connect 1020 0 996 0;
#X connect 1021 0 997 0;
#X connect 1022 0 997 0;
#X connect 1023 0 998 0;
#X connect 1024 0 998 0;
#X restore 452 69 pd akai-apc-key;
#X obj 452 46 tgl 19 0 empty empty empty 0 -10 0 12 #fcfcfc #000000 #000000 0 1;
#X obj 452 -2 loadbang;
#X msg 452 22 1;
#X obj 13 112 vradio 15 1 0 4 empty empty empty 0 -10 0 12 #fcfcfc #000000 #000000 0;
#X obj 31 120 cnv 5 5 5 empty empty MODULES 0 0 0 8 #fcfcfc #000000 0;
#X obj 31 135 cnv 5 5 5 empty empty PERFORM 0 0 0 8 #fcfcfc #000000 0;
#X obj 31 149 cnv 5 5 5 empty empty MIXER 0 0 0 8 #fcfcfc #000000 0;
#X obj 31 165 cnv 5 5 5 empty empty MENU 0 0 0 8 #fcfcfc #000000 0;
#X obj 13 103 cnv 5 5 5 empty empty MAIN-MENU: 0 0 0 12 #fcfcfc #404040 0;
#X obj 304 21 del 500;
#X listbox 258 388 13 0 0 0 - - - 0;
#X obj 258 367 pack f f f;
#X obj 148 222 tgl 15 0 empty \$0-mod-button1 empty 17 7 0 10 #ffffff #000000 #000000 0 1;
#X obj 163 222 tgl 15 0 empty \$0-mod-button2 empty 17 7 0 10 #ffffff #000000 #000000 0 1;
#X obj 178 222 tgl 15 0 empty \$0-mod-button3 empty 17 7 0 10 #ffffff #000000 #000000 0 1;
#X obj 258 346 poly 1 1;
#X obj 258 409 route 1, f 10;
#X listbox 258 431 20 0 0 0 - - - 0;
#X msg 258 324 1 \$1;
#X msg 295 324 2 \$1;
#X msg 332 324 3 \$1;
#X obj 148 211 cnv 5 5 5 empty empty MOD-MENU: 0 0 0 12 #fcfcfc #404040 0;
#X obj 193 222 tgl 15 0 empty \$0-mod-button4 empty 17 7 0 10 #ffffff #000000 #000000 0 1;
#X obj 258 452 s mod-menu;
#X msg 369 324 4 \$1;
#X msg 360 388 1 0 0;
#X obj 360 361 loadbang;
#X msg 304 45 7;
#X msg 237 31 0;
#X obj 581 250 loadbang;
#X obj 649 134 s play-s2;
#X connect 1 0 14 0;
#X connect 2 0 48 0;
#X connect 5 0 12 0;
#X connect 8 0 10 0;
#X connect 8 1 10 1;
#X connect 10 0 4 0;
#X connect 11 0 10 0;
#X connect 11 1 10 2;
#X connect 12 0 6 0;
#X connect 12 1 7 0;
#X connect 12 2 13 0;
#X connect 14 0 42 0;
#X connect 15 0 10 0;
#X connect 16 0 17 0;
#X connect 17 0 8 0;
#X connect 18 0 11 0;
#X connect 19 0 18 0;
#X connect 21 0 20 0;
#X connect 25 0 26 0;
#X connect 25 1 26 1;
#X connect 26 0 30 0;
#X connect 27 0 69 0;
#X connect 28 0 29 0;
#X connect 28 1 36 0;
#X connect 28 2 35 0;
#X connect 30 0 27 0;
#X connect 31 0 32 0;
#X connect 32 0 37 0;
#X connect 33 0 34 0;
#X connect 33 1 34 1;
#X connect 33 2 34 2;
#X connect 37 0 33 0;
#X connect 39 0 38 0;
#X connect 40 0 41 0;
#X connect 41 0 39 0;
#X connect 42 0 15 0;
#X connect 48 0 66 0;
#X connect 48 0 67 0;
#X connect 49 0 55 0;
#X connect 50 0 49 0;
#X connect 51 0 57 0;
#X connect 52 0 58 0;
#X connect 53 0 59 0;
#X connect 54 0 50 0;
#X connect 54 1 50 1;
#X connect 54 2 50 2;
#X connect 55 0 56 0;
#X connect 56 0 62 0;
#X connect 57 0 54 0;
#X connect 58 0 54 0;
#X connect 59 0 54 0;
#X connect 61 0 63 0;
#X connect 63 0 54 0;
#X connect 64 0 55 0;
#X connect 65 0 64 0;
#X connect 66 0 16 0;
#X connect 66 0 19 0;
#X connect 67 0 42 0;
#X coords 0 -1 1 1 220 150 2 100 100;
