#N canvas 0 25 1440 847 12;
#X obj 466 111 inlet;
#X obj 466 135 t b b b b b b b;
#X obj 464 191 outlet;
#X connect 0 0 1 0;
#X connect 1 0 2 0;
#X connect 1 1 2 0;
#X connect 1 2 2 0;
#X connect 1 3 2 0;
#X connect 1 4 2 0;
#X connect 1 5 2 0;
#X connect 1 6 2 0;
#X coords 0 847 1 846 220 150 0;
